<?xml version="1.0" encoding="utf-8"?>
<!-- Generator: Adobe Illustrator 16.0.0, SVG Export Plug-In . SVG Version: 6.00 Build 0)  -->
<!DOCTYPE svg PUBLIC "-//W3C//DTD SVG 1.1//EN" "http://www.w3.org/Graphics/SVG/1.1/DTD/svg11.dtd">
<svg version="1.1" id="Layer_1" xmlns="http://www.w3.org/2000/svg" xmlns:xlink="http://www.w3.org/1999/xlink" x="0px" y="0px"
	 width="50px" height="86px" viewBox="0 0 50 86" enable-background="new 0 0 50 86" xml:space="preserve">
<rect id="backgroundrect" fill="none" width="50" height="86"/>
<title>Layer 1</title>
<path id="svg_1" fill="#E7896E" d="M22.238,71.172v8.749c0,3.3,2.675,5.974,5.973,5.974c3.299,0,5.973-2.674,5.974-5.974
	l-0.001-8.749c0-7.628,5.529-10.26,9.977-11.143c3.195-0.634,5.498-3.434,5.498-6.691v-8.771H6.765l0,8.771
	c0,3.258,2.302,6.058,5.498,6.691C16.71,60.912,22.238,63.544,22.238,71.172z"/>
<path id="svg_2" fill="#DD6642" d="M44.16,60.029c3.195-0.633,5.498-3.434,5.498-6.691v-8.771H37.115
	c-0.219,2.605-0.996,5.138-2.287,7.424c-5.381,9.521-0.645,19.183-0.645,19.183C34.184,63.544,39.713,60.912,44.16,60.029z"/>
<path id="svg_3" fill="#FFEAB7" d="M13.751,7.351h28.918c3.859,0,6.988,3.129,6.988,6.989v27.484H6.762V14.34
	C6.763,10.48,9.892,7.351,13.751,7.351z"/>
<path id="svg_4" fill="#FAD989" d="M49.657,14.34c0-3.86-3.129-6.988-6.988-6.989l-8.753,0c3.598,4.429,3.279,10.887,3.279,10.887
	s-0.014,14.629-0.014,23.585h12.476V14.34z"/>
<path id="svg_5" fill="#A7B6C5" d="M49.658,51.174H6.764V35.315h42.895V51.174z"/>
<path id="svg_6" fill="#889CB0" d="M49.658,51.174V35.315H37.185c-0.001,2.784-0.002,5.483-0.001,7.713
	c0,2.833-0.66,5.62-1.922,8.145H49.658z"/>
<path id="svg_7" fill="#08A650" d="M6.765,19.002c0,2.655,2.152,4.807,4.808,4.807c0,0,4.497-0.25,4.807-4.763v-3.589
	c0-1.969,1.611-3.64,3.58-3.604c1.909,0.035,3.445,1.594,3.445,3.511v9.283c0,2.606,2.027,4.827,4.632,4.919
	c2.735,0.098,4.982-2.091,4.982-4.804v-6.21c0.001-1.968,1.611-3.64,3.58-3.604c1.908,0.036,3.444,1.594,3.444,3.511v3.86
	c0,2.607,2.027,4.827,4.633,4.92c2.734,0.097,4.982-2.091,4.982-4.805v-8.095c0-3.86-3.129-6.989-6.988-6.989
	c0,0-20.503,0.004-27.238,0.011c-1.222,0.001-2.339-0.695-2.867-1.797c-0.763-1.593-1.706-3.019-2.531-3.844
	c-2.296-2.296-6.017-2.295-8.313,0s-2.295,6.017,0,8.312c0.721,0.721,1.899,1.531,3.247,2.233c1.137,0.592,1.814,1.9,1.795,3.182
	L6.765,19.002z"/>
<path id="svg_8" fill="#08A650" d="M40.043,18.461v3.859c0,2.606,2.027,4.827,4.633,4.919c2.734,0.097,4.982-2.091,4.982-4.804
	V14.34c0-3.86-3.129-6.988-6.988-6.989c0,0-3.846,0.001-8.752,0.002c1.945,2.397,2.746,5.384,3.069,7.624
	C38.711,15.202,40.043,16.676,40.043,18.461z"/>
<g>
	<path fill="#FFFFFF" d="M26.814,45.119l0.174-0.216c0.49-0.743,0.836-1.296,1.039-1.656c0.201-0.361,0.364-0.739,0.486-1.136
		c0.181-0.548,0.271-1.119,0.271-1.71c0-0.606-0.074-1.061-0.222-1.364c-0.147-0.303-0.42-0.552-0.816-0.747
		c-0.506,0.729-0.758,1.652-0.758,2.771c0,0.433,0.068,0.876,0.205,1.331c0.058,0.166,0.087,0.278,0.087,0.335
		c0,0.209-0.112,0.314-0.335,0.314c-0.203,0-0.477-0.085-0.823-0.254s-0.61-0.344-0.79-0.525c-0.202-0.216-0.368-0.498-0.498-0.844
		s-0.195-0.714-0.195-1.104c0-0.548,0.114-1.071,0.341-1.569c0.227-0.498,0.547-0.931,0.957-1.298
		c0.412-0.368,0.9-0.655,1.467-0.861c0.566-0.206,1.167-0.308,1.803-0.308c0.635,0,1.214,0.139,1.736,0.417
		c0.523,0.277,0.94,0.66,1.25,1.146c0.311,0.487,0.466,1.015,0.466,1.585c0,0.425-0.082,0.879-0.245,1.363
		c-0.162,0.483-0.42,1.022-0.771,1.617c-0.352,0.595-0.802,1.25-1.35,1.964c-0.549,0.714-1.188,1.482-1.916,2.305l-0.217,0.26
		l-0.185,0.206c0.304,0.09,0.72,0.135,1.247,0.135s1.057-0.029,1.588-0.087c0.53-0.058,0.948-0.133,1.252-0.228
		c0.202-0.058,0.336-0.086,0.4-0.086c0.072,0,0.108,0.021,0.108,0.064c0,0.268-0.171,0.682-0.514,1.245
		c-0.343,0.563-0.702,1.028-1.077,1.396c-0.39,0.368-0.856,0.638-1.401,0.807c-0.545,0.17-1.218,0.254-2.019,0.254
		c-1.024,0-1.905-0.141-2.641-0.422c-0.736-0.281-1.104-0.62-1.104-1.017c0-0.274,0.372-0.823,1.115-1.646
		c0.526-0.599,1.006-1.194,1.439-1.786c0.029-0.043,0.06-0.086,0.092-0.13c0.033-0.043,0.062-0.084,0.086-0.124
		c0.025-0.04,0.061-0.096,0.104-0.168L26.814,45.119z"/>
</g>
</svg>
