<?xml version="1.0" encoding="utf-8"?>
<!-- Generator: Adobe Illustrator 16.0.0, SVG Export Plug-In . SVG Version: 6.00 Build 0)  -->
<!DOCTYPE svg PUBLIC "-//W3C//DTD SVG 1.1//EN" "http://www.w3.org/Graphics/SVG/1.1/DTD/svg11.dtd">
<svg version="1.1" id="Layer_1" xmlns="http://www.w3.org/2000/svg" xmlns:xlink="http://www.w3.org/1999/xlink" x="0px" y="0px"
	 width="50px" height="86px" viewBox="0 0 50 86" enable-background="new 0 0 50 86" xml:space="preserve">
<rect id="backgroundrect" fill="none" width="50" height="86"/>
<title>Layer 1</title>
<path id="svg_1" fill="#E7896E" d="M22.238,71.172v8.749c0,3.3,2.675,5.974,5.973,5.974c3.299,0,5.973-2.674,5.974-5.974
	l-0.001-8.749c0-7.628,5.529-10.26,9.977-11.143c3.195-0.634,5.498-3.434,5.498-6.691v-8.771H6.765l0,8.771
	c0,3.258,2.302,6.058,5.498,6.691C16.71,60.912,22.238,63.544,22.238,71.172z"/>
<path id="svg_2" fill="#DD6642" d="M44.16,60.029c3.195-0.633,5.498-3.434,5.498-6.691v-8.771H37.116
	c-0.22,2.605-0.997,5.138-2.288,7.424c-5.38,9.521-0.645,19.183-0.645,19.183C34.184,63.544,39.713,60.912,44.16,60.029z"/>
<path id="svg_3" fill="#FFEAB7" d="M13.751,7.351h28.918c3.859,0,6.988,3.129,6.989,6.989v27.484H6.762V14.34
	C6.763,10.48,9.892,7.351,13.751,7.351z"/>
<path id="svg_4" fill="#FAD989" d="M49.658,14.34c-0.001-3.86-3.13-6.988-6.989-6.989l-8.753,0
	c3.598,4.429,3.279,10.887,3.279,10.887s-0.014,14.629-0.014,23.585h12.477V14.34z"/>
<path id="svg_5" fill="#A7B6C5" d="M49.658,51.174H6.764V35.315h42.895V51.174z"/>
<path id="svg_6" fill="#889CB0" d="M49.658,51.174V35.315H37.185c-0.001,2.784-0.002,5.483-0.001,7.713
	c0,2.833-0.659,5.62-1.922,8.145H49.658z"/>
<path id="svg_7" fill="#C6946B" d="M6.765,19.002c0,2.655,2.152,4.807,4.808,4.807c0,0,4.497-0.25,4.807-4.763v-3.589
	c0-1.969,1.611-3.64,3.58-3.604c1.909,0.035,3.445,1.594,3.445,3.511l0,9.283c0,2.606,2.027,4.827,4.632,4.919
	c2.735,0.098,4.983-2.091,4.983-4.804v-6.21c0-1.968,1.61-3.64,3.579-3.604c1.908,0.036,3.444,1.594,3.444,3.511v3.86
	c0,2.607,2.027,4.827,4.633,4.92c2.734,0.097,4.982-2.091,4.982-4.805v-8.095c0-3.86-3.129-6.989-6.988-6.989
	c0,0-20.503,0.004-27.238,0.011c-1.222,0.001-2.34-0.695-2.867-1.797c-0.763-1.593-1.705-3.019-2.531-3.844
	c-2.296-2.296-6.017-2.295-8.313,0s-2.295,6.017,0,8.312c0.721,0.721,1.899,1.531,3.247,2.233c1.137,0.592,1.814,1.9,1.795,3.182
	L6.765,19.002z"/>
<path id="svg_8" fill="#C6946B" d="M40.043,18.461v3.859c0,2.606,2.027,4.827,4.633,4.919c2.734,0.097,4.982-2.091,4.982-4.804
	V14.34c0-3.86-3.129-6.988-6.988-6.989c0,0-3.846,0.001-8.752,0.002c1.945,2.397,2.746,5.384,3.069,7.624
	C38.711,15.202,40.043,16.676,40.043,18.461z"/>
<g>
	<path fill="#FFFFFF" d="M21.853,40.357l0.216-0.53c-0.108,0.029-0.278,0.094-0.508,0.195c-0.498,0.209-0.815,0.314-0.953,0.314
		c-0.13,0-0.236-0.07-0.319-0.211c-0.083-0.141-0.125-0.323-0.125-0.547c0-0.188,0.047-0.411,0.141-0.671
		c0.093-0.26,0.195-0.437,0.303-0.53c0.188-0.145,1.01-0.556,2.468-1.234l0.325-0.141c0.065-0.043,0.169-0.094,0.314-0.151
		c0.959-0.469,1.573-0.704,1.84-0.704c0.237,0,0.424,0.068,0.557,0.206c0.133,0.137,0.199,0.332,0.197,0.584
		c0,0.541-0.252,1.497-0.757,2.868c-0.116,0.332-0.208,0.594-0.276,0.785c-0.069,0.191-0.168,0.474-0.298,0.85
		c-0.036,0.137-0.076,0.278-0.119,0.422c-0.252,0.844-0.437,1.479-0.552,1.905c-0.015,0.05-0.063,0.222-0.146,0.514
		c-0.083,0.293-0.143,0.504-0.179,0.633c-0.036,0.13-0.076,0.264-0.119,0.401c-0.483,1.847-0.887,3.03-1.211,3.55
		c-0.108,0.166-0.234,0.313-0.378,0.443c-0.311,0.238-0.579,0.423-0.806,0.553c-0.228,0.13-0.444,0.222-0.649,0.275
		c-0.206,0.055-0.438,0.081-0.698,0.081c-0.375,0-0.709-0.109-1.001-0.33c-0.292-0.22-0.438-0.471-0.438-0.752
		c0-0.051,0.014-0.134,0.043-0.249C19.576,46.354,20.619,43.511,21.853,40.357z"/>
	<path fill="#FFFFFF" d="M30.436,48.777H30.5c0.238,0,0.535-0.109,0.893-0.33c0.357-0.22,0.709-0.51,1.057-0.871
		c0.447-0.462,0.801-0.954,1.064-1.478c0.264-0.522,0.396-1.012,0.396-1.466c0-0.988-0.523-1.587-1.57-1.797
		c-0.201-0.029-0.346-0.074-0.434-0.135c-0.086-0.061-0.129-0.157-0.129-0.287c0-0.145,0.174-0.364,0.52-0.661
		c0.52-0.455,0.926-0.95,1.217-1.488c0.293-0.538,0.439-1.077,0.439-1.618c0-0.577-0.119-0.866-0.357-0.866
		c-0.195,0-0.438,0.153-0.725,0.46c-0.289,0.307-0.564,0.698-0.828,1.174c-0.264,0.476-0.461,0.945-0.59,1.407
		c-0.043,0.159-0.088,0.262-0.131,0.309s-0.104,0.07-0.184,0.07c-0.209,0-0.469-0.162-0.779-0.487
		c-0.439-0.469-0.66-0.945-0.66-1.429c0-0.556,0.225-1.107,0.676-1.656c0.451-0.548,1.037-0.992,1.76-1.331
		c0.721-0.339,1.461-0.509,2.219-0.509c0.613,0,1.172,0.119,1.678,0.357c0.504,0.238,0.898,0.568,1.18,0.99
		c0.281,0.422,0.422,0.896,0.422,1.423c0,0.959-0.416,1.728-1.244,2.305c-0.434,0.296-0.971,0.577-1.613,0.844v0.043
		c1.018,0.058,1.781,0.285,2.295,0.682c0.512,0.397,0.768,0.952,0.768,1.666c0,0.333-0.078,0.698-0.232,1.1
		c-0.156,0.4-0.375,0.812-0.66,1.233s-0.627,0.843-1.023,1.261c-0.865,0.916-1.807,1.633-2.824,2.148s-1.996,0.773-2.934,0.773
		c-0.895,0-1.639-0.285-2.234-0.854c-0.596-0.57-0.893-1.284-0.893-2.144c0-0.584,0.199-1.168,0.6-1.753
		c0.4-0.584,0.918-1.063,1.555-1.434c0.635-0.372,1.27-0.558,1.904-0.558c0.266,0,0.4,0.098,0.4,0.292c0,0.08-0.111,0.213-0.336,0.4
		c-0.021,0.021-0.045,0.045-0.07,0.07s-0.053,0.053-0.08,0.081c-0.283,0.325-0.5,0.729-0.656,1.213
		c-0.154,0.483-0.232,0.988-0.232,1.515C30.121,47.966,30.227,48.41,30.436,48.777z"/>
</g>
</svg>
