<?xml version="1.0" encoding="utf-8"?>
<!-- Generator: Adobe Illustrator 16.0.0, SVG Export Plug-In . SVG Version: 6.00 Build 0)  -->
<!DOCTYPE svg PUBLIC "-//W3C//DTD SVG 1.1//EN" "http://www.w3.org/Graphics/SVG/1.1/DTD/svg11.dtd">
<svg version="1.1" id="Layer_1" xmlns="http://www.w3.org/2000/svg" xmlns:xlink="http://www.w3.org/1999/xlink" x="0px" y="0px"
	 width="50px" height="86px" viewBox="0 0 50 86" enable-background="new 0 0 50 86" xml:space="preserve">
<rect id="backgroundrect" fill="none" width="50" height="86"/>
<title>Layer 1</title>
<path id="svg_1" fill="#E7896E" d="M22.238,71.172v8.749c0,3.3,2.675,5.974,5.973,5.974c3.299,0,5.973-2.674,5.974-5.974
	l-0.001-8.749c0-7.628,5.529-10.26,9.977-11.143c3.195-0.634,5.498-3.434,5.498-6.691v-8.771H6.765l0,8.771
	c0,3.258,2.302,6.058,5.498,6.691C16.71,60.912,22.238,63.544,22.238,71.172z"/>
<path id="svg_2" fill="#DD6642" d="M44.16,60.029c3.195-0.633,5.498-3.434,5.498-6.691v-8.771H37.115
	c-0.219,2.605-0.996,5.138-2.287,7.424c-5.381,9.521-0.645,19.183-0.645,19.183C34.184,63.544,39.713,60.912,44.16,60.029z"/>
<path id="svg_3" fill="#FFEAB7" d="M13.751,7.351h28.918c3.859,0,6.988,3.129,6.988,6.989v27.484H6.762V14.34
	C6.763,10.48,9.892,7.351,13.751,7.351z"/>
<path id="svg_4" fill="#FAD989" d="M49.657,14.34c0-3.86-3.129-6.988-6.988-6.989l-8.753,0c3.598,4.429,3.279,10.887,3.279,10.887
	s-0.014,14.629-0.014,23.585h12.476V14.34z"/>
<path id="svg_5" fill="#A7B6C5" d="M49.658,51.174H6.764V35.315h42.895V51.174z"/>
<path id="svg_6" fill="#889CB0" d="M49.658,51.174V35.315H37.185c-0.001,2.784-0.002,5.483-0.001,7.713
	c0,2.833-0.66,5.62-1.922,8.145H49.658z"/>
<path id="svg_7" fill="#F89520" d="M6.765,19.002c0,2.655,2.152,4.807,4.808,4.807c0,0,4.497-0.25,4.807-4.763v-3.589
	c0-1.969,1.611-3.64,3.58-3.604c1.909,0.035,3.445,1.594,3.445,3.511l0,9.283c0,2.606,2.027,4.827,4.632,4.919
	c2.735,0.098,4.983-2.091,4.983-4.804v-6.21c0-1.968,1.61-3.64,3.579-3.604c1.908,0.036,3.444,1.594,3.444,3.511v3.86
	c0,2.607,2.027,4.827,4.633,4.92c2.734,0.097,4.982-2.091,4.982-4.805v-8.095c0-3.86-3.129-6.989-6.988-6.989
	c0,0-20.503,0.004-27.238,0.011c-1.222,0.001-2.339-0.695-2.867-1.797c-0.763-1.593-1.706-3.019-2.531-3.844
	c-2.296-2.296-6.017-2.295-8.313,0s-2.295,6.017,0,8.312c0.721,0.721,1.899,1.531,3.247,2.233c1.137,0.592,1.814,1.9,1.795,3.182
	L6.765,19.002z"/>
<path id="svg_8" fill="#F89520" d="M40.043,18.461v3.859c0,2.606,2.027,4.827,4.633,4.919c2.734,0.097,4.982-2.091,4.982-4.804
	V14.34c0-3.86-3.129-6.988-6.988-6.989c0,0-3.846,0.001-8.752,0.002c1.945,2.397,2.746,5.384,3.069,7.624
	C38.711,15.202,40.043,16.676,40.043,18.461z"/>
<g>
	<path fill="#FFFFFF" d="M29.174,39.025l-0.8,1.418l0.043,0.043c0.513-0.217,0.968-0.372,1.364-0.465s0.785-0.141,1.168-0.141
		c0.988,0,1.758,0.232,2.307,0.698c0.547,0.465,0.822,1.12,0.822,1.964c0,0.418-0.061,0.86-0.18,1.326
		c-0.119,0.466-0.295,0.935-0.529,1.407s-0.516,0.937-0.844,1.391c-0.33,0.455-0.734,0.928-1.219,1.418
		c-0.707,0.714-1.416,1.273-2.127,1.678s-1.348,0.605-1.91,0.605c-0.41,0-0.814-0.081-1.212-0.243
		c-0.396-0.162-0.747-0.392-1.05-0.688c-0.534-0.533-0.801-1.288-0.801-2.262c0-1.299,0.372-2.316,1.115-3.052
		c0.368-0.375,0.799-0.684,1.293-0.926s0.926-0.362,1.293-0.362c0.391,0,0.585,0.108,0.585,0.325v0.032
		c-0.311,0.369-0.544,0.68-0.698,0.936c-0.155,0.257-0.316,0.601-0.481,1.034c-0.282,0.721-0.423,1.562-0.423,2.521
		c0,0.743,0.148,1.114,0.444,1.114c0.382,0,0.797-0.224,1.245-0.671c0.49-0.512,0.916-1.147,1.277-1.904
		c0.359-0.758,0.541-1.4,0.541-1.927c0-0.735-0.154-1.279-0.461-1.629c-0.307-0.35-0.795-0.525-1.467-0.525
		c-0.375,0-0.88,0.069-1.515,0.206c-0.347,0.058-0.53,0.087-0.552,0.087c-0.209,0-0.385-0.071-0.525-0.211s-0.211-0.323-0.211-0.546
		c0-0.188,0.098-0.577,0.293-1.169c0.31-0.996,0.635-1.897,0.974-2.706L27,37.65c0.035-0.072,0.097-0.206,0.184-0.4
		c0.209-0.512,0.395-0.833,0.557-0.963c0.163-0.13,0.457-0.195,0.883-0.195c1.363,0,2.393,0.014,3.084,0.043
		c0.158,0,0.297,0.007,0.412,0.022h0.141c0.541,0.029,0.908,0.076,1.104,0.141s0.293,0.166,0.293,0.303
		c0,0.123-0.082,0.309-0.244,0.558s-0.363,0.485-0.602,0.709c-0.404,0.404-0.822,0.716-1.254,0.936
		c-0.434,0.22-0.859,0.33-1.277,0.33c-0.182,0-0.467-0.021-0.855-0.065c-0.115-0.029-0.178-0.043-0.184-0.043H29.174z"/>
</g>
</svg>
