<?xml version="1.0" encoding="utf-8"?>
<!-- Generator: Adobe Illustrator 16.0.0, SVG Export Plug-In . SVG Version: 6.00 Build 0)  -->
<!DOCTYPE svg PUBLIC "-//W3C//DTD SVG 1.1//EN" "http://www.w3.org/Graphics/SVG/1.1/DTD/svg11.dtd">
<svg version="1.1" id="Layer_1" xmlns="http://www.w3.org/2000/svg" xmlns:xlink="http://www.w3.org/1999/xlink" x="0px" y="0px"
	 width="50px" height="86px" viewBox="0 0 50 86" enable-background="new 0 0 50 86" xml:space="preserve">
<rect id="backgroundrect" fill="none" width="50" height="86"/>
<title>Layer 1</title>
<path id="svg_1" fill="#E7896E" d="M22.238,71.172v8.749c0,3.3,2.675,5.974,5.973,5.974c3.299,0,5.973-2.674,5.975-5.974
	l-0.002-8.749c0-7.628,5.529-10.26,9.979-11.143c3.193-0.635,5.498-3.436,5.498-6.691v-8.771H6.765v8.771
	c0,3.258,2.302,6.059,5.498,6.691C16.71,60.912,22.238,63.544,22.238,71.172z"/>
<path id="svg_2" fill="#DD6642" d="M44.16,60.029c3.195-0.633,5.498-3.436,5.498-6.691v-8.771H37.116
	c-0.22,2.605-0.997,5.14-2.288,7.426c-5.38,9.521-0.645,19.183-0.645,19.183C34.184,63.544,39.713,60.912,44.16,60.029z"/>
<path id="svg_3" fill="#FFEAB7" d="M13.751,7.351h28.918c3.858,0,6.988,3.129,6.989,6.989v27.484H6.762V14.34
	C6.763,10.48,9.892,7.351,13.751,7.351z"/>
<path id="svg_4" fill="#FAD989" d="M49.658,14.34c-0.001-3.86-3.131-6.988-6.989-6.989h-8.753
	c3.598,4.429,3.279,10.887,3.279,10.887s-0.014,14.629-0.014,23.585h12.477V14.34z"/>
<path id="svg_5" fill="#A7B6C5" d="M49.658,51.174H6.764V35.315h42.895L49.658,51.174L49.658,51.174z"/>
<path id="svg_6" fill="#889CB0" d="M49.658,51.174V35.315H37.186c-0.002,2.784-0.002,5.483-0.002,7.713
	c0,2.833-0.658,5.621-1.922,8.145L49.658,51.174L49.658,51.174z"/>
<path id="svg_7" fill="#FCFCFC" d="M6.765,19.002c0,2.655,2.152,4.807,4.808,4.807c0,0,4.497-0.25,4.807-4.763v-3.589
	c0-1.969,1.611-3.64,3.58-3.604c1.909,0.035,3.445,1.594,3.445,3.511v9.283c0,2.606,2.027,4.827,4.632,4.919
	c2.734,0.098,4.982-2.091,4.982-4.804v-6.21c0-1.968,1.609-3.64,3.58-3.604c1.906,0.036,3.442,1.594,3.442,3.511v3.86
	c0,2.607,2.026,4.827,4.633,4.92c2.734,0.097,4.982-2.091,4.982-4.805v-8.095c0-3.86-3.13-6.989-6.988-6.989
	c0,0-20.503,0.004-27.238,0.011c-1.222,0.001-2.34-0.695-2.867-1.797c-0.763-1.593-1.705-3.019-2.531-3.844
	c-2.296-2.296-6.017-2.295-8.313,0c-2.296,2.295-2.295,6.019,0,8.313c0.721,0.721,1.899,1.531,3.247,2.233
	c1.137,0.592,1.814,1.9,1.795,3.182L6.765,19.002z"/>
<path id="svg_8" fill="#FCFCFC" d="M40.043,18.461v3.859c0,2.606,2.027,4.827,4.633,4.919c2.734,0.097,4.982-2.091,4.982-4.804
	V14.34c0-3.86-3.129-6.988-6.988-6.989c0,0-3.846,0.001-8.752,0.002c1.945,2.397,2.746,5.384,3.068,7.624
	C38.711,15.202,40.043,16.676,40.043,18.461z"/>
<g>
	<path d="M23.078,44.894l0.166-0.208c0.47-0.711,0.801-1.239,0.995-1.584c0.193-0.345,0.349-0.708,0.466-1.087
		c0.173-0.525,0.259-1.07,0.259-1.637c0-0.58-0.071-1.015-0.212-1.305s-0.402-0.528-0.782-0.715
		c-0.483,0.698-0.725,1.582-0.725,2.651c0,0.415,0.066,0.839,0.197,1.274c0.056,0.159,0.083,0.266,0.083,0.321
		c0,0.2-0.107,0.3-0.321,0.3c-0.193,0-0.456-0.081-0.788-0.243c-0.331-0.162-0.583-0.33-0.756-0.502
		c-0.193-0.207-0.352-0.477-0.477-0.808c-0.124-0.331-0.187-0.684-0.187-1.056c0-0.525,0.109-1.025,0.327-1.502
		c0.217-0.477,0.523-0.891,0.917-1.243c0.394-0.352,0.861-0.626,1.403-0.823s1.117-0.295,1.725-0.295s1.163,0.133,1.663,0.398
		s0.898,0.631,1.195,1.097s0.445,0.971,0.445,1.516c0,0.407-0.078,0.842-0.232,1.304c-0.156,0.462-0.402,0.979-0.738,1.548
		c-0.338,0.569-0.768,1.195-1.293,1.879c-0.523,0.684-1.135,1.419-1.833,2.206l-0.207,0.248l-0.176,0.197
		c0.291,0.086,0.688,0.129,1.193,0.129c0.504,0,1.012-0.027,1.52-0.083c0.508-0.055,0.908-0.127,1.197-0.217
		c0.195-0.056,0.322-0.083,0.385-0.083c0.068,0,0.104,0.021,0.104,0.062c0,0.256-0.164,0.653-0.492,1.191
		c-0.328,0.539-0.672,0.984-1.031,1.336c-0.371,0.353-0.818,0.609-1.34,0.771c-0.522,0.163-1.166,0.244-1.932,0.244
		c-0.981,0-1.823-0.135-2.527-0.404c-0.705-0.27-1.057-0.594-1.057-0.974c0-0.263,0.355-0.787,1.067-1.574
		c0.504-0.573,0.963-1.143,1.377-1.709c0.028-0.042,0.057-0.083,0.088-0.124c0.031-0.042,0.059-0.081,0.083-0.119
		c0.024-0.038,0.057-0.092,0.099-0.161L23.078,44.894z"/>
	<path d="M32.586,44.894l0.166-0.208c0.469-0.711,0.801-1.239,0.994-1.584c0.193-0.345,0.349-0.708,0.466-1.087
		c0.173-0.525,0.259-1.07,0.259-1.637c0-0.58-0.07-1.015-0.212-1.305s-0.402-0.528-0.782-0.715
		c-0.483,0.698-0.725,1.582-0.725,2.651c0,0.415,0.065,0.839,0.196,1.274c0.056,0.159,0.083,0.266,0.083,0.321
		c0,0.2-0.107,0.3-0.321,0.3c-0.193,0-0.455-0.081-0.787-0.243c-0.331-0.162-0.583-0.33-0.756-0.502
		c-0.193-0.207-0.353-0.477-0.477-0.808c-0.124-0.331-0.187-0.684-0.187-1.056c0-0.525,0.109-1.025,0.326-1.502
		c0.218-0.477,0.523-0.891,0.917-1.243c0.394-0.352,0.861-0.626,1.403-0.823s1.117-0.295,1.725-0.295s1.162,0.133,1.662,0.398
		c0.501,0.266,0.899,0.631,1.196,1.097s0.445,0.971,0.445,1.516c0,0.407-0.078,0.842-0.233,1.304
		c-0.156,0.462-0.402,0.979-0.738,1.548c-0.337,0.569-0.767,1.195-1.292,1.879c-0.524,0.684-1.136,1.419-1.833,2.206l-0.208,0.248
		l-0.176,0.197c0.29,0.086,0.688,0.129,1.193,0.129c0.504,0,1.011-0.027,1.52-0.083c0.508-0.055,0.907-0.127,1.197-0.217
		c0.194-0.056,0.321-0.083,0.384-0.083c0.069,0,0.104,0.021,0.104,0.062c0,0.256-0.165,0.653-0.492,1.191
		c-0.328,0.539-0.672,0.984-1.031,1.336c-0.372,0.353-0.819,0.609-1.341,0.771c-0.521,0.163-1.165,0.244-1.932,0.244
		c-0.98,0-1.823-0.135-2.527-0.404s-1.057-0.594-1.057-0.974c0-0.263,0.355-0.787,1.067-1.574c0.504-0.573,0.963-1.143,1.377-1.709
		c0.027-0.042,0.058-0.083,0.088-0.124c0.031-0.042,0.059-0.081,0.083-0.119s0.058-0.092,0.099-0.161L32.586,44.894z"/>
</g>
</svg>
