<?xml version="1.0" encoding="utf-8"?>
<!-- Generator: Adobe Illustrator 16.0.0, SVG Export Plug-In . SVG Version: 6.00 Build 0)  -->
<!DOCTYPE svg PUBLIC "-//W3C//DTD SVG 1.1//EN" "http://www.w3.org/Graphics/SVG/1.1/DTD/svg11.dtd">
<svg version="1.1" id="Layer_1" xmlns="http://www.w3.org/2000/svg" xmlns:xlink="http://www.w3.org/1999/xlink" x="0px" y="0px"
	 width="50px" height="86px" viewBox="0 0 50 86" enable-background="new 0 0 50 86" xml:space="preserve">
<rect id="backgroundrect" fill="none" width="50" height="86"/>
<title>Layer 1</title>
<path id="svg_1" fill="#E7896E" d="M22.238,71.172v8.749c0,3.3,2.675,5.974,5.973,5.974c3.299,0,5.973-2.674,5.974-5.974
	l-0.001-8.749c0-7.628,5.529-10.26,9.977-11.143c3.195-0.634,5.498-3.434,5.498-6.691v-8.771H6.765l0,8.771
	c0,3.258,2.302,6.058,5.498,6.691C16.71,60.912,22.238,63.544,22.238,71.172z"/>
<path id="svg_2" fill="#DD6642" d="M44.16,60.029c3.195-0.633,5.498-3.434,5.498-6.691v-8.771H37.116
	c-0.22,2.605-0.997,5.138-2.288,7.424c-5.38,9.521-0.645,19.183-0.645,19.183C34.184,63.544,39.713,60.912,44.16,60.029z"/>
<path id="svg_3" fill="#FFEAB7" d="M13.751,7.351h28.918c3.859,0,6.988,3.129,6.989,6.989v27.484H6.762V14.34
	C6.763,10.48,9.892,7.351,13.751,7.351z"/>
<path id="svg_4" fill="#FAD989" d="M49.658,14.34c-0.001-3.86-3.13-6.988-6.989-6.989l-8.753,0
	c3.598,4.429,3.279,10.887,3.279,10.887s-0.014,14.629-0.014,23.585h12.477V14.34z"/>
<path id="svg_5" fill="#A7B6C5" d="M49.658,51.174H6.764V35.315h42.895V51.174z"/>
<path id="svg_6" fill="#889CB0" d="M49.658,51.174V35.315H37.185c-0.001,2.784-0.002,5.483-0.001,7.713
	c0,2.833-0.659,5.62-1.922,8.145H49.658z"/>
<path id="svg_7" fill="#4D4D4D" d="M6.765,19.002c0,2.655,2.152,4.807,4.808,4.807c0,0,4.497-0.25,4.807-4.763v-3.589
	c0-1.969,1.611-3.64,3.58-3.604c1.909,0.035,3.445,1.594,3.445,3.511l0,9.283c0,2.606,2.027,4.827,4.632,4.919
	c2.735,0.098,4.983-2.091,4.983-4.804v-6.21c0-1.968,1.61-3.64,3.579-3.604c1.908,0.036,3.444,1.594,3.444,3.511v3.86
	c0,2.607,2.027,4.827,4.633,4.92c2.734,0.097,4.982-2.091,4.982-4.805v-8.095c0-3.86-3.129-6.989-6.988-6.989
	c0,0-20.503,0.004-27.238,0.011c-1.222,0.001-2.34-0.695-2.867-1.797c-0.763-1.593-1.705-3.019-2.531-3.844
	c-2.296-2.296-6.017-2.295-8.313,0s-2.295,6.017,0,8.312c0.721,0.721,1.899,1.531,3.247,2.233c1.137,0.592,1.814,1.9,1.795,3.182
	L6.765,19.002z"/>
<path id="svg_8" fill="#4D4D4D" d="M40.043,18.461v3.859c0,2.606,2.027,4.827,4.633,4.919c2.734,0.097,4.982-2.091,4.982-4.804
	V14.34c0-3.86-3.129-6.988-6.988-6.989c0,0-3.846,0.001-8.752,0.002c1.945,2.397,2.746,5.384,3.069,7.624
	C38.711,15.202,40.043,16.676,40.043,18.461z"/>
<g>
	<path fill="#FFFFFF" d="M22.302,40.508l0.216-0.53c-0.108,0.029-0.278,0.094-0.508,0.195c-0.498,0.209-0.815,0.314-0.953,0.314
		c-0.13,0-0.236-0.07-0.319-0.211c-0.083-0.141-0.125-0.323-0.125-0.547c0-0.188,0.047-0.411,0.141-0.671
		c0.093-0.26,0.195-0.437,0.303-0.53c0.188-0.145,1.01-0.556,2.468-1.234l0.325-0.141c0.065-0.043,0.169-0.094,0.314-0.151
		c0.959-0.469,1.573-0.704,1.84-0.704c0.237,0,0.424,0.068,0.557,0.206c0.133,0.137,0.199,0.332,0.197,0.584
		c0,0.541-0.252,1.497-0.757,2.868c-0.116,0.332-0.208,0.594-0.276,0.785c-0.068,0.191-0.168,0.474-0.297,0.85
		c-0.036,0.137-0.076,0.278-0.119,0.422c-0.252,0.844-0.437,1.479-0.552,1.905c-0.015,0.05-0.063,0.222-0.146,0.514
		c-0.083,0.293-0.143,0.504-0.179,0.633c-0.036,0.13-0.076,0.264-0.119,0.401c-0.483,1.847-0.887,3.03-1.211,3.55
		c-0.108,0.166-0.234,0.313-0.378,0.443c-0.311,0.238-0.579,0.423-0.806,0.553c-0.228,0.13-0.444,0.222-0.649,0.275
		c-0.206,0.055-0.438,0.081-0.698,0.081c-0.375,0-0.709-0.109-1.001-0.33c-0.292-0.22-0.438-0.471-0.438-0.752
		c0-0.051,0.014-0.134,0.043-0.249C20.025,46.504,21.068,43.661,22.302,40.508z"/>
	<path fill="#FFFFFF" d="M32.014,45.097l-0.736,0.043c-1.063,0.072-1.719,0.108-1.973,0.108c-0.439,0-0.785-0.023-1.033-0.07
		c-0.25-0.047-0.416-0.13-0.498-0.249c-0.084-0.119-0.125-0.294-0.125-0.524c0-0.181,0.053-0.437,0.156-0.769
		c0.105-0.332,0.309-0.88,0.611-1.645c0.246-0.599,0.43-1.072,0.553-1.418c0.383-0.996,0.686-1.713,0.908-2.154
		c0.072-0.137,0.137-0.25,0.189-0.341c0.055-0.09,0.117-0.196,0.189-0.319c0.238-0.375,0.527-0.671,0.867-0.887
		c0.771-0.52,1.504-0.779,2.197-0.779c0.547,0,0.822,0.133,0.822,0.4c0,0.354-0.689,1.508-2.068,3.463
		c-0.67,0.952-1.254,1.836-1.752,2.651l2.533-0.13c0.18-0.599,0.42-1.091,0.719-1.477c0.301-0.386,0.678-0.673,1.133-0.861
		c0.455-0.188,0.982-0.281,1.582-0.281c0.311,0,0.529,0.035,0.656,0.103c0.125,0.069,0.189,0.183,0.189,0.342
		c0,0.145-0.055,0.394-0.162,0.747c-0.109,0.354-0.254,0.771-0.434,1.254l-0.086,0.216c0.143-0.015,0.238-0.023,0.285-0.027
		c0.047-0.003,0.105-0.009,0.178-0.016c0.064-0.007,0.119-0.012,0.166-0.016c0.047-0.003,0.1-0.005,0.156-0.005
		c0.166,0,0.248,0.043,0.248,0.13c0,0.029-0.008,0.05-0.021,0.065c-0.129,0.289-0.309,0.601-0.539,0.936
		c-0.23,0.335-0.443,0.601-0.637,0.796c-0.15,0.18-0.35,0.307-0.594,0.379c-0.158,0.52-0.455,1.516-0.887,2.989
		c-0.016,0.064-0.031,0.151-0.049,0.259c-0.018,0.108-0.031,0.185-0.039,0.228c-0.107,0.599-0.248,0.977-0.422,1.136
		c-0.57,0.339-1.072,0.589-1.506,0.751s-0.857,0.243-1.268,0.243c-0.297,0-0.561-0.071-0.791-0.216
		c-0.232-0.145-0.348-0.314-0.348-0.509c0-0.188,0.076-0.528,0.227-1.023c0.152-0.494,0.373-1.1,0.662-1.817
		S31.811,45.516,32.014,45.097z"/>
</g>
</svg>
