<?xml version="1.0" encoding="utf-8"?>
<!-- Generator: Adobe Illustrator 16.0.0, SVG Export Plug-In . SVG Version: 6.00 Build 0)  -->
<!DOCTYPE svg PUBLIC "-//W3C//DTD SVG 1.1//EN" "http://www.w3.org/Graphics/SVG/1.1/DTD/svg11.dtd">
<svg version="1.1" id="Layer_1" xmlns="http://www.w3.org/2000/svg" xmlns:xlink="http://www.w3.org/1999/xlink" x="0px" y="0px"
	 width="50px" height="86px" viewBox="0 0 50 86" enable-background="new 0 0 50 86" xml:space="preserve">
<rect id="backgroundrect" fill="none" width="50" height="86"/>
<title>Layer 1</title>
<path id="svg_1" fill="#E7896E" d="M22.238,71.172v8.749c0,3.3,2.675,5.974,5.973,5.974c3.299,0,5.973-2.674,5.974-5.974
	l-0.001-8.749c0-7.628,5.529-10.26,9.977-11.143c3.195-0.634,5.498-3.434,5.498-6.691v-8.771H6.765l0,8.771
	c0,3.258,2.302,6.058,5.498,6.691C16.71,60.912,22.238,63.544,22.238,71.172z"/>
<path id="svg_2" fill="#DD6642" d="M44.16,60.029c3.195-0.633,5.498-3.434,5.498-6.691v-8.771H37.116
	c-0.22,2.605-0.997,5.138-2.288,7.424c-5.38,9.521-0.645,19.183-0.645,19.183C34.184,63.544,39.713,60.912,44.16,60.029z"/>
<path id="svg_3" fill="#FFEAB7" d="M13.751,7.351h28.918c3.859,0,6.988,3.129,6.989,6.989v27.484H6.762V14.34
	C6.763,10.48,9.892,7.351,13.751,7.351z"/>
<path id="svg_4" fill="#FAD989" d="M49.658,14.34c-0.001-3.86-3.13-6.988-6.989-6.989l-8.753,0
	c3.598,4.429,3.279,10.887,3.279,10.887s-0.014,14.629-0.014,23.585h12.477V14.34z"/>
<path id="svg_5" fill="#A7B6C5" d="M49.658,51.174H6.764V35.315h42.895V51.174z"/>
<path id="svg_6" fill="#889CB0" d="M49.658,51.174V35.315H37.185c-0.001,2.784-0.002,5.483-0.001,7.713
	c0,2.833-0.659,5.62-1.922,8.145H49.658z"/>
<path id="svg_7" fill="#2F2D2C" d="M6.765,19.002c0,2.655,2.152,4.807,4.808,4.807c0,0,4.497-0.25,4.807-4.763v-3.589
	c0-1.969,1.611-3.64,3.58-3.604c1.909,0.035,3.445,1.594,3.445,3.511l0,9.283c0,2.606,2.027,4.827,4.632,4.919
	c2.735,0.098,4.983-2.091,4.983-4.804v-6.21c0-1.968,1.61-3.64,3.579-3.604c1.908,0.036,3.444,1.594,3.444,3.511v3.86
	c0,2.607,2.027,4.827,4.633,4.92c2.734,0.097,4.982-2.091,4.982-4.805v-8.095c0-3.86-3.129-6.989-6.988-6.989
	c0,0-20.503,0.004-27.238,0.011c-1.222,0.001-2.34-0.695-2.867-1.797c-0.763-1.593-1.705-3.019-2.531-3.844
	c-2.296-2.296-6.017-2.295-8.313,0s-2.295,6.017,0,8.312c0.721,0.721,1.899,1.531,3.247,2.233c1.137,0.592,1.814,1.9,1.795,3.182
	L6.765,19.002z"/>
<path id="svg_8" fill="#2F2D2C" d="M40.043,18.461v3.859c0,2.606,2.027,4.827,4.633,4.919c2.734,0.097,4.982-2.091,4.982-4.804
	V14.34c0-3.86-3.129-6.988-6.988-6.989c0,0-3.846,0.001-8.752,0.002c1.945,2.397,2.746,5.384,3.069,7.624
	C38.711,15.202,40.043,16.676,40.043,18.461z"/>
<g>
	<path fill="#FFFFFF" d="M22.562,40.507l0.216-0.53c-0.108,0.029-0.278,0.094-0.508,0.195c-0.498,0.209-0.815,0.314-0.953,0.314
		c-0.13,0-0.236-0.07-0.319-0.211c-0.083-0.141-0.125-0.323-0.125-0.547c0-0.188,0.047-0.411,0.141-0.671
		c0.093-0.26,0.195-0.437,0.303-0.53c0.188-0.145,1.01-0.556,2.468-1.234l0.325-0.141c0.065-0.043,0.169-0.094,0.314-0.151
		c0.959-0.469,1.573-0.704,1.84-0.704c0.237,0,0.424,0.068,0.557,0.206c0.133,0.137,0.199,0.332,0.197,0.584
		c0,0.541-0.252,1.497-0.757,2.868c-0.116,0.332-0.208,0.594-0.276,0.785c-0.068,0.191-0.168,0.474-0.297,0.85
		c-0.037,0.137-0.076,0.278-0.119,0.422c-0.252,0.844-0.437,1.479-0.552,1.904c-0.015,0.051-0.063,0.223-0.146,0.514
		c-0.083,0.293-0.143,0.504-0.179,0.633c-0.036,0.131-0.076,0.264-0.119,0.402c-0.483,1.846-0.887,3.029-1.211,3.549
		c-0.108,0.166-0.234,0.314-0.378,0.443c-0.311,0.238-0.579,0.424-0.806,0.553c-0.228,0.131-0.444,0.223-0.649,0.275
		c-0.206,0.055-0.438,0.082-0.698,0.082c-0.375,0-0.709-0.109-1.001-0.33s-0.438-0.471-0.438-0.752c0-0.051,0.014-0.135,0.043-0.25
		C20.285,46.504,21.328,43.66,22.562,40.507z"/>
	<path fill="#FFFFFF" d="M31.461,42.434l2.01-4.167c-0.064-0.015-0.148-0.021-0.248-0.021c-0.391,0-1.137,0.191-2.24,0.573
		c-0.57,0.202-1.012,0.345-1.326,0.428s-0.58,0.125-0.795,0.125c-0.404,0-0.607-0.155-0.607-0.465c0-0.26,0.105-0.608,0.314-1.044
		s0.453-0.828,0.734-1.174c0.188-0.238,0.361-0.397,0.52-0.477c0.158-0.079,0.396-0.119,0.715-0.119
		c0.137,0,0.248,0.007,0.334,0.021l2.436,0.043c1.637,0.043,2.768,0.198,3.395,0.465c0.23,0.115,0.348,0.284,0.348,0.507
		c0,0.202-0.135,0.581-0.402,1.136l-1.932,4.147h0.207h0.533h0.34c0.369,0,0.555,0.043,0.555,0.13c0,0.159-0.082,0.384-0.244,0.675
		c-0.162,0.292-0.334,0.525-0.516,0.697c-0.426,0.447-1.1,0.771-2.018,0.973l-1.455,3.574c-0.029,0.088-0.063,0.178-0.098,0.271
		c-0.107,0.289-0.223,0.502-0.346,0.639c-0.324,0.281-0.744,0.51-1.262,0.688c-0.516,0.178-1.025,0.266-1.529,0.266
		c-0.332,0-0.594-0.063-0.785-0.184c-0.191-0.123-0.287-0.283-0.287-0.477c0-0.225,0.239-0.758,0.717-1.602
		c0.021-0.037,0.039-0.066,0.055-0.092c0.014-0.025,0.033-0.061,0.055-0.104l1.422-2.576h-0.131
		c-0.086,0.014-0.213,0.021-0.381,0.021c-0.623,0-0.936-0.234-0.936-0.703c0-0.152,0.059-0.383,0.174-0.693
		c0.295-0.663,0.539-1.085,0.732-1.266c0.102-0.101,0.396-0.151,0.885-0.151C30.713,42.499,31.064,42.477,31.461,42.434z"/>
</g>
</svg>
