<?xml version="1.0" encoding="utf-8"?>
<!-- Generator: Adobe Illustrator 16.0.0, SVG Export Plug-In . SVG Version: 6.00 Build 0)  -->
<!DOCTYPE svg PUBLIC "-//W3C//DTD SVG 1.1//EN" "http://www.w3.org/Graphics/SVG/1.1/DTD/svg11.dtd">
<svg version="1.1" id="Layer_1" xmlns="http://www.w3.org/2000/svg" xmlns:xlink="http://www.w3.org/1999/xlink" x="0px" y="0px"
	 width="50px" height="86px" viewBox="0 0 50 86" enable-background="new 0 0 50 86" xml:space="preserve">
<rect id="backgroundrect" fill="none" width="50" height="86"/>
<title>Layer 1</title>
<path id="svg_1" fill="#E7896E" d="M22.238,71.172v8.749c0,3.3,2.675,5.974,5.973,5.974c3.299,0,5.973-2.674,5.975-5.974
	l-0.002-8.749c0-7.628,5.529-10.26,9.978-11.143c3.194-0.635,5.498-3.435,5.498-6.691v-8.771H6.765v8.771
	c0,3.258,2.302,6.059,5.498,6.691C16.71,60.912,22.238,63.544,22.238,71.172z"/>
<path id="svg_2" fill="#DD6642" d="M44.16,60.029c3.195-0.633,5.498-3.435,5.498-6.691v-8.771H37.116
	c-0.22,2.605-0.997,5.139-2.288,7.425c-5.38,9.521-0.645,19.183-0.645,19.183C34.184,63.544,39.713,60.912,44.16,60.029z"/>
<path id="svg_3" fill="#FFEAB7" d="M13.751,7.351h28.918c3.858,0,6.988,3.129,6.989,6.989v27.484H6.762V14.34
	C6.763,10.48,9.892,7.351,13.751,7.351z"/>
<path id="svg_4" fill="#FAD989" d="M49.658,14.34c-0.001-3.86-3.131-6.988-6.989-6.989h-8.753
	c3.598,4.429,3.279,10.887,3.279,10.887s-0.014,14.629-0.014,23.585h12.477V14.34z"/>
<path id="svg_5" fill="#A7B6C5" d="M49.658,51.174H6.764V35.315h42.895L49.658,51.174L49.658,51.174z"/>
<path id="svg_6" fill="#889CB0" d="M49.658,51.174V35.315H37.186c-0.002,2.784-0.002,5.483-0.002,7.713
	c0,2.833-0.658,5.621-1.922,8.145L49.658,51.174L49.658,51.174z"/>
<path id="svg_7" fill="#FBFFE1" d="M6.765,19.002c0,2.655,2.152,4.807,4.808,4.807c0,0,4.497-0.25,4.807-4.763v-3.589
	c0-1.969,1.611-3.64,3.58-3.604c1.909,0.035,3.445,1.594,3.445,3.511v9.283c0,2.606,2.027,4.827,4.632,4.919
	c2.734,0.098,4.982-2.091,4.982-4.804v-6.21c0-1.968,1.61-3.64,3.58-3.604c1.907,0.036,3.443,1.594,3.443,3.511v3.86
	c0,2.607,2.027,4.827,4.633,4.92c2.734,0.097,4.982-2.091,4.982-4.805v-8.095c0-3.86-3.129-6.989-6.988-6.989
	c0,0-20.503,0.004-27.238,0.011c-1.222,0.001-2.34-0.695-2.867-1.797c-0.763-1.593-1.705-3.019-2.531-3.844
	c-2.296-2.296-6.017-2.295-8.313,0c-2.296,2.295-2.295,6.018,0,8.313c0.721,0.721,1.899,1.531,3.247,2.233
	c1.137,0.592,1.814,1.9,1.795,3.182L6.765,19.002z"/>
<path id="svg_8" fill="#FBFFE1" d="M40.043,18.461v3.859c0,2.606,2.027,4.827,4.633,4.919c2.734,0.097,4.982-2.091,4.982-4.804
	V14.34c0-3.86-3.129-6.988-6.988-6.989c0,0-3.846,0.001-8.752,0.002c1.945,2.397,2.746,5.384,3.068,7.624
	C38.711,15.202,40.043,16.676,40.043,18.461z"/>
<g>
	<path d="M23.659,44.369l0.173-0.217c0.491-0.742,0.837-1.294,1.039-1.655c0.202-0.361,0.364-0.739,0.487-1.136
		c0.181-0.548,0.271-1.119,0.271-1.71c0-0.606-0.074-1.061-0.222-1.364c-0.148-0.303-0.42-0.552-0.817-0.747
		c-0.505,0.729-0.758,1.652-0.758,2.771c0,0.433,0.068,0.876,0.206,1.331c0.058,0.166,0.087,0.278,0.087,0.335
		c0,0.209-0.112,0.314-0.335,0.314c-0.202,0-0.477-0.085-0.823-0.254c-0.346-0.169-0.61-0.344-0.79-0.525
		c-0.202-0.216-0.368-0.498-0.498-0.844c-0.13-0.346-0.195-0.714-0.195-1.104c0-0.548,0.114-1.071,0.341-1.569
		c0.227-0.498,0.546-0.931,0.958-1.298c0.411-0.368,0.9-0.655,1.467-0.861c0.566-0.206,1.167-0.308,1.802-0.308
		c0.636,0,1.214,0.139,1.737,0.417c0.521,0.277,0.939,0.66,1.25,1.146c0.311,0.487,0.466,1.015,0.466,1.585
		c0,0.425-0.082,0.879-0.246,1.363c-0.161,0.483-0.419,1.022-0.771,1.617c-0.352,0.595-0.803,1.25-1.35,1.964
		c-0.549,0.714-1.188,1.481-1.917,2.305l-0.216,0.261l-0.184,0.205c0.303,0.09,0.719,0.135,1.247,0.135s1.058-0.028,1.588-0.086
		c0.531-0.059,0.947-0.133,1.252-0.229c0.201-0.059,0.337-0.086,0.4-0.086c0.072,0,0.107,0.021,0.107,0.064
		c0,0.268-0.17,0.682-0.514,1.244c-0.342,0.563-0.701,1.028-1.076,1.396c-0.391,0.368-0.857,0.638-1.402,0.807
		c-0.545,0.17-1.217,0.254-2.018,0.254c-1.024,0-1.905-0.141-2.641-0.422c-0.736-0.281-1.104-0.619-1.104-1.017
		c0-0.274,0.372-0.823,1.115-1.646c0.526-0.6,1.006-1.195,1.439-1.787c0.029-0.043,0.06-0.086,0.092-0.129
		c0.033-0.043,0.062-0.084,0.086-0.125c0.025-0.039,0.06-0.096,0.103-0.168L23.659,44.369z"/>
	<path d="M33.702,40.008l0.217-0.53c-0.108,0.029-0.278,0.094-0.509,0.195c-0.498,0.209-0.814,0.314-0.952,0.314
		c-0.13,0-0.235-0.07-0.319-0.211c-0.082-0.141-0.125-0.323-0.125-0.547c0-0.188,0.047-0.411,0.141-0.671
		c0.095-0.26,0.195-0.437,0.305-0.53c0.188-0.145,1.01-0.556,2.467-1.234l0.325-0.141c0.063-0.043,0.169-0.094,0.313-0.151
		c0.959-0.469,1.572-0.704,1.84-0.704c0.238,0,0.424,0.068,0.558,0.206c0.134,0.137,0.199,0.332,0.197,0.584
		c0,0.541-0.252,1.497-0.757,2.868c-0.115,0.332-0.209,0.594-0.276,0.785c-0.067,0.191-0.167,0.474-0.297,0.85
		c-0.036,0.137-0.076,0.278-0.119,0.422c-0.253,0.844-0.437,1.479-0.552,1.905c-0.016,0.05-0.063,0.223-0.146,0.514
		c-0.082,0.293-0.142,0.504-0.178,0.633c-0.036,0.131-0.076,0.265-0.119,0.401c-0.482,1.847-0.888,3.03-1.212,3.55
		c-0.108,0.166-0.233,0.313-0.379,0.443c-0.31,0.238-0.579,0.423-0.806,0.553c-0.229,0.131-0.443,0.223-0.649,0.275
		c-0.206,0.055-0.438,0.081-0.698,0.081c-0.375,0-0.707-0.109-1-0.33c-0.293-0.22-0.438-0.472-0.438-0.752
		c0-0.052,0.015-0.134,0.043-0.249C31.426,46.004,32.469,43.161,33.702,40.008z"/>
</g>
</svg>
