<?xml version="1.0" encoding="utf-8"?>
<!-- Generator: Adobe Illustrator 16.0.0, SVG Export Plug-In . SVG Version: 6.00 Build 0)  -->
<!DOCTYPE svg PUBLIC "-//W3C//DTD SVG 1.1//EN" "http://www.w3.org/Graphics/SVG/1.1/DTD/svg11.dtd">
<svg version="1.1" id="Layer_1" xmlns="http://www.w3.org/2000/svg" xmlns:xlink="http://www.w3.org/1999/xlink" x="0px" y="0px"
	 width="50px" height="86px" viewBox="0 0 50 86" enable-background="new 0 0 50 86" xml:space="preserve">
<rect id="backgroundrect" fill="none" width="50" height="86"/>
<title>Layer 1</title>
<path id="svg_1" fill="#E7896E" d="M22.238,71.172v8.749c0,3.3,2.675,5.974,5.973,5.974c3.299,0,5.973-2.674,5.974-5.974
	l-0.001-8.749c0-7.628,5.529-10.26,9.977-11.143c3.195-0.634,5.498-3.434,5.498-6.691v-8.771H6.765l0,8.771
	c0,3.258,2.302,6.058,5.498,6.691C16.71,60.912,22.238,63.544,22.238,71.172z"/>
<path id="svg_2" fill="#DD6642" d="M44.16,60.029c3.195-0.633,5.498-3.434,5.498-6.691v-8.771H37.116
	c-0.22,2.605-0.997,5.138-2.288,7.424c-5.38,9.521-0.645,19.183-0.645,19.183C34.184,63.544,39.713,60.912,44.16,60.029z"/>
<path id="svg_3" fill="#FFEAB7" d="M13.751,7.351h28.918c3.859,0,6.988,3.129,6.989,6.989v27.484H6.762V14.34
	C6.763,10.48,9.892,7.351,13.751,7.351z"/>
<path id="svg_4" fill="#FAD989" d="M49.658,14.34c-0.001-3.86-3.13-6.988-6.989-6.989l-8.753,0
	c3.598,4.429,3.279,10.887,3.279,10.887s-0.014,14.629-0.014,23.585h12.477V14.34z"/>
<path id="svg_5" fill="#A7B6C5" d="M49.658,51.174H6.764V35.315h42.895V51.174z"/>
<path id="svg_6" fill="#889CB0" d="M49.658,51.174V35.315H37.185c-0.001,2.784-0.002,5.483-0.001,7.713
	c0,2.833-0.659,5.62-1.922,8.145H49.658z"/>
<path id="svg_7" fill="#FDBC42" d="M6.765,19.002c0,2.655,2.152,4.807,4.808,4.807c0,0,4.497-0.25,4.807-4.763v-3.589
	c0-1.969,1.611-3.64,3.58-3.604c1.909,0.035,3.445,1.594,3.445,3.511l0,9.283c0,2.606,2.027,4.827,4.632,4.919
	c2.735,0.098,4.983-2.091,4.983-4.804v-6.21c0-1.968,1.61-3.64,3.579-3.604c1.908,0.036,3.444,1.594,3.444,3.511v3.86
	c0,2.607,2.027,4.827,4.633,4.92c2.734,0.097,4.982-2.091,4.982-4.805v-8.095c0-3.86-3.129-6.989-6.988-6.989
	c0,0-20.503,0.004-27.238,0.011c-1.222,0.001-2.34-0.695-2.867-1.797c-0.763-1.593-1.705-3.019-2.531-3.844
	c-2.296-2.296-6.017-2.295-8.313,0s-2.295,6.017,0,8.312c0.721,0.721,1.899,1.531,3.247,2.233c1.137,0.592,1.814,1.9,1.795,3.182
	L6.765,19.002z"/>
<path id="svg_8" fill="#FDBC42" d="M40.043,18.461v3.859c0,2.606,2.027,4.827,4.633,4.919c2.734,0.097,4.982-2.091,4.982-4.804
	V14.34c0-3.86-3.129-6.988-6.988-6.989c0,0-3.846,0.001-8.752,0.002c1.945,2.397,2.746,5.384,3.069,7.624
	C38.711,15.202,40.043,16.676,40.043,18.461z"/>
<g>
	<path fill="#FFFFFF" d="M29.186,40.311l-0.66,0.769l0.043,0.043c0.967-0.635,1.793-0.952,2.479-0.952
		c0.52,0,0.982,0.126,1.391,0.379c0.407,0.252,0.725,0.597,0.952,1.033c0.228,0.437,0.341,0.937,0.341,1.499
		c0,0.679-0.111,1.38-0.335,2.105c-0.224,0.725-0.541,1.425-0.953,2.1c-0.411,0.675-0.891,1.275-1.439,1.802
		c-0.49,0.477-1.097,0.854-1.817,1.131c-0.722,0.278-1.429,0.417-2.121,0.417c-1.336,0-2.353-0.283-3.053-0.85
		s-1.05-1.391-1.05-2.474c0-0.959,0.31-2.146,0.931-3.561c0.621-1.414,1.58-3.117,2.879-5.108c0.512-0.815,0.935-1.4,1.267-1.753
		c0.166-0.18,0.32-0.307,0.465-0.379s0.372-0.13,0.683-0.173c0.541-0.086,1.089-0.13,1.645-0.13c0.845,0,1.267,0.228,1.267,0.682
		c0,0.231-0.268,0.584-0.801,1.061c-0.311,0.26-0.813,0.808-1.505,1.645L29.186,40.311z M27.973,42.259
		c-0.252,0-0.512,0.148-0.779,0.444c-0.267,0.296-0.484,0.673-0.654,1.131c-0.17,0.457-0.254,0.907-0.254,1.347
		c0,0.592,0.113,1.144,0.34,1.656c0.229,0.513,0.541,0.922,0.942,1.229c0.4,0.307,0.816,0.46,1.25,0.46
		c0.23,0,0.415-0.065,0.552-0.195c0.23-0.267,0.42-0.699,0.568-1.299c0.147-0.599,0.222-1.237,0.222-1.915
		c0-0.6-0.089-1.113-0.266-1.542c-0.177-0.43-0.426-0.756-0.746-0.98C28.826,42.371,28.435,42.259,27.973,42.259z"/>
</g>
</svg>
