<?xml version="1.0" encoding="utf-8"?>
<!-- Generator: Adobe Illustrator 16.0.0, SVG Export Plug-In . SVG Version: 6.00 Build 0)  -->
<!DOCTYPE svg PUBLIC "-//W3C//DTD SVG 1.1//EN" "http://www.w3.org/Graphics/SVG/1.1/DTD/svg11.dtd">
<svg version="1.1" id="Layer_1" xmlns="http://www.w3.org/2000/svg" xmlns:xlink="http://www.w3.org/1999/xlink" x="0px" y="0px"
	 width="50px" height="86px" viewBox="0 0 50 86" enable-background="new 0 0 50 86" xml:space="preserve">
<rect id="backgroundrect" fill="none" width="50" height="86"/>
<title>Layer 1</title>
<path id="svg_1" fill="#E7896E" d="M22.238,71.172l0,8.749c0,3.3,2.675,5.974,5.974,5.974c3.299,0,5.973-2.674,5.974-5.974
	l-0.001-8.749c0-7.628,5.529-10.26,9.977-11.143c3.195-0.634,5.498-3.434,5.498-6.691v-8.771H6.765l-0.001,8.771
	c0,3.258,2.303,6.058,5.499,6.691C16.71,60.912,22.238,63.544,22.238,71.172z"/>
<path id="svg_2" fill="#DD6642" d="M44.16,60.029c3.195-0.633,5.498-3.434,5.498-6.691v-8.771H37.115
	c-0.219,2.605-0.996,5.138-2.287,7.424c-5.381,9.521-0.645,19.183-0.645,19.183C34.184,63.544,39.713,60.912,44.16,60.029z"/>
<path id="svg_3" fill="#FFEAB7" d="M13.751,7.351h28.918c3.859,0,6.988,3.129,6.988,6.989v27.484H6.762V14.34
	C6.763,10.48,9.892,7.351,13.751,7.351z"/>
<path id="svg_4" fill="#FAD989" d="M49.657,14.34c0-3.86-3.129-6.988-6.988-6.989l-8.753,0c3.598,4.429,3.278,10.887,3.278,10.887
	s-0.013,14.629-0.013,23.585h12.476V14.34z"/>
<path id="svg_5" fill="#A7B6C5" d="M49.658,51.174H6.764V35.315h42.895V51.174z"/>
<path id="svg_6" fill="#889CB0" d="M49.658,51.174V35.315H37.185c-0.001,2.784-0.002,5.483-0.001,7.713
	c0,2.833-0.66,5.62-1.922,8.145H49.658z"/>
<path id="svg_7" fill="#FCEE23" d="M6.765,19.002c0,2.655,2.152,4.807,4.808,4.807c0,0,4.497-0.25,4.807-4.763v-3.589
	c0-1.969,1.611-3.64,3.58-3.604c1.909,0.035,3.445,1.594,3.445,3.511v9.283c0,2.606,2.027,4.827,4.632,4.919
	c2.735,0.098,4.982-2.091,4.982-4.804v-6.21c0.001-1.968,1.611-3.64,3.58-3.604c1.908,0.036,3.444,1.594,3.444,3.511v3.86
	c0,2.607,2.027,4.827,4.633,4.92c2.734,0.097,4.982-2.091,4.982-4.805v-8.095c0-3.86-3.129-6.989-6.988-6.989
	c0,0-20.503,0.004-27.238,0.011c-1.222,0.001-2.339-0.695-2.867-1.797c-0.763-1.593-1.706-3.019-2.531-3.844
	c-2.296-2.296-6.018-2.295-8.313,0c-2.295,2.295-2.295,6.017,0,8.312c0.721,0.721,1.899,1.531,3.247,2.233
	c1.137,0.592,1.814,1.9,1.794,3.182L6.765,19.002z"/>
<path id="svg_8" fill="#FCEE23" d="M40.043,18.461v3.859c0,2.606,2.027,4.827,4.633,4.919c2.734,0.097,4.982-2.091,4.982-4.804
	V14.34c0-3.86-3.129-6.988-6.988-6.989c0,0-3.846,0.001-8.752,0.002c1.945,2.397,2.746,5.384,3.069,7.624
	C38.711,15.202,40.043,16.676,40.043,18.461z"/>
<g>
	<path fill="#FFFFFF" d="M21.852,40.758l0.216-0.53c-0.108,0.029-0.278,0.094-0.508,0.195c-0.498,0.209-0.815,0.314-0.953,0.314
		c-0.13,0-0.236-0.07-0.319-0.211c-0.083-0.141-0.125-0.323-0.125-0.547c0-0.188,0.047-0.411,0.141-0.671
		c0.093-0.26,0.195-0.437,0.303-0.53c0.188-0.145,1.01-0.556,2.468-1.234l0.325-0.141c0.065-0.043,0.169-0.094,0.314-0.151
		c0.959-0.469,1.573-0.704,1.839-0.704c0.238,0,0.424,0.068,0.558,0.206c0.134,0.137,0.199,0.332,0.198,0.584
		c0,0.541-0.253,1.497-0.758,2.868c-0.116,0.332-0.208,0.594-0.276,0.785c-0.069,0.191-0.168,0.474-0.298,0.85
		c-0.036,0.137-0.076,0.278-0.119,0.422c-0.252,0.844-0.437,1.479-0.552,1.905c-0.015,0.05-0.063,0.222-0.146,0.514
		c-0.083,0.293-0.143,0.504-0.179,0.633c-0.036,0.13-0.076,0.264-0.119,0.401c-0.483,1.847-0.887,3.03-1.211,3.55
		c-0.108,0.166-0.234,0.313-0.378,0.443c-0.311,0.238-0.579,0.423-0.806,0.553c-0.228,0.13-0.444,0.222-0.649,0.275
		c-0.206,0.055-0.438,0.081-0.698,0.081c-0.375,0-0.709-0.109-1.001-0.33c-0.292-0.22-0.438-0.471-0.438-0.752
		c0-0.051,0.014-0.134,0.043-0.249C19.575,46.754,20.618,43.911,21.852,40.758z"/>
	<path fill="#FFFFFF" d="M35.597,36.656h0.107c0.391,0,0.764,0.177,1.121,0.531s0.641,0.826,0.85,1.417
		c0.209,0.592,0.314,1.212,0.314,1.862c0,0.656-0.094,1.387-0.281,2.191c-0.189,0.805-0.439,1.579-0.754,2.321
		c-0.313,0.743-0.691,1.465-1.135,2.165c-0.445,0.7-0.904,1.28-1.381,1.742c-1.125,1.141-2.275,1.71-3.453,1.71
		c-0.785,0-1.479-0.196-2.076-0.59c-0.6-0.393-1.063-0.952-1.387-1.678c-0.324-0.725-0.487-1.557-0.487-2.494
		c0-1.616,0.338-3.166,1.013-4.648c0.674-1.483,1.568-2.683,2.678-3.599c1.111-0.917,2.256-1.375,3.432-1.375
		C34.728,36.212,35.208,36.36,35.597,36.656z M34.622,37.165l0.195-0.108l-0.043-0.043c-0.463,0.007-0.936,0.24-1.424,0.698
		c-0.486,0.458-0.926,1.048-1.314,1.77c-0.391,0.721-0.707,1.537-0.953,2.446c-0.244,0.909-0.367,1.769-0.367,2.575
		c0,0.585,0.104,1.186,0.309,1.803s0.465,1.131,0.779,1.542s0.615,0.617,0.904,0.617c0.223,0,0.457-0.149,0.703-0.449
		c0.244-0.3,0.469-0.724,0.67-1.271c0.209-0.526,0.391-1.079,0.541-1.656c0.152-0.577,0.268-1.147,0.348-1.71
		c0.078-0.563,0.119-1.075,0.119-1.537c0-0.729-0.117-1.423-0.352-2.083c-0.236-0.66-0.541-1.149-0.916-1.467
		c-0.072-0.05-0.107-0.101-0.107-0.151C33.714,37.973,34.017,37.648,34.622,37.165z"/>
</g>
</svg>
