<?xml version="1.0" encoding="utf-8"?>
<!-- Generator: Adobe Illustrator 16.0.0, SVG Export Plug-In . SVG Version: 6.00 Build 0)  -->
<!DOCTYPE svg PUBLIC "-//W3C//DTD SVG 1.1//EN" "http://www.w3.org/Graphics/SVG/1.1/DTD/svg11.dtd">
<svg version="1.1" id="Layer_1" xmlns="http://www.w3.org/2000/svg" xmlns:xlink="http://www.w3.org/1999/xlink" x="0px" y="0px"
	 width="50px" height="86px" viewBox="0 0 50 86" enable-background="new 0 0 50 86" xml:space="preserve">
<rect id="backgroundrect" fill="none" width="50" height="86"/>
<title>Layer 1</title>
<path id="svg_1" fill="#E7896E" d="M22.238,71.172l0,8.749c0,3.3,2.675,5.974,5.974,5.974c3.299,0,5.973-2.674,5.974-5.974
	l-0.001-8.749c0-7.628,5.529-10.26,9.977-11.143c3.195-0.634,5.498-3.434,5.498-6.691v-8.771H6.765l-0.001,8.771
	c0,3.258,2.303,6.058,5.499,6.691C16.71,60.912,22.238,63.544,22.238,71.172z"/>
<path id="svg_2" fill="#DD6642" d="M44.16,60.029c3.195-0.633,5.498-3.434,5.498-6.691v-8.771H37.115
	c-0.219,2.605-0.996,5.138-2.287,7.424c-5.381,9.521-0.645,19.183-0.645,19.183C34.184,63.544,39.713,60.912,44.16,60.029z"/>
<path id="svg_3" fill="#FFEAB7" d="M13.751,7.351h28.918c3.859,0,6.988,3.129,6.988,6.989v27.484H6.762V14.34
	C6.763,10.48,9.892,7.351,13.751,7.351z"/>
<path id="svg_4" fill="#FAD989" d="M49.657,14.34c0-3.86-3.129-6.988-6.988-6.989l-8.753,0c3.598,4.429,3.278,10.887,3.278,10.887
	s-0.013,14.629-0.013,23.585h12.476V14.34z"/>
<path id="svg_5" fill="#A7B6C5" d="M49.658,51.174H6.764V35.315h42.895V51.174z"/>
<path id="svg_6" fill="#889CB0" d="M49.658,51.174V35.315H37.185c-0.001,2.784-0.002,5.483-0.001,7.713
	c0,2.833-0.66,5.62-1.922,8.145H49.658z"/>
<path id="svg_7" fill="#F15A22" d="M6.765,19.002c0,2.655,2.152,4.807,4.808,4.807c0,0,4.497-0.25,4.807-4.763v-3.589
	c0-1.969,1.611-3.64,3.58-3.604c1.909,0.035,3.445,1.594,3.445,3.511v9.283c0,2.606,2.027,4.827,4.632,4.919
	c2.735,0.098,4.982-2.091,4.982-4.804v-6.21c0.001-1.968,1.611-3.64,3.58-3.604c1.908,0.036,3.444,1.594,3.444,3.511v3.86
	c0,2.607,2.027,4.827,4.633,4.92c2.734,0.097,4.982-2.091,4.982-4.805v-8.095c0-3.86-3.129-6.989-6.988-6.989
	c0,0-20.503,0.004-27.238,0.011c-1.222,0.001-2.339-0.695-2.867-1.797c-0.763-1.593-1.706-3.019-2.531-3.844
	c-2.296-2.296-6.018-2.295-8.313,0c-2.295,2.295-2.295,6.017,0,8.312c0.721,0.721,1.899,1.531,3.247,2.233
	c1.137,0.592,1.814,1.9,1.794,3.182L6.765,19.002z"/>
<path id="svg_8" fill="#F15A22" d="M40.043,18.461v3.859c0,2.606,2.027,4.827,4.633,4.919c2.734,0.097,4.982-2.091,4.982-4.804
	V14.34c0-3.86-3.129-6.988-6.988-6.989c0,0-3.846,0.001-8.752,0.002c1.945,2.397,2.746,5.384,3.069,7.624
	C38.711,15.202,40.043,16.676,40.043,18.461z"/>
<g>
	<path fill="#FFFFFF" d="M27.857,44.847l-0.736,0.043c-1.063,0.072-1.719,0.108-1.972,0.108c-0.441,0-0.786-0.023-1.035-0.07
		s-0.415-0.13-0.498-0.249s-0.125-0.294-0.125-0.524c0-0.181,0.052-0.437,0.157-0.769s0.309-0.88,0.612-1.645
		c0.245-0.599,0.429-1.072,0.552-1.418c0.382-0.996,0.686-1.713,0.909-2.154c0.071-0.137,0.136-0.25,0.189-0.341
		s0.117-0.196,0.189-0.319c0.237-0.375,0.526-0.671,0.866-0.887c0.771-0.52,1.504-0.779,2.197-0.779c0.547,0,0.822,0.133,0.822,0.4
		c0,0.354-0.689,1.508-2.068,3.463c-0.67,0.952-1.255,1.836-1.752,2.651l2.533-0.13c0.18-0.599,0.42-1.091,0.719-1.477
		c0.301-0.386,0.678-0.673,1.133-0.861c0.455-0.188,0.982-0.281,1.582-0.281c0.311,0,0.529,0.035,0.656,0.103
		c0.125,0.069,0.189,0.183,0.189,0.342c0,0.145-0.055,0.394-0.162,0.747c-0.109,0.354-0.254,0.771-0.434,1.254l-0.086,0.216
		c0.143-0.015,0.238-0.023,0.285-0.027c0.047-0.003,0.105-0.009,0.178-0.016c0.064-0.007,0.119-0.012,0.166-0.016
		c0.047-0.003,0.1-0.005,0.156-0.005c0.166,0,0.248,0.043,0.248,0.13c0,0.029-0.008,0.05-0.021,0.065
		C33.18,42.689,33,43.001,32.77,43.337c-0.23,0.335-0.443,0.601-0.637,0.796c-0.15,0.18-0.35,0.307-0.594,0.379
		c-0.158,0.52-0.455,1.516-0.887,2.989c-0.016,0.064-0.031,0.151-0.049,0.259c-0.018,0.108-0.031,0.185-0.039,0.228
		c-0.107,0.599-0.248,0.977-0.422,1.136c-0.57,0.339-1.072,0.589-1.506,0.751s-0.857,0.243-1.269,0.243
		c-0.296,0-0.56-0.071-0.791-0.216s-0.347-0.314-0.347-0.509c0-0.188,0.076-0.528,0.228-1.023c0.151-0.494,0.372-1.1,0.661-1.817
		S27.654,45.266,27.857,44.847z"/>
</g>
</svg>
