<?xml version="1.0" encoding="utf-8"?>
<!-- Generator: Adobe Illustrator 16.0.0, SVG Export Plug-In . SVG Version: 6.00 Build 0)  -->
<!DOCTYPE svg PUBLIC "-//W3C//DTD SVG 1.1//EN" "http://www.w3.org/Graphics/SVG/1.1/DTD/svg11.dtd">
<svg version="1.1" id="Layer_1" xmlns="http://www.w3.org/2000/svg" xmlns:xlink="http://www.w3.org/1999/xlink" x="0px" y="0px"
	 width="50px" height="86px" viewBox="0 0 50 86" enable-background="new 0 0 50 86" xml:space="preserve">
<rect id="backgroundrect" fill="none" width="50" height="86"/>
<title>Layer 1</title>
<path id="svg_1" fill="#E7896E" d="M22.238,71.172v8.749c0,3.3,2.675,5.974,5.973,5.974c3.299,0,5.973-2.674,5.974-5.974
	l-0.001-8.749c0-7.628,5.529-10.26,9.977-11.143c3.195-0.634,5.498-3.434,5.498-6.691v-8.771H6.765l0,8.771
	c0,3.258,2.302,6.058,5.498,6.691C16.71,60.912,22.238,63.544,22.238,71.172z"/>
<path id="svg_2" fill="#DD6642" d="M44.16,60.029c3.195-0.633,5.498-3.434,5.498-6.691v-8.771H37.115
	c-0.219,2.605-0.996,5.138-2.287,7.424c-5.381,9.521-0.645,19.183-0.645,19.183C34.184,63.544,39.713,60.912,44.16,60.029z"/>
<path id="svg_3" fill="#FFEAB7" d="M13.751,7.351h28.918c3.859,0,6.988,3.129,6.988,6.989v27.484H6.762V14.34
	C6.763,10.48,9.892,7.351,13.751,7.351z"/>
<path id="svg_4" fill="#FAD989" d="M49.657,14.34c0-3.86-3.129-6.988-6.988-6.989l-8.753,0c3.598,4.429,3.279,10.887,3.279,10.887
	s-0.014,14.629-0.014,23.585h12.476V14.34z"/>
<path id="svg_5" fill="#A7B6C5" d="M49.658,51.174H6.764V35.315h42.895V51.174z"/>
<path id="svg_6" fill="#889CB0" d="M49.658,51.174V35.315H37.185c-0.001,2.784-0.002,5.483-0.001,7.713
	c0,2.833-0.66,5.62-1.922,8.145H49.658z"/>
<path id="svg_7" fill="#ABE1FA" d="M6.765,19.002c0,2.655,2.152,4.807,4.808,4.807c0,0,4.497-0.25,4.807-4.763v-3.589
	c0-1.969,1.611-3.64,3.58-3.604c1.909,0.035,3.445,1.594,3.445,3.511l0,9.283c0,2.606,2.027,4.827,4.632,4.919
	c2.735,0.098,4.983-2.091,4.983-4.804v-6.21c0-1.968,1.61-3.64,3.579-3.604c1.908,0.036,3.444,1.594,3.444,3.511v3.86
	c0,2.607,2.027,4.827,4.633,4.92c2.734,0.097,4.982-2.091,4.982-4.805v-8.095c0-3.86-3.129-6.989-6.988-6.989
	c0,0-20.503,0.004-27.238,0.011c-1.222,0.001-2.339-0.695-2.867-1.797c-0.763-1.593-1.706-3.019-2.531-3.844
	c-2.296-2.296-6.017-2.295-8.313,0s-2.295,6.017,0,8.312c0.721,0.721,1.899,1.531,3.247,2.233c1.137,0.592,1.814,1.9,1.795,3.182
	L6.765,19.002z"/>
<path id="svg_8" fill="#ABE1FA" d="M40.043,18.461v3.859c0,2.606,2.027,4.827,4.633,4.919c2.734,0.097,4.982-2.091,4.982-4.804
	V14.34c0-3.86-3.129-6.988-6.988-6.989c0,0-3.846,0.001-8.752,0.002c1.945,2.397,2.746,5.384,3.069,7.624
	C38.711,15.202,40.043,16.676,40.043,18.461z"/>
<g>
	<path fill="#FFFFFF" d="M28.742,43.748v0.055l-0.045-0.055c-0.619,0.412-1.138,0.696-1.553,0.855
		c-0.414,0.159-0.85,0.238-1.304,0.238c-0.758,0-1.376-0.266-1.856-0.795c-0.479-0.531-0.72-1.218-0.72-2.063
		c0-0.945,0.296-1.867,0.888-2.765c0.591-0.898,1.363-1.629,2.316-2.192c0.952-0.563,1.908-0.84,2.867-0.833
		c1.055,0,1.963,0.375,2.729,1.125c0.873,0.873,1.309,2.063,1.309,3.571c0,1.083-0.27,2.197-0.811,3.344
		c-0.541,1.147-1.256,2.197-2.145,3.149c-0.887,0.953-1.871,1.72-2.953,2.3c-1.083,0.581-2.129,0.871-3.139,0.871
		c-0.231,0-0.395-0.024-0.493-0.075c-0.097-0.051-0.146-0.145-0.146-0.281c0-0.072,0.038-0.143,0.114-0.211
		c0.076-0.068,0.193-0.14,0.352-0.211c0.599-0.26,1.188-0.686,1.77-1.277c0.58-0.592,1.118-1.301,1.613-2.127
		C28.029,45.547,28.432,44.672,28.742,43.748z M28.979,43.153c0.289-0.693,0.51-1.383,0.66-2.073
		c0.152-0.689,0.229-1.344,0.229-1.964c0-0.548-0.086-0.985-0.254-1.31c-0.17-0.325-0.396-0.487-0.678-0.487
		c-0.115,0-0.264,0.052-0.443,0.157c-0.18,0.105-0.342,0.233-0.486,0.384c-0.383,0.397-0.684,0.859-0.904,1.385
		c-0.221,0.527-0.33,1.039-0.33,1.537c0,0.606,0.203,1.129,0.611,1.569S28.322,43.06,28.979,43.153z"/>
</g>
</svg>
