<svg xmlns="http://www.w3.org/2000/svg" width="50" height="86" fill="none" style=""><rect id="backgroundrect" width="100%" height="100%" x="0" y="0" fill="none" stroke="none"/>








<g class="currentLayer" style=""><title>Layer 1</title><path d="M22.23809908752441,71.17235017089844 L22.237599087524416,79.92095017089844 C22.23809908752441,83.22005017089843 24.912599087524413,85.89405017089844 28.211199087524413,85.89405017089844 C31.509799087524414,85.89405017089844 34.184299087524415,83.22005017089843 34.184699087524415,79.92095017089844 L34.184299087524415,71.17235017089844 C34.184299087524415,63.54365017089843 39.71239908752442,60.912350170898435 44.15989908752441,60.02975017089844 C47.35579908752442,59.39575017089844 49.65829908752441,56.595150170898435 49.65829908752441,53.33765017089844 L49.65789908752441,44.56655017089844 H6.764499087524413 L6.763999087524411,53.33765017089844 C6.763999087524411,56.595150170898435 9.066499087524413,59.39575017089844 12.262399087524415,60.02975017089844 C16.709899087524413,60.912350170898435 22.23809908752441,63.54365017089843 22.23809908752441,71.17235017089844 z" fill="#E7896E" id="svg_1" class=""/><path d="M44.15979908752442,60.02995017089843 C47.355699087524414,59.39595017089843 49.65819908752441,56.59545017089843 49.65819908752441,53.337850170898434 L49.65769908752442,44.56675017089844 L37.11589908752441,44.56675017089844 C36.89619908752441,47.171350170898435 36.119399087524414,49.703850170898434 34.827699087524415,51.98995017089844 C29.447999087524416,61.51115017089843 34.18419908752441,71.17255017089843 34.18419908752441,71.17255017089843 C34.18419908752441,63.54395017089844 39.712299087524414,60.91255017089844 44.15979908752442,60.02995017089843 z" fill="#DD6642" id="svg_2" class=""/><path d="M13.750999087524413,7.351150170898439 L42.66879908752442,7.351150170898439 C46.52849908752441,7.351550170898438 49.65699908752441,10.480150170898437 49.657499087524414,14.339750170898437 L49.657499087524414,41.82385017089844 L6.762399087524415,41.82385017089844 V14.339750170898437 C6.762799087524414,10.480150170898437 9.891799087524412,7.351150170898439 13.750999087524413,7.351150170898439 z" fill="#FFEAB7" id="svg_3" class=""/><path d="M49.657499087524414,14.339750170898437 C49.65699908752441,10.480150170898437 46.52849908752441,7.351550170898438 42.66879908752442,7.351150170898439 L33.915899087524416,7.351550170898438 C37.51309908752441,11.780050170898438 37.19459908752441,18.23825017089844 37.19459908752441,18.23825017089844 C37.19459908752441,18.23825017089844 37.18119908752442,32.867650170898436 37.18209908752442,41.82385017089844 H49.657499087524414 V14.339750170898437 z" fill="#FAD989" id="svg_4" class=""/><path d="M49.65809908752442,51.17445017089844 L6.763899087524415,51.17445017089844 V35.31545017089844 L49.65809908752442,35.31545017089844 L49.65809908752442,51.17445017089844 z" fill="#A7B6C5" id="svg_5" class=""/><path d="M49.65809908752442,51.17445017089844 V35.31545017089844 H37.184499087524415 C37.183199087524414,38.099650170898435 37.18269908752441,40.79835017089844 37.183599087524414,43.02875017089844 C37.18399908752441,45.86125017089844 36.52409908752442,48.64885017089844 35.261299087524414,51.17445017089844 H49.65809908752442 z" fill="#889CB0" id="svg_6" class=""/><path d="M6.764799087524416,19.00175017089844 C6.764799087524416,21.656850170898437 8.917099087524413,23.80915017089844 11.572199087524417,23.80915017089844 C11.572199087524417,23.80915017089844 16.069299087524413,23.559650170898436 16.37959908752441,19.045750170898437 V15.456650170898435 C16.37959908752441,13.487750170898437 17.990699087524412,11.816250170898439 19.95919908752441,11.852950170898438 C21.86759908752441,11.888350170898438 23.404099087524415,13.447250170898439 23.404099087524415,15.36435017089844 L23.403599087524412,24.647250170898438 C23.404099087524415,27.253550170898436 25.431199087524412,29.474050170898437 28.036299087524412,29.566450170898435 C30.771199087524415,29.66445017089844 33.01889908752442,27.47545017089844 33.01889908752442,24.76245017089844 V18.552850170898438 C33.019299087524416,16.584450170898435 34.62999908752441,14.912450170898438 36.59849908752442,14.949150170898434 C38.50689908752442,14.985350170898435 40.04339908752442,16.54345017089844 40.04339908752442,18.46045017089844 V22.320550170898436 C40.04339908752442,24.927350170898436 42.07009908752441,27.147450170898438 44.675499087524415,27.240250170898435 C47.410499087524414,27.33735017089844 49.65819908752441,25.149150170898437 49.65859908752441,22.43585017089844 L49.65819908752441,14.340550170898439 C49.65819908752441,10.480550170898436 46.52959908752442,7.351950170898437 42.669499087524414,7.351950170898437 C42.669499087524414,7.351950170898437 22.166699087524414,7.356250170898438 15.431899087524414,7.362750170898437 C14.209999087524416,7.364050170898437 13.092199087524413,6.667450170898437 12.564799087524413,5.565250170898437 C11.802199087524414,3.9722501708984375 10.859699087524412,2.547150170898437 10.033999087524414,1.721550170898439 C7.738399087524414,-0.5740498291015612 4.016899087524415,-0.5736498291015621 1.7216990875244136,1.721550170898439 C-0.5739009124755867,4.017150170898436 -0.5739009124755867,7.738250170898439 1.7216990875244136,10.033850170898436 C2.442499087524414,10.754550170898437 3.6206990875244145,11.565050170898438 4.968499087524414,12.266450170898437 C6.105299087524415,12.858550170898436 6.7833990875244154,14.16665017089844 6.763499087524416,15.44845017089844 L6.764799087524416,19.00175017089844 z" fill="#C3184E" id="svg_7" class=""/><path d="M40.04299908752441,18.46065017089844 L40.04339908752442,22.32025017089844 C40.04339908752442,24.92705017089844 42.07009908752441,27.147150170898435 44.67559908752442,27.239850170898436 C47.410499087524414,27.337050170898436 49.65819908752441,25.148850170898434 49.65819908752441,22.435950170898437 L49.65819908752441,14.340250170898436 C49.65779908752441,10.48065017089844 46.52919908752442,7.352050170898437 42.66959908752442,7.351650170898438 C42.66959908752442,7.351650170898438 38.82459908752442,7.352950170898438 33.91829908752442,7.3537501708984365 C35.863899087524416,9.750750170898439 36.66359908752442,12.737750170898437 36.98729908752442,14.977750170898439 C38.71109908752442,15.202150170898435 40.04339908752442,16.67595017089844 40.04299908752441,18.46065017089844 z" fill="#F6375D" id="svg_8" class=""/></g></svg>