<?xml version="1.0" encoding="utf-8"?>
<!-- Generator: Adobe Illustrator 16.0.0, SVG Export Plug-In . SVG Version: 6.00 Build 0)  -->
<!DOCTYPE svg PUBLIC "-//W3C//DTD SVG 1.1//EN" "http://www.w3.org/Graphics/SVG/1.1/DTD/svg11.dtd">
<svg version="1.1" id="Layer_1" xmlns="http://www.w3.org/2000/svg" xmlns:xlink="http://www.w3.org/1999/xlink" x="0px" y="0px"
	 width="29px" height="98px" viewBox="0 0 29 98" enable-background="new 0 0 29 98" xml:space="preserve">
<rect id="backgroundrect" fill="none" width="29" height="98"/>
<title>Layer 1</title>
<path id="svg_1" fill="#2F2D2C" d="M25.357,21.672H3.883l7.644-20.605C11.765,0.426,12.376,0,13.06,0h3.12
	c0.687,0,1.297,0.425,1.533,1.066L25.357,21.672z"/>
<path id="svg_3" fill="#2F2D2C" d="M26.258,21.672H2.982C1.335,21.672,0,23.008,0,24.654v70.391c0,1.646,1.335,2.98,2.982,2.98
	h23.275c1.646,0,2.982-1.334,2.982-2.98V24.654C29.24,23.007,27.904,21.672,26.258,21.672z"/>
<path id="svg_4" fill="#2F2D2C" d="M0.001,93.523H29.24V26.173H0.001V93.523z"/>
<path id="svg_5" fill="#394049" d="M29.24,93.525v-5.858H0v5.858H29.24z"/>
<path id="svg_6" fill="#2F2D2C" d="M14.621,37.927c-6.01,0-10.882,9.814-10.882,21.921c0,12.107,4.872,21.922,10.882,21.922
	c6.01,0,10.883-9.813,10.883-21.922C25.504,47.741,20.631,37.927,14.621,37.927z"/>
<path id="svg_7" fill="#394049" d="M29.24,32.033v-5.859H0v5.859H29.24z"/>
<g>
	<path fill="#FFFFFF" d="M9.292,57.592l0.204-0.5c-0.102,0.027-0.262,0.088-0.48,0.184c-0.469,0.197-0.769,0.296-0.898,0.296
		c-0.122,0-0.223-0.066-0.301-0.199c-0.079-0.133-0.118-0.305-0.118-0.516c0-0.177,0.044-0.388,0.133-0.633s0.184-0.412,0.286-0.5
		c0.177-0.137,0.953-0.524,2.328-1.164l0.306-0.133c0.061-0.041,0.16-0.088,0.296-0.143c0.905-0.442,1.484-0.664,1.736-0.664
		c0.225,0,0.399,0.064,0.526,0.194c0.125,0.129,0.188,0.313,0.186,0.551c0,0.51-0.238,1.412-0.714,2.705
		c-0.109,0.313-0.196,0.561-0.26,0.741c-0.064,0.18-0.158,0.447-0.281,0.801c-0.034,0.13-0.071,0.263-0.112,0.398
		c-0.238,0.797-0.412,1.396-0.521,1.797c-0.014,0.048-0.06,0.209-0.138,0.484c-0.078,0.276-0.134,0.475-0.168,0.598
		c-0.034,0.122-0.072,0.248-0.112,0.378c-0.456,1.742-0.837,2.858-1.143,3.349c-0.102,0.156-0.221,0.296-0.357,0.418
		c-0.292,0.225-0.546,0.398-0.76,0.521c-0.214,0.122-0.418,0.209-0.612,0.26c-0.194,0.052-0.414,0.077-0.658,0.077
		c-0.354,0-0.669-0.104-0.944-0.312S6.3,66.137,6.3,65.871c0-0.047,0.013-0.125,0.041-0.234C7.144,63.248,8.127,60.566,9.292,57.592
		z"/>
	<path fill="#FFFFFF" d="M17.686,59.409l1.896-3.931c-0.061-0.014-0.139-0.021-0.234-0.021c-0.367,0-1.072,0.181-2.113,0.541
		c-0.539,0.19-0.955,0.325-1.252,0.403c-0.295,0.078-0.545,0.117-0.75,0.117c-0.38,0-0.571-0.146-0.571-0.438
		c0-0.245,0.099-0.573,0.296-0.985c0.197-0.412,0.429-0.781,0.693-1.107c0.178-0.225,0.34-0.375,0.49-0.449
		c0.15-0.075,0.373-0.112,0.674-0.112c0.129,0,0.234,0.007,0.316,0.02l2.295,0.041c1.545,0.041,2.611,0.187,3.203,0.438
		c0.219,0.108,0.328,0.269,0.328,0.479c0,0.19-0.127,0.548-0.379,1.072l-1.822,3.912h0.195h0.504h0.318
		c0.35,0,0.523,0.041,0.523,0.122c0,0.149-0.076,0.362-0.23,0.638c-0.152,0.275-0.314,0.494-0.484,0.657
		c-0.404,0.422-1.037,0.728-1.904,0.918l-1.373,3.371c-0.027,0.082-0.059,0.167-0.092,0.255c-0.102,0.272-0.211,0.474-0.326,0.604
		c-0.307,0.266-0.703,0.481-1.189,0.648s-0.969,0.25-1.443,0.25c-0.313,0-0.56-0.058-0.74-0.174
		c-0.181-0.115-0.271-0.266-0.271-0.449c0-0.211,0.225-0.715,0.676-1.511c0.02-0.034,0.037-0.063,0.051-0.087
		c0.014-0.023,0.03-0.056,0.051-0.097l1.342-2.43H16.24c-0.082,0.014-0.201,0.021-0.359,0.021c-0.588,0-0.882-0.222-0.882-0.664
		c0-0.143,0.054-0.36,0.164-0.653c0.277-0.626,0.508-1.024,0.691-1.194c0.094-0.096,0.373-0.143,0.834-0.143
		C16.979,59.471,17.313,59.45,17.686,59.409z"/>
</g>
</svg>
