<?xml version="1.0" encoding="utf-8"?>
<!-- Generator: Adobe Illustrator 16.0.0, SVG Export Plug-In . SVG Version: 6.00 Build 0)  -->
<!DOCTYPE svg PUBLIC "-//W3C//DTD SVG 1.1//EN" "http://www.w3.org/Graphics/SVG/1.1/DTD/svg11.dtd">
<svg version="1.1" id="Layer_1" xmlns="http://www.w3.org/2000/svg" xmlns:xlink="http://www.w3.org/1999/xlink" x="0px" y="0px"
	 width="29px" height="98px" viewBox="0 0 29 98" enable-background="new 0 0 29 98" xml:space="preserve">
<rect id="backgroundrect" fill="none" width="29" height="98"/>
<title>Layer 1</title>
<path id="svg_1" fill="#019653" d="M25.357,21.672H3.883l7.643-20.605C11.765,0.426,12.376,0,13.06,0h3.12
	c0.686,0,1.297,0.425,1.533,1.066L25.357,21.672z"/>
<path id="svg_3" fill="#019653" d="M26.258,21.672H2.982C1.335,21.672,0,23.008,0,24.654v70.391c0,1.646,1.335,2.98,2.982,2.98
	h23.275c1.646,0,2.982-1.334,2.982-2.98V24.654C29.24,23.007,27.904,21.672,26.258,21.672z"/>
<path id="svg_4" fill="#20C77C" d="M0,93.525h29.24V26.174H0V93.525z"/>
<path id="svg_5" fill="#394049" d="M29.24,93.525v-5.858H0v5.858H29.24z"/>
<path id="svg_6" fill="#019653" d="M14.621,37.927c-6.01,0-10.882,9.814-10.882,21.921c0,12.107,4.872,21.922,10.882,21.922
	c6.01,0,10.883-9.813,10.883-21.922C25.504,47.741,20.631,37.927,14.621,37.927z"/>
<path id="svg_7" fill="#394049" d="M29.24,32.033v-5.859H0v5.859H29.24z"/>
<g>
	<path fill="#FFFFFF" d="M13.895,56.549l0.238-0.584c-0.119,0.032-0.306,0.104-0.56,0.215c-0.548,0.229-0.897,0.345-1.048,0.345
		c-0.143,0-0.26-0.077-0.352-0.232c-0.091-0.154-0.137-0.354-0.137-0.601c0-0.207,0.051-0.453,0.155-0.738
		c0.103-0.286,0.214-0.48,0.333-0.584c0.206-0.159,1.111-0.611,2.715-1.357l0.357-0.155c0.071-0.047,0.187-0.103,0.346-0.166
		c1.056-0.517,1.73-0.774,2.024-0.774c0.262,0,0.466,0.075,0.613,0.226c0.146,0.151,0.219,0.365,0.217,0.644
		c0,0.595-0.277,1.646-0.833,3.155c-0.127,0.366-0.229,0.653-0.304,0.864c-0.075,0.21-0.185,0.521-0.327,0.935
		c-0.04,0.151-0.084,0.306-0.131,0.465c-0.278,0.929-0.48,1.627-0.607,2.096c-0.016,0.056-0.069,0.244-0.16,0.565
		c-0.092,0.321-0.157,0.554-0.196,0.696c-0.04,0.143-0.084,0.29-0.132,0.44c-0.531,2.032-0.976,3.335-1.333,3.906
		c-0.119,0.183-0.258,0.346-0.417,0.488c-0.341,0.263-0.637,0.465-0.886,0.607c-0.25,0.144-0.488,0.244-0.714,0.304
		c-0.227,0.06-0.482,0.09-0.768,0.09c-0.413,0-0.78-0.121-1.101-0.363c-0.322-0.242-0.482-0.519-0.482-0.828
		c0-0.055,0.016-0.146,0.048-0.273C11.39,63.146,12.537,60.018,13.895,56.549z"/>
</g>
</svg>
