<?xml version="1.0" encoding="utf-8"?>
<!-- Generator: Adobe Illustrator 16.0.0, SVG Export Plug-In . SVG Version: 6.00 Build 0)  -->
<!DOCTYPE svg PUBLIC "-//W3C//DTD SVG 1.1//EN" "http://www.w3.org/Graphics/SVG/1.1/DTD/svg11.dtd">
<svg version="1.1" id="Layer_1" xmlns="http://www.w3.org/2000/svg" xmlns:xlink="http://www.w3.org/1999/xlink" x="0px" y="0px"
	 width="29px" height="98px" viewBox="0 0 29 98" enable-background="new 0 0 29 98" xml:space="preserve">
<rect id="backgroundrect" fill="none" width="29" height="98"/>
<title>Layer 1</title>
<path id="svg_1" fill="#AF7A4A" d="M25.357,21.672H3.883l7.644-20.605C11.765,0.426,12.376,0,13.06,0h3.12
	c0.686,0,1.297,0.425,1.533,1.066L25.357,21.672z"/>
<path id="svg_3" fill="#AF7A4A" d="M26.258,21.672H2.982C1.335,21.672,0,23.008,0,24.654v70.391c0,1.646,1.335,2.98,2.982,2.98
	h23.275c1.646,0,2.982-1.334,2.982-2.98V24.654C29.24,23.007,27.904,21.672,26.258,21.672z"/>
<path id="svg_4" fill="#CF9969" d="M0.001,93.523H29.24V26.173H0.001V93.523z"/>
<path id="svg_5" fill="#394049" d="M29.24,93.525v-5.858H0v5.858H29.24z"/>
<path id="svg_6" fill="#AF7A4A" d="M14.621,37.927c-6.01,0-10.882,9.814-10.882,21.921c0,12.107,4.872,21.922,10.882,21.922
	c6.01,0,10.883-9.813,10.883-21.922C25.504,47.741,20.631,37.927,14.621,37.927z"/>
<path id="svg_7" fill="#394049" d="M29.24,32.033v-5.859H0v5.859H29.24z"/>
<g>
	<path fill="#FFFFFF" d="M9.485,56.342l0.204-0.5c-0.102,0.027-0.262,0.088-0.48,0.184c-0.469,0.197-0.769,0.296-0.898,0.296
		c-0.122,0-0.223-0.066-0.301-0.199c-0.079-0.133-0.118-0.305-0.118-0.516c0-0.177,0.044-0.388,0.133-0.633s0.184-0.412,0.286-0.5
		c0.177-0.137,0.953-0.524,2.328-1.164l0.306-0.133c0.061-0.041,0.16-0.088,0.296-0.143c0.905-0.442,1.484-0.664,1.736-0.664
		c0.225,0,0.399,0.064,0.526,0.194c0.125,0.129,0.188,0.313,0.186,0.551c0,0.51-0.238,1.412-0.714,2.705
		c-0.109,0.313-0.196,0.561-0.26,0.741c-0.064,0.18-0.158,0.447-0.281,0.801c-0.034,0.13-0.071,0.263-0.112,0.398
		c-0.238,0.797-0.412,1.396-0.521,1.797c-0.014,0.048-0.06,0.209-0.138,0.484c-0.078,0.276-0.134,0.475-0.168,0.598
		c-0.034,0.122-0.072,0.248-0.112,0.378c-0.456,1.742-0.837,2.858-1.143,3.349c-0.102,0.156-0.221,0.296-0.357,0.418
		c-0.292,0.225-0.546,0.398-0.76,0.521c-0.214,0.122-0.418,0.209-0.612,0.26c-0.194,0.052-0.414,0.077-0.658,0.077
		c-0.354,0-0.669-0.104-0.944-0.312s-0.413-0.444-0.413-0.71c0-0.047,0.013-0.125,0.041-0.234
		C7.338,61.998,8.321,59.316,9.485,56.342z"/>
	<path fill="#FFFFFF" d="M17.225,60.456l0.162-0.204c0.463-0.701,0.791-1.222,0.98-1.563c0.191-0.34,0.344-0.697,0.459-1.071
		c0.17-0.518,0.256-1.056,0.256-1.613c0-0.572-0.07-1.001-0.209-1.286c-0.141-0.286-0.396-0.521-0.771-0.705
		c-0.477,0.688-0.715,1.559-0.715,2.614c0,0.408,0.064,0.826,0.195,1.256c0.055,0.156,0.08,0.262,0.08,0.316
		c0,0.197-0.105,0.296-0.316,0.296c-0.189,0-0.449-0.08-0.775-0.24s-0.574-0.325-0.746-0.495c-0.189-0.204-0.346-0.47-0.469-0.796
		c-0.123-0.327-0.184-0.674-0.184-1.042c0-0.517,0.107-1.011,0.322-1.48c0.213-0.469,0.516-0.878,0.902-1.225
		c0.389-0.348,0.85-0.618,1.385-0.812c0.533-0.194,1.1-0.291,1.699-0.291s1.145,0.131,1.639,0.393
		c0.492,0.262,0.887,0.622,1.18,1.082c0.291,0.459,0.438,0.957,0.438,1.494c0,0.401-0.076,0.83-0.23,1.286
		c-0.152,0.455-0.396,0.964-0.727,1.524c-0.332,0.562-0.756,1.179-1.273,1.853s-1.119,1.398-1.807,2.175l-0.205,0.244L18.32,62.36
		c0.287,0.085,0.678,0.127,1.176,0.127s0.996-0.026,1.498-0.081c0.5-0.055,0.895-0.126,1.182-0.215
		c0.189-0.054,0.316-0.081,0.377-0.081c0.068,0,0.104,0.021,0.104,0.061c0,0.252-0.162,0.644-0.486,1.175
		c-0.322,0.53-0.662,0.97-1.016,1.316c-0.367,0.348-0.809,0.601-1.322,0.761s-1.148,0.24-1.904,0.24
		c-0.965,0-1.797-0.133-2.49-0.398c-0.694-0.266-1.042-0.585-1.042-0.96c0-0.258,0.351-0.775,1.051-1.552
		c0.498-0.564,0.949-1.126,1.357-1.685c0.027-0.041,0.057-0.081,0.088-0.122s0.057-0.08,0.082-0.117
		c0.023-0.038,0.055-0.091,0.096-0.158L17.225,60.456z"/>
</g>
</svg>
