<?xml version="1.0" encoding="utf-8"?>
<!-- Generator: Adobe Illustrator 16.0.0, SVG Export Plug-In . SVG Version: 6.00 Build 0)  -->
<!DOCTYPE svg PUBLIC "-//W3C//DTD SVG 1.1//EN" "http://www.w3.org/Graphics/SVG/1.1/DTD/svg11.dtd">
<svg version="1.1" id="Layer_1" xmlns="http://www.w3.org/2000/svg" xmlns:xlink="http://www.w3.org/1999/xlink" x="0px" y="0px"
	 width="29px" height="98px" viewBox="0 0 29 98" enable-background="new 0 0 29 98" xml:space="preserve">
<rect id="backgroundrect" fill="none" width="29" height="98"/>
<title>Layer 1</title>
<path id="svg_1" fill="#DEDFE0" d="M25.357,21.672H3.883l7.644-20.605C11.765,0.426,12.376,0,13.06,0h3.12
	c0.686,0,1.297,0.425,1.533,1.066L25.357,21.672z"/>
<path id="svg_3" fill="#DEDFE0" d="M26.258,21.672H2.982C1.335,21.672,0,23.008,0,24.654v70.391c0,1.646,1.335,2.98,2.982,2.98
	h23.275c1.646,0,2.982-1.334,2.982-2.98V24.654C29.24,23.007,27.904,21.672,26.258,21.672z"/>
<path id="svg_4" fill="#EEEEEE" d="M0.001,93.523H29.24V26.173H0.001V93.523z"/>
<path id="svg_5" fill="#394049" d="M29.24,93.525v-5.858H0v5.858H29.24z"/>
<path id="svg_6" fill="#DEDFE0" d="M14.621,37.927c-6.01,0-10.882,9.814-10.882,21.921c0,12.107,4.872,21.922,10.882,21.922
	c6.01,0,10.883-9.813,10.883-21.922C25.504,47.741,20.631,37.927,14.621,37.927z"/>
<path id="svg_7" fill="#394049" d="M29.24,32.033v-5.859H0v5.859H29.24z"/>
<g>
	<path fill="#FFFFFF" d="M8.721,56.092l0.204-0.5c-0.102,0.027-0.262,0.088-0.48,0.184c-0.469,0.197-0.769,0.296-0.898,0.296
		c-0.122,0-0.223-0.066-0.301-0.199c-0.079-0.133-0.118-0.305-0.118-0.516c0-0.177,0.044-0.388,0.133-0.633s0.184-0.412,0.286-0.5
		c0.177-0.137,0.953-0.524,2.328-1.164l0.306-0.133c0.061-0.041,0.16-0.088,0.296-0.143c0.905-0.442,1.484-0.664,1.736-0.664
		c0.225,0,0.399,0.064,0.526,0.194c0.125,0.129,0.188,0.313,0.186,0.551c0,0.51-0.238,1.412-0.714,2.705
		c-0.109,0.313-0.196,0.561-0.26,0.741c-0.064,0.18-0.158,0.447-0.281,0.801c-0.034,0.13-0.071,0.263-0.112,0.398
		c-0.238,0.797-0.412,1.396-0.521,1.797c-0.014,0.048-0.06,0.209-0.138,0.484c-0.078,0.276-0.134,0.475-0.168,0.598
		c-0.034,0.122-0.072,0.248-0.112,0.378c-0.456,1.742-0.837,2.858-1.143,3.349c-0.102,0.156-0.221,0.296-0.357,0.418
		c-0.292,0.225-0.546,0.398-0.76,0.521c-0.214,0.122-0.418,0.209-0.612,0.26c-0.194,0.052-0.414,0.077-0.658,0.077
		c-0.354,0-0.669-0.104-0.944-0.312s-0.413-0.444-0.413-0.71c0-0.047,0.013-0.125,0.041-0.234
		C6.574,61.748,7.557,59.066,8.721,56.092z"/>
	<path fill="#FFFFFF" d="M19.338,55.592l-0.623,0.725l0.041,0.041c0.912-0.599,1.691-0.898,2.338-0.898
		c0.49,0,0.928,0.119,1.313,0.357s0.684,0.563,0.898,0.975s0.322,0.883,0.322,1.414c0,0.64-0.105,1.302-0.316,1.985
		c-0.211,0.685-0.512,1.345-0.898,1.98c-0.389,0.637-0.842,1.203-1.359,1.7c-0.463,0.449-1.033,0.805-1.715,1.067
		c-0.68,0.262-1.348,0.393-2,0.393c-1.26,0-2.219-0.267-2.879-0.802c-0.66-0.534-0.99-1.312-0.99-2.332
		c0-0.905,0.292-2.025,0.878-3.359s1.489-2.94,2.716-4.818c0.482-0.77,0.881-1.32,1.193-1.654c0.156-0.17,0.303-0.289,0.439-0.357
		c0.137-0.067,0.35-0.122,0.643-0.163c0.512-0.082,1.027-0.123,1.553-0.123c0.797,0,1.193,0.215,1.193,0.644
		c0,0.218-0.252,0.552-0.754,1.001c-0.293,0.245-0.766,0.762-1.42,1.552L19.338,55.592z M18.195,57.429
		c-0.238,0-0.484,0.14-0.736,0.419c-0.25,0.279-0.457,0.635-0.617,1.067c-0.16,0.432-0.24,0.855-0.24,1.271
		c0,0.559,0.107,1.079,0.322,1.563s0.51,0.869,0.889,1.158c0.377,0.29,0.77,0.434,1.18,0.434c0.217,0,0.391-0.061,0.52-0.184
		c0.219-0.251,0.396-0.66,0.537-1.225c0.139-0.565,0.209-1.167,0.209-1.808c0-0.564-0.084-1.05-0.25-1.454
		c-0.168-0.405-0.402-0.713-0.705-0.924S18.631,57.429,18.195,57.429z"/>
</g>
</svg>
