<?xml version="1.0" encoding="utf-8"?>
<!-- Generator: Adobe Illustrator 16.0.0, SVG Export Plug-In . SVG Version: 6.00 Build 0)  -->
<!DOCTYPE svg PUBLIC "-//W3C//DTD SVG 1.1//EN" "http://www.w3.org/Graphics/SVG/1.1/DTD/svg11.dtd">
<svg version="1.1" id="Layer_1" xmlns="http://www.w3.org/2000/svg" xmlns:xlink="http://www.w3.org/1999/xlink" x="0px" y="0px"
	 width="29px" height="98px" viewBox="0 0 29 98" enable-background="new 0 0 29 98" xml:space="preserve">
<rect id="backgroundrect" fill="none" width="29" height="98"/>
<title>Layer 1</title>
<path id="svg_1" fill="#F89520" d="M25.357,21.672H3.883l7.643-20.605C11.765,0.426,12.376,0,13.06,0h3.12
	c0.686,0,1.297,0.425,1.533,1.066L25.357,21.672z"/>
<path id="svg_2" opacity="0.15" fill="#F89520" enable-background="new    " d="M11.526,1.067L3.883,21.672h21.475l-1.424-3.838
	H8.333l5.281-14.237c0.238-0.641,0.85-1.066,1.533-1.066h3.107l-0.543-1.465C17.477,0.426,16.863,0,16.18,0h-3.12
	C12.376,0,11.765,0.426,11.526,1.067z"/>
<path id="svg_3" fill="#F89520" d="M26.258,21.672H2.982C1.335,21.672,0,23.008,0,24.654v70.391c0,1.646,1.335,2.98,2.982,2.98
	h23.275c1.646,0,2.982-1.334,2.982-2.98V24.654C29.24,23.007,27.904,21.672,26.258,21.672z"/>
<path id="svg_4" opacity="0.5" fill="#FFA943" enable-background="new    " d="M0.001,93.523H29.24V26.173H0.001V93.523z"/>
<path id="svg_5" fill="#394049" d="M29.24,93.525v-5.858H0v5.858H29.24z"/>
<path id="svg_6" fill="#F89520" d="M14.621,37.927c-6.01,0-10.882,9.814-10.882,21.921c0,12.107,4.872,21.922,10.882,21.922
	c6.01,0,10.883-9.813,10.883-21.922C25.504,47.741,20.631,37.927,14.621,37.927z"/>
<path id="svg_7" fill="#394049" d="M29.24,32.033v-5.859H0v5.859H29.24z"/>
<g>
	<path fill="#FFFFFF" d="M14.764,53.958l-0.881,1.56l0.048,0.048c0.563-0.238,1.063-0.408,1.501-0.512
		c0.436-0.104,0.865-0.155,1.285-0.155c1.088,0,1.934,0.256,2.537,0.769c0.604,0.512,0.904,1.232,0.904,2.161
		c0,0.461-0.064,0.947-0.195,1.459s-0.326,1.028-0.584,1.548c-0.258,0.521-0.568,1.03-0.93,1.53s-0.807,1.021-1.339,1.561
		c-0.778,0.786-1.559,1.401-2.34,1.846c-0.782,0.444-1.482,0.667-2.102,0.667c-0.452,0-0.897-0.09-1.333-0.269
		s-0.822-0.431-1.155-0.756c-0.587-0.587-0.881-1.417-0.881-2.489c0-1.429,0.409-2.548,1.227-3.357
		c0.405-0.413,0.879-0.753,1.423-1.019c0.543-0.266,1.018-0.399,1.423-0.399c0.429,0,0.643,0.119,0.643,0.357v0.036
		c-0.341,0.404-0.597,0.748-0.768,1.03c-0.17,0.281-0.347,0.66-0.53,1.137c-0.31,0.794-0.464,1.719-0.464,2.775
		c0,0.817,0.163,1.227,0.488,1.227c0.42,0,0.877-0.246,1.37-0.738c0.54-0.564,1.008-1.263,1.404-2.097
		c0.397-0.833,0.596-1.54,0.596-2.119c0-0.811-0.168-1.407-0.506-1.793c-0.338-0.385-0.875-0.577-1.613-0.577
		c-0.413,0-0.969,0.075-1.667,0.227c-0.381,0.063-0.583,0.095-0.607,0.095c-0.23,0-0.422-0.077-0.578-0.232
		c-0.155-0.154-0.232-0.354-0.232-0.601c0-0.207,0.107-0.636,0.321-1.286c0.341-1.096,0.699-2.088,1.072-2.978l0.072-0.167
		c0.04-0.079,0.107-0.226,0.202-0.44c0.23-0.563,0.435-0.917,0.613-1.06c0.179-0.144,0.502-0.215,0.971-0.215
		c1.5,0,2.632,0.017,3.394,0.048c0.174,0,0.325,0.008,0.453,0.023h0.154c0.596,0.032,1,0.084,1.215,0.155
		c0.214,0.071,0.32,0.183,0.32,0.333c0,0.136-0.088,0.34-0.268,0.613c-0.178,0.274-0.398,0.534-0.66,0.78
		c-0.445,0.445-0.905,0.788-1.381,1.03c-0.477,0.242-0.945,0.363-1.406,0.363c-0.198,0-0.512-0.023-0.94-0.071
		c-0.127-0.032-0.195-0.048-0.203-0.048H14.764z"/>
</g>
</svg>
