<?xml version="1.0" encoding="utf-8"?>
<!-- Generator: Adobe Illustrator 16.0.0, SVG Export Plug-In . SVG Version: 6.00 Build 0)  -->
<!DOCTYPE svg PUBLIC "-//W3C//DTD SVG 1.1//EN" "http://www.w3.org/Graphics/SVG/1.1/DTD/svg11.dtd">
<svg version="1.1" id="Layer_1" xmlns="http://www.w3.org/2000/svg" xmlns:xlink="http://www.w3.org/1999/xlink" x="0px" y="0px"
	 width="29px" height="98px" viewBox="0 0 29 98" enable-background="new 0 0 29 98" xml:space="preserve">
<rect id="backgroundrect" fill="none" width="29" height="98"/>
<title>Layer 1</title>
<path id="svg_1" fill="#ED2224" d="M25.357,21.672H3.883l7.643-20.605C11.765,0.426,12.376,0,13.06,0h3.12
	c0.686,0,1.297,0.425,1.533,1.066L25.357,21.672z"/>
<path id="svg_3" fill="#ED2224" d="M26.258,21.672H2.982C1.335,21.672,0,23.008,0,24.654v70.391c0,1.646,1.335,2.98,2.982,2.98
	h23.275c1.646,0,2.982-1.334,2.982-2.98V24.654C29.24,23.007,27.904,21.672,26.258,21.672z"/>
<path id="svg_4" fill="#FF4A4C" d="M0.001,93.523H29.24V26.173H0.001V93.523z"/>
<path id="svg_5" fill="#394049" d="M29.24,93.525v-5.858H0v5.858H29.24z"/>
<path id="svg_6" fill="#ED2224" d="M14.621,37.927c-6.01,0-10.882,9.814-10.882,21.921c0,12.107,4.872,21.922,10.882,21.922
	c6.01,0,10.883-9.813,10.883-21.922C25.504,47.741,20.631,37.927,14.621,37.927z"/>
<path id="svg_7" fill="#394049" d="M29.24,32.033v-5.859H0v5.859H29.24z"/>
<g>
	<path fill="#FFFFFF" d="M12.496,64.48h0.071c0.262,0,0.59-0.121,0.982-0.363c0.393-0.242,0.78-0.562,1.161-0.959
		c0.493-0.508,0.883-1.05,1.173-1.625c0.29-0.576,0.435-1.113,0.435-1.614c0-1.087-0.576-1.746-1.727-1.977
		c-0.222-0.031-0.381-0.081-0.476-0.148s-0.143-0.173-0.143-0.315c0-0.159,0.19-0.401,0.572-0.727c0.571-0.5,1.019-1.046,1.34-1.638
		s0.481-1.185,0.481-1.78c0-0.635-0.131-0.953-0.393-0.953c-0.214,0-0.48,0.169-0.797,0.507c-0.318,0.337-0.622,0.768-0.912,1.292
		c-0.29,0.523-0.506,1.04-0.649,1.548c-0.048,0.175-0.096,0.288-0.143,0.34c-0.048,0.051-0.115,0.077-0.203,0.077
		c-0.23,0-0.516-0.179-0.857-0.536c-0.484-0.516-0.726-1.04-0.726-1.572c0-0.611,0.248-1.219,0.744-1.821
		c0.496-0.604,1.141-1.092,1.935-1.465s1.607-0.56,2.441-0.56c0.675,0,1.29,0.131,1.846,0.393c0.555,0.262,0.988,0.625,1.299,1.09
		c0.309,0.464,0.463,0.986,0.463,1.565c0,1.057-0.455,1.901-1.369,2.537c-0.477,0.325-1.067,0.635-1.773,0.929v0.048
		c1.119,0.063,1.961,0.313,2.523,0.75c0.564,0.437,0.846,1.048,0.846,1.834c0,0.365-0.084,0.768-0.256,1.209
		c-0.17,0.44-0.412,0.893-0.727,1.357c-0.313,0.464-0.688,0.927-1.125,1.387c-0.953,1.009-1.988,1.797-3.107,2.364
		c-1.12,0.567-2.196,0.852-3.228,0.852c-0.984,0-1.804-0.313-2.459-0.94c-0.655-0.628-0.982-1.413-0.982-2.358
		c0-0.643,0.22-1.286,0.661-1.929c0.441-0.644,1.01-1.169,1.709-1.578s1.397-0.613,2.096-0.613c0.293,0,0.44,0.107,0.44,0.321
		c0,0.088-0.123,0.234-0.369,0.44c-0.024,0.024-0.05,0.05-0.077,0.078c-0.028,0.027-0.058,0.058-0.089,0.089
		c-0.31,0.357-0.55,0.802-0.721,1.334s-0.256,1.088-0.256,1.667C12.15,63.587,12.265,64.075,12.496,64.48z"/>
</g>
</svg>
