<?xml version="1.0" encoding="utf-8"?>
<!-- Generator: Adobe Illustrator 16.0.0, SVG Export Plug-In . SVG Version: 6.00 Build 0)  -->
<!DOCTYPE svg PUBLIC "-//W3C//DTD SVG 1.1//EN" "http://www.w3.org/Graphics/SVG/1.1/DTD/svg11.dtd">
<svg version="1.1" id="Layer_1" xmlns="http://www.w3.org/2000/svg" xmlns:xlink="http://www.w3.org/1999/xlink" x="0px" y="0px"
	 width="29px" height="98px" viewBox="0 0 29 98" enable-background="new 0 0 29 98" xml:space="preserve">
<rect id="backgroundrect" fill="none" width="29" height="98"/>
<title>Layer 1</title>
<path id="svg_1" fill="#857BAC" d="M25.357,21.672H3.883l7.644-20.605C11.765,0.426,12.376,0,13.06,0h3.12
	c0.686,0,1.297,0.425,1.533,1.066L25.357,21.672z"/>
<path id="svg_3" fill="#857BAC" d="M26.258,21.672H2.982C1.335,21.672,0,23.008,0,24.654v70.391c0,1.646,1.335,2.98,2.982,2.98
	h23.275c1.646,0,2.982-1.334,2.982-2.98V24.654C29.24,23.007,27.904,21.672,26.258,21.672z"/>
<path id="svg_4" fill="#A39AC7" d="M0.001,93.523H29.24V26.173H0.001V93.523z"/>
<path id="svg_5" fill="#394049" d="M29.24,93.525v-5.858H0v5.858H29.24z"/>
<path id="svg_6" fill="#857BAC" d="M14.621,37.927c-6.01,0-10.882,9.814-10.882,21.921c0,12.107,4.872,21.922,10.882,21.922
	c6.01,0,10.883-9.813,10.883-21.922C25.504,47.741,20.631,37.927,14.621,37.927z"/>
<path id="svg_7" fill="#394049" d="M29.24,32.033v-5.859H0v5.859H29.24z"/>
<g>
	<path fill="#FFFFFF" d="M9.046,56.342l0.204-0.5c-0.102,0.027-0.262,0.088-0.48,0.184c-0.469,0.197-0.769,0.296-0.898,0.296
		c-0.122,0-0.223-0.066-0.301-0.199c-0.079-0.133-0.118-0.305-0.118-0.516c0-0.177,0.044-0.388,0.133-0.633s0.184-0.412,0.286-0.5
		c0.177-0.137,0.953-0.524,2.328-1.164l0.306-0.133c0.061-0.041,0.16-0.088,0.296-0.143c0.905-0.442,1.484-0.664,1.736-0.664
		c0.225,0,0.399,0.064,0.526,0.194c0.125,0.129,0.188,0.313,0.186,0.551c0,0.51-0.238,1.412-0.714,2.705
		c-0.109,0.313-0.196,0.561-0.26,0.741c-0.064,0.18-0.158,0.447-0.281,0.801c-0.034,0.13-0.071,0.263-0.112,0.398
		c-0.238,0.797-0.412,1.396-0.521,1.797c-0.014,0.048-0.06,0.209-0.138,0.484c-0.078,0.276-0.134,0.475-0.168,0.598
		c-0.034,0.122-0.072,0.248-0.112,0.378c-0.456,1.742-0.837,2.858-1.143,3.349c-0.102,0.156-0.221,0.296-0.357,0.418
		c-0.292,0.225-0.546,0.398-0.76,0.521c-0.214,0.122-0.418,0.209-0.612,0.26c-0.194,0.052-0.414,0.077-0.658,0.077
		c-0.354,0-0.669-0.104-0.944-0.312s-0.413-0.444-0.413-0.71c0-0.047,0.013-0.125,0.041-0.234
		C6.899,61.998,7.882,59.316,9.046,56.342z"/>
	<path fill="#FFFFFF" d="M19.041,59.241v0.051L19,59.241c-0.586,0.388-1.074,0.657-1.465,0.807c-0.393,0.149-0.801,0.225-1.23,0.225
		c-0.715,0-1.299-0.25-1.75-0.751c-0.453-0.5-0.679-1.148-0.679-1.944c0-0.892,0.279-1.761,0.837-2.608
		c0.557-0.848,1.286-1.537,2.184-2.067c0.898-0.531,1.801-0.793,2.705-0.786c0.994,0,1.852,0.354,2.574,1.062
		c0.822,0.823,1.234,1.946,1.234,3.369c0,1.021-0.256,2.072-0.766,3.154c-0.51,1.083-1.184,2.073-2.021,2.972
		c-0.836,0.898-1.766,1.621-2.787,2.169s-2.008,0.822-2.96,0.822c-0.218,0-0.373-0.024-0.464-0.071
		c-0.092-0.048-0.138-0.137-0.138-0.266c0-0.068,0.036-0.135,0.107-0.199s0.182-0.131,0.332-0.199
		c0.565-0.245,1.122-0.646,1.668-1.205c0.549-0.558,1.055-1.227,1.521-2.006S18.748,60.112,19.041,59.241z M19.266,58.68
		c0.271-0.653,0.48-1.305,0.623-1.955s0.215-1.268,0.215-1.854c0-0.517-0.08-0.929-0.24-1.234c-0.16-0.307-0.373-0.46-0.639-0.46
		c-0.109,0-0.248,0.05-0.418,0.148s-0.324,0.219-0.461,0.362c-0.359,0.374-0.645,0.81-0.852,1.307s-0.311,0.98-0.311,1.449
		c0,0.572,0.191,1.065,0.576,1.48C18.145,58.34,18.646,58.591,19.266,58.68z"/>
</g>
</svg>
