<?xml version="1.0" encoding="utf-8"?>
<!-- Generator: Adobe Illustrator 16.0.0, SVG Export Plug-In . SVG Version: 6.00 Build 0)  -->
<!DOCTYPE svg PUBLIC "-//W3C//DTD SVG 1.1//EN" "http://www.w3.org/Graphics/SVG/1.1/DTD/svg11.dtd">
<svg version="1.1" id="Layer_1" xmlns="http://www.w3.org/2000/svg" xmlns:xlink="http://www.w3.org/1999/xlink" x="0px" y="0px"
	 width="29px" height="98px" viewBox="0 0 29 98" enable-background="new 0 0 29 98" xml:space="preserve">
<rect id="backgroundrect" fill="none" width="29" height="98"/>
<title>Layer 1</title>
<path id="svg_1" fill="#08A650" d="M25.357,21.672H3.883l7.643-20.605C11.765,0.426,12.376,0,13.06,0h3.12
	c0.686,0,1.297,0.425,1.533,1.066L25.357,21.672z"/>
<path id="svg_3" fill="#08A650" d="M26.258,21.672H2.982C1.335,21.672,0,23.008,0,24.654v70.391c0,1.646,1.335,2.98,2.982,2.98
	h23.275c1.647,0,2.982-1.334,2.982-2.98V24.654C29.24,23.007,27.904,21.672,26.258,21.672z"/>
<path id="svg_4" fill="#18BD63" d="M0.001,93.523H29.24V26.173H0.001V93.523z"/>
<path id="svg_5" fill="#394049" d="M29.24,93.525v-5.858H0v5.858H29.24z"/>
<path id="svg_6" fill="#08A650" d="M14.621,37.927c-6.01,0-10.882,9.814-10.882,21.921c0,12.107,4.872,21.922,10.882,21.922
	c6.01,0,10.883-9.813,10.883-21.922C25.504,47.741,20.631,37.927,14.621,37.927z"/>
<path id="svg_7" fill="#394049" d="M29.24,32.033v-5.859H0v5.859H29.24z"/>
<g>
	<path fill="#FFFFFF" d="M12.963,61.931l0.191-0.238c0.54-0.817,0.921-1.425,1.143-1.822c0.222-0.396,0.401-0.813,0.536-1.25
		c0.199-0.604,0.298-1.23,0.298-1.882c0-0.667-0.082-1.167-0.245-1.5c-0.163-0.334-0.462-0.607-0.899-0.822
		c-0.556,0.802-0.833,1.818-0.833,3.049c0,0.477,0.075,0.965,0.226,1.465c0.063,0.183,0.095,0.306,0.095,0.369
		c0,0.23-0.123,0.346-0.369,0.346c-0.222,0-0.524-0.094-0.905-0.28c-0.381-0.187-0.671-0.379-0.869-0.577
		c-0.222-0.238-0.405-0.548-0.548-0.93c-0.143-0.381-0.214-0.785-0.214-1.214c0-0.604,0.125-1.18,0.375-1.728
		c0.25-0.548,0.602-1.023,1.054-1.429s0.99-0.721,1.614-0.946c0.623-0.227,1.284-0.34,1.982-0.34c0.698,0,1.336,0.153,1.911,0.458
		c0.576,0.306,1.034,0.727,1.377,1.262c0.34,0.535,0.512,1.117,0.512,1.743c0,0.469-0.09,0.969-0.27,1.5s-0.463,1.125-0.85,1.779
		s-0.881,1.375-1.484,2.16c-0.604,0.786-1.307,1.632-2.108,2.536l-0.238,0.286l-0.202,0.227c0.333,0.099,0.791,0.148,1.371,0.148
		s1.162-0.032,1.747-0.096s1.044-0.146,1.378-0.25c0.223-0.063,0.369-0.096,0.441-0.096c0.08,0,0.119,0.024,0.119,0.072
		c0,0.294-0.189,0.75-0.566,1.369s-0.771,1.131-1.185,1.536c-0.429,0.405-0.942,0.701-1.542,0.888s-1.34,0.279-2.221,0.279
		c-1.127,0-2.096-0.154-2.906-0.464c-0.81-0.31-1.214-0.684-1.214-1.12c0-0.302,0.409-0.904,1.227-1.81
		c0.579-0.659,1.107-1.314,1.583-1.965c0.032-0.048,0.066-0.096,0.102-0.144c0.036-0.047,0.067-0.093,0.095-0.137
		s0.065-0.105,0.113-0.185L12.963,61.931z"/>
</g>
</svg>
