<?xml version="1.0" encoding="utf-8"?>
<!-- Generator: Adobe Illustrator 16.0.0, SVG Export Plug-In . SVG Version: 6.00 Build 0)  -->
<!DOCTYPE svg PUBLIC "-//W3C//DTD SVG 1.1//EN" "http://www.w3.org/Graphics/SVG/1.1/DTD/svg11.dtd">
<svg version="1.1" id="Layer_1" xmlns="http://www.w3.org/2000/svg" xmlns:xlink="http://www.w3.org/1999/xlink" x="0px" y="0px"
	 width="29px" height="98px" viewBox="0 0 29 98" enable-background="new 0 0 29 98" xml:space="preserve">
<rect id="backgroundrect" fill="none" width="29" height="98"/>
<title>Layer 1</title>
<path id="svg_1" fill="#FCEE23" d="M25.357,21.672H3.883l7.643-20.605C11.765,0.426,12.376,0,13.06,0h3.12
	c0.686,0,1.297,0.425,1.533,1.066L25.357,21.672z"/>
<path id="svg_3" fill="#FCEE23" d="M26.258,21.672H2.982C1.335,21.672,0,23.008,0,24.654v70.391c0,1.646,1.335,2.98,2.982,2.98
	h23.275c1.646,0,2.982-1.334,2.982-2.98V24.654C29.24,23.007,27.904,21.672,26.258,21.672z"/>
<path id="svg_4" opacity="0.5" fill="#FFFFFF" enable-background="new    " d="M0.001,93.523H29.24V26.173H0.001V93.523z"/>
<path id="svg_5" fill="#394049" d="M29.24,93.525v-5.858H0v5.858H29.24z"/>
<path id="svg_6" fill="#FCEE23" d="M14.621,37.927c-6.01,0-10.882,9.814-10.882,21.921c0,12.107,4.872,21.922,10.882,21.922
	c6.01,0,10.883-9.813,10.883-21.922C25.504,47.741,20.631,37.927,14.621,37.927z"/>
<path id="svg_7" fill="#394049" d="M29.24,32.033v-5.859H0v5.859H29.24z"/>
<g>
	<path fill="#FFFFFF" d="M7.625,55.632l0.238-0.584c-0.119,0.032-0.306,0.104-0.56,0.215c-0.548,0.229-0.897,0.345-1.048,0.345
		c-0.143,0-0.26-0.077-0.352-0.232c-0.091-0.154-0.137-0.354-0.137-0.601c0-0.207,0.051-0.453,0.155-0.738
		c0.103-0.286,0.214-0.48,0.333-0.584c0.206-0.159,1.111-0.611,2.715-1.357l0.357-0.155c0.071-0.047,0.187-0.103,0.345-0.166
		c1.056-0.517,1.731-0.774,2.024-0.774c0.262,0,0.466,0.075,0.613,0.226c0.147,0.151,0.219,0.365,0.217,0.644
		c0,0.595-0.278,1.646-0.833,3.155c-0.127,0.366-0.229,0.653-0.304,0.864c-0.075,0.21-0.185,0.521-0.327,0.935
		c-0.04,0.151-0.083,0.306-0.131,0.465c-0.278,0.929-0.48,1.627-0.607,2.096c-0.016,0.056-0.069,0.244-0.161,0.565
		s-0.157,0.554-0.196,0.696s-0.083,0.29-0.131,0.44c-0.532,2.032-0.976,3.335-1.333,3.906c-0.119,0.183-0.258,0.346-0.417,0.488
		c-0.341,0.263-0.637,0.465-0.887,0.607c-0.25,0.144-0.488,0.244-0.714,0.304c-0.227,0.06-0.482,0.09-0.768,0.09
		c-0.413,0-0.78-0.121-1.101-0.363c-0.322-0.242-0.482-0.519-0.482-0.828c0-0.055,0.016-0.146,0.048-0.273
		C5.12,62.229,6.268,59.101,7.625,55.632z"/>
	<path fill="#FFFFFF" d="M22.75,51.118h0.119c0.428,0,0.838,0.194,1.232,0.583c0.393,0.39,0.703,0.909,0.934,1.561
		s0.346,1.334,0.346,2.048c0,0.723-0.104,1.526-0.309,2.412c-0.207,0.885-0.482,1.736-0.828,2.554
		c-0.346,0.818-0.762,1.612-1.25,2.382c-0.488,0.771-0.994,1.409-1.52,1.918c-1.238,1.254-2.504,1.881-3.799,1.881
		c-0.865,0-1.627-0.216-2.286-0.648s-1.167-1.048-1.524-1.846c-0.357-0.798-0.536-1.713-0.536-2.745
		c0-1.778,0.371-3.483,1.113-5.115c0.743-1.631,1.725-2.951,2.948-3.959c1.223-1.009,2.48-1.513,3.775-1.513
		C21.793,50.63,22.32,50.793,22.75,51.118z M21.678,51.678l0.215-0.119l-0.049-0.048c-0.508,0.008-1.029,0.265-1.566,0.769
		c-0.535,0.504-1.018,1.153-1.445,1.947c-0.43,0.794-0.779,1.69-1.049,2.691c-0.27,1-0.404,1.944-0.404,2.834
		c0,0.643,0.113,1.304,0.339,1.982c0.227,0.679,0.513,1.245,0.857,1.697s0.677,0.679,0.995,0.679c0.246,0,0.504-0.165,0.773-0.494
		s0.516-0.796,0.738-1.399c0.23-0.579,0.43-1.187,0.596-1.822c0.166-0.635,0.293-1.262,0.381-1.881s0.131-1.184,0.131-1.691
		c0-0.802-0.129-1.566-0.387-2.292c-0.258-0.727-0.594-1.265-1.006-1.614c-0.08-0.056-0.119-0.111-0.119-0.166
		C20.678,52.567,21.01,52.21,21.678,51.678z"/>
</g>
</svg>
