<?xml version="1.0" encoding="utf-8"?>
<!-- Generator: Adobe Illustrator 16.0.0, SVG Export Plug-In . SVG Version: 6.00 Build 0)  -->
<!DOCTYPE svg PUBLIC "-//W3C//DTD SVG 1.1//EN" "http://www.w3.org/Graphics/SVG/1.1/DTD/svg11.dtd">
<svg version="1.1" id="Layer_1" xmlns="http://www.w3.org/2000/svg" xmlns:xlink="http://www.w3.org/1999/xlink" x="0px" y="0px"
	 width="29px" height="98px" viewBox="0 0 29 98" enable-background="new 0 0 29 98" xml:space="preserve">
<rect id="backgroundrect" fill="none" width="29" height="98"/>
<title>Layer 1</title>
<path id="svg_1" fill="#231F20" d="M25.357,21.672H3.883l7.644-20.605C11.765,0.426,12.376,0,13.06,0h3.12
	c0.686,0,1.297,0.425,1.533,1.066L25.357,21.672z"/>
<path id="svg_3" fill="#231F20" d="M26.258,21.672H2.982C1.335,21.672,0,23.008,0,24.654v70.391c0,1.646,1.335,2.98,2.982,2.98
	h23.275c1.646,0,2.982-1.334,2.982-2.98V24.654C29.24,23.007,27.904,21.672,26.258,21.672z"/>
<path id="svg_4" fill="#444444" d="M0.001,93.523H29.24V26.173H0.001V93.523z"/>
<path id="svg_5" fill="#394049" d="M29.24,93.525v-5.858H0v5.858H29.24z"/>
<path id="svg_6" fill="#231F20" d="M14.621,37.927c-6.01,0-10.882,9.814-10.882,21.921c0,12.107,4.872,21.922,10.882,21.922
	c6.01,0,10.883-9.813,10.883-21.922C25.504,47.741,20.631,37.927,14.621,37.927z"/>
<path id="svg_7" fill="#394049" d="M29.24,32.033v-5.859H0v5.859H29.24z"/>
<g>
	<path fill="#FFFFFF" d="M8.925,55.467l0.204-0.5c-0.102,0.027-0.262,0.088-0.48,0.184c-0.469,0.197-0.769,0.296-0.898,0.296
		c-0.122,0-0.223-0.066-0.301-0.199c-0.079-0.133-0.118-0.305-0.118-0.516c0-0.177,0.044-0.388,0.133-0.633s0.184-0.412,0.286-0.5
		c0.177-0.137,0.953-0.524,2.328-1.164l0.306-0.133c0.061-0.041,0.16-0.088,0.296-0.143c0.905-0.442,1.484-0.664,1.736-0.664
		c0.225,0,0.399,0.064,0.526,0.194c0.125,0.129,0.188,0.313,0.186,0.551c0,0.51-0.238,1.412-0.714,2.705
		c-0.109,0.313-0.196,0.561-0.26,0.741c-0.064,0.18-0.158,0.447-0.281,0.801c-0.034,0.13-0.071,0.263-0.112,0.398
		c-0.238,0.797-0.412,1.396-0.521,1.797c-0.014,0.048-0.06,0.209-0.138,0.484c-0.078,0.276-0.134,0.475-0.168,0.598
		c-0.034,0.122-0.072,0.248-0.112,0.378c-0.456,1.742-0.837,2.858-1.143,3.349c-0.102,0.156-0.221,0.296-0.357,0.418
		c-0.292,0.225-0.546,0.398-0.76,0.521c-0.214,0.122-0.418,0.209-0.612,0.26c-0.194,0.052-0.414,0.077-0.658,0.077
		c-0.354,0-0.669-0.104-0.944-0.312s-0.413-0.444-0.413-0.71c0-0.047,0.013-0.125,0.041-0.234
		C6.778,61.123,7.761,58.441,8.925,55.467z"/>
	<path fill="#FFFFFF" d="M16.49,58.877l0.775-0.53c-0.715-0.64-1.232-1.232-1.551-1.777c-0.32-0.544-0.48-1.103-0.48-1.675
		c0-0.476,0.109-0.932,0.326-1.367c0.219-0.436,0.523-0.822,0.92-1.159c0.395-0.337,0.852-0.599,1.373-0.786
		c0.52-0.188,1.063-0.28,1.627-0.28c0.865,0,1.297,0.146,1.297,0.438c0,0.096-0.105,0.153-0.316,0.174
		c-0.422,0.075-0.762,0.289-1.02,0.644c-0.199,0.259-0.371,0.589-0.516,0.991c-0.146,0.401-0.221,0.756-0.221,1.063
		c-0.002,0.708,0.277,1.266,0.836,1.674c0.381-0.402,0.684-0.824,0.904-1.267c0.223-0.442,0.332-0.858,0.332-1.246
		c0-0.374-0.105-0.681-0.316-0.919c-0.055-0.055-0.082-0.099-0.082-0.133c0-0.109,0.119-0.238,0.357-0.388
		c0.361-0.238,0.732-0.357,1.113-0.357c0.252,0,0.486,0.063,0.705,0.188c0.217,0.126,0.385,0.303,0.5,0.531
		c0.115,0.228,0.174,0.488,0.174,0.781c0,0.619-0.188,1.21-0.563,1.771c-0.375,0.563-1.025,1.228-1.951,1.997
		c0.559,0.55,0.969,1.073,1.227,1.57c0.26,0.497,0.389,0.997,0.389,1.501c0,0.558-0.15,1.112-0.449,1.664
		c-0.301,0.551-0.703,1.05-1.211,1.495c-0.506,0.446-1.072,0.8-1.699,1.063c-0.627,0.262-1.242,0.393-1.848,0.393
		c-0.967,0-1.75-0.241-2.348-0.725c-0.599-0.483-0.898-1.112-0.898-1.889c0-0.646,0.182-1.208,0.546-1.685
		C14.787,60.157,15.475,59.571,16.49,58.877z M18.439,59.244c-0.428,0.374-0.762,0.83-1,1.368s-0.357,1.1-0.357,1.685
		c0,0.449,0.055,0.8,0.164,1.052c0.107,0.252,0.262,0.377,0.459,0.377c0.074,0,0.17-0.028,0.285-0.086
		c0.115-0.059,0.201-0.114,0.256-0.169c0.293-0.292,0.551-0.681,0.775-1.164c0.225-0.482,0.338-0.895,0.338-1.234
		c0-0.43-0.082-0.802-0.246-1.118C18.951,59.638,18.727,59.4,18.439,59.244z"/>
</g>
</svg>
