<?xml version="1.0" encoding="utf-8"?>
<!-- Generator: Adobe Illustrator 16.0.0, SVG Export Plug-In . SVG Version: 6.00 Build 0)  -->
<!DOCTYPE svg PUBLIC "-//W3C//DTD SVG 1.1//EN" "http://www.w3.org/Graphics/SVG/1.1/DTD/svg11.dtd">
<svg version="1.1" id="Layer_1" xmlns="http://www.w3.org/2000/svg" xmlns:xlink="http://www.w3.org/1999/xlink" x="0px" y="0px"
	 width="29px" height="98px" viewBox="0 0 29 98" enable-background="new 0 0 29 98" xml:space="preserve">
<rect id="backgroundrect" fill="none" width="28.762" height="98"/>
<title>Layer 1</title>
<path id="svg_1" fill="#FCFCFC" d="M25.149,21.672H3.851l7.582-20.605C11.668,0.426,12.274,0,12.953,0h3.094
	c0.681,0,1.286,0.425,1.521,1.066L25.149,21.672z"/>
<path id="svg_3" fill="#FCFCFC" d="M26.042,21.672H2.958C1.324,21.672,0,23.008,0,24.654v70.391c0,1.646,1.324,2.98,2.958,2.98
	h23.083c1.632,0,2.958-1.334,2.958-2.98V24.654C29,23.007,27.675,21.672,26.042,21.672z"/>
<path id="svg_4" fill="#F9F9F9" d="M0.001,93.523H29V26.173H0.001V93.523z"/>
<path id="svg_5" fill="#394049" d="M29,93.525v-5.858H0v5.858H29z"/>
<path id="svg_6" fill="#FFFFFF" d="M14.501,37.927c-5.961,0-10.793,9.814-10.793,21.921c0,12.107,4.832,21.922,10.793,21.922
	c5.96,0,10.793-9.813,10.793-21.922C25.294,47.741,20.461,37.927,14.501,37.927z"/>
<path id="svg_7" fill="#394049" d="M29,32.033v-5.859H0v5.859H29z"/>
<g>
	<path d="M8.845,59.932l0.154-0.195c0.436-0.666,0.744-1.16,0.923-1.482c0.18-0.324,0.325-0.664,0.433-1.02
		c0.161-0.49,0.24-1.002,0.24-1.531c0-0.543-0.065-0.951-0.197-1.223s-0.373-0.494-0.726-0.67c-0.449,0.654-0.674,1.48-0.674,2.484
		c0,0.387,0.062,0.785,0.183,1.191c0.052,0.148,0.077,0.25,0.077,0.301c0,0.188-0.1,0.281-0.298,0.281
		c-0.18,0-0.423-0.076-0.731-0.227c-0.307-0.152-0.542-0.311-0.702-0.471c-0.18-0.195-0.327-0.447-0.442-0.758
		c-0.116-0.311-0.173-0.639-0.173-0.988c0-0.492,0.101-0.961,0.303-1.406c0.202-0.447,0.486-0.834,0.851-1.164
		s0.8-0.586,1.303-0.771c0.503-0.184,1.037-0.275,1.602-0.275s1.079,0.123,1.544,0.373c0.465,0.248,0.835,0.592,1.111,1.027
		c0.276,0.436,0.414,0.908,0.414,1.42c0,0.381-0.072,0.787-0.218,1.221c-0.145,0.434-0.373,0.916-0.685,1.449
		c-0.313,0.533-0.712,1.119-1.2,1.76s-1.055,1.328-1.702,2.064l-0.193,0.232L9.878,61.74c0.269,0.08,0.639,0.121,1.107,0.121
		s0.939-0.025,1.411-0.078c0.471-0.051,0.843-0.119,1.113-0.203c0.18-0.053,0.298-0.078,0.356-0.078c0.064,0,0.096,0.02,0.096,0.059
		c0,0.238-0.152,0.611-0.457,1.115c-0.305,0.504-0.624,0.922-0.957,1.25c-0.347,0.33-0.762,0.572-1.246,0.723
		c-0.484,0.152-1.083,0.229-1.794,0.229c-0.911,0-1.693-0.127-2.347-0.379c-0.654-0.252-0.98-0.555-0.98-0.91
		c0-0.246,0.33-0.738,0.99-1.475c0.468-0.537,0.895-1.07,1.279-1.6c0.026-0.039,0.053-0.078,0.082-0.117s0.054-0.076,0.077-0.111
		c0.022-0.035,0.053-0.086,0.091-0.15L8.845,59.932z"/>
	<path d="M17.675,59.932l0.154-0.195c0.436-0.666,0.744-1.16,0.924-1.482c0.18-0.324,0.323-0.664,0.432-1.02
		c0.161-0.49,0.241-1.002,0.241-1.531c0-0.543-0.065-0.951-0.197-1.223c-0.131-0.271-0.374-0.494-0.727-0.67
		c-0.448,0.654-0.673,1.48-0.673,2.484c0,0.387,0.061,0.785,0.184,1.191c0.051,0.148,0.076,0.25,0.076,0.301
		c0,0.188-0.099,0.281-0.299,0.281c-0.179,0-0.424-0.076-0.729-0.227c-0.309-0.152-0.543-0.311-0.703-0.471
		c-0.18-0.195-0.327-0.447-0.442-0.758s-0.173-0.639-0.173-0.988c0-0.492,0.101-0.961,0.303-1.406
		c0.202-0.447,0.484-0.834,0.852-1.164c0.365-0.33,0.8-0.586,1.303-0.771c0.503-0.184,1.037-0.275,1.603-0.275
		c0.563,0,1.078,0.123,1.543,0.373c0.465,0.248,0.835,0.592,1.11,1.027c0.276,0.436,0.414,0.908,0.414,1.42
		c0,0.381-0.072,0.787-0.217,1.221s-0.374,0.916-0.686,1.449c-0.313,0.533-0.713,1.119-1.199,1.76
		c-0.488,0.641-1.056,1.328-1.703,2.064l-0.192,0.232l-0.164,0.186c0.271,0.08,0.638,0.121,1.108,0.121
		c0.468,0,0.938-0.025,1.41-0.078c0.473-0.051,0.844-0.119,1.112-0.203c0.181-0.053,0.298-0.078,0.356-0.078
		c0.064,0,0.097,0.02,0.097,0.059c0,0.238-0.152,0.611-0.457,1.115c-0.304,0.504-0.623,0.922-0.956,1.25
		c-0.347,0.33-0.763,0.572-1.246,0.723c-0.484,0.152-1.082,0.229-1.793,0.229c-0.911,0-1.693-0.127-2.349-0.379
		c-0.653-0.252-0.98-0.555-0.98-0.91c0-0.246,0.331-0.738,0.99-1.475c0.468-0.537,0.896-1.07,1.279-1.6
		c0.025-0.039,0.054-0.078,0.083-0.117c0.027-0.039,0.055-0.076,0.077-0.111c0.021-0.035,0.053-0.086,0.09-0.15L17.675,59.932z"/>
</g>
</svg>
