<?xml version="1.0" encoding="utf-8"?>
<!-- Generator: Adobe Illustrator 16.0.0, SVG Export Plug-In . SVG Version: 6.00 Build 0)  -->
<!DOCTYPE svg PUBLIC "-//W3C//DTD SVG 1.1//EN" "http://www.w3.org/Graphics/SVG/1.1/DTD/svg11.dtd">
<svg version="1.1" id="Layer_1" xmlns="http://www.w3.org/2000/svg" xmlns:xlink="http://www.w3.org/1999/xlink" x="0px" y="0px"
	 width="29px" height="98px" viewBox="0 0 29 98" enable-background="new 0 0 29 98" xml:space="preserve">
<rect id="backgroundrect" fill="none" width="29" height="98"/>
<title>Layer 1</title>
<path id="svg_1" fill="#FDBC42" d="M25.357,21.672H3.883l7.644-20.605C11.765,0.426,12.376,0,13.06,0h3.12
	c0.686,0,1.297,0.425,1.533,1.066L25.357,21.672z"/>
<path id="svg_3" fill="#FDBC42" d="M26.258,21.672H2.982C1.335,21.672,0,23.008,0,24.654v70.391c0,1.646,1.335,2.98,2.982,2.98
	h23.275c1.646,0,2.982-1.334,2.982-2.98V24.654C29.24,23.007,27.904,21.672,26.258,21.672z"/>
<path id="svg_4" fill="#FFD380" d="M0.001,93.523H29.24V26.173H0.001V93.523z"/>
<path id="svg_5" fill="#394049" d="M29.24,93.525v-5.858H0v5.858H29.24z"/>
<path id="svg_6" fill="#FDBC42" d="M14.621,37.927c-6.01,0-10.882,9.814-10.882,21.921c0,12.107,4.872,21.922,10.882,21.922
	c6.01,0,10.883-9.813,10.883-21.922C25.504,47.741,20.631,37.927,14.621,37.927z"/>
<path id="svg_7" fill="#394049" d="M29.24,32.033v-5.859H0v5.859H29.24z"/>
<g>
	<path fill="#FFFFFF" d="M15.693,55.09l-0.727,0.846l0.047,0.048c1.064-0.699,1.973-1.048,2.728-1.048
		c0.571,0,1.081,0.139,1.53,0.416c0.449,0.278,0.799,0.657,1.049,1.138s0.375,1.03,0.375,1.649c0,0.746-0.123,1.519-0.369,2.316
		s-0.596,1.567-1.049,2.31c-0.453,0.743-0.98,1.403-1.584,1.983c-0.539,0.523-1.207,0.938-2,1.244
		c-0.794,0.306-1.572,0.459-2.334,0.459c-1.469,0-2.588-0.312-3.358-0.936c-0.77-0.623-1.155-1.53-1.155-2.721
		c0-1.056,0.341-2.362,1.024-3.918c0.683-1.556,1.739-3.43,3.167-5.621c0.564-0.896,1.028-1.54,1.394-1.929
		c0.183-0.199,0.353-0.338,0.512-0.417c0.159-0.079,0.409-0.144,0.75-0.19c0.596-0.096,1.198-0.144,1.81-0.144
		c0.929,0,1.394,0.25,1.394,0.751c0,0.254-0.294,0.643-0.881,1.167c-0.342,0.285-0.894,0.889-1.656,1.81L15.693,55.09z
		 M14.359,57.233c-0.278,0-0.563,0.163-0.857,0.488c-0.293,0.325-0.534,0.74-0.72,1.244c-0.187,0.505-0.28,0.999-0.28,1.483
		c0,0.65,0.125,1.258,0.375,1.821c0.25,0.564,0.596,1.015,1.036,1.352c0.44,0.338,0.899,0.507,1.375,0.507
		c0.254,0,0.456-0.071,0.607-0.215c0.254-0.293,0.462-0.77,0.625-1.429s0.244-1.361,0.244-2.108c0-0.658-0.097-1.225-0.292-1.696
		c-0.194-0.473-0.469-0.832-0.821-1.078C15.298,57.356,14.867,57.233,14.359,57.233z"/>
</g>
</svg>
