<?xml version="1.0" encoding="utf-8"?>
<!-- Generator: Adobe Illustrator 16.0.0, SVG Export Plug-In . SVG Version: 6.00 Build 0)  -->
<!DOCTYPE svg PUBLIC "-//W3C//DTD SVG 1.1//EN" "http://www.w3.org/Graphics/SVG/1.1/DTD/svg11.dtd">
<svg version="1.1" id="Layer_1" xmlns="http://www.w3.org/2000/svg" xmlns:xlink="http://www.w3.org/1999/xlink" x="0px" y="0px"
	 width="29px" height="98px" viewBox="0 0 29 98" enable-background="new 0 0 29 98" xml:space="preserve">
<rect id="backgroundrect" fill="none" width="29" height="98"/>
<title>Layer 1</title>
<path id="svg_1" fill="#ABE1FA" d="M25.357,21.672H3.883l7.643-20.605C11.765,0.426,12.376,0,13.06,0h3.12
	c0.686,0,1.297,0.425,1.533,1.066L25.357,21.672z"/>
<path id="svg_3" fill="#ABE1FA" d="M26.258,21.672H2.982C1.335,21.672,0,23.008,0,24.654v70.391c0,1.646,1.335,2.98,2.982,2.98
	h23.275c1.646,0,2.982-1.334,2.982-2.98V24.654C29.24,23.007,27.904,21.672,26.258,21.672z"/>
<path id="svg_5" fill="#394049" d="M29.24,93.525v-5.858H0v5.858H29.24z"/>
<path id="svg_6" fill="#ABE1FA" d="M14.621,37.927c-6.01,0-10.882,9.814-10.882,21.921c0,12.107,4.872,21.922,10.882,21.922
	c6.01,0,10.883-9.813,10.883-21.922C25.504,47.741,20.631,37.927,14.621,37.927z"/>
<path id="svg_7" fill="#394049" d="M29.24,32.033v-5.859H0v5.859H29.24z"/>
<g>
	<path fill="#FFFFFF" d="M15.084,60.473v0.06l-0.048-0.06c-0.683,0.452-1.252,0.766-1.709,0.94s-0.935,0.262-1.435,0.262
		c-0.833,0-1.515-0.291-2.042-0.875c-0.528-0.583-0.792-1.34-0.792-2.269c0-1.04,0.325-2.054,0.976-3.043
		c0.651-0.988,1.5-1.792,2.549-2.411c1.048-0.619,2.1-0.925,3.155-0.917c1.159,0,2.16,0.413,3.002,1.238
		c0.959,0.961,1.439,2.271,1.439,3.93c0,1.191-0.297,2.418-0.893,3.681c-0.596,1.262-1.381,2.417-2.357,3.465
		s-2.061,1.892-3.251,2.531c-1.19,0.639-2.342,0.958-3.453,0.958c-0.254,0-0.435-0.027-0.542-0.083
		c-0.107-0.056-0.161-0.159-0.161-0.31c0-0.079,0.042-0.157,0.125-0.232c0.083-0.075,0.212-0.152,0.387-0.232
		c0.659-0.286,1.308-0.754,1.947-1.405c0.639-0.65,1.23-1.431,1.774-2.34C14.299,62.451,14.742,61.489,15.084,60.473z
		 M15.346,59.817c0.317-0.762,0.56-1.522,0.727-2.28c0.166-0.758,0.25-1.479,0.25-2.161c0-0.604-0.094-1.084-0.279-1.441
		c-0.188-0.357-0.436-0.536-0.745-0.536c-0.127,0-0.29,0.058-0.488,0.173s-0.377,0.256-0.536,0.423
		c-0.421,0.437-0.752,0.945-0.995,1.524s-0.363,1.144-0.363,1.691c0,0.666,0.224,1.242,0.673,1.727
		C14.038,59.421,14.623,59.715,15.346,59.817z"/>
</g>
</svg>
