<?xml version="1.0" encoding="utf-8"?>
<!-- Generator: Adobe Illustrator 16.0.0, SVG Export Plug-In . SVG Version: 6.00 Build 0)  -->
<!DOCTYPE svg PUBLIC "-//W3C//DTD SVG 1.1//EN" "http://www.w3.org/Graphics/SVG/1.1/DTD/svg11.dtd">
<svg version="1.1" id="Layer_1" xmlns="http://www.w3.org/2000/svg" xmlns:xlink="http://www.w3.org/1999/xlink" x="0px" y="0px"
	 width="29px" height="98px" viewBox="0 0 29 98" enable-background="new 0 0 29 98" xml:space="preserve">
<rect id="backgroundrect" fill="none" width="29" height="98"/>
<title>Layer 1</title>
<path id="svg_1" fill="#C6946B" d="M25.357,21.672H3.883l7.644-20.605C11.765,0.426,12.376,0,13.06,0h3.12
	c0.686,0,1.297,0.425,1.533,1.066L25.357,21.672z"/>
<path id="svg_3" fill="#C6946B" d="M26.258,21.672H2.982C1.335,21.672,0,23.008,0,24.654v70.391c0,1.646,1.335,2.98,2.982,2.98
	h23.275c1.646,0,2.982-1.334,2.982-2.98V24.654C29.24,23.007,27.904,21.672,26.258,21.672z"/>
<path id="svg_4" fill="#E4B48D" d="M0.001,93.523H29.24V26.173H0.001V93.523z"/>
<path id="svg_5" fill="#394049" d="M29.24,93.525v-5.858H0v5.858H29.24z"/>
<path id="svg_6" fill="#C6946B" d="M14.621,37.927c-6.01,0-10.882,9.814-10.882,21.921c0,12.107,4.872,21.922,10.882,21.922
	c6.01,0,10.883-9.813,10.883-21.922C25.504,47.741,20.631,37.927,14.621,37.927z"/>
<path id="svg_7" fill="#394049" d="M29.24,32.033v-5.859H0v5.859H29.24z"/>
<g>
	<path fill="#FFFFFF" d="M8.624,56.842l0.204-0.5c-0.102,0.027-0.262,0.088-0.48,0.184c-0.469,0.197-0.769,0.296-0.898,0.296
		c-0.122,0-0.223-0.066-0.301-0.199c-0.079-0.133-0.118-0.305-0.118-0.516c0-0.177,0.044-0.388,0.133-0.633s0.184-0.412,0.286-0.5
		c0.177-0.137,0.953-0.524,2.328-1.164l0.306-0.133c0.061-0.041,0.16-0.088,0.296-0.143c0.905-0.442,1.484-0.664,1.736-0.664
		c0.225,0,0.399,0.064,0.526,0.194c0.125,0.129,0.188,0.313,0.186,0.551c0,0.51-0.238,1.412-0.714,2.705
		c-0.109,0.313-0.196,0.561-0.26,0.741c-0.064,0.18-0.158,0.447-0.281,0.801c-0.034,0.13-0.071,0.263-0.112,0.398
		c-0.238,0.797-0.412,1.396-0.521,1.797c-0.014,0.048-0.06,0.209-0.138,0.484c-0.078,0.276-0.134,0.475-0.168,0.598
		c-0.034,0.122-0.072,0.248-0.112,0.378c-0.456,1.742-0.837,2.858-1.143,3.349c-0.102,0.156-0.221,0.296-0.357,0.418
		c-0.292,0.225-0.546,0.398-0.76,0.521c-0.214,0.122-0.418,0.209-0.612,0.26c-0.194,0.052-0.414,0.077-0.658,0.077
		c-0.354,0-0.669-0.104-0.944-0.312s-0.413-0.444-0.413-0.71c0-0.047,0.013-0.125,0.041-0.234
		C6.476,62.498,7.459,59.816,8.624,56.842z"/>
	<path fill="#FFFFFF" d="M16.721,64.784h0.061c0.225,0,0.506-0.104,0.842-0.311c0.338-0.208,0.67-0.481,0.996-0.822
		c0.422-0.436,0.758-0.9,1.006-1.394s0.373-0.955,0.373-1.384c0-0.932-0.494-1.497-1.48-1.694c-0.191-0.027-0.328-0.069-0.408-0.128
		c-0.082-0.058-0.123-0.147-0.123-0.271c0-0.136,0.162-0.344,0.49-0.622c0.49-0.43,0.873-0.897,1.148-1.404s0.412-1.016,0.412-1.526
		c0-0.544-0.111-0.816-0.336-0.816c-0.184,0-0.412,0.145-0.684,0.434c-0.273,0.289-0.533,0.658-0.781,1.107
		s-0.434,0.893-0.557,1.327c-0.041,0.15-0.082,0.247-0.123,0.291c-0.041,0.045-0.098,0.066-0.174,0.066
		c-0.197,0-0.441-0.152-0.734-0.459c-0.416-0.442-0.623-0.892-0.623-1.348c0-0.524,0.213-1.045,0.639-1.563
		c0.426-0.517,0.979-0.936,1.658-1.255c0.682-0.32,1.379-0.48,2.094-0.48c0.578,0,1.105,0.112,1.582,0.337s0.848,0.536,1.113,0.935
		c0.266,0.397,0.398,0.846,0.398,1.343c0,0.905-0.393,1.63-1.174,2.174c-0.408,0.279-0.916,0.545-1.521,0.797v0.041
		c0.959,0.054,1.68,0.269,2.164,0.643c0.482,0.375,0.725,0.898,0.725,1.572c0,0.313-0.072,0.658-0.219,1.036
		s-0.355,0.766-0.623,1.164c-0.27,0.398-0.592,0.795-0.965,1.189c-0.816,0.864-1.705,1.54-2.664,2.026
		c-0.961,0.486-1.883,0.73-2.768,0.73c-0.844,0-1.547-0.27-2.109-0.807c-0.562-0.538-0.842-1.212-0.842-2.021
		c0-0.552,0.189-1.103,0.567-1.654c0.377-0.551,0.866-1.002,1.464-1.353c0.6-0.351,1.199-0.525,1.799-0.525
		c0.25,0,0.377,0.092,0.377,0.275c0,0.075-0.105,0.201-0.316,0.378c-0.021,0.021-0.043,0.042-0.066,0.066
		c-0.023,0.023-0.049,0.049-0.076,0.076c-0.266,0.307-0.473,0.688-0.619,1.144s-0.219,0.933-0.219,1.43
		C16.424,64.019,16.523,64.438,16.721,64.784z"/>
</g>
</svg>
