<?xml version="1.0" encoding="utf-8"?>
<!-- Generator: Adobe Illustrator 16.0.0, SVG Export Plug-In . SVG Version: 6.00 Build 0)  -->
<!DOCTYPE svg PUBLIC "-//W3C//DTD SVG 1.1//EN" "http://www.w3.org/Graphics/SVG/1.1/DTD/svg11.dtd">
<svg version="1.1" id="Layer_1" xmlns="http://www.w3.org/2000/svg" xmlns:xlink="http://www.w3.org/1999/xlink" x="0px" y="0px"
	 width="29px" height="98px" viewBox="0 0 29 98" enable-background="new 0 0 29 98" xml:space="preserve">
<rect id="backgroundrect" fill="none" width="29" height="98"/>
<title>Layer 1</title>
<path id="svg_1" fill="#A09F9F" d="M25.357,21.672H3.883l7.644-20.605C11.765,0.426,12.376,0,13.06,0h3.12
	c0.686,0,1.297,0.425,1.533,1.066L25.357,21.672z"/>
<path id="svg_3" fill="#A09F9F" d="M26.258,21.672H2.982C1.335,21.672,0,23.008,0,24.654v70.391c0,1.646,1.335,2.98,2.982,2.98
	h23.275c1.646,0,2.982-1.334,2.982-2.98V24.654C29.24,23.007,27.904,21.672,26.258,21.672z"/>
<path id="svg_4" fill="#C9C9C9" d="M0.001,93.523H29.24V26.173H0.001V93.523z"/>
<path id="svg_5" fill="#394049" d="M29.24,93.525v-5.858H0v5.858H29.24z"/>
<path id="svg_6" fill="#A09F9F" d="M14.621,37.927c-6.01,0-10.882,9.814-10.882,21.921c0,12.107,4.872,21.922,10.882,21.922
	c6.01,0,10.883-9.813,10.883-21.922C25.504,47.741,20.631,37.927,14.621,37.927z"/>
<path id="svg_7" fill="#394049" d="M29.24,32.033v-5.859H0v5.859H29.24z"/>
<g>
	<path fill="#FFFFFF" d="M9.046,56.175l0.204-0.5c-0.102,0.027-0.262,0.088-0.48,0.184c-0.469,0.197-0.769,0.296-0.898,0.296
		c-0.122,0-0.223-0.066-0.301-0.199c-0.079-0.133-0.118-0.305-0.118-0.516c0-0.177,0.044-0.388,0.133-0.633s0.184-0.412,0.286-0.5
		c0.177-0.137,0.953-0.524,2.328-1.164l0.306-0.133c0.061-0.041,0.16-0.088,0.296-0.143c0.905-0.442,1.484-0.664,1.736-0.664
		c0.225,0,0.399,0.064,0.526,0.194c0.125,0.129,0.188,0.313,0.186,0.551c0,0.51-0.238,1.412-0.714,2.705
		c-0.109,0.313-0.196,0.561-0.26,0.741c-0.064,0.18-0.158,0.447-0.281,0.801c-0.034,0.13-0.071,0.263-0.112,0.398
		c-0.238,0.797-0.412,1.396-0.521,1.797c-0.014,0.048-0.06,0.209-0.138,0.484c-0.078,0.276-0.134,0.475-0.168,0.598
		c-0.034,0.122-0.072,0.248-0.112,0.378c-0.456,1.742-0.837,2.858-1.143,3.349c-0.102,0.156-0.221,0.296-0.357,0.418
		c-0.292,0.225-0.546,0.398-0.76,0.521c-0.214,0.122-0.418,0.209-0.612,0.26c-0.194,0.052-0.414,0.077-0.658,0.077
		c-0.354,0-0.669-0.104-0.944-0.312s-0.413-0.444-0.413-0.71c0-0.047,0.013-0.125,0.041-0.234
		C6.899,61.831,7.882,59.149,9.046,56.175z"/>
	<path fill="#FFFFFF" d="M18.664,54.776l-0.756,1.337l0.041,0.041c0.482-0.204,0.912-0.351,1.285-0.439
		c0.375-0.088,0.742-0.132,1.104-0.132c0.932,0,1.656,0.219,2.174,0.658c0.518,0.438,0.775,1.057,0.775,1.853
		c0,0.396-0.055,0.812-0.168,1.251c-0.111,0.439-0.279,0.882-0.5,1.327c-0.221,0.446-0.486,0.883-0.797,1.312
		c-0.309,0.43-0.691,0.875-1.148,1.338c-0.666,0.674-1.336,1.201-2.006,1.582c-0.67,0.382-1.271,0.572-1.801,0.572
		c-0.389,0-0.77-0.077-1.145-0.229c-0.373-0.153-0.703-0.369-0.99-0.648c-0.503-0.504-0.755-1.215-0.755-2.134
		c0-1.226,0.351-2.185,1.052-2.879c0.346-0.354,0.754-0.646,1.219-0.873c0.467-0.229,0.873-0.342,1.221-0.342
		c0.367,0,0.551,0.102,0.551,0.306v0.031c-0.293,0.347-0.512,0.642-0.658,0.883s-0.297,0.566-0.455,0.975
		c-0.264,0.681-0.396,1.474-0.396,2.379c0,0.701,0.139,1.052,0.418,1.052c0.361,0,0.752-0.211,1.174-0.633
		c0.463-0.483,0.865-1.082,1.205-1.797s0.51-1.32,0.51-1.817c0-0.694-0.145-1.206-0.434-1.536s-0.75-0.495-1.383-0.495
		c-0.354,0-0.83,0.064-1.43,0.193c-0.326,0.055-0.5,0.082-0.521,0.082c-0.197,0-0.361-0.066-0.494-0.199s-0.199-0.305-0.199-0.516
		c0-0.177,0.092-0.545,0.275-1.103c0.293-0.939,0.6-1.79,0.918-2.553l0.063-0.143c0.033-0.068,0.092-0.194,0.174-0.378
		c0.197-0.483,0.373-0.786,0.525-0.908c0.152-0.123,0.43-0.184,0.832-0.184c1.287,0,2.256,0.014,2.91,0.04
		c0.148,0,0.279,0.007,0.387,0.021h0.133c0.512,0.027,0.857,0.071,1.041,0.133c0.186,0.062,0.277,0.157,0.277,0.286
		c0,0.116-0.078,0.291-0.23,0.525c-0.152,0.235-0.342,0.458-0.566,0.669c-0.381,0.381-0.775,0.676-1.186,0.883
		c-0.408,0.208-0.809,0.312-1.203,0.312c-0.17,0-0.439-0.021-0.807-0.062c-0.109-0.026-0.168-0.04-0.174-0.04H18.664z"/>
</g>
</svg>
