<?xml version="1.0" encoding="utf-8"?>
<!-- Generator: Adobe Illustrator 16.0.0, SVG Export Plug-In . SVG Version: 6.00 Build 0)  -->
<!DOCTYPE svg PUBLIC "-//W3C//DTD SVG 1.1//EN" "http://www.w3.org/Graphics/SVG/1.1/DTD/svg11.dtd">
<svg version="1.1" id="Layer_1" xmlns="http://www.w3.org/2000/svg" xmlns:xlink="http://www.w3.org/1999/xlink" x="0px" y="0px"
	 width="29px" height="98px" viewBox="0 0 29 98" enable-background="new 0 0 29 98" xml:space="preserve">
<rect id="backgroundrect" fill="none" width="29" height="98"/>
<title>Layer 1</title>
<path id="svg_1" fill="#4598D3" d="M25.357,21.672H3.883l7.643-20.605C11.765,0.426,12.376,0,13.06,0h3.12
	c0.687,0,1.297,0.425,1.533,1.066L25.357,21.672z"/>
<path id="svg_3" fill="#4598D3" d="M26.258,21.672H2.982C1.335,21.672,0,23.008,0,24.654v70.391c0,1.646,1.335,2.98,2.982,2.98
	h23.275c1.647,0,2.982-1.334,2.982-2.98V24.654C29.24,23.007,27.904,21.672,26.258,21.672z"/>
<path id="svg_4" fill="#6AB9F1" d="M0.001,93.523H29.24V26.173H0.001V93.523z"/>
<path id="svg_5" fill="#394049" d="M29.24,93.525v-5.858H0v5.858H29.24z"/>
<path id="svg_6" fill="#4598D3" d="M14.621,37.927c-6.01,0-10.882,9.814-10.882,21.921c0,12.107,4.872,21.922,10.882,21.922
	c6.01,0,10.883-9.813,10.883-21.922C25.504,47.741,20.631,37.927,14.621,37.927z"/>
<path id="svg_7" fill="#394049" d="M29.24,32.033v-5.859H0v5.859H29.24z"/>
<g enable-background="new    ">
	<path fill="#FFFFFF" d="M12.249,60.152l0.905-0.62c-0.833-0.746-1.437-1.438-1.809-2.072c-0.373-0.636-0.56-1.286-0.56-1.953
		c0-0.556,0.127-1.088,0.381-1.596c0.254-0.509,0.611-0.959,1.072-1.352c0.46-0.394,0.995-0.699,1.602-0.917
		c0.607-0.219,1.241-0.328,1.899-0.328c1.008,0,1.513,0.171,1.513,0.513c0,0.111-0.123,0.179-0.369,0.202
		c-0.492,0.087-0.89,0.338-1.19,0.751c-0.23,0.302-0.432,0.687-0.602,1.155c-0.171,0.469-0.256,0.882-0.256,1.239
		c-0.002,0.826,0.323,1.478,0.975,1.953c0.445-0.469,0.797-0.961,1.055-1.478c0.259-0.516,0.388-1.001,0.388-1.453
		c0-0.437-0.123-0.794-0.369-1.072c-0.063-0.063-0.095-0.115-0.095-0.155c0-0.126,0.139-0.277,0.416-0.452
		c0.421-0.278,0.854-0.417,1.299-0.417c0.293,0,0.566,0.073,0.821,0.221c0.254,0.146,0.448,0.354,0.583,0.619
		c0.135,0.267,0.203,0.57,0.203,0.911c0,0.723-0.219,1.412-0.656,2.067c-0.436,0.655-1.195,1.432-2.275,2.329
		c0.652,0.642,1.129,1.252,1.431,1.831c0.302,0.58,0.452,1.163,0.452,1.751c0,0.651-0.174,1.298-0.523,1.941
		c-0.35,0.643-0.82,1.225-1.411,1.744c-0.591,0.521-1.253,0.934-1.983,1.238c-0.73,0.306-1.448,0.459-2.155,0.459
		c-1.127,0-2.041-0.282-2.739-0.846s-1.048-1.298-1.048-2.203c0-0.754,0.212-1.408,0.637-1.964
		C10.262,61.645,11.066,60.962,12.249,60.152z M14.524,60.58c-0.5,0.437-0.889,0.969-1.167,1.596s-0.417,1.282-0.417,1.965
		c0,0.523,0.063,0.933,0.191,1.227c0.126,0.294,0.305,0.44,0.536,0.44c0.087,0,0.198-0.034,0.333-0.102
		c0.135-0.067,0.234-0.133,0.298-0.196c0.341-0.341,0.643-0.794,0.905-1.357c0.262-0.563,0.393-1.044,0.393-1.44
		c0-0.501-0.096-0.936-0.286-1.305S14.857,60.763,14.524,60.58z"/>
</g>
</svg>
