<?xml version="1.0" encoding="utf-8"?>
<!-- Generator: Adobe Illustrator 16.0.0, SVG Export Plug-In . SVG Version: 6.00 Build 0)  -->
<!DOCTYPE svg PUBLIC "-//W3C//DTD SVG 1.1//EN" "http://www.w3.org/Graphics/SVG/1.1/DTD/svg11.dtd">
<svg version="1.1" id="Layer_1" xmlns="http://www.w3.org/2000/svg" xmlns:xlink="http://www.w3.org/1999/xlink" x="0px" y="0px"
	 width="29px" height="98px" viewBox="0 0 29 98" enable-background="new 0 0 29 98" xml:space="preserve">
<rect id="backgroundrect" fill="none" width="29" height="98"/>
<title>Layer 1</title>
<path id="svg_1" fill="#4D4D4D" d="M25.357,21.672H3.883l7.644-20.605C11.765,0.426,12.376,0,13.06,0h3.12
	c0.686,0,1.297,0.425,1.533,1.066L25.357,21.672z"/>
<path id="svg_3" fill="#4D4D4D" d="M26.258,21.672H2.982C1.335,21.672,0,23.008,0,24.654v70.391c0,1.646,1.335,2.98,2.982,2.98
	h23.275c1.646,0,2.982-1.334,2.982-2.98V24.654C29.24,23.007,27.904,21.672,26.258,21.672z"/>
<path id="svg_4" fill="#717171" d="M0.001,93.523H29.24V26.173H0.001V93.523z"/>
<path id="svg_5" fill="#394049" d="M29.24,93.525v-5.858H0v5.858H29.24z"/>
<path id="svg_6" fill="#4D4D4D" d="M14.621,37.927c-6.01,0-10.882,9.814-10.882,21.921c0,12.107,4.872,21.922,10.882,21.922
	c6.01,0,10.883-9.813,10.883-21.922C25.504,47.741,20.631,37.927,14.621,37.927z"/>
<path id="svg_7" fill="#394049" d="M29.24,32.033v-5.859H0v5.859H29.24z"/>
<g>
	<path fill="#FFFFFF" d="M9.047,57.092l0.204-0.5c-0.102,0.027-0.262,0.088-0.48,0.184c-0.469,0.197-0.769,0.296-0.898,0.296
		c-0.122,0-0.223-0.066-0.301-0.199c-0.079-0.133-0.118-0.305-0.118-0.516c0-0.177,0.044-0.388,0.133-0.633s0.184-0.412,0.286-0.5
		c0.177-0.137,0.953-0.524,2.328-1.164l0.306-0.133c0.061-0.041,0.16-0.088,0.296-0.143c0.905-0.442,1.484-0.664,1.736-0.664
		c0.225,0,0.399,0.064,0.526,0.194c0.125,0.129,0.188,0.313,0.186,0.551c0,0.51-0.238,1.412-0.714,2.705
		c-0.109,0.313-0.196,0.561-0.26,0.741c-0.064,0.18-0.158,0.447-0.281,0.801c-0.034,0.13-0.071,0.263-0.112,0.398
		c-0.238,0.797-0.412,1.396-0.521,1.797c-0.014,0.048-0.06,0.209-0.138,0.484c-0.078,0.276-0.134,0.475-0.168,0.598
		c-0.034,0.122-0.072,0.248-0.112,0.378c-0.456,1.742-0.837,2.858-1.143,3.349c-0.102,0.156-0.221,0.296-0.357,0.418
		c-0.292,0.225-0.546,0.398-0.76,0.521c-0.214,0.122-0.418,0.209-0.612,0.26c-0.194,0.052-0.414,0.077-0.658,0.077
		c-0.354,0-0.669-0.104-0.944-0.312s-0.413-0.444-0.413-0.71c0-0.047,0.013-0.125,0.041-0.234C6.9,62.748,7.883,60.066,9.047,57.092
		z"/>
	<path fill="#FFFFFF" d="M18.209,61.421l-0.695,0.04c-1.002,0.068-1.621,0.103-1.859,0.103c-0.416,0-0.741-0.022-0.976-0.066
		s-0.392-0.122-0.47-0.234c-0.078-0.112-0.117-0.277-0.117-0.496c0-0.17,0.049-0.411,0.148-0.725
		c0.099-0.313,0.291-0.83,0.577-1.552c0.231-0.564,0.405-1.011,0.521-1.337c0.361-0.939,0.646-1.617,0.859-2.032
		c0.066-0.129,0.127-0.236,0.178-0.321s0.111-0.186,0.178-0.301c0.225-0.354,0.498-0.634,0.818-0.838
		c0.729-0.49,1.418-0.734,2.072-0.734c0.518,0,0.775,0.126,0.775,0.377c0,0.334-0.65,1.423-1.949,3.268
		c-0.633,0.898-1.186,1.732-1.654,2.501l2.389-0.122c0.17-0.565,0.396-1.029,0.68-1.394s0.639-0.635,1.068-0.813
		c0.43-0.177,0.926-0.265,1.492-0.265c0.293,0,0.498,0.032,0.619,0.097c0.119,0.065,0.178,0.173,0.178,0.322
		c0,0.137-0.051,0.372-0.152,0.705s-0.238,0.728-0.408,1.184l-0.082,0.203c0.135-0.013,0.225-0.021,0.27-0.025
		c0.043-0.003,0.1-0.008,0.168-0.015c0.061-0.007,0.113-0.012,0.156-0.016c0.045-0.004,0.094-0.005,0.148-0.005
		c0.154,0,0.232,0.041,0.232,0.122c0,0.027-0.006,0.048-0.02,0.062c-0.123,0.272-0.293,0.566-0.51,0.883s-0.416,0.566-0.6,0.751
		c-0.143,0.17-0.33,0.289-0.561,0.356c-0.148,0.491-0.428,1.431-0.836,2.82c-0.014,0.062-0.029,0.143-0.047,0.245
		c-0.018,0.102-0.029,0.173-0.035,0.214c-0.102,0.564-0.234,0.922-0.398,1.071c-0.539,0.319-1.012,0.556-1.422,0.709
		c-0.408,0.153-0.807,0.229-1.195,0.229c-0.279,0-0.529-0.068-0.746-0.204c-0.219-0.137-0.328-0.296-0.328-0.48
		c0-0.177,0.072-0.498,0.215-0.965c0.143-0.466,0.352-1.037,0.625-1.715C17.785,62.352,18.018,61.815,18.209,61.421z"/>
</g>
</svg>
