<?xml version="1.0" encoding="utf-8"?>
<!-- Generator: Adobe Illustrator 16.0.0, SVG Export Plug-In . SVG Version: 6.00 Build 0)  -->
<!DOCTYPE svg PUBLIC "-//W3C//DTD SVG 1.1//EN" "http://www.w3.org/Graphics/SVG/1.1/DTD/svg11.dtd">
<svg version="1.1" id="Layer_1" xmlns="http://www.w3.org/2000/svg" xmlns:xlink="http://www.w3.org/1999/xlink" x="0px" y="0px"
	 width="29px" height="98px" viewBox="0 0 29 98" enable-background="new 0 0 29 98" xml:space="preserve">
<rect id="backgroundrect" fill="none" width="29" height="98"/>
<title>Layer 1</title>
<path id="svg_1" fill="#0D73BB" d="M25.357,21.672H3.883l7.643-20.605C11.765,0.426,12.376,0,13.06,0h3.12
	c0.686,0,1.297,0.425,1.533,1.066L25.357,21.672z"/>
<path id="svg_3" fill="#0D73BB" d="M26.258,21.672H2.982C1.335,21.672,0,23.008,0,24.654v70.391c0,1.646,1.335,2.98,2.982,2.98
	h23.275c1.646,0,2.982-1.334,2.982-2.98V24.654C29.24,23.007,27.904,21.672,26.258,21.672z"/>
<path id="svg_4" fill="#2085CD" d="M0,93.525h29.24V26.174H0V93.525z"/>
<path id="svg_5" fill="#394049" d="M29.24,93.525v-5.858H0v5.858H29.24z"/>
<path id="svg_6" fill="#0D73BB" d="M14.621,37.927c-6.01,0-10.882,9.814-10.882,21.921c0,12.107,4.872,21.922,10.882,21.922
	c6.01,0,10.883-9.813,10.883-21.922C25.504,47.741,20.631,37.927,14.621,37.927z"/>
<path id="svg_7" fill="#394049" d="M29.24,32.033v-5.859H0v5.859H29.24z"/>
<g>
	<path fill="#FFFFFF" d="M13.502,58.377l2.213-4.585c-0.072-0.016-0.163-0.023-0.273-0.023c-0.43,0-1.251,0.21-2.466,0.631
		c-0.627,0.223-1.113,0.38-1.459,0.471c-0.345,0.091-0.637,0.137-0.875,0.137c-0.445,0-0.667-0.171-0.667-0.512
		c0-0.286,0.115-0.669,0.345-1.149s0.5-0.911,0.809-1.292c0.207-0.262,0.397-0.437,0.571-0.524c0.175-0.087,0.437-0.131,0.786-0.131
		c0.151,0,0.273,0.008,0.369,0.024l2.679,0.047c1.801,0.048,3.046,0.218,3.736,0.512c0.254,0.127,0.381,0.313,0.381,0.559
		c0,0.222-0.147,0.639-0.441,1.25l-2.126,4.563h0.228h0.588h0.372c0.407,0,0.612,0.048,0.612,0.143c0,0.175-0.09,0.422-0.27,0.743
		c-0.179,0.321-0.367,0.577-0.566,0.768c-0.47,0.491-1.21,0.848-2.221,1.07l-1.602,3.932c-0.032,0.096-0.067,0.195-0.107,0.298
		c-0.119,0.318-0.246,0.553-0.38,0.704c-0.357,0.31-0.82,0.562-1.387,0.756c-0.567,0.195-1.129,0.292-1.685,0.292
		c-0.365,0-0.653-0.067-0.863-0.202s-0.315-0.31-0.315-0.524c0-0.246,0.263-0.833,0.789-1.763c0.023-0.039,0.043-0.073,0.06-0.101
		c0.016-0.028,0.036-0.065,0.06-0.113l1.565-2.834h-0.144c-0.096,0.016-0.235,0.023-0.419,0.023c-0.687,0-1.03-0.258-1.03-0.774
		c0-0.166,0.063-0.421,0.19-0.762c0.325-0.73,0.594-1.195,0.808-1.394c0.11-0.111,0.435-0.167,0.973-0.167
		C12.679,58.448,13.066,58.425,13.502,58.377z"/>
</g>
</svg>
