<?xml version="1.0" encoding="utf-8"?>
<!-- Generator: Adobe Illustrator 16.0.0, SVG Export Plug-In . SVG Version: 6.00 Build 0)  -->
<!DOCTYPE svg PUBLIC "-//W3C//DTD SVG 1.1//EN" "http://www.w3.org/Graphics/SVG/1.1/DTD/svg11.dtd">
<svg version="1.1" id="Layer_1" xmlns="http://www.w3.org/2000/svg" xmlns:xlink="http://www.w3.org/1999/xlink" x="0px" y="0px"
	 width="29px" height="98px" viewBox="0 0 29 98" enable-background="new 0 0 29 98" xml:space="preserve">
<rect id="backgroundrect" fill="none" width="29" height="98"/>
<title>Layer 1</title>
<path id="svg_1" fill="#FFC0FF" d="M25.357,21.672H3.883l7.644-20.605C11.765,0.426,12.376,0,13.06,0h3.12
	c0.686,0,1.297,0.425,1.533,1.066L25.357,21.672z"/>
<path id="svg_3" fill="#FFC0FF" d="M26.258,21.672H2.982C1.335,21.672,0,23.008,0,24.654v70.391c0,1.646,1.335,2.98,2.982,2.98
	h23.275c1.646,0,2.982-1.334,2.982-2.98V24.654C29.24,23.007,27.904,21.672,26.258,21.672z"/>
<path id="svg_4" fill="#FFDFFF" d="M0.001,93.523H29.24V26.173H0.001V93.523z"/>
<path id="svg_5" fill="#394049" d="M29.24,93.525v-5.858H0v5.858H29.24z"/>
<path id="svg_6" fill="#FFC0FF" d="M14.621,37.927c-6.01,0-10.882,9.814-10.882,21.921c0,12.107,4.872,21.922,10.882,21.922
	c6.01,0,10.883-9.813,10.883-21.922C25.504,47.741,20.631,37.927,14.621,37.927z"/>
<path id="svg_7" fill="#394049" d="M29.24,32.033v-5.859H0v5.859H29.24z"/>
<g>
	<path fill="#FFFFFF" d="M7.634,60.289l0.163-0.204c0.463-0.701,0.79-1.222,0.98-1.563c0.19-0.34,0.343-0.697,0.459-1.071
		c0.17-0.518,0.255-1.056,0.255-1.613c0-0.572-0.07-1.001-0.209-1.286c-0.14-0.286-0.397-0.521-0.771-0.705
		c-0.477,0.688-0.715,1.559-0.715,2.614c0,0.408,0.065,0.826,0.194,1.256c0.054,0.156,0.082,0.262,0.082,0.316
		c0,0.197-0.105,0.296-0.316,0.296c-0.191,0-0.449-0.08-0.776-0.24s-0.575-0.325-0.746-0.495c-0.19-0.204-0.347-0.47-0.469-0.796
		c-0.123-0.327-0.184-0.674-0.184-1.042c0-0.517,0.107-1.011,0.322-1.48c0.214-0.469,0.516-0.878,0.903-1.225
		c0.388-0.348,0.849-0.618,1.383-0.812c0.534-0.194,1.101-0.291,1.7-0.291c0.599,0,1.145,0.131,1.639,0.393
		c0.493,0.262,0.886,0.622,1.179,1.082c0.293,0.459,0.439,0.957,0.439,1.494c0,0.401-0.077,0.83-0.231,1.286
		c-0.154,0.455-0.396,0.964-0.728,1.524c-0.332,0.562-0.756,1.179-1.273,1.853c-0.518,0.674-1.12,1.398-1.808,2.175l-0.204,0.244
		L8.73,62.193c0.286,0.085,0.678,0.127,1.176,0.127s0.997-0.026,1.498-0.081s0.895-0.126,1.181-0.215
		c0.191-0.054,0.317-0.081,0.378-0.081c0.068,0,0.102,0.021,0.102,0.061c0,0.252-0.162,0.644-0.485,1.175
		c-0.323,0.53-0.662,0.97-1.016,1.316c-0.368,0.348-0.809,0.601-1.322,0.761c-0.514,0.16-1.148,0.24-1.904,0.24
		c-0.967,0-1.797-0.133-2.491-0.398s-1.042-0.585-1.042-0.96c0-0.258,0.351-0.775,1.052-1.552c0.497-0.564,0.949-1.126,1.358-1.685
		c0.027-0.041,0.056-0.081,0.086-0.122c0.031-0.041,0.058-0.08,0.082-0.117c0.023-0.038,0.056-0.091,0.097-0.158L7.634,60.289z"/>
	<path fill="#FFFFFF" d="M22.232,52.306h0.102c0.367,0,0.721,0.167,1.057,0.5c0.338,0.334,0.605,0.779,0.803,1.338
		c0.197,0.558,0.295,1.143,0.295,1.756c0,0.619-0.088,1.309-0.266,2.067c-0.176,0.759-0.412,1.488-0.709,2.189
		s-0.654,1.382-1.072,2.042s-0.852,1.208-1.301,1.644c-1.063,1.075-2.148,1.613-3.258,1.613c-0.742,0-1.395-0.186-1.959-0.557
		c-0.566-0.371-1.001-0.898-1.307-1.582c-0.306-0.685-0.459-1.469-0.459-2.354c0-1.524,0.318-2.986,0.954-4.385
		c0.637-1.398,1.479-2.53,2.527-3.395c1.047-0.864,2.127-1.297,3.236-1.297C21.412,51.887,21.865,52.026,22.232,52.306z
		 M21.314,52.785l0.184-0.102l-0.041-0.041c-0.436,0.007-0.883,0.227-1.344,0.658c-0.459,0.433-0.873,0.988-1.24,1.669
		s-0.666,1.45-0.898,2.308c-0.23,0.857-0.346,1.668-0.346,2.43c0,0.552,0.096,1.118,0.291,1.7c0.193,0.582,0.438,1.066,0.734,1.455
		c0.295,0.388,0.58,0.581,0.852,0.581c0.211,0,0.434-0.141,0.664-0.423c0.232-0.283,0.443-0.683,0.633-1.2
		c0.197-0.497,0.367-1.018,0.512-1.562c0.143-0.545,0.25-1.083,0.326-1.613c0.074-0.531,0.111-1.015,0.111-1.45
		c0-0.688-0.109-1.342-0.332-1.965c-0.221-0.623-0.508-1.084-0.861-1.384c-0.068-0.047-0.104-0.095-0.104-0.143
		C20.455,53.548,20.742,53.241,21.314,52.785z"/>
</g>
</svg>
