<?xml version="1.0" encoding="utf-8"?>
<!-- Generator: Adobe Illustrator 16.0.0, SVG Export Plug-In . SVG Version: 6.00 Build 0)  -->
<!DOCTYPE svg PUBLIC "-//W3C//DTD SVG 1.1//EN" "http://www.w3.org/Graphics/SVG/1.1/DTD/svg11.dtd">
<svg version="1.1" id="Layer_1" xmlns="http://www.w3.org/2000/svg" xmlns:xlink="http://www.w3.org/1999/xlink" x="0px" y="0px"
	 width="29px" height="98px" viewBox="0 0 29 98" enable-background="new 0 0 29 98" xml:space="preserve">
<rect id="backgroundrect" fill="none" width="29" height="98"/>
<title>Layer 1</title>
<path id="svg_1" fill="#F15A22" d="M25.357,21.672H3.883l7.643-20.605C11.765,0.426,12.376,0,13.06,0h3.12
	c0.686,0,1.297,0.425,1.533,1.066L25.357,21.672z"/>
<path id="svg_3" fill="#F15A22" d="M26.258,21.672H2.982C1.335,21.672,0,23.008,0,24.654v70.391c0,1.646,1.335,2.98,2.982,2.98
	h23.275c1.646,0,2.982-1.334,2.982-2.98V24.654C29.24,23.007,27.904,21.672,26.258,21.672z"/>
<path id="svg_4" fill="#FF7643" d="M0.001,93.523H29.24V26.173H0.001V93.523z"/>
<path id="svg_5" fill="#394049" d="M29.24,93.525v-5.858H0v5.858H29.24z"/>
<path id="svg_6" fill="#F15A22" d="M14.621,37.927c-6.01,0-10.882,9.814-10.882,21.921c0,12.107,4.872,21.922,10.882,21.922
	c6.01,0,10.883-9.813,10.883-21.922C25.504,47.741,20.631,37.927,14.621,37.927z"/>
<path id="svg_7" fill="#394049" d="M29.24,32.033v-5.859H0v5.859H29.24z"/>
<g>
	<path fill="#FFFFFF" d="M14.111,61.973L13.3,62.021c-1.168,0.079-1.891,0.119-2.169,0.119c-0.485,0-0.864-0.026-1.138-0.077
		c-0.274-0.052-0.457-0.144-0.548-0.274s-0.137-0.323-0.137-0.577c0-0.199,0.057-0.48,0.172-0.846s0.339-0.969,0.673-1.811
		c0.27-0.658,0.472-1.179,0.607-1.56c0.421-1.096,0.754-1.886,1-2.37c0.079-0.15,0.149-0.275,0.208-0.375s0.129-0.216,0.208-0.352
		c0.262-0.412,0.58-0.738,0.953-0.977c0.849-0.571,1.655-0.857,2.418-0.857c0.603,0,0.904,0.147,0.904,0.44
		c0,0.39-0.758,1.66-2.274,3.812c-0.738,1.048-1.381,2.021-1.929,2.917l2.788-0.143c0.197-0.659,0.461-1.201,0.791-1.626
		c0.33-0.424,0.746-0.74,1.246-0.946c0.501-0.206,1.082-0.31,1.741-0.31c0.342,0,0.582,0.038,0.722,0.113
		c0.139,0.076,0.209,0.201,0.209,0.376c0,0.159-0.061,0.434-0.18,0.822s-0.277,0.849-0.476,1.38l-0.095,0.238
		c0.157-0.016,0.262-0.026,0.313-0.03s0.116-0.01,0.196-0.018c0.07-0.008,0.131-0.014,0.184-0.018
		c0.051-0.004,0.107-0.006,0.172-0.006c0.182,0,0.271,0.047,0.271,0.143c0,0.032-0.008,0.056-0.023,0.071
		c-0.143,0.317-0.34,0.661-0.594,1.03s-0.486,0.661-0.7,0.875c-0.167,0.199-0.384,0.338-0.653,0.417
		c-0.174,0.572-0.5,1.669-0.976,3.289c-0.017,0.071-0.034,0.167-0.054,0.286s-0.034,0.202-0.042,0.25
		c-0.119,0.658-0.274,1.074-0.465,1.249c-0.628,0.373-1.181,0.648-1.658,0.827s-0.942,0.268-1.396,0.268
		c-0.326,0-0.616-0.079-0.87-0.238c-0.255-0.159-0.382-0.346-0.382-0.56c0-0.207,0.083-0.582,0.25-1.126
		c0.167-0.543,0.41-1.21,0.728-2C13.617,63.059,13.888,62.434,14.111,61.973z"/>
</g>
</svg>
