<?xml version="1.0" encoding="utf-8"?>
<!-- Generator: Adobe Illustrator 16.0.0, SVG Export Plug-In . SVG Version: 6.00 Build 0)  -->
<!DOCTYPE svg PUBLIC "-//W3C//DTD SVG 1.1//EN" "http://www.w3.org/Graphics/SVG/1.1/DTD/svg11.dtd">
<svg version="1.1" id="Layer_1" xmlns="http://www.w3.org/2000/svg" xmlns:xlink="http://www.w3.org/1999/xlink" x="0px" y="0px"
	 width="50px" height="86px" viewBox="0 0 50 86" enable-background="new 0 0 50 86" xml:space="preserve">
<rect id="backgroundrect" fill="none" width="50" height="86"/>
<g>
	<title>Layer 1</title>
	<path id="svg_1" fill="#E7896E" d="M22.238,71.172v8.749c0,3.3,2.675,5.974,5.973,5.974c3.299,0,5.973-2.674,5.974-5.974
		l-0.001-8.749c0-7.629,5.529-10.26,9.977-11.143c3.195-0.634,5.498-3.434,5.498-6.691v-8.771H6.765l0,8.771
		c0,3.258,2.302,6.058,5.498,6.691C16.71,60.912,22.238,63.543,22.238,71.172z"/>
	<path id="svg_2" fill="#DD6642" d="M44.16,60.029c3.195-0.633,5.498-3.434,5.498-6.691v-8.771H37.115
		c-0.219,2.605-0.996,5.138-2.287,7.424c-5.381,9.521-0.645,19.182-0.645,19.182C34.184,63.544,39.713,60.912,44.16,60.029z"/>
	<path id="svg_3" fill="#FFEAB7" d="M13.751,7.351h28.918c3.859,0,6.988,3.129,6.988,6.989v27.484H6.762V14.34
		C6.763,10.48,9.892,7.351,13.751,7.351z"/>
	<path id="svg_4" fill="#FAD989" d="M49.657,14.34c0-3.86-3.129-6.988-6.988-6.989l-8.753,0c3.598,4.429,3.279,10.887,3.279,10.887
		s-0.014,14.629-0.014,23.585h12.476V14.34z"/>
	<path id="svg_5" fill="#A7B6C5" d="M49.658,51.174H6.764V35.315h42.895V51.174z"/>
	<path id="svg_6" fill="#889CB0" d="M49.658,51.174V35.315H37.185c-0.001,2.784-0.002,5.483-0.001,7.713
		c0,2.833-0.66,5.62-1.922,8.145H49.658z"/>
	<path id="svg_7" fill="#ED1C24" d="M6.765,19.002c0,2.655,2.152,4.807,4.808,4.807c0,0,4.497-0.25,4.807-4.763v-3.589
		c0-1.969,1.611-3.64,3.58-3.604c1.909,0.035,3.445,1.594,3.445,3.511v9.283c0,2.606,2.027,4.827,4.632,4.919
		c2.735,0.098,4.982-2.091,4.982-4.804v-6.21c0.001-1.968,1.611-3.64,3.58-3.604c1.908,0.036,3.444,1.594,3.444,3.511v3.86
		c0,2.607,2.027,4.827,4.633,4.92c2.734,0.097,4.982-2.091,4.982-4.804V14.34c0-3.86-3.129-6.988-6.988-6.988
		c0,0-20.503,0.004-27.238,0.011c-1.222,0.001-2.339-0.695-2.867-1.797c-0.763-1.593-1.706-3.018-2.531-3.844
		c-2.296-2.296-6.017-2.295-8.313,0s-2.295,6.017,0,8.312c0.721,0.721,1.899,1.531,3.247,2.233c1.137,0.592,1.814,1.9,1.795,3.182
		L6.765,19.002z"/>
	<path id="svg_8" fill="#D60008" d="M40.043,18.46v3.86c0,2.607,2.027,4.827,4.633,4.919c2.734,0.097,4.982-2.091,4.982-4.804V14.34
		c0-3.86-3.129-6.988-6.988-6.989c0,0-3.846,0.001-8.752,0.002c1.945,2.397,2.746,5.384,3.069,7.624
		C38.711,15.202,40.043,16.676,40.043,18.46z"/>
</g>
<g>
	<path fill="#FFFFFF" d="M26.496,52.786l0.891-0.609c-0.82-0.734-1.413-1.415-1.78-2.04s-0.551-1.266-0.551-1.922
		c0-0.547,0.125-1.07,0.375-1.57s0.602-0.943,1.055-1.33s0.979-0.688,1.576-0.902s1.221-0.322,1.869-0.322
		c0.992,0,1.488,0.168,1.488,0.504c0,0.109-0.121,0.176-0.363,0.199c-0.484,0.086-0.875,0.332-1.172,0.738
		c-0.227,0.297-0.424,0.677-0.592,1.138c-0.168,0.462-0.252,0.868-0.252,1.22c-0.002,0.813,0.318,1.453,0.96,1.922
		c0.438-0.462,0.783-0.946,1.038-1.454c0.254-0.508,0.381-0.984,0.381-1.43c0-0.431-0.121-0.782-0.363-1.056
		c-0.063-0.063-0.094-0.113-0.094-0.152c0-0.125,0.137-0.273,0.41-0.445c0.414-0.273,0.84-0.41,1.277-0.41
		c0.289,0,0.559,0.072,0.809,0.217s0.441,0.348,0.574,0.609s0.199,0.561,0.199,0.897c0,0.711-0.215,1.389-0.645,2.033
		c-0.431,0.646-1.177,1.409-2.24,2.292c0.642,0.632,1.111,1.232,1.408,1.803s0.445,1.145,0.445,1.723
		c0,0.641-0.172,1.277-0.516,1.91s-0.807,1.205-1.389,1.717s-1.232,0.918-1.951,1.219s-1.426,0.451-2.121,0.451
		c-1.109,0-2.008-0.277-2.695-0.832s-1.031-1.277-1.031-2.168c0-0.741,0.209-1.386,0.627-1.933S25.333,53.583,26.496,52.786z
		 M28.735,53.207c-0.492,0.43-0.875,0.953-1.148,1.57s-0.41,1.262-0.41,1.934c0,0.516,0.063,0.918,0.188,1.207
		s0.301,0.434,0.527,0.434c0.086,0,0.195-0.033,0.328-0.1s0.23-0.131,0.293-0.193c0.336-0.336,0.633-0.781,0.891-1.336
		s0.387-1.027,0.387-1.418c0-0.492-0.094-0.92-0.281-1.283S29.063,53.387,28.735,53.207z"/>
</g>
</svg>
