<?xml version="1.0" encoding="utf-8"?>
<!-- Generator: Adobe Illustrator 16.0.0, SVG Export Plug-In . SVG Version: 6.00 Build 0)  -->
<!DOCTYPE svg PUBLIC "-//W3C//DTD SVG 1.1//EN" "http://www.w3.org/Graphics/SVG/1.1/DTD/svg11.dtd">
<svg version="1.1" id="Layer_1" xmlns="http://www.w3.org/2000/svg" xmlns:xlink="http://www.w3.org/1999/xlink" x="0px" y="0px"
	 width="50px" height="86px" viewBox="0 0 50 86" enable-background="new 0 0 50 86" xml:space="preserve">
<rect id="backgroundrect" fill="none" width="50" height="86"/>
<g>
	<title>Layer 1</title>
	<path id="svg_1" fill="#E7896E" d="M22.238,71.172v8.749c0,3.3,2.675,5.974,5.973,5.974c3.299,0,5.973-2.674,5.974-5.974
		l-0.001-8.749c0-7.629,5.529-10.26,9.977-11.143c3.195-0.634,5.498-3.434,5.498-6.691v-8.771H6.765l0,8.771
		c0,3.258,2.302,6.058,5.498,6.691C16.71,60.912,22.238,63.543,22.238,71.172z"/>
	<path id="svg_2" fill="#DD6642" d="M44.16,60.029c3.195-0.633,5.498-3.434,5.498-6.691v-8.771H37.115
		c-0.219,2.605-0.996,5.138-2.287,7.424c-5.381,9.521-0.645,19.182-0.645,19.182C34.184,63.544,39.713,60.912,44.16,60.029z"/>
	<path id="svg_3" fill="#FFEAB7" d="M13.751,7.351h28.918c3.859,0,6.988,3.129,6.988,6.989v27.484H6.762V14.34
		C6.763,10.48,9.892,7.351,13.751,7.351z"/>
	<path id="svg_4" fill="#FAD989" d="M49.657,14.34c0-3.86-3.129-6.988-6.988-6.989l-8.753,0c3.598,4.429,3.279,10.887,3.279,10.887
		s-0.014,14.629-0.014,23.585h12.476V14.34z"/>
	<path id="svg_5" fill="#A7B6C5" d="M49.658,51.174H6.764V35.315h42.895V51.174z"/>
	<path id="svg_6" fill="#889CB0" d="M49.658,51.174V35.315H37.185c-0.001,2.784-0.002,5.483-0.001,7.713
		c0,2.833-0.66,5.62-1.922,8.145H49.658z"/>
	<path id="svg_7" fill="#00C8BA" d="M6.765,19.002c0,2.655,2.152,4.807,4.808,4.807c0,0,4.497-0.25,4.807-4.763v-3.589
		c0-1.969,1.611-3.64,3.58-3.604c1.909,0.035,3.445,1.594,3.445,3.511l0,9.283c0,2.606,2.027,4.827,4.632,4.919
		c2.735,0.098,4.983-2.091,4.983-4.804v-6.21c0-1.968,1.61-3.64,3.579-3.604c1.908,0.036,3.444,1.594,3.444,3.511v3.86
		c0,2.607,2.027,4.827,4.633,4.92c2.734,0.097,4.982-2.091,4.982-4.804V14.34c0-3.86-3.129-6.988-6.988-6.988
		c0,0-20.503,0.004-27.238,0.011c-1.222,0.001-2.339-0.695-2.867-1.797c-0.763-1.593-1.706-3.018-2.531-3.844
		c-2.296-2.296-6.017-2.295-8.313,0s-2.295,6.017,0,8.312c0.721,0.721,1.899,1.531,3.247,2.233c1.137,0.592,1.814,1.9,1.795,3.182
		L6.765,19.002z"/>
	<path id="svg_8" fill="#00A69B" d="M40.043,18.46v3.86c0,2.607,2.027,4.827,4.633,4.919c2.734,0.097,4.982-2.091,4.982-4.804V14.34
		c0-3.86-3.129-6.988-6.988-6.989c0,0-3.846,0.001-8.752,0.002c1.945,2.397,2.746,5.384,3.069,7.624
		C38.711,15.202,40.043,16.676,40.043,18.46z"/>
</g>
<g>
	<path fill="#FFFFFF" d="M26.939,57.238h0.07c0.258,0,0.58-0.119,0.967-0.357s0.768-0.553,1.143-0.943
		c0.484-0.5,0.869-1.033,1.154-1.6s0.428-1.096,0.428-1.588c0-1.07-0.566-1.719-1.699-1.945c-0.219-0.031-0.375-0.08-0.469-0.146
		s-0.141-0.17-0.141-0.311c0-0.156,0.188-0.395,0.563-0.715c0.563-0.492,1.002-1.029,1.318-1.611s0.475-1.166,0.475-1.752
		c0-0.625-0.129-0.938-0.387-0.938c-0.211,0-0.473,0.166-0.785,0.498s-0.611,0.756-0.896,1.271s-0.498,1.023-0.639,1.523
		c-0.047,0.172-0.094,0.283-0.141,0.334s-0.113,0.076-0.199,0.076c-0.227,0-0.508-0.176-0.844-0.527
		c-0.477-0.508-0.715-1.023-0.715-1.547c0-0.602,0.244-1.199,0.732-1.793s1.123-1.074,1.904-1.441s1.582-0.551,2.402-0.551
		c0.664,0,1.27,0.129,1.816,0.387s0.973,0.615,1.277,1.072s0.457,0.971,0.457,1.541c0,1.039-0.449,1.871-1.348,2.496
		c-0.469,0.32-1.051,0.625-1.746,0.914v0.047c1.102,0.063,1.93,0.309,2.484,0.738s0.832,1.031,0.832,1.805
		c0,0.359-0.084,0.756-0.252,1.189s-0.406,0.879-0.715,1.336s-0.678,0.912-1.107,1.365c-0.938,0.992-1.957,1.768-3.059,2.326
		s-2.16,0.838-3.176,0.838c-0.969,0-1.775-0.309-2.42-0.926s-0.967-1.391-0.967-2.32c0-0.633,0.217-1.266,0.65-1.898
		s0.994-1.15,1.682-1.553s1.375-0.604,2.063-0.604c0.289,0,0.434,0.105,0.434,0.316c0,0.086-0.121,0.23-0.363,0.434
		c-0.023,0.023-0.049,0.049-0.076,0.076s-0.057,0.057-0.088,0.088c-0.305,0.352-0.541,0.789-0.709,1.313s-0.252,1.07-0.252,1.641
		C26.6,56.359,26.713,56.84,26.939,57.238z"/>
</g>
</svg>
