<?xml version="1.0" encoding="utf-8"?>
<!-- Generator: Adobe Illustrator 16.0.0, SVG Export Plug-In . SVG Version: 6.00 Build 0)  -->
<!DOCTYPE svg PUBLIC "-//W3C//DTD SVG 1.1//EN" "http://www.w3.org/Graphics/SVG/1.1/DTD/svg11.dtd">
<svg version="1.1" id="Layer_1" xmlns="http://www.w3.org/2000/svg" xmlns:xlink="http://www.w3.org/1999/xlink" x="0px" y="0px"
	 width="50px" height="86px" viewBox="0 0 50 86" enable-background="new 0 0 50 86" xml:space="preserve">
<rect id="backgroundrect" fill="none" width="50" height="86"/>
<g>
	<title>Layer 1</title>
	<path id="svg_1" fill="#E7896E" d="M22.238,71.172v8.749c0,3.3,2.675,5.974,5.973,5.974c3.299,0,5.973-2.674,5.974-5.974
		l-0.001-8.749c0-7.629,5.529-10.26,9.977-11.143c3.195-0.634,5.498-3.434,5.498-6.691v-8.771H6.765l0,8.771
		c0,3.258,2.302,6.058,5.498,6.691C16.71,60.912,22.238,63.543,22.238,71.172z"/>
	<path id="svg_2" fill="#DD6642" d="M44.16,60.029c3.195-0.633,5.498-3.434,5.498-6.691v-8.771H37.115
		c-0.219,2.605-0.996,5.138-2.287,7.424c-5.381,9.521-0.645,19.182-0.645,19.182C34.184,63.544,39.713,60.912,44.16,60.029z"/>
	<path id="svg_3" fill="#FFEAB7" d="M13.751,7.351h28.918c3.859,0,6.988,3.129,6.988,6.989v27.484H6.762V14.34
		C6.763,10.48,9.892,7.351,13.751,7.351z"/>
	<path id="svg_4" fill="#FAD989" d="M49.657,14.34c0-3.86-3.129-6.988-6.988-6.989l-8.753,0c3.598,4.429,3.279,10.887,3.279,10.887
		s-0.014,14.629-0.014,23.585h12.476V14.34z"/>
	<path id="svg_5" fill="#A7B6C5" d="M49.658,51.174H6.764V35.315h42.895V51.174z"/>
	<path id="svg_6" fill="#889CB0" d="M49.658,51.174V35.315H37.185c-0.001,2.784-0.002,5.483-0.001,7.713
		c0,2.833-0.66,5.62-1.922,8.145H49.658z"/>
	<path id="svg_7" fill="#FCB040" d="M6.765,19.002c0,2.655,2.152,4.807,4.808,4.807c0,0,4.497-0.25,4.807-4.763v-3.589
		c0-1.969,1.611-3.64,3.58-3.604c1.909,0.035,3.445,1.594,3.445,3.511l0,9.283c0,2.606,2.027,4.827,4.632,4.919
		c2.735,0.098,4.983-2.091,4.983-4.804v-6.21c0-1.968,1.61-3.64,3.579-3.604c1.908,0.036,3.444,1.594,3.444,3.511v3.86
		c0,2.607,2.027,4.827,4.633,4.92c2.734,0.097,4.982-2.091,4.982-4.804V14.34c0-3.86-3.129-6.988-6.988-6.988
		c0,0-20.503,0.004-27.238,0.011c-1.222,0.001-2.339-0.695-2.867-1.797c-0.763-1.593-1.706-3.018-2.531-3.844
		c-2.296-2.296-6.017-2.295-8.313,0s-2.295,6.017,0,8.312c0.721,0.721,1.899,1.531,3.247,2.233c1.137,0.592,1.814,1.9,1.795,3.182
		L6.765,19.002z"/>
	<path id="svg_8" fill="#E48800" d="M40.043,18.46v3.86c0,2.607,2.027,4.827,4.633,4.919c2.734,0.097,4.982-2.091,4.982-4.804V14.34
		c0-3.86-3.129-6.988-6.988-6.989c0,0-3.846,0.001-8.752,0.002c1.945,2.397,2.746,5.384,3.069,7.624
		C38.711,15.202,40.043,16.676,40.043,18.46z"/>
</g>
<g>
	<path fill="#FFFFFF" d="M25.9,50.522l0.176-0.431c-0.088,0.023-0.226,0.076-0.413,0.158c-0.404,0.17-0.662,0.255-0.773,0.255
		c-0.105,0-0.192-0.058-0.259-0.171c-0.068-0.115-0.102-0.263-0.102-0.444c0-0.152,0.038-0.334,0.114-0.545s0.158-0.354,0.246-0.431
		c0.152-0.117,0.82-0.451,2.004-1.002l0.264-0.114c0.053-0.035,0.138-0.076,0.255-0.123c0.779-0.381,1.277-0.571,1.494-0.571
		c0.193,0,0.344,0.056,0.453,0.167c0.107,0.111,0.161,0.27,0.16,0.475c0,0.438-0.205,1.215-0.615,2.329
		c-0.094,0.27-0.169,0.481-0.224,0.637c-0.056,0.156-0.137,0.386-0.242,0.69c-0.029,0.111-0.062,0.226-0.097,0.343
		c-0.205,0.686-0.354,1.201-0.448,1.547c-0.012,0.041-0.051,0.18-0.118,0.417s-0.115,0.409-0.145,0.515s-0.062,0.214-0.097,0.325
		c-0.393,1.5-0.721,2.461-0.984,2.883c-0.088,0.135-0.19,0.255-0.308,0.36c-0.252,0.193-0.47,0.343-0.654,0.448
		s-0.36,0.181-0.527,0.224c-0.167,0.045-0.355,0.066-0.566,0.066c-0.305,0-0.576-0.089-0.813-0.268s-0.355-0.383-0.355-0.611
		c0-0.041,0.012-0.108,0.035-0.202C24.052,55.392,24.898,53.083,25.9,50.522z"/>
	<path fill="#FFFFFF" d="M32.65,50.522l0.176-0.431c-0.088,0.023-0.226,0.076-0.413,0.158c-0.404,0.17-0.662,0.255-0.773,0.255
		c-0.105,0-0.192-0.058-0.259-0.171c-0.068-0.115-0.102-0.263-0.102-0.444c0-0.152,0.038-0.334,0.114-0.545s0.158-0.354,0.246-0.431
		c0.152-0.117,0.82-0.451,2.004-1.002l0.264-0.114c0.053-0.035,0.138-0.076,0.255-0.123c0.779-0.381,1.277-0.571,1.494-0.571
		c0.193,0,0.344,0.056,0.453,0.167c0.107,0.111,0.161,0.27,0.16,0.475c0,0.438-0.205,1.215-0.615,2.329
		c-0.094,0.27-0.169,0.481-0.224,0.637c-0.056,0.156-0.137,0.386-0.242,0.69c-0.029,0.111-0.062,0.226-0.097,0.343
		c-0.205,0.686-0.354,1.201-0.448,1.547c-0.012,0.041-0.051,0.18-0.118,0.417s-0.115,0.409-0.145,0.515s-0.062,0.214-0.097,0.325
		c-0.393,1.5-0.721,2.461-0.984,2.883c-0.088,0.135-0.19,0.255-0.308,0.36c-0.252,0.193-0.47,0.343-0.654,0.448
		s-0.36,0.181-0.527,0.224c-0.167,0.045-0.355,0.066-0.566,0.066c-0.305,0-0.576-0.089-0.813-0.268s-0.355-0.383-0.355-0.611
		c0-0.041,0.012-0.108,0.035-0.202C30.802,55.392,31.648,53.083,32.65,50.522z"/>
</g>
</svg>
