<?xml version="1.0" encoding="utf-8"?>
<!-- Generator: Adobe Illustrator 16.0.0, SVG Export Plug-In . SVG Version: 6.00 Build 0)  -->
<!DOCTYPE svg PUBLIC "-//W3C//DTD SVG 1.1//EN" "http://www.w3.org/Graphics/SVG/1.1/DTD/svg11.dtd">
<svg version="1.1" id="Layer_1" xmlns="http://www.w3.org/2000/svg" xmlns:xlink="http://www.w3.org/1999/xlink" x="0px" y="0px"
	 width="50px" height="86px" viewBox="0 0 50 86" enable-background="new 0 0 50 86" xml:space="preserve">
<rect id="backgroundrect" fill="none" width="50" height="86"/>
<g>
	<title>Layer 1</title>
	<path id="svg_1" fill="#E7896E" d="M22.238,71.172l0,8.749c0,3.3,2.675,5.974,5.973,5.974c3.299,0,5.973-2.674,5.974-5.974
		l-0.001-8.749c0-7.629,5.529-10.26,9.977-11.143c3.195-0.634,5.498-3.434,5.498-6.691v-8.771H6.765l0,8.771
		c0,3.258,2.302,6.058,5.498,6.691C16.71,60.912,22.238,63.543,22.238,71.172z"/>
	<path id="svg_2" fill="#DD6642" d="M44.16,60.029c3.195-0.633,5.498-3.434,5.498-6.691v-8.771H37.115
		c-0.219,2.605-0.996,5.138-2.287,7.424c-5.38,9.521-0.645,19.182-0.645,19.182C34.184,63.544,39.713,60.912,44.16,60.029z"/>
	<path id="svg_3" fill="#FFEAB7" d="M13.751,7.351h28.918c3.859,0,6.988,3.129,6.989,6.989v27.484H6.762V14.34
		C6.763,10.48,9.892,7.351,13.751,7.351z"/>
	<path id="svg_4" fill="#FAD989" d="M49.658,14.34c-0.001-3.86-3.13-6.988-6.989-6.989l-8.753,0
		c3.598,4.429,3.279,10.887,3.279,10.887s-0.014,14.629-0.014,23.585h12.477V14.34z"/>
	<path id="svg_5" fill="#A7B6C5" d="M49.658,51.174H6.764V35.315h42.895V51.174z"/>
	<path id="svg_6" fill="#889CB0" d="M49.658,51.174V35.315H37.185c-0.001,2.784-0.002,5.483-0.001,7.713
		c0,2.833-0.66,5.62-1.922,8.145H49.658z"/>
	<path id="svg_7" fill="#C3184E" d="M6.765,19.002c0,2.655,2.152,4.807,4.808,4.807c0,0,4.497-0.25,4.807-4.763v-3.589
		c0-1.969,1.611-3.64,3.58-3.604c1.909,0.035,3.445,1.594,3.445,3.511l0,9.283c0,2.606,2.027,4.827,4.632,4.919
		c2.735,0.098,4.983-2.091,4.983-4.804v-6.21c0-1.968,1.61-3.64,3.579-3.604c1.908,0.036,3.444,1.594,3.444,3.511v3.86
		c0,2.607,2.027,4.827,4.633,4.92c2.734,0.097,4.982-2.091,4.982-4.804V14.34c0-3.86-3.129-6.988-6.988-6.988
		c0,0-20.503,0.004-27.238,0.011c-1.222,0.001-2.34-0.695-2.867-1.797c-0.763-1.593-1.705-3.018-2.531-3.844
		c-2.296-2.296-6.017-2.295-8.313,0s-2.295,6.017,0,8.312c0.721,0.721,1.899,1.531,3.247,2.233c1.137,0.592,1.814,1.9,1.795,3.182
		L6.765,19.002z"/>
	<path id="svg_8" fill="#F6375D" d="M40.043,18.46v3.86c0,2.607,2.027,4.827,4.633,4.919c2.734,0.097,4.982-2.091,4.982-4.804V14.34
		c0-3.86-3.129-6.988-6.988-6.989c0,0-3.846,0.001-8.752,0.002c1.945,2.397,2.746,5.384,3.069,7.624
		C38.711,15.202,40.043,16.676,40.043,18.46z"/>
</g>
<g>
	<path fill="#FFFFFF" d="M28.823,53.207l2.178-4.512c-0.07-0.016-0.16-0.023-0.27-0.023c-0.422,0-1.23,0.207-2.426,0.621
		c-0.617,0.219-1.096,0.373-1.436,0.463s-0.627,0.135-0.861,0.135c-0.438,0-0.656-0.168-0.656-0.504c0-0.281,0.113-0.658,0.34-1.131
		s0.491-0.896,0.796-1.271c0.203-0.258,0.391-0.43,0.563-0.516s0.43-0.129,0.772-0.129c0.148,0,0.27,0.008,0.363,0.023l2.636,0.047
		c1.771,0.047,2.998,0.215,3.677,0.503c0.25,0.125,0.375,0.308,0.375,0.55c0,0.218-0.145,0.628-0.435,1.23l-2.092,4.49h0.224h0.579
		h0.366c0.4,0,0.602,0.047,0.602,0.141c0,0.172-0.088,0.415-0.265,0.731c-0.176,0.315-0.362,0.567-0.558,0.755
		c-0.462,0.483-1.19,0.835-2.186,1.053l-1.576,3.87c-0.031,0.094-0.066,0.191-0.105,0.293c-0.116,0.313-0.241,0.544-0.374,0.692
		c-0.352,0.305-0.807,0.553-1.365,0.744s-1.11,0.287-1.657,0.287c-0.359,0-0.643-0.066-0.85-0.199s-0.311-0.305-0.311-0.516
		c0-0.242,0.259-0.82,0.776-1.734c0.023-0.039,0.043-0.072,0.059-0.1s0.035-0.064,0.059-0.111l1.541-2.789h-0.142
		c-0.095,0.016-0.232,0.023-0.412,0.023c-0.676,0-1.014-0.254-1.014-0.762c0-0.164,0.063-0.414,0.187-0.75
		c0.319-0.719,0.585-1.176,0.795-1.371c0.109-0.109,0.429-0.164,0.958-0.164C28.014,53.277,28.396,53.254,28.823,53.207z"/>
</g>
</svg>
