<?xml version="1.0" encoding="utf-8"?>
<!-- Generator: Adobe Illustrator 16.0.0, SVG Export Plug-In . SVG Version: 6.00 Build 0)  -->
<!DOCTYPE svg PUBLIC "-//W3C//DTD SVG 1.1//EN" "http://www.w3.org/Graphics/SVG/1.1/DTD/svg11.dtd">
<svg version="1.1" id="Layer_1" xmlns="http://www.w3.org/2000/svg" xmlns:xlink="http://www.w3.org/1999/xlink" x="0px" y="0px"
	 width="50px" height="86px" viewBox="0 0 50 86" enable-background="new 0 0 50 86" xml:space="preserve">
<rect id="backgroundrect" fill="none" width="50" height="86"/>
<g>
	<title>Layer 1</title>
	<path id="svg_1" fill="#E7896E" d="M22.238,71.172v8.749c0,3.3,2.675,5.974,5.973,5.974c3.299,0,5.973-2.674,5.974-5.974
		l-0.001-8.749c0-7.629,5.529-10.26,9.977-11.143c3.195-0.634,5.498-3.434,5.498-6.691v-8.771H6.765l0,8.771
		c0,3.258,2.302,6.058,5.498,6.691C16.71,60.912,22.238,63.543,22.238,71.172z"/>
	<path id="svg_2" fill="#DD6642" d="M44.16,60.029c3.195-0.633,5.498-3.434,5.498-6.691v-8.771H37.115
		c-0.219,2.605-0.996,5.138-2.287,7.424c-5.381,9.521-0.645,19.182-0.645,19.182C34.184,63.544,39.713,60.912,44.16,60.029z"/>
	<path id="svg_3" fill="#FFEAB7" d="M13.751,7.351h28.918c3.859,0,6.988,3.129,6.988,6.989v27.484H6.762V14.34
		C6.763,10.48,9.892,7.351,13.751,7.351z"/>
	<path id="svg_4" fill="#FAD989" d="M49.657,14.34c0-3.86-3.129-6.988-6.988-6.989l-8.753,0c3.598,4.429,3.279,10.887,3.279,10.887
		s-0.014,14.629-0.014,23.585h12.476V14.34z"/>
	<path id="svg_5" fill="#A7B6C5" d="M49.658,51.174H6.764V35.315h42.895V51.174z"/>
	<path id="svg_6" fill="#889CB0" d="M49.658,51.174V35.315H37.185c-0.001,2.784-0.002,5.483-0.001,7.713
		c0,2.833-0.66,5.62-1.922,8.145H49.658z"/>
	<path id="svg_7" fill="#51008E" d="M6.765,19.002c0,2.655,2.152,4.807,4.808,4.807c0,0,4.497-0.25,4.807-4.763v-3.589
		c0-1.969,1.611-3.64,3.58-3.604c1.909,0.035,3.445,1.594,3.445,3.511l0,9.283c0,2.606,2.027,4.827,4.632,4.919
		c2.735,0.098,4.983-2.091,4.983-4.804v-6.21c0-1.968,1.61-3.64,3.579-3.604c1.908,0.036,3.444,1.594,3.444,3.511v3.86
		c0,2.607,2.027,4.827,4.633,4.92c2.734,0.097,4.982-2.091,4.982-4.804V14.34c0-3.86-3.129-6.988-6.988-6.988
		c0,0-20.503,0.004-27.238,0.011c-1.222,0.001-2.339-0.695-2.867-1.797c-0.763-1.593-1.706-3.018-2.531-3.844
		c-2.296-2.296-6.017-2.295-8.313,0s-2.295,6.017,0,8.312c0.721,0.721,1.899,1.531,3.247,2.233c1.137,0.592,1.814,1.9,1.795,3.182
		L6.765,19.002z"/>
	<path id="svg_8" fill="#34005B" d="M40.043,18.46v3.86c0,2.607,2.027,4.827,4.633,4.919c2.734,0.097,4.982-2.091,4.982-4.804V14.34
		c0-3.86-3.129-6.988-6.988-6.989c0,0-3.846,0.001-8.752,0.002c1.945,2.397,2.746,5.384,3.069,7.624
		C38.711,15.202,40.043,16.676,40.043,18.46z"/>
</g>
<g>
	<path fill="#FFFFFF" d="M29.688,47.849l-0.867,1.535l0.047,0.047c0.555-0.234,1.047-0.402,1.477-0.504s0.852-0.152,1.266-0.152
		c1.07,0,1.902,0.252,2.496,0.756s0.891,1.213,0.891,2.127c0,0.453-0.064,0.932-0.193,1.436s-0.32,1.012-0.574,1.523
		s-0.559,1.014-0.914,1.506s-0.795,1.004-1.318,1.535c-0.766,0.773-1.533,1.379-2.303,1.816s-1.459,0.656-2.068,0.656
		c-0.445,0-0.883-0.088-1.313-0.264s-0.809-0.424-1.137-0.744c-0.578-0.578-0.867-1.395-0.867-2.449
		c0-1.406,0.402-2.508,1.208-3.305c0.398-0.406,0.865-0.74,1.4-1.002s1.002-0.393,1.4-0.393c0.422,0,0.633,0.117,0.633,0.352v0.035
		c-0.336,0.398-0.588,0.736-0.756,1.014s-0.342,0.65-0.521,1.119c-0.305,0.781-0.457,1.691-0.457,2.73
		c0,0.805,0.16,1.207,0.48,1.207c0.414,0,0.863-0.242,1.348-0.727c0.531-0.555,0.992-1.242,1.383-2.063s0.586-1.516,0.586-2.086
		c0-0.797-0.166-1.385-0.498-1.764s-0.861-0.568-1.588-0.568c-0.406,0-0.953,0.074-1.641,0.223
		c-0.375,0.063-0.574,0.094-0.598,0.094c-0.227,0-0.416-0.076-0.568-0.229s-0.229-0.35-0.229-0.592c0-0.203,0.105-0.625,0.316-1.266
		c0.336-1.078,0.688-2.055,1.055-2.93l0.07-0.164c0.039-0.078,0.105-0.223,0.199-0.434c0.227-0.555,0.428-0.902,0.604-1.043
		s0.494-0.211,0.955-0.211c1.477,0,2.59,0.016,3.34,0.047c0.172,0,0.32,0.008,0.445,0.023h0.152
		c0.586,0.031,0.984,0.082,1.195,0.152s0.316,0.18,0.316,0.328c0,0.133-0.088,0.334-0.264,0.604s-0.393,0.525-0.65,0.768
		c-0.438,0.438-0.891,0.775-1.359,1.014s-0.93,0.357-1.383,0.357c-0.195,0-0.504-0.023-0.926-0.07
		c-0.125-0.031-0.191-0.047-0.199-0.047H29.688z"/>
</g>
</svg>
