<?xml version="1.0" encoding="utf-8"?>
<!-- Generator: Adobe Illustrator 16.0.0, SVG Export Plug-In . SVG Version: 6.00 Build 0)  -->
<!DOCTYPE svg PUBLIC "-//W3C//DTD SVG 1.1//EN" "http://www.w3.org/Graphics/SVG/1.1/DTD/svg11.dtd">
<svg version="1.1" id="Layer_1" xmlns="http://www.w3.org/2000/svg" xmlns:xlink="http://www.w3.org/1999/xlink" x="0px" y="0px"
	 width="50px" height="86px" viewBox="0 0 50 86" enable-background="new 0 0 50 86" xml:space="preserve">
<rect id="backgroundrect" fill="none" width="50" height="86"/>
<g>
	<title>Layer 1</title>
	<path id="svg_1" fill="#E7896E" d="M22.238,71.172v8.749c0,3.3,2.675,5.974,5.973,5.974c3.299,0,5.973-2.674,5.974-5.974
		l-0.001-8.749c0-7.629,5.529-10.26,9.977-11.143c3.195-0.634,5.498-3.434,5.498-6.691v-8.771H6.765l0,8.771
		c0,3.258,2.302,6.058,5.498,6.691C16.71,60.912,22.238,63.543,22.238,71.172z"/>
	<path id="svg_2" fill="#DD6642" d="M44.16,60.029c3.195-0.633,5.498-3.434,5.498-6.691v-8.771H37.115
		c-0.219,2.605-0.996,5.138-2.287,7.424c-5.381,9.521-0.645,19.182-0.645,19.182C34.184,63.544,39.713,60.912,44.16,60.029z"/>
	<path id="svg_3" fill="#FFEAB7" d="M13.751,7.351h28.918c3.859,0,6.988,3.129,6.988,6.989v27.484H6.762V14.34
		C6.763,10.48,9.892,7.351,13.751,7.351z"/>
	<path id="svg_4" fill="#FAD989" d="M49.657,14.34c0-3.86-3.129-6.988-6.988-6.989l-8.753,0c3.598,4.429,3.279,10.887,3.279,10.887
		s-0.014,14.629-0.014,23.585h12.476V14.34z"/>
	<path id="svg_5" fill="#A7B6C5" d="M49.658,51.174H6.764V35.315h42.895V51.174z"/>
	<path id="svg_6" fill="#889CB0" d="M49.658,51.174V35.315H37.185c-0.001,2.784-0.002,5.483-0.001,7.713
		c0,2.833-0.66,5.62-1.922,8.145H49.658z"/>
	<path id="svg_7" fill="#006C39" d="M6.765,19.002c0,2.655,2.152,4.807,4.808,4.807c0,0,4.497-0.25,4.807-4.763v-3.589
		c0-1.969,1.611-3.64,3.58-3.604c1.909,0.035,3.445,1.594,3.445,3.511v9.283c0,2.606,2.027,4.827,4.632,4.919
		c2.735,0.098,4.982-2.091,4.982-4.804v-6.21c0.001-1.968,1.611-3.64,3.58-3.604c1.908,0.036,3.444,1.594,3.444,3.511v3.86
		c0,2.607,2.027,4.827,4.633,4.92c2.734,0.097,4.982-2.091,4.982-4.804V14.34c0-3.86-3.129-6.988-6.988-6.988
		c0,0-20.503,0.004-27.238,0.011c-1.222,0.001-2.339-0.695-2.867-1.797c-0.763-1.593-1.706-3.018-2.531-3.844
		c-2.296-2.296-6.017-2.295-8.313,0s-2.295,6.017,0,8.312c0.721,0.721,1.899,1.531,3.247,2.233c1.137,0.592,1.814,1.9,1.795,3.182
		L6.765,19.002z"/>
	<path id="svg_8" fill="#00562D" d="M40.043,18.46v3.86c0,2.607,2.027,4.827,4.633,4.919c2.734,0.097,4.982-2.091,4.982-4.804V14.34
		c0-3.86-3.129-6.988-6.988-6.989c0,0-3.846,0.001-8.752,0.002c1.945,2.397,2.746,5.384,3.069,7.624
		C38.711,15.202,40.043,16.676,40.043,18.46z"/>
</g>
<g>
	<path fill="#FFFFFF" d="M27.617,52.844l0.188-0.234c0.531-0.805,0.906-1.402,1.125-1.793s0.395-0.801,0.527-1.23
		c0.195-0.594,0.293-1.211,0.293-1.852c0-0.656-0.08-1.148-0.24-1.477s-0.455-0.598-0.885-0.809c-0.547,0.789-0.82,1.789-0.82,3
		c0,0.469,0.074,0.949,0.223,1.441c0.063,0.18,0.094,0.301,0.094,0.363c0,0.227-0.121,0.34-0.363,0.34
		c-0.219,0-0.516-0.092-0.891-0.275s-0.66-0.373-0.855-0.568c-0.219-0.234-0.398-0.539-0.539-0.914s-0.211-0.773-0.211-1.195
		c0-0.594,0.123-1.16,0.369-1.699s0.592-1.008,1.037-1.406s0.975-0.709,1.588-0.932s1.264-0.334,1.951-0.334s1.314,0.15,1.881,0.451
		s1.018,0.714,1.354,1.241c0.336,0.526,0.504,1.099,0.504,1.716c0,0.461-0.088,0.952-0.265,1.476
		c-0.177,0.522-0.455,1.106-0.835,1.751c-0.381,0.644-0.868,1.353-1.462,2.126s-1.285,1.605-2.074,2.495l-0.234,0.281l-0.199,0.223
		c0.328,0.098,0.778,0.146,1.35,0.146c0.57,0,1.144-0.031,1.719-0.094s1.027-0.145,1.355-0.246c0.22-0.063,0.364-0.094,0.435-0.094
		c0.078,0,0.117,0.023,0.117,0.07c0,0.289-0.186,0.738-0.557,1.348s-0.76,1.113-1.166,1.512c-0.422,0.398-0.928,0.689-1.518,0.873
		s-1.318,0.275-2.186,0.275c-1.109,0-2.063-0.152-2.859-0.457s-1.195-0.672-1.195-1.102c0-0.297,0.402-0.891,1.207-1.781
		c0.57-0.648,1.09-1.293,1.559-1.934c0.031-0.047,0.064-0.094,0.1-0.141s0.066-0.092,0.094-0.135s0.064-0.104,0.111-0.182
		L27.617,52.844z"/>
</g>
</svg>
