<?xml version="1.0" encoding="utf-8"?>
<!-- Generator: Adobe Illustrator 16.0.0, SVG Export Plug-In . SVG Version: 6.00 Build 0)  -->
<!DOCTYPE svg PUBLIC "-//W3C//DTD SVG 1.1//EN" "http://www.w3.org/Graphics/SVG/1.1/DTD/svg11.dtd">
<svg version="1.1" id="Layer_1" xmlns="http://www.w3.org/2000/svg" xmlns:xlink="http://www.w3.org/1999/xlink" x="0px" y="0px"
	 width="50px" height="86px" viewBox="0 0 50 86" enable-background="new 0 0 50 86" xml:space="preserve">
<rect id="backgroundrect" fill="none" width="50" height="86"/>
<g>
	<title>Layer 1</title>
	<path id="svg_1" fill="#E7896E" d="M22.238,71.172v8.749c0,3.3,2.675,5.974,5.973,5.974c3.299,0,5.973-2.674,5.974-5.974
		l-0.001-8.749c0-7.629,5.529-10.26,9.977-11.143c3.195-0.634,5.498-3.434,5.498-6.691v-8.771H6.765l0,8.771
		c0,3.258,2.302,6.058,5.498,6.691C16.71,60.912,22.238,63.543,22.238,71.172z"/>
	<path id="svg_2" fill="#DD6642" d="M44.16,60.029c3.195-0.633,5.498-3.434,5.498-6.691v-8.771H37.116
		c-0.22,2.605-0.997,5.138-2.288,7.424c-5.38,9.521-0.645,19.182-0.645,19.182C34.184,63.544,39.713,60.912,44.16,60.029z"/>
	<path id="svg_3" fill="#FFEAB7" d="M13.751,7.351h28.918c3.859,0,6.988,3.129,6.989,6.989v27.484H6.762V14.34
		C6.763,10.48,9.892,7.351,13.751,7.351z"/>
	<path id="svg_4" fill="#FAD989" d="M49.658,14.34c-0.001-3.86-3.13-6.988-6.989-6.989l-8.753,0
		c3.598,4.429,3.279,10.887,3.279,10.887s-0.014,14.629-0.014,23.585h12.477V14.34z"/>
	<path id="svg_5" fill="#A7B6C5" d="M49.658,51.174H6.764V35.315h42.895V51.174z"/>
	<path id="svg_6" fill="#889CB0" d="M49.658,51.174V35.315H37.185c-0.001,2.784-0.002,5.483-0.001,7.713
		c0,2.833-0.659,5.62-1.922,8.145H49.658z"/>
	<path id="svg_7" fill="#971993" d="M6.765,19.002c0,2.655,2.152,4.807,4.808,4.807c0,0,4.497-0.25,4.807-4.763v-3.589
		c0-1.969,1.611-3.64,3.58-3.604c1.909,0.035,3.445,1.594,3.445,3.511l0,9.283c0,2.606,2.027,4.827,4.632,4.919
		c2.735,0.098,4.983-2.091,4.983-4.804v-6.21c0-1.968,1.61-3.64,3.579-3.604c1.908,0.036,3.444,1.594,3.444,3.511v3.86
		c0,2.607,2.027,4.827,4.633,4.92c2.734,0.097,4.982-2.091,4.982-4.804V14.34c0-3.86-3.129-6.988-6.988-6.988
		c0,0-20.503,0.004-27.238,0.011c-1.222,0.001-2.34-0.695-2.867-1.797c-0.763-1.593-1.705-3.018-2.531-3.844
		c-2.296-2.296-6.017-2.295-8.313,0s-2.295,6.017,0,8.312c0.721,0.721,1.899,1.531,3.247,2.233c1.137,0.592,1.814,1.9,1.795,3.182
		L6.765,19.002z"/>
	<path id="svg_8" fill="#6D006A" d="M40.043,18.46v3.86c0,2.607,2.027,4.827,4.633,4.919c2.734,0.097,4.982-2.091,4.982-4.804V14.34
		c0-3.86-3.129-6.988-6.988-6.989c0,0-3.846,0.001-8.752,0.002c1.945,2.397,2.746,5.384,3.069,7.624
		C38.711,15.202,40.043,16.676,40.043,18.46z"/>
</g>
<g>
	<path fill="#FFFFFF" d="M30.172,49.047l-0.715,0.832l0.047,0.047c1.047-0.688,1.941-1.031,2.684-1.031
		c0.563,0,1.064,0.137,1.506,0.41s0.785,0.646,1.031,1.119s0.369,1.014,0.369,1.623c0,0.734-0.121,1.494-0.363,2.279
		s-0.586,1.543-1.031,2.273s-0.965,1.381-1.559,1.951c-0.531,0.516-1.188,0.924-1.969,1.225s-1.547,0.451-2.297,0.451
		c-1.445,0-2.547-0.307-3.305-0.92s-1.137-1.506-1.137-2.678c0-1.039,0.336-2.324,1.008-3.855s1.711-3.375,3.117-5.531
		c0.555-0.883,1.012-1.516,1.371-1.898c0.18-0.195,0.348-0.332,0.504-0.41s0.402-0.141,0.738-0.188
		c0.586-0.094,1.18-0.141,1.781-0.141c0.914,0,1.371,0.246,1.371,0.738c0,0.25-0.289,0.633-0.867,1.148
		c-0.336,0.281-0.879,0.875-1.629,1.781L30.172,49.047z M28.859,51.156c-0.273,0-0.555,0.16-0.844,0.48s-0.525,0.729-0.709,1.225
		s-0.275,0.982-0.275,1.459c0,0.641,0.123,1.238,0.369,1.793s0.586,0.998,1.02,1.33s0.885,0.498,1.354,0.498
		c0.25,0,0.449-0.07,0.598-0.211c0.25-0.289,0.455-0.758,0.615-1.406s0.24-1.34,0.24-2.074c0-0.648-0.096-1.205-0.287-1.67
		s-0.461-0.818-0.809-1.061S29.359,51.156,28.859,51.156z"/>
</g>
</svg>
