<?xml version="1.0" encoding="utf-8"?>
<!-- Generator: Adobe Illustrator 16.0.0, SVG Export Plug-In . SVG Version: 6.00 Build 0)  -->
<!DOCTYPE svg PUBLIC "-//W3C//DTD SVG 1.1//EN" "http://www.w3.org/Graphics/SVG/1.1/DTD/svg11.dtd">
<svg version="1.1" id="Layer_1" xmlns="http://www.w3.org/2000/svg" xmlns:xlink="http://www.w3.org/1999/xlink" x="0px" y="0px"
	 width="50px" height="86px" viewBox="0 0 50 86" enable-background="new 0 0 50 86" xml:space="preserve">
<rect id="backgroundrect" fill="none" width="50" height="86"/>
<g>
	<title>Layer 1</title>
	<path id="svg_1" fill="#E7896E" d="M22.238,71.172l0,8.749c0,3.3,2.675,5.974,5.974,5.974c3.299,0,5.973-2.674,5.974-5.974
		l-0.001-8.749c0-7.629,5.529-10.26,9.977-11.143c3.195-0.634,5.498-3.434,5.498-6.691v-8.771H6.765l-0.001,8.771
		c0,3.258,2.303,6.058,5.499,6.691C16.71,60.912,22.238,63.543,22.238,71.172z"/>
	<path id="svg_2" fill="#DD6642" d="M44.16,60.029c3.195-0.633,5.498-3.434,5.498-6.691v-8.771H37.115
		c-0.219,2.605-0.996,5.138-2.287,7.424c-5.381,9.521-0.645,19.182-0.645,19.182C34.184,63.544,39.713,60.912,44.16,60.029z"/>
	<path id="svg_3" fill="#FFEAB7" d="M13.751,7.351h28.918c3.859,0,6.988,3.129,6.988,6.989v27.484H6.762V14.34
		C6.763,10.48,9.892,7.351,13.751,7.351z"/>
	<path id="svg_4" fill="#FAD989" d="M49.657,14.34c0-3.86-3.129-6.988-6.988-6.989l-8.753,0c3.598,4.429,3.278,10.887,3.278,10.887
		s-0.013,14.629-0.013,23.585h12.476V14.34z"/>
	<path id="svg_5" fill="#A7B6C5" d="M49.658,51.174H6.764V35.315h42.895V51.174z"/>
	<path id="svg_6" fill="#889CB0" d="M49.658,51.174V35.315H37.185c-0.001,2.784-0.002,5.483-0.001,7.713
		c0,2.833-0.66,5.62-1.922,8.145H49.658z"/>
	<path id="svg_7" fill="#656AFF" d="M6.765,19.002c0,2.655,2.152,4.807,4.808,4.807c0,0,4.497-0.25,4.807-4.763v-3.589
		c0-1.969,1.611-3.64,3.58-3.604c1.909,0.035,3.445,1.594,3.445,3.511v9.283c0,2.606,2.027,4.827,4.632,4.919
		c2.735,0.098,4.982-2.091,4.982-4.804v-6.21c0.001-1.968,1.611-3.64,3.58-3.604c1.908,0.036,3.444,1.594,3.444,3.511v3.86
		c0,2.607,2.027,4.827,4.633,4.92c2.734,0.097,4.982-2.091,4.982-4.804V14.34c0-3.86-3.129-6.988-6.988-6.988
		c0,0-20.503,0.004-27.238,0.011c-1.222,0.001-2.339-0.695-2.867-1.797c-0.763-1.593-1.706-3.018-2.531-3.844
		c-2.296-2.296-6.018-2.295-8.313,0c-2.295,2.295-2.295,6.017,0,8.312c0.721,0.721,1.899,1.531,3.247,2.233
		c1.137,0.592,1.814,1.9,1.794,3.182L6.765,19.002z"/>
	<path id="svg_8" fill="#1319EB" d="M40.043,18.46v3.86c0,2.607,2.027,4.827,4.633,4.919c2.734,0.097,4.982-2.091,4.982-4.804V14.34
		c0-3.86-3.129-6.988-6.988-6.989c0,0-3.846,0.001-8.752,0.002c1.945,2.397,2.746,5.384,3.069,7.624
		C38.711,15.202,40.043,16.676,40.043,18.46z"/>
</g>
<g>
	<path fill="#FFFFFF" d="M28.496,52.209l-0.798,0.047c-1.149,0.078-1.861,0.117-2.135,0.117c-0.477,0-0.85-0.025-1.12-0.076
		c-0.27-0.051-0.449-0.141-0.539-0.27s-0.135-0.318-0.135-0.568c0-0.195,0.057-0.473,0.17-0.832s0.334-0.953,0.662-1.781
		c0.266-0.648,0.465-1.16,0.598-1.535c0.414-1.078,0.742-1.855,0.984-2.332c0.078-0.148,0.146-0.271,0.205-0.369
		s0.127-0.213,0.205-0.346c0.258-0.406,0.57-0.727,0.938-0.961c0.836-0.563,1.629-0.844,2.379-0.844
		c0.594,0,0.891,0.145,0.891,0.434c0,0.383-0.746,1.633-2.238,3.75c-0.727,1.031-1.359,1.988-1.898,2.871l2.742-0.141
		c0.195-0.648,0.455-1.182,0.78-1.6c0.324-0.418,0.733-0.729,1.226-0.932c0.493-0.203,1.064-0.305,1.713-0.305
		c0.337,0,0.573,0.037,0.71,0.111c0.138,0.074,0.206,0.198,0.206,0.37c0,0.157-0.059,0.427-0.176,0.81
		c-0.117,0.382-0.273,0.835-0.469,1.357l-0.094,0.234c0.155-0.016,0.259-0.025,0.309-0.029c0.051-0.004,0.115-0.01,0.192-0.018
		c0.07-0.008,0.13-0.014,0.181-0.018s0.107-0.006,0.17-0.006c0.178,0,0.268,0.047,0.268,0.141c0,0.031-0.008,0.055-0.023,0.07
		c-0.141,0.313-0.335,0.65-0.584,1.014s-0.479,0.65-0.689,0.861c-0.163,0.195-0.377,0.332-0.643,0.41
		c-0.172,0.563-0.491,1.642-0.96,3.236c-0.016,0.07-0.033,0.164-0.053,0.281c-0.021,0.117-0.034,0.199-0.041,0.246
		c-0.118,0.647-0.271,1.058-0.458,1.229c-0.618,0.367-1.162,0.638-1.631,0.813c-0.47,0.176-0.928,0.264-1.373,0.264
		c-0.321,0-0.606-0.078-0.856-0.234c-0.251-0.156-0.376-0.34-0.376-0.551c0-0.203,0.082-0.572,0.246-1.107
		c0.165-0.535,0.403-1.191,0.717-1.969C28.01,53.277,28.276,52.662,28.496,52.209z"/>
</g>
</svg>
