<svg xmlns="http://www.w3.org/2000/svg" width="25" height="90" fill="none" style=""><rect id="backgroundrect" width="100%" height="100%" x="0" y="0" fill="none" stroke="none"/>




<g class="currentLayer" style=""><title>Layer 1</title><path d="M25.295900646972655,89.51828502197266 L6.469726585578428e-7,89.51828502197266 L0.0004006469726576256,19.150885021972655 C0.0004006469726576256,16.227285021972655 0.8614006469726547,13.368085021972657 2.4760006469726576,10.930885021972657 L8.099100646972659,2.4438650219726563 C10.257000646972656,-0.8137249780273437 15.039400646972659,-0.8132949780273435 17.197300646972657,2.444295021972656 L22.819900646972656,10.930885021972657 C24.43450064697265,13.368085021972657 25.295900646972655,16.226885021972656 25.295900646972655,19.151285021972654 L25.295900646972655,89.51828502197266 z" fill="#FFBD86" id="svg_1" class=""/><path d="M20.171400646972657,16.274685021972655 C19.238400646972657,17.218085021972655 17.71490064697266,17.218085021972655 16.781800646972655,16.274685021972655 L14.87160064697266,14.342085021972657 C13.648100646972658,13.103885021972655 11.648100646972658,13.103885021972655 10.424100646972654,14.342485021972657 L8.51480064697266,16.274285021972656 C7.581700646972656,17.217685021972656 6.057800646972659,17.218085021972655 5.125200646972658,16.274285021972656 L1.5115006469726566,12.617485021972657 C0.5215006469726546,14.644185021972657 0.0010006469726562273,16.878085021972655 0.0010006469726562273,19.150785021972656 L0.0006006469726571595,89.51818502197266 L25.29650064697266,89.51818502197266 L25.29650064697266,19.151185021972655 C25.29650064697266,16.878485021972658 24.775600646972663,14.644185021972657 23.78590064697265,12.617885021972656 L20.171400646972657,16.274685021972655 z" fill="#7FC325" id="svg_2" class=""/><path d="M6.819400646972653,89.51758502197265 L18.47560064697266,89.51768502197265 L18.476100646972654,16.981785021972655 C17.861900646972657,16.981385021972656 17.247300646972654,16.745685021972655 16.781200646972657,16.273585021972657 L14.871500646972656,14.341385021972656 C13.647100646972653,13.103185021972656 11.647100646972653,13.103185021972656 10.423100646972657,14.341785021972655 L8.513800646972655,16.273585021972657 C8.047300646972658,16.745285021972656 7.433100646972655,16.981385021972656 6.819000646972654,16.980885021972657 L6.819400646972653,89.51758502197265 z" fill="#394049" id="svg_3" class=""/><path d="M20.15560064697266,6.9076850219726555 L17.197500646972657,2.4434150219726565 C15.039600646972659,-0.8141849780273436 10.257200646972656,-0.8146149780273437 8.099300646972658,2.4429850219726568 L5.141200646972656,6.908185021972656 C7.205000646972657,8.018185021972656 9.811800646972657,8.682785021972656 12.648200646972654,8.682785021972656 C15.484500646972656,8.682785021972656 18.091300646972655,8.018185021972656 20.15560064697266,6.9076850219726555 z" fill="#7FC325" id="svg_4" class=""/></g></svg>