<svg xmlns="http://www.w3.org/2000/svg" width="25" height="90" fill="none"><rect id="backgroundrect" width="100%" height="100%" x="0" y="0" fill="none" stroke="none"/>




<g class="currentLayer" style=""><title>Layer 1</title><path d="M25.29590146484375,89.51828502197266 L0.0000014648437485220711,89.51828502197266 L0.00040146484374758984,19.150885021972655 C0.00040146484374758984,16.227285021972655 0.8614014648437518,13.368085021972657 2.4759014648437514,10.930885021972657 L8.099001464843752,2.4438650219726563 C10.257001464843754,-0.8137249780273437 15.039301464843753,-0.8132949780273435 17.19720146484375,2.444295021972656 L22.819901464843753,10.930885021972657 C24.434401464843745,13.368085021972657 25.29590146484375,16.226885021972656 25.29590146484375,19.151285021972654 L25.29590146484375,89.51828502197266 z" fill="#FFBD86" id="svg_1" class=""/><path d="M20.17130146484375,16.274685021972655 C19.23830146484375,17.218085021972655 17.714801464843752,17.218085021972655 16.78170146484375,16.274685021972655 L14.871501464843753,14.342085021972657 C13.648001464843752,13.103885021972655 11.648001464843752,13.103885021972655 10.424101464843751,14.342485021972657 L8.514701464843753,16.274285021972656 C7.58160146484375,17.217685021972656 6.057701464843753,17.218085021972655 5.125101464843752,16.274285021972656 L1.5114014648437504,12.617485021972657 C0.5214014648437484,14.644185021972657 0.0009014648437499773,16.878085021972655 0.0009014648437499773,19.150785021972656 L0.0005014648437509095,89.51818502197266 L25.296401464843754,89.51818502197266 L25.296401464843754,19.151185021972655 C25.296401464843754,16.878485021972658 24.775501464843757,14.644185021972657 23.785801464843743,12.617885021972656 L20.17130146484375,16.274685021972655 z" fill="#971993" id="svg_2" class=""/><path d="M6.81940146484375,89.51758502197265 L18.47560146484375,89.51768502197265 L18.47610146484375,16.981785021972655 C17.861901464843747,16.981385021972656 17.24730146484375,16.745685021972655 16.781201464843747,16.273585021972657 L14.871501464843753,14.341385021972656 C13.64710146484375,13.103185021972656 11.64710146484375,13.103185021972656 10.423101464843754,14.341785021972655 L8.513801464843752,16.273585021972657 C8.047301464843748,16.745285021972656 7.433101464843752,16.981385021972656 6.819001464843751,16.980885021972657 L6.81940146484375,89.51758502197265 z" fill="#394049" id="svg_3" class=""/><path d="M20.15560146484375,6.9076850219726555 L17.197501464843747,2.4434150219726565 C15.039601464843749,-0.8141849780273436 10.257201464843753,-0.8146149780273437 8.099301464843748,2.4429850219726568 L5.141201464843753,6.908185021972656 C7.205001464843747,8.018185021972656 9.811801464843747,8.682785021972656 12.648201464843751,8.682785021972656 C15.484601464843749,8.682785021972656 18.091301464843752,8.018185021972656 20.15560146484375,6.9076850219726555 z" fill="#971993" id="svg_4" class=""/></g></svg>