<svg xmlns="http://www.w3.org/2000/svg" width="25" height="90" fill="none"><rect id="backgroundrect" width="100%" height="100%" x="0" y="0" fill="none" stroke="none"/>




<g class="currentLayer" style=""><title>Layer 1</title><path d="M25.295900000000017,89.51828478355408 L2.1316282072803006e-14,89.51828478355408 L0.00040000000002038405,19.150884783554076 C0.00040000000002038405,16.227284783554076 0.8614000000000174,13.368084783554078 2.4760000000000204,10.930884783554077 L8.099100000000021,2.443864783554077 C10.25700000000002,-0.8137252164459228 15.039400000000022,-0.8132952164459226 17.19730000000002,2.444294783554077 L22.81990000000002,10.930884783554077 C24.434500000000014,13.368084783554078 25.295900000000017,16.226884783554077 25.295900000000017,19.151284783554075 L25.295900000000017,89.51828478355408 z" fill="#FFBD86" id="svg_1" class=""/><path d="M20.17140000000002,16.274684783554076 C19.238300000000017,17.218084783554076 17.714800000000018,17.218084783554076 16.78180000000002,16.274684783554076 L14.871600000000022,14.342084783554078 C13.648000000000017,13.103884783554076 11.64810000000002,13.103884783554076 10.424100000000017,14.342484783554077 L8.514800000000022,16.274284783554076 C7.581700000000019,17.217684783554077 6.057800000000022,17.218084783554076 5.1251000000000175,16.274284783554076 L1.5115000000000192,12.617484783554078 C0.5215000000000172,14.644184783554078 0.0010000000000189857,16.878084783554076 0.0010000000000189857,19.150784783554077 L0.0005000000000165984,89.51818478355408 L25.296500000000023,89.51818478355408 L25.296500000000023,19.151184783554076 C25.296500000000023,16.87848478355408 24.775500000000022,14.644184783554078 23.785900000000012,12.617884783554077 L20.17140000000002,16.274684783554076 z" fill="#F1592A" id="svg_2" class=""/><path d="M6.820100000000018,89.51758478355407 L18.476300000000016,89.51768478355407 L18.476700000000022,16.981784783554076 C17.862600000000022,16.981384783554077 17.24800000000002,16.745684783554076 16.78190000000002,16.273584783554078 L14.87220000000002,14.341384783554076 C13.647700000000022,13.103184783554077 11.647800000000018,13.103184783554077 10.423800000000021,14.341784783554075 L8.51450000000002,16.273584783554078 C8.04790000000002,16.745284783554077 7.433800000000019,16.981384783554077 6.819700000000019,16.980884783554078 L6.820100000000018,89.51758478355407 z" fill="#394049" id="svg_3" class=""/><path d="M20.15560000000002,6.9076847835540764 L17.19750000000002,2.4434147835540774 C15.039600000000021,-0.8141852164459226 10.257200000000019,-0.8146152164459227 8.09930000000002,2.4429847835540777 L5.141200000000019,6.908184783554077 C7.20500000000002,8.018184783554076 9.81180000000002,8.682784783554077 12.648200000000017,8.682784783554077 C15.484500000000018,8.682784783554077 18.091300000000018,8.018184783554076 20.15560000000002,6.9076847835540764 z" fill="#F1592A" id="svg_4" class=""/></g></svg>