<svg xmlns="http://www.w3.org/2000/svg" width="320" height="202" fill="none" style=""><rect id="backgroundrect" width="100%" height="100%" x="0" y="0" fill="none" stroke="none" class="" style=""/>
































































































<defs>
<filter id="filter0_d" x="28" y="0" width="326" height="307" filterUnits="userSpaceOnUse" color-interpolation-filters="sRGB">
<feFlood flood-opacity="0" result="BackgroundImageFix"/>
<feColorMatrix in="SourceAlpha" type="matrix" values="0 0 0 0 0 0 0 0 0 0 0 0 0 0 0 0 0 0 127 0"/>
<feOffset dx="3" dy="4"/>
<feGaussianBlur stdDeviation="3.5"/>
<feColorMatrix type="matrix" values="0 0 0 0 0.411765 0 0 0 0 0.411765 0 0 0 0 0.411765 0 0 0 0.22 0"/>
<feBlend mode="normal" in2="BackgroundImageFix" result="effect1_dropShadow"/>
<feBlend mode="normal" in="SourceGraphic" in2="effect1_dropShadow" result="shape"/>
</filter>
</defs>
<g class="currentLayer" style=""><title>Layer 1</title><path d="M13.342824278259279,149.2694334411621 C10.649624278259278,149.2694334411621 7.930124278259278,148.4574334411621 5.5736242782592775,146.7674334411621 C-0.4196757217407222,142.4704334411621 -1.7951757217407227,134.12843344116212 2.5019242782592777,128.13543344116212 C7.360124278259278,121.35943344116211 15.158924278259278,114.87943344116212 23.89872427825928,110.3584334411621 C35.51362427825928,104.34843344116211 48.864724278259274,101.66343344116211 62.50792427825928,102.59443344116211 C69.86542427825928,103.0964334411621 75.42332427825927,109.46843344116212 74.92162427825927,116.82543344116212 C74.41942427825927,124.18343344116212 68.04442427825927,129.73543344116212 60.69072427825928,129.2394334411621 C40.993824278259275,127.89743344116212 28.21272427825928,138.1084334411621 24.206224278259278,143.6964334411621 C21.599224278259282,147.3334334411621 17.50162427825928,149.2694334411621 13.342824278259279,149.2694334411621 z" fill="#5A88E3" id="svg_23" class=""/><path d="M42.882524278259275,202.4534334411621 C42.61662427825928,202.4534334411621 42.34962427825928,202.44543344116212 42.080724278259275,202.4304334411621 C34.71912427825928,201.9944334411621 29.10462427825928,195.6724334411621 29.540324278259277,188.3104334411621 C30.495524278259275,172.1904334411621 37.22632427825928,154.2344334411621 47.10652427825928,141.45143344116212 C51.61662427825928,135.6154334411621 60.002024278259285,134.5424334411621 65.83742427825928,139.05143344116212 C71.67272427825928,143.5604334411621 72.74712427825928,151.9464334411621 68.23742427825928,157.7814334411621 C61.67192427825928,166.27743344116212 56.83442427825928,179.1804334411621 56.20022427825927,189.8894334411621 C55.78022427825928,196.9824334411621 49.89572427825928,202.4534334411621 42.882524278259275,202.4534334411621 z" fill="#5A88E3" id="svg_24" class=""/><path d="M141.0834242782593,149.2694334411621 C136.92542427825927,149.2694334411621 132.8284242782593,147.3334334411621 130.2204242782593,143.69543344116212 C126.21442427825929,138.1074334411621 113.43842427825928,127.89543344116211 93.73542427825927,129.2384334411621 C86.37842427825927,129.73643344116212 80.00642427825927,124.18243344116212 79.50462427825927,116.82543344116212 C79.00292427825927,109.46743344116211 84.56042427825928,103.0964334411621 91.91842427825928,102.59443344116211 C105.56142427825928,101.66343344116211 118.91342427825927,104.34843344116211 130.52742427825928,110.3574334411621 C139.26742427825928,114.87943344116212 147.0664242782593,121.3584334411621 151.92442427825927,128.13443344116212 C156.22142427825926,134.12843344116212 154.8454242782593,142.4704334411621 148.85242427825926,146.7674334411621 C146.49642427825927,148.45643344116212 143.77742427825928,149.2694334411621 141.0834242782593,149.2694334411621 z" fill="#5A88E3" id="svg_25" class=""/><path d="M111.54342427825928,202.4534334411621 C104.52942427825927,202.4534334411621 98.64642427825927,196.9834334411621 98.22642427825927,189.8894334411621 C97.59142427825928,179.1804334411621 92.75442427825928,166.27743344116212 86.18842427825928,157.7824334411621 C81.67882427825927,151.9474334411621 82.75352427825928,143.5604334411621 88.58842427825928,139.05143344116212 C94.42442427825928,134.54043344116212 102.80942427825927,135.6154334411621 107.31942427825928,141.45143344116212 C117.19942427825927,154.2344334411621 123.93142427825927,172.1914334411621 124.88542427825928,188.3104334411621 C125.32142427825929,195.6724334411621 119.70742427825928,201.9934334411621 112.34542427825929,202.4304334411621 C112.07642427825928,202.44543344116212 111.80942427825927,202.4534334411621 111.54342427825928,202.4534334411621 z" fill="#5A88E3" id="svg_26" class=""/><path d="M77.21262427825928,175.9424334411621 C101.67442427825928,175.9424334411621 121.50442427825928,156.9654334411621 121.50442427825928,133.5554334411621 C121.50442427825928,110.14643344116212 101.67442427825928,91.16943344116211 77.21262427825928,91.16943344116211 C52.751324278259276,91.16943344116211 32.92142427825928,110.14643344116212 32.92142427825928,133.5554334411621 C32.92142427825928,156.9654334411621 52.751324278259276,175.9424334411621 77.21262427825928,175.9424334411621 z" fill="#00BEFF" id="svg_27" class=""/><path d="M77.21302427825928,127.7214334411621 C63.167424278259276,127.7214334411621 51.78122427825927,140.05243344116212 51.78122427825927,155.2634334411621 C51.78122427825927,161.0824334411621 53.451924278259284,166.4764334411621 56.29592427825928,170.9234334411621 C62.52582427825928,174.12343344116212 69.64742427825928,175.9404334411621 77.21262427825928,175.9404334411621 C84.77742427825928,175.9404334411621 91.89942427825927,174.12343344116212 98.12942427825928,170.9234334411621 C100.97342427825927,166.4764334411621 102.64442427825928,161.0824334411621 102.64442427825928,155.2634334411621 C102.64442427825928,140.05243344116212 91.25842427825928,127.7214334411621 77.21302427825928,127.7214334411621 z" fill="#31FF9C" id="svg_28" class=""/><path d="M27.56332427825928,61.06443344116211 C41.53892427825928,61.06443344116211 52.86832427825928,49.735033441162116 52.86832427825928,35.75943344116211 C52.86832427825928,21.78383344116211 41.53892427825928,10.45443344116211 27.56332427825928,10.45443344116211 C13.587724278259277,10.45443344116211 2.258324278259277,21.78383344116211 2.258324278259277,35.75943344116211 C2.258324278259277,49.735033441162116 13.587724278259277,61.06443344116211 27.56332427825928,61.06443344116211 z" fill="#6B9DFF" id="svg_29" class=""/><path d="M27.563224278259277,49.515533441162106 C35.160524278259274,49.515533441162106 41.31942427825928,43.35663344116211 41.31942427825928,35.75943344116211 C41.31942427825928,28.162133441162112 35.160524278259274,22.00323344116211 27.563224278259277,22.00323344116211 C19.966024278259276,22.00323344116211 13.807124278259277,28.162133441162112 13.807124278259277,35.75943344116211 C13.807124278259277,43.35663344116211 19.966024278259276,49.515533441162106 27.563224278259277,49.515533441162106 z" fill="#31FF9C" id="svg_30" class=""/><path d="M126.86342427825929,61.06443344116211 C140.83842427825928,61.06443344116211 152.16842427825927,49.735033441162116 152.16842427825927,35.75943344116211 C152.16842427825927,21.78383344116211 140.83842427825928,10.45443344116211 126.86342427825929,10.45443344116211 C112.88742427825929,10.45443344116211 101.55842427825928,21.78383344116211 101.55842427825928,35.75943344116211 C101.55842427825928,49.735033441162116 112.88742427825929,61.06443344116211 126.86342427825929,61.06443344116211 z" fill="#6B9DFF" id="svg_31" class=""/><path d="M126.86342427825929,49.515533441162106 C134.46042427825927,49.515533441162106 140.6194242782593,43.35663344116211 140.6194242782593,35.75943344116211 C140.6194242782593,28.162133441162112 134.46042427825927,22.00323344116211 126.86342427825929,22.00323344116211 C119.26542427825927,22.00323344116211 113.10742427825929,28.162133441162112 113.10742427825929,35.75943344116211 C113.10742427825929,43.35663344116211 119.26542427825927,49.515533441162106 126.86342427825929,49.515533441162106 z" fill="#31FF9C" id="svg_32" class=""/><path opacity="0.47" d="M48.22752427825928,129.7694334411621 C48.26432427825928,127.0294334411621 51.080524278259276,125.1974334411621 53.60772427825928,126.2564334411621 C60.809524278259275,129.2744334411621 68.79972427825928,130.95643344116212 77.21322427825928,130.95643344116212 C92.85742427825927,130.95643344116212 107.03942427825928,125.14743344116212 117.40542427825929,115.7264334411621 C110.36942427825927,101.22643344116211 95.01942427825928,91.16943344116211 77.21322427825928,91.16943344116211 C52.75122427825927,91.16943344116211 32.920424278259276,110.14643344116212 32.920424278259276,133.5554334411621 C32.920424278259276,156.9644334411621 52.75122427825927,175.9404334411621 77.21322427825928,175.9404334411621 C87.55642427825927,175.9404334411621 97.07042427825928,172.5474334411621 104.60842427825928,166.8624334411621 C63.36442427825928,176.64043344116212 47.99582427825928,146.9874334411621 48.22752427825928,129.7694334411621 z" fill="#008EF2" id="svg_33" class=""/><path d="M77.21262427825928,119.7924334411621 C108.96242427825928,119.7924334411621 134.70042427825928,95.87843344116212 134.70042427825928,66.3777334411621 C134.70042427825928,36.87743344116211 108.96242427825928,12.962733441162108 77.21262427825928,12.962733441162108 C45.46312427825928,12.962733441162108 19.72512427825928,36.87743344116211 19.72512427825928,66.3777334411621 C19.72512427825928,95.87843344116212 45.46312427825928,119.7924334411621 77.21262427825928,119.7924334411621 z" fill="#00BEFF" id="svg_34" class=""/><path d="M98.19842427825928,63.13973344116211 L84.68242427825928,50.96353344116211 C80.43682427825928,47.13893344116211 73.98872427825928,47.13893344116211 69.74332427825928,50.96353344116211 L56.22722427825927,63.13973344116211 C49.79402427825927,68.9350334411621 50.342324278259284,79.18643344116211 57.35672427825928,84.26243344116212 C69.20522427825928,92.8374334411621 85.21942427825928,92.8374334411621 97.06842427825927,84.26243344116212 C104.08342427825927,79.18643344116211 104.63142427825927,68.9350334411621 98.19842427825928,63.13973344116211 z" fill="#31FF9C" id="svg_35" class=""/><path d="M49.67092427825928,54.03783344116211 C48.117324278259275,54.03783344116211 46.85842427825928,52.77893344116211 46.85842427825928,51.22533344116211 V46.85053344116211 C46.85842427825928,45.29693344116211 48.117324278259275,44.038033441162106 49.67092427825928,44.038033441162106 C51.22452427825928,44.038033441162106 52.48342427825928,45.29693344116211 52.48342427825928,46.85053344116211 V51.22533344116211 C52.48342427825928,52.77853344116211 51.22452427825928,54.03783344116211 49.67092427825928,54.03783344116211 z" fill="black" id="svg_36" class=""/><path d="M104.75442427825928,54.037633441162114 C103.20142427825928,54.037633441162114 101.94242427825928,52.77883344116211 101.94242427825928,51.225133441162114 V46.85043344116211 C101.94242427825928,45.29683344116211 103.20142427825928,44.03793344116211 104.75442427825928,44.03793344116211 C106.30842427825928,44.03793344116211 107.56742427825928,45.29683344116211 107.56742427825928,46.85043344116211 V51.225133441162114 C107.56742427825928,52.77843344116211 106.30842427825928,54.037633441162114 104.75442427825928,54.037633441162114 z" fill="black" id="svg_37" class=""/><path d="M77.21312427825927,85.4534334411621 C73.95062427825928,85.4534334411621 70.84752427825927,84.04043344116211 68.70032427825927,81.57643344116211 C67.67952427825928,80.40563344116211 67.80142427825928,78.62923344116211 68.97252427825927,77.60853344116211 C70.14332427825927,76.5874334411621 71.92002427825928,76.71003344116211 72.94042427825927,77.8807334411621 C74.01962427825927,79.1186334411621 75.57702427825927,79.82853344116211 77.21352427825927,79.82853344116211 C78.84962427825928,79.82853344116211 80.40742427825927,79.1186334411621 81.48662427825927,77.8807334411621 C82.50702427825928,76.70963344116211 84.28342427825928,76.58773344116211 85.45442427825928,77.60853344116211 C86.62542427825927,78.62923344116211 86.74742427825927,80.40563344116211 85.72642427825927,81.57643344116211 C83.57882427825928,84.04043344116211 80.47562427825928,85.4534334411621 77.21312427825927,85.4534334411621 z" fill="black" id="svg_38" class=""/><path d="M83.10132427825928,60.199633441162106 C79.24062427825928,59.188933441162106 75.18502427825928,59.188933441162106 71.32472427825928,60.199633441162106 C69.72612427825928,60.618133441162115 68.33302427825927,61.60173344116211 67.40372427825928,62.96823344116211 C66.14902427825928,64.8139334411621 66.87012427825928,67.34523344116211 68.90942427825928,68.25193344116211 L74.56622427825928,70.76743344116211 C76.25112427825928,71.5167334411621 78.17452427825928,71.5167334411621 79.85942427825928,70.76743344116211 L85.51642427825928,68.25193344116211 C87.55542427825928,67.34523344116211 88.27742427825928,64.81363344116211 87.02142427825927,62.96823344116211 C86.09342427825928,61.60213344116211 84.70042427825928,60.61843344116211 83.10132427825928,60.199633441162106 z" fill="black" id="svg_39" class=""/><path opacity="0.33" d="M116.99942427825928,104.93043344116211 C33.37732427825928,120.1374334411621 29.976124278259277,47.6190334411621 47.15932427825928,20.837233441162113 C30.701724278259277,30.233633441162112 19.72512427825928,47.113533441162105 19.72512427825928,66.3772334411621 C19.72512427825928,95.87743344116211 45.463224278259275,119.7914334411621 77.21302427825928,119.7914334411621 C92.65442427825927,119.7914334411621 106.67142427825928,114.13443344116212 116.99942427825928,104.93043344116211 z" fill="#008EF2" id="svg_40" class=""/><path d="M166.16542427825928,119.22243344116211 C166.45742427825928,123.52043344116211 168.1074242782593,129.3574334411621 173.86542427825927,134.5424334411621 L188.90442427825928,117.8444334411621 C183.14742427825928,112.65843344116212 177.17042427825928,111.6264334411621 172.86642427825927,111.78343344116212 C168.9474242782593,111.92743344116212 165.90042427825927,115.31143344116211 166.16542427825928,119.22243344116211 z" fill="#FF5D9C" id="svg_41" class=""/><path d="M173.45542427825927,122.8104334411621 C173.65642427825927,125.02743344116212 174.56342427825928,127.94843344116211 177.45742427825928,130.5554334411621 L185.31342427825928,121.8324334411621 C182.41942427825927,119.2264334411621 179.41942427825927,118.62843344116212 177.19442427825928,118.65943344116212 C174.97342427825927,118.6914334411621 173.25542427825928,120.59843344116211 173.45542427825927,122.8104334411621 z" fill="#FA3483" id="svg_42" class=""/><path d="M234.18942427825928,119.22243344116211 C233.89642427825927,123.52043344116211 232.24642427825927,129.3574334411621 226.48942427825926,134.5424334411621 L211.44942427825927,117.8444334411621 C217.20742427825928,112.65843344116212 223.18442427825929,111.6264334411621 227.4884242782593,111.78343344116212 C231.40742427825927,111.92743344116212 234.45442427825927,115.31143344116211 234.18942427825928,119.22243344116211 z" fill="#FF83B4" id="svg_43" class=""/><path d="M226.8994242782593,122.8104334411621 C226.69842427825927,125.02743344116212 225.79142427825929,127.94843344116211 222.89742427825928,130.5554334411621 L215.04142427825929,121.8324334411621 C217.9354242782593,119.2264334411621 220.9354242782593,118.62843344116212 223.16042427825928,118.65943344116212 C225.3814242782593,118.6914334411621 227.09942427825928,120.59843344116211 226.8994242782593,122.8104334411621 z" fill="#FF5D9C" id="svg_44" class=""/><path d="M181.97442427825928,176.7384334411621 C179.20742427825928,176.7384334411621 176.96342427825928,174.4944334411621 176.96342427825928,171.7274334411621 V161.4104334411621 H186.98542427825927 V171.7274334411621 C186.98542427825927,174.4944334411621 184.74142427825927,176.7384334411621 181.97442427825928,176.7384334411621 z" fill="#FF5D9C" id="svg_45" class=""/><path d="M218.38042427825928,176.7384334411621 C215.61242427825928,176.7384334411621 213.3694242782593,174.4944334411621 213.3694242782593,171.7274334411621 V161.4104334411621 H223.39142427825928 V171.7274334411621 C223.39142427825928,174.4944334411621 221.14842427825928,176.7384334411621 218.38042427825928,176.7384334411621 z" fill="#FF83B4" id="svg_46" class=""/><path d="M230.08042427825927,148.2074334411621 C230.08042427825927,131.6924334411621 216.69242427825927,113.45543344116211 200.17742427825928,113.45543344116211 C183.66242427825927,113.45543344116211 170.2744242782593,131.6924334411621 170.2744242782593,148.2074334411621 C170.2744242782593,156.64743344116212 173.76942427825927,162.6334334411621 179.39242427825928,166.4714334411621 C181.5654242782593,167.9544334411621 182.88342427825927,170.4004334411621 182.88342427825927,173.0324334411621 V176.4434334411621 C182.88342427825927,179.21143344116211 185.12742427825927,181.4544334411621 187.89442427825927,181.4544334411621 C190.66242427825927,181.4544334411621 192.9054242782593,179.21143344116211 192.9054242782593,176.4434334411621 V174.4184334411621 C192.9054242782593,172.8174334411621 194.2684242782593,171.5484334411621 195.8634242782593,171.67743344116212 C197.27242427825928,171.7914334411621 198.71242427825928,171.8474334411621 200.17642427825928,171.8474334411621 C201.64142427825928,171.8474334411621 203.08242427825928,171.7914334411621 204.49042427825927,171.67743344116212 C206.08542427825927,171.5484334411621 207.44842427825927,172.8174334411621 207.44842427825927,174.4184334411621 V176.4434334411621 C207.44842427825927,179.21143344116211 209.6914242782593,181.4544334411621 212.4594242782593,181.4544334411621 C215.2264242782593,181.4544334411621 217.4704242782593,179.21143344116211 217.4704242782593,176.4434334411621 V173.0324334411621 C217.4704242782593,170.4004334411621 218.78842427825927,167.9544334411621 220.96142427825927,166.4714334411621 C226.58542427825927,162.6334334411621 230.08042427825927,156.64743344116212 230.08042427825927,148.2074334411621 z" fill="#FFABD3" id="svg_47" class=""/><path d="M212.48342427825926,149.4074334411621 C212.48342427825926,143.69443344116212 206.97342427825927,139.06343344116212 200.17742427825928,139.06343344116212 C193.38042427825928,139.06343344116212 187.87142427825927,143.69443344116212 187.87142427825927,149.4074334411621 C187.87142427825927,155.1204334411621 193.38042427825928,159.7514334411621 200.17742427825928,159.7514334411621 C206.97342427825927,159.7514334411621 212.48342427825926,155.1204334411621 212.48342427825926,149.4074334411621 z" fill="#FFD2E3" id="svg_48" class=""/><path d="M195.66942427825927,153.8304334411621 C194.22742427825926,153.8304334411621 193.05842427825928,152.6624334411621 193.05842427825928,151.2204334411621 V147.5944334411621 C193.05842427825928,146.15343344116212 194.22742427825926,144.9834334411621 195.66942427825927,144.9834334411621 C197.11142427825928,144.9834334411621 198.27942427825928,146.15343344116212 198.27942427825928,147.5944334411621 V151.2204334411621 C198.2804242782593,152.6624334411621 197.11142427825928,153.8304334411621 195.66942427825927,153.8304334411621 z" fill="#516980" id="svg_49" class=""/><path d="M204.6854242782593,153.8304334411621 C203.24342427825928,153.8304334411621 202.07442427825927,152.6624334411621 202.07442427825927,151.2204334411621 V147.5944334411621 C202.07442427825927,146.15343344116212 203.24342427825928,144.9834334411621 204.6854242782593,144.9834334411621 C206.12742427825927,144.9834334411621 207.29642427825928,146.15343344116212 207.29642427825928,147.5944334411621 V151.2204334411621 C207.29642427825928,152.6624334411621 206.12742427825927,153.8304334411621 204.6854242782593,153.8304334411621 z" fill="#516980" id="svg_50" class=""/><path d="M213.16042427825928,139.9574334411621 C212.49342427825928,139.9574334411621 211.9534242782593,139.4174334411621 211.9534242782593,138.7504334411621 V136.7464334411621 C211.9534242782593,136.0794334411621 212.49342427825928,135.5384334411621 213.16042427825928,135.5384334411621 C213.8274242782593,135.5384334411621 214.36742427825928,136.0794334411621 214.36742427825928,136.7464334411621 V138.7504334411621 C214.36742427825928,139.4174334411621 213.8274242782593,139.9574334411621 213.16042427825928,139.9574334411621 z" fill="black" id="svg_51" class=""/><path d="M187.19442427825928,139.9574334411621 C186.52742427825928,139.9574334411621 185.98642427825928,139.4174334411621 185.98642427825928,138.7504334411621 V136.7464334411621 C185.98642427825928,136.0794334411621 186.52742427825928,135.5384334411621 187.19442427825928,135.5384334411621 C187.86142427825928,135.5384334411621 188.40142427825927,136.0794334411621 188.40142427825927,136.7464334411621 V138.7504334411621 C188.40142427825927,139.4174334411621 187.86142427825928,139.9574334411621 187.19442427825928,139.9574334411621 z" fill="black" id="svg_52" class=""/><path d="M224.02242427825928,63.10333344116211 C228.83242427825928,61.0244334411621 236.81242427825927,53.38683344116211 234.93042427825927,49.03193344116211 C233.0484242782593,44.67713344116211 222.0184242782593,45.25433344116211 217.20742427825928,47.33323344116211 C212.39642427825927,49.41213344116211 210.02242427825928,54.627633441162104 211.90442427825928,58.982433441162115 C213.78542427825928,63.337333441162116 219.21142427825927,65.18233344116211 224.02242427825928,63.10333344116211 z" fill="#808BF1" id="svg_53" class=""/><path d="M172.47442427825928,97.5364334411621 C168.18842427825928,97.5364334411621 165.54442427825927,92.85743344116212 167.75542427825928,89.18643344116211 L176.39842427825928,74.83673344116211 H185.31342427825928 L177.58642427825927,94.0814334411621 C176.74742427825927,96.16843344116211 174.72442427825928,97.5364334411621 172.47442427825928,97.5364334411621 z" fill="#D9DDFF" id="svg_54" class=""/><path d="M184.86842427825928,97.5364334411621 C180.71842427825928,97.5364334411621 177.88242427825926,93.34143344116211 179.42842427825929,89.49043344116211 L185.31342427825928,74.83623344116211 H194.22742427825926 L190.61542427825927,92.8284334411621 C190.0654242782593,95.5664334411621 187.6614242782593,97.5364334411621 184.86842427825928,97.5364334411621 z" fill="#8CCDE9" id="svg_55" class=""/><path d="M184.86842427825928,97.5364334411621 C180.71842427825928,97.5364334411621 177.88242427825926,93.34143344116211 179.42842427825929,89.49043344116211 L185.31342427825928,74.83623344116211 H194.22742427825926 L190.61542427825927,92.8284334411621 C190.0654242782593,95.5664334411621 187.6614242782593,97.5364334411621 184.86842427825928,97.5364334411621 z" fill="#D9DDFF" id="svg_56" class=""/><path d="M197.07542427825928,97.5364334411621 C193.24542427825926,97.5364334411621 190.37442427825928,94.0304334411621 191.12842427825927,90.27543344116211 L194.22742427825926,74.83623344116211 H203.14242427825928 V91.46943344116211 C203.14242427825928,94.82043344116211 200.42642427825928,97.5364334411621 197.07542427825928,97.5364334411621 z" fill="#D9DDFF" id="svg_57" class=""/><path d="M195.21142427825927,32.04923344116211 C194.64242427825928,32.04923344116211 194.14242427825928,31.633933441162107 194.0544242782593,31.05393344116211 C193.80642427825927,29.430333441162112 192.87342427825928,27.93563344116211 191.4944242782593,26.95343344116211 C190.10942427825927,25.966733441162113 188.41242427825927,25.59483344116211 186.7144242782593,25.906133441162112 C186.0784242782593,26.023433441162112 185.46742427825927,25.601433441162108 185.35042427825928,24.964833441162106 C185.23342427825926,24.32833344116211 185.6554242782593,23.71753344116211 186.29142427825929,23.60083344116211 C188.61842427825928,23.17443344116211 190.94942427825927,23.68673344116211 192.85442427825927,25.044433441162113 C194.74642427825927,26.39233344116211 196.02842427825928,28.453933441162107 196.37142427825927,30.700533441162108 C196.46942427825928,31.34033344116211 196.02942427825928,31.938033441162112 195.38942427825927,32.03563344116211 C195.32942427825927,32.04483344116211 195.27042427825927,32.04923344116211 195.21142427825927,32.04923344116211 z" fill="#00B3FF" id="svg_58" class=""/><path d="M221.30842427825928,59.796633441162115 C221.30842427825928,42.76973344116211 209.6254242782593,28.96663344116211 195.21242427825928,28.96663344116211 C180.80042427825927,28.96663344116211 169.11642427825927,42.76973344116211 169.11642427825927,59.796633441162115 C169.11642427825927,76.82353344116211 180.80042427825927,82.32143344116211 195.21242427825928,82.32143344116211 C209.6254242782593,82.32143344116211 221.30842427825928,76.82353344116211 221.30842427825928,59.796633441162115 z" fill="#D9DDFF" id="svg_59" class=""/><path d="M188.37042427825926,56.974833441162104 C190.95442427825927,56.974833441162104 193.04942427825927,55.30653344116212 193.04942427825927,53.24853344116211 C193.04942427825927,51.190633441162106 190.95442427825927,49.522333441162104 188.37042427825926,49.522333441162104 C185.78542427825928,49.522333441162104 183.6914242782593,51.190633441162106 183.6914242782593,53.24853344116211 C183.6914242782593,55.30653344116212 185.78542427825928,56.974833441162104 188.37042427825926,56.974833441162104 z" fill="#FFA6BB" id="svg_60" class=""/><path d="M213.7324242782593,56.974833441162104 C216.31742427825927,56.974833441162104 218.4114242782593,55.30653344116212 218.4114242782593,53.24853344116211 C218.4114242782593,51.190633441162106 216.31742427825927,49.522333441162104 213.7324242782593,49.522333441162104 C211.14842427825928,49.522333441162104 209.05342427825929,51.190633441162106 209.05342427825929,53.24853344116211 C209.05342427825929,55.30653344116212 211.14842427825928,56.974833441162104 213.7324242782593,56.974833441162104 z" fill="#FFA6BB" id="svg_61" class=""/><path d="M200.38642427825928,46.48903344116211 L197.33842427825928,50.169033441162114 C196.81742427825927,50.79853344116211 196.89242427825928,51.72883344116211 197.50842427825927,52.266333441162104 L200.03942427825928,54.47553344116211 C200.6194242782593,54.9816334411621 201.48442427825927,54.9816334411621 202.06442427825928,54.47553344116211 L204.5954242782593,52.266333441162104 C205.21142427825927,51.72883344116211 205.2864242782593,50.79853344116211 204.76542427825927,50.169033441162114 L201.71742427825927,46.48903344116211 C201.37242427825927,46.07183344116211 200.7324242782593,46.07183344116211 200.38642427825928,46.48903344116211 z" fill="#64E400" id="svg_62" class=""/><path opacity="0.1" d="M200.85642427825928,46.200033441162105 C200.68042427825927,46.24083344116211 200.51342427825927,46.336433441162114 200.38642427825928,46.489433441162106 L197.33842427825928,50.169233441162106 C196.81742427825927,50.7988334411621 196.89242427825928,51.729133441162105 197.50842427825927,52.266633441162114 L200.03942427825928,54.47583344116211 C200.52842427825928,54.901933441162114 201.21742427825927,54.967833441162114 201.76942427825927,54.676433441162104 C199.25342427825927,53.52333344116211 200.23442427825927,48.066433441162104 200.85642427825928,46.200033441162105 z" fill="black" id="svg_63" class=""/><path d="M193.32442427825927,50.365233441162104 C192.67742427825928,50.365233441162104 192.15342427825928,49.840733441162115 192.15342427825928,49.19333344116211 C192.15342427825928,48.6113334411621 191.6794242782593,48.13803344116211 191.09742427825927,48.13803344116211 C190.51542427825927,48.13803344116211 190.0424242782593,48.6113334411621 190.0424242782593,49.19333344116211 C190.0424242782593,49.840733441162115 189.51742427825928,50.365233441162104 188.87042427825926,50.365233441162104 C188.22342427825927,50.365233441162104 187.69842427825927,49.840733441162115 187.69842427825927,49.19333344116211 C187.69842427825927,47.31913344116211 189.22342427825927,45.794233441162106 191.09742427825927,45.794233441162106 C192.97142427825926,45.794233441162106 194.49642427825927,47.31913344116211 194.49642427825927,49.19333344116211 C194.49642427825927,49.84053344116211 193.97242427825927,50.365233441162104 193.32442427825927,50.365233441162104 z" fill="black" id="svg_64" class=""/><path d="M213.23342427825926,50.365233441162104 C212.58542427825927,50.365233441162104 212.06142427825927,49.840733441162115 212.06142427825927,49.19333344116211 C212.06142427825927,48.6113334411621 211.58742427825928,48.13803344116211 211.0064242782593,48.13803344116211 C210.42442427825927,48.13803344116211 209.95042427825928,48.6113334411621 209.95042427825928,49.19333344116211 C209.95042427825928,49.840733441162115 209.42642427825928,50.365233441162104 208.77842427825928,50.365233441162104 C208.1314242782593,50.365233441162104 207.6074242782593,49.840733441162115 207.6074242782593,49.19333344116211 C207.6074242782593,47.31913344116211 209.1314242782593,45.794233441162106 211.0064242782593,45.794233441162106 C212.88042427825928,45.794233441162106 214.4054242782593,47.31913344116211 214.4054242782593,49.19333344116211 C214.4054242782593,49.84053344116211 213.88042427825928,50.365233441162104 213.23342427825926,50.365233441162104 z" fill="black" id="svg_65" class=""/><path opacity="0.47" d="M194.18142427825927,28.99253344116211 C180.24642427825927,29.632633441162106 169.11642427825927,43.17783344116211 169.11642427825927,59.79643344116211 C169.11642427825927,76.8233334411621 180.80042427825927,82.32143344116211 195.21242427825928,82.32143344116211 C199.53542427825928,82.32143344116211 203.6134242782593,81.8254334411621 207.2034242782593,80.67333344116211 C174.45442427825927,73.9375334411621 185.93842427825928,36.49083344116211 194.18142427825927,28.99253344116211 z" fill="#8692FF" id="svg_66" class=""/><path d="M192.60242427825926,86.64043344116212 C190.91542427825928,86.64043344116212 189.5484242782593,85.27243344116211 189.5484242782593,83.58543344116211 V80.20883344116211 C189.5484242782593,78.5219334411621 190.91542427825928,77.1546334411621 192.60242427825926,77.1546334411621 C194.28942427825928,77.1546334411621 195.65642427825927,78.5219334411621 195.65642427825927,80.20883344116211 V83.58543344116211 C195.65642427825927,85.27243344116211 194.28942427825928,86.64043344116212 192.60242427825926,86.64043344116212 z" fill="#64E400" id="svg_67" class=""/><path d="M208.46242427825928,86.64043344116212 C210.14842427825928,86.64043344116212 211.51642427825928,85.27243344116211 211.51642427825928,83.58543344116211 V80.20883344116211 C211.51642427825928,78.5219334411621 210.14842427825928,77.1546334411621 208.46242427825928,77.1546334411621 C206.77542427825927,77.1546334411621 205.40742427825927,78.5219334411621 205.40742427825927,80.20883344116211 V83.58543344116211 C205.40742427825927,85.27243344116211 206.77542427825927,86.64043344116212 208.46242427825928,86.64043344116212 z" fill="#64E400" id="svg_68" class=""/><path d="M166.40242427825928,63.10333344116211 C161.59242427825927,61.0244334411621 153.61242427825928,53.38683344116211 155.4944242782593,49.03193344116211 C157.37642427825926,44.67713344116211 168.40642427825927,45.25433344116211 173.21742427825927,47.33323344116211 C178.02842427825928,49.41213344116211 180.40242427825928,54.627633441162104 178.52042427825927,58.982433441162115 C176.63942427825927,63.337333441162116 171.21342427825928,65.18233344116211 166.40242427825928,63.10333344116211 z" fill="#808BF1" id="svg_69" class=""/><path d="M288.7914242782593,65.82903344116211 C288.51342427825927,66.10643344116211 288.17942427825926,66.33603344116212 287.7954242782593,66.4984334411621 C286.2004242782593,67.17363344116211 284.35942427825927,66.4277334411621 283.68442427825926,64.8322334411621 C281.7174242782593,60.18683344116211 279.8374242782593,58.43473344116211 277.6594242782593,56.405933441162105 C275.08342427825926,54.00663344116211 272.1644242782593,51.28713344116211 269.31642427825926,44.26723344116211 C268.66542427825925,42.661733441162106 269.43942427825925,40.83223344116211 271.04442427825927,40.18103344116211 C272.65042427825927,39.52993344116211 274.4794242782593,40.30353344116211 275.13142427825926,41.90893344116211 C277.4564242782593,47.642633441162104 279.6324242782593,49.669233441162106 281.9354242782593,51.815033441162115 C284.29742427825926,54.01483344116211 286.9734242782593,56.50843344116211 289.4614242782593,62.38643344116211 C289.9744242782593,63.598833441162114 289.66742427825926,64.95243344116211 288.7914242782593,65.82903344116211 z" fill="#FF8DBF" id="svg_70" class=""/><path d="M297.8994242782593,62.53103344116211 C297.2434242782593,63.18743344116211 296.3034242782593,63.54733344116211 295.3104242782593,63.429433441162104 C293.5894242782593,63.2252334411621 292.3604242782593,61.66503344116211 292.56442427825925,59.94453344116211 C293.0054242782593,56.235033441162116 290.4504242782593,53.448333441162106 286.2454242782593,49.20873344116211 C282.18642427825927,45.11523344116211 277.5844242782593,40.47543344116211 276.35242427825926,33.43783344116211 C276.0534242782593,31.73123344116211 277.1954242782593,30.105633441162112 278.9014242782593,29.80693344116211 C280.6084242782593,29.508233441162112 282.23442427825927,30.649533441162106 282.53242427825927,32.35613344116211 C283.4254242782593,37.45503344116211 287.1234242782593,41.18433344116211 290.7004242782593,44.79073344116211 C292.78542427825926,46.89313344116211 294.94142427825926,49.06713344116211 296.4914242782593,51.48493344116211 C298.41942427825927,54.49203344116211 299.17242427825926,57.500933441162104 298.7954242782593,60.68393344116211 C298.7094242782593,61.41083344116211 298.3804242782593,62.05043344116211 297.8994242782593,62.53103344116211 z" fill="#FF8DBF" id="svg_71" class=""/><path d="M318.5864242782593,36.03413344116211 C318.8634242782593,35.75673344116211 319.09342427825925,35.42233344116211 319.2554242782593,35.03883344116211 C319.9304242782593,33.44333344116211 319.1854242782593,31.602433441162113 317.5894242782593,30.927133441162113 C312.9444242782593,28.96083344116211 311.1924242782593,27.080033441162108 309.1634242782593,24.90203344116211 C306.76342427825927,22.32643344116211 304.04442427825927,19.407233441162113 297.0244242782593,16.55993344116211 C295.41942427825927,15.908733441162113 293.5894242782593,16.682533441162107 292.9384242782593,18.28793344116211 C292.28742427825927,19.893333441162106 293.0604242782593,21.72283344116211 294.6664242782593,22.374033441162112 C300.3994242782593,24.699433441162107 302.4264242782593,26.875133441162106 304.5724242782593,29.178633441162113 C306.7724242782593,31.540133441162112 309.2654242782593,34.21693344116211 315.14342427825926,36.70473344116211 C316.3564242782593,37.21783344116211 317.7094242782593,36.91083344116211 318.5864242782593,36.03413344116211 z" fill="#FF8DBF" id="svg_72" class=""/><path d="M315.2884242782593,45.14293344116211 C315.9444242782593,44.48663344116211 316.30442427825926,43.54683344116211 316.18642427825927,42.55353344116211 C315.98242427825926,40.83293344116211 314.42242427825926,39.60383344116211 312.70142427825925,39.80783344116211 C308.99242427825925,40.24803344116211 306.2054242782593,37.69323344116211 301.9664242782593,33.48873344116211 C297.8724242782593,29.42893344116211 293.23242427825926,24.827233441162107 286.1954242782593,23.59553344116211 C284.4884242782593,23.296833441162107 282.86242427825925,24.43813344116211 282.56442427825925,26.14473344116211 C282.2654242782593,27.85133344116211 283.4064242782593,29.47713344116211 285.1134242782593,29.775633441162107 C290.2124242782593,30.66823344116211 293.94142427825926,34.36673344116211 297.5484242782593,37.94343344116211 C299.65042427825927,40.02843344116211 301.8244242782593,42.18453344116211 304.24242427825925,43.73453344116211 C307.24942427825926,45.662333441162104 310.25842427825927,46.415733441162104 313.44142427825926,46.0381334411621 C314.1684242782593,45.952033441162115 314.8074242782593,45.623433441162106 315.2884242782593,45.14293344116211 z" fill="#FF8DBF" id="svg_73" class=""/><path d="M297.0244242782593,16.55933344116211 C295.41942427825927,15.908033441162111 293.5894242782593,16.68193344116211 292.9384242782593,18.287433441162108 C292.28742427825927,19.89283344116211 293.06142427825927,21.722333441162107 294.6664242782593,22.37353344116211 C297.5984242782593,23.562433441162106 299.55942427825926,24.71213344116211 301.06442427825925,25.86003344116211 C301.42442427825927,25.570133441162106 301.77842427825925,25.25843344116211 302.11942427825926,24.917133441162107 L302.18142427825927,24.85533344116211 C303.33542427825927,23.684233441162107 304.27342427825926,22.367233441162107 304.9784242782593,20.94933344116211 C303.10242427825926,19.50433344116211 300.6324242782593,18.02233344116211 297.0244242782593,16.55933344116211 z" fill="#EB5E8A" id="svg_74" class=""/><path d="M296.64842427825926,28.58713344116211 C293.75842427825927,26.275433441162107 290.4064242782593,24.33183344116211 286.1954242782593,23.59483344116211 C284.4884242782593,23.296133441162112 282.8634242782593,24.437433441162106 282.56442427825925,26.144033441162108 C282.2654242782593,27.850533441162106 283.40742427825927,29.47633344116211 285.1134242782593,29.774933441162112 C287.3484242782593,30.16613344116211 289.3204242782593,31.096633441162112 291.1344242782593,32.31973344116211 C292.70342427825926,31.04183344116211 294.3294242782593,29.914333441162107 295.9974242782593,28.951533441162113 C296.2074242782593,28.830633441162107 296.42442427825927,28.709733441162108 296.64842427825926,28.58713344116211 z" fill="#EB5E8A" id="svg_75" class=""/><path d="M278.9024242782593,29.80613344116211 C277.1954242782593,30.105033441162107 276.05442427825926,31.730433441162113 276.3534242782593,33.43703344116211 C277.09042427825926,37.64773344116211 279.0344242782593,40.99953344116211 281.34542427825926,43.89003344116211 C281.46842427825925,43.66643344116211 281.58842427825925,43.44913344116211 281.71042427825927,43.239433441162106 C282.6734242782593,41.57133344116211 283.8004242782593,39.94553344116211 285.07842427825926,38.37623344116211 C283.85542427825925,36.562433441162106 282.9254242782593,34.59053344116211 282.5334242782593,32.35533344116211 C282.23442427825927,30.648933441162107 280.60942427825927,29.507433441162107 278.9024242782593,29.80613344116211 z" fill="#EB5E8A" id="svg_76" class=""/><path d="M271.0454242782593,40.18073344116211 C269.43942427825925,40.83193344116211 268.66542427825925,42.66133344116211 269.3174242782593,44.266833441162106 C270.78042427825926,47.874133441162115 272.2624242782593,50.34433344116211 273.7064242782593,52.22063344116211 C275.12442427825926,51.51513344116211 276.44142427825926,50.5775334411621 277.61242427825925,49.423033441162104 C277.61242427825925,49.423033441162104 277.67442427825927,49.36153344116211 277.67442427825927,49.361433441162106 C278.01642427825925,49.020233441162105 278.3274242782593,48.666633441162105 278.61742427825925,48.30643344116211 C277.4694242782593,46.80153344116211 276.3204242782593,44.84023344116211 275.13142427825926,41.90883344116211 C274.48042427825925,40.30323344116211 272.65042427825927,39.52973344116211 271.0454242782593,40.18073344116211 z" fill="#EB5E8A" id="svg_77" class=""/><path d="M285.2214242782593,32.46383344116211 C287.8824242782593,29.80333344116211 290.8074242782593,27.48743344116211 294.06642427825926,25.60623344116211 C295.89542427825927,24.550233441162106 297.9264242782593,23.66853344116211 299.42942427825926,22.143133441162107 C304.0634242782593,17.443033441162108 303.60042427825925,10.06253344116211 298.7794242782593,5.798433441162111 C287.9974242782593,-3.737566558837891 270.51642427825925,-0.5951665588378923 261.3394242782593,8.58183344116211 C252.16242427825927,17.75863344116211 249.02042427825927,35.239433441162106 258.55642427825927,46.02133344116211 C262.8204242782593,50.84223344116211 270.20142427825925,51.30553344116211 274.9014242782593,46.67193344116211 C276.4264242782593,45.16833344116211 277.3084242782593,43.13773344116211 278.36442427825926,41.30823344116211 C280.2454242782593,38.04953344116211 282.56142427825927,35.12423344116211 285.2214242782593,32.46383344116211 z" fill="#FF8DBF" id="svg_78" class=""/><path d="M261.2884242782593,43.28963344116211 C252.22242427825927,33.04003344116211 254.6154242782593,16.736833441162112 262.7574242782593,7.268433441162109 C262.26642427825925,7.691233441162108 261.79242427825926,8.128833441162108 261.3394242782593,8.58183344116211 C252.16242427825927,17.75863344116211 249.02042427825927,35.239433441162106 258.55642427825927,46.02133344116211 C262.8204242782593,50.84223344116211 270.2004242782593,51.30553344116211 274.9014242782593,46.67193344116211 C275.3584242782593,46.220833441162114 275.7574242782593,45.721833441162104 276.12142427825927,45.19573344116211 C271.46342427825925,48.43343344116211 265.1184242782593,47.62013344116211 261.2884242782593,43.28963344116211 z" fill="#EB5E8A" id="svg_79" class=""/><path d="M271.76142427825926,35.70873344116211 C271.3844242782593,36.08593344116211 270.77342427825926,36.08583344116211 270.3964242782593,35.70873344116211 L268.8844242782593,34.19723344116211 C268.5074242782593,33.82003344116211 268.5074242782593,33.20863344116211 268.8844242782593,32.83143344116211 C269.26142427825926,32.45413344116211 269.8734242782593,32.45423344116211 270.2504242782593,32.83143344116211 L271.76142427825926,34.34293344116211 C272.1394242782593,34.72003344116211 272.1394242782593,35.33153344116211 271.76142427825926,35.70873344116211 z" fill="black" id="svg_80" class=""/><path d="M288.46542427825926,19.005333441162108 C288.08842427825925,19.38253344116211 287.4764242782593,19.382433441162107 287.0994242782593,19.005333441162108 L285.58842427825925,17.493733441162107 C285.2114242782593,17.116633441162108 285.2114242782593,16.50523344116211 285.58842427825925,16.12803344116211 C285.96542427825926,15.750733441162112 286.57642427825925,15.750833441162108 286.9544242782593,16.12803344116211 L288.46542427825926,17.639533441162108 C288.8424242782593,18.016633441162107 288.8424242782593,18.628133441162106 288.46542427825926,19.005333441162108 z" fill="black" id="svg_81" class=""/><path d="M280.9204242782593,28.163633441162112 C279.91942427825927,29.16403344116211 278.5634242782593,29.68543344116211 277.1994242782593,29.593633441162112 C276.66742427825926,29.557933441162106 276.2644242782593,29.09763344116211 276.3004242782593,28.565433441162106 C276.3364242782593,28.033133441162107 276.7964242782593,27.63063344116211 277.32842427825926,27.666433441162113 C278.13642427825926,27.720633441162107 278.94842427825927,27.404033441162106 279.55442427825926,26.79773344116211 C280.16042427825926,26.19143344116211 280.47742427825926,25.38013344116211 280.4234242782593,24.57213344116211 C280.3874242782593,24.039933441162113 280.7894242782593,23.579333441162106 281.32142427825926,23.54393344116211 C281.8544242782593,23.50813344116211 282.31442427825925,23.910433441162112 282.35042427825925,24.442833441162108 C282.4424242782593,25.80693344116211 281.9204242782593,27.16313344116211 280.9204242782593,28.163633441162112 z" fill="black" id="svg_82" class=""/><path d="M282.6184242782593,189.2324334411621 C283.14342427825926,189.4234334411621 283.72042427825926,189.49843344116212 284.3134242782593,189.4294334411621 C286.3484242782593,189.1924334411621 287.80642427825927,187.3504334411621 287.5694242782593,185.3154334411621 L287.3204242782593,183.1794334411621 L290.04742427825926,181.3094334411621 C292.7814242782593,179.4344334411621 294.1974242782593,176.1084334411621 293.6544242782593,172.83743344116212 L292.6524242782593,166.8064334411621 C292.3174242782593,164.7854334411621 290.40742427825927,163.4184334411621 288.3854242782593,163.75443344116212 C286.36442427825926,164.0894334411621 284.9974242782593,166.0004334411621 285.33342427825926,168.02143344116212 L286.3344242782593,174.0534334411621 C286.40742427825927,174.49243344116212 286.2174242782593,174.93943344116212 285.85042427825925,175.1914334411621 L281.2794242782593,178.32643344116212 C280.1444242782593,179.10543344116212 279.5334242782593,180.4484334411621 279.6924242782593,181.8154334411621 L280.1994242782593,186.1734334411621 C280.36742427825925,187.6154334411621 281.34042427825926,188.7674334411621 282.6184242782593,189.2324334411621 z" fill="#1EB06F" id="svg_83" class=""/><path d="M260.8844242782593,181.3214334411621 C262.1614242782593,181.7864334411621 263.6474242782593,181.5294334411621 264.70342427825926,180.5324334411621 L267.89342427825926,177.5204334411621 C268.89342427825926,176.57543344116212 269.2884242782593,175.1544334411621 268.9204242782593,173.8284334411621 L267.4334242782593,168.4874334411621 C267.3134242782593,168.05843344116212 267.4554242782593,167.5944334411621 267.7934242782593,167.3054334411621 L272.4384242782593,163.3274334411621 C273.99442427825926,161.9954334411621 274.1754242782593,159.65343344116212 272.8424242782593,158.0974334411621 C271.5104242782593,156.54043344116212 269.1684242782593,156.3594334411621 267.61242427825925,157.6924334411621 L262.9674242782593,161.6694334411621 C260.4494242782593,163.82543344116212 259.3964242782593,167.28343344116212 260.28542427825926,170.4774334411621 L261.17242427825926,173.6624334411621 L259.6084242782593,175.1394334411621 C258.11942427825926,176.54543344116212 258.05242427825925,178.8934334411621 259.45842427825926,180.3834334411621 C259.8684242782593,180.8174334411621 260.3584242782593,181.1304334411621 260.8844242782593,181.3214334411621 z" fill="#1EB06F" id="svg_84" class=""/><path d="M267.42442427825927,153.5594334411621 C268.9574242782593,154.11743344116212 270.73242427825926,153.61043344116212 271.7194242782593,152.2144334411621 C272.90342427825925,150.5414334411621 272.50642427825926,148.2264334411621 270.83342427825926,147.0434334411621 L258.0654242782593,138.0114334411621 C256.39142427825925,136.8274334411621 254.0774242782593,137.22443344116212 252.8944242782593,138.89743344116212 C251.71042427825927,140.57043344116212 252.10742427825926,142.88543344116212 253.78042427825926,144.0684334411621 L266.5484242782593,153.1004334411621 C266.8254242782593,153.29643344116212 267.1204242782593,153.4494334411621 267.42442427825927,153.5594334411621 z" fill="#1EB06F" id="svg_85" class=""/><path d="M295.45342427825926,163.7614334411621 C295.7574242782593,163.87243344116212 296.0804242782593,163.94443344116212 296.4184242782593,163.9724334411621 L312.00642427825926,165.26043344116212 C314.04742427825926,165.4294334411621 315.84042427825926,163.9114334411621 316.00842427825927,161.8694334411621 C316.17742427825925,159.8274334411621 314.6594242782593,158.0354334411621 312.61742427825925,157.86643344116212 L297.03042427825926,156.5784334411621 C294.9884242782593,156.40943344116212 293.19642427825926,157.92743344116212 293.0274242782593,159.9694334411621 C292.88642427825926,161.6734334411621 293.9204242782593,163.2034334411621 295.45342427825926,163.7614334411621 z" fill="#1EB06F" id="svg_86" class=""/><path d="M265.2624242782593,146.9054334411621 C268.1944242782593,138.8514334411621 278.65742427825927,135.26543344116212 288.63342427825927,138.89643344116212 C298.6084242782593,142.5264334411621 304.3194242782593,151.9994334411621 301.38842427825927,160.0534334411621 C298.4574242782593,168.1074334411621 287.99442427825926,171.6924334411621 278.01842427825926,168.0624334411621 C268.04242427825926,164.4314334411621 262.3314242782593,154.9594334411621 265.2624242782593,146.9054334411621 z" fill="#21C37B" id="svg_87" class=""/><path d="M283.95142427825925,151.7564334411621 C289.7674242782593,153.87243344116212 292.4024242782593,161.30143344116212 289.8374242782593,168.34943344116212 C289.7364242782593,168.6264334411621 289.6284242782593,168.89743344116212 289.5144242782593,169.16543344116212 C285.93142427825927,169.8004334411621 281.93642427825927,169.4874334411621 278.0174242782593,168.0614334411621 C274.0984242782593,166.63443344116212 270.8374242782593,164.3064334411621 268.5004242782593,161.51643344116212 C268.58542427825927,161.2384334411621 268.67742427825925,160.96143344116211 268.7774242782593,160.6844334411621 C271.3424242782593,153.6374334411621 278.13642427825926,149.6394334411621 283.95142427825925,151.7564334411621 z" fill="#95E749" id="svg_88" class=""/><path opacity="0.05" d="M288.63342427825927,138.8954334411621 C298.2984242782593,142.4134334411621 303.9594242782593,151.41443344116212 301.6374242782593,159.29643344116212 C300.46842427825925,159.44543344116212 299.2524242782593,159.52243344116212 297.9904242782593,159.52243344116212 C297.98942427825926,159.52243344116212 297.98942427825926,159.52243344116212 297.98942427825926,159.52243344116212 C293.2144242782593,159.52243344116212 287.9214242782593,158.4764334411621 282.25642427825926,156.41543344116212 C275.11442427825926,153.8154334411621 269.38342427825927,150.2934334411621 265.55642427825927,146.1684334411621 C268.8424242782593,138.63443344116212 278.9664242782593,135.3764334411621 288.63342427825927,138.8954334411621 z" fill="black" id="svg_89" class=""/><path d="M269.1044242782593,119.6264334411621 C269.3324242782593,119.40643344116211 269.4904242782593,119.12243344116212 269.5454242782593,118.8094334411621 C269.65742427825927,118.1674334411621 269.8254242782593,117.52743344116212 270.05642427825927,116.8944334411621 C272.19142427825926,111.02843344116212 278.6764242782593,108.0044334411621 284.54242427825926,110.13943344116211 C286.0634242782593,110.69243344116211 287.3924242782593,111.54043344116212 288.4904242782593,112.59343344116212 C288.76142427825926,112.85343344116211 289.11242427825925,113.00943344116212 289.4864242782593,113.04343344116211 C292.1034242782593,113.27843344116212 294.7654242782593,113.85943344116211 297.3964242782593,114.81743344116211 C300.0274242782593,115.77543344116211 302.4404242782593,117.04043344116212 304.59542427825926,118.5424334411621 C304.90342427825925,118.7574334411621 305.27342427825926,118.8634334411621 305.64842427825926,118.8384334411621 C307.1664242782593,118.7384334411621 308.7294242782593,118.94243344116211 310.2504242782593,119.49643344116211 C316.1154242782593,121.6314334411621 319.1404242782593,128.11643344116212 317.0054242782593,133.9814334411621 C316.7744242782593,134.6154334411621 316.49242427825925,135.2144334411621 316.16542427825925,135.77743344116212 C316.00642427825926,136.05243344116212 315.9454242782593,136.3714334411621 315.9784242782593,136.6874334411621 C316.2914242782593,139.68943344116212 315.96042427825927,142.7344334411621 314.89342427825926,145.6664334411621 C310.5484242782593,157.60543344116212 297.33342427825926,158.57643344116212 283.3254242782593,153.4784334411621 C269.31642427825926,148.37943344116212 259.8184242782593,139.14043344116212 264.1634242782593,127.2024334411621 C265.23042427825925,124.27043344116211 266.93442427825926,121.72443344116212 269.1044242782593,119.6264334411621 z" fill="#21C47B" id="svg_90" class=""/><path d="M299.59342427825925,135.5254334411621 C300.39842427825926,133.31443344116212 303.3014242782593,132.34243344116211 306.07842427825926,133.3524334411621 C308.8544242782593,134.3634334411621 310.45342427825926,136.97443344116212 309.64842427825926,139.1844334411621 C308.8444242782593,141.3954334411621 305.94142427825926,142.3684334411621 303.1644242782593,141.3574334411621 C300.38842427825927,140.3474334411621 298.7894242782593,137.73643344116212 299.59342427825925,135.5254334411621 z" fill="#FFA6BB" id="svg_91" class=""/><path d="M282.4024242782593,129.26543344116212 C281.5984242782593,131.4764334411621 278.6954242782593,132.4494334411621 275.9184242782593,131.43843344116212 C273.1424242782593,130.4284334411621 271.5434242782593,127.8164334411621 272.3484242782593,125.6064334411621 C273.1524242782593,123.39543344116211 276.0554242782593,122.4234334411621 278.8324242782593,123.43343344116212 C281.6084242782593,124.44443344116212 283.2074242782593,127.05543344116211 282.4024242782593,129.26543344116212 z" fill="#FFA6BB" id="svg_92" class=""/><path d="M305.50142427825926,133.4934334411621 C305.98042427825925,133.4934334411621 306.42942427825926,133.1984334411621 306.6034242782593,132.7224334411621 L307.38842427825927,130.56443344116212 C307.60942427825927,129.95643344116212 307.2964242782593,129.28443344116212 306.6884242782593,129.0624334411621 C306.0794242782593,128.8414334411621 305.40742427825927,129.1544334411621 305.18642427825927,129.7634334411621 L304.40042427825927,131.92043344116212 C304.17942427825926,132.5294334411621 304.4934242782593,133.20143344116212 305.1014242782593,133.4224334411621 C305.2334242782593,133.4704334411621 305.3684242782593,133.4934334411621 305.50142427825926,133.4934334411621 z" fill="black" id="svg_93" class=""/><path d="M290.79242427825926,132.96143344116211 C292.8034242782593,133.6934334411621 295.0274242782593,132.6564334411621 295.7594242782593,130.6454334411621 L296.7234242782593,127.99743344116212 C296.9234242782593,127.44843344116211 296.6404242782593,126.84143344116211 296.0914242782593,126.64143344116212 L290.7954242782593,124.7134334411621 C290.24642427825927,124.5134334411621 289.6394242782593,124.7974334411621 289.43942427825925,125.3464334411621 L288.47542427825925,127.9934334411621 C287.7434242782593,130.0054334411621 288.78042427825926,132.22943344116212 290.79242427825926,132.96143344116211 z" fill="black" id="svg_94" class=""/><path d="M279.9354242782593,124.18843344116212 C280.4144242782593,124.18843344116212 280.8634242782593,123.8924334411621 281.0364242782593,123.4164334411621 L281.8224242782593,121.25843344116211 C282.0434242782593,120.65043344116211 281.7294242782593,119.97843344116211 281.12142427825927,119.7564334411621 C280.51342427825927,119.5354334411621 279.8414242782593,119.84943344116212 279.61942427825926,120.4574334411621 L278.8344242782593,122.6144334411621 C278.6134242782593,123.22343344116211 278.9264242782593,123.89543344116211 279.5344242782593,124.11643344116212 C279.66742427825926,124.16543344116212 279.80242427825925,124.18843344116212 279.9354242782593,124.18843344116212 z" fill="black" id="svg_95" class=""/><path opacity="0.1" d="M305.9434242782593,135.8404334411621 C313.47542427825925,132.6604334411621 314.0024242782593,124.5304334411621 311.82142427825926,120.20643344116212 C316.63642427825926,122.8404334411621 318.9404242782593,128.66543344116212 317.0054242782593,133.9824334411621 C316.7764242782593,134.61143344116212 316.4954242782593,135.2074334411621 316.1714242782593,135.7684334411621 C316.0154242782593,136.0384334411621 315.9424242782593,136.34943344116212 315.97542427825925,136.65943344116212 C316.2934242782593,139.67043344116212 315.96342427825925,142.7254334411621 314.89342427825926,145.6664334411621 C310.5484242782593,157.60543344116212 297.33342427825926,158.5774334411621 283.3244242782593,153.4784334411621 C282.2234242782593,153.0774334411621 281.15042427825927,152.6514334411621 280.1104242782593,152.20043344116212 C296.5174242782593,156.8104334411621 301.27842427825925,146.4834334411621 303.41742427825926,138.6994334411621 C303.77342427825926,137.4064334411621 304.7074242782593,136.3624334411621 305.9434242782593,135.8404334411621 z" fill="black" id="svg_96" class=""/><g opacity="0.1" id="svg_97" class="">
<path opacity="0.1" d="M272.40042427825927,142.7384334411621 C271.7524242782593,142.7384334411621 271.2264242782593,142.21243344116212 271.2264242782593,141.56343344116212 C271.2264242782593,140.91543344116212 271.7524242782593,140.3894334411621 272.40042427825927,140.3894334411621 C273.04942427825927,140.3894334411621 273.5744242782593,140.91543344116212 273.5744242782593,141.56343344116212 C273.5744242782593,142.21243344116212 273.04942427825927,142.7384334411621 272.40042427825927,142.7384334411621 z" fill="black" id="svg_98"/>
<path opacity="0.1" d="M313.0464242782593,129.31943344116212 C312.3974242782593,129.31943344116212 311.8724242782593,128.7934334411621 311.8724242782593,128.1454334411621 C311.8724242782593,127.49643344116211 312.3974242782593,126.9714334411621 313.0464242782593,126.9714334411621 C313.6944242782593,126.9714334411621 314.22042427825926,127.49643344116211 314.22042427825926,128.1454334411621 C314.22042427825926,128.7934334411621 313.6944242782593,129.31943344116212 313.0464242782593,129.31943344116212 z" fill="black" id="svg_99"/>
<path opacity="0.1" d="M295.61942427825926,163.2624334411621 C294.9714242782593,163.2624334411621 294.4454242782593,162.7374334411621 294.4454242782593,162.0884334411621 C294.4454242782593,161.4404334411621 294.9714242782593,160.91443344116212 295.61942427825926,160.91443344116212 C296.2674242782593,160.91443344116212 296.7934242782593,161.4404334411621 296.7934242782593,162.0884334411621 C296.7934242782593,162.7374334411621 296.2674242782593,163.2624334411621 295.61942427825926,163.2624334411621 z" fill="black" id="svg_100"/>
<path opacity="0.1" d="M269.6474242782593,137.17043344116212 C268.99942427825926,137.17043344116212 268.4734242782593,136.6454334411621 268.4734242782593,135.9964334411621 C268.4734242782593,135.34843344116211 268.99942427825926,134.8224334411621 269.6474242782593,134.8224334411621 C270.2964242782593,134.8224334411621 270.82142427825926,135.34843344116211 270.82142427825926,135.9964334411621 C270.82142427825926,136.6454334411621 270.2964242782593,137.17043344116212 269.6474242782593,137.17043344116212 z" fill="black" id="svg_101"/>
</g></g></svg>