<svg xmlns="http://www.w3.org/2000/svg" width="344.9999999254942" height="217.5000002607702" fill="none"><rect id="backgroundrect" width="100%" height="100%" x="0" y="0" fill="none" stroke="none" class="" style=""/>



























<defs>
<filter id="filter0_d" x="6" y="0" width="326" height="310" filterUnits="userSpaceOnUse" color-interpolation-filters="sRGB">
<feFlood flood-opacity="0" result="BackgroundImageFix"/>
<feColorMatrix in="SourceAlpha" type="matrix" values="0 0 0 0 0 0 0 0 0 0 0 0 0 0 0 0 0 0 127 0"/>
<feOffset dx="3" dy="4"/>
<feGaussianBlur stdDeviation="3.5"/>
<feColorMatrix type="matrix" values="0 0 0 0 0.411765 0 0 0 0 0.411765 0 0 0 0 0.411765 0 0 0 0.22 0"/>
<feBlend mode="normal" in2="BackgroundImageFix" result="effect1_dropShadow"/>
<feBlend mode="normal" in="SourceGraphic" in2="effect1_dropShadow" result="shape"/>
</filter>
<clipPath id="clip0">
<rect width="176" height="176" fill="white" y="19" x="178" id="svg_1"/>
</clipPath>
<clipPath id="clip1">
<rect width="64" height="64" fill="white" transform="rotate(45 70.25489807128905,12) " y="12" x="70.25489807128906" id="svg_2"/>
</clipPath>
<clipPath id="clip2">
<rect width="88" height="88" fill="white" y="139" x="126" id="svg_3"/>
</clipPath>
<clipPath id="clip3">
<rect width="64" height="64" fill="white" transform="rotate(45 130.25500488281256,77.99999999999999) " y="78" x="130.2550048828125" id="svg_4"/>
</clipPath>
<clipPath id="clip4">
<rect width="112" height="112" fill="white" y="99" x="0" id="svg_5"/>
</clipPath>
<clipPath id="clip5">
<rect width="64" height="64" fill="white" transform="matrix(-1,0,0,1,189,17) " id="svg_6"/>
</clipPath>
</defs>
<g class="currentLayer" style=""><title>Layer 1</title><g class="" transform=""><g clip-path="url(#clip0)" id="svg_9" class="">
<path d="M318.582 113.913H338.949C339.203 115.199 339.333 116.528 339.333 117.886V127.843H318.582L314.42 120.878L318.582 113.913Z" fill="#31FF2D" id="svg_10"/>
<path d="M328.957 134.626L339.333 141.411V147.724C339.333 153.455 334.688 158.099 328.957 158.099C323.228 158.099 318.583 153.453 318.583 147.724V141.411L328.957 134.626Z" fill="#31FF2D" id="svg_11"/>
<path d="M240.847 160.92L230.277 165.27V183.482H251.416V165.27L240.847 160.92Z" fill="#EA2F4E" id="svg_12"/>
<path d="M290.923 160.92L301.494 165.27V183.482H280.354V165.27L290.923 160.92Z" fill="#EA2F4E" id="svg_13"/>
<path d="M251.416 149.637V165.27H230.277V149.637L240.847 144.232L251.416 149.637Z" fill="#FFD829" id="svg_14"/>
<path d="M240.846 177.842C233.564 177.842 227.661 183.746 227.661 191.028C227.661 193.222 229.439 195 231.633 195H250.06C252.254 195 254.032 193.222 254.032 191.028C254.032 183.746 248.128 177.842 240.846 177.842Z" fill="#005FCF" id="svg_15"/>
<path d="M280.354 149.637V165.27H301.494V149.637L290.923 144.232L280.354 149.637Z" fill="#FFD829" id="svg_16"/>
<path d="M290.924 177.842C298.208 177.842 304.11 183.746 304.11 191.028C304.11 193.222 302.331 195 300.138 195H281.712C279.517 195 277.738 193.222 277.738 191.028C277.738 183.746 283.642 177.842 290.924 177.842Z" fill="#005FCF" id="svg_17"/>
<path d="M318.581 97.1304C328.682 97.1304 337.097 104.35 338.948 113.912H318.581L313.245 105.521L318.581 97.1304Z" fill="#FF3636" id="svg_18"/>
<path d="M318.581 127.842H339.333V141.411H318.581L312.305 134.626L318.581 127.842Z" fill="#FF3636" id="svg_19"/>
<path d="M213.189 113.913H192.822C192.568 115.199 192.438 116.528 192.438 117.886V127.843H213.189L217.35 120.878L213.189 113.913Z" fill="#04D700" id="svg_20"/>
<path d="M202.813 134.626L192.438 141.411V147.724C192.438 153.455 197.083 158.099 202.813 158.099C208.544 158.099 213.189 153.453 213.189 147.724V141.411L202.813 134.626Z" fill="#04D700" id="svg_21"/>
<path d="M213.188 97.1304C203.088 97.1304 194.673 104.35 192.821 113.912H213.188L218.526 105.521L213.188 97.1304Z" fill="#DC0024" id="svg_22"/>
<path d="M213.189 127.842H192.438V141.411H213.189L219.466 134.626L213.189 127.842Z" fill="#DC0024" id="svg_23"/>
<path d="M213.556 43.4021C210.589 43.4021 208.185 45.8057 208.185 48.7732V67.1746C208.185 70.1407 210.589 72.5456 213.556 72.5456H224.638V43.4021H213.556Z" fill="#DC0024" id="svg_24"/>
<path d="M318.217 43.4021C321.183 43.4021 323.588 45.8057 323.588 48.7732V67.1746C323.588 70.1407 321.183 72.5456 318.217 72.5456H307.135V43.4021H318.217Z" fill="#FF264A" id="svg_25"/>
<path d="M302.25 19H229.521C224.876 19 221.111 22.7651 221.111 27.4098V96.2847H310.661V27.4098C310.66 22.7651 306.894 19 302.25 19Z" fill="#4EFF6A" id="svg_26"/>
<path d="M240.145 19H229.521C224.876 19 221.111 22.7651 221.111 27.4098V96.2847H231.735V27.4098C231.735 22.7651 235.5 19 240.145 19Z" fill="#26DB43" id="svg_27"/>
<path d="M241.736 56.8341C240.268 56.8341 239.08 55.6444 239.08 54.1781V48.3975C239.08 46.9298 240.268 45.7415 241.736 45.7415C243.202 45.7415 244.392 46.9298 244.392 48.3975V54.1781C244.392 55.6444 243.202 56.8341 241.736 56.8341Z" fill="#222222" id="svg_28"/>
<path d="M290.036 56.8341C288.568 56.8341 287.38 55.6444 287.38 54.1781V48.3975C287.38 46.9298 288.568 45.7415 290.036 45.7415C291.502 45.7415 292.692 46.9298 292.692 48.3975V54.1781C292.692 55.6444 291.502 56.8341 290.036 56.8341Z" fill="#222222" id="svg_29"/>
<path d="M256.246 58.3259H252.869C249.397 58.3259 246.583 61.1417 246.583 64.6155C246.583 66.353 247.284 67.9214 248.423 69.0601C249.562 70.196 251.134 70.901 252.869 70.901H256.246L261.714 64.6128L256.246 58.3259Z" fill="#55C6FF" id="svg_30"/>
<path d="M275.524 58.3259H265.886L261.714 64.6128L265.886 70.901H275.524L280.356 64.6128L275.524 58.3259Z" fill="#55C6FF" id="svg_31"/>
<path d="M285.188 64.6155C285.188 68.0879 282.373 70.901 278.901 70.901H275.524V58.3259H278.901C280.636 58.3259 282.208 59.0309 283.347 60.1696C284.486 61.3042 285.188 62.8766 285.188 64.6155Z" fill="white" id="svg_32"/>
<path d="M256.246 58.3259H265.886V70.901H256.246V58.3259Z" fill="white" id="svg_33"/>
<path d="M280.354 149.637V158.491H301.494V149.637L290.923 144.232L280.354 149.637Z" fill="#FF9D29" id="svg_34"/>
<path d="M230.277 149.637V158.491H251.416V149.637L240.847 144.232L230.277 149.637Z" fill="#FF9D29" id="svg_35"/>
<path d="M310.684 89.2336H221.089C216.726 89.2336 213.19 92.7692 213.19 97.1318V141.74C213.19 146.101 216.726 149.638 221.089 149.638H310.684C315.045 149.638 318.582 146.101 318.582 141.74V97.1318C318.582 92.7692 315.045 89.2336 310.684 89.2336Z" fill="#0075FF" id="svg_36"/>
<path d="M223.813 141.74V97.1318C223.813 92.7692 227.35 89.2336 231.711 89.2336H221.089C216.726 89.2336 213.19 92.7692 213.19 97.1318V141.74C213.19 146.101 216.726 149.637 221.089 149.637H231.711C227.35 149.638 223.813 146.101 223.813 141.74Z" fill="#005FCF" id="svg_37"/>
<path d="M278.524 119.435C278.524 124.077 274.76 127.841 270.118 127.841C265.476 127.841 261.714 124.077 261.714 119.435C261.714 114.793 265.476 111.031 270.118 111.031C274.76 111.031 278.524 114.793 278.524 119.435Z" fill="#FFFF41" id="svg_38"/>
<path d="M305.797 119.435C305.797 124.077 302.034 127.841 297.392 127.841C292.751 127.841 288.987 124.077 288.987 119.435C288.987 114.793 292.751 111.031 297.392 111.031C302.034 111.031 305.797 114.793 305.797 119.435Z" fill="#FFFF41" id="svg_39"/>
<path d="M246.906 111.031H229.76C227.669 111.031 225.975 112.725 225.975 114.816V124.056C225.975 126.146 227.669 127.841 229.76 127.841H246.906C248.996 127.841 250.691 126.146 250.691 124.056V114.816C250.691 112.725 248.996 111.031 246.906 111.031Z" fill="white" id="svg_40"/>
</g><g clip-path="url(#clip1)" id="svg_41" class="">
<path d="M47.6763 79.9309C50.1857 82.4403 56.3411 82.6709 62.1471 78.583C67.198 75.0264 70.0841 72.4759 62.6077 64.9995C55.1313 57.523 52.5811 60.4095 49.0245 65.4604C44.9362 71.2661 45.1669 77.4215 47.6763 79.9309Z" fill="#FEE24E" id="svg_42"/>
<path d="M59.4337 56.517C53.1377 50.221 42.4621 49.7529 36.7078 58.1311C35.6434 59.681 37.1608 61.6729 38.9435 61.0745C42.6748 59.8222 47.3794 59.7608 52.2846 64.666L59.4337 56.517Z" fill="#2C69DB" id="svg_43"/>
<path d="M71.0898 68.1732C77.3857 74.4692 77.8539 85.1448 69.476 90.8994C67.9261 91.9638 65.9343 90.4464 66.5323 88.6634C67.7845 84.9321 67.846 80.2275 62.9408 75.3223L71.0898 68.1732Z" fill="#2C69DB" id="svg_44"/>
<path d="M71.0898 68.1732L62.9405 75.3227C65.3162 77.6985 66.5247 80.0262 66.9991 82.2201C68.047 82.1956 69.0931 81.8524 69.9763 81.1791C71.9271 79.6917 73.787 78.1659 75.5534 76.606C74.9892 73.5062 73.449 70.5324 71.0898 68.1732Z" fill="#1651C2" id="svg_45"/>
<path d="M59.4337 56.5171C57.0748 54.1582 54.1007 52.6176 51.0012 52.0538C49.4413 53.8202 47.9152 55.6798 46.4282 57.6309C45.7549 58.5141 45.4114 59.5599 45.3869 60.6078C47.5807 61.0822 49.9088 62.291 52.2843 64.6664L59.4337 56.5171Z" fill="#1651C2" id="svg_46"/>
<path d="M68.4241 79.1431C83.0112 68.023 93.1144 54.0328 94.7659 40.0692C95.2599 35.8904 91.7168 32.3473 87.5384 32.8417C73.5747 34.4931 59.5845 44.5963 48.4642 59.1832C47.6908 60.1976 47.7805 61.627 48.6827 62.5291L65.0784 78.9248C65.9806 79.827 67.4097 79.9165 68.4241 79.1431Z" fill="#FFFFEE" id="svg_47"/>
<path d="M89.8063 32.9691C89.0878 32.7989 88.3241 32.7485 87.5382 32.8417C73.5746 34.4931 59.5844 44.5963 48.464 59.1832C47.6903 60.1979 47.7804 61.627 48.6826 62.5292L60.4092 74.2558C63.391 57.2134 73.9665 40.6323 89.8063 32.9691Z" fill="#DFDFDD" id="svg_48"/>
<path d="M81.763 55.2871C79.1556 57.8946 74.9278 57.8949 72.32 55.2871C69.7125 52.6797 69.7125 48.4515 72.32 45.8441C74.9278 43.2363 79.1556 43.2366 81.763 45.8441C84.3708 48.4519 84.3708 52.6793 81.763 55.2871Z" fill="white" id="svg_49"/>
<path d="M81.7631 45.8441C79.2682 43.3492 75.2907 43.2428 72.6677 45.5226C74.7058 44.6004 77.1883 44.9761 78.8642 46.652C81.0256 48.8134 81.0256 52.3178 78.8642 54.4792C77.1883 56.1551 74.7058 56.5308 72.6677 55.6086C75.2907 57.8884 79.2678 57.7824 81.7631 55.2871C84.3709 52.6793 84.3709 48.4519 81.7631 45.8441Z" fill="#EEEEED" id="svg_50"/>
<path d="M71.1433 56.4638C67.8909 53.2114 67.8909 47.9198 71.1433 44.6674C74.3957 41.415 79.6873 41.415 82.9397 44.6674C86.1921 47.9198 86.1921 53.2114 82.9397 56.4638C79.6873 59.7162 74.3957 59.7162 71.1433 56.4638ZM80.5864 47.0208C78.6318 45.0662 75.4515 45.0666 73.497 47.0211C71.5424 48.9757 71.5421 52.1559 73.4966 54.1105C75.4512 56.065 78.6318 56.065 80.5864 54.1105C82.5409 52.1559 82.5409 48.9753 80.5864 47.0208Z" fill="#495059" id="svg_51"/>
<path d="M76.8474 42.2326C74.7768 42.2806 72.7204 43.0906 71.1436 44.6675C69.0903 46.7208 68.3348 49.5865 68.8741 52.2395C71.1546 48.609 73.8242 45.233 76.8474 42.2326Z" fill="#41464F" id="svg_52"/>
<path d="M92.6022 48.9409C93.6898 45.9667 94.4307 42.9657 94.7777 39.9656C95.2535 35.8507 91.7566 32.3539 87.6417 32.8297C84.6417 33.1767 81.6406 33.9176 78.6665 35.0052C79.9108 37.0492 81.5429 39.2841 84.9331 42.6743C88.3233 46.0644 90.5585 47.6969 92.6022 48.9409Z" fill="#EB4D63" id="svg_53"/>
<path d="M51.7344 55.1208C50.6199 56.4314 49.5285 57.7866 48.464 59.1832C47.6903 60.1979 47.7804 61.627 48.6826 62.5292L65.0783 78.9249C65.9804 79.8271 67.4092 79.9168 68.4239 79.1431C69.8205 78.0786 71.1757 76.9872 72.4863 75.8727L51.7344 55.1208Z" fill="#3099E6" id="svg_54"/>
<path d="M62.4981 65.8845L51.7344 55.1208C50.6199 56.4314 49.5288 57.7862 48.464 59.1832C47.6906 60.1976 47.7804 61.627 48.6826 62.5292L60.4092 74.2558C60.9019 71.4402 61.6014 68.6366 62.4981 65.8845Z" fill="#257EBF" id="svg_55"/>
<path d="M55.8721 59.2585L57.1979 60.5843L51.9678 65.8144L50.642 64.4886L55.8721 59.2585Z" fill="#0082E1" id="svg_56"/>
<path d="M67.0229 70.4095L68.3488 71.7353L63.1187 76.9654L61.7928 75.6396L67.0229 70.4095Z" fill="#76ACD4" id="svg_57"/>
<path d="M64.6911 63.4797L64.1276 62.9162C63.4112 62.1998 62.249 62.1998 61.5326 62.9162L51.6838 72.765C50.9671 73.4817 50.9674 74.6436 51.6838 75.36L52.2473 75.9235C52.9637 76.6399 54.1256 76.6402 54.8423 75.9235L64.6911 66.0747C65.4075 65.3583 65.4075 64.1961 64.6911 63.4797Z" fill="#2C69DB" id="svg_58"/>
<path d="M62.5576 57.6603C63.5078 56.7101 63.3106 54.9724 62.1174 53.7792C60.9245 52.5863 59.1867 52.3891 58.2366 53.3393C57.2864 54.2895 57.4835 56.0272 58.6764 57.2201C59.8697 58.4133 61.6074 58.6105 62.5576 57.6603Z" fill="#EB8D9A" id="svg_59"/>
<path d="M74.268 69.3706C75.2182 68.4205 75.0214 66.6831 73.8282 65.4898C72.6349 64.2966 70.8972 64.0995 69.947 65.0496C68.9968 65.9998 69.194 67.7375 70.3872 68.9308C71.5805 70.124 73.3179 70.3208 74.268 69.3706Z" fill="#EB8D9A" id="svg_60"/>
<path d="M62.7093 55.7054C62.3433 55.3394 62.3433 54.7455 62.7093 54.3796L63.4723 53.6165C63.8387 53.2502 64.4322 53.2505 64.7982 53.6165C65.1645 53.9829 65.1645 54.576 64.7982 54.9424L64.0351 55.7054C63.6691 56.0714 63.0756 56.0717 62.7093 55.7054Z" fill="#222222" id="svg_61"/>
<path d="M71.9017 64.8978C71.5357 64.5318 71.5357 63.9379 71.9017 63.5719L72.6647 62.8089C73.0311 62.4426 73.6246 62.4429 73.9905 62.8089C74.3565 63.1749 74.3569 63.7684 73.9905 64.1347L73.2275 64.8978C72.8615 65.2638 72.268 65.2641 71.9017 64.8978Z" fill="#222222" id="svg_62"/>
<path d="M66.7197 60.8873C66.0637 60.2313 65.7239 59.3232 65.7878 58.3962C65.823 57.8797 66.2708 57.4898 66.7874 57.5251C67.3042 57.5606 67.6937 58.0081 67.6585 58.5246C67.6319 58.911 67.7728 59.2887 68.0455 59.5614C68.3183 59.8342 68.696 59.9751 69.0824 59.9485C69.5989 59.9133 70.0463 60.3034 70.0819 60.8196C70.1175 61.3365 69.7273 61.7839 69.2108 61.8192C68.2838 61.883 67.3757 61.5433 66.7197 60.8873Z" fill="#222222" id="svg_63"/>
<path d="M89.8391 32.9529C89.142 32.7903 88.4024 32.742 87.6415 32.8297C84.6414 33.1767 81.6404 33.9176 78.6663 35.0052C79.3088 36.0607 80.056 37.1676 81.0945 38.4582C83.7928 36.3193 86.7134 34.4621 89.8391 32.9529Z" fill="#D67C88" id="svg_64"/>
<path d="M63.6706 62.5831C62.9801 62.2268 62.111 62.3376 61.5324 62.9163L51.6833 72.7653C50.9668 73.4818 50.9672 74.6436 51.6836 75.36L52.2471 75.9235C52.7187 76.3951 53.383 76.5546 53.9862 76.4051C55.0151 71.5673 61.2389 65.0203 63.6706 62.5831Z" fill="#1651C2" id="svg_65"/>
</g><g clip-path="url(#clip2)" id="svg_66" class="">
<path d="M196.373 179.379L193.911 168.676C193.071 165.028 189.824 162.443 186.08 162.443H153.92C150.176 162.443 146.929 165.028 146.089 168.676L143.627 179.379C143.376 180.467 142.408 181.238 141.291 181.238H134.994C131.921 181.238 129.431 183.729 129.431 186.802V201.979H210.569V186.802C210.569 183.729 208.078 181.238 205.006 181.238H198.709C197.592 181.238 196.623 180.467 196.373 179.379Z" fill="#28FF8B" id="svg_67"/>
<path d="M168.748 162.443H153.92C150.176 162.443 146.929 165.028 146.089 168.676L143.627 179.379C143.376 180.467 142.408 181.238 141.291 181.238H134.994C131.921 181.238 129.431 183.729 129.431 186.802V201.979H173.667C166.475 191.723 167.304 172.629 168.748 162.443Z" fill="#00EB6C" id="svg_68"/>
<path d="M146.246 211.022C151.251 209.839 154.35 204.822 153.167 199.817C151.983 194.811 146.967 191.713 141.961 192.896C136.956 194.079 133.858 199.096 135.041 204.101C136.224 209.106 141.241 212.205 146.246 211.022Z" fill="#AECEFF" id="svg_69"/>
<path d="M145.053 205.975C147.271 205.45 148.644 203.227 148.12 201.01C147.595 198.792 145.372 197.419 143.154 197.943C140.937 198.467 139.564 200.69 140.088 202.908C140.612 205.126 142.835 206.499 145.053 205.975Z" fill="#222222" id="svg_70"/>
<path d="M133.262 205.863H127.516C126.679 205.863 126 205.184 126 204.347V199.115C126 198.277 126.679 197.599 127.516 197.599H133.262C134.099 197.599 134.778 198.277 134.778 199.115V204.347C134.778 205.184 134.099 205.863 133.262 205.863Z" fill="#222222" id="svg_71"/>
<path d="M204.972 204.154C206.155 199.149 203.057 194.132 198.051 192.949C193.046 191.766 188.029 194.864 186.846 199.87C185.663 204.875 188.761 209.892 193.767 211.075C198.772 212.258 203.789 209.16 204.972 204.154Z" fill="#AECEFF" id="svg_72"/>
<path d="M199.925 202.961C200.449 200.744 199.076 198.521 196.858 197.996C194.64 197.472 192.417 198.845 191.893 201.063C191.369 203.281 192.742 205.504 194.96 206.028C197.178 206.552 199.4 205.179 199.925 202.961Z" fill="#222222" id="svg_73"/>
<path d="M206.738 205.863H212.484C213.322 205.863 214 205.184 214 204.347V199.115C214 198.277 213.322 197.599 212.484 197.599H206.738C205.901 197.599 205.222 198.277 205.222 199.115V204.347C205.222 205.184 205.901 205.863 206.738 205.863Z" fill="#222222" id="svg_74"/>
<path d="M172.017 188.226H176.051V192.26H172.017V188.226Z" fill="#FCFCFC" id="svg_75"/>
<path d="M167.983 188.226H172.017V192.26H167.983V188.226Z" fill="#222222" id="svg_76"/>
<path d="M163.948 188.226H167.982V192.26H163.948V188.226Z" fill="#FCFCFC" id="svg_77"/>
<path d="M180.086 192.261H176.051V188.226H179.148C179.666 188.226 180.086 188.646 180.086 189.164V192.261H180.086Z" fill="#222222" id="svg_78"/>
<path d="M159.915 192.261H163.949V188.226H160.852C160.334 188.226 159.915 188.646 159.915 189.164V192.261Z" fill="#222222" id="svg_79"/>
<path d="M172.017 192.261H176.051V196.295H172.017V192.261Z" fill="#222222" id="svg_80"/>
<path d="M167.983 192.261H172.017V196.295H167.983V192.261Z" fill="#FCFCFC" id="svg_81"/>
<path d="M163.948 192.261H167.982V196.295H163.948V192.261Z" fill="#222222" id="svg_82"/>
<path d="M179.148 196.295H176.052V192.261H180.086V195.357C180.086 195.875 179.666 196.295 179.148 196.295Z" fill="#FCFCFC" id="svg_83"/>
<path d="M160.852 196.295H163.948V192.261H159.914V195.357C159.914 195.875 160.334 196.295 160.852 196.295Z" fill="#FCFCFC" id="svg_84"/>
<path d="M181.659 154.706H179.146C177.879 154.706 176.763 155.541 176.404 156.756L174.725 162.443H186.08L184.401 156.756C184.042 155.541 182.926 154.706 181.659 154.706Z" fill="#FFD444" id="svg_85"/>
<path d="M207.62 186.802H210.569V193.841H207.62C206.296 193.841 205.222 192.767 205.222 191.442V189.2C205.222 187.875 206.296 186.802 207.62 186.802Z" fill="#EA5A79" id="svg_86"/>
<path d="M132.379 186.802H129.431V193.841H132.379C133.704 193.841 134.778 192.767 134.778 191.442V189.2C134.778 187.875 133.704 186.802 132.379 186.802Z" fill="#EA5A79" id="svg_87"/>
<path d="M162.772 167.543H153.257C152.211 167.543 151.307 168.273 151.088 169.296L149.1 178.553C148.803 179.935 149.857 181.238 151.27 181.238H162.772C163.998 181.238 164.991 180.244 164.991 179.019V169.762C164.991 168.537 163.998 167.543 162.772 167.543Z" fill="#98C0FF" id="svg_88"/>
<path d="M171.727 167.543H181.241C182.287 167.543 183.191 168.273 183.411 169.296L185.399 178.553C185.695 179.935 184.642 181.238 183.229 181.238H171.727C170.501 181.238 169.507 180.244 169.507 179.019V169.762C169.507 168.537 170.501 167.543 171.727 167.543Z" fill="#98C0FF" id="svg_89"/>
<path d="M191.041 178.34C191.404 180.031 192.899 181.238 194.628 181.238H198.709C197.592 181.238 196.623 180.467 196.373 179.379L193.911 168.676C193.821 168.285 193.702 167.908 193.559 167.543H190.625C189.646 167.543 188.917 168.446 189.122 169.402L191.041 178.34Z" fill="#98C0FF" id="svg_90"/>
<path d="M162.772 181.238C163.998 181.238 164.991 180.245 164.991 179.019V169.762C164.991 169.394 164.9 169.048 164.741 168.742L152.245 181.238H162.772Z" fill="#408DFF" id="svg_91"/>
<path d="M171.727 167.543C170.501 167.543 169.507 168.537 169.507 169.762V179.019C169.507 179.101 169.513 179.183 169.521 179.263L181.241 167.543H171.727Z" fill="#408DFF" id="svg_92"/>
<path d="M186.397 185.041H184.657C183.354 185.041 182.297 183.985 182.297 182.681V180.471C182.297 179.167 183.354 178.111 184.657 178.111H186.397C188.311 178.111 189.863 179.662 189.863 181.576C189.863 183.49 188.311 185.041 186.397 185.041Z" fill="#F8C632" id="svg_93"/>
</g><g clip-path="url(#clip3)" id="svg_114" class="">
<path d="M111.844 123.502C111.844 123.502 106.365 124.102 102.218 128.249C98.0718 132.395 103.011 137.213 103.011 137.213L116.296 150.498C116.296 150.498 121.114 155.438 125.261 151.291C129.408 147.145 130.008 141.666 130.008 141.666L123.435 130.684L111.844 123.502Z" fill="white" id="svg_115"/>
<path d="M104.95 130.981C109.097 126.834 114.576 126.234 114.576 126.234L124.424 132.336L123.435 130.684L111.844 123.502C111.844 123.502 106.365 124.102 102.218 128.249C98.0718 132.395 103.011 137.213 103.011 137.213L105.719 139.921C105.361 139.559 100.969 134.961 104.95 130.981Z" fill="#D2D1D7" id="svg_116"/>
<path d="M109.067 133.108C108.69 132.731 108.69 132.119 109.067 131.742L110.092 130.716C110.469 130.339 111.081 130.339 111.458 130.716C111.836 131.094 111.835 131.705 111.458 132.082L110.433 133.108C110.056 133.485 109.444 133.485 109.067 133.108Z" fill="#333A41" id="svg_117"/>
<path d="M120.402 144.443C120.024 144.066 120.025 143.454 120.402 143.077L121.427 142.052C121.804 141.675 122.416 141.674 122.793 142.052C123.17 142.429 123.17 143.04 122.793 143.417L121.768 144.443C121.39 144.82 120.779 144.82 120.402 144.443Z" fill="#333A41" id="svg_118"/>
<path d="M114.186 139.323C113.444 138.581 113.058 137.573 113.126 136.558C113.161 136.026 113.622 135.623 114.154 135.659C114.686 135.695 115.089 136.155 115.053 136.687C115.022 137.146 115.204 137.609 115.552 137.957C115.9 138.305 116.363 138.487 116.822 138.456C117.355 138.421 117.815 138.823 117.851 139.355C117.887 139.888 117.484 140.348 116.952 140.384C115.937 140.452 114.928 140.065 114.186 139.323Z" fill="#333A41" id="svg_119"/>
<path d="M136.53 148.171C136.406 148.061 136.286 147.946 136.167 147.826L105.683 117.343C105.564 117.223 105.449 117.103 105.338 116.979L106.729 101.572C109.848 98.7181 113.396 96.5936 117.154 95.1995L133.257 93.5822C136.451 94.0777 139.584 95.0593 142.537 96.5263L156.983 110.973C158.45 113.926 159.432 117.059 159.927 120.253L158.31 136.355C156.916 140.113 154.791 143.661 151.938 146.781L136.53 148.171Z" fill="#F75747" id="svg_120"/>
<path d="M106.067 108.899C106.576 107.589 107.357 106.361 108.414 105.304C108.757 104.961 109.105 104.628 109.46 104.303C112.58 101.45 116.128 99.3254 119.886 97.9312C125.048 96.0146 130.605 95.4753 135.989 96.314C139.183 96.8094 142.315 97.791 145.268 99.2581C145.268 99.2581 142.537 96.5267 142.537 96.5263C142.055 96.287 141.568 96.0623 141.078 95.8486C138.583 94.7641 135.945 93.999 133.257 93.5822L117.154 95.1995C114.806 96.0709 112.539 97.2272 110.407 98.669C109.113 99.5446 107.882 100.517 106.729 101.572L106.067 108.899Z" fill="#E73826" id="svg_121"/>
<path d="M156.983 110.973C152.939 113.891 147.261 113.53 143.62 109.89C139.98 106.249 139.619 100.571 142.537 96.5266C145.569 98.0313 148.412 100.046 150.938 102.572C153.464 105.098 155.478 107.94 156.983 110.973Z" fill="white" id="svg_122"/>
<path d="M158.311 136.355C157.316 135.943 156.383 135.332 155.575 134.524C152.274 131.224 152.274 125.872 155.575 122.572C156.81 121.336 158.333 120.563 159.928 120.253C160.183 121.891 160.311 123.546 160.311 125.199C160.311 128.981 159.644 132.764 158.311 136.355Z" fill="white" id="svg_123"/>
<path d="M130.938 97.9357C127.638 101.236 122.286 101.236 118.986 97.9354C118.178 97.1271 117.567 96.1946 117.155 95.1995C122.317 93.2829 127.873 92.744 133.257 93.5823C132.947 95.1771 132.174 96.7004 130.938 97.9357Z" fill="white" id="svg_124"/>
<path d="M139.462 126.552C136.009 130.006 130.41 130.006 126.957 126.553C123.504 123.1 123.504 117.501 126.958 114.048C130.411 110.595 136.009 110.595 139.462 114.048C142.915 117.501 142.915 123.099 139.462 126.552Z" fill="white" id="svg_125"/>
<path d="M107.592 115.326C106.91 116.007 106.15 116.558 105.339 116.979C103.528 114.991 102.624 112.473 102.625 109.957C102.624 107.285 103.644 104.611 105.683 102.572C106.026 102.229 106.374 101.896 106.729 101.572C107.028 101.805 107.316 102.059 107.591 102.334C111.179 105.921 111.179 111.738 107.592 115.326Z" fill="white" id="svg_126"/>
<path d="M106.091 116.539C105.602 115.304 105.356 113.996 105.356 112.689C105.355 110.016 106.375 107.343 108.414 105.304C108.678 105.04 108.946 104.784 109.216 104.532C108.797 103.741 108.256 102.999 107.591 102.334C107.316 102.059 107.027 101.805 106.729 101.572C106.373 101.896 106.026 102.229 105.682 102.572C104.367 103.888 103.373 105.626 102.923 107.471C102.111 110.8 103.031 114.445 105.338 116.979C105.595 116.846 105.846 116.698 106.091 116.539Z" fill="#D2D1D7" id="svg_127"/>
<path d="M117.154 95.1995C117.567 96.1949 118.177 97.1271 118.986 97.9354C119.069 98.0193 119.155 98.0997 119.242 98.1792C119.456 98.0942 119.671 98.0114 119.886 97.9312C123.909 96.4373 128.173 95.7802 132.407 95.9605C132.813 95.2064 133.097 94.404 133.257 93.5823C128.715 92.8752 124.025 93.1548 119.601 94.4019C118.777 94.6339 117.961 94.8998 117.154 95.1995Z" fill="#D2D1D7" id="svg_128"/>
<path d="M141.767 97.7745C142.957 98.1968 144.126 98.6908 145.269 99.2581C147.75 100.49 150.105 102.063 152.263 103.979C152.148 103.85 151.271 102.905 150.938 102.572C149.392 101.026 147.689 99.6358 145.861 98.4346C144.784 97.7272 143.674 97.0905 142.537 96.5267C142.248 96.9272 141.992 97.3446 141.767 97.7745Z" fill="#D2D1D7" id="svg_129"/>
<path d="M150.937 147.827C146.979 151.786 140.629 151.902 136.53 148.171C136.952 147.36 137.503 146.6 138.184 145.918C141.772 142.331 147.588 142.331 151.176 145.919C151.451 146.194 151.705 146.482 151.938 146.781C151.614 147.136 151.281 147.484 150.937 147.827Z" fill="white" id="svg_130"/>
</g><g clip-path="url(#clip4)" id="svg_131" class="">
<path d="M57.8938 99H54.1074C52.5427 99 51.2744 100.268 51.2744 101.833V187.509H60.7268V101.833C60.7268 100.268 59.4583 99 57.8938 99V99Z" fill="#E9863D" id="svg_132"/>
<path d="M62.404 122.914H49.5945C47.104 122.914 44.9205 121.249 44.2611 118.848L42.0375 110.749C41.553 108.984 42.8808 107.243 44.7105 107.243H67.2881C69.1179 107.243 70.4455 108.984 69.9612 110.749L67.7374 118.847C67.0779 121.249 64.8945 122.914 62.404 122.914Z" fill="#F2A43D" id="svg_133"/>
<path d="M44.7105 107.243C42.8808 107.243 41.553 108.984 42.0375 110.749L44.2611 118.848C44.9207 121.249 47.104 122.914 49.5945 122.914H57.9549C53.5186 119.553 52.6559 113.478 53.005 107.243H44.7105Z" fill="#EEB27A" id="svg_134"/>
<path d="M51.2731 171.963H12.5913C18.5505 155.553 36.4276 135.509 51.2731 128.105V171.963Z" fill="#57FF86" id="svg_135"/>
<path d="M32.8438 171.963H51.2743V128.105C48.9175 129.281 46.4841 130.776 44.0343 132.523C44.3185 145.728 43.6143 165.333 32.8438 171.963Z" fill="#3CF36F" id="svg_136"/>
<path d="M60.7256 163.405H91.8594C87.0631 150.198 72.6741 134.065 60.7256 128.105V163.405Z" fill="#57FF86" id="svg_137"/>
<path d="M67.1868 132.123C65.0013 130.518 62.8258 129.153 60.7256 128.105V163.405H77.0964C68.3414 158.931 66.3978 141.027 67.1868 132.123Z" fill="#3CF36F" id="svg_138"/>
<path d="M88.6288 211H18.2901C13.7007 211 9.51803 208.368 7.53287 204.23L0.423059 189.411C-0.927722 186.596 1.12415 183.336 4.24681 183.336H51.9256C54.5359 183.336 57.069 182.45 59.1108 180.823L67.0803 174.475C69.1222 172.848 71.6553 171.963 74.2656 171.963H107.755C110.856 171.963 112.908 175.182 111.599 177.994L99.4459 204.103C97.4877 208.31 93.2684 211 88.6288 211Z" fill="#57FF86" id="svg_139"/>
<path d="M49.6068 183.335H4.24681C1.12415 183.335 -0.927722 186.596 0.423059 189.411L7.53287 204.23C9.51825 208.367 13.7007 211 18.2901 211H58.2953C51.5515 205.744 47.791 191.032 49.6068 183.335Z" fill="#3CF36F" id="svg_140"/>
<path d="M5.81006 200.639L7.53271 204.23C9.51809 208.367 13.7006 211 18.29 211H88.6284C93.2683 211 97.4873 208.31 99.4453 204.104L101.058 200.64H5.81006V200.639Z" fill="#3B7CE1" id="svg_141"/>
<path d="M7.53272 204.23C9.51809 208.367 13.7006 211 18.2902 211H58.2954C55.4727 208.8 53.1719 204.945 51.5846 200.639H5.81006L7.53272 204.23Z" fill="#326ABD" id="svg_142"/>
<path d="M25.8591 195.479C27.7874 195.479 29.3506 193.916 29.3506 191.988C29.3506 190.059 27.7874 188.496 25.8591 188.496C23.9309 188.496 22.3677 190.059 22.3677 191.988C22.3677 193.916 23.9309 195.479 25.8591 195.479Z" fill="#7ACEFA" id="svg_143"/>
<path d="M49.9426 195.479C51.8709 195.479 53.4341 193.916 53.4341 191.988C53.4341 190.059 51.8709 188.496 49.9426 188.496C48.0144 188.496 46.4512 190.059 46.4512 191.988C46.4512 193.916 48.0144 195.479 49.9426 195.479Z" fill="#A3DEFE" id="svg_144"/>
<path d="M73.4071 190.198C76.2386 190.198 78.534 188.37 78.534 186.115C78.534 183.861 76.2386 182.033 73.4071 182.033C70.5756 182.033 68.2803 183.861 68.2803 186.115C68.2803 188.37 70.5756 190.198 73.4071 190.198Z" fill="#EDA1AB" id="svg_145"/>
<path d="M101.197 190.198C104.028 190.198 106.324 188.37 106.324 186.115C106.324 183.861 104.028 182.033 101.197 182.033C98.3652 182.033 96.0698 183.861 96.0698 186.115C96.0698 188.37 98.3652 190.198 101.197 190.198Z" fill="#EDA1AB" id="svg_146"/>
<path d="M76.394 183.683C75.488 183.683 74.7534 182.949 74.7534 182.042V180.232C74.7534 179.326 75.488 178.591 76.394 178.591C77.3001 178.591 78.0347 179.326 78.0347 180.232V182.042C78.0347 182.949 77.3001 183.683 76.394 183.683Z" fill="#222222" id="svg_147"/>
<path d="M98.208 183.683C97.3019 183.683 96.5674 182.949 96.5674 182.042V180.232C96.5674 179.326 97.3019 178.591 98.208 178.591C99.1141 178.591 99.8486 179.326 99.8486 180.232V182.042C99.8486 182.949 99.1141 183.683 98.208 183.683Z" fill="#222222" id="svg_148"/>
<path d="M87.3012 185.073C85.7249 185.073 84.226 184.391 83.1889 183.201C82.5937 182.517 82.6648 181.481 83.3479 180.886C84.0309 180.29 85.0675 180.362 85.6628 181.045C86.0766 181.52 86.6738 181.792 87.3014 181.792C87.929 181.792 88.5262 181.52 88.9401 181.045C89.5355 180.362 90.5717 180.291 91.2546 180.886C91.9378 181.481 92.0089 182.517 91.4137 183.201C90.3764 184.391 88.8775 185.073 87.3012 185.073Z" fill="#222222" id="svg_149"/>
<path d="M49.9426 195.479C49.984 195.479 50.0242 195.474 50.0654 195.473C49.5358 193.112 49.2267 190.758 49.1637 188.586C47.611 188.941 46.4512 190.327 46.4512 191.987C46.4512 193.916 48.0144 195.479 49.9426 195.479Z" fill="#7ACEFA" id="svg_150"/>
<path d="M51.2744 122.914H60.7268V126.989H51.2744V122.914Z" fill="#C15200" id="svg_151"/>
<path d="M91.9419 158.218H60.7256V163.624H91.9419C93.4348 163.624 94.645 162.414 94.645 160.921C94.645 159.428 93.4348 158.218 91.9419 158.218Z" fill="#DB5D00" id="svg_152"/>
<path d="M12.5595 166.776H51.2739V172.182H12.5595C11.0666 172.182 9.85645 170.972 9.85645 169.479C9.85645 167.986 11.0668 166.776 12.5595 166.776Z" fill="#DB5D00" id="svg_153"/>
</g><g clip-path="url(#clip5)" id="svg_154" class="">
<path d="M167.482 73.9599C167.695 73.9599 167.911 73.9238 168.123 73.8466C169.096 73.4921 169.598 72.4164 169.244 71.4433L163.706 56.227C163.351 55.2538 162.275 54.7524 161.302 55.1064C160.329 55.4604 159.827 56.5366 160.181 57.5097L165.72 72.726C165.997 73.4872 166.717 73.9599 167.482 73.9599Z" fill="#222222" id="svg_155"/>
<path d="M140.365 73.9599C141.131 73.9599 141.85 73.4872 142.127 72.726L147.665 57.5097C148.019 56.5365 147.518 55.4603 146.545 55.1063C145.572 54.7518 144.496 55.2538 144.141 56.2269L138.603 71.4433C138.249 72.4164 138.751 73.4926 139.724 73.8466C139.935 73.9237 140.152 73.9599 140.365 73.9599Z" fill="#222222" id="svg_156"/>
<path d="M134.59 75.3481H173.257C174.486 75.3481 175.483 74.3515 175.483 73.122C175.483 71.8925 174.486 70.8959 173.257 70.8959H134.59C133.36 70.8959 132.364 71.8925 132.364 73.122C132.364 74.3515 133.361 75.3481 134.59 75.3481Z" fill="#D1D1D1" id="svg_157"/>
<path d="M145.884 36.2579C146.402 36.2579 146.822 35.838 146.822 35.3204V29.378C146.822 28.8604 146.402 28.4405 145.884 28.4405C145.366 28.4405 144.947 28.8604 144.947 29.378V35.3199C144.947 35.838 145.366 36.2579 145.884 36.2579Z" fill="#222222" id="svg_158"/>
<path d="M147.484 24.6798H165.864C166.671 24.6798 167.072 25.6583 166.497 26.2247L165.903 26.8097C164.739 27.9552 163.171 28.5973 161.538 28.5973H147.484V24.6798Z" fill="#222222" id="svg_159"/>
<path d="M144.285 28.5973H125.904C125.097 28.5973 124.696 27.6188 125.271 27.0529L125.866 26.4674C127.029 25.3219 128.597 24.6798 130.23 24.6798H144.285V28.5973Z" fill="#222222" id="svg_160"/>
<path d="M141.293 26.6383C141.293 24.4908 143.349 22.7501 145.884 22.7501C148.419 22.7501 150.475 24.4908 150.475 26.6383C150.475 28.7858 148.419 30.527 145.884 30.527C143.349 30.527 141.293 28.7858 141.293 26.6383Z" fill="#D1D1D1" id="svg_161"/>
<path d="M145.884 34.0801C153.201 34.0801 159.487 38.4883 162.233 44.7935C163.749 48.2725 167.231 50.4815 171.025 50.4815H173.563C174.863 50.4815 176.077 49.8306 176.796 48.7481L179.712 44.3585C180.508 43.1612 181.851 42.441 183.289 42.441H186.301C187.792 42.441 189 43.6495 189 45.1397V52.2188C189 57.0264 185.103 60.9239 180.295 60.9239H161.547C160.661 60.9239 159.805 61.2139 159.084 61.7296C155.823 64.0621 151.118 64.9737 145.884 64.9737C136.04 64.9737 128.059 61.7496 128.059 51.9048C128.059 42.0606 136.04 34.0801 145.884 34.0801Z" fill="white" id="svg_162"/>
<path d="M161.547 60.9233C160.661 60.9233 159.805 61.2139 159.084 61.729C155.823 64.0615 151.118 64.9736 145.884 64.9736C141.944 64.9736 138.303 64.4561 135.353 63.2056C153.029 61.5498 158.875 49.7529 160.568 41.8018C161.214 42.7388 161.774 43.7388 162.233 44.7935C163.749 48.2725 167.231 50.481 171.025 50.481H173.563C174.863 50.481 176.076 49.8306 176.796 48.7476L179.712 44.3584C180.508 43.1606 181.851 42.4409 183.288 42.4409H186.301C187.792 42.4409 189 43.6494 189 45.1396V52.2188C189 57.0264 185.103 60.9238 180.295 60.9238H161.547V60.9233Z" fill="#3D74D9" id="svg_163"/>
<path d="M180.295 60.9233H161.547C160.661 60.9233 159.805 61.2139 159.084 61.729C157.293 63.0107 155.063 63.8608 152.552 64.3691C160.603 60.3652 164.121 54.3022 164.905 48.3101C166.597 49.6899 168.755 50.481 171.025 50.481H173.563C174.863 50.481 176.077 49.8306 176.796 48.7476L179.712 44.3584C180.508 43.1606 181.851 42.4409 183.289 42.4409H186.301C187.792 42.4409 189 43.6494 189 45.1396V52.2188C189 57.0264 185.103 60.9233 180.295 60.9233Z" fill="#3568C9" id="svg_164"/>
<path d="M180.295 60.9233H167.523C166.518 57.9019 166.654 53.4282 167.188 49.6914C168.379 50.2036 169.683 50.4814 171.025 50.4814H173.563C174.863 50.4814 176.077 49.8306 176.796 48.748L179.712 44.3584C180.508 43.1611 181.851 42.4409 183.289 42.4409H186.301C187.792 42.4409 189 43.6494 189 45.1396V52.2188C189 57.0264 185.103 60.9233 180.295 60.9233Z" fill="#2E94E0" id="svg_165"/>
<path d="M144.959 45.2168L143.579 49.0933C142.721 51.5039 140.439 53.1143 137.88 53.1143H128.102C128.075 52.7222 128.059 52.3203 128.059 51.9053C128.059 48.502 129.013 45.3218 130.668 42.6167H143.124C144.47 42.6167 145.41 43.9492 144.959 45.2168Z" fill="#7397DA" id="svg_166"/>
<path d="M178.511 55.9395C178.751 55.9395 178.99 55.8481 179.174 55.665L186.909 47.9292C187.276 47.563 187.276 46.9692 186.909 46.6035C186.543 46.2373 185.95 46.2373 185.584 46.6035L177.848 54.3394C177.482 54.7051 177.482 55.2988 177.848 55.665C178.031 55.8481 178.271 55.9395 178.511 55.9395Z" fill="#222222" id="svg_167"/>
<path d="M180.043 51.1343C180.043 52.4238 181.089 53.4692 182.378 53.4692C183.668 53.4692 184.713 52.4238 184.713 51.1343C184.713 49.8447 183.668 48.7993 182.378 48.7993C181.089 48.7993 180.043 49.8447 180.043 51.1343Z" fill="white" id="svg_168"/>
<path d="M146.205 54.3252H149.165C149.682 54.3252 150.102 53.9053 150.102 53.3877C150.102 52.8701 149.682 52.4502 149.165 52.4502H146.205C145.687 52.4502 145.268 52.8701 145.268 53.3877C145.268 53.9053 145.687 54.3252 146.205 54.3252Z" fill="#BEBFC0" id="svg_169"/>
<path d="M145.884 30.527C144.422 30.527 143.122 29.9479 142.281 29.0465C148.226 29.6393 149.333 25.0978 146.945 22.8556C148.969 23.2614 150.475 24.8004 150.475 26.6388C150.475 28.7863 148.419 30.527 145.884 30.527Z" fill="#A9AAAB" id="svg_170"/>
<path d="M173.257 70.8959C174.486 70.8959 175.483 71.8925 175.483 73.122C175.483 74.3515 174.486 75.3481 173.257 75.3481H154.59C157.394 74.3622 157.843 72.145 157.109 70.8959H173.257Z" fill="#A9AAAB" id="svg_171"/>
<path d="M143.124 42.6167C144.47 42.6167 145.41 43.9492 144.959 45.2168L143.579 49.0933C143.387 49.6338 143.122 50.1338 142.799 50.585L134.831 42.6167H143.124Z" fill="#6988C4" id="svg_172"/>
</g></g></g></svg>