<svg width="82" height="82" viewBox="0 0 82 82" fill="none" xmlns="http://www.w3.org/2000/svg">
<path d="M56.2002 28.6001C56.2002 43.843 43.843 56.2002 28.6001 56.2002C13.3572 56.2002 1 43.843 1 28.6001C1 13.3572 13.3572 1 28.6001 1C43.843 1 56.2002 13.3572 56.2002 28.6001Z" fill="white" stroke="black" stroke-width="2"/>
<path d="M26.4282 28.5999C26.4282 29.7991 27.4008 30.7717 28.6001 30.7717C29.7993 30.7717 30.7719 29.7991 30.7719 28.5999V4.39941C30.7719 3.19921 29.799 2.22754 28.6001 2.22754C27.4011 2.22754 26.4282 3.19921 26.4282 4.39941V28.5999Z" fill="white" stroke="black" stroke-width="2"/>
<path d="M27.929 30.6653L27.929 30.6653C28.1484 30.7366 28.3747 30.7722 28.6 30.7722C29.5151 30.7722 30.3664 30.1901 30.6653 29.2718L30.6655 29.2714C31.0364 28.1303 30.4121 26.9053 29.2719 26.5343L29.2715 26.5342L6.25614 19.0565C6.25595 19.0564 6.25576 19.0564 6.25557 19.0563C5.11322 18.6842 3.88882 19.3107 3.51817 20.4497L3.5178 20.4509C3.1483 21.591 3.77162 22.8162 4.91263 23.1867C4.91278 23.1867 4.91293 23.1868 4.91308 23.1868L27.929 30.6653ZM28.9625 27.4852C29.5777 27.6854 29.9146 28.3464 29.7145 28.9623C29.5533 29.4573 29.0943 29.7722 28.6 29.7722C28.4803 29.7722 28.3583 29.7533 28.238 29.7142L5.22166 22.2356C4.60642 22.036 4.26951 21.375 4.46909 20.7592L28.9625 27.4852Z" fill="white" stroke="black" stroke-width="2"/>
<path d="M13.0989 49.9355C13.4839 50.2158 13.9325 50.3504 14.3745 50.3504C15.0422 50.3504 15.7067 50.0413 16.1326 49.4548C16.1327 49.4547 16.1328 49.4546 16.1329 49.4545L30.3574 29.8766L30.3576 29.8763C31.0625 28.9056 30.8463 27.5477 29.8772 26.8431C28.9062 26.1369 27.5478 26.3533 26.8432 27.3226L26.8431 27.3228L12.6182 46.9017L12.618 46.9019C11.9137 47.872 12.128 49.2304 13.0989 49.9355ZM13.0989 49.9355C13.0984 49.9351 13.0978 49.9347 13.0973 49.9343L13.6866 49.1264M13.0989 49.9355C13.0989 49.9355 13.099 49.9356 13.0991 49.9356L13.6866 49.1264M13.6866 49.1264C13.8941 49.2778 14.1352 49.3504 14.3745 49.3504C14.7364 49.3504 15.0941 49.1832 15.3236 48.867L29.5484 29.2888C29.9287 28.7651 29.8121 28.0321 29.289 27.6518L13.4272 47.4895C13.047 48.0131 13.1629 48.7462 13.6866 49.1264Z" fill="white" stroke="black" stroke-width="2"/>
<path d="M52.7309 20.7591C52.5307 20.1432 51.8691 19.8063 51.2545 20.0065L50.9454 19.0554L50.9448 19.0557L27.9291 26.5341L27.929 26.5341C26.7884 26.9049 26.1638 28.1295 26.5343 29.2706L52.7309 20.7591ZM52.7309 20.7591C52.9305 21.3743 52.5936 22.0359 51.9783 22.2355M52.7309 20.7591L51.9783 22.2355M52.2869 23.1867C52.2871 23.1866 52.2872 23.1866 52.2874 23.1865L52.2869 23.1867ZM52.2869 23.1867L29.271 30.6652M52.2869 23.1867L29.271 30.6652M29.271 30.6652L29.271 30.6652C29.0516 30.7365 28.8253 30.7721 28.6001 30.7721C27.6859 30.7721 26.8331 30.1909 26.5345 29.2713L29.271 30.6652ZM51.9783 22.2355L28.962 29.7141L51.9783 22.2355Z" fill="white" stroke="black" stroke-width="2"/>
<path d="M30.3567 27.3222L30.3573 27.3231L44.5813 46.9015C45.2874 47.8725 45.071 49.2309 44.1017 49.9355C43.7168 50.2155 43.2683 50.3507 42.8259 50.3507C42.1585 50.3507 41.4936 50.0423 41.0678 49.4551L30.3567 27.3222ZM30.3567 27.3222C29.6512 26.3533 28.2942 26.1382 27.3238 26.8429C26.3536 27.5473 26.137 28.9057 26.8429 29.8768C26.843 29.8769 26.843 29.877 26.8431 29.8771C26.8431 29.8771 26.8431 29.8771 26.8432 29.8772L41.0668 49.4537L30.3567 27.3222Z" fill="white" stroke="black" stroke-width="2"/>
<path d="M20.7882 2.12305L26.5029 6.27527C27.7535 7.18347 29.4467 7.18347 30.6973 6.27527L36.412 2.12305C33.9346 1.39368 31.3137 1 28.6001 1C25.8865 1 23.265 1.39368 20.7882 2.12305Z" fill="white" stroke="black" stroke-width="2"/>
<path d="M1.00488 27.8473L6.7196 23.6957C7.97021 22.7869 8.49329 21.1768 8.01599 19.7064L5.83276 12.9883C4.37341 15.119 3.18933 17.4902 2.35071 20.0708C1.51209 22.6514 1.07629 25.2661 1.00488 27.8473Z" fill="white" stroke="black" stroke-width="2"/>
<path d="M19.3575 54.6121L17.1743 47.8945C16.697 46.4242 15.3268 45.4287 13.7808 45.4287H6.71716C8.29248 47.4752 10.1821 49.3344 12.377 50.9292C14.5724 52.524 16.9241 53.7466 19.3575 54.6121Z" fill="white" stroke="black" stroke-width="2"/>
<path d="M56.1954 27.8473L50.4807 23.6957C49.2301 22.7869 48.707 21.1768 49.1843 19.7064L51.3676 12.9883C52.8269 15.119 54.011 17.4902 54.8496 20.0708C55.6882 22.6514 56.124 25.2661 56.1954 27.8473Z" fill="white" stroke="black" stroke-width="2"/>
<path d="M37.8433 54.6121L40.0259 47.8945C40.5032 46.4242 41.8734 45.4287 43.4194 45.4287H50.483C48.9077 47.4752 47.0187 49.3344 44.8232 50.9292C42.6278 52.524 40.2761 53.7466 37.8433 54.6121Z" fill="white"/>
<path d="M26.5028 18.8823L20.0062 23.6028C18.7556 24.511 18.232 26.1217 18.7099 27.592L21.1916 35.2294C21.6688 36.6997 23.0391 37.6952 24.5851 37.6952H32.6155C34.1609 37.6952 35.5312 36.6997 36.0091 35.2294L38.4907 27.592C38.968 26.1217 38.445 24.511 37.1944 23.6028L30.6978 18.8823C29.4466 17.9741 27.7534 17.9741 26.5028 18.8823Z" fill="white" stroke="black" stroke-width="2"/>
<path d="M27.0899 74.4219C27.1985 77.9986 30.0684 80.8684 33.6451 80.9771C41.543 81.217 55.8759 79.7045 67.7906 67.7904C79.7046 55.8758 81.2171 41.5429 80.9772 33.6449C80.8686 30.0683 77.9987 27.1984 74.422 27.0898C66.5241 26.8499 52.1912 28.363 40.2765 40.277C28.3625 52.1911 26.85 66.524 27.0899 74.4219Z" fill="white" stroke="black" stroke-width="2"/>
<path d="M28.6308 76.6409C28.2917 76.9848 28.2469 77.5218 28.5242 77.9171C29.0428 78.6564 29.687 79.2998 30.4252 79.8183C30.825 80.0991 31.3692 80.0499 31.7121 79.702L79.3699 31.3591C79.709 31.0151 79.7537 30.4777 79.476 30.0823C78.9575 29.3441 78.314 28.6997 77.5739 28.1811C77.1741 27.9009 76.6305 27.9503 76.2879 28.298L28.6308 76.6409Z" fill="white" stroke="black" stroke-width="2" stroke-linecap="round" stroke-linejoin="round"/>
<path d="M61.2468 40.3203L40.3203 61.2468C39.1009 62.4662 39.1009 64.4434 40.3203 65.6627L42.4046 67.7471C43.624 68.9665 45.6012 68.9665 46.8206 67.7471L67.7471 46.8206C68.9665 45.6012 68.9665 43.624 67.7471 42.4046L65.6627 40.3203C64.4434 39.1009 62.4662 39.1009 61.2468 40.3203Z" fill="white" stroke="black" stroke-width="2"/>
<path d="M46.9397 46.9394L46.9397 46.9394C46.0914 47.7877 46.0914 49.1631 46.9397 50.0114L47.6468 49.3043L46.9397 50.0114L58.056 61.1277C58.4805 61.5522 59.0387 61.7636 59.592 61.7636C60.1462 61.7636 60.7041 61.5509 61.1273 61.1277C61.9756 60.2794 61.9756 58.9041 61.1273 58.0558L50.0115 46.9399C50.0113 46.9398 50.0112 46.9396 50.011 46.9394C49.1629 46.0907 47.7876 46.0916 46.9397 46.9394Z" fill="white" stroke="black" stroke-width="2"/>
<path d="M40.7256 53.1538L40.7251 53.1543C39.8768 54.0026 39.8768 55.378 40.7251 56.2262L51.8414 67.3426C52.2659 67.7671 52.8241 67.9785 53.3774 67.9785C53.9318 67.9785 54.4891 67.7657 54.9124 67.3435L54.9138 67.3421C55.7606 66.4942 55.7613 65.1192 54.9133 64.2713L43.7964 53.1543L43.0893 53.8614L43.7964 53.1543C42.9485 52.3064 41.5735 52.3071 40.7256 53.1538Z" fill="white" stroke="black" stroke-width="2"/>
<path d="M53.1537 43.7959L53.1542 43.7964L64.2702 54.9118C64.2705 54.9121 64.2708 54.9124 64.2711 54.9127C64.6945 55.3367 65.2525 55.5493 65.8065 55.5493C66.3605 55.5493 66.9186 55.3367 67.3421 54.9125C68.1905 54.0644 68.1896 52.6892 67.3419 51.8414C67.3419 51.8414 67.3418 51.8414 67.3418 51.8414L56.2261 40.7251L56.2261 40.7251C55.3778 39.8768 54.0025 39.8768 53.1542 40.7251L53.1537 40.7256C52.3067 41.5737 52.3067 42.9477 53.1537 43.7959Z" fill="white" stroke="black" stroke-width="2"/>
</svg>
