<svg width="83" height="82" viewBox="0 0 83 82" fill="none" xmlns="http://www.w3.org/2000/svg">
<path d="M42.3527 1H39.6482C38.5306 1 37.6246 1.90594 37.6246 3.02359V64.2206H44.3763V3.02359C44.3763 1.90594 43.4702 1 42.3527 1V1Z" fill="white" stroke="black" stroke-width="2"/>
<path d="M45.5745 18.0813H36.4248C34.6459 18.0813 33.0862 16.8922 32.6153 15.1768L31.027 9.39191C30.6809 8.1316 31.6294 6.8877 32.9362 6.8877H49.0631C50.3701 6.8877 51.3184 8.1316 50.9725 9.39191L49.384 15.1766C48.9129 16.8922 47.3534 18.0813 45.5745 18.0813Z" fill="white" stroke="black" stroke-width="2"/>
<path d="M32.9362 6.8877C31.6294 6.8877 30.6809 8.1316 31.027 9.39191L32.6153 15.1768C33.0864 16.8922 34.6459 18.0813 36.4248 18.0813H42.3965C39.2278 15.6804 38.6115 11.3416 38.8609 6.8877H32.9362Z" fill="white" stroke="black" stroke-width="2"/>
<path d="M37.6236 53.1166H9.99377C14.2503 41.3953 27.0197 27.078 37.6236 21.7896V53.1166Z" fill="white" stroke="black" stroke-width="2"/>
<path d="M24.4597 53.1166H37.6244V21.7896C35.941 22.6291 34.2028 23.6972 32.453 24.9453C32.656 34.3775 32.153 48.3811 24.4597 53.1166Z" fill="white" stroke="black" stroke-width="2"/>
<path d="M44.3755 47.0038H66.6139C63.188 37.5697 52.9102 26.0461 44.3755 21.7896V47.0038Z" fill="white" stroke="black" stroke-width="2"/>
<path d="M48.9905 24.6591C47.4294 23.5128 45.8755 22.5377 44.3754 21.7896V47.0038H56.0688C49.8152 43.8077 48.4269 31.0194 48.9905 24.6591Z" fill="white" stroke="black" stroke-width="2"/>
<path d="M64.3061 81H14.0643C10.7861 81 7.79849 79.1196 6.38052 76.1642L1.30208 65.5795C0.337237 63.5686 1.80286 61.2396 4.03333 61.2396H38.0896C39.9541 61.2396 41.7635 60.6071 43.2219 59.4453L48.9144 54.9106C50.3729 53.7489 52.1822 53.1162 54.0468 53.1162H77.9674C80.1824 53.1162 81.6486 55.4157 80.7138 57.424L72.0327 76.0737C70.634 79.0786 67.6202 81 64.3061 81Z" fill="white" stroke="black" stroke-width="2"/>
<path d="M36.4333 61.2397H4.03333C1.80286 61.2397 0.337237 63.5687 1.30208 65.5796L6.38052 76.1643C7.79864 79.1197 10.7861 81.0001 14.0643 81.0001H42.6394C37.8224 77.2462 35.1363 66.7374 36.4333 61.2397Z" fill="white" stroke="black" stroke-width="2"/>
<path d="M5.15015 73.5996L6.38061 76.1641C7.79874 79.1196 10.7862 80.9999 14.0644 80.9999H64.3061C67.6203 80.9999 70.6339 79.0785 72.0325 76.074L73.1842 73.5998H5.15015V73.5996Z" fill="white" stroke="black" stroke-width="2"/>
<path d="M6.38062 76.1641C7.79874 79.1196 10.7862 80.9999 14.0645 80.9999H42.6397C40.6234 79.4287 38.98 76.6754 37.8463 73.5996H5.15015L6.38062 76.1641Z" fill="white" stroke="black" stroke-width="2"/>
<path d="M19.4706 69.9136C20.8479 69.9136 21.9645 68.797 21.9645 67.4197C21.9645 66.0423 20.8479 64.9258 19.4706 64.9258C18.0932 64.9258 16.9767 66.0423 16.9767 67.4197C16.9767 68.797 18.0932 69.9136 19.4706 69.9136Z" fill="white" stroke="black" stroke-width="2"/>
<path d="M36.6733 69.9136C38.0507 69.9136 39.1673 68.797 39.1673 67.4197C39.1673 66.0423 38.0507 64.9258 36.6733 64.9258C35.296 64.9258 34.1794 66.0423 34.1794 67.4197C34.1794 68.797 35.296 69.9136 36.6733 69.9136Z" fill="white" stroke="black" stroke-width="2"/>
<path d="M37.6244 18.0815H44.3761V20.9919H37.6244V18.0815Z" fill="white" stroke="black" stroke-width="2"/>
<path d="M66.6728 43.2983H44.3755V47.1599H66.6728C67.7392 47.1599 68.6036 46.2955 68.6036 45.2291C68.6036 44.1627 67.7392 43.2983 66.6728 43.2983Z" fill="white" stroke="black" stroke-width="2"/>
<path d="M9.97119 49.4111H37.6243V53.2727H9.97119C8.90478 53.2727 8.04041 52.4083 8.04041 51.3419C8.04041 50.2757 8.90494 49.4111 9.97119 49.4111Z" fill="white" stroke="black" stroke-width="2"/>
<path d="M55.5674 61.4879C54.9202 61.4879 54.3955 60.9634 54.3955 60.3161V59.0229C54.3955 58.3756 54.9202 57.8511 55.5674 57.8511C56.2146 57.8511 56.7393 58.3756 56.7393 59.0229V60.3161C56.7393 60.9634 56.2146 61.4879 55.5674 61.4879Z" fill="black"/>
<path d="M71.1489 61.4879C70.5017 61.4879 69.977 60.9634 69.977 60.3161V59.0229C69.977 58.3756 70.5017 57.8511 71.1489 57.8511C71.7961 57.8511 72.3207 58.3756 72.3207 59.0229V60.3161C72.3207 60.9634 71.7961 61.4879 71.1489 61.4879Z" fill="black"/>
<path d="M63.3584 62.4812C62.2324 62.4812 61.1618 61.9935 60.421 61.1435C59.9959 60.6555 60.0466 59.9152 60.5346 59.4901C61.0224 59.0648 61.7629 59.1158 62.1881 59.6037C62.4837 59.943 62.9102 60.1376 63.3585 60.1376C63.8068 60.1376 64.2334 59.943 64.529 59.6037C64.9543 59.1157 65.6945 59.0651 66.1823 59.4901C66.6702 59.9152 66.721 60.6555 66.2959 61.1435C65.5549 61.9935 64.4843 62.4812 63.3584 62.4812Z" fill="black"/>
</svg>
