<svg width="82" height="81" viewBox="0 0 82 81" fill="none" xmlns="http://www.w3.org/2000/svg">
<path d="M32.0002 12.0542H40.5833L44.2999 15.8021L40.5833 19.55H32.0002L28.2836 15.8021L32.0002 12.0542Z" fill="white" stroke="black" stroke-width="2"/>
<path d="M47.1166 15.8021L50.8332 12.0542H56.9705C57.999 12.0542 58.833 12.8882 58.833 13.9167V19.55H50.8332L47.1166 15.8021Z" fill="white" stroke="black" stroke-width="2"/>
<path d="M42 12.0542H49.4165V19.55H42V12.0542Z" fill="white" stroke="black" stroke-width="2"/>
<path d="M23.167 13.9167C23.167 12.8882 24.001 12.0542 25.0295 12.0542H30.5835V19.55H23.167V13.9167Z" fill="white" stroke="black" stroke-width="2"/>
<path d="M72.7832 19.5499H68.3446V8.37524C68.3446 6.75505 67.0286 5.4386 65.4086 5.4386H16.5914C14.9714 5.4386 13.6554 6.75505 13.6554 8.37524V19.5499H9.2168V8.37524C9.2168 4.30951 12.5259 1 16.5914 1H65.408C69.4736 1 72.7832 4.30961 72.7832 8.37524V19.5499Z" fill="white" stroke="black" stroke-width="2"/>
<path d="M9.2168 13.9614H13.6554V19.5499H9.2168V13.9614Z" fill="white" stroke="black" stroke-width="2"/>
<path d="M68.3446 13.9614H72.7832V19.5499H68.3446V13.9614Z" fill="white" stroke="black" stroke-width="2"/>
<path d="M81 22.5214V34.8224H41H1V22.5214C1 19.9091 3.11853 17.7905 5.73083 17.7905H76.2692C78.8815 17.7905 81 19.9091 81 22.5214Z" fill="white" stroke="black" stroke-width="2"/>
<path d="M5.8291 22.5214V34.8224H1V22.5214C1 19.9091 3.11853 17.7905 5.73083 17.7905H10.5599C7.94702 17.7905 5.8291 19.9091 5.8291 22.5214Z" fill="white" stroke="black" stroke-width="2"/>
<path d="M56.1221 34.8223V58.5289V79.3486H76.2692C78.8815 79.3486 81 77.2301 81 74.6178V34.8223H56.1221Z" fill="white" stroke="black" stroke-width="2"/>
<path d="M1 34.8223V74.6178C1 77.2301 3.11853 79.3486 5.73083 79.3486H25.8779V58.5289V34.8223H1Z" fill="white" stroke="black" stroke-width="2"/>
<path d="M5.8291 74.6178V34.8223H1V74.6178C1 77.2301 3.11853 79.3486 5.73083 79.3486H10.5599C7.94702 79.3486 5.8291 77.2301 5.8291 74.6178Z" fill="white" stroke="black" stroke-width="2"/>
<path d="M25.8779 34.8223H56.1221V79.3486H25.8779V34.8223Z" fill="white" stroke="black" stroke-width="2"/>
<path d="M31.4419 43.1584C31.328 43.1584 31.2352 43.0663 31.2352 42.9512V41.2214C31.2352 41.1066 31.3283 41.0142 31.4419 41.0142C31.5564 41.0142 31.6492 41.1069 31.6492 41.2214V42.9512C31.6492 43.066 31.5567 43.1584 31.4419 43.1584Z" fill="white" stroke="black" stroke-width="2"/>
<path d="M50.5581 43.1584C50.4433 43.1584 50.3508 43.066 50.3508 42.9512V41.2214C50.3508 41.1069 50.4436 41.0142 50.5581 41.0142C50.6717 41.0142 50.7648 41.1066 50.7648 41.2214V42.9512C50.7648 43.0663 50.672 43.1584 50.5581 43.1584Z" fill="white" stroke="black" stroke-width="2"/>
<path d="M40.9999 44.0817C40.0105 44.0817 39.0973 43.6677 38.4852 42.9675L43.5146 42.9675C42.9025 43.6677 41.9893 44.0817 40.9999 44.0817ZM38.797 42.6944C39.3524 43.3298 40.1646 43.6671 40.9999 43.6671C41.8352 43.6671 42.6474 43.3298 43.2028 42.6944C43.278 42.6084 43.4088 42.5993 43.4954 42.6748C43.5813 42.7501 43.5903 42.8807 43.5148 42.9673L38.797 42.6944Z" fill="white" stroke="black" stroke-width="2"/>
<path d="M18.1393 24.585H63.8607C64.2249 24.585 64.5203 24.8804 64.5203 25.2445V27.3679C64.5203 27.732 64.2249 28.0275 63.8607 28.0275H18.1393C17.7751 28.0275 17.4797 27.732 17.4797 27.3679V25.2445C17.4797 24.8804 17.7751 24.585 18.1393 24.585Z" fill="white" stroke="black" stroke-width="2"/>
<path d="M11.7352 26.3069C11.7352 27.4348 10.8208 28.3495 9.69202 28.3495C8.56374 28.3495 7.6488 27.4346 7.6488 26.3069C7.6488 25.1784 8.56387 24.2637 9.69202 24.2637C10.8206 24.2637 11.7352 25.1783 11.7352 26.3069Z" fill="white" stroke="black" stroke-width="2"/>
<path d="M74.3512 26.3069C74.3512 27.4346 73.4363 28.3495 72.308 28.3495C71.1792 28.3495 70.2648 27.4348 70.2648 26.3069C70.2648 25.1783 71.1794 24.2637 72.308 24.2637C73.4361 24.2637 74.3512 25.1784 74.3512 26.3069Z" fill="white" stroke="black" stroke-width="2"/>
<path d="M20.1294 55.3096C20.1294 59.0047 17.1341 62 13.439 62C9.74381 62 6.74854 59.0047 6.74854 55.3096C6.74854 51.6144 9.74381 48.6191 13.439 48.6191C17.1341 48.6191 20.1294 51.6144 20.1294 55.3096Z" fill="white" stroke="black" stroke-width="2"/>
<path d="M15.2649 55.3093C15.2649 56.3177 14.4473 57.1353 13.439 57.1353C12.4306 57.1353 11.613 56.3177 11.613 55.3093C11.613 54.3009 12.4306 53.4834 13.439 53.4834C14.4473 53.4834 15.2649 54.3009 15.2649 55.3093Z" fill="white" stroke="black" stroke-width="2"/>
<path d="M75.2515 55.3096C75.2515 59.0047 72.2562 62 68.561 62C64.8659 62 61.8706 59.0047 61.8706 55.3096C61.8706 51.6144 64.8659 48.6191 68.561 48.6191C72.2562 48.6191 75.2515 51.6144 75.2515 55.3096Z" fill="white" stroke="black" stroke-width="2"/>
<path d="M70.387 55.3093C70.387 56.3177 69.5694 57.1353 68.561 57.1353C67.5527 57.1353 66.7351 56.3177 66.7351 55.3093C66.7351 54.3009 67.5527 53.4834 68.561 53.4834C69.5694 53.4834 70.387 54.3009 70.387 55.3093Z" fill="white" stroke="black" stroke-width="2"/>
<path d="M32.9916 51.8389H49.0084C49.6335 51.8389 50.1398 52.3451 50.1398 52.9702V64.0878C50.1398 64.7132 49.6331 65.2197 49.0084 65.2197H32.9916C32.3669 65.2197 31.8602 64.7132 31.8602 64.0878V52.9702C31.8602 52.3451 32.3665 51.8389 32.9916 51.8389Z" fill="white" stroke="black" stroke-width="2"/>
<path d="M38.3099 58.5293C38.3099 59.3547 37.6405 60.0244 36.8148 60.0244C35.9895 60.0244 35.3197 59.3546 35.3197 58.5293C35.3197 57.7036 35.9894 57.0342 36.8148 57.0342C37.6407 57.0342 38.3099 57.7034 38.3099 58.5293Z" fill="white" stroke="black" stroke-width="2"/>
<path d="M46.6803 58.5293C46.6803 59.3546 46.0105 60.0244 45.1852 60.0244C44.3595 60.0244 43.6901 59.3547 43.6901 58.5293C43.6901 57.7034 44.3593 57.0342 45.1852 57.0342C46.0106 57.0342 46.6803 57.7036 46.6803 58.5293Z" fill="white" stroke="black" stroke-width="2"/>
</svg>
