<svg width="82" height="56" viewBox="0 0 82 56" fill="none" xmlns="http://www.w3.org/2000/svg">
<path d="M64.9757 23.7084L62.7371 13.9784C61.974 10.6617 59.0217 8.31152 55.6184 8.31152H26.3818C22.9785 8.31152 20.0262 10.6618 19.2631 13.9784L17.0245 23.7084C16.797 24.6976 15.9164 25.3986 14.9014 25.3986H9.17668C6.38339 25.3986 4.11902 27.6629 4.11902 30.4562V44.254H77.8814V30.4562C77.8814 27.6629 75.617 25.3986 72.8237 25.3986H67.099C66.0839 25.3984 65.2034 24.6975 64.9757 23.7084Z" fill="white" stroke="black" stroke-width="2"/>
<path d="M39.8623 8.31152H26.382C22.9787 8.31152 20.0262 10.6618 19.2632 13.9784L17.0246 23.7084C16.797 24.6976 15.9165 25.3986 14.9015 25.3986H9.17668C6.38339 25.3986 4.11902 27.6629 4.11902 30.4562V44.254H44.3339C37.7956 34.9298 38.5492 17.5718 39.8623 8.31152Z" fill="white" stroke="black" stroke-width="2"/>
<path d="M19.4054 52.4743C23.9557 51.3987 26.7725 46.838 25.6969 42.2878C24.6213 37.7375 20.0606 34.9207 15.5103 35.9963C10.96 37.0719 8.14319 41.6326 9.2188 46.1829C10.2944 50.7332 14.8551 53.55 19.4054 52.4743Z" fill="white" stroke="black" stroke-width="2"/>
<path d="M18.3208 47.8862C20.337 47.4096 21.5851 45.3888 21.1085 43.3725C20.6319 41.3563 18.6111 40.1082 16.5948 40.5848C14.5786 41.0614 13.3305 43.0822 13.8071 45.0985C14.2837 47.1147 16.3045 48.3628 18.3208 47.8862Z" fill="white" stroke="black" stroke-width="2" stroke-linecap="round" stroke-linejoin="round"/>
<path d="M7.60187 47.7841H2.37812C1.61703 47.7841 1 47.1671 1 46.406V41.6496C1 40.8885 1.61703 40.2715 2.37812 40.2715H7.60203C8.36312 40.2715 8.98016 40.8885 8.98016 41.6496V46.406C8.98 47.1671 8.36312 47.7841 7.60187 47.7841Z" fill="white" stroke="black" stroke-width="2"/>
<path d="M72.7926 46.2313C73.8682 41.681 71.0514 37.1203 66.5011 36.0447C61.9508 34.9691 57.3901 37.7859 56.3145 42.3362C55.2389 46.8865 58.0557 51.4471 62.606 52.5228C67.1563 53.5984 71.717 50.7816 72.7926 46.2313Z" fill="white" stroke="black" stroke-width="2"/>
<path d="M68.2042 45.1465C68.6808 43.1303 67.4327 41.1094 65.4165 40.6328C63.4002 40.1562 61.3794 41.4043 60.9028 43.4206C60.4262 45.4368 61.6743 47.4577 63.6905 47.9343C65.7068 48.4109 67.7276 47.1627 68.2042 45.1465Z" fill="white" stroke="black" stroke-width="2"/>
<path d="M74.3981 47.7841H79.622C80.3831 47.7841 81.0002 47.1671 81.0002 46.406V41.6496C81.0002 40.8885 80.3831 40.2715 79.622 40.2715H74.3981C73.6371 40.2715 73.02 40.8885 73.02 41.6496V46.406C73.0202 47.1671 73.6371 47.7841 74.3981 47.7841Z" fill="white" stroke="black" stroke-width="2"/>
<path d="M42.8339 31.751H46.5014V35.4185H42.8339V31.751Z" fill="white" stroke="black"/>
<path d="M39.1661 31.751H42.8336V35.4185H39.1661V31.751Z" fill="white" stroke="black"/>
<path d="M35.4985 31.751H39.166V35.4185H35.4985V31.751Z" fill="white" stroke="black"/>
<path d="M50.1689 35.4186H46.5012V31.751H49.3162C49.787 31.751 50.1687 32.1327 50.1687 32.6036V35.4186H50.1689Z" fill="white" stroke="black"/>
<path d="M31.8312 35.4186H35.4988V31.751H32.6838C32.2129 31.751 31.8312 32.1327 31.8312 32.6036V35.4186Z" fill="white" stroke="black"/>
<path d="M42.8339 35.4189H46.5014V39.0864H42.8339V35.4189Z" fill="white" stroke="black"/>
<path d="M39.1661 35.4189H42.8336V39.0864H39.1661V35.4189Z" fill="white" stroke="black"/>
<path d="M35.4985 35.4189H39.166V39.0864H35.4985V35.4189Z" fill="white" stroke="black"/>
<path d="M49.3165 39.0864H46.5015V35.4189H50.1691V38.2339C50.169 38.7047 49.7872 39.0864 49.3165 39.0864Z" fill="white" stroke="black"/>
<path d="M32.6837 39.0864H35.4987V35.4189H31.8311V38.2339C31.8312 38.7047 32.2129 39.0864 32.6837 39.0864Z" fill="white" stroke="black"/>
<path d="M51.5989 1.27881H49.3149C48.1628 1.27881 47.1483 2.03709 46.8222 3.14193L45.2957 8.31178H55.6182L54.0916 3.14193C53.7653 2.03709 52.7508 1.27881 51.5989 1.27881Z" fill="white" stroke="black" stroke-width="2"/>
<path d="M75.2004 30.4561H77.8809V36.8553H75.2004C73.996 36.8553 73.0198 35.879 73.0198 34.6747V32.6367C73.0198 31.4323 73.996 30.4561 75.2004 30.4561Z" fill="white" stroke="black" stroke-width="2"/>
<path d="M6.79949 30.4561H4.11902V36.8553H6.79964C8.00402 36.8553 8.98027 35.879 8.98027 34.6747V32.6367C8.98011 31.4323 8.00386 30.4561 6.79949 30.4561Z" fill="white" stroke="black" stroke-width="2" stroke-linejoin="round"/>
<path d="M34.4293 12.9482H25.7796C24.8285 12.9482 24.0068 13.6123 23.8071 14.5421L22.0002 22.9573C21.7305 24.2134 22.688 25.3982 23.9727 25.3982H34.4293C35.5435 25.3982 36.4468 24.495 36.4468 23.3807V14.9657C36.4468 13.8515 35.5435 12.9482 34.4293 12.9482Z" fill="white" stroke="black" stroke-width="2"/>
<path d="M44.0176 12.9482H52.6673C53.6183 12.9482 54.4401 13.6123 54.6398 14.5421L56.4467 22.9573C56.7164 24.2134 55.7589 25.3982 54.4742 25.3982H44.0176C42.9034 25.3982 42.0001 24.495 42.0001 23.3807V14.9657C42.0001 13.8515 42.9034 12.9482 44.0176 12.9482Z" fill="white" stroke="black" stroke-width="2"/>
<path d="M60.1287 22.7632C60.4587 24.3004 61.8174 25.3984 63.3896 25.3984H67.099C66.084 25.3984 65.2034 24.6975 64.9759 23.7082L62.7373 13.9782C62.6555 13.6229 62.5473 13.2796 62.4174 12.9482H59.7499C58.8604 12.9482 58.1974 13.7686 58.3841 14.6384L60.1287 22.7632Z" fill="white" stroke="black" stroke-width="2"/>
<path d="M34.4291 25.3984C35.5433 25.3984 36.4466 24.4951 36.4466 23.3809V14.9657C36.4466 14.6311 36.3638 14.3161 36.2196 14.0381L24.8593 25.3984H34.4291Z" fill="white" stroke="black" stroke-width="2" stroke-linejoin="round"/>
<path d="M44.0175 12.9482C42.9033 12.9482 42 13.8515 42 14.9657V23.3809C42 23.4559 42.0048 23.5296 42.0128 23.6026L52.6672 12.9482H44.0175Z" fill="white" stroke="black" stroke-width="2" stroke-linejoin="round"/>
<path d="M55.907 28.8559H54.3248C53.1398 28.8559 52.1792 27.8953 52.1792 26.7103V24.7008C52.1792 23.5158 53.1398 22.5552 54.3248 22.5552H55.907C57.6469 22.5552 59.0573 23.9656 59.0573 25.7055C59.0573 27.4455 57.6469 28.8559 55.907 28.8559Z" fill="white" stroke="black" stroke-width="2"/>
</svg>
