<svg width="83" height="68" viewBox="0 0 83 68" fill="none" xmlns="http://www.w3.org/2000/svg">
<rect width="80.0001" height="65.7478" transform="translate(1 1.1875)" fill="white"/>
<path d="M27.8974 65.2C27.6313 65.2 27.3609 65.1549 27.096 65.0584C25.8796 64.6153 25.2528 63.2707 25.6953 62.0543L32.6179 43.0339C33.061 41.8174 34.4062 41.1906 35.622 41.6331C36.8384 42.0756 37.4659 43.4208 37.0234 44.6373L30.1002 63.6577C29.7535 64.6092 28.8544 65.2 27.8974 65.2Z" fill="white" stroke="black" stroke-width="2"/>
<path d="M61.7939 65.1998C60.8363 65.1998 59.9378 64.6089 59.5911 63.6574L52.6685 44.637C52.226 43.4206 52.8528 42.0754 54.0693 41.6329C55.2857 41.1898 56.6303 41.8172 57.0734 43.0336L63.996 62.054C64.4392 63.2704 63.8117 64.6157 62.5953 65.0582C62.331 65.1546 62.06 65.1998 61.7939 65.1998Z" fill="white" stroke="black" stroke-width="2"/>
<path d="M69.0126 66.9353H20.6788C19.142 66.9353 17.8962 65.6896 17.8962 64.1527C17.8962 62.6158 19.142 61.3701 20.6788 61.3701H69.0126C70.5494 61.3701 71.7952 62.6158 71.7952 64.1527C71.7952 65.6896 70.5488 66.9353 69.0126 66.9353Z" fill="white" stroke="black" stroke-width="2"/>
<path d="M52.7228 16.9006C52.7228 18.0999 53.6954 19.0725 54.8947 19.0725C56.0952 19.0725 57.0665 18.0992 57.0665 16.9V9.47266C57.0665 8.27374 56.0949 7.30078 54.8947 7.30078C53.6954 7.30078 52.7228 8.2734 52.7228 9.47266V16.9006Z" fill="white" stroke="black" stroke-width="2"/>
<path d="M52.8954 3.59961H29.9199C28.911 3.59961 28.4099 4.82275 29.1289 5.53076L29.8717 6.26196C31.3268 7.69385 33.2866 8.49646 35.3276 8.49646H52.8954V3.59961Z" fill="white" stroke="black" stroke-width="2"/>
<path d="M56.8942 8.49646H79.8702C80.8791 8.49646 81.3802 7.27332 80.6612 6.56592L79.9178 5.83411C78.4634 4.40222 76.5035 3.59961 74.4619 3.59961H56.8942V8.49646Z" fill="white" stroke="black" stroke-width="2"/>
<path d="M60.6331 6.04773C60.6331 3.3634 58.0641 1.1875 54.8945 1.1875C51.7256 1.1875 49.156 3.3634 49.156 6.04773C49.156 8.73206 51.7256 10.9086 54.8945 10.9086C58.0641 10.9086 60.6331 8.73206 60.6331 6.04773Z" fill="white" stroke="black" stroke-width="2"/>
<path d="M54.8947 15.3501C45.7491 15.3501 37.8909 20.8604 34.4583 28.7418C32.5637 33.0906 28.2113 35.8518 23.4683 35.8518H20.2963C18.6715 35.8518 17.1542 35.0382 16.2551 33.6851L12.6095 28.198C11.6146 26.7014 9.93677 25.8011 8.13928 25.8011H4.37341C2.51001 25.8011 1 27.3118 1 29.1746V38.0234C1 44.033 5.87183 48.9048 11.8813 48.9048H35.3158C36.4236 48.9048 37.4941 49.2673 38.395 49.9119C42.4709 52.8275 48.3529 53.967 54.8947 53.967C67.2006 53.967 77.1761 49.9369 77.1761 37.631C77.1761 25.3257 67.2006 15.3501 54.8947 15.3501Z" fill="white" stroke="black" stroke-width="2"/>
<path d="M35.3158 48.9044C36.4236 48.9044 37.4941 49.2676 38.395 49.9115C42.4709 52.8271 48.3529 53.9673 54.8947 53.9673C59.8202 53.9673 64.371 53.3203 68.0593 51.7572C45.964 49.6875 38.6569 34.9414 36.5402 25.0024C35.7327 26.1737 35.0326 27.4237 34.4583 28.7421C32.5643 33.0908 28.2113 35.8514 23.4683 35.8514H20.2963C18.6715 35.8514 17.1548 35.0385 16.2551 33.6847L12.6095 28.1982C11.6146 26.701 9.93677 25.8014 8.13989 25.8014H4.37341C2.51001 25.8014 1 27.312 1 29.1748V38.0237C1 44.0332 5.87183 48.905 11.8813 48.905H35.3158V48.9044Z" fill="white" stroke="black" stroke-width="2" stroke-linejoin="round"/>
<path d="M11.8813 48.9043H35.3158C36.4236 48.9043 37.4941 49.2675 38.395 49.9114C40.6338 51.5135 43.4207 52.5762 46.5603 53.2115C36.4968 48.2067 32.0986 40.6279 31.1184 33.1377C29.0035 34.8625 26.3058 35.8513 23.4683 35.8513H20.2963C18.6715 35.8513 17.1542 35.0383 16.2551 33.6846L12.6095 28.1981C11.6146 26.7009 9.93677 25.8013 8.13928 25.8013H4.37341C2.51001 25.8013 1 27.3119 1 29.1747V38.0236C1 44.0331 5.87183 48.9043 11.8813 48.9043Z" fill="white" stroke="black" stroke-width="2"/>
<path d="M11.8813 48.9043H27.8457C29.1024 45.1274 28.9327 39.5354 28.265 34.8644C26.7764 35.5046 25.1467 35.8519 23.4683 35.8519H20.2963C18.6715 35.8519 17.1542 35.0383 16.2551 33.6852L12.6095 28.1981C11.6146 26.7015 9.93677 25.8013 8.13928 25.8013H4.37341C2.51001 25.8013 1 27.3119 1 29.1747V38.0236C1 44.0331 5.87183 48.9043 11.8813 48.9043Z" fill="white" stroke="black" stroke-width="2"/>
<path d="M56.0511 29.2711L57.776 34.1167C58.8484 37.13 61.7012 39.1429 64.8994 39.1429H77.1217C77.1565 38.6528 77.176 38.1505 77.176 37.6317C77.176 33.3776 75.9834 29.4023 73.9149 26.021H58.3442C56.6621 26.021 55.4872 27.6866 56.0511 29.2711Z" fill="white" stroke="black" stroke-width="2"/>
<path d="M14.1115 42.6744C13.8118 42.6744 13.5121 42.5602 13.2833 42.3314L3.61346 32.6616C3.1557 32.2038 3.1557 31.4616 3.61346 31.0045C4.07123 30.5467 4.81281 30.5467 5.27057 31.0045L14.9404 40.6743C15.3981 41.1314 15.3981 41.8736 14.9404 42.3314C14.7115 42.5602 14.4118 42.6744 14.1115 42.6744Z" fill="white" stroke="black" stroke-width="0.999999"/>
<path d="M12.1957 36.6677C12.1957 38.2797 10.8889 39.5864 9.27698 39.5864C7.66504 39.5864 6.35828 38.2797 6.35828 36.6677C6.35828 35.0558 7.66504 33.749 9.27698 33.749C10.8889 33.749 12.1957 35.0558 12.1957 36.6677Z" fill="white" stroke="black" stroke-width="2"/>
<path d="M54.4935 40.6562H50.7942C50.1472 40.6562 49.6223 40.1313 49.6223 39.4844C49.6223 38.8374 50.1472 38.3125 50.7942 38.3125H54.4935C55.1411 38.3125 55.6654 38.8374 55.6654 39.4844C55.6654 40.1313 55.1411 40.6562 54.4935 40.6562Z" fill="white" stroke="black"/>
<path d="M54.8945 10.9086C56.7219 10.9086 58.3479 10.1847 59.3989 9.05798C51.9673 9.79895 50.5836 4.12207 53.5682 1.31934C51.0389 1.82654 49.156 3.75037 49.156 6.04834C49.156 8.73267 51.7256 10.9086 54.8945 10.9086Z" fill="white" stroke="black" stroke-width="2" stroke-linejoin="round"/>
<path d="M20.6788 61.3701C19.142 61.3701 17.8962 62.6158 17.8962 64.1527C17.8962 65.6896 19.142 66.9353 20.6788 66.9353H44.0126C40.5073 65.703 39.9458 62.9314 40.8638 61.3701H20.6788Z" fill="white" stroke="black" stroke-width="2"/>
<path d="M58.3442 26.021C56.6621 26.021 55.4872 27.6866 56.0511 29.2711L57.776 34.1167C58.0165 34.7924 58.3473 35.4174 58.7507 35.9813L68.7104 26.021H58.3442Z" fill="white" stroke="black" stroke-width="2"/>
</svg>
