<svg width="82" height="76" viewBox="0 0 82 76" fill="none" xmlns="http://www.w3.org/2000/svg">
<path d="M24.9453 54.4915C24.9453 54.4915 20.6332 59.8644 20.6332 67.1947C20.6332 74.525 29.2574 74.4176 29.2574 74.4176H52.7426C52.7426 74.4176 61.3668 74.525 61.3668 67.1947C61.3668 59.8644 57.0547 54.4915 57.0547 54.4915L41.5389 50.5938L24.9453 54.4915Z" fill="white" stroke="black" stroke-width="2"/>
<path d="M25.4623 67.1947C25.4623 59.8644 29.7744 54.4915 29.7744 54.4915L43.8723 51.1803L41.5389 50.5938L24.9453 54.4915C24.9453 54.4915 20.6332 59.8644 20.6332 67.1947C20.6332 74.525 29.2574 74.4176 29.2574 74.4176H34.0444C33.4078 74.414 25.4623 74.2321 25.4623 67.1947Z" fill="white" stroke="black" stroke-width="2"/>
<path d="M68.5702 54.4766C68.3627 54.4882 68.1552 54.493 67.944 54.493H14.056C13.8448 54.493 13.6373 54.4882 13.4298 54.4766L1.04028 39.6292C1.27527 34.3496 2.53381 29.3356 4.62305 24.7817L17.4264 9.11951C20.6875 6.73425 24.324 4.83301 28.2308 3.51953H53.7692C57.676 4.83301 61.3125 6.73425 64.5736 9.11951L77.377 24.7817C79.4662 29.3356 80.7247 34.3496 80.9597 39.6292L68.5702 54.4766Z" fill="white" stroke="black" stroke-width="2"/>
<path d="M81 41.4381C81 48.4358 75.4904 54.1511 68.5702 54.4764C68.226 53.387 68.0404 52.2279 68.0404 51.0237C68.0404 44.6815 73.182 39.5405 79.5242 39.5405C80.01 39.5405 80.4897 39.571 80.9597 39.629C80.9872 40.2296 81 40.8314 81 41.4381Z" fill="white" stroke="black" stroke-width="2"/>
<path d="M53.7686 3.51941C52.7737 9.67358 47.4355 14.3733 41 14.3733C34.5645 14.3733 29.2263 9.67358 28.2314 3.51941C32.2415 2.16931 36.5347 1.4375 41 1.4375C45.4653 1.4375 49.7585 2.16931 53.7686 3.51941Z" fill="white" stroke="black" stroke-width="2"/>
<path d="M77.377 24.7814C76.1331 25.2965 74.7689 25.5809 73.3401 25.5809C67.5057 25.5809 62.7755 20.8507 62.7755 15.0164C62.7755 12.8325 63.4384 10.8025 64.5736 9.11914C66.2478 10.3417 67.8225 11.6912 69.2843 13.153C72.6272 16.4958 75.3817 20.4283 77.377 24.7814Z" fill="white" stroke="black" stroke-width="2"/>
<path d="M19.2245 15.017C19.2245 20.8507 14.4943 25.5809 8.65991 25.5809C7.23108 25.5809 5.86694 25.2965 4.62305 24.7814C7.4917 18.5247 11.9265 13.1371 17.4264 9.11914C18.5616 10.8031 19.2245 12.8331 19.2245 15.017Z" fill="white" stroke="black" stroke-width="2"/>
<path d="M52.0529 32.7765C52.0529 38.8812 47.1041 43.83 41 43.83C34.8959 43.83 29.9471 38.8812 29.9471 32.7765C29.9471 26.6724 34.8959 21.7236 41 21.7236C47.1041 21.7236 52.0529 26.6724 52.0529 32.7765Z" fill="white" stroke="black" stroke-width="2"/>
<path d="M13.9596 51.0237C13.9596 52.2279 13.774 53.387 13.4298 54.4764C10.0723 54.319 7.04736 52.8926 4.82446 50.6678C2.46179 48.307 1 45.0422 1 41.4381C1 40.8314 1.01282 40.2296 1.04028 39.629C1.51025 39.571 1.98999 39.5405 2.47583 39.5405C8.81799 39.5405 13.9596 44.6815 13.9596 51.0237Z" fill="white" stroke="black" stroke-width="2"/>
<path d="M30.9811 65.4369C30.3146 65.4369 29.7738 64.8961 29.7738 64.2296V62.4163C29.7738 61.7498 30.3146 61.209 30.9811 61.209C31.6482 61.209 32.1884 61.7498 32.1884 62.4163V64.2296C32.1884 64.8961 31.6476 65.4369 30.9811 65.4369Z" fill="black"/>
<path d="M51.0189 65.4369C50.3518 65.4369 49.8116 64.8961 49.8116 64.2296V62.4163C49.8116 61.7498 50.3518 61.209 51.0189 61.209C51.6854 61.209 52.2262 61.7498 52.2262 62.4163V64.2296C52.2262 64.8961 51.6854 65.4369 51.0189 65.4369Z" fill="black"/>
<path d="M41.0001 66.4053C39.6884 66.4053 38.4555 65.856 37.6181 64.8983C37.1793 64.3966 37.2306 63.6337 37.7329 63.1948C38.2346 62.756 38.9969 62.8073 39.4364 63.309C39.8148 63.7423 40.3849 63.9907 41.0001 63.9907C41.6153 63.9907 42.1854 63.7423 42.5638 63.309C43.0027 62.8073 43.7656 62.756 44.2673 63.1948C44.7696 63.6337 44.8209 64.3966 44.382 64.8983C43.5446 65.856 42.3117 66.4053 41.0001 66.4053Z" fill="black"/>
</svg>
