<svg width="62" height="82" viewBox="0 0 62 82" fill="none" xmlns="http://www.w3.org/2000/svg">
<path d="M31.086 81.0002C35.522 81.0002 41.1665 75.7634 42.6851 67.0183C44.0059 59.4103 44.3025 54.605 31.086 54.605C17.8694 54.605 18.1667 59.4103 19.4875 67.0183C21.0054 75.7634 26.6499 81.0002 31.086 81.0002Z" fill="white" stroke="black" stroke-width="2"/>
<path d="M20.7833 49.9126C9.65351 49.9126 -0.196348 58.9348 2.12299 71.4263C2.55207 73.7371 5.65387 74.1564 6.70063 72.0519C8.89179 67.647 12.9958 63.4343 21.6671 63.4343L20.7833 49.9126Z" fill="white" stroke="black" stroke-width="2"/>
<path d="M41.3887 49.9126C52.5184 49.9126 62.3683 58.9348 60.0495 71.4263C59.6205 73.7371 56.5187 74.1564 55.4713 72.0519C53.2801 67.647 49.1761 63.4343 40.5049 63.4343L41.3887 49.9126Z" fill="white" stroke="black" stroke-width="2"/>
<path d="M48.7283 61.9649C51.7929 39.2427 48.3572 17.9469 37.4746 4.14505C34.2178 0.014801 27.9544 0.014801 24.6981 4.14505C13.8156 17.9469 10.3799 39.2427 13.4439 61.9649C13.6569 63.5451 14.9997 64.7292 16.5945 64.7292H45.5783C47.1731 64.7292 48.5153 63.5451 48.7283 61.9649Z" fill="white" stroke="black" stroke-width="2"/>
<path d="M39.4326 29.0887C39.4326 33.6981 35.696 37.4353 31.0861 37.4353C26.4767 37.4353 22.7395 33.6981 22.7395 29.0887C22.7395 24.4788 26.4767 20.7422 31.0861 20.7422C35.696 20.7422 39.4326 24.4788 39.4326 29.0887Z" fill="white"/>
<path d="M31.0861 39.5154C25.3365 39.5154 20.6594 34.8383 20.6594 29.0887C20.6594 23.3392 25.3365 18.6621 31.0861 18.6621C36.8356 18.6621 41.5127 23.3392 41.5127 29.0887C41.5127 34.8383 36.8356 39.5154 31.0861 39.5154ZM31.0861 22.8223C27.6309 22.8223 24.8202 25.6335 24.8202 29.0887C24.8202 32.5439 27.6309 35.3552 31.0861 35.3552C34.5413 35.3552 37.3525 32.5439 37.3525 29.0887C37.3525 25.6335 34.5413 22.8223 31.0861 22.8223Z" fill="white" stroke="black" stroke-width="2"/>
<path d="M43.4037 13.8992C41.7362 10.3091 39.7385 7.00159 37.3936 4.04321C34.177 -0.0144043 27.9954 -0.0144043 24.7788 4.04321C22.4338 7.00159 20.4362 10.3091 18.7687 13.8992C21.6752 14.606 25.0931 15.1388 31.0862 15.1388C37.0792 15.1388 40.4978 14.606 43.4037 13.8992Z" fill="white" stroke="black" stroke-width="2"/>
<path d="M12.7439 55.4839C12.9172 57.6274 13.1504 59.7899 13.444 61.9652C13.657 63.546 14.9998 64.7295 16.5946 64.7295H45.5784C47.1732 64.7295 48.5154 63.546 48.7284 61.9652C49.022 59.7899 49.2551 57.6274 49.4285 55.4839H12.7439Z" fill="white" stroke="black" stroke-width="2"/>
<path d="M31.5841 51.4199H30.588C29.3215 51.4199 28.2943 52.4471 28.2943 53.7136V71.1239C28.2943 72.391 29.3215 73.4176 30.588 73.4176H31.5841C32.8506 73.4176 33.8778 72.391 33.8778 71.1239V53.7136C33.8778 52.4471 32.8506 51.4199 31.5841 51.4199Z" fill="white" stroke="black" stroke-width="2"/>
<path d="M23.0449 45.6926C22.3979 45.6926 21.873 45.1677 21.873 44.5208V43.1719C21.873 42.5243 22.3979 42 23.0449 42C23.6925 42 24.2168 42.5243 24.2168 43.1719V44.5208C24.2168 45.1677 23.6925 45.6926 23.0449 45.6926Z" fill="black"/>
<path d="M39.2949 45.6926C38.6479 45.6926 38.123 45.1677 38.123 44.5208V43.1719C38.123 42.5243 38.6479 42 39.2949 42C39.9419 42 40.4668 42.5243 40.4668 43.1719V44.5208C40.4668 45.1677 39.9425 45.6926 39.2949 45.6926Z" fill="black"/>
<path d="M31.1697 46.7282C30.0101 46.7282 28.9071 46.2259 28.1442 45.3501C27.7188 44.8624 27.7701 44.122 28.2577 43.6966C28.746 43.2712 29.4858 43.3225 29.9112 43.8102C30.2292 44.1751 30.6875 44.3845 31.1697 44.3845C31.6519 44.3845 32.1103 44.1751 32.4283 43.8102C32.8537 43.3225 33.594 43.2718 34.0817 43.6966C34.57 44.122 34.6207 44.8624 34.1952 45.3501C33.4323 46.2259 32.3294 46.7282 31.1697 46.7282Z" fill="black"/>
</svg>
