<?xml version="1.0" encoding="utf-8"?>
<!-- Generator: Adobe Illustrator 16.0.0, SVG Export Plug-In . SVG Version: 6.00 Build 0)  -->
<!DOCTYPE svg PUBLIC "-//W3C//DTD SVG 1.1//EN" "http://www.w3.org/Graphics/SVG/1.1/DTD/svg11.dtd">
<svg version="1.1" id="Layer_1" xmlns="http://www.w3.org/2000/svg" xmlns:xlink="http://www.w3.org/1999/xlink" x="0px" y="0px"
	 width="83px" height="83px" viewBox="0 0 83 83" enable-background="new 0 0 83 83" xml:space="preserve">
<path fill="#ADE1FA" stroke="#010101" stroke-width="0.15" stroke-miterlimit="10" d="M83.039,43.638H-0.078V-0.09h83.117V43.638z
	 M-0.053-0.101h83.104V83.08H-0.053V-0.101z"/>
<path fill="#8EC641" stroke="#010101" stroke-width="0.15" stroke-miterlimit="10" d="M6.139,37.802
	c-0.668-1.076-1.055-2.345-1.055-3.704c0-3.883,3.147-7.031,7.031-7.031c3.174,0,5.855,2.104,6.729,4.991
	c0.743-0.464,1.62-0.733,2.56-0.733c2.672,0,4.838,2.168,4.838,4.838c0,2.623-2.086,4.756-4.689,4.834
	c0.194,0.479,0.303,1.004,0.303,1.553c0,2.279-1.848,4.128-4.128,4.128c-0.898,0-1.729-0.288-2.407-0.775
	c-1.103,1.708-3.021,2.841-5.205,2.841c-3.42,0-6.192-2.771-6.192-6.189C3.922,40.642,4.785,38.937,6.139,37.802z"/>
<path fill="#8EC641" stroke="#010101" stroke-width="0.15" stroke-miterlimit="10" d="M17.813,39.173
	c0-2.615-1.043-5.75-5.146-5.313c-0.021-1.834-1.514-3.314-3.354-3.314c-0.766,0-1.471,0.257-2.036,0.688
	c-0.987-2.012-2.618-2.962-5.01-2.962c-0.807,0-1.576,0.159-2.28,0.445v19.638c0.694,0.318,1.466,0.497,2.28,0.497
	c0.695,0,1.359-0.131,1.972-0.366c1.079,0.986,2.515,1.589,4.092,1.589c3.349,0,6.063-2.715,6.063-6.063
	c0-0.087-0.002-0.173-0.006-0.26C16.367,43.17,17.813,41.341,17.813,39.173z M12.665,33.859L12.665,33.859
	C12.665,33.854,12.665,33.854,12.665,33.859z"/>
<path fill="#08A650" stroke="#010101" stroke-width="0.15" stroke-miterlimit="10" d="M-0.053,43.638h83.131v39.356H-0.053V43.638z"
	/>
<path fill="#8EC641" stroke="#010101" stroke-width="0.15" stroke-miterlimit="10" d="M83.039,79.086
	c-0.129-0.078-0.254-0.162-0.375-0.252c-1.172,0.793-2.586,1.256-4.109,1.256c-4.061,0-7.354-3.293-7.354-7.354
	c0-4.061,3.293-7.354,7.354-7.354c0.441,0,0.873,0.041,1.293,0.116c0-0.039-0.002-0.078-0.002-0.116
	c0-2.312,1.293-4.318,3.193-5.343V79.086L83.039,79.086z"/>
<path fill="#DEDFE0" stroke="#010101" stroke-width="0.15" stroke-miterlimit="10" d="M-0.014,69.131h83.064V83.1H-0.014V69.131z"/>
<path fill="#DEDFE0" stroke="#010101" stroke-width="0.15" stroke-miterlimit="10" d="M-0.026,70.757h83.077V83.1H-0.026V70.757z"/>
<path fill="#DEDFE0" stroke="#010101" stroke-width="0.15" stroke-miterlimit="10" d="M46.807,7.388
	c0.43,1.462,1.041,2.918,1.896,4.058c-1,0.23-2.852-0.078-2.852-0.078s-1.705-3.205-4.368-5.229c-0.416,0.4-0.979,0.646-1.602,0.646
	c-0.733,0-1.386-0.343-1.809-0.875c-0.668,1.015-1.815,1.684-3.12,1.684c-1.408,0-2.634-0.779-3.271-1.93
	c-0.427,0.293-0.945,0.467-1.504,0.467c-1.359,0-2.48-1.021-2.637-2.34c-0.661,0.267-1.382,0.414-2.138,0.414
	c-2.67,0-4.912-1.826-5.552-4.295H47.1C46.225,2.311,46.082,4.924,46.807,7.388z"/>
<path fill="#FFFFFF" stroke="#020202" stroke-width="0.15" stroke-miterlimit="10" d="M48.547,20.638h-5.084V10.625h5.084V20.638z"
	/>
<path fill="#1E94D2" stroke="#010101" stroke-width="0.15" stroke-miterlimit="10" d="M68.238,25.267v30.758H39.93V25.267
	L54.084,11.77L68.238,25.267z"/>
<path fill="#AA7E32" stroke="#010101" stroke-width="0.15" stroke-miterlimit="10" d="M42.15,25.267h-4.855L54.084,9.302
	l16.787,15.965h-4.854c-1.004,0-1.971-0.397-2.682-1.106l-9.256-9.205l-9.254,9.205C44.117,24.869,43.154,25.267,42.15,25.267z"/>
<path fill="#F89520" stroke="#010101" stroke-width="0.15" stroke-miterlimit="10" d="M53.34,34.839h0.926
	c3.021,0,5.469,2.448,5.469,5.468v15.751H47.871v-15.75C47.871,37.287,50.318,34.839,53.34,34.839z"/>
<path fill="#FFFFFF" stroke="#020202" stroke-width="0.15" stroke-miterlimit="10" d="M58.598,46.168
	c0,0.725-0.586,1.311-1.309,1.311c-0.725,0-1.311-0.586-1.311-1.311c0-0.723,0.586-1.313,1.311-1.313
	C58.012,44.855,58.598,45.447,58.598,46.168z"/>
<path fill="#FFFFFF" stroke="#020202" stroke-width="0.15" stroke-miterlimit="10" d="M48.721,10.701h-5.738
	c-0.436,0-0.789-0.354-0.789-0.789V8.564c0-0.436,0.355-0.79,0.789-0.79h5.738c0.439,0,0.789,0.354,0.789,0.79v1.348
	C49.51,10.349,49.156,10.701,48.721,10.701z"/>
<path fill="#ADE1FA" stroke="#010101" stroke-width="0.15" stroke-miterlimit="10" d="M58.367,23.371v7.394
	c0,0.638-0.518,1.155-1.156,1.155h-7.395c-0.641,0-1.154-0.518-1.154-1.155v-7.394c0-0.639,0.518-1.155,1.154-1.155h7.395
	C57.85,22.217,58.367,22.733,58.367,23.371z"/>
<path fill="#FCEE23" stroke="#010101" stroke-width="0.15" stroke-miterlimit="10" d="M49.967,28.164l2.025-2.353l2.678-0.979
	l1.504,3.266c0,0,0.572,2.204-1.307,3.332c-0.654,0.393-2.287,0.718-3.201,0L49.967,28.164z"/>
<path fill="#ED2224" stroke="#010101" stroke-width="0.15" stroke-miterlimit="10" d="M51.992,31.625c0,0-1.176-0.392-2.051-1.976
	c-1.096-1.983,0.141-3.653,1.123-4.776c0.98-1.125,1.547-1.545,1.547-2.248c0.281,0.843-0.422,1.967-0.422,1.967
	s2.104-1.686,1.688-3.934c1.545,0.42,2.105,2.387,1.402,3.652c0.703-0.703,1.547-0.281,1.547-0.281s-1.123,0.983-0.701,2.107
	c0.42,1.124,0.982,2.389,0.139,4.074c-0.979,1.546-1.826,1.406-1.826,1.406s1.27-0.983,1.125-2.248
	c-0.844,0.842-1.125,0.842-1.125,0.842s0.703-0.842,0.145-2.106c-0.563-1.265-0.42-1.967-0.145-2.389
	c-1.264,0.702-2.104,2.528-1.4,4.495c-0.848-0.842-1.268-1.967-1.268-2.389C51.064,28.947,51.01,30.502,51.992,31.625z"/>
<path fill="#ADE1FA" stroke="#010101" stroke-width="0.15" stroke-miterlimit="10" d="M51.146,38.984c0,0,2.756-1.515,3.816-3.75
	c1.063-2.236,1.156-2.958,1.9-2.852c1.021,0.146,0.666,2.557-0.293,3.302c2.447-1.81,4.473-4.897,5.748-4.045
	s-0.742,2.661-1.488,2.874c1.299-0.668,2.188-1.201,3.189-1.171c2.127,0.063,2.379,1.641,0.152,1.817
	c-1.623,0.129-5.367,1.588-5.367,1.588s3.396-0.346,3.539,1.336c0.098,1.119-1.215,1.056-2.779,0.805
	c-1.672-0.27-3.723-0.711-7.57,1.16C51.146,39.197,51.146,38.984,51.146,38.984z"/>
<path fill="#FFFFFF" stroke="#020202" stroke-width="0.15" stroke-miterlimit="10" d="M63.496,36.324c0,0,1.488-0.533,2.234,0.318
	c0.316,0.426,0.316,0.852,0,1.064C65.412,37.918,64.773,36.431,63.496,36.324z"/>
<path fill="#FFFFFF" stroke="#020202" stroke-width="0.15" stroke-miterlimit="10" d="M58.174,32.065
	c-0.32-0.426,0.098-1.499,0.744-0.852c0.746,0.745-0.641,1.915-0.641,1.915S58.492,32.492,58.174,32.065z"/>
<path fill="#ED2224" stroke="#010101" stroke-width="0.15" stroke-miterlimit="10" d="M40.317,45.567
	c-0.099,0.007-0.2-0.002-0.301-0.03c-7.166-1.998-9.72-7.334-9.825-7.563c-0.207-0.443-0.014-0.971,0.429-1.176
	c0.443-0.206,0.969-0.014,1.176,0.428c0.013,0.027,0.597,1.237,1.951,2.645c1.816,1.887,4.085,3.22,6.745,3.961
	c0.471,0.132,0.747,0.619,0.615,1.092C41.004,45.291,40.681,45.541,40.317,45.567z"/>
<path fill="#302E2F" stroke="#010101" stroke-width="0.15" stroke-miterlimit="10" d="M22.605,59.341
	c0.011-0.298,0.297-0.509,0.593-0.476c0.293,0.027,0.489,0.295,0.476,0.592c-0.155,3.647,0.176,7.035,0.176,7.035
	c3.586-0.707,3.827,0.557,3.662,1.063c-0.188,0.585-1.644,0.84-3.398,0.271c-0.955-0.309-1.354-0.553-1.397-0.756
	c-0.012-0.033-0.018-0.066-0.013-0.106C22.936,67.347,22.427,63.966,22.605,59.341z M28.528,68.193c0,0.045,0.011,0.084,0.028,0.118
	c0.071,0.215,0.535,0.435,1.61,0.655c1.978,0.404,3.531-0.049,3.666-0.707c0.118-0.575-0.295-1.92-4.113-0.723
	c0,0-0.767-3.646-1.036-7.633c-0.022-0.324-0.267-0.592-0.589-0.592c-0.325,0.001-0.611,0.27-0.588,0.594
	C27.868,64.959,28.827,68.578,28.528,68.193z"/>
<path fill="#ED2224" stroke="#010101" stroke-width="0.15" stroke-miterlimit="10" d="M20.635,27.445l0.027-2.31
	c0.029-2.445,2.336-4.902,5.498-4.864c3.348,0.04,5.552,2.495,5.522,4.995c0,0-0.011,0.922-0.027,2.283
	c1.925,0.142,3.156,0.34,3.154,0.544c-0.004,0.359-3.803,1.164-8.477,1.109c-4.673-0.057-8.452-0.951-8.448-1.311
	C17.888,27.703,18.947,27.545,20.635,27.445z"/>
<path fill="#FCEE23" stroke="#010101" stroke-width="0.15" stroke-miterlimit="10" d="M26.333,29.203
	c2.008,0.022,3.854-0.111,5.307-0.303l-0.35,29.527c-0.011,0.945-0.788,1.704-1.734,1.693l-7.593-0.09
	c-0.946-0.016-1.704-0.789-1.693-1.734l0.352-29.59C22.124,28.963,24.127,29.176,26.333,29.203z"/>
<path fill="#F4F4F4" stroke="#020202" stroke-width="0.15" stroke-miterlimit="10" d="M27.96,31.822
	c0.006-0.461,0.383-0.83,0.843-0.824c0.46,0.006,0.829,0.383,0.823,0.843c-0.005,0.46-0.383,0.829-0.843,0.823
	C28.325,32.66,27.956,32.281,27.96,31.822z"/>
<path fill="#F04F4C" d="M24.092,35.463c0.037-1.168,1.114-2.104,2.441-2.107c1.327-0.003,2.407,0.932,2.449,2.1
	c-0.774-0.207-1.595-0.318-2.446-0.316C25.687,35.139,24.867,35.254,24.092,35.463z"/>
<path fill="none" stroke="#020202" stroke-width="0.25" stroke-linecap="round" stroke-miterlimit="10" d="M27.65,30.133
	c0.294-0.166,0.634-0.258,0.996-0.254c0.274,0.003,0.535,0.062,0.772,0.166 M25.28,29.949c-0.236-0.104-0.497-0.162-0.771-0.166
	c-0.362-0.004-0.702,0.088-0.996,0.254"/>
<path fill="#F4F4F4" stroke="#020202" stroke-width="0.15" stroke-miterlimit="10" d="M23.597,31.724
	c0.005-0.46,0.383-0.829,0.843-0.823s0.829,0.383,0.823,0.844c-0.005,0.459-0.383,0.828-0.843,0.823S23.59,32.183,23.597,31.724z"/>
<path fill="#020202" d="M28.635,31.807c0.003-0.241,0.201-0.434,0.441-0.432c0.241,0.004,0.434,0.201,0.432,0.441
	c-0.003,0.241-0.201,0.434-0.442,0.432C28.826,32.246,28.632,32.048,28.635,31.807z M24.756,32.146
	c0.241,0.002,0.438-0.19,0.441-0.431c0.003-0.242-0.19-0.439-0.431-0.442c-0.241-0.003-0.439,0.19-0.441,0.431
	C24.322,31.945,24.516,32.143,24.756,32.146z"/>
<path fill="#F4F4F4" d="M28.748,31.681c0-0.075,0.062-0.134,0.137-0.133c0.075,0.001,0.135,0.062,0.134,0.137
	s-0.062,0.136-0.137,0.134C28.807,31.816,28.747,31.756,28.748,31.681z M24.571,31.716c0.075,0.001,0.136-0.06,0.137-0.134
	c0.001-0.075-0.059-0.137-0.134-0.137c-0.075-0.002-0.136,0.059-0.137,0.133C24.438,31.654,24.498,31.715,24.571,31.716z"/>
<path fill="#FBEE33" stroke="#030303" stroke-width="0.15" stroke-miterlimit="10" d="M29.612,27.086
	c-0.004,0.367-0.306,0.664-0.674,0.658l-5.548-0.065c-0.368-0.004-0.663-0.306-0.658-0.675l0.034-2.877
	c0.022-1.866,1.492-3.438,3.357-3.481c1.958-0.046,3.549,1.539,3.525,3.479L29.612,27.086z"/>
<path fill="#F04F4C" d="M26.425,21.162l0.24,0.467l0.52,0.066l-0.369,0.372l0.097,0.515l-0.467-0.235l-0.46,0.251l0.08-0.518
	l-0.381-0.359l0.518-0.084L26.425,21.162z"/>
<path fill="#F04F4C" d="M23.566,24.291c-0.075-0.067-0.13-0.149-0.178-0.237c-0.033-0.089-0.06-0.181-0.062-0.276
	c-0.007-0.279,0.139-0.506,0.399-0.611c0.064-0.026,0.129-0.045,0.199-0.053c0.03-0.004,0.046,0.006,0.058,0.029
	c0.05,0.061,0.072,0.137,0.105,0.206c0.006,0.015,0.009,0.028-0.009,0.039c-0.04,0.017-0.084,0.017-0.125,0.026
	c-0.131,0.035-0.238,0.103-0.278,0.24c-0.027,0.092-0.016,0.182,0.03,0.268c0.026,0.051,0.069,0.088,0.107,0.129
	c0.102,0.068,0.211,0.07,0.326,0.039c0.054-0.016,0.102-0.042,0.151-0.067c0.005,0.028,0.01,0.056,0.015,0.082
	c0.031,0.062,0.027,0.131,0.036,0.197c0.003,0.022-0.017,0.039-0.037,0.048c-0.215,0.1-0.43,0.124-0.647,0.007
	C23.622,24.338,23.597,24.311,23.566,24.291z M26.588,24.02c0.157,0.084,0.323,0.088,0.493,0.061
	c0.019-0.002,0.039-0.01,0.043-0.029c0.015-0.073,0.032-0.146,0.02-0.223c-0.008-0.021,0.016-0.045-0.004-0.065
	c-0.068,0.022-0.138,0.03-0.209,0.022c-0.111-0.01-0.207-0.053-0.272-0.146c-0.021-0.038-0.036-0.079-0.045-0.12
	c-0.038-0.172,0.026-0.342,0.208-0.405c0.071-0.023,0.145-0.029,0.218-0.021c0.098,0.009,0.099,0.011,0.082-0.088
	c-0.008-0.051-0.007-0.104-0.036-0.15c-0.004-0.054-0.038-0.07-0.086-0.07c-0.046,0.002-0.092-0.002-0.138,0.002
	c-0.221,0.021-0.397,0.116-0.511,0.313c-0.048,0.083-0.068,0.173-0.084,0.266c0,0.01,0.001,0.019,0,0.027
	c-0.013,0.232,0.065,0.425,0.25,0.572C26.54,23.984,26.562,24.004,26.588,24.02z M29.108,24.281
	c-0.061-0.008-0.122-0.016-0.182-0.024c-0.017-0.003-0.034-0.005-0.047-0.017c-0.036-0.004-0.046-0.024-0.046-0.06
	s0-0.07-0.01-0.104c-0.016-0.035-0.046-0.047-0.083-0.055c-0.071-0.013-0.142-0.023-0.212-0.041
	c-0.035-0.008-0.059,0.002-0.074,0.036c-0.016,0.035-0.032,0.069-0.053,0.103c-0.016,0.023-0.035,0.032-0.063,0.024
	c-0.011-0.004-0.023-0.007-0.035-0.01c-0.097-0.032-0.196-0.05-0.298-0.041c-0.048,0.004-0.095-0.002-0.141-0.015
	c-0.044,0.002-0.051-0.021-0.047-0.06c0.011-0.11,0.02-0.222,0.029-0.333c-0.005-0.04-0.028-0.057-0.068-0.059
	c-0.042-0.002-0.083-0.006-0.124-0.01c-0.051-0.004-0.058,0-0.064,0.053c-0.011,0.093-0.018,0.187-0.025,0.279
	c-0.006,0.078-0.016,0.088-0.094,0.09c-0.038,0-0.077,0.002-0.115,0.002c-0.023,0-0.046,0-0.065-0.016
	c-0.02-0.002-0.04-0.005-0.06-0.007c0.004-0.056,0.008-0.108,0.012-0.165c-0.014-0.036,0.013-0.066,0.009-0.102
	c0.013-0.129,0.026-0.256,0.039-0.383c0.014-0.146,0.026-0.293,0.04-0.438c0.001-0.019,0.004-0.036,0.027-0.034
	c0.096,0.008,0.192-0.004,0.288,0.012c0,0.019-0.001,0.037-0.001,0.055c0.017,0.058-0.003,0.115-0.005,0.173
	c0,0.037-0.003,0.073-0.01,0.11c-0.007,0.037,0.004,0.063,0.04,0.076c0.063,0.008,0.125,0.014,0.187,0.021
	c0.024,0.002,0.026-0.016,0.027-0.033c0.01-0.105,0.021-0.213,0.029-0.318c0.002-0.033,0.013-0.043,0.044-0.041
	c0.079,0.002,0.159,0.004,0.238,0.004c0.048,0,0.026,0.033,0.032,0.055c0.018,0.033,0.006,0.066,0.002,0.099
	c-0.022,0.24-0.044,0.479-0.066,0.722c0,0.002,0,0.006,0.003,0.008c0.02-0.022,0.022-0.057,0.054-0.071
	c0.09-0.158,0.181-0.315,0.271-0.474c0.041-0.071,0.083-0.143,0.122-0.215c0.015-0.027,0.031-0.035,0.062-0.028
	c0.099,0.021,0.197,0.042,0.296,0.059c0.041,0.007,0.064,0.021,0.068,0.063c0.029,0.056,0.025,0.119,0.034,0.179
	c0.038,0.285,0.074,0.569,0.111,0.854C29.192,24.279,29.183,24.289,29.108,24.281z M28.832,23.707l-0.068-0.313l-0.167,0.273
	L28.832,23.707z M26.373,23.959c-0.008,0.013-0.021,0.018-0.035,0.021c-0.077,0.015-0.153,0.026-0.23,0.035
	c-0.014,0.002-0.027-0.002-0.041-0.004c-0.021,0.001-0.032-0.009-0.039-0.029c-0.011-0.032-0.025-0.065-0.039-0.097
	c-0.031-0.053-0.077-0.051-0.13-0.043c-0.061,0.008-0.122,0.016-0.183,0.016c-0.04,0-0.058,0.018-0.064,0.055
	c-0.005,0.033-0.012,0.066-0.02,0.1c-0.008,0.031-0.026,0.053-0.061,0.051c-0.165-0.006-0.326,0.018-0.484,0.064
	c-0.012,0.002-0.024,0.002-0.036-0.002c-0.029,0.007-0.035-0.008-0.039-0.033c-0.02-0.112-0.033-0.227-0.06-0.338
	c-0.032-0.055-0.032-0.055-0.096-0.045c-0.041,0.008-0.082,0.014-0.123,0.021c-0.032,0.006-0.043,0.021-0.037,0.055
	c0.019,0.104,0.036,0.207,0.054,0.313c0.01,0.057,0.003,0.068-0.051,0.083c-0.061,0.015-0.122,0.032-0.183,0.045
	c-0.015,0.003-0.03,0.006-0.045,0.001c-0.025,0.002-0.033-0.01-0.037-0.034c-0.008-0.054-0.02-0.108-0.03-0.161
	c-0.016-0.14-0.045-0.275-0.068-0.414c-0.025-0.15-0.049-0.303-0.078-0.453c-0.008-0.041,0.007-0.051,0.043-0.06
	c0.067-0.015,0.135-0.03,0.201-0.051c0.039-0.011,0.062-0.007,0.064,0.038c0.039,0.093,0.041,0.193,0.061,0.291
	c0.007,0.031,0.018,0.055,0.052,0.061c0.059-0.009,0.118-0.019,0.177-0.027c0.032-0.004,0.039-0.02,0.033-0.049
	c-0.019-0.104-0.035-0.209-0.055-0.313c-0.005-0.028,0.002-0.038,0.029-0.044c0.075-0.017,0.149-0.035,0.223-0.058
	c0.037-0.011,0.053,0.002,0.058,0.037c0.024,0.045,0.026,0.098,0.035,0.146c0.044,0.248,0.085,0.496,0.13,0.747
	c0.011-0.027,0.009-0.058,0.031-0.078c0.046-0.188,0.093-0.377,0.139-0.565c0.022-0.091,0.045-0.182,0.063-0.272
	c0.007-0.034,0.025-0.045,0.056-0.048c0.106-0.008,0.213-0.016,0.32-0.025c0.025-0.002,0.041,0.006,0.052,0.025
	c0.048,0.132,0.109,0.259,0.165,0.389c0.087,0.204,0.176,0.407,0.263,0.611C26.363,23.93,26.368,23.945,26.373,23.959z
	 M25.905,23.517l-0.185-0.333l-0.06,0.354L25.905,23.517z"/>
<g>
	<g>
		<path fill="#020202" d="M25.433,25.674c-0.023,0.004-0.042,0-0.059-0.012c-0.016-0.013-0.026-0.028-0.029-0.049l-0.111-0.697
			c-0.003-0.021,0.001-0.041,0.013-0.057c0.012-0.017,0.028-0.025,0.049-0.029l0.392-0.063c0.021-0.003,0.039,0,0.055,0.012
			c0.017,0.01,0.026,0.026,0.029,0.047c0.003,0.019-0.002,0.035-0.013,0.051c-0.012,0.016-0.029,0.024-0.05,0.029l-0.325,0.051
			l0.008-0.016l0.039,0.242l-0.01-0.014l0.269-0.043c0.021-0.004,0.04,0,0.056,0.012c0.016,0.011,0.025,0.027,0.029,0.048
			c0.003,0.019-0.001,0.035-0.014,0.05c-0.012,0.016-0.028,0.025-0.049,0.029l-0.271,0.043l0.009-0.012l0.046,0.291
			c0.003,0.021-0.001,0.041-0.014,0.057S25.453,25.67,25.433,25.674z"/>
		<path fill="#020202" d="M26.167,25.502c0.002,0.021-0.004,0.039-0.018,0.055s-0.031,0.023-0.051,0.025
			c-0.022,0.002-0.042-0.002-0.057-0.016c-0.015-0.013-0.023-0.029-0.025-0.051l-0.067-0.703c-0.002-0.021,0.003-0.039,0.017-0.055
			c0.014-0.016,0.031-0.024,0.054-0.027c0.02-0.001,0.038,0.004,0.054,0.016c0.017,0.014,0.025,0.03,0.028,0.052L26.167,25.502z"/>
		<path fill="#020202" d="M26.427,25.555c-0.023,0-0.043-0.007-0.062-0.021c-0.018-0.014-0.027-0.031-0.027-0.053l-0.01-0.706
			c0-0.021,0.006-0.039,0.021-0.054c0.014-0.014,0.031-0.021,0.053-0.021l0.352-0.006c0.042,0,0.082,0.01,0.12,0.032
			c0.037,0.021,0.067,0.052,0.091,0.091c0.023,0.039,0.036,0.084,0.036,0.135c0,0.031-0.005,0.063-0.018,0.092
			c-0.013,0.029-0.029,0.056-0.05,0.08c-0.021,0.023-0.045,0.041-0.072,0.056V25.15c0.023,0.012,0.042,0.026,0.058,0.042
			c0.016,0.017,0.027,0.034,0.036,0.054c0.009,0.019,0.014,0.039,0.016,0.062c0.003,0.021,0.006,0.038,0.008,0.054
			c0.001,0.016,0.004,0.028,0.007,0.039c0.004,0.012,0.011,0.02,0.022,0.024c0.018,0.01,0.029,0.024,0.034,0.045
			s0,0.037-0.013,0.053c-0.009,0.011-0.021,0.019-0.034,0.021c-0.014,0.004-0.028,0.004-0.042,0
			c-0.014-0.002-0.025-0.006-0.034-0.01c-0.014-0.009-0.028-0.021-0.042-0.035c-0.014-0.016-0.026-0.037-0.035-0.063
			c-0.009-0.026-0.014-0.062-0.014-0.104c0-0.014-0.003-0.026-0.008-0.039c-0.005-0.012-0.012-0.021-0.021-0.029
			c-0.009-0.008-0.021-0.016-0.035-0.02c-0.014-0.004-0.03-0.006-0.049-0.006l-0.247,0.004l0.018-0.027l0.004,0.265
			c0,0.021-0.005,0.039-0.016,0.054C26.463,25.547,26.449,25.554,26.427,25.555z M26.469,25.117l0.284-0.004
			c0.015,0,0.029-0.008,0.042-0.021c0.013-0.014,0.024-0.032,0.033-0.055c0.008-0.023,0.013-0.049,0.012-0.078
			c0-0.035-0.01-0.065-0.03-0.088c-0.02-0.024-0.04-0.037-0.062-0.035l-0.282,0.004l0.014-0.039l0.005,0.345L26.469,25.117z"/>
		<path fill="#020202" d="M27.324,24.717l0.406,0.047c0.021,0.002,0.038,0.011,0.05,0.025c0.013,0.016,0.018,0.033,0.016,0.055
			c-0.002,0.02-0.012,0.035-0.027,0.047c-0.016,0.011-0.034,0.016-0.055,0.014l-0.339-0.041l0.013-0.02L27.36,25.08l-0.009-0.01
			l0.284,0.032c0.021,0.002,0.038,0.011,0.051,0.026c0.012,0.015,0.018,0.033,0.015,0.054c-0.002,0.021-0.011,0.036-0.027,0.046
			c-0.016,0.012-0.034,0.016-0.055,0.014l-0.28-0.033l0.007-0.008l-0.029,0.244l-0.008-0.012l0.338,0.039
			c0.021,0.003,0.038,0.012,0.05,0.027c0.012,0.017,0.018,0.033,0.016,0.052c-0.002,0.021-0.011,0.036-0.027,0.047
			c-0.015,0.011-0.034,0.017-0.055,0.013l-0.406-0.047c-0.021-0.002-0.038-0.012-0.05-0.027c-0.012-0.016-0.018-0.033-0.015-0.055
			l0.081-0.701c0.002-0.021,0.012-0.037,0.027-0.051C27.285,24.719,27.302,24.714,27.324,24.717z"/>
	</g>
	<g>
		<path fill="#020202" d="M25.48,26.244c0.022,0.006,0.038,0.021,0.046,0.041c0.008,0.021,0.006,0.043-0.005,0.065
			c-0.007,0.017-0.019,0.026-0.035,0.032c-0.016,0.005-0.033,0.005-0.052,0c-0.021-0.004-0.042-0.008-0.064-0.008
			c-0.022-0.002-0.045,0-0.068,0.006c-0.043,0.009-0.08,0.023-0.111,0.044c-0.031,0.021-0.056,0.045-0.075,0.075
			c-0.019,0.029-0.031,0.063-0.036,0.1c-0.006,0.037-0.004,0.076,0.004,0.117c0.01,0.049,0.025,0.09,0.046,0.123
			s0.046,0.06,0.076,0.078c0.029,0.02,0.062,0.031,0.098,0.037c0.036,0.004,0.073,0.002,0.112-0.004
			c0.021-0.004,0.043-0.012,0.063-0.02s0.04-0.02,0.058-0.034c0.016-0.011,0.031-0.017,0.048-0.019c0.017,0,0.032,0.005,0.046,0.017
			c0.02,0.017,0.03,0.036,0.029,0.058c0,0.022-0.009,0.041-0.027,0.054c-0.019,0.015-0.039,0.026-0.059,0.038
			c-0.021,0.012-0.042,0.021-0.063,0.029s-0.044,0.015-0.067,0.02c-0.058,0.011-0.114,0.013-0.169,0.005
			c-0.055-0.008-0.106-0.026-0.154-0.054c-0.047-0.027-0.088-0.066-0.123-0.115c-0.034-0.049-0.058-0.109-0.072-0.18
			c-0.012-0.063-0.013-0.121-0.002-0.178c0.011-0.056,0.032-0.106,0.063-0.152c0.031-0.045,0.071-0.084,0.119-0.116
			s0.104-0.054,0.166-0.065c0.035-0.008,0.07-0.011,0.105-0.009C25.415,26.229,25.449,26.234,25.48,26.244z"/>
		<path fill="#020202" d="M25.775,26.158c0.019-0.002,0.037,0.002,0.054,0.016c0.016,0.013,0.026,0.029,0.028,0.051l0.072,0.702
			c0.002,0.021-0.004,0.04-0.018,0.055c-0.014,0.017-0.031,0.025-0.052,0.027c-0.022,0.002-0.042-0.003-0.057-0.017
			c-0.015-0.013-0.024-0.029-0.026-0.051l-0.072-0.701c-0.002-0.021,0.003-0.041,0.017-0.056
			C25.735,26.17,25.753,26.16,25.775,26.158z M25.809,26.512l0.542-0.057l0.014,0.141l-0.542,0.056L25.809,26.512z M26.313,26.103
			c0.022-0.002,0.042,0.003,0.057,0.017c0.015,0.013,0.024,0.029,0.026,0.051l0.072,0.701c0.002,0.021-0.003,0.039-0.016,0.056
			c-0.013,0.016-0.031,0.024-0.054,0.026c-0.019,0.002-0.037-0.002-0.054-0.016c-0.016-0.013-0.026-0.029-0.028-0.05l-0.072-0.702
			c-0.002-0.021,0.004-0.04,0.018-0.057C26.276,26.113,26.293,26.104,26.313,26.103z"/>
		<path fill="#020202" d="M26.797,26.869c0,0.021-0.007,0.039-0.022,0.054c-0.015,0.014-0.033,0.022-0.053,0.022
			c-0.022,0-0.041-0.007-0.055-0.021c-0.014-0.015-0.021-0.032-0.022-0.054l-0.013-0.705c0-0.021,0.007-0.039,0.021-0.055
			c0.014-0.014,0.033-0.021,0.056-0.021c0.02,0,0.037,0.006,0.052,0.02c0.015,0.014,0.023,0.032,0.023,0.053L26.797,26.869z"/>
		<path fill="#020202" d="M27.092,26.09l0.408,0.025c0.021,0.002,0.039,0.01,0.052,0.023c0.013,0.016,0.019,0.031,0.018,0.053
			c-0.001,0.02-0.01,0.036-0.024,0.049c-0.015,0.012-0.033,0.017-0.054,0.016l-0.341-0.022l0.012-0.02l-0.015,0.237l-0.009-0.01
			l0.286,0.018c0.021,0.002,0.038,0.01,0.051,0.023c0.014,0.014,0.02,0.032,0.018,0.053c-0.001,0.021-0.009,0.037-0.024,0.049
			c-0.015,0.012-0.033,0.017-0.054,0.016l-0.281-0.018l0.007-0.01l-0.016,0.246l-0.009-0.012l0.34,0.021
			c0.021,0,0.038,0.01,0.051,0.024c0.014,0.015,0.02,0.032,0.018,0.052c-0.001,0.021-0.009,0.036-0.024,0.047
			c-0.015,0.013-0.033,0.019-0.054,0.017l-0.408-0.026c-0.021-0.001-0.039-0.01-0.052-0.025c-0.013-0.015-0.02-0.032-0.018-0.053
			l0.045-0.705c0.001-0.021,0.009-0.039,0.024-0.052S27.071,26.089,27.092,26.09z"/>
		<path fill="#020202" d="M27.705,27.004c-0.022-0.004-0.039-0.014-0.05-0.031c-0.011-0.018-0.015-0.036-0.01-0.057l0.14-0.691
			c0.004-0.021,0.015-0.037,0.031-0.048c0.017-0.011,0.036-0.015,0.056-0.011l0.389,0.078c0.021,0.004,0.037,0.015,0.048,0.03
			c0.011,0.017,0.015,0.035,0.011,0.056c-0.003,0.018-0.014,0.031-0.03,0.041c-0.017,0.012-0.036,0.015-0.056,0.011l-0.323-0.065
			l0.014-0.012l-0.048,0.24l-0.005-0.018l0.267,0.055c0.021,0.004,0.037,0.015,0.048,0.029c0.011,0.016,0.015,0.034,0.011,0.055
			c-0.003,0.019-0.014,0.033-0.03,0.043c-0.017,0.011-0.036,0.014-0.056,0.01l-0.27-0.055l0.013-0.008l-0.059,0.289
			c-0.004,0.021-0.015,0.037-0.033,0.047C27.743,27.006,27.725,27.009,27.705,27.004z"/>
	</g>
</g>
<path fill="#010101" d="M39.408,75.219c-2.624,0.385-5.769,0.313-9.356-0.221c-6.289-0.936-16.171-3.476-16.399-3.561l0.761-2.063
	c0,0,9.931,2.559,15.993,3.449c5.38,0.793,12.384,0.881,15.199-3.201c0.807-1.17,1.105-2.102,0.896-2.768
	c-0.404-1.295-2.813-2.193-5.354-3.146c-2.08-0.776-4.438-1.659-6.286-2.994c-2.267-1.639-3.411-3.666-3.5-6.203
	c-0.07-1.979,0.716-3.96,2.336-5.889c1.223-1.455,2.931-2.892,5.077-4.27c3.594-2.305,7.166-3.652,7.313-3.708l0.771,2.058
	c-0.033,0.014-3.525,1.334-6.925,3.52c-2.973,1.911-6.492,4.889-6.375,8.211c0.145,4.146,4.322,5.708,8.361,7.221
	c3.06,1.146,5.949,2.229,6.679,4.545c0.428,1.36,0.041,2.893-1.188,4.67c-1.563,2.27-4.145,3.711-7.669,4.291
	C39.632,75.185,39.521,75.203,39.408,75.219z"/>
<path fill="#DEDFE0" stroke="#010101" stroke-width="0.15" stroke-miterlimit="10" d="M52.506,40.052l-5.635,3.044l-1.133-2.786
	l6.162-1.75L52.506,40.052z"/>
<path fill="#DEDFE0" stroke="#010101" stroke-width="0.15" stroke-miterlimit="10" d="M47.084,43.496l-0.021,0.008
	c-0.326,0.134-0.701-0.025-0.834-0.354l-1.057-2.603c-0.133-0.326,0.025-0.701,0.352-0.833l0.021-0.009
	c0.326-0.133,0.701,0.026,0.834,0.353l1.057,2.604C47.566,42.988,47.41,43.363,47.084,43.496z"/>
<path fill="#DEDFE0" stroke="#010101" stroke-width="0.15" stroke-miterlimit="10" d="M52.102,40.113l-0.557-1.373
	c-0.096-0.234,0.02-0.506,0.254-0.602l0.016-0.006c0.236-0.096,0.506,0.019,0.605,0.254l0.559,1.372
	c0.098,0.235-0.02,0.506-0.254,0.602l-0.018,0.007C52.469,40.464,52.197,40.349,52.102,40.113z"/>
<path fill="#F4F4F4" stroke="#020202" stroke-width="0.15" stroke-miterlimit="10" d="M40.583,45.697c0,0,0.375-0.263,0.265-0.479
	c-0.313-0.614-0.324-0.641-0.475-0.996c-0.086-0.204-0.018-0.43,0.155-0.508l0,0c0.177-0.081,0.397,0.021,0.491,0.226l0.329,0.72
	l1.687-0.718c0,0,0.146,0.313,0.135,0.548C43.068,46.385,40.583,45.697,40.583,45.697z"/>
<path fill="#F4F4F4" stroke="#020202" stroke-width="0.15" stroke-miterlimit="10" d="M41.396,44.804l-0.51-1.114
	c-0.086-0.188-0.029-0.398,0.128-0.471l0,0c0.157-0.072,0.354,0.021,0.44,0.211l0.51,1.113 M42.543,44.306l-0.406-0.888
	c-0.086-0.188-0.283-0.281-0.44-0.211l0,0c-0.156,0.072-0.214,0.283-0.128,0.473l0.406,0.887 M43.066,44.011l-0.281-0.613
	c-0.086-0.188-0.283-0.282-0.439-0.212l0,0c-0.156,0.072-0.215,0.283-0.129,0.473l0.281,0.612"/>
<path fill="#8FC642" stroke="#020202" stroke-width="0.25" stroke-miterlimit="10" d="M66.811,29.02"/>
<path fill="#F04F4C" stroke="#020202" stroke-width="0.15" stroke-miterlimit="10" d="M6.632,68.045H6.222
	c-0.383,0-0.693-0.313-0.693-0.692v-3.396c0-0.383,0.31-0.693,0.693-0.693h0.411V68.045z"/>
<path fill="#F04F4C" stroke="#020202" stroke-width="0.15" stroke-miterlimit="10" d="M15.26,68.045H14.85v-4.782h0.411
	c0.383,0,0.693,0.312,0.693,0.692v3.396C15.954,67.735,15.644,68.045,15.26,68.045z"/>
<path fill="#ED2224" stroke="#010101" stroke-width="0.15" stroke-miterlimit="10" d="M14.911,77.06H6.571V57.191h8.339V77.06z"/>
<path fill="#ED2224" stroke="#010101" stroke-width="0.15" stroke-miterlimit="10" d="M17.424,77.611H4.057v-1.359
	c0-0.469,0.379-0.848,0.848-0.848h11.674c0.468,0,0.847,0.379,0.847,0.848L17.424,77.611L17.424,77.611z"/>
<path fill="#ED2224" stroke="#010101" stroke-width="0.15" stroke-miterlimit="10" d="M13.869,65.715L13.869,65.715
	c0,1.693-1.373,3.066-3.066,3.066l0,0c-1.693,0-3.066-1.373-3.066-3.066l0,0c0-1.692,1.373-3.065,3.066-3.065l0,0
	C12.496,62.649,13.869,64.022,13.869,65.715z"/>
<path fill="#F04F4C" stroke="#020202" stroke-width="0.15" stroke-miterlimit="10" d="M9.447,53.029c0-0.75,0.606-1.354,1.355-1.354
	c0.749,0,1.355,0.604,1.355,1.354H9.447z"/>
<path fill="#020202" d="M10.802,67.064c-0.745,0-1.349-0.604-1.349-1.35c0-0.744,0.604-1.35,1.349-1.35
	c0.745,0,1.349,0.604,1.349,1.35S11.547,67.064,10.802,67.064z"/>
<path fill="#ED2224" stroke="#010101" stroke-width="0.15" stroke-miterlimit="10" d="M5.721,57.744
	c0-2.808,2.275-5.082,5.082-5.082c2.807,0,5.082,2.274,5.082,5.082H5.721z"/>
<path fill="#ED2224" stroke="#010101" stroke-width="0.15" stroke-miterlimit="10" d="M16.609,58.848H4.504
	c-0.383,0-0.693-0.311-0.693-0.693v-0.82c0-0.383,0.311-0.69,0.693-0.69h12.104c0.383,0,0.693,0.313,0.693,0.69v0.82
	C17.302,58.537,16.993,58.848,16.609,58.848z"/>
<path fill="#ED2224" stroke="#010101" stroke-width="0.15" stroke-miterlimit="10" d="M65.436,78.287c0,1.35-3.408,2.57-7.605,2.521
	c-4.201-0.055-7.605-1.359-7.605-2.706c0-1.349,3.404-2.396,7.605-2.342C62.027,75.811,65.436,76.943,65.436,78.287z"/>
<path fill="#ED2224" stroke="#010101" stroke-width="0.15" stroke-miterlimit="10" d="M62.883,77.199
	c-0.002,1.062-2.264,1.887-5.055,1.854c-2.791-0.034-5.055-0.919-5.055-1.979c0-0.136,0.037-0.267,0.104-0.393l3.744-13.838
	c0.367-1.368,1.982-1.354,2.359,0.021l3.832,14.027c0.025,0.063,0.045,0.131,0.059,0.197l0.025,0.104h-0.016v0.006H62.883z"/>
<path fill="#FFFFFF" stroke="#020202" stroke-width="0.15" stroke-miterlimit="10" d="M54.145,72.009l1.033-3.817
	c0.342,0.182,2.363,1.133,5.254,0.014c0.004-0.002,0.01-0.002,0.014-0.004l1.051,3.834c-1.436,0.557-2.73,0.733-3.852,0.724
	C56.02,72.734,54.793,72.302,54.145,72.009z"/>
<path fill="#FFFFFF" stroke="#020202" stroke-width="0.15" stroke-miterlimit="10" d="M15.117,14.646
	c-0.058,1.263-0.948,2.291-2.116,2.578c0,0.05-0.001,0.101-0.003,0.151c-0.088,1.951-1.741,3.461-3.692,3.373
	c-0.919-0.043-1.74-0.432-2.342-1.034c-0.363,0.122-0.753,0.18-1.158,0.161c-0.707-0.031-1.351-0.291-1.862-0.705
	c-0.704,0.431-1.54,0.664-2.427,0.623c-0.544-0.024-1.059-0.15-1.529-0.356v-7.854c0.584-0.258,1.236-0.389,1.917-0.357
	c0.257,0.012,0.507,0.047,0.75,0.102c0.001-0.021,0-0.045,0.001-0.066c0.088-1.951,1.741-3.461,3.692-3.374
	C7.741,7.947,8.91,8.81,9.431,10.008c0.34-0.236,0.758-0.368,1.204-0.348c1.079,0.049,1.915,0.963,1.866,2.043
	c0,0.013-0.002,0.024-0.002,0.037C14.017,11.83,15.186,13.121,15.117,14.646z"/>
<path fill="#1E94D2" stroke="#010101" stroke-width="0.15" stroke-miterlimit="10" d="M83.051,56.025H68.238V25.267h14.813V56.025z"
	/>
<path fill="#ADE1FA" stroke="#010101" stroke-width="0.15" stroke-miterlimit="10" d="M79.299,44.084h-6.791
	c-0.449,0-0.814-0.362-0.814-0.813v-8.797c0-0.449,0.365-0.812,0.814-0.812h6.791c0.447,0,0.813,0.362,0.813,0.812v8.797
	C80.109,43.722,79.746,44.084,79.299,44.084z"/>
<path fill="#FCEE23" stroke="#010101" stroke-width="0.15" stroke-miterlimit="10" d="M71.229,39.595l2.393-2.772l3.152-1.156
	l1.773,3.852c0,0,0.674,2.6-1.541,3.928c-0.771,0.463-2.695,0.848-3.773,0L71.229,39.595z"/>
<path fill="#ED2224" stroke="#010101" stroke-width="0.15" stroke-miterlimit="10" d="M73.617,43.677c0,0-1.387-0.463-2.418-2.33
	c-1.291-2.338,0.164-4.308,1.324-5.632c1.16-1.325,1.822-1.822,1.822-2.65c0.328,0.994-0.496,2.319-0.496,2.319
	s2.48-1.988,1.984-4.64c1.82,0.498,2.48,2.816,1.654,4.308c0.826-0.828,1.82-0.332,1.82-0.332s-1.326,1.159-0.828,2.485
	c0.496,1.324,1.16,2.815,0.166,4.804c-1.158,1.821-2.15,1.655-2.15,1.655s1.486-1.158,1.322-2.649
	c-0.99,0.994-1.322,0.994-1.322,0.994s0.828-0.994,0.166-2.485c-0.664-1.49-0.498-2.318-0.166-2.816
	c-1.49,0.828-2.482,2.981-1.656,5.302c-0.99-0.994-1.488-2.319-1.488-2.816C72.523,40.519,72.457,42.352,73.617,43.677z"/>
<path fill="#F2B447" stroke="#010101" stroke-width="0.15" stroke-miterlimit="10" d="M83.051,25.265l-12.184-0.001L54.084,9.302
	h28.967V25.265z"/>
<path fill="#F4F4F4" d="M23.631,53.634c-0.087-0.019-0.175-0.044-0.266-0.062c-0.048-0.015-0.068-0.027-0.073-0.076
	c-0.038-0.437-0.081-0.867-0.123-1.301c-0.018-0.225-0.013-0.225,0.191-0.313c0.138-0.063,0.279-0.125,0.419-0.188
	c0.006-0.007,0.011-0.015,0.021-0.021c-0.054-0.04-0.103-0.073-0.155-0.114c-0.404-0.313-0.626-0.729-0.712-1.23
	c-0.057-0.332-0.018-0.655,0.072-0.979c0.012-0.046,0.022-0.07,0.069-0.075c0.073-0.002,0.081-0.044,0.082-0.104
	c0-0.394,0.003-0.78,0.006-1.178c0-0.045-0.017-0.095,0.063-0.095c0.052-0.002,0.032-0.05,0.03-0.082
	c0.005-0.375,0.011-0.745,0.008-1.12c0-0.087,0.025-0.104,0.105-0.1c0.095,0.015,0.188,0.018,0.298,0.023
	c-0.066-0.066-0.146-0.094-0.214-0.131c-0.044-0.023-0.063-0.056-0.053-0.104c0.09-0.479,0.18-0.965,0.269-1.438
	c0.007-0.055,0.036-0.063,0.077-0.063c0.569-0.08,1.139-0.159,1.707-0.237c0.559-0.08,1.117-0.158,1.676-0.244
	c0.062-0.006,0.074,0,0.067,0.065c-0.056,0.454-0.107,0.907-0.16,1.364c-0.007,0.069-0.024,0.143-0.024,0.218
	c-0.001,0.069-0.019,0.103-0.101,0.103c-0.108,0.002-0.218,0.021-0.328,0.029c-0.032,0.006-0.066,0.008-0.079,0.053
	c-0.014,0.047,0.027,0.055,0.054,0.069c0.101,0.054,0.2,0.106,0.302,0.153c0.058,0.025,0.073,0.056,0.054,0.113
	c-0.055,0.194-0.105,0.397-0.158,0.598c-0.024,0.088-0.034,0.181-0.036,0.271c0.002,0.322,0.002,0.65-0.001,0.975
	c0.003,0.051,0.023,0.109-0.067,0.102c-0.035,0.003-0.03,0.037-0.027,0.059c-0.003,0.201-0.002,0.408-0.003,0.612
	c0,0.046,0.015,0.087,0.028,0.123c0.179,0.584,0.166,1.155-0.137,1.705c-0.055,0.101,0.003,0.196,0.018,0.295
	c0.042,0.294,0.091,0.589,0.141,0.886c0.009,0.053-0.005,0.08-0.057,0.092c-0.11,0.039-0.218,0.082-0.325,0.131
	c-0.026,0.019-0.062,0.021-0.059,0.062c0.004,0.054,0.032,0.06,0.07,0.062c0.112,0.021,0.22,0.049,0.332,0.064
	c0.063,0.012,0.089,0.035,0.087,0.104c0,0.188,0.021,0.369,0.012,0.563c-0.015,0.354,0.109,0.687,0.189,1.022
	c0.021,0.098,0.053,0.195,0.073,0.299c0.013,0.052,0.067,0.115-0.04,0.146c-0.026,0.014-0.013,0.051-0.006,0.061
	c0.036,0.138,0.078,0.271,0.104,0.41c0.014,0.063,0.071,0.05,0.098,0.091c0.242,0.382,0.425,0.798,0.439,1.257
	c0.026,0.793-0.401,1.482-1.131,1.777c-0.735,0.303-1.438,0.254-2.057-0.279c-0.462-0.395-0.672-0.917-0.687-1.52
	c-0.004-0.08-0.04-0.164,0.038-0.229c0.02-0.019-0.001-0.054-0.009-0.08c-0.096-0.374-0.192-0.749-0.29-1.127
	c-0.011-0.045-0.034-0.084,0.04-0.089c0.042-0.018,0.019-0.053,0.011-0.085c-0.092-0.351-0.185-0.72-0.28-1.067
	c-0.024-0.085-0.027-0.136,0.086-0.146c0.104-0.006,0.209-0.036,0.317-0.059C23.632,53.649,23.631,53.64,23.631,53.634z"/>
<path fill="#050505" d="M21.873,50.891c0.056,0.061,0.11,0.001,0.166,0.004c0.083,0.006,0.083-0.044,0.079-0.104
	c-0.002-0.026,0.005-0.049,0.038-0.049c0.036,0,0.04,0.021,0.038,0.049c-0.014,0.09,0.035,0.098,0.107,0.095
	c0.137-0.007,0.269,0,0.402-0.013c0.101-0.01,0.169,0.016,0.211,0.108c0.012,0.022,0.026,0.052,0.045,0.077
	c-0.042,0.021-0.087,0.018-0.129,0.02c-0.178,0.008-0.358,0.008-0.535,0.016c-0.037,0.005-0.088-0.02-0.095,0.055
	c0,0.041-0.046,0.023-0.052,0.003c-0.024-0.059-0.071-0.05-0.12-0.054c-0.143-0.014-0.223-0.123-0.208-0.264
	c0.006-0.034,0.02-0.068,0.052-0.096c0.03-0.021,0.064-0.022,0.098,0c0.028,0.014,0.042,0.043,0.037,0.075
	c-0.003,0.037-0.031,0.052-0.058,0.063C21.92,50.875,21.896,50.854,21.873,50.891z"/>
<path fill="#050505" d="M22.302,51.258c0.107,0.001,0.211-0.006,0.318-0.006c0.046-0.002,0.087-0.019,0.057-0.076
	c-0.008-0.016-0.018-0.04,0.007-0.051c0.022-0.01,0.04,0.002,0.053,0.021c0.046,0.062,0.057,0.129,0.032,0.204
	c-0.023,0.068-0.081,0.1-0.149,0.102c-0.191,0.01-0.384,0.01-0.573,0.021c-0.041,0.001-0.101-0.021-0.092,0.064
	c0.001,0.029-0.04,0.021-0.052-0.006c-0.032-0.06-0.067-0.127-0.033-0.195c0.029-0.063,0.094-0.063,0.157-0.068
	C22.12,51.266,22.208,51.264,22.302,51.258C22.302,51.26,22.302,51.26,22.302,51.258z"/>
<path fill="#050505" d="M22.554,50.632c-0.114,0.002-0.229,0.011-0.346,0.016c-0.036-0.006-0.064-0.022-0.084-0.053
	c-0.048-0.079-0.012-0.146,0.078-0.147c0.111-0.002,0.218-0.008,0.327-0.007c0.051-0.006,0.107-0.012,0.129,0.056
	c0.012,0.057-0.03,0.09-0.071,0.112C22.578,50.613,22.565,50.621,22.554,50.632z"/>
<path fill="#050505" d="M22.554,50.632c0.001-0.035,0.024-0.054,0.048-0.075c0.021-0.018,0.05-0.025,0.034-0.063
	c-0.019-0.035-0.047-0.047-0.082-0.043c-0.122,0-0.24,0.004-0.36,0.006c-0.027,0.004-0.062-0.006-0.069,0.023
	c-0.007,0.036-0.015,0.071,0.02,0.1c0.025,0.017,0.049,0.035,0.063,0.063c-0.015,0.018-0.024,0.044-0.037,0.061
	c-0.033,0.035-0.055,0.023-0.06-0.018c-0.006-0.066-0.006-0.129-0.012-0.193c-0.003-0.053,0.032-0.052,0.065-0.054
	c0.139-0.003,0.275-0.007,0.413-0.012c0.047-0.002,0.118,0.012,0.073-0.079c-0.008-0.02-0.003-0.037,0.018-0.044
	c0.023-0.013,0.04,0.014,0.05,0.024c0.043,0.063,0.052,0.133,0.022,0.201C22.706,50.623,22.635,50.64,22.554,50.632z"/>
<path fill="#050505" d="M21.808,50.57c0.004-0.072,0.046-0.117,0.115-0.117c0.066,0,0.117,0.043,0.115,0.115
	c0,0.069-0.045,0.113-0.108,0.114C21.857,50.685,21.813,50.647,21.808,50.57z"/>
<path fill="#050505" d="M27.324,56.351c0.082,0.463-0.013,0.892-0.303,1.253c-0.459,0.566-1.071,0.764-1.773,0.616
	c-0.69-0.147-1.065-0.64-1.241-1.306c-0.03-0.115-0.03-0.229-0.04-0.353c-0.006-0.063,0.013-0.098,0.074-0.121
	c0.104-0.049,0.203-0.096,0.298-0.161c-0.08,0.014-0.159,0.023-0.236,0.049c-0.052,0.011-0.074-0.008-0.087-0.057
	c-0.083-0.322-0.17-0.654-0.258-0.98c-0.018-0.063,0.003-0.086,0.065-0.092c0.256-0.045,0.511-0.098,0.769-0.144
	c0.049-0.011,0.091-0.011,0.077-0.087c-0.012-0.063-0.043-0.073-0.104-0.059c-0.219,0.051-0.443,0.078-0.667,0.121
	c-0.07,0.021-0.109,0.002-0.127-0.078c-0.077-0.313-0.157-0.629-0.242-0.939c-0.021-0.076-0.002-0.086,0.069-0.104
	c0.396-0.067,0.793-0.146,1.193-0.22c0.02-0.01,0.049-0.01,0.067-0.03c-0.381-0.093-0.761-0.177-1.141-0.265
	c-0.19-0.043-0.188-0.042-0.202-0.233c-0.029-0.313-0.059-0.625-0.092-0.938c-0.005-0.067,0.016-0.104,0.08-0.13
	c0.311-0.131,0.618-0.271,0.925-0.414c0-0.041-0.03-0.023-0.047-0.037c-0.703-0.191-1.167-0.77-1.216-1.494
	c-0.012-0.188,0-0.382,0.043-0.564c0.018-0.055,0.04-0.092,0.107-0.103c0.175-0.024,0.354-0.065,0.53-0.123
	c-0.115-0.007-0.226-0.021-0.345-0.022c-0.067-0.008-0.09-0.024-0.093-0.096c0.007-0.334,0.009-0.676,0.01-1.011
	c0-0.053,0.016-0.071,0.07-0.063c0.073,0.016,0.151-0.004,0.222,0.023c0.016,0.084-0.033,0.156-0.058,0.235
	c-0.02,0.19,0.018,0.386-0.004,0.569c-0.005,0.063,0.054,0.063,0.097,0.063c0.23,0.029,0.463,0.048,0.691,0.063
	c0.335,0.023,0.669,0.058,0.999,0.078c0.031,0,0.053,0.014,0.082,0.018c0.156,0.051,0.156,0.051,0.096,0.216
	c-0.013,0.026-0.047,0.051-0.029,0.084c0.082,0.292,0.087,0.573-0.07,0.842c-0.055,0.099-0.119,0.191-0.229,0.242
	c-0.248,0.058-0.492,0.088-0.727-0.049c-0.26-0.148-0.385-0.384-0.42-0.668c-0.011-0.097-0.006-0.191-0.009-0.289
	c0.002-0.05-0.007-0.086-0.06-0.087c-0.188,0.004-0.371,0.023-0.525,0.134c-0.142,0.051-0.152,0.164-0.15,0.289
	c0.001,0.331,0.068,0.642,0.26,0.916c0.221,0.313,0.53,0.485,0.901,0.557c0.043,0.013,0.087,0.017,0.131,0.027
	c0.076,0.022,0.154,0.006,0.233,0.012c0.035,0.005,0.081-0.007,0.091,0.031c0.012,0.051-0.023,0.063-0.057,0.086
	c-0.136,0.071-0.277,0.133-0.416,0.188c-0.238,0.098-0.464,0.222-0.701,0.316c-0.07,0.032-0.105,0.096-0.121,0.169
	c-0.028,0.05-0.048,0.097-0.041,0.152c0.025,0.188,0.048,0.392,0.054,0.59c0.003,0.122,0.028,0.151,0.154,0.181
	c0.564,0.127,1.128,0.26,1.692,0.389c0.047,0.014,0.098,0.014,0.125,0.066c0.001,0.069-0.06,0.059-0.101,0.066
	c-0.465,0.097-0.93,0.184-1.396,0.255c-0.121,0.021-0.233,0.06-0.317,0.146c-0.063,0.029-0.066,0.08-0.052,0.143
	c0.035,0.139,0.077,0.271,0.109,0.402c0.018,0.084,0.053,0.107,0.129,0.088c0.199-0.034,0.397-0.068,0.597-0.104
	c0.137-0.021,0.169-0.007,0.202,0.127c0.026,0.116,0.056,0.23,0.05,0.354c-0.027,0.051-0.081,0.063-0.13,0.072
	c-0.11,0.021-0.218,0.055-0.329,0.063c-0.135,0.017-0.248,0.063-0.342,0.162c-0.059,0.021-0.061,0.063-0.047,0.122
	c0.033,0.138,0.063,0.271,0.105,0.408c0.033,0.105,0.045,0.111,0.156,0.093c0.577-0.104,1.149-0.222,1.727-0.314
	c0.052-0.015,0.11-0.021,0.162-0.021c0.133,0.021,0.143,0.082,0.046,0.216c-0.002,0.053,0.027,0.084,0.045,0.116
	c0.127,0.263,0.175,0.525,0.075,0.813c-0.022,0.054-0.043,0.106-0.088,0.146c-0.154,0.111-0.316,0.203-0.509,0.223
	c-0.079,0.008-0.159,0.012-0.208-0.076c0.042-0.039,0.092-0.031,0.14-0.039c0.324-0.064,0.482-0.287,0.456-0.615
	c-0.014-0.114-0.05-0.223-0.112-0.326c-0.039-0.063-0.089-0.094-0.161-0.076c-0.242,0.048-0.485,0.086-0.725,0.133
	c-0.068,0.021-0.088,0.059-0.097,0.118c-0.002,0.065,0.018,0.138-0.01,0.202c-0.051,0.027-0.052-0.02-0.06-0.051
	C25,56.404,24.978,56.352,24.95,56.31c-0.042-0.063-0.097-0.084-0.165-0.049c-0.113,0.063-0.228,0.124-0.348,0.178
	c-0.08,0.03-0.114,0.11-0.168,0.177c-0.041,0.028-0.047,0.071-0.04,0.117c0.081,0.659,0.607,1.279,1.369,1.278
	c0.249-0.001,0.477-0.063,0.708-0.144c0.401-0.095,0.674-0.345,0.85-0.699c0.105-0.221,0.177-0.438,0.159-0.685
	C27.293,56.423,27.29,56.382,27.324,56.351z"/>
<path fill="#050505" d="M23.624,48.398c0.047-0.061,0.04-0.143,0.082-0.206c0.198,0.013,0.397,0.027,0.595,0.042
	c0.066,0.008,0.058-0.033,0.068-0.072c0.012-0.052-0.008-0.071-0.06-0.076c-0.227-0.02-0.458-0.041-0.686-0.055
	c-0.08-0.006-0.118-0.021-0.116-0.115c0.009-0.319,0.012-0.646,0.009-0.973c-0.003-0.082,0.031-0.082,0.092-0.072
	c0.341,0.031,0.682,0.059,1.022,0.084c0.045,0.004,0.093,0.002,0.142-0.017c-0.132-0.071-0.267-0.149-0.398-0.223
	c-0.205-0.109-0.408-0.224-0.616-0.331c-0.071-0.035-0.094-0.069-0.077-0.156c0.071-0.341,0.134-0.688,0.194-1.029
	c0.01-0.056,0.031-0.082,0.094-0.092c0.956-0.133,1.909-0.269,2.865-0.406c0.067-0.01,0.091,0.002,0.082,0.075
	c-0.045,0.356-0.085,0.716-0.123,1.072c-0.008,0.062-0.03,0.086-0.094,0.088c-0.107,0.004-0.215,0.022-0.319,0.027
	c-0.064,0.003-0.083,0.032-0.089,0.086c-0.012,0.091-0.028,0.184-0.051,0.271c-0.02,0.075,0.002,0.116,0.072,0.146
	c0.092,0.033,0.174,0.092,0.267,0.133c0.048,0.021,0.073,0.051,0.053,0.111c-0.141,0.396-0.171,0.801-0.151,1.214
	c0.005,0.086-0.008,0.179,0,0.265c0.002,0.063-0.017,0.081-0.081,0.073c-0.291-0.024-0.583-0.043-0.873-0.071
	c-0.07-0.008-0.083,0.021-0.09,0.082c-0.009,0.079,0.045,0.063,0.084,0.063c0.255,0.021,0.511,0.043,0.766,0.061
	c0.077,0.012,0.098,0.033,0.094,0.105c-0.004,0.244,0.005,0.49-0.007,0.729c-0.006,0.089,0.068,0.146,0.055,0.229
	c-0.108-0.008-0.211-0.055-0.311-0.096c-0.032-0.012-0.034-0.05-0.029-0.078c-0.005-0.051-0.012-0.092,0.018-0.131
	c0.086-0.021,0.116-0.064,0.114-0.149c0.004-0.128-0.017-0.255-0.005-0.38c0.004-0.079-0.052-0.108-0.121-0.114
	c-0.192-0.019-0.386-0.038-0.582-0.052c-0.191-0.01-0.254-0.086-0.233-0.276c0.004-0.052,0.008-0.108,0.009-0.158
	c0-0.053,0.014-0.099,0.069-0.118c0.222-0.009,0.444,0.025,0.667,0.043c0.072,0.002,0.147,0.016,0.183-0.068
	c0.093-0.049,0.124-0.12,0.122-0.225c0-0.104,0.015-0.197,0.009-0.3c-0.021-0.194,0.009-0.388,0.075-0.573
	c0.035-0.104,0.019-0.143-0.078-0.195c-0.021-0.016-0.052-0.023-0.077-0.037c-0.197-0.111-0.224-0.154-0.17-0.368
	c0.035-0.147,0.033-0.31,0.102-0.438c0.044-0.056,0.106-0.054,0.167-0.055c0.083,0.008,0.157-0.018,0.206-0.09
	c0.084-0.037,0.112-0.107,0.12-0.188c0.011-0.119,0.028-0.242,0.039-0.369c0.009-0.137-0.021-0.159-0.157-0.146
	c-0.366,0.042-0.734,0.104-1.103,0.154c-0.369,0.047-0.735,0.11-1.102,0.155c-0.065,0.008-0.118,0.031-0.158,0.082
	c-0.108,0.043-0.132,0.133-0.15,0.23c-0.03,0.182-0.061,0.355-0.102,0.533c-0.022,0.085,0.007,0.141,0.085,0.182
	c0.459,0.25,0.917,0.508,1.377,0.758c0.033,0.02,0.067,0.033,0.094,0.061c0.016,0.021,0.035,0.037,0.004,0.061
	c-0.108,0.032-0.219,0.022-0.325,0.021c-0.368-0.03-0.734-0.065-1.103-0.093c-0.098-0.008-0.173,0.018-0.241,0.082
	c-0.071,0.015-0.094,0.063-0.09,0.131c0.007,0.13,0.005,0.26-0.003,0.393c-0.011,0.104,0.01,0.117,0.109,0.131
	c0.182,0.021,0.362,0.027,0.541,0.041c0.054,0.008,0.103,0.008,0.151,0.028c0.039,0.011,0.072,0.034,0.068,0.073
	c-0.003,0.146,0.007,0.289-0.047,0.426c-0.03,0.035-0.072,0.027-0.112,0.033c-0.161,0.008-0.319-0.021-0.48-0.035
	c-0.092-0.012-0.167,0.001-0.229,0.076C23.701,48.431,23.657,48.438,23.624,48.398z"/>
<path fill="#050505" d="M26.113,49.295c-0.018,0.058,0.032,0.059,0.063,0.063c0.088,0.021,0.175,0.05,0.254,0.099
	c0.032,0.058,0.05,0.123,0.05,0.188c0.063,0.479-0.029,0.92-0.348,1.301c-0.04,0.043-0.048,0.074,0.017,0.104
	c0.056,0.022,0.073,0.087,0.104,0.134c0.047,0.156,0.056,0.32,0.087,0.48c0.021,0.117,0.034,0.236,0.06,0.354
	c0.012,0.063,0,0.099-0.068,0.122c-0.097,0.029-0.19,0.075-0.287,0.107c-0.055,0.02-0.077,0.045-0.069,0.104
	c0.018,0.104,0.026,0.208,0.032,0.318c0.003,0.052,0.038,0.063,0.08,0.07c0.102,0.017,0.207,0.047,0.312,0.063
	c0.072,0.01,0.091,0.045,0.086,0.105c-0.025,0.521,0.066,1.02,0.226,1.504c0.021,0.076,0.002,0.102-0.074,0.108
	c-0.277,0.045-0.553,0.101-0.828,0.151c-0.048,0.009-0.102,0.002-0.085,0.086c0.018,0.084,0.061,0.07,0.117,0.06
	c0.25-0.049,0.499-0.092,0.747-0.142c0.082-0.021,0.099,0.013,0.117,0.081c0.051,0.227,0.113,0.45,0.174,0.688
	c0.012,0.051,0.021,0.092,0.089,0.075c0.032-0.017,0.051,0.013,0.067,0.036c0.147,0.247,0.258,0.505,0.292,0.791
	c0.035,0.309-0.044,0.591-0.186,0.855c-0.13,0.258-0.337,0.438-0.583,0.574c-0.081,0.047-0.177,0.059-0.261,0.077
	c-0.001-0.053,0.046-0.057,0.079-0.077c0.169-0.091,0.309-0.214,0.441-0.353c0.409-0.425,0.469-0.917,0.286-1.464
	c-0.018-0.049-0.04-0.111-0.064-0.17c-0.039-0.082-0.1-0.113-0.185-0.104c-0.107,0.021-0.216,0.026-0.323,0.049
	c-0.064,0.015-0.097,0.058-0.142,0.091c-0.061,0.021-0.119,0.057-0.184,0.021c0.007-0.019,0.021-0.021,0.037-0.024
	c0.055-0.017,0.061-0.056,0.059-0.104c-0.006-0.05-0.057-0.035-0.086-0.037c0.009-0.052,0.046-0.05,0.077-0.058
	c0.085-0.019,0.162-0.039,0.241-0.053c0.046-0.004,0.076-0.021,0.098-0.063c0.091-0.071,0.103-0.164,0.065-0.271
	c-0.03-0.082-0.056-0.182-0.078-0.268c-0.02-0.082-0.068-0.111-0.152-0.102c-0.19,0.021-0.375,0.063-0.563,0.102
	c-0.061,0.018-0.121,0.021-0.184,0.002c-0.05-0.016-0.088-0.045-0.101-0.094c-0.021-0.11-0.052-0.217-0.068-0.332
	c-0.005-0.033-0.002-0.071,0.026-0.104c0.033-0.035,0.08-0.035,0.124-0.045c0.196-0.045,0.395-0.07,0.593-0.107
	c0.046-0.01,0.085-0.021,0.104-0.067c0.087-0.054,0.097-0.138,0.067-0.229c-0.037-0.117-0.06-0.246-0.093-0.354
	c-0.034-0.132-0.057-0.262-0.033-0.396c0.002-0.019,0-0.019,0.002-0.027c0.014-0.26-0.009-0.288-0.264-0.354
	c-0.165-0.036-0.203-0.077-0.226-0.245c-0.025-0.187-0.042-0.365-0.024-0.558c0.025-0.062,0.087-0.067,0.139-0.091
	c0.059-0.021,0.121-0.04,0.15-0.1c0.057-0.053,0.095-0.104,0.08-0.188c-0.017-0.135-0.045-0.268-0.063-0.4
	c-0.01-0.084-0.042-0.102-0.12-0.068c-0.458,0.214-0.919,0.418-1.384,0.625c-0.266,0.125-0.532,0.236-0.803,0.359
	c-0.042,0.018-0.082,0.053-0.134,0.021c-0.014-0.087,0.047-0.152,0.111-0.181c0.35-0.162,0.701-0.313,1.053-0.474
	c0.051-0.021,0.101-0.046,0.147-0.096c-0.114-0.034-0.223,0.022-0.324-0.021c0.058-0.054,0.129-0.033,0.196-0.037
	c0.371,0.006,0.682-0.138,0.951-0.375c0.062-0.06,0.102-0.138,0.18-0.188c0.115-0.064,0.175-0.18,0.228-0.291
	c0.139-0.307,0.166-0.621,0.113-0.946c-0.017-0.093-0.063-0.145-0.162-0.153c-0.086-0.015-0.176-0.021-0.264-0.037
	c-0.087-0.021-0.158-0.002-0.217,0.072c-0.054,0.023-0.104,0.004-0.153-0.002c-0.029-0.061,0.023-0.039,0.042-0.048
	c0.044-0.065,0.063-0.164,0.175-0.153c-0.015-0.02-0.024-0.039,0.005-0.051C25.88,49.24,26,49.238,26.113,49.295z"/>
<path fill="#050505" d="M26.25,51.188c-0.069-0.043-0.102-0.125-0.19-0.145c-0.041-0.01-0.015-0.053,0.007-0.077
	c0.17-0.163,0.261-0.372,0.339-0.595c0.054-0.146,0.042-0.306,0.066-0.451c0.016-0.086,0.003-0.188,0.003-0.272
	c0.089,0.417,0.049,0.816-0.15,1.194C26.267,50.953,26.223,51.059,26.25,51.188z"/>
<path fill="#050505" d="M21.889,52.647c0,0.117,0.04,0.228-0.002,0.353c-0.019,0.052,0.037,0.074,0.062,0.111
	c0.01,0.016,0.022,0.016,0.034-0.003c0.027-0.032,0.026-0.069,0.011-0.106c-0.011-0.024-0.014-0.057-0.021-0.082
	c0.056,0.082,0.133,0.08,0.215,0.078c0.146-0.01,0.294-0.01,0.439-0.016c0.045,0,0.091-0.012,0.117,0.047
	c0.01,0.021,0.028,0.035,0.05,0.021c0.022-0.02,0.013-0.037,0.013-0.055c-0.002-0.119-0.005-0.254-0.012-0.383
	c-0.017-0.255-0.217-0.418-0.493-0.41C22.047,52.211,21.883,52.394,21.889,52.647z M22.548,52.445
	c0.06,0.021,0.114,0.047,0.146,0.104c0.089,0.149,0.052,0.214-0.111,0.218c-0.078,0.002-0.157,0.007-0.235,0.008
	c-0.106,0.001-0.212,0.008-0.318,0.01c-0.053,0.015-0.072-0.014-0.072-0.063c-0.005-0.118,0.059-0.226,0.187-0.265
	C22.278,52.416,22.412,52.414,22.548,52.445z"/>
<path fill="#050505" d="M21.978,53.313c-0.116,0.187-0.09,0.427,0.065,0.587c0.146,0.149,0.389,0.182,0.565,0.073
	c0.059-0.038,0.122-0.134,0.162-0.12c0.058,0.016,0.101,0.104,0.164,0.182c-0.057-0.22-0.206-0.348-0.328-0.48
	c-0.017-0.02-0.051-0.02-0.082-0.021c-0.052-0.017-0.112-0.002-0.144-0.056c-0.065-0.103-0.104-0.104-0.172-0.011
	c-0.002-0.12-0.002-0.12,0.119-0.123c0.056-0.001,0.092-0.004,0.031-0.057c-0.017,0.016-0.036,0.021-0.054,0.021
	c-0.059,0.015-0.138-0.026-0.155,0.073c-0.009,0.057-0.067,0.111-0.036,0.185c0.017,0.04-0.014,0.052-0.037,0.062
	c-0.032,0.021-0.043,0.051-0.016,0.082c0.015,0.02,0.046,0.052,0.056,0.021c0.014-0.019,0.079-0.026,0.032-0.08
	c-0.013-0.013-0.031-0.022-0.006-0.041c0.01-0.007,0.019-0.01,0.029-0.006c0.017,0.011,0.043,0.021,0.033,0.047
	c-0.036,0.103,0.046,0.106,0.102,0.121c0.077,0.015,0.159,0.022,0.251,0.036c-0.024-0.055-0.06-0.051-0.096-0.051
	c-0.059-0.008-0.114-0.024-0.167-0.047c-0.041-0.021-0.036-0.053-0.019-0.088c0.022-0.045,0.046-0.013,0.066,0.01
	c0.093,0.057,0.196,0.096,0.3,0.136c0.082,0.022,0.071,0.056,0.021,0.112c-0.129,0.121-0.321,0.154-0.479,0.066
	c-0.157-0.078-0.243-0.261-0.208-0.438c0.034-0.188,0.167-0.298,0.361-0.326l0,0c0.259-0.021,0.456,0.175,0.441,0.435
	c-0.001,0.021-0.01,0.053-0.008,0.069s0.018,0.034,0.032,0.04c0.021,0.012,0.022-0.02,0.027-0.033
	c0.006-0.017,0.011-0.05,0.013-0.066c0.018-0.207-0.115-0.412-0.315-0.481C22.324,53.054,22.09,53.129,21.978,53.313z
	 M22.449,53.574c0.096,0.004,0.147,0.049,0.2,0.092C22.579,53.662,22.522,53.627,22.449,53.574z"/>
<path fill="#050505" d="M22.646,51.595c0.055,0.052,0.076,0.114,0.064,0.187c-0.013,0.084-0.117,0.164-0.215,0.15
	c-0.094-0.01-0.035-0.091-0.05-0.137c-0.007-0.021-0.002-0.045-0.005-0.063c0-0.051-0.003-0.106-0.005-0.164
	c0-0.034-0.016-0.054-0.05-0.046c-0.105,0.01-0.21,0.09-0.244,0.193c-0.054,0.156,0.015,0.326,0.164,0.402
	c0.153,0.063,0.339,0.006,0.431-0.136c0.087-0.136,0.064-0.354-0.046-0.45c-0.016-0.019-0.031-0.039-0.058-0.02
	C22.61,51.562,22.629,51.576,22.646,51.595z M22.329,51.936c-0.068-0.005-0.137-0.021-0.136-0.102
	c-0.003-0.082,0.066-0.096,0.13-0.104c0.096-0.012,0.042,0.069,0.063,0.106C22.369,51.871,22.419,51.941,22.329,51.936z"/>
<path fill="#F04F4C" d="M26.125,51.891c0.006,0.051-0.017,0.072-0.065,0.085c-0.073,0.031-0.144,0.062-0.216,0.092
	c-0.115,0.071-0.112,0.175-0.093,0.292c0.022,0.133,0.04,0.271,0.041,0.406c0.001,0.085,0.037,0.126,0.125,0.145
	c0.072,0.018,0.148,0.024,0.221,0.043c0.073,0.019,0.119,0.061,0.115,0.141c-0.008,0.359,0.044,0.727,0.155,1.081
	c0.009,0.021,0.008,0.051-0.001,0.079c0.014,0.066-0.019,0.082-0.075,0.092c-0.25,0.047-0.505,0.08-0.75,0.145
	c-0.121,0.07-0.121,0.07-0.098,0.217c0.016,0.088,0.031,0.185,0.048,0.271c0.014,0.071,0.046,0.095,0.124,0.082
	c0.229-0.047,0.462-0.085,0.693-0.133c0.128-0.021,0.155-0.011,0.186,0.11c0.036,0.137,0.077,0.271,0.109,0.412
	c0.006,0.032,0.011,0.065,0.003,0.103c0.005,0.055-0.022,0.079-0.077,0.086c-0.118,0.021-0.237,0.051-0.359,0.065
	c-0.31,0.039-0.612,0.104-0.917,0.16c-0.338,0.063-0.675,0.119-1.012,0.184c-0.089,0.021-0.116-0.012-0.135-0.09
	c-0.033-0.151-0.073-0.297-0.116-0.451c-0.027-0.079-0.02-0.137,0.083-0.146c0.206-0.089,0.43-0.097,0.645-0.144
	c0.073-0.021,0.125-0.04,0.139-0.122c-0.024-0.126-0.047-0.261-0.064-0.392c-0.013-0.069-0.043-0.082-0.114-0.068
	c-0.23,0.05-0.462,0.086-0.693,0.133c-0.064,0.018-0.086-0.005-0.101-0.063c-0.042-0.168-0.082-0.33-0.131-0.494
	c-0.026-0.084,0-0.117,0.081-0.127c0.104-0.057,0.217-0.062,0.328-0.084c0.551-0.104,1.103-0.205,1.664-0.311
	c-0.061-0.021-0.128-0.02-0.176-0.068c-0.423-0.1-0.842-0.192-1.264-0.289c-0.204-0.047-0.407-0.096-0.609-0.133
	c-0.076-0.019-0.104-0.052-0.107-0.121c-0.021-0.24-0.041-0.479-0.069-0.719c-0.002-0.051,0.015-0.085,0.056-0.115
	c0.296-0.117,0.577-0.254,0.866-0.388c0.451-0.196,0.904-0.401,1.358-0.604c0.027-0.014,0.063-0.021,0.096-0.031
	c0.025,0.018,0.04,0.051,0.043,0.082c0.031,0.168,0.063,0.342,0.084,0.513C26.139,51.828,26.128,51.86,26.125,51.891z"/>
<path fill="#F04F4C" d="M26.113,49.295c-0.122-0.008-0.245-0.016-0.368-0.023c-0.08,0.034-0.155-0.027-0.228-0.018
	c-0.285-0.024-0.57-0.051-0.856-0.077c-0.326-0.029-0.651-0.054-0.979-0.076c-0.042-0.006-0.08-0.008-0.077-0.062
	c0.017-0.219-0.015-0.434,0.016-0.646c0.041-0.001,0.083,0.001,0.124-0.001c0.13-0.036,0.254,0.006,0.384,0.005
	c0.084,0.001,0.167,0.011,0.244,0.021c0.083,0.014,0.139-0.016,0.175-0.092c0.01-0.14,0.028-0.275,0.037-0.42
	c0.006-0.053-0.033-0.059-0.073-0.059c-0.237-0.021-0.477-0.044-0.713-0.059c-0.072-0.01-0.093-0.027-0.093-0.104
	c0.005-0.18,0.006-0.354,0.003-0.527c-0.003-0.106,0.078-0.062,0.122-0.07c0.076-0.038,0.149-0.018,0.223-0.012
	c0.534,0.043,1.071,0.09,1.607,0.129c0.007,0.002,0.015-0.002,0.018-0.008c-0.052-0.041-0.129-0.051-0.164-0.121
	c-0.354-0.194-0.705-0.395-1.062-0.59c-0.161-0.094-0.324-0.181-0.486-0.27c-0.062-0.032-0.078-0.065-0.065-0.141
	c0.047-0.219,0.089-0.438,0.124-0.662c0.015-0.086,0.045-0.144,0.141-0.15c0.124-0.063,0.267-0.063,0.398-0.079
	c0.633-0.091,1.271-0.187,1.905-0.271c0.167-0.021,0.188-0.002,0.173,0.162c-0.013,0.137-0.03,0.271-0.049,0.407
	c-0.007,0.034-0.008,0.074-0.035,0.105c-0.007,0.081-0.054,0.104-0.132,0.104c-0.078,0-0.159,0-0.23,0.024
	c-0.083,0.039-0.107,0.104-0.121,0.185c-0.03,0.16-0.053,0.318-0.088,0.479c-0.019,0.08,0.008,0.131,0.083,0.166
	c0.078,0.029,0.153,0.064,0.225,0.111c0.059,0.033,0.078,0.082,0.06,0.145c-0.008,0.025-0.015,0.051-0.023,0.08
	c-0.066,0.218-0.102,0.439-0.08,0.67c0.011,0.105-0.002,0.213-0.029,0.314c0.004,0.104-0.044,0.112-0.136,0.104
	c-0.25-0.021-0.494-0.035-0.744-0.055c-0.085,0.015-0.126,0.066-0.127,0.154c-0.003,0.09-0.011,0.188-0.021,0.272
	c-0.008,0.12,0.002,0.13,0.122,0.146c0.208,0.021,0.417,0.034,0.622,0.051c0.175,0.012,0.201,0.033,0.205,0.207
	c0.003,0.086,0.007,0.176,0.007,0.258c0,0.051,0.002,0.104-0.031,0.146C26.121,49.207,26.12,49.248,26.113,49.295z"/>
<path fill="#F04F4C" d="M26.818,57.461c-0.15,0.171-0.332,0.298-0.527,0.404c-0.198,0.072-0.4,0.141-0.616,0.145
	c-0.625,0.021-1.132-0.296-1.376-0.873c-0.063-0.145-0.105-0.283-0.12-0.445c-0.011-0.066,0.009-0.101,0.064-0.126
	c0.135-0.114,0.303-0.165,0.457-0.241c0.033-0.016,0.066-0.019,0.087,0.021c0.036,0.083,0.035,0.186,0.061,0.279
	c0.083,0.289,0.237,0.523,0.544,0.608c0.201,0.06,0.407,0.033,0.594-0.069c0.113-0.06,0.196-0.151,0.284-0.236
	c0.151-0.225,0.152-0.477,0.08-0.73c-0.033-0.117-0.096-0.224-0.153-0.336c0.06-0.014,0.121-0.021,0.184-0.035
	c0.135-0.067,0.291-0.063,0.438-0.086c0.053-0.008,0.084,0.039,0.107,0.082c0.229,0.479,0.287,0.957,0.033,1.439
	C26.92,57.336,26.86,57.396,26.818,57.461z"/>
<path fill="#F04F4C" d="M26.006,50.886c-0.322,0.415-0.75,0.593-1.271,0.571c-0.02,0-0.041,0-0.06,0.002
	c-0.21-0.031-0.411-0.074-0.598-0.18c-0.442-0.246-0.661-0.64-0.713-1.134c-0.009-0.104-0.005-0.2-0.007-0.306
	c0-0.108,0.035-0.188,0.155-0.196c0.103-0.063,0.222-0.063,0.335-0.085c0.216-0.041,0.214-0.039,0.197,0.182
	c-0.014,0.17-0.002,0.33,0.054,0.483c0.145,0.405,0.527,0.547,0.91,0.454c0.092-0.021,0.182-0.061,0.265-0.104
	c0.211-0.149,0.303-0.36,0.322-0.61c0.012-0.154-0.008-0.315-0.056-0.468c0.049-0.045,0.101,0.011,0.151-0.011
	c0.169-0.022,0.333,0.005,0.497,0.041c0.043,0.011,0.059,0.058,0.067,0.097c0.065,0.383,0.06,0.752-0.123,1.104
	C26.101,50.787,26.056,50.836,26.006,50.886z"/>
<path fill="#F4F4F4" d="M25.397,49.855c0.013,0.456-0.292,0.738-0.693,0.66c-0.179-0.037-0.305-0.141-0.375-0.309
	c-0.108-0.258-0.069-0.518,0.036-0.77c0.018-0.038,0.044-0.031,0.076-0.031c0.269,0.021,0.539,0.043,0.81,0.063
	c0.044-0.001,0.056,0.022,0.073,0.062C25.375,49.638,25.397,49.754,25.397,49.855z"/>
<path fill="#F4F4F4" d="M25.042,56.485c0.001-0.085-0.01-0.186,0.004-0.276c0.006-0.045,0.016-0.063,0.064-0.072
	c0.271-0.046,0.544-0.102,0.817-0.148c0.058-0.012,0.092,0.006,0.126,0.061c0.081,0.133,0.14,0.281,0.145,0.438
	c0.015,0.329-0.209,0.576-0.54,0.604c-0.026,0.002-0.051,0.005-0.082,0.006c-0.126,0.032-0.218-0.034-0.304-0.106
	c-0.14-0.115-0.208-0.281-0.242-0.459C25.027,56.508,25.033,56.496,25.042,56.485z"/>
<path fill="#050505" d="M25.276,50.576c-0.414,0.358-1.099,0.123-1.235-0.429c-0.037-0.165-0.046-0.336-0.013-0.507
	c0.022-0.082-0.008-0.084-0.071-0.073c-0.148,0.028-0.295,0.052-0.442,0.08c0.025-0.082,0.104-0.088,0.166-0.104
	c0.122-0.021,0.24-0.063,0.37-0.063c0.079,0.006,0.105,0.03,0.103,0.11c-0.01,0.229-0.003,0.46,0.128,0.674
	c0.193,0.304,0.471,0.399,0.787,0.354C25.137,50.61,25.208,50.589,25.276,50.576z"/>
<path fill="#050505" d="M25.042,56.485c0.02,0.063,0.036,0.13,0.058,0.194c0.083,0.222,0.229,0.373,0.473,0.406
	c0.172,0.096,0.333,0.037,0.488-0.036c0.074-0.035,0.14-0.087,0.21-0.124c-0.055,0.121-0.143,0.197-0.261,0.256
	c-0.466,0.197-0.856-0.071-1.025-0.436c-0.05-0.104-0.084-0.217-0.1-0.319c-0.009-0.052-0.021-0.118-0.105-0.079
	c-0.035-0.02-0.065,0.004-0.093,0.021c-0.15,0.068-0.296,0.138-0.446,0.205c0.057-0.113,0.146-0.185,0.262-0.229
	c0.084-0.027,0.164-0.085,0.242-0.121c0.109-0.058,0.149-0.041,0.217,0.065C25.008,56.344,25.008,56.418,25.042,56.485z"/>
<path fill="#050505" d="M25.683,53.609c0.092,0.018,0.185,0.038,0.279,0.057c0.001,0.012,0.001,0.02,0.002,0.021
	c-0.14,0.021-0.282,0.053-0.419,0.076c-0.54,0.1-1.074,0.199-1.617,0.3c-0.017,0.007-0.04,0-0.06,0.005
	c0.075-0.152,0.229-0.15,0.36-0.171c0.438-0.077,0.88-0.147,1.314-0.241C25.589,53.646,25.655,53.688,25.683,53.609z"/>
<path fill="#050505" d="M24.893,55.093c0.032,0.079,0.021,0.12-0.078,0.14c-0.235,0.034-0.469,0.079-0.705,0.119
	c0.126-0.188,0.345-0.136,0.519-0.193C24.713,55.134,24.814,55.152,24.893,55.093z"/>
<path fill="#050505" d="M25.518,49.256c0.079-0.008,0.154,0.003,0.228,0.018c0.015,0.01,0.026,0.018,0.045,0.027
	c-0.073,0.025-0.156,0.044-0.161,0.146c0,0.004-0.026,0.006-0.045,0.01c0-0.021-0.006-0.039,0-0.051
	C25.649,49.316,25.633,49.262,25.518,49.256z"/>
<path fill="#050505" d="M26.563,45.606c0.02-0.187,0.036-0.376,0.062-0.562c0.013-0.09-0.016-0.104-0.099-0.088
	c-0.75,0.104-1.497,0.213-2.241,0.313c-0.039,0.013-0.075,0.009-0.113,0.013c0.053-0.146,0.19-0.113,0.297-0.129
	c0.265-0.037,0.528-0.078,0.794-0.121c0.147-0.023,0.294-0.041,0.446-0.059c0.302-0.029,0.602-0.102,0.907-0.134
	c0.093-0.015,0.14,0.015,0.136,0.106c-0.006,0.189-0.024,0.381-0.065,0.567C26.67,45.59,26.623,45.599,26.563,45.606z"/>
<path fill="#050505" d="M26.228,47.877c-0.009-0.354-0.028-0.711,0.102-1.051c0.025-0.067,0.014-0.108-0.055-0.144
	c-0.087-0.033-0.165-0.088-0.247-0.118c-0.068-0.025-0.087-0.064-0.072-0.139c0.042-0.195,0.079-0.396,0.108-0.596
	c0.017-0.084,0.054-0.117,0.136-0.104c-0.03,0.184-0.058,0.357-0.1,0.536c-0.025,0.103,0.021,0.16,0.095,0.206
	c0.057,0.037,0.12,0.066,0.182,0.091c0.076,0.044,0.111,0.104,0.079,0.194c-0.064,0.169-0.11,0.341-0.09,0.525
	c0.018,0.151-0.004,0.307-0.007,0.463C26.357,47.834,26.31,47.873,26.228,47.877z"/>
<path fill="#050505" d="M26.125,49.16c0-0.147-0.009-0.301-0.001-0.451c0.005-0.1-0.037-0.114-0.123-0.125
	c-0.254-0.014-0.504-0.043-0.756-0.055c-0.075-0.006-0.087-0.033-0.082-0.097c0.013-0.126,0.023-0.256,0.032-0.38
	c0.008-0.146,0.006-0.145,0.157-0.126c-0.016,0.015-0.042,0.03-0.037,0.056c0.007,0.083-0.009,0.169-0.011,0.256
	c-0.007,0.122,0.045,0.182,0.174,0.19c0.212,0.017,0.426,0.026,0.642,0.047c0.077,0.008,0.143,0.051,0.131,0.126
	c-0.022,0.15,0.015,0.307-0.001,0.458C26.246,49.154,26.223,49.176,26.125,49.16z"/>
<path fill="#050505" d="M25.524,47.092c0.087,0.045,0.174,0.091,0.261,0.137c-0.002,0.014-0.003,0.02-0.005,0.031
	c-0.646-0.055-1.298-0.105-1.946-0.163c0.055-0.086,0.122-0.099,0.224-0.095c0.29,0.013,0.577,0.059,0.863,0.07
	C25.123,47.084,25.324,47.111,25.524,47.092z"/>
<path fill="#050505" d="M24.548,48.334c0.003,0.135,0.002,0.141-0.121,0.127c-0.225-0.021-0.456-0.021-0.679-0.063
	c0.024-0.089,0.075-0.104,0.168-0.099C24.124,48.316,24.335,48.363,24.548,48.334z"/>
<path fill="#050505" d="M26.405,54.244c-0.125-0.353-0.198-0.722-0.175-1.105c0.004-0.104-0.024-0.15-0.136-0.165
	c-0.082-0.003-0.166-0.032-0.25-0.045c-0.054-0.013-0.079-0.028-0.08-0.084c-0.02-0.188-0.04-0.386-0.055-0.571
	c-0.011-0.17-0.044-0.146,0.134-0.197c0,0.193,0.006,0.396,0.037,0.598c0.014,0.089,0.06,0.154,0.161,0.168
	c0.004,0,0.009,0.002,0.011-0.002c0.295,0.043,0.362,0.139,0.313,0.426c-0.022,0.123,0,0.244,0.026,0.357
	c0.03,0.147,0.062,0.287,0.111,0.424C26.532,54.154,26.5,54.213,26.405,54.244z"/>
<path fill="#050505" d="M26.818,57.461c0.089-0.159,0.189-0.319,0.231-0.504c0.104-0.406,0.014-0.784-0.162-1.149
	c-0.024-0.048-0.056-0.05-0.101-0.036c-0.136,0.018-0.272,0.037-0.407,0.055c0.053-0.145,0.191-0.088,0.29-0.125
	c0.031-0.021,0.069-0.004,0.102-0.011c0.192-0.051,0.247-0.008,0.318,0.175c0.09,0.228,0.147,0.457,0.135,0.701
	C27.204,56.92,27.088,57.228,26.818,57.461z"/>
<path fill="#050505" d="M26.645,55.535c-0.063-0.172-0.097-0.354-0.142-0.521c-0.018-0.063-0.036-0.089-0.11-0.071
	c-0.257,0.06-0.518,0.099-0.776,0.146c-0.059,0.015-0.094,0.008-0.105-0.071c-0.018-0.13-0.038-0.271-0.076-0.398
	c-0.031-0.11,0.019-0.131,0.108-0.138c0.017,0.001,0.03,0.002,0.043,0c-0.035,0.08,0.012,0.153,0.022,0.222
	c0.005,0.051,0.023,0.086,0.029,0.115c0.024,0.146,0.083,0.186,0.224,0.146c0.211-0.051,0.422-0.086,0.64-0.11
	c0.071-0.015,0.113,0.021,0.13,0.083c0.045,0.146,0.089,0.287,0.129,0.438C26.773,55.461,26.688,55.488,26.645,55.535z"/>
<path fill="#050505" d="M26.006,50.886c0.253-0.382,0.303-0.797,0.222-1.235c-0.014-0.066-0.033-0.105-0.113-0.109
	c-0.143-0.01-0.286-0.032-0.425-0.051c0.034-0.093,0.096-0.111,0.188-0.091c0.105,0.023,0.211,0.033,0.313,0.041
	c0.105,0.003,0.164,0.063,0.177,0.157c0.041,0.285,0.048,0.568-0.054,0.848C26.245,50.613,26.187,50.789,26.006,50.886z"/>
<path fill="#050505" d="M26.125,51.891c-0.039-0.227-0.08-0.455-0.12-0.68c0.001-0.034,0.019-0.063,0.058-0.062
	c0.041,0.011,0.064,0.031,0.079,0.068c0.047,0.095,0.024,0.202,0.055,0.303c0.016,0.062,0.026,0.123,0.031,0.188
	C26.234,51.802,26.206,51.86,26.125,51.891z"/>
<path fill="#050505" d="M25.223,52.697c0.001,0.025,0.006,0.051,0.01,0.082c0.005,0.051-0.013,0.069-0.063,0.063
	c-0.277-0.041-0.553-0.083-0.83-0.124c-0.031-0.006-0.05-0.02-0.052-0.057c-0.002-0.033,0.005-0.061,0.042-0.069
	c0.044-0.015,0.084-0.027,0.127-0.041c0.017-0.013,0.038-0.007,0.055,0.012c0.132,0.048,0.274,0.042,0.411,0.07
	c0.046,0.017,0.096,0.021,0.142,0.03C25.113,52.683,25.179,52.651,25.223,52.697z"/>
<path fill="#050505" d="M24.5,52.574c-0.011-0.02-0.028-0.017-0.044-0.017c0.218-0.089,0.446-0.162,0.667-0.242
	c0.047-0.018,0.07-0.009,0.074,0.05c0.004,0.115,0.036,0.219,0.027,0.338c-0.052-0.008-0.111,0.022-0.163-0.008
	c0.008-0.02,0.023-0.041,0.025-0.055c0.004-0.068,0.003-0.148-0.043-0.189c-0.045-0.049-0.1,0.008-0.146,0.021
	c-0.093,0.025-0.182,0.079-0.276,0.107C24.581,52.574,24.542,52.596,24.5,52.574z"/>
<path fill="#050505" d="M25.474,46.131c-0.011,0.193-0.011,0.193-0.186,0.115c-0.213-0.102-0.425-0.19-0.633-0.293
	c-0.036-0.021-0.084-0.021-0.073-0.08c0.009-0.063,0.058-0.063,0.099-0.065c0.046-0.001,0.094,0.001,0.143,0.001
	c0.026,0.023-0.024,0.041-0.003,0.063c0.164,0.055,0.314,0.143,0.47,0.207C25.357,46.082,25.421,46.078,25.474,46.131z"/>
<path fill="#050505" d="M24.787,45.879c-0.029-0.004-0.047-0.016-0.013-0.034c0.016-0.017,0.046-0.006,0.054-0.038
	c0.217-0.014,0.438-0.03,0.658-0.044c0.053-0.005,0.062,0.022,0.053,0.065c-0.019,0.099-0.042,0.194-0.064,0.297
	c-0.063-0.006-0.123-0.031-0.188-0.021c-0.002-0.049,0.012-0.094,0.016-0.141c0.014-0.096-0.002-0.108-0.095-0.112
	C25.067,45.852,24.926,45.896,24.787,45.879z"/>
<path fill="#050505" d="M24.784,56.341c0.012-0.019-0.016-0.062,0.027-0.063c0.042,0.006,0.071,0.025,0.084,0.066
	c0.032,0.083,0.033,0.178,0.068,0.267c0.111,0.298,0.291,0.525,0.618,0.591c0.145,0.029,0.289,0.025,0.432-0.021
	c-0.315,0.214-0.754,0.146-0.996-0.147C24.855,56.828,24.785,56.597,24.784,56.341z"/>
<path fill="#F3F0F2" d="M24.5,52.574c0.168-0.058,0.331-0.123,0.496-0.188c0.054-0.02,0.081-0.02,0.091,0.049
	c0.008,0.055,0.018,0.119,0.035,0.184c0.011,0.051-0.014,0.076-0.063,0.073c-0.158-0.021-0.317-0.045-0.478-0.067
	C24.554,52.605,24.513,52.621,24.5,52.574z"/>
<path fill="#EBEBEB" d="M24.787,45.879c0.169-0.053,0.348-0.043,0.516-0.055c0.028-0.002,0.05,0.008,0.045,0.041
	c-0.013,0.082-0.001,0.172-0.057,0.248C25.124,46.026,24.958,45.942,24.787,45.879z"/>
<path fill="#050505" d="M26.288,51.633c0.125-0.016,0.251-0.033,0.379-0.047c0.038-0.004,0.075,0.007,0.111,0.01
	c0.008-0.001,0.018,0.015,0.025,0c0.031-0.012,0.064-0.018,0.098-0.044c-0.017-0.003-0.04-0.013-0.058-0.009
	c-0.05,0-0.093,0-0.138,0.006c-0.027,0-0.036-0.01-0.037-0.035c0-0.107,0.002-0.215-0.003-0.318
	c-0.002-0.076,0.011-0.144,0.049-0.205c0.018-0.021,0.014-0.05-0.003-0.074c-0.046-0.103-0.063-0.213-0.057-0.316
	c0.007-0.117,0.037-0.227,0.103-0.313c0.062-0.088,0.149-0.146,0.257-0.168c0.033-0.015,0.063-0.018,0.097-0.021
	c-0.066-0.053-0.147-0.031-0.22-0.043c-0.043-0.01-0.085-0.014-0.133-0.018c-0.021-0.004-0.032-0.021-0.028-0.043
	c0.001-0.02,0.004-0.035,0.007-0.055c0.004-0.038-0.008-0.061-0.05-0.063c-0.063-0.002-0.124,0.004-0.187-0.004
	c-0.053-0.006-0.104-0.021-0.157-0.028c0.013-0.134,0.027-0.261,0.042-0.394c0.004-0.02,0.005-0.045,0.009-0.063
	c0.007-0.036,0.034-0.054,0.071-0.052c0.091,0.016,0.184,0.021,0.281,0.031c0.042,0.008,0.09,0.002,0.126,0.021
	c0.077,0.036,0.154,0,0.228,0.011c0.117,0.021,0.236,0.033,0.354,0.05c0.05,0.012,0.095,0.014,0.145,0.021
	c0.031,0.007,0.045-0.014,0.051-0.044c0.024-0.079-0.033-0.113-0.073-0.157c-0.005-0.011-0.035-0.001-0.045,0.01
	c-0.053,0.032-0.108,0.063-0.175,0.072c-0.115,0.029-0.287-0.029-0.36-0.133c-0.111-0.153-0.111-0.319-0.079-0.495
	c0.014-0.084,0.045-0.163,0.088-0.243c0.062-0.111,0.145-0.207,0.283-0.229c0.014-0.004,0.03-0.006,0.042-0.004
	c0.087,0.021,0.178,0.045,0.268,0.063c0.007,0.003,0.013,0.018,0.015,0.023c0.001,0.014-0.002,0.021-0.002,0.037
	c0.001,0.021,0.008,0.037,0.034,0.019c0.099-0.056,0.205-0.063,0.31-0.033c0.098,0.024,0.18,0.086,0.232,0.177
	c0.085,0.151,0.086,0.313,0.041,0.478c-0.028,0.126-0.089,0.235-0.177,0.337c-0.014,0.013-0.02,0.023-0.037,0.05
	c0.025,0.013,0.043,0.017,0.063,0.017c0.043,0.01,0.05,0.021,0.044,0.062c-0.016,0.075-0.026,0.146-0.039,0.222
	c-0.014,0.098-0.028,0.192-0.112,0.264c-0.027,0.021-0.059,0.041-0.086,0.07c0.032,0.002,0.062,0.01,0.096,0.006
	c0.052,0.004,0.06,0.015,0.049,0.069c-0.009,0.039-0.007,0.081-0.012,0.118c-0.007,0.066-0.009,0.141-0.021,0.212
	c-0.031,0.138-0.134,0.224-0.287,0.213c-0.153-0.007-0.31-0.022-0.466-0.03c-0.105-0.004-0.136,0.043-0.092,0.144
	c0.04,0.084,0.116,0.114,0.203,0.123c0.125,0.002,0.256-0.001,0.378,0.002c0.066,0.002,0.133,0.006,0.196,0.008
	c0.024,0.004,0.041,0.015,0.04,0.044c0.006,0.279,0.007,0.561,0.011,0.836c0.002,0.085-0.035,0.152-0.109,0.21
	c-0.003,0.007-0.008,0.011-0.01,0.015c-0.003,0.002-0.002,0.004-0.006,0.018c0.019-0.001,0.045,0.009,0.064,0.008
	c0.067-0.006,0.069-0.006,0.078,0.063c0.01,0.117,0.022,0.232,0.028,0.354c0.003,0.081-0.065,0.171-0.141,0.202
	c-0.096,0.034-0.201,0.04-0.3,0.063c-0.1,0.021-0.2,0.021-0.302,0.041c-0.055,0.011-0.068,0.045-0.036,0.086
	c0.051,0.065,0.123,0.091,0.201,0.08c0.182-0.021,0.358-0.063,0.537-0.086c0.031-0.011,0.07-0.021,0.092-0.015
	c0.019,0.019,0.014,0.058,0.021,0.085c0.02,0.117,0.041,0.225,0.06,0.348c0.009,0.049-0.001,0.052-0.048,0.058
	c-0.125,0.022-0.253,0.053-0.382,0.069c-0.094,0.021-0.193,0.041-0.29,0.062c-0.022,0.008-0.05,0.021-0.07,0.031
	c-0.011,0.007-0.011,0.034-0.006,0.05c0.019,0.049,0.062,0.077,0.109,0.085c0.065,0.017,0.129,0.003,0.193-0.013
	c0.061-0.019,0.116-0.029,0.179-0.045c0.103-0.021,0.204-0.055,0.31-0.07c0.056-0.018,0.056-0.012,0.07,0.05
	c0.011,0.056,0.032,0.115,0.046,0.177c0.017,0.068,0.029,0.146,0.045,0.217c0.004,0.02-0.002,0.037-0.025,0.045
	c-0.124,0.031-0.253,0.063-0.376,0.099c-0.107,0.028-0.213,0.058-0.319,0.095c-0.059,0.021-0.07,0.053-0.046,0.109
	c0.016,0.048,0.016,0.047-0.03,0.051c-0.12,0.035-0.239,0.068-0.356,0.104c-0.027,0.016-0.046,0.01-0.052-0.021
	c-0.015-0.042-0.028-0.082-0.037-0.118c-0.022-0.082-0.047-0.171-0.063-0.248c-0.006-0.035,0.001-0.074,0.006-0.104
	c0.01-0.05,0.008-0.085-0.021-0.115c-0.095-0.114-0.134-0.252-0.126-0.399c0.004-0.065,0.014-0.135,0.05-0.19
	c0.015-0.019,0.008-0.039-0.011-0.052c-0.074-0.079-0.125-0.185-0.145-0.282c-0.021-0.082-0.023-0.183-0.003-0.272
	c0.023-0.084,0.057-0.154,0.119-0.216c0.054-0.053,0.115-0.09,0.19-0.11c0.008-0.002,0.019-0.006,0.021-0.012
	c0.002-0.004,0.004-0.005,0.012-0.017c-0.026-0.007-0.048-0.017-0.071-0.013c-0.084,0.009-0.165,0.017-0.248,0.022
	c-0.057,0.011-0.069,0.004-0.074-0.054c-0.006-0.081-0.005-0.081-0.091-0.078c-0.101,0.009-0.203,0.014-0.308,0.018
	C26.295,51.957,26.292,51.793,26.288,51.633z M27.146,53.817c-0.022,0.032-0.048,0.062-0.053,0.093
	c-0.007,0.047,0.002,0.094,0.01,0.142c0.012,0.059,0.033,0.114,0.045,0.179c0.008,0.055,0.015,0.057,0.061,0.053
	c0.057-0.021,0.115-0.033,0.17-0.061c0.018-0.006,0.033-0.02,0.022-0.048c-0.006-0.021-0.01-0.052-0.019-0.07
	c-0.005-0.021,0.003-0.026,0.019-0.032c0.058-0.021,0.116-0.031,0.173-0.055c0.19-0.051,0.38-0.102,0.57-0.15
	c0.026-0.01,0.036-0.021,0.029-0.049c-0.014-0.051-0.028-0.097-0.039-0.148c-0.021-0.092-0.035-0.104-0.13-0.078
	c-0.067,0.02-0.134,0.033-0.2,0.054c-0.067,0.021-0.135,0.03-0.203,0.054c-0.104,0.024-0.196-0.002-0.283-0.058
	c-0.054-0.032-0.078-0.093-0.093-0.147c-0.009-0.051,0.004-0.086,0.042-0.115c0.06-0.049,0.129-0.055,0.2-0.063
	c0.072-0.016,0.146-0.025,0.215-0.039c0.1-0.018,0.198-0.043,0.298-0.063c0.039-0.008,0.052-0.012,0.044-0.055
	c-0.011-0.07-0.024-0.138-0.034-0.203c-0.006-0.022-0.021-0.047-0.048-0.037c-0.065,0.019-0.134,0.021-0.199,0.033
	c-0.075,0.019-0.145,0.021-0.215,0.041c-0.101,0.022-0.193,0.021-0.288-0.024c-0.078-0.044-0.138-0.114-0.134-0.216
	c0.002-0.037,0.012-0.067,0.048-0.084c0.043-0.021,0.086-0.035,0.133-0.045c0.16-0.023,0.331-0.049,0.496-0.066
	c0.083-0.014,0.133-0.074,0.129-0.158c-0.005-0.083-0.02-0.152-0.024-0.24c-0.007-0.022-0.025-0.037-0.053-0.033
	c-0.032,0.011-0.068,0.015-0.104,0.021c-0.099,0.002-0.099,0.002-0.094,0.1c0.001,0.021-0.003,0.041-0.032,0.045
	c-0.125,0.014-0.251,0.021-0.373,0.033c-0.054,0.012-0.111,0.02-0.161,0.035c-0.049,0.021-0.096,0.049-0.132,0.074
	c-0.073,0.063-0.103,0.146-0.108,0.248c0,0.123,0.018,0.245,0.101,0.346c0.03,0.038,0.066,0.063,0.098,0.104
	c0.015,0.019,0.038,0.02,0.014,0.05c-0.048,0.051-0.073,0.103-0.086,0.169c-0.028,0.146,0.014,0.264,0.093,0.378
	C27.077,53.75,27.114,53.785,27.146,53.817z M27.34,51.289c0.172,0,0.318,0.002,0.461,0.004c0.031-0.002,0.052-0.021,0.051-0.051
	c0-0.074-0.001-0.146-0.004-0.22c-0.001-0.022-0.011-0.041-0.037-0.034c-0.157-0.003-0.317-0.011-0.47-0.015
	c-0.032-0.001-0.059,0.002-0.086-0.005c-0.13-0.031-0.219-0.113-0.237-0.254c-0.007-0.063-0.015-0.125,0.042-0.174
	c0.048-0.045,0.106-0.045,0.167-0.039c0.025,0,0.052,0.013,0.083,0.012c0.1,0.003,0.201,0.01,0.302,0.018
	c0.04,0.004,0.082,0.004,0.119,0.002c0.071-0.004,0.119-0.031,0.135-0.104c0.023-0.086,0.028-0.188,0.04-0.274
	c0-0.017-0.019-0.035-0.032-0.037c-0.05-0.012-0.104-0.016-0.157-0.021c-0.058-0.006-0.068,0.003-0.074,0.063
	c-0.007,0.071-0.007,0.071-0.076,0.063c-0.007-0.001-0.016-0.004-0.018-0.002c-0.057-0.008-0.12-0.012-0.182-0.016
	c-0.099-0.002-0.191-0.006-0.291-0.006c-0.05-0.01-0.1,0.021-0.148,0.043c-0.112,0.063-0.155,0.164-0.173,0.276
	c-0.018,0.151-0.01,0.301,0.091,0.433c0.012,0.018,0.015,0.022-0.002,0.036c-0.075,0.048-0.086,0.123-0.091,0.198
	c-0.005,0.061,0,0.12,0.002,0.188c0,0.041,0.009,0.049,0.051,0.049c0.057,0.004,0.117,0,0.169-0.008
	c0.039-0.004,0.049-0.01,0.045-0.049c-0.002-0.019-0.001-0.029-0.003-0.052c-0.011-0.042,0.014-0.047,0.047-0.044
	C27.166,51.295,27.265,51.291,27.34,51.289z M28.14,48.824c0.006-0.129-0.066-0.271-0.164-0.33c-0.097-0.052-0.25-0.051-0.338,0.03
	c-0.074,0.068-0.128,0.151-0.183,0.231c-0.034,0.053-0.071,0.107-0.104,0.158c-0.02,0.021-0.049,0.033-0.068,0.02
	c-0.017-0.012-0.035-0.032-0.036-0.052c-0.009-0.06,0.002-0.119,0.034-0.175c0.019-0.031,0.042-0.041,0.077-0.028
	c0.04,0.014,0.061,0,0.07-0.043c0.01-0.034,0.016-0.065,0.023-0.101c0.008-0.035,0.016-0.068,0.026-0.104
	c0.003-0.021-0.001-0.041-0.031-0.045c-0.022,0.001-0.045-0.011-0.064-0.017c-0.097-0.028-0.176-0.01-0.241,0.07
	c-0.061,0.075-0.101,0.166-0.125,0.258c-0.022,0.088-0.035,0.184-0.023,0.274c0.022,0.132,0.077,0.231,0.213,0.272
	c0.101,0.029,0.187,0,0.264-0.063c0.083-0.063,0.129-0.152,0.193-0.239c0.041-0.058,0.083-0.114,0.129-0.169
	c0.018-0.021,0.064-0.055,0.083-0.027c0.017,0.021,0.014,0.084,0.013,0.108c-0.012,0.058-0.029,0.114-0.057,0.161
	c-0.032,0.063-0.088,0.104-0.148,0.146c-0.031,0.02-0.032,0.035-0.01,0.063c0.031,0.044,0.064,0.077,0.096,0.115
	c0.037,0.049,0.053,0.05,0.103,0.015c0.074-0.054,0.131-0.12,0.178-0.202C28.104,49.059,28.135,48.945,28.14,48.824z M27.064,49.51
	c-0.1-0.001-0.152,0.005-0.181,0.105c-0.026,0.069-0.032,0.149-0.046,0.226c-0.004,0.024-0.004,0.053-0.003,0.079
	c0.003,0.016,0.019,0.029,0.029,0.031c0.056,0.012,0.116,0.015,0.173,0.023c0.046,0.003,0.051-0.008,0.055-0.057
	c0.004-0.088,0.004-0.088,0.091-0.078c0.007-0.002,0.016-0.001,0.018-0.001c0.096,0.015,0.193,0.024,0.292,0.042
	c0.085,0.007,0.176,0.021,0.263,0.023c0.122,0.018,0.182-0.041,0.194-0.146c0.009-0.065,0.022-0.134,0.035-0.203
	c0.005-0.026-0.001-0.041-0.034-0.047c-0.053-0.013-0.109-0.021-0.166-0.029c-0.033-0.007-0.05-0.003-0.057,0.03
	c-0.002,0.018-0.007,0.033-0.007,0.05c0.002,0.028-0.013,0.044-0.041,0.041c-0.049-0.01-0.098-0.017-0.15-0.024
	c-0.084-0.013-0.169-0.024-0.252-0.037C27.197,49.525,27.116,49.517,27.064,49.51z M27.231,51.646
	c0.002,0.006,0.002,0.018,0.002,0.018c-0.106,0.002-0.21,0.006-0.315,0.013c-0.081,0.003-0.134,0.034-0.138,0.116
	c-0.005,0.104,0.006,0.216,0.01,0.322c0,0.019,0.019,0.021,0.044,0.021c0.059-0.01,0.119-0.018,0.18-0.021
	c0.021-0.006,0.033-0.021,0.028-0.041c-0.002-0.019-0.006-0.05-0.005-0.066c-0.004-0.021,0.006-0.032,0.03-0.037
	c0.214-0.018,0.423-0.03,0.631-0.04c0.12-0.015,0.157-0.063,0.161-0.177c0-0.07-0.006-0.146-0.01-0.213
	c-0.003-0.028-0.015-0.053-0.043-0.049c-0.046-0.002-0.088-0.002-0.135,0.004c-0.082,0-0.083,0.004-0.081,0.086
	c0,0.004,0,0.013,0.002,0.021c0,0.019-0.013,0.034-0.035,0.035C27.453,51.641,27.34,51.645,27.231,51.646z M26.454,49.72
	c0,0.034,0.008,0.046,0.054,0.048c0.063,0.01,0.121,0.016,0.184,0.023c0.04,0.004,0.053-0.002,0.062-0.041
	c0.01-0.074,0.018-0.146,0.03-0.219c0.003-0.027-0.008-0.05-0.037-0.053c-0.064-0.009-0.125-0.016-0.19-0.025
	c-0.045-0.008-0.063,0-0.07,0.045C26.473,49.57,26.465,49.64,26.454,49.72z M26.52,51.709L26.52,51.709
	c-0.035,0.002-0.076,0.002-0.114,0c-0.02,0.006-0.035,0.016-0.031,0.041c0.002,0.08,0.006,0.156,0.009,0.238
	c0.001,0.021,0.012,0.032,0.038,0.031c0.073-0.002,0.145-0.008,0.219-0.014c0.031-0.01,0.046-0.021,0.044-0.059
	c-0.002-0.019-0.009-0.041-0.011-0.06c-0.004-0.052-0.005-0.101-0.007-0.153c-0.004-0.021-0.015-0.043-0.047-0.039
	C26.583,51.709,26.55,51.709,26.52,51.709z M27.515,50.119c0.031,0.004,0.039-0.009,0.04-0.039c0.003-0.018,0.005-0.039,0.007-0.059
	c0.006-0.027-0.008-0.043-0.04-0.045c-0.086-0.008-0.172-0.021-0.26-0.034c-0.055-0.006-0.068,0.005-0.069,0.06
	c0,0.021-0.003,0.043,0.001,0.063c0,0.013,0.018,0.028,0.03,0.029C27.317,50.105,27.415,50.113,27.515,50.119z M27.409,52.041
	c0.001-0.002,0-0.004,0-0.004c-0.068,0.006-0.137,0.013-0.205,0.021c-0.043,0.009-0.05,0.019-0.043,0.053
	c0.003,0.019,0.006,0.048,0.008,0.06c0.003,0.021,0.016,0.035,0.04,0.031c0.094-0.021,0.195-0.021,0.293-0.035
	c0.022-0.004,0.035-0.019,0.031-0.037c-0.007-0.034,0.015-0.074-0.027-0.1c-0.008-0.006-0.016-0.004-0.027-0.006
	C27.458,52.039,27.436,52.039,27.409,52.041z M27.311,51.394L27.311,51.394c-0.027-0.002-0.053-0.005-0.084-0.002
	c-0.119,0.004-0.101-0.008-0.101,0.106c0.003,0.033,0.015,0.045,0.045,0.043c0.076-0.004,0.152-0.006,0.224-0.01
	c0.108-0.002,0.095,0.002,0.098-0.104c0-0.041-0.005-0.055-0.042-0.047C27.404,51.387,27.356,51.39,27.311,51.394z"/>
<path fill="#F4F4F4" d="M27.146,53.817c-0.032-0.032-0.071-0.067-0.104-0.106c-0.076-0.11-0.114-0.232-0.091-0.377
	c0.015-0.063,0.037-0.123,0.084-0.168c0.02-0.021,0-0.032-0.013-0.047c-0.033-0.035-0.07-0.064-0.099-0.104
	c-0.083-0.098-0.099-0.214-0.099-0.342c0.003-0.104,0.036-0.184,0.107-0.251c0.037-0.033,0.084-0.056,0.133-0.079
	c0.051-0.016,0.108-0.02,0.161-0.034c0.123-0.019,0.248-0.022,0.374-0.028c0.026-0.013,0.033-0.02,0.032-0.05
	c-0.003-0.086-0.003-0.086,0.095-0.101c0.033-0.004,0.067-0.01,0.104-0.014c0.027-0.002,0.045,0.008,0.048,0.028
	c0.009,0.083,0.021,0.156,0.026,0.245c0.004,0.083-0.048,0.146-0.128,0.15c-0.166,0.023-0.333,0.048-0.497,0.063
	c-0.046,0.015-0.09,0.022-0.133,0.052c-0.033,0.017-0.042,0.051-0.046,0.086c-0.007,0.101,0.055,0.18,0.131,0.215
	c0.098,0.053,0.188,0.05,0.292,0.023c0.068-0.02,0.14-0.023,0.212-0.041c0.065-0.015,0.133-0.021,0.198-0.031
	c0.028-0.008,0.046,0.006,0.048,0.035c0.014,0.065,0.025,0.131,0.035,0.202c0.009,0.048-0.001,0.052-0.043,0.056
	c-0.097,0.021-0.196,0.047-0.296,0.063c-0.071,0.021-0.146,0.021-0.217,0.041c-0.068,0.021-0.138,0.021-0.198,0.061
	c-0.038,0.021-0.054,0.063-0.043,0.117c0.016,0.059,0.039,0.116,0.095,0.146c0.085,0.062,0.179,0.088,0.283,0.058
	c0.066-0.021,0.138-0.03,0.202-0.051c0.068-0.021,0.136-0.029,0.202-0.054c0.094-0.023,0.109-0.021,0.131,0.078
	c0.008,0.053,0.022,0.099,0.036,0.148c0.009,0.023-0.004,0.043-0.029,0.048c-0.188,0.056-0.377,0.103-0.569,0.153
	c-0.055,0.02-0.115,0.031-0.17,0.051c-0.019,0.014-0.024,0.021-0.021,0.037c0.011,0.02,0.011,0.05,0.019,0.074
	c0.009,0.019-0.002,0.044-0.023,0.048c-0.055,0.021-0.113,0.032-0.172,0.053c-0.044,0.013-0.05-0.01-0.059-0.047
	c-0.011-0.054-0.032-0.117-0.046-0.185c-0.01-0.045-0.019-0.086-0.01-0.137C27.099,53.879,27.127,53.851,27.146,53.817z"/>
<path fill="#F4F4F4" d="M27.34,51.289c-0.076,0.002-0.175,0.006-0.282,0.008c-0.032-0.002-0.051,0.005-0.045,0.044
	c0.003,0.017,0,0.032,0,0.05c0.007,0.045-0.003,0.05-0.042,0.055c-0.056,0-0.114,0.002-0.17,0.006c-0.042,0-0.05-0.013-0.05-0.049
	c-0.001-0.063-0.005-0.119-0.002-0.188c0.004-0.074,0.015-0.151,0.092-0.196c0.017-0.015,0.015-0.026,0.002-0.04
	c-0.099-0.13-0.11-0.277-0.089-0.429c0.017-0.117,0.06-0.218,0.172-0.278c0.049-0.025,0.095-0.052,0.149-0.044
	c0.097,0,0.191,0.006,0.29,0.006c0.057,0.005,0.118,0.007,0.181,0.013c0.006,0.002,0.013,0.002,0.017,0.004
	c0.066,0.01,0.066,0.01,0.076-0.063c0.008-0.053,0.015-0.063,0.074-0.061c0.052,0.01,0.106,0.016,0.157,0.022
	c0.014,0.005,0.034,0.022,0.03,0.034c-0.009,0.096-0.015,0.188-0.038,0.273c-0.013,0.07-0.065,0.104-0.133,0.104
	c-0.042,0-0.084-0.002-0.12-0.002c-0.103-0.003-0.201-0.011-0.302-0.015c-0.029-0.006-0.054-0.012-0.083-0.01
	c-0.062-0.011-0.121-0.004-0.168,0.037c-0.053,0.045-0.046,0.11-0.038,0.172c0.016,0.144,0.104,0.219,0.232,0.254
	c0.03,0.011,0.059,0.009,0.085,0.008c0.155,0.002,0.314,0.004,0.473,0.009c0.025,0,0.033,0.015,0.036,0.039
	c0,0.067,0.002,0.144,0.002,0.219c-0.001,0.03-0.019,0.05-0.051,0.052C27.658,51.293,27.513,51.289,27.34,51.289z"/>
<path fill="#F4F4F4" d="M28.14,48.824c-0.001,0.123-0.033,0.235-0.09,0.342c-0.049,0.08-0.109,0.146-0.181,0.201
	c-0.051,0.034-0.066,0.027-0.104-0.018c-0.028-0.038-0.062-0.077-0.094-0.114c-0.023-0.024-0.02-0.046,0.011-0.063
	c0.058-0.039,0.117-0.082,0.148-0.146c0.025-0.047,0.048-0.104,0.052-0.159c0.014-0.141-0.076-0.104-0.096-0.086
	c-0.044,0.055-0.09,0.114-0.126,0.172c-0.058,0.086-0.114,0.176-0.194,0.242c-0.078,0.063-0.163,0.09-0.262,0.059
	c-0.139-0.036-0.194-0.144-0.214-0.271c-0.011-0.095,0.001-0.188,0.022-0.274c0.026-0.088,0.063-0.184,0.125-0.252
	c0.064-0.076,0.147-0.104,0.239-0.072c0.022,0.011,0.045,0.015,0.065,0.018c0.028,0.002,0.036,0.016,0.03,0.043
	c-0.007,0.033-0.016,0.067-0.023,0.1c-0.007,0.033-0.015,0.07-0.021,0.104c-0.012,0.044-0.031,0.056-0.074,0.039
	c-0.033-0.013-0.056-0.004-0.079,0.03c-0.028,0.053-0.04,0.115-0.032,0.176c0.004,0.018,0.015,0.043,0.034,0.053
	c0.021,0.017,0.05,0.006,0.067-0.02c0.036-0.057,0.072-0.105,0.11-0.158c0.055-0.088,0.11-0.167,0.184-0.23
	c0.085-0.078,0.24-0.084,0.333-0.029C28.075,48.55,28.146,48.695,28.14,48.824z"/>
<path fill="#F4F4F4" d="M27.064,49.51c0.051,0.005,0.133,0.018,0.214,0.027c0.085,0.011,0.17,0.021,0.254,0.037
	c0.05,0.01,0.101,0.017,0.151,0.021c0.028,0.008,0.042-0.015,0.042-0.042c0-0.02,0.003-0.034,0.005-0.051
	c0.011-0.031,0.023-0.038,0.059-0.029c0.05,0.016,0.108,0.021,0.167,0.025c0.028,0.01,0.036,0.021,0.031,0.053
	c-0.015,0.064-0.024,0.131-0.032,0.197c-0.014,0.105-0.073,0.162-0.194,0.146c-0.088-0.011-0.177-0.018-0.265-0.025
	c-0.098-0.014-0.193-0.021-0.291-0.043c-0.008,0-0.014-0.002-0.02-0.002c-0.086-0.004-0.086-0.004-0.09,0.082
	c0,0.049-0.011,0.058-0.06,0.053c-0.051-0.008-0.114-0.012-0.171-0.021c-0.012-0.005-0.026-0.021-0.027-0.032
	c-0.003-0.022,0-0.055,0.003-0.076c0.014-0.078,0.02-0.153,0.045-0.229C26.916,49.512,26.961,49.507,27.064,49.51z"/>
<path fill="#F4F4F4" d="M27.231,51.646c0.11-0.003,0.22-0.009,0.331-0.01c0.022-0.002,0.033-0.012,0.032-0.034
	c0-0.008,0.002-0.009,0.002-0.017c-0.007-0.084-0.004-0.086,0.079-0.088c0.044-0.004,0.087-0.004,0.133-0.004
	c0.03,0,0.042,0.016,0.042,0.051c0.003,0.072,0.013,0.146,0.008,0.219c0.001,0.111-0.042,0.159-0.157,0.169
	c-0.211,0.024-0.42,0.032-0.633,0.042c-0.024,0.003-0.034,0.016-0.031,0.035c0,0.017,0.003,0.052,0.004,0.074
	c0.003,0.017-0.005,0.033-0.026,0.035c-0.063,0.01-0.121,0.021-0.185,0.021c-0.02,0.003-0.04-0.004-0.042-0.022
	c-0.003-0.109-0.02-0.22-0.01-0.317c0.003-0.089,0.057-0.121,0.139-0.124c0.105-0.002,0.208-0.01,0.314-0.008
	C27.232,51.66,27.233,51.652,27.231,51.646z"/>
<path fill="#F4F4F4" d="M26.454,49.72c0.011-0.082,0.019-0.152,0.03-0.222c0.007-0.047,0.026-0.051,0.072-0.043
	c0.063,0.008,0.125,0.021,0.188,0.023c0.029,0.01,0.04,0.021,0.035,0.053c-0.009,0.071-0.019,0.146-0.028,0.217
	c-0.008,0.043-0.022,0.047-0.062,0.041c-0.059-0.01-0.12-0.019-0.184-0.021C26.46,49.766,26.455,49.754,26.454,49.72z"/>
<path fill="#F4F4F4" d="M26.52,51.709c0.034,0,0.067,0,0.099-0.006c0.029,0,0.042,0.014,0.045,0.043
	c0.004,0.049,0.004,0.1,0.008,0.146c0.002,0.021,0.01,0.048,0.012,0.061c0.003,0.037-0.015,0.057-0.046,0.062
	c-0.071,0.004-0.145,0.008-0.215,0.015c-0.025,0.004-0.037-0.016-0.038-0.033c-0.003-0.082-0.006-0.16-0.011-0.242
	c-0.004-0.021,0.014-0.028,0.032-0.032c0.04-0.001,0.077-0.003,0.116,0.002C26.52,51.711,26.52,51.709,26.52,51.709z"/>
<path fill="#ED2224" stroke="#010101" stroke-width="0.15" stroke-miterlimit="10" d="M37.052,46.658c-0.004,0-0.009,0-0.014,0
	c-5.13,0.282-8.796-1.787-10.968-3.574c-2.348-1.934-3.483-3.926-3.53-4.01c-0.228-0.406-0.083-0.918,0.322-1.146
	c0.405-0.229,0.918-0.084,1.146,0.32c0.017,0.031,1.065,1.852,3.183,3.578c2.812,2.293,6.094,3.355,9.754,3.153
	c0.464-0.022,0.862,0.33,0.887,0.795C37.858,46.23,37.509,46.623,37.052,46.658z"/>
<path fill="#F4F4F4" stroke="#020202" stroke-width="0.15" stroke-miterlimit="10" d="M38.497,45.545
	c0.523,0.463,0.581,0.438,0.877,0.695c0.169,0.146,0.207,0.381,0.085,0.527l0,0c-0.125,0.152-0.37,0.159-0.548,0.018l-0.621-0.512
	l-1.216,1.406c0,0-0.516-0.355-0.938-1.1C35.218,44.985,37.037,44.25,38.497,45.545z"/>
<path fill="#F4F4F4" stroke="#020202" stroke-width="0.15" stroke-miterlimit="10" d="M38.184,46.166l0.962,0.787
	c0.163,0.133,0.204,0.352,0.093,0.483l0,0c-0.111,0.138-0.333,0.14-0.495,0.004l-0.961-0.784 M37.36,47.132l0.766,0.627
	c0.163,0.133,0.384,0.131,0.495-0.005l0,0c0.111-0.137,0.069-0.354-0.094-0.486l-0.765-0.626 M37.015,47.635l0.53,0.434
	c0.163,0.135,0.385,0.133,0.495-0.004l0,0c0.111-0.136,0.069-0.354-0.093-0.486l-0.53-0.434"/>
</svg>
