<?xml version="1.0" encoding="utf-8"?>
<!-- Generator: Adobe Illustrator 16.0.0, SVG Export Plug-In . SVG Version: 6.00 Build 0)  -->
<!DOCTYPE svg PUBLIC "-//W3C//DTD SVG 1.1//EN" "http://www.w3.org/Graphics/SVG/1.1/DTD/svg11.dtd">
<svg version="1.1" id="Layer_1" xmlns="http://www.w3.org/2000/svg" xmlns:xlink="http://www.w3.org/1999/xlink" x="0px" y="0px"
	 width="83px" height="83px" viewBox="0 0 83 83" enable-background="new 0 0 83 83" xml:space="preserve">
<path fill="#B07B4B" stroke="#231F20" stroke-width="0.15" stroke-miterlimit="10" d="M0.039,0h82.922v82.961H0.039V0z M0.039,0
	h82.922v82.961H0.039V0z M0.039,0h82.922v82.961H0.039V0z M0.039,0h82.922v82.961H0.039V0z"/>
<path fill="#C6946B" stroke="#231F20" stroke-width="0.15" stroke-miterlimit="10" d="M82.885,82.954H28.32v-83h54.565V82.954
	L82.885,82.954z"/>
<path fill="#DEDFE0" stroke="#231F20" stroke-width="0.15" stroke-miterlimit="10" d="M0.039,71.618l28.204-8.416l54.718,8.293
	L83,83H0L0.039,71.618z"/>
<path fill="#F89520" stroke="#231F20" stroke-width="0.15" stroke-miterlimit="10" d="M1.665,82.962
	c-0.049-0.149-0.076-0.306-0.076-0.472v-8.041h3.016v8.041c0,0.166-0.027,0.322-0.076,0.472H1.665z"/>
<path fill="#ED2224" stroke="#231F20" stroke-width="0.15" stroke-miterlimit="10" d="M45.871,18.108l-0.605-3.267
	c-0.642-3.458-4.514-6.374-8.986-5.544c-4.734,0.878-7.256,4.898-6.601,8.435c0,0,0.242,1.303,0.599,3.228
	c-2.693,0.674-4.39,1.257-4.336,1.546c0.094,0.508,5.675,0.716,12.285-0.51s11.746-3.42,11.651-3.93
	C49.828,17.798,48.286,17.833,45.871,18.108z"/>
<path fill="#FCEE23" stroke="#231F20" stroke-width="0.15" stroke-miterlimit="10" d="M38.227,21.996
	c-2.84,0.526-5.488,0.788-7.595,0.875l7.745,41.761c0.249,1.339,1.535,2.222,2.873,1.974l10.74-1.989
	c1.338-0.248,2.221-1.534,1.974-2.872l-7.763-41.849C44.134,20.624,41.345,21.417,38.227,21.996z"/>
<path fill="#ED2224" d="M43.822,27.227c0.238,1.663-1.357,3.327-3.625,3.749c-2.269,0.42-4.356-0.561-4.73-2.199
	c1.377,0.049,2.809-0.052,4.262-0.321S42.557,27.766,43.822,27.227z"/>
<path fill="#F4F4F4" d="M37.031,28.75l0.115,0.622c0.044,0.236,0.271,0.392,0.507,0.348l4.537-0.841
	c0.235-0.044,0.395-0.271,0.351-0.507l-0.116-0.59C39.969,28.672,37.031,28.75,37.031,28.75z"/>
<path fill="#FDEF2F" stroke="#020202" stroke-width="0.15" stroke-miterlimit="10" d="M32.283,15.616
	c-0.509-2.746,1.355-5.383,4.141-5.798c2.655-0.395,5.123,1.472,5.612,4.11l0.755,4.07c0.098,0.521-0.248,1.021-0.768,1.117
	l-7.85,1.455c-0.521,0.097-1.021-0.247-1.117-0.768L32.283,15.616z"/>
<path fill="#F04D4B" d="M36.512,10.548l0.451,0.604l0.753-0.029l-0.434,0.615l0.26,0.707l-0.719-0.223l-0.593,0.467l-0.01-0.754
	l-0.626-0.419l0.713-0.242L36.512,10.548z M33.205,15.668c-0.123-0.077-0.221-0.18-0.309-0.294c-0.067-0.119-0.128-0.24-0.155-0.376
	c-0.076-0.396,0.077-0.751,0.42-0.964c0.084-0.052,0.173-0.095,0.27-0.123c0.041-0.011,0.067-0.003,0.089,0.03
	c0.086,0.074,0.135,0.176,0.198,0.267c0.013,0.019,0.02,0.04-0.003,0.059c-0.053,0.032-0.116,0.042-0.172,0.067
	c-0.178,0.082-0.313,0.203-0.337,0.408c-0.017,0.135,0.021,0.262,0.107,0.371c0.048,0.066,0.118,0.108,0.182,0.157
	c0.161,0.072,0.317,0.049,0.471-0.022c0.073-0.034,0.133-0.084,0.198-0.13c0.013,0.037,0.027,0.075,0.041,0.112
	c0.058,0.08,0.07,0.178,0.099,0.27c0.009,0.032-0.016,0.059-0.042,0.077c-0.28,0.193-0.58,0.278-0.916,0.165
	C33.294,15.723,33.252,15.689,33.205,15.668 M37.312,14.497c-0.296-0.164-0.453-0.418-0.491-0.752
	c-0.001-0.013-0.005-0.025-0.008-0.038c0-0.135,0.008-0.269,0.056-0.397c0.115-0.305,0.341-0.484,0.65-0.567
	c0.063-0.017,0.131-0.023,0.195-0.034c0.068-0.012,0.121,0.002,0.139,0.079c0.052,0.058,0.063,0.134,0.087,0.204
	c0.047,0.136,0.045,0.135-0.096,0.145c-0.106,0.008-0.208,0.032-0.303,0.084c-0.244,0.132-0.293,0.388-0.198,0.623
	c0.022,0.057,0.054,0.111,0.092,0.16c0.117,0.119,0.262,0.156,0.422,0.144c0.101-0.008,0.199-0.036,0.291-0.083
	c0.033,0.025,0.005,0.064,0.021,0.093c0.036,0.104,0.029,0.212,0.025,0.32c-0.001,0.028-0.029,0.043-0.055,0.052
	c-0.234,0.081-0.471,0.114-0.713,0.032C37.384,14.547,37.347,14.523,37.312,14.497 M41.149,14.204
	c-0.12-0.396-0.239-0.792-0.362-1.187c-0.026-0.083-0.036-0.173-0.091-0.246c-0.015-0.058-0.052-0.073-0.111-0.073
	c-0.145,0-0.291-0.005-0.435-0.012c-0.045-0.002-0.067,0.012-0.081,0.055c-0.038,0.112-0.08,0.224-0.121,0.335
	c-0.09,0.246-0.18,0.491-0.271,0.736c-0.041,0.026-0.037,0.077-0.06,0.113c-0.004-0.002-0.006-0.005-0.006-0.011
	c-0.026-0.346-0.053-0.692-0.078-1.038c-0.003-0.046,0.005-0.097-0.027-0.139c-0.014-0.028,0.008-0.082-0.059-0.07
	c-0.112,0.021-0.226,0.036-0.339,0.051c-0.044,0.006-0.058,0.022-0.053,0.068c0.015,0.153,0.023,0.307,0.035,0.46
	c0.002,0.026,0.004,0.051-0.031,0.053c-0.09,0.006-0.18,0.01-0.27,0.015c-0.053-0.012-0.077-0.045-0.075-0.099
	c0.001-0.053-0.004-0.106-0.011-0.158c-0.011-0.083,0.003-0.168-0.034-0.247l-0.012-0.078c-0.139,0.001-0.273,0.042-0.411,0.053
	c-0.034,0.003-0.033,0.028-0.031,0.054c0.016,0.21,0.033,0.42,0.048,0.631c0.013,0.185,0.024,0.369,0.037,0.553
	c0.014,0.047-0.017,0.099,0.012,0.146c0.007,0.079,0.015,0.158,0.022,0.236l0.086-0.004c0.031,0.018,0.064,0.011,0.097,0.006
	c0.055-0.009,0.108-0.02,0.162-0.03c0.111-0.021,0.122-0.039,0.112-0.151c-0.012-0.134-0.024-0.268-0.031-0.401
	c-0.004-0.076,0.004-0.084,0.078-0.09c0.059-0.004,0.119-0.008,0.177-0.015c0.057-0.007,0.094,0.011,0.112,0.066
	c0.013,0.16,0.027,0.319,0.038,0.479c0.004,0.056,0.019,0.088,0.082,0.072c0.068,0.009,0.137,0.005,0.203-0.011
	c0.144-0.037,0.288-0.037,0.433-0.015c0.018,0.002,0.035,0.004,0.053,0.006c0.041,0.005,0.067-0.012,0.083-0.05
	c0.022-0.051,0.038-0.104,0.051-0.157c0.013-0.052,0.044-0.072,0.096-0.069c0.104,0.007,0.208,0.006,0.311,0.007
	c0.055,0.001,0.1,0.011,0.13,0.058c0.024,0.046,0.032,0.097,0.04,0.146s0.028,0.077,0.08,0.073c0.022,0.015,0.046,0.013,0.07,0.012
	c0.088-0.001,0.176-0.004,0.265-0.009C41.169,14.324,41.181,14.306,41.149,14.204 M40.19,13.583l0.171-0.428l0.171,0.428H40.19z
	 M37.074,14.47c-0.173-0.268-0.347-0.535-0.52-0.803c-0.109-0.17-0.226-0.335-0.326-0.511c-0.021-0.026-0.045-0.034-0.08-0.024
	c-0.149,0.04-0.299,0.077-0.448,0.113c-0.043,0.011-0.066,0.031-0.068,0.08c-0.005,0.134-0.015,0.269-0.025,0.402
	c-0.021,0.279-0.041,0.557-0.061,0.835c-0.026,0.034-0.017,0.077-0.025,0.118c-0.123-0.345-0.241-0.688-0.363-1.028
	c-0.025-0.068-0.041-0.141-0.085-0.2c-0.014-0.05-0.04-0.063-0.09-0.038c-0.099,0.047-0.2,0.091-0.302,0.134
	c-0.037,0.015-0.045,0.03-0.031,0.069c0.053,0.143,0.1,0.287,0.153,0.43c0.015,0.042,0.009,0.065-0.035,0.079
	c-0.082,0.026-0.163,0.054-0.245,0.082c-0.049-0.001-0.07-0.032-0.087-0.075c-0.051-0.133-0.078-0.275-0.155-0.398
	c-0.015-0.063-0.048-0.063-0.101-0.038c-0.089,0.043-0.181,0.082-0.273,0.119c-0.047,0.019-0.067,0.038-0.045,0.095
	c0.076,0.207,0.147,0.416,0.219,0.625c0.064,0.189,0.138,0.376,0.194,0.569c0.028,0.074,0.057,0.147,0.082,0.222
	c0.011,0.033,0.026,0.048,0.061,0.04c0.022,0.002,0.043-0.005,0.064-0.013c0.084-0.034,0.166-0.072,0.249-0.108
	c0.073-0.033,0.08-0.051,0.052-0.129c-0.051-0.144-0.1-0.288-0.152-0.43c-0.017-0.046-0.005-0.07,0.04-0.086
	c0.056-0.02,0.112-0.039,0.168-0.058c0.088-0.03,0.088-0.03,0.146,0.042c0.066,0.151,0.111,0.309,0.166,0.463
	c0.013,0.036,0.024,0.055,0.063,0.039c0.018,0.003,0.035,0.002,0.052-0.006c0.212-0.104,0.435-0.175,0.671-0.206
	c0.049-0.006,0.07-0.04,0.073-0.087c0.004-0.048,0.006-0.097,0.005-0.145c0-0.056,0.022-0.084,0.079-0.093
	c0.086-0.015,0.171-0.04,0.255-0.066c0.074-0.023,0.139-0.037,0.195,0.03c0.026,0.042,0.055,0.084,0.078,0.129
	c0.015,0.027,0.032,0.04,0.063,0.032c0.02,0,0.039,0.002,0.059-0.003c0.107-0.032,0.213-0.068,0.318-0.104
	c0.019-0.007,0.036-0.018,0.044-0.037C37.094,14.508,37.085,14.488,37.074,14.47 M35.994,14.098v-0.514l0.343,0.428L35.994,14.098z"
	/>
<path fill="#020202" d="M36.02,17.215c-0.035,0.012-0.066,0.011-0.095-0.003c-0.029-0.015-0.049-0.038-0.06-0.07l-0.361-1.073
	c-0.011-0.032-0.009-0.063,0.005-0.091c0.014-0.028,0.038-0.049,0.07-0.06l0.603-0.203c0.033-0.011,0.063-0.01,0.092,0.003
	c0.029,0.013,0.048,0.036,0.059,0.068c0.009,0.027,0.006,0.055-0.008,0.083c-0.014,0.028-0.038,0.047-0.07,0.059l-0.501,0.168
	l0.009-0.028l0.125,0.374l-0.021-0.02l0.414-0.14c0.033-0.011,0.063-0.01,0.091,0.003c0.028,0.014,0.048,0.036,0.059,0.068
	c0.01,0.027,0.007,0.055-0.007,0.083c-0.015,0.028-0.039,0.048-0.071,0.059l-0.417,0.141l0.011-0.023l0.152,0.45
	c0.01,0.032,0.008,0.063-0.008,0.092C36.074,17.186,36.05,17.205,36.02,17.215"/>
<path fill="#020202" d="M37.139,16.748c0.009,0.033,0.003,0.063-0.014,0.091c-0.018,0.029-0.043,0.047-0.075,0.056
	c-0.035,0.01-0.067,0.006-0.094-0.01c-0.028-0.016-0.045-0.041-0.055-0.074l-0.294-1.093c-0.009-0.033-0.005-0.063,0.012-0.092
	c0.017-0.028,0.042-0.047,0.078-0.057c0.03-0.008,0.06-0.004,0.09,0.012c0.029,0.016,0.048,0.04,0.057,0.073L37.139,16.748z"/>
<path fill="#020202" d="M37.563,16.762c-0.036,0.007-0.07,0.001-0.102-0.016c-0.033-0.018-0.051-0.042-0.058-0.077l-0.205-1.113
	c-0.006-0.034,0-0.063,0.019-0.09c0.018-0.026,0.043-0.043,0.077-0.049l0.555-0.102c0.066-0.012,0.133-0.006,0.198,0.019
	c0.065,0.024,0.121,0.064,0.168,0.12c0.047,0.056,0.079,0.124,0.094,0.205c0.009,0.049,0.008,0.098-0.004,0.147
	c-0.011,0.05-0.031,0.097-0.058,0.141c-0.027,0.043-0.061,0.08-0.099,0.107l-0.006-0.045c0.039,0.013,0.074,0.03,0.103,0.052
	c0.028,0.022,0.052,0.047,0.071,0.075c0.019,0.028,0.033,0.059,0.042,0.093c0.011,0.031,0.019,0.059,0.026,0.083
	c0.006,0.023,0.014,0.044,0.023,0.06c0.009,0.016,0.022,0.026,0.041,0.032c0.032,0.012,0.054,0.033,0.066,0.063
	c0.013,0.03,0.011,0.06-0.006,0.088c-0.011,0.02-0.027,0.033-0.048,0.042c-0.021,0.009-0.042,0.013-0.065,0.012
	c-0.022,0-0.042-0.003-0.058-0.008c-0.024-0.008-0.049-0.023-0.076-0.045c-0.027-0.021-0.05-0.051-0.072-0.091
	c-0.021-0.04-0.038-0.093-0.05-0.16c-0.004-0.022-0.012-0.042-0.023-0.059c-0.011-0.018-0.024-0.031-0.042-0.042
	c-0.018-0.011-0.036-0.018-0.06-0.021c-0.023-0.003-0.049-0.002-0.079,0.003l-0.389,0.072l0.021-0.05l0.077,0.418
	c0.007,0.033,0.002,0.063-0.011,0.088C37.618,16.74,37.596,16.756,37.563,16.762 M37.512,16.058l0.448-0.082
	c0.024-0.005,0.043-0.02,0.062-0.044c0.019-0.025,0.031-0.057,0.039-0.097c0.007-0.04,0.007-0.081-0.001-0.124
	c-0.01-0.057-0.034-0.101-0.071-0.134c-0.037-0.032-0.073-0.045-0.107-0.038l-0.445,0.081l0.012-0.065l0.1,0.545L37.512,16.058z"/>
<path fill="#020202" d="M38.757,15.196l0.656-0.034c0.034-0.002,0.063,0.007,0.087,0.028c0.024,0.02,0.036,0.047,0.038,0.082
	c0.002,0.032-0.008,0.06-0.03,0.081s-0.05,0.033-0.084,0.035l-0.548,0.028l0.016-0.034l0.02,0.381l-0.016-0.015l0.458-0.023
	c0.034-0.002,0.063,0.007,0.086,0.028c0.024,0.021,0.037,0.047,0.039,0.082c0.002,0.033-0.008,0.059-0.03,0.081
	c-0.022,0.021-0.05,0.033-0.083,0.034l-0.452,0.024l0.009-0.017l0.02,0.396l-0.016-0.017l0.545-0.028
	c0.034-0.002,0.063,0.008,0.087,0.03s0.037,0.047,0.038,0.078c0.001,0.032-0.008,0.06-0.03,0.082s-0.05,0.034-0.084,0.036
	l-0.655,0.033c-0.034,0.002-0.063-0.008-0.086-0.029c-0.024-0.021-0.037-0.049-0.039-0.084l-0.059-1.13
	c-0.002-0.034,0.008-0.063,0.03-0.087C38.695,15.211,38.723,15.198,38.757,15.196"/>
<path fill="#020202" d="M36.249,18.105c0.037,0.004,0.066,0.021,0.084,0.054c0.019,0.032,0.022,0.066,0.009,0.103
	c-0.007,0.028-0.023,0.048-0.047,0.06c-0.024,0.012-0.051,0.017-0.082,0.014c-0.034-0.002-0.069,0-0.104,0.004
	c-0.035,0.004-0.07,0.014-0.106,0.028c-0.066,0.025-0.121,0.058-0.165,0.099s-0.077,0.087-0.099,0.14
	c-0.021,0.052-0.032,0.108-0.031,0.168s0.014,0.121,0.038,0.185c0.029,0.074,0.064,0.135,0.106,0.181
	c0.042,0.047,0.09,0.081,0.142,0.104c0.051,0.022,0.106,0.032,0.165,0.03c0.058-0.002,0.117-0.014,0.176-0.037
	c0.033-0.012,0.065-0.028,0.096-0.046c0.031-0.019,0.058-0.042,0.083-0.069c0.021-0.022,0.044-0.036,0.071-0.042
	c0.026-0.006,0.052-0.001,0.078,0.014c0.036,0.021,0.057,0.049,0.062,0.084c0.006,0.035-0.004,0.065-0.028,0.092
	c-0.026,0.028-0.053,0.053-0.083,0.077c-0.03,0.024-0.061,0.044-0.093,0.063c-0.032,0.018-0.065,0.035-0.101,0.048
	c-0.088,0.033-0.177,0.051-0.267,0.053c-0.089,0.002-0.175-0.012-0.257-0.043c-0.083-0.032-0.158-0.082-0.224-0.151
	c-0.067-0.068-0.121-0.157-0.163-0.266c-0.036-0.093-0.052-0.186-0.05-0.278c0.002-0.092,0.021-0.178,0.058-0.259
	c0.037-0.08,0.09-0.152,0.158-0.216c0.068-0.063,0.15-0.112,0.245-0.148c0.054-0.021,0.108-0.035,0.165-0.042
	C36.14,18.1,36.195,18.099,36.249,18.105"/>
<path fill="#020202" d="M36.692,17.891c0.03-0.008,0.06-0.004,0.09,0.011c0.029,0.016,0.048,0.04,0.058,0.072l0.301,1.092
	c0.009,0.032,0.004,0.063-0.014,0.092c-0.017,0.028-0.042,0.047-0.074,0.056c-0.035,0.01-0.066,0.007-0.094-0.009
	c-0.027-0.016-0.045-0.041-0.054-0.073l-0.302-1.092c-0.009-0.032-0.005-0.063,0.011-0.091
	C36.63,17.921,36.657,17.901,36.692,17.891 M36.839,18.442l0.842-0.232l0.06,0.217l-0.842,0.232L36.839,18.442z M37.529,17.661
	c0.035-0.01,0.066-0.007,0.094,0.009c0.027,0.016,0.045,0.041,0.054,0.073l0.302,1.091c0.009,0.033,0.005,0.063-0.011,0.091
	c-0.016,0.028-0.042,0.047-0.079,0.057c-0.03,0.008-0.06,0.005-0.089-0.011c-0.029-0.015-0.048-0.04-0.058-0.072l-0.301-1.092
	c-0.009-0.032-0.004-0.063,0.014-0.092C37.473,17.688,37.498,17.669,37.529,17.661"/>
<path fill="#020202" d="M38.5,18.743c0.006,0.033,0,0.063-0.021,0.09s-0.047,0.043-0.079,0.049
	c-0.036,0.007-0.067,0.001-0.093-0.017c-0.026-0.018-0.042-0.044-0.048-0.078l-0.209-1.112c-0.007-0.034,0-0.063,0.019-0.09
	c0.019-0.026,0.046-0.044,0.083-0.05c0.03-0.006,0.06,0,0.088,0.018c0.028,0.018,0.045,0.043,0.051,0.077L38.5,18.743z"/>
<path fill="#020202" d="M38.758,17.432l0.653-0.067c0.034-0.003,0.063,0.004,0.088,0.023s0.039,0.045,0.042,0.08
	c0.003,0.032-0.005,0.06-0.026,0.083c-0.021,0.022-0.047,0.035-0.082,0.039l-0.545,0.056l0.015-0.035l0.039,0.38l-0.017-0.014
	l0.456-0.047c0.034-0.004,0.063,0.004,0.088,0.023c0.025,0.019,0.039,0.045,0.043,0.08c0.003,0.032-0.006,0.06-0.026,0.082
	c-0.02,0.022-0.047,0.036-0.081,0.039l-0.45,0.047l0.008-0.017l0.041,0.394l-0.018-0.016l0.544-0.056
	c0.034-0.004,0.063,0.005,0.088,0.025c0.024,0.02,0.039,0.046,0.042,0.075c0.003,0.033-0.005,0.061-0.026,0.083
	c-0.021,0.023-0.048,0.037-0.082,0.04l-0.653,0.068c-0.034,0.003-0.063-0.005-0.088-0.025c-0.026-0.021-0.039-0.047-0.043-0.081
	l-0.116-1.126c-0.004-0.034,0.004-0.063,0.025-0.088C38.697,17.45,38.724,17.436,38.758,17.432"/>
<path fill="#020202" d="M39.97,18.717c-0.036-0.001-0.065-0.014-0.087-0.038c-0.023-0.023-0.033-0.052-0.032-0.086l0.037-1.131
	c0.001-0.034,0.014-0.062,0.037-0.084c0.023-0.022,0.053-0.033,0.086-0.031l0.636,0.02c0.034,0.001,0.062,0.013,0.084,0.035
	s0.033,0.05,0.032,0.084c-0.001,0.029-0.013,0.054-0.037,0.075c-0.023,0.021-0.052,0.032-0.086,0.03l-0.529-0.017l0.018-0.023
	l-0.012,0.394l-0.013-0.026l0.436,0.014c0.034,0.001,0.063,0.013,0.084,0.035c0.022,0.023,0.033,0.05,0.032,0.084
	c-0.001,0.029-0.013,0.054-0.037,0.075c-0.023,0.021-0.052,0.032-0.086,0.031l-0.44-0.014l0.018-0.018L40.096,18.6
	c-0.001,0.034-0.014,0.062-0.039,0.084C40.032,18.708,40.003,18.718,39.97,18.717"/>
<path fill="#A09F9F" stroke="#231F20" stroke-width="0.15" stroke-miterlimit="10" d="M47.766,0.033h6.422v82.96h-6.422V0.033z"/>
<path fill="#ED2224" stroke="#231F20" stroke-width="0.15" stroke-miterlimit="10" d="M37.292,39.185
	c-0.772,0-1.499-0.126-2.178-0.378c-3.672-1.365-4.393-5.818-4.422-6.007c-0.089-0.584,0.312-1.13,0.896-1.22
	c0.583-0.089,1.129,0.311,1.22,0.894c0.006,0.04,0.573,3.414,3.063,4.33c2.413,0.889,6.078-0.685,10.6-4.55
	c0.449-0.384,1.125-0.332,1.51,0.118c0.383,0.449,0.332,1.125-0.119,1.509C43.732,37.409,40.19,39.185,37.292,39.185z"/>
<path fill="#F4F4F4" stroke="#020202" stroke-width="0.15" stroke-miterlimit="10" d="M52.346,32.681h-0.471
	c0.355,0,0.643,0.239,0.643,0.535c0,0.295-0.287,0.535-0.643,0.535h-0.18c0.229,0.081,0.394,0.271,0.394,0.493
	c0,0.295-0.287,0.535-0.642,0.535H50.42v0.001c0,0-1.059,0.085-2.398-0.428c-2.912-1.114-0.429-4.625-0.429-4.625
	s-0.133,0.864,2.398,0.737c1.179-0.06,1.228-0.047,1.891-0.029c0.378,0.011,0.679,0.278,0.679,0.604c0,0.275-0.218,0.498-0.51,0.571
	h0.295c0.354,0,0.646,0.239,0.646,0.536C52.99,32.441,52.701,32.681,52.346,32.681z"/>
<path fill="#F89520" stroke="#231F20" stroke-width="0.15" stroke-miterlimit="10" d="M14.908,80.668L14.908,80.668
	c-0.832,0-1.508-0.675-1.508-1.506v-8.044h3.016v8.044C16.416,79.993,15.741,80.668,14.908,80.668z"/>
<path fill="#ED2224" stroke="#231F20" stroke-width="0.15" stroke-miterlimit="10" d="M20.021,38.285
	c-1.569,1.226-4.904,3.02-9.39,0.982c-0.945-0.429-1.557-1.367-1.557-2.405V16.664c0,0,0-7.564,6.104-7.564
	c6.105,0,6.105,7.298,6.105,7.298L21.032,36.24C21.023,37.041,20.652,37.792,20.021,38.285z"/>
<path fill="none" stroke="#020202" stroke-width="0.25" stroke-miterlimit="10" d="M21.185,15.37c0,0-3.981,2.92-12.342,0.531"/>
<path fill="#FFFFFF" stroke="#020202" stroke-width="0.15" stroke-miterlimit="10" d="M15.044,17.408
	c-1.751,0-3.866-0.254-6.356-0.965c-0.299-0.085-0.472-0.397-0.387-0.697c0.085-0.299,0.397-0.472,0.697-0.387
	c8.003,2.287,11.816-0.416,11.854-0.443c0.251-0.184,0.604-0.129,0.788,0.121c0.185,0.251,0.13,0.604-0.121,0.789
	C21.397,15.914,19.291,17.408,15.044,17.408z"/>
<path fill="#010101" d="M12.128,33.75c-0.059,0-0.119-0.01-0.178-0.033c-0.067-0.026-1.655-0.643-3.031-2.08
	c-1.29-1.345-2.623-3.676-1.649-7.146c1.032-3.679,1.31-4.667,0.913-8.506c-0.213-2.058,0.003-3.523,0.701-4.751
	c0.652-1.147,1.744-2.131,3.649-3.29c0.937-0.569,1.645-0.968,2.101-1.184c0.338-0.159,0.849-0.401,1.155-0.025
	c0.152,0.187,0.203,0.506-0.111,0.845c-0.165,0.178-0.429,0.208-0.628,0.083c-0.316,0.151-0.909,0.468-2,1.131
	c-3.405,2.07-4.239,3.593-3.877,7.088c0.401,3.88,0.157,4.954-0.945,8.878c-0.68,2.421-0.206,4.504,1.409,6.188
	c1.223,1.276,2.655,1.833,2.669,1.838c0.257,0.097,0.385,0.386,0.287,0.642C12.517,33.628,12.328,33.75,12.128,33.75z"/>
<path fill="#FFFFFF" d="M21.491,4.288l-4.492,3.155l2.575-0.066l0.967,0.245l-5.655,1.221l0.202-2.021l5.293-2.738L21.491,4.288z"/>
<path fill="none" stroke="#010101" stroke-width="0.15" stroke-miterlimit="10" d="M20.381,4.084l-5.293,2.738l-0.202,2.02
	l5.655-1.22l-0.967-0.246l-2.575,0.067l4.492-3.155L20.381,4.084z"/>
<path fill="#FCEE23" stroke="#231F20" stroke-width="0.15" stroke-miterlimit="10" d="M21.609,4.377l-5.293,2.738l-0.203,2.02
	l4.52,0.19l0.169-1.656l-2.576,0.067l2.714-1.188L21.609,4.377z"/>
<path fill="#FFFFFF" d="M16.905,8.37c0,1.283-0.921,2.323-2.057,2.323c-1.136,0-2.057-1.04-2.057-2.323
	c0-1.282,0.921-2.323,2.057-2.323C15.984,6.047,16.905,7.087,16.905,8.37"/>
<path fill="#FFFFFF" stroke="#020202" stroke-width="0.15" stroke-miterlimit="10" d="M16.905,8.37c0,1.283-0.921,2.323-2.057,2.323
	c-1.136,0-2.057-1.04-2.057-2.323c0-1.282,0.921-2.323,2.057-2.323C15.984,6.047,16.905,7.087,16.905,8.37z"/>
<path fill="#FFFFFF" stroke="#020202" stroke-width="0.15" stroke-miterlimit="10" d="M15.512,6.047c1.136,0,2.057,1.04,2.057,2.323
	c0,1.283-0.921,2.323-2.057,2.323c-1.136,0-2.057-1.04-2.057-2.323C13.455,7.087,14.376,6.047,15.512,6.047z"/>
<path fill="#FCEE23" stroke="#231F20" stroke-width="0.15" stroke-miterlimit="10" d="M12.327,32.788c0,0-0.53,0.332-0.398,0.929
	c0.664,1.062,3.583,3.715,3.583,3.715l1.726-4.114L12.327,32.788z"/>
<path fill="#FFFFFF" d="M15.379,35.037c0.394-1.198,1.164-2.021,1.721-1.838c0.557,0.183,0.689,1.303,0.296,2.5
	c-0.394,1.199-1.165,2.021-1.721,1.838C15.118,37.355,14.985,36.235,15.379,35.037"/>
<path fill="#EFDB21" stroke="#231F20" stroke-width="0.15" stroke-miterlimit="10" d="M15.675,37.537
	c-0.557-0.183-0.69-1.303-0.296-2.501c0.394-1.199,1.165-2.021,1.722-1.838c0.557,0.183,0.689,1.303,0.296,2.501
	C17.003,36.897,16.232,37.72,15.675,37.537z"/>
<path fill="#FFFFFF" stroke="#020202" stroke-width="0.15" stroke-miterlimit="10" d="M21.185,18.82c0,0-2.555,1.692-7.332,1.426
	v9.555c0,0,4.777,1.194,7.232-1.46C21.085,25.223,21.185,18.82,21.185,18.82z"/>
<path fill="#020202" d="M70.357,31.31l-1.691-0.065v-1.921l1.691,0.064V31.31z M77.428,25.431c0,0.509-0.412,0.907-0.922,0.887
	c-0.509-0.019-0.923-0.448-0.923-0.957c0-0.51,0.414-0.907,0.923-0.887C77.016,24.494,77.428,24.921,77.428,25.431z"/>
<path fill="#231F20" d="M69.512,33.223c-0.402-0.015-0.729-0.354-0.729-0.757c0-0.404,0.326-0.717,0.729-0.703
	c3.87,0.147,7.021-2.881,7.021-6.751c0-0.403,0.324-0.717,0.729-0.702c0.401,0.016,0.729,0.355,0.729,0.758
	C77.99,29.743,74.188,33.401,69.512,33.223z"/>
<path fill="#A09F9F" stroke="#231F20" stroke-width="0.15" stroke-miterlimit="10" d="M72.971,33.715l-6.992-0.267
	c-0.508-0.019-0.924-0.45-0.924-0.958v-1.153c0-0.507,0.416-0.906,0.924-0.887l6.992,0.266c0.508,0.02,0.922,0.45,0.922,0.957v1.153
	C73.893,33.334,73.479,33.733,72.971,33.715z"/>
<path fill="#ED2224" stroke="#231F20" stroke-width="0.15" stroke-miterlimit="10" d="M81.539,74.305
	c0,1.756-4.448,3.146-9.936,2.82c-5.486-0.325-9.938-2.243-9.938-4c0-1.756,4.448-2.916,9.938-2.591
	C77.091,70.859,81.539,72.548,81.539,74.305z"/>
<path fill="#ED2224" stroke="#231F20" stroke-width="0.15" stroke-miterlimit="10" d="M78.234,72.727l-0.039-0.14
	c-0.012-0.088-0.035-0.176-0.07-0.261L73.12,53.77c-0.49-1.815-2.604-1.938-3.086-0.174l-4.888,17.842
	c-0.092,0.16-0.142,0.328-0.142,0.504c0,1.384,2.954,2.679,6.601,2.896c3.645,0.216,6.599-0.729,6.601-2.106h0.028V72.727z"/>
<path fill="#FFFFFF" stroke="#020202" stroke-width="0.15" stroke-miterlimit="10" d="M71.366,66.602
	c1.457,0.086,3.155-0.068,5.024-0.707l-1.369-5.068c-0.004,0.002-0.012,0.004-0.019,0.005c-3.772,1.286-6.415-0.082-6.858-0.339
	l-1.351,4.923C67.645,65.835,69.246,66.475,71.366,66.602z"/>
<path fill="#F89520" stroke="#231F20" stroke-width="0.15" stroke-miterlimit="10" d="M0.039,50.232l3.209-0.854
	c1.545-0.411,3.173-0.39,4.707,0.062l9.75,2.86L0.039,57.184V50.232z"/>
<path fill="#F89520" stroke="#231F20" stroke-width="0.15" stroke-miterlimit="10" d="M19.714,54.68v15.838
	c0,1.121-0.736,2.107-1.809,2.426L0.87,77.982c-0.279,0.082-0.559,0.113-0.831,0.103V57.118l16.437-4.863
	C18.092,51.775,19.714,52.99,19.714,54.68z"/>
<path fill="#FCEE23" stroke="#231F20" stroke-width="0.15" stroke-miterlimit="10" d="M16.416,64.607v-3.078
	c0-0.467,0.38-0.938,0.848-1.045c0.469-0.108,0.849,0.184,0.849,0.648v3.08c0,0.471-0.38,0.938-0.849,1.044l0,0
	C16.796,65.369,16.416,65.078,16.416,64.607z"/>
<path fill="#ED2224" stroke="#231F20" stroke-width="0.15" stroke-miterlimit="10" d="M55.917,27.308
	c-0.565,0.724-1.176,1.313-1.72,1.771v-3.053c0.023-0.031,0.051-0.058,0.074-0.09c1.539-1.999,1.891-4.235,1.045-6.646
	c-1.131-3.233-4.271-7.465-4.299-7.507c-0.354-0.475-0.26-1.146,0.217-1.498c0.476-0.354,1.146-0.255,1.498,0.219
	c0.139,0.184,3.367,4.539,4.604,8.079C58.432,21.704,57.938,24.721,55.917,27.308z"/>
<path fill="#F4F4F4" d="M49.846,7.942c-1.131-0.355-1.162-0.435-1.798-0.627c-0.362-0.109-0.708,0.056-0.778,0.374
	c-0.051,0.228,0.06,0.47,0.25,0.639c-0.309-0.064-0.588,0.067-0.646,0.332c-0.063,0.288,0.156,0.613,0.497,0.726l1.543,0.512
	L48.9,9.953l-1.336-0.442c-0.338-0.112-0.664,0.03-0.729,0.319c-0.063,0.288,0.157,0.613,0.497,0.726l0.167,0.056
	c-0.235,0.007-0.431,0.141-0.479,0.356c-0.063,0.288,0.156,0.613,0.494,0.726L48.5,12.02c0.023,0.01,1.001,0.415,2.376,0.34
	C53.898,12.195,53.246,9.01,49.846,7.942z"/>
<path fill="#010101" d="M49.889,74.73c-1.617,0.511-2.408,0.563-2.664,0.326c-0.051-0.033-0.095-0.078-0.129-0.141
	c0,0-3.588-4.133-5.415-8.396l1.877-0.363c1.832,3.998,4.652,6.979,4.652,6.979c4.252-4.486,5.82-2.979,6.096-2.115
	C54.619,72.016,52.863,73.792,49.889,74.73z"/>
<path fill="#010101" d="M57.159,73.631c0.014,0.067,0.01,0.13-0.005,0.188c-0.041,0.351-0.676,0.824-2.235,1.49
	c-2.868,1.226-5.358,1.021-5.767,0.064c-0.356-0.835-0.146-2.998,6.002-2.366c0,0,0.195-4.036-0.987-8.229v-4.435
	c0.135,0.13,0.256,0.289,0.362,0.466C57.209,65.195,57.159,73.631,57.159,73.631z"/>
<path fill="#F4F4F4" d="M40.753,57.386c-0.11-0.005-0.223-0.02-0.336-0.021c-0.059-0.004-0.089-0.02-0.104-0.078
	c-0.134-0.521-0.272-1.041-0.408-1.563c-0.067-0.266-0.061-0.267,0.169-0.414c0.156-0.104,0.317-0.209,0.475-0.314
	c0.005-0.006,0.009-0.018,0.021-0.027c-0.072-0.037-0.141-0.068-0.21-0.107c-0.555-0.299-0.91-0.766-1.115-1.359
	c-0.136-0.396-0.152-0.801-0.107-1.207c0.006-0.061,0.014-0.094,0.07-0.105c0.088-0.018,0.09-0.07,0.078-0.146
	c-0.078-0.477-0.151-0.953-0.227-1.436c-0.008-0.056-0.04-0.11,0.059-0.127c0.064-0.013,0.028-0.068,0.021-0.106
	c-0.069-0.456-0.137-0.911-0.214-1.37c-0.018-0.102,0.009-0.133,0.107-0.139c0.121-0.002,0.234-0.018,0.37-0.03
	c-0.095-0.067-0.195-0.085-0.287-0.114c-0.06-0.022-0.09-0.053-0.086-0.115c0.015-0.604,0.028-1.209,0.041-1.813
	c0-0.063,0.034-0.079,0.082-0.091c0.679-0.212,1.358-0.421,2.036-0.63c0.665-0.209,1.332-0.414,1.996-0.629
	c0.073-0.021,0.09-0.019,0.094,0.063c0.022,0.563,0.052,1.13,0.076,1.698c0.006,0.088,0,0.179,0.017,0.27
	c0.012,0.086-0.003,0.129-0.104,0.146c-0.132,0.024-0.263,0.067-0.394,0.103c-0.039,0.014-0.081,0.021-0.086,0.078
	c-0.009,0.061,0.044,0.063,0.08,0.075c0.133,0.044,0.264,0.09,0.397,0.127c0.075,0.021,0.1,0.054,0.09,0.13
	c-0.029,0.251-0.049,0.508-0.076,0.758c-0.012,0.113-0.004,0.229,0.014,0.34c0.064,0.396,0.132,0.797,0.191,1.188
	c0.012,0.062,0.049,0.133-0.063,0.138c-0.042,0.008-0.028,0.051-0.022,0.074c0.037,0.249,0.078,0.5,0.119,0.75
	c0.008,0.055,0.036,0.102,0.059,0.145c0.335,0.679,0.433,1.377,0.174,2.106c-0.048,0.134,0.043,0.242,0.08,0.356
	c0.107,0.353,0.229,0.699,0.348,1.054c0.021,0.063,0.01,0.099-0.05,0.123c-0.127,0.069-0.25,0.144-0.371,0.224
	c-0.026,0.025-0.069,0.035-0.062,0.084c0.018,0.06,0.053,0.06,0.099,0.057c0.144,0.003,0.276,0.016,0.419,0.017
	c0.079-0.002,0.115,0.024,0.129,0.111c0.036,0.229,0.098,0.444,0.124,0.683c0.054,0.438,0.271,0.813,0.435,1.211
	c0.047,0.116,0.104,0.229,0.15,0.352c0.025,0.06,0.104,0.127-0.021,0.185c-0.028,0.021-0.006,0.063,0.005,0.073
	c0.071,0.16,0.149,0.316,0.209,0.479c0.028,0.076,0.096,0.047,0.138,0.094c0.371,0.418,0.678,0.89,0.786,1.443
	c0.188,0.963-0.196,1.891-1.026,2.396c-0.838,0.515-1.705,0.595-2.566,0.068c-0.642-0.39-1.002-0.986-1.139-1.719
	c-0.021-0.099-0.081-0.191,0.001-0.289c0.019-0.023-0.012-0.063-0.027-0.095c-0.193-0.438-0.384-0.875-0.579-1.317
	c-0.023-0.052-0.059-0.096,0.032-0.117c0.047-0.027,0.01-0.065-0.004-0.104c-0.181-0.409-0.367-0.841-0.555-1.247
	c-0.044-0.098-0.061-0.159,0.076-0.195c0.128-0.027,0.249-0.088,0.376-0.135C40.757,57.404,40.754,57.393,40.753,57.386z"/>
<path fill="#040404" d="M38.06,54.389c0.081,0.063,0.137-0.02,0.203-0.027c0.103-0.01,0.095-0.069,0.076-0.144
	c-0.008-0.03-0.003-0.061,0.036-0.067c0.043-0.006,0.053,0.022,0.054,0.053c0.001,0.111,0.064,0.111,0.152,0.095
	c0.163-0.036,0.327-0.054,0.487-0.096c0.121-0.032,0.209-0.017,0.279,0.094c0.019,0.028,0.042,0.056,0.071,0.086
	c-0.048,0.035-0.103,0.036-0.155,0.046c-0.216,0.045-0.434,0.08-0.648,0.125c-0.045,0.014-0.113-0.004-0.106,0.084
	c0.007,0.053-0.05,0.04-0.063,0.016c-0.042-0.065-0.097-0.045-0.157-0.041c-0.177,0.012-0.297-0.104-0.305-0.278
	c0-0.045,0.01-0.089,0.044-0.128c0.032-0.029,0.071-0.041,0.118-0.02c0.037,0.012,0.061,0.043,0.06,0.088
	c0.004,0.045-0.028,0.063-0.06,0.086C38.117,54.359,38.081,54.339,38.06,54.389z"/>
<path fill="#040404" d="M38.659,54.752c0.131-0.021,0.259-0.05,0.387-0.072c0.056-0.01,0.103-0.033,0.056-0.104
	c-0.015-0.02-0.031-0.045-0.002-0.063c0.025-0.019,0.049-0.005,0.068,0.016c0.068,0.063,0.096,0.146,0.081,0.242
	c-0.015,0.09-0.079,0.137-0.163,0.15c-0.23,0.053-0.466,0.092-0.696,0.143c-0.049,0.01-0.127-0.006-0.098,0.098
	c0.009,0.04-0.046,0.033-0.066,0.005c-0.05-0.065-0.108-0.142-0.079-0.231c0.022-0.084,0.101-0.1,0.177-0.117
	C38.438,54.797,38.547,54.775,38.659,54.752C38.66,54.754,38.66,54.754,38.659,54.752z"/>
<path fill="#040404" d="M38.842,53.936c-0.14,0.029-0.279,0.062-0.42,0.09c-0.044,0-0.084-0.015-0.113-0.047
	c-0.074-0.088-0.044-0.174,0.065-0.193c0.135-0.024,0.265-0.055,0.397-0.074c0.062-0.018,0.13-0.036,0.166,0.041
	c0.028,0.063-0.018,0.115-0.063,0.15C38.866,53.91,38.854,53.923,38.842,53.936z"/>
<path fill="#040404" d="M38.842,53.936c-0.006-0.041,0.018-0.068,0.043-0.101c0.022-0.024,0.056-0.041,0.029-0.081
	c-0.029-0.04-0.066-0.048-0.11-0.038c-0.147,0.026-0.291,0.056-0.438,0.081c-0.032,0.01-0.076,0.004-0.079,0.047
	c-0.002,0.045-0.004,0.088,0.043,0.112c0.033,0.015,0.069,0.034,0.09,0.065c-0.014,0.021-0.019,0.057-0.034,0.078
	c-0.032,0.049-0.062,0.041-0.076-0.009c-0.021-0.081-0.034-0.155-0.052-0.233c-0.014-0.063,0.029-0.068,0.069-0.078
	c0.169-0.031,0.335-0.063,0.5-0.096c0.059-0.014,0.148-0.011,0.075-0.111c-0.013-0.021-0.012-0.045,0.012-0.057
	c0.028-0.02,0.05,0.008,0.066,0.021c0.066,0.067,0.091,0.151,0.067,0.243C39.023,53.896,38.942,53.932,38.842,53.936z"/>
<path fill="#040404" d="M37.918,54.01c-0.009-0.09,0.032-0.152,0.116-0.164c0.082-0.014,0.151,0.028,0.163,0.116
	c0.014,0.084-0.032,0.146-0.109,0.16C38.004,54.141,37.942,54.102,37.918,54.01z"/>
<path fill="#040404" d="M45.798,59.968c0.192,0.548,0.161,1.089-0.12,1.587c-0.447,0.782-1.156,1.145-2.041,1.104
	c-0.871-0.044-1.426-0.567-1.773-1.345c-0.059-0.135-0.083-0.271-0.119-0.418c-0.019-0.073-0.004-0.121,0.065-0.162
	c0.118-0.08,0.229-0.156,0.333-0.258c-0.095,0.032-0.188,0.063-0.279,0.104c-0.061,0.023-0.093,0.006-0.117-0.048
	c-0.167-0.382-0.339-0.769-0.51-1.15c-0.035-0.073-0.012-0.104,0.062-0.122c0.302-0.105,0.604-0.217,0.909-0.324
	c0.058-0.023,0.108-0.031,0.076-0.121c-0.027-0.078-0.066-0.082-0.138-0.051c-0.258,0.104-0.524,0.188-0.791,0.283
	c-0.082,0.037-0.134,0.026-0.172-0.068c-0.156-0.371-0.316-0.738-0.483-1.104c-0.04-0.089-0.021-0.104,0.063-0.14
	c0.472-0.162,0.941-0.334,1.412-0.506c0.024-0.014,0.061-0.018,0.077-0.049c-0.485-0.037-0.964-0.063-1.444-0.094
	c-0.24-0.016-0.238-0.014-0.295-0.246c-0.098-0.381-0.195-0.751-0.298-1.13c-0.022-0.085-0.003-0.131,0.07-0.175
	c0.353-0.221,0.7-0.455,1.045-0.689c-0.006-0.049-0.04-0.027-0.064-0.035c-0.896-0.099-1.574-0.701-1.781-1.582
	c-0.054-0.229-0.076-0.465-0.06-0.701c0.008-0.07,0.03-0.117,0.11-0.143c0.21-0.066,0.417-0.152,0.623-0.256
	c-0.142,0.016-0.282,0.02-0.425,0.039c-0.085,0.005-0.118-0.011-0.133-0.1c-0.059-0.41-0.123-0.822-0.187-1.231
	c-0.011-0.063,0.003-0.094,0.072-0.088c0.09,0.002,0.185-0.032,0.275-0.015c0.037,0.099-0.009,0.199-0.023,0.3
	c0.013,0.235,0.096,0.467,0.106,0.696c0.006,0.082,0.079,0.064,0.131,0.063c0.287-0.012,0.574-0.037,0.856-0.063
	c0.415-0.037,0.827-0.065,1.233-0.104c0.037-0.007,0.066,0.004,0.104,0.003c0.201,0.029,0.201,0.029,0.162,0.244
	c-0.012,0.037-0.049,0.07-0.021,0.107c0.16,0.34,0.223,0.684,0.082,1.041c-0.047,0.129-0.105,0.258-0.229,0.34
	c-0.292,0.121-0.584,0.207-0.898,0.087c-0.346-0.13-0.545-0.39-0.646-0.732c-0.031-0.112-0.046-0.231-0.066-0.35
	c-0.009-0.06-0.028-0.103-0.091-0.095c-0.227,0.043-0.446,0.104-0.615,0.27c-0.164,0.087-0.151,0.229-0.125,0.382
	c0.067,0.402,0.212,0.767,0.499,1.063c0.333,0.341,0.745,0.49,1.21,0.5c0.055,0.005,0.109,0,0.164,0.007
	c0.101,0.017,0.192-0.022,0.288-0.033c0.043-0.002,0.097-0.022,0.119,0.022c0.022,0.057-0.018,0.084-0.054,0.117
	c-0.151,0.111-0.312,0.213-0.469,0.313c-0.273,0.164-0.523,0.358-0.791,0.526c-0.08,0.054-0.111,0.135-0.116,0.229
	c-0.024,0.064-0.038,0.127-0.017,0.195c0.068,0.229,0.137,0.466,0.184,0.71c0.027,0.147,0.064,0.179,0.223,0.188
	c0.713,0.041,1.428,0.093,2.143,0.136c0.06,0.006,0.121-0.004,0.164,0.058c0.017,0.087-0.062,0.083-0.109,0.104
	c-0.549,0.209-1.1,0.405-1.653,0.59c-0.142,0.05-0.273,0.115-0.354,0.242c-0.072,0.049-0.067,0.11-0.038,0.18
	c0.071,0.16,0.146,0.313,0.213,0.476c0.039,0.097,0.088,0.119,0.176,0.077c0.236-0.082,0.47-0.163,0.707-0.246
	c0.163-0.052,0.205-0.04,0.271,0.116c0.055,0.138,0.115,0.271,0.131,0.422c-0.024,0.065-0.084,0.095-0.146,0.116
	c-0.131,0.045-0.255,0.107-0.391,0.139c-0.16,0.044-0.288,0.128-0.384,0.266c-0.068,0.037-0.062,0.09-0.034,0.158
	c0.068,0.162,0.131,0.32,0.21,0.479c0.062,0.122,0.078,0.13,0.207,0.079c0.684-0.237,1.357-0.493,2.044-0.729
	c0.063-0.024,0.129-0.048,0.192-0.057c0.166,0.001,0.19,0.071,0.102,0.254c0.005,0.063,0.048,0.096,0.076,0.134
	c0.207,0.293,0.318,0.607,0.253,0.975c-0.017,0.069-0.03,0.144-0.078,0.196c-0.167,0.164-0.347,0.31-0.576,0.372
	c-0.096,0.026-0.19,0.044-0.271-0.055c0.043-0.053,0.105-0.055,0.162-0.074c0.381-0.146,0.531-0.445,0.434-0.841
	c-0.039-0.142-0.105-0.263-0.201-0.378c-0.061-0.068-0.126-0.094-0.212-0.063c-0.286,0.107-0.574,0.202-0.858,0.308
	c-0.078,0.037-0.098,0.084-0.094,0.162c0.012,0.084,0.049,0.164,0.027,0.25c-0.059,0.047-0.067-0.01-0.083-0.045
	c-0.026-0.062-0.063-0.119-0.106-0.17c-0.063-0.07-0.135-0.082-0.211-0.027c-0.124,0.104-0.253,0.199-0.389,0.287
	c-0.094,0.052-0.116,0.158-0.172,0.244c-0.041,0.047-0.041,0.101-0.023,0.154c0.229,0.788,0.995,1.439,1.928,1.287
	c0.303-0.05,0.567-0.173,0.834-0.313c0.472-0.193,0.754-0.553,0.896-1.022c0.085-0.288,0.129-0.569,0.059-0.864
	C45.777,60.061,45.762,60.011,45.798,59.968z"/>
<path fill="#040404" d="M39.701,50.999c0.046-0.082,0.022-0.183,0.059-0.269c0.245-0.023,0.491-0.045,0.736-0.064
	c0.082-0.007,0.064-0.055,0.069-0.104c0.004-0.065-0.026-0.09-0.089-0.082c-0.281,0.021-0.566,0.041-0.847,0.069
	c-0.1,0.011-0.149-0.002-0.165-0.116c-0.053-0.396-0.115-0.795-0.183-1.188c-0.019-0.099,0.023-0.104,0.099-0.104
	c0.422-0.029,0.842-0.07,1.264-0.103c0.058-0.004,0.112-0.017,0.172-0.048c-0.177-0.061-0.355-0.129-0.532-0.191
	c-0.271-0.095-0.541-0.193-0.815-0.283c-0.094-0.029-0.13-0.065-0.126-0.176c0.019-0.431,0.026-0.865,0.032-1.295
	c0-0.07,0.021-0.107,0.097-0.129c1.139-0.354,2.277-0.707,3.415-1.068c0.08-0.022,0.11-0.016,0.114,0.078
	c0.017,0.442,0.038,0.889,0.063,1.331c0.002,0.075-0.021,0.11-0.099,0.126c-0.13,0.025-0.258,0.071-0.384,0.098
	c-0.079,0.018-0.096,0.057-0.092,0.123c0.003,0.112,0.002,0.229-0.01,0.34c-0.008,0.098,0.027,0.143,0.117,0.16
	c0.119,0.027,0.23,0.078,0.353,0.109c0.063,0.02,0.099,0.047,0.088,0.127c-0.095,0.508-0.052,1.01,0.058,1.51
	c0.023,0.105,0.025,0.221,0.053,0.323c0.015,0.081-0.006,0.103-0.084,0.106c-0.359,0.025-0.719,0.063-1.079,0.086
	c-0.088,0.005-0.098,0.041-0.094,0.117c0.004,0.099,0.067,0.066,0.116,0.063c0.313-0.023,0.633-0.048,0.945-0.082
	c0.095-0.005,0.125,0.021,0.136,0.113c0.043,0.3,0.104,0.597,0.136,0.889c0.012,0.11,0.112,0.166,0.113,0.271
	c-0.135,0.013-0.27-0.024-0.398-0.055c-0.041-0.007-0.049-0.052-0.051-0.093c-0.017-0.058-0.031-0.108-0.006-0.161
	c0.104-0.039,0.131-0.103,0.11-0.207c-0.021-0.154-0.071-0.305-0.083-0.459c-0.012-0.1-0.086-0.125-0.17-0.117
	c-0.238,0.02-0.479,0.03-0.721,0.057c-0.235,0.023-0.329-0.057-0.339-0.293c-0.004-0.063-0.012-0.137-0.019-0.197
	c-0.01-0.063-0.002-0.12,0.06-0.156c0.27-0.055,0.546-0.058,0.823-0.082c0.089-0.01,0.185-0.012,0.21-0.121
	c0.104-0.074,0.126-0.17,0.104-0.297c-0.02-0.123-0.021-0.244-0.051-0.363c-0.063-0.236-0.063-0.479-0.021-0.717
	c0.021-0.135-0.007-0.179-0.134-0.226c-0.032-0.013-0.069-0.021-0.104-0.031c-0.264-0.098-0.303-0.145-0.28-0.418
	c0.015-0.187-0.021-0.378,0.035-0.558c0.045-0.072,0.12-0.083,0.192-0.096c0.104-0.01,0.188-0.053,0.231-0.15
	c0.097-0.063,0.115-0.155,0.107-0.256c-0.008-0.147-0.014-0.303-0.023-0.457c-0.017-0.17-0.059-0.192-0.222-0.145
	c-0.438,0.125-0.874,0.277-1.314,0.407c-0.441,0.132-0.875,0.283-1.315,0.41c-0.077,0.021-0.136,0.063-0.175,0.132
	c-0.123,0.074-0.134,0.188-0.136,0.313c-0.002,0.226-0.004,0.447-0.018,0.673c-0.01,0.106,0.036,0.169,0.14,0.204
	c0.61,0.215,1.219,0.435,1.829,0.648c0.044,0.014,0.089,0.029,0.127,0.053c0.024,0.021,0.048,0.039,0.015,0.072
	c-0.124,0.063-0.261,0.073-0.392,0.086c-0.455,0.035-0.91,0.067-1.364,0.107c-0.122,0.01-0.208,0.055-0.279,0.148
	c-0.084,0.031-0.101,0.094-0.084,0.18c0.037,0.154,0.061,0.313,0.074,0.477c0.007,0.127,0.035,0.143,0.161,0.137
	c0.224-0.012,0.444-0.037,0.666-0.057c0.066-0.003,0.127-0.01,0.191,0.004c0.049,0.008,0.096,0.031,0.1,0.08
	c0.022,0.174,0.063,0.348,0.024,0.525c-0.028,0.051-0.082,0.05-0.131,0.063c-0.195,0.041-0.394,0.041-0.593,0.053
	c-0.114,0.006-0.204,0.035-0.263,0.141C39.803,51.023,39.751,51.042,39.701,50.999z"/>
<path fill="#040404" d="M42.919,51.598c-0.011,0.074,0.048,0.064,0.091,0.069c0.108,0.003,0.221,0.022,0.328,0.065
	c0.049,0.063,0.086,0.14,0.098,0.224c0.174,0.576,0.147,1.127-0.166,1.651c-0.041,0.063-0.043,0.104,0.041,0.129
	c0.074,0.021,0.107,0.092,0.155,0.143c0.089,0.182,0.132,0.381,0.203,0.573c0.049,0.14,0.09,0.282,0.144,0.419
	c0.025,0.072,0.02,0.119-0.06,0.161c-0.112,0.057-0.218,0.131-0.328,0.19c-0.063,0.032-0.084,0.069-0.063,0.141
	c0.041,0.123,0.072,0.25,0.104,0.384c0.014,0.062,0.059,0.071,0.111,0.073c0.127-0.004,0.262,0.015,0.392,0.011
	c0.091-0.004,0.118,0.037,0.126,0.112c0.073,0.643,0.282,1.229,0.574,1.791c0.041,0.09,0.021,0.119-0.066,0.149
	c-0.33,0.108-0.656,0.229-0.98,0.349c-0.057,0.021-0.123,0.022-0.088,0.123c0.039,0.099,0.089,0.074,0.154,0.047
	c0.295-0.108,0.59-0.209,0.883-0.319c0.095-0.041,0.123-0.005,0.158,0.075c0.11,0.267,0.229,0.529,0.352,0.804
	c0.025,0.06,0.043,0.108,0.124,0.077c0.036-0.027,0.065,0.005,0.089,0.031c0.229,0.271,0.415,0.563,0.514,0.906
	c0.104,0.365,0.063,0.729-0.057,1.082c-0.107,0.34-0.323,0.604-0.598,0.817c-0.088,0.072-0.203,0.103-0.301,0.146
	c-0.014-0.063,0.045-0.076,0.08-0.11c0.188-0.146,0.334-0.319,0.469-0.517c0.414-0.601,0.39-1.213,0.058-1.84
	c-0.032-0.059-0.071-0.132-0.112-0.195c-0.063-0.094-0.145-0.119-0.244-0.088c-0.127,0.047-0.261,0.076-0.387,0.123
	c-0.076,0.027-0.107,0.086-0.156,0.14c-0.067,0.039-0.132,0.09-0.219,0.063c0.006-0.022,0.021-0.029,0.04-0.039
	c0.063-0.029,0.065-0.078,0.052-0.137c-0.018-0.061-0.076-0.031-0.113-0.029c0-0.063,0.048-0.069,0.084-0.082
	c0.101-0.039,0.188-0.082,0.283-0.11c0.053-0.017,0.088-0.04,0.105-0.097c0.098-0.107,0.094-0.223,0.025-0.347
	c-0.053-0.095-0.104-0.207-0.148-0.308c-0.04-0.098-0.105-0.124-0.204-0.094c-0.228,0.065-0.446,0.151-0.667,0.234
	c-0.072,0.031-0.145,0.051-0.225,0.038c-0.063-0.008-0.115-0.036-0.141-0.092c-0.049-0.134-0.107-0.254-0.148-0.392
	c-0.014-0.043-0.018-0.09,0.011-0.131c0.034-0.052,0.091-0.063,0.142-0.08c0.231-0.094,0.469-0.166,0.703-0.25
	c0.055-0.021,0.101-0.041,0.112-0.104c0.097-0.086,0.092-0.188,0.036-0.294c-0.066-0.137-0.122-0.288-0.184-0.415
	c-0.067-0.154-0.121-0.308-0.119-0.476c0-0.021-0.002-0.021-0.002-0.035c-0.035-0.317-0.068-0.351-0.394-0.379
	c-0.209-0.013-0.264-0.056-0.323-0.256c-0.066-0.222-0.123-0.438-0.143-0.673c0.021-0.077,0.096-0.102,0.152-0.14
	c0.068-0.034,0.141-0.071,0.164-0.148c0.06-0.076,0.096-0.146,0.062-0.246c-0.048-0.158-0.108-0.314-0.158-0.479
	c-0.028-0.104-0.071-0.114-0.159-0.063c-0.518,0.353-1.039,0.692-1.563,1.039c-0.3,0.205-0.603,0.395-0.909,0.599
	c-0.046,0.028-0.09,0.081-0.159,0.052c-0.035-0.104,0.028-0.195,0.101-0.241c0.393-0.271,0.792-0.521,1.19-0.784
	c0.058-0.035,0.113-0.076,0.16-0.146c-0.145-0.02-0.266,0.072-0.399,0.043c0.059-0.075,0.151-0.066,0.232-0.085
	c0.453-0.066,0.805-0.302,1.086-0.646c0.064-0.082,0.098-0.188,0.182-0.265c0.127-0.104,0.179-0.253,0.22-0.401
	c0.108-0.396,0.079-0.789-0.05-1.175c-0.039-0.11-0.105-0.166-0.229-0.161c-0.107,0.004-0.218,0.014-0.329,0.008
	c-0.108-0.004-0.192,0.03-0.25,0.133c-0.062,0.041-0.125,0.025-0.188,0.025c-0.047-0.063,0.021-0.05,0.043-0.063
	c0.039-0.092,0.044-0.215,0.184-0.227c-0.021-0.019-0.038-0.041-0.005-0.063C42.624,51.574,42.77,51.552,42.919,51.598z"/>
<path fill="#040404" d="M43.464,53.879c-0.093-0.037-0.149-0.131-0.262-0.139c-0.052-0.004-0.028-0.059-0.007-0.096
	c0.176-0.231,0.244-0.506,0.296-0.793c0.036-0.189-0.009-0.375-0.009-0.563c0.002-0.106-0.034-0.224-0.051-0.333
	c0.191,0.49,0.223,0.986,0.053,1.486C43.436,53.591,43.402,53.729,43.464,53.879z"/>
<path fill="#040404" d="M38.429,56.529c0.024,0.145,0.094,0.271,0.068,0.431c-0.01,0.063,0.061,0.084,0.097,0.123
	c0.015,0.019,0.031,0.015,0.041-0.009c0.026-0.047,0.018-0.092-0.008-0.133c-0.017-0.033-0.027-0.065-0.041-0.1
	c0.084,0.092,0.177,0.073,0.277,0.055c0.177-0.041,0.357-0.069,0.534-0.106c0.056-0.009,0.108-0.032,0.151,0.035
	c0.016,0.018,0.041,0.038,0.065,0.013c0.024-0.025,0.009-0.048,0.005-0.066c-0.027-0.146-0.055-0.31-0.09-0.465
	c-0.07-0.308-0.348-0.468-0.684-0.404C38.538,55.966,38.374,56.219,38.429,56.529z M39.196,56.152
	c0.076,0.007,0.147,0.033,0.199,0.096c0.138,0.166,0.106,0.252-0.094,0.288c-0.094,0.019-0.19,0.039-0.286,0.057
	c-0.129,0.023-0.257,0.052-0.386,0.074c-0.062,0.026-0.089-0.002-0.101-0.067c-0.029-0.143,0.028-0.281,0.176-0.354
	C38.859,56.171,39.024,56.141,39.196,56.152z"/>
<path fill="#040404" d="M38.673,57.324c-0.106,0.249-0.026,0.537,0.195,0.703c0.207,0.152,0.511,0.144,0.704-0.023
	c0.065-0.059,0.124-0.188,0.174-0.18c0.075,0.007,0.144,0.105,0.236,0.188c-0.112-0.255-0.318-0.382-0.495-0.525
	c-0.024-0.016-0.065-0.008-0.104-0.008c-0.066-0.008-0.139,0.021-0.188-0.037c-0.098-0.107-0.146-0.104-0.212,0.021
	c-0.027-0.146-0.027-0.146,0.121-0.175c0.067-0.013,0.111-0.021,0.027-0.073c-0.018,0.02-0.04,0.029-0.063,0.034
	c-0.069,0.026-0.173-0.008-0.174,0.12c0,0.07-0.059,0.154-0.008,0.234c0.029,0.045-0.007,0.063-0.032,0.078
	c-0.037,0.029-0.043,0.068-0.004,0.104c0.021,0.02,0.066,0.051,0.072,0.012c0.011-0.023,0.091-0.051,0.023-0.104
	c-0.017-0.014-0.042-0.023-0.016-0.051c0.01-0.01,0.022-0.014,0.035-0.012c0.025,0.01,0.057,0.021,0.05,0.049
	c-0.024,0.133,0.078,0.125,0.148,0.129c0.097,0.002,0.198-0.002,0.313-0.007c-0.038-0.059-0.082-0.049-0.125-0.041
	c-0.075,0.003-0.145-0.007-0.214-0.022c-0.054-0.016-0.054-0.059-0.041-0.104c0.018-0.058,0.054-0.019,0.083,0
	c0.124,0.048,0.257,0.075,0.392,0.104c0.104,0.012,0.097,0.053,0.046,0.133c-0.131,0.176-0.359,0.254-0.568,0.179
	c-0.208-0.065-0.349-0.269-0.341-0.493c0.005-0.23,0.145-0.393,0.376-0.468l0,0c0.311-0.075,0.592,0.122,0.625,0.44
	c0.002,0.025-0.002,0.066,0.004,0.088s0.028,0.037,0.046,0.043c0.028,0.008,0.024-0.025,0.026-0.047
	c0.004-0.021,0.003-0.064,0.002-0.088c-0.019-0.254-0.221-0.479-0.479-0.524C39.041,56.938,38.774,57.078,38.673,57.324z
	 M39.298,57.548c0.118-0.016,0.189,0.03,0.262,0.072C39.475,57.631,39.4,57.598,39.298,57.548z"/>
<path fill="#040404" d="M39.147,55.093c0.075,0.052,0.114,0.125,0.115,0.216c0.001,0.104-0.11,0.225-0.232,0.228
	c-0.118,0.007-0.063-0.104-0.09-0.158c-0.012-0.021-0.011-0.052-0.017-0.073c-0.012-0.063-0.026-0.132-0.039-0.199
	c-0.008-0.043-0.03-0.062-0.071-0.045c-0.128,0.031-0.24,0.15-0.26,0.283c-0.034,0.201,0.084,0.395,0.28,0.459
	c0.201,0.053,0.415-0.06,0.501-0.246c0.078-0.185,0.009-0.443-0.146-0.546c-0.024-0.014-0.046-0.04-0.074-0.008
	C39.095,55.061,39.122,55.074,39.147,55.093z M38.826,55.574c-0.085,0.006-0.171-0.001-0.188-0.098
	c-0.018-0.101,0.064-0.129,0.14-0.153c0.115-0.034,0.065,0.075,0.098,0.118C38.861,55.486,38.938,55.563,38.826,55.574z"/>
<path fill="#F04D4B" d="M43.448,54.764c0.018,0.062-0.007,0.09-0.062,0.116c-0.086,0.052-0.164,0.103-0.246,0.155
	c-0.127,0.109-0.104,0.234-0.059,0.374c0.055,0.157,0.104,0.323,0.131,0.487c0.02,0.104,0.07,0.146,0.182,0.149
	c0.092,0.004,0.188,0.003,0.276,0.011c0.093,0.004,0.156,0.047,0.168,0.146c0.063,0.444,0.199,0.876,0.405,1.286
	c0.014,0.025,0.02,0.062,0.014,0.104c0.03,0.076-0.007,0.104-0.072,0.121c-0.297,0.105-0.601,0.196-0.889,0.322
	c-0.134,0.113-0.134,0.113-0.076,0.283c0.036,0.104,0.074,0.219,0.113,0.322c0.029,0.086,0.075,0.106,0.166,0.074
	c0.271-0.104,0.547-0.195,0.818-0.3c0.152-0.051,0.188-0.042,0.25,0.101c0.07,0.159,0.146,0.318,0.215,0.479
	c0.016,0.042,0.027,0.082,0.023,0.124c0.018,0.063-0.011,0.104-0.076,0.12c-0.142,0.049-0.278,0.109-0.426,0.152
	c-0.371,0.108-0.726,0.252-1.088,0.381c-0.4,0.141-0.799,0.278-1.197,0.422c-0.105,0.043-0.146,0.01-0.184-0.084
	c-0.071-0.178-0.148-0.346-0.231-0.524c-0.048-0.095-0.05-0.162,0.073-0.19c0.233-0.148,0.505-0.203,0.759-0.305
	c0.084-0.035,0.144-0.072,0.145-0.175c-0.055-0.149-0.109-0.306-0.156-0.462c-0.029-0.086-0.07-0.094-0.152-0.063
	c-0.271,0.104-0.546,0.194-0.82,0.299c-0.074,0.031-0.106,0.01-0.134-0.058c-0.083-0.194-0.166-0.387-0.258-0.575
	c-0.048-0.099-0.022-0.146,0.073-0.171c0.116-0.088,0.253-0.114,0.382-0.168c0.654-0.233,1.306-0.471,1.968-0.707
	c-0.076-0.012-0.158,0.005-0.227-0.049c-0.537-0.039-1.066-0.069-1.604-0.104c-0.256-0.017-0.514-0.034-0.77-0.043
	c-0.095-0.002-0.135-0.039-0.154-0.125c-0.072-0.289-0.146-0.574-0.225-0.859c-0.015-0.063,0-0.107,0.045-0.157
	c0.336-0.198,0.652-0.422,0.977-0.64c0.513-0.33,1.024-0.674,1.538-1.008c0.031-0.022,0.074-0.035,0.111-0.06
	c0.034,0.015,0.059,0.054,0.069,0.091c0.071,0.199,0.146,0.405,0.204,0.608C43.454,54.686,43.448,54.727,43.448,54.764z"/>
<path fill="#F04D4B" d="M42.919,51.598c-0.151,0.018-0.304,0.03-0.455,0.045c-0.089,0.058-0.192-0.004-0.28,0.023
	c-0.354,0.027-0.707,0.052-1.062,0.078c-0.404,0.029-0.806,0.064-1.21,0.1c-0.052,0.002-0.099,0.008-0.106-0.059
	c-0.024-0.27-0.104-0.521-0.109-0.787c0.05-0.009,0.102-0.016,0.15-0.025c0.152-0.07,0.313-0.043,0.472-0.07
	c0.103-0.014,0.204-0.022,0.302-0.021c0.104-0.001,0.168-0.044,0.193-0.146c-0.013-0.172-0.02-0.344-0.036-0.52
	c-0.004-0.063-0.052-0.063-0.101-0.057c-0.294,0.023-0.591,0.043-0.881,0.072c-0.088,0.004-0.121-0.018-0.134-0.104
	c-0.029-0.222-0.063-0.437-0.101-0.646c-0.025-0.131,0.081-0.088,0.134-0.111c0.082-0.063,0.18-0.049,0.268-0.057
	c0.66-0.056,1.325-0.104,1.988-0.164c0.008,0.002,0.017-0.004,0.021-0.014c-0.072-0.039-0.168-0.033-0.223-0.111
	c-0.469-0.17-0.941-0.34-1.414-0.513c-0.214-0.077-0.428-0.151-0.645-0.229c-0.083-0.027-0.109-0.066-0.107-0.154
	c0.012-0.274,0.02-0.554,0.018-0.834c0-0.106,0.028-0.185,0.141-0.215c0.138-0.104,0.312-0.125,0.471-0.177
	c0.755-0.236,1.514-0.478,2.271-0.709c0.197-0.063,0.229-0.041,0.242,0.164c0.012,0.166,0.018,0.34,0.021,0.509
	c0,0.045,0.004,0.094-0.021,0.137c0.008,0.103-0.045,0.138-0.142,0.153s-0.192,0.029-0.276,0.074
	c-0.095,0.063-0.109,0.146-0.109,0.25c-0.004,0.199-0.001,0.398-0.012,0.601c-0.006,0.104,0.035,0.159,0.135,0.187
	c0.103,0.023,0.199,0.051,0.299,0.094c0.077,0.029,0.109,0.084,0.1,0.162c-0.003,0.035-0.007,0.063-0.012,0.102
	c-0.038,0.279-0.037,0.559,0.035,0.834c0.035,0.129,0.039,0.259,0.027,0.393c0.025,0.121-0.031,0.148-0.145,0.15
	c-0.313,0.021-0.609,0.055-0.918,0.082c-0.103,0.034-0.141,0.109-0.126,0.216c0.014,0.11,0.023,0.229,0.03,0.339
	c0.014,0.146,0.027,0.157,0.176,0.15c0.258-0.018,0.516-0.038,0.771-0.063c0.215-0.021,0.25,0,0.291,0.211
	c0.021,0.104,0.043,0.211,0.061,0.313c0.009,0.063,0.021,0.124-0.012,0.184C42.909,51.488,42.916,51.541,42.919,51.598z"/>
<path fill="#F04D4B" d="M45.402,61.423c-0.147,0.237-0.346,0.429-0.563,0.599c-0.229,0.131-0.462,0.248-0.724,0.297
	c-0.761,0.15-1.44-0.137-1.854-0.793c-0.104-0.164-0.186-0.322-0.236-0.518C42,60.93,42.018,60.882,42.08,60.84
	c0.145-0.165,0.337-0.26,0.51-0.385c0.037-0.025,0.076-0.037,0.109,0.006c0.063,0.098,0.078,0.221,0.13,0.33
	c0.159,0.336,0.396,0.598,0.786,0.641c0.258,0.027,0.503-0.041,0.71-0.207c0.127-0.092,0.208-0.226,0.299-0.348
	c0.14-0.304,0.091-0.611-0.048-0.906c-0.064-0.135-0.162-0.253-0.253-0.378c0.069-0.03,0.143-0.053,0.217-0.081
	c0.149-0.113,0.341-0.136,0.519-0.191c0.063-0.021,0.11,0.031,0.146,0.078c0.375,0.537,0.541,1.111,0.327,1.75
	C45.505,61.25,45.441,61.333,45.402,61.423z"/>
<path fill="#F04D4B" d="M43.104,53.561c-0.311,0.571-0.797,0.873-1.435,0.949c-0.025,0.004-0.051,0.01-0.074,0.016
	c-0.261,0.002-0.516-0.01-0.764-0.102c-0.588-0.213-0.932-0.645-1.095-1.238c-0.033-0.123-0.046-0.248-0.068-0.371
	c-0.024-0.133,0.005-0.232,0.151-0.269c0.11-0.103,0.257-0.123,0.39-0.171c0.258-0.093,0.256-0.091,0.277,0.178
	c0.017,0.208,0.063,0.402,0.163,0.584c0.257,0.465,0.75,0.563,1.198,0.372c0.11-0.042,0.213-0.106,0.305-0.177
	c0.229-0.227,0.298-0.505,0.271-0.811c-0.017-0.191-0.071-0.383-0.163-0.558c0.051-0.065,0.125-0.011,0.184-0.042
	c0.201-0.064,0.408-0.061,0.615-0.05c0.055,0.003,0.082,0.058,0.101,0.104c0.157,0.449,0.225,0.903,0.071,1.365
	C43.199,53.42,43.154,53.49,43.104,53.561z"/>
<path fill="#F4F4F4" d="M42.156,52.424c0.107,0.555-0.209,0.959-0.713,0.942c-0.225-0.009-0.4-0.111-0.519-0.298
	c-0.184-0.297-0.187-0.617-0.109-0.943c0.012-0.05,0.047-0.051,0.084-0.057c0.333-0.026,0.666-0.059,1.001-0.082
	c0.053-0.008,0.075,0.021,0.101,0.058C42.085,52.163,42.137,52.3,42.156,52.424z"/>
<path fill="#F4F4F4" d="M43.041,60.585c-0.016-0.104-0.05-0.226-0.05-0.338c-0.003-0.058,0.005-0.082,0.063-0.106
	c0.32-0.107,0.645-0.228,0.965-0.345c0.069-0.024,0.113-0.015,0.166,0.045c0.125,0.147,0.227,0.315,0.265,0.509
	c0.081,0.399-0.142,0.744-0.54,0.842c-0.032,0.009-0.063,0.016-0.1,0.021c-0.146,0.066-0.272,0.004-0.394-0.07
	c-0.192-0.113-0.31-0.302-0.388-0.511C43.027,60.615,43.032,60.6,43.041,60.585z"/>
<path fill="#040404" d="M42.152,53.328c-0.436,0.52-1.317,0.367-1.591-0.278c-0.079-0.194-0.126-0.401-0.115-0.616
	c0.008-0.104-0.029-0.101-0.104-0.076c-0.175,0.065-0.351,0.125-0.524,0.188c0.016-0.104,0.11-0.129,0.182-0.157
	c0.144-0.054,0.28-0.133,0.439-0.15c0.098-0.01,0.136,0.015,0.148,0.113c0.035,0.283,0.089,0.563,0.291,0.797
	c0.295,0.332,0.653,0.395,1.029,0.277C41.989,53.396,42.072,53.357,42.152,53.328z"/>
<path fill="#040404" d="M43.041,60.585c0.036,0.071,0.07,0.151,0.109,0.226c0.146,0.252,0.354,0.41,0.658,0.401
	c0.228,0.082,0.412-0.021,0.588-0.139c0.082-0.06,0.151-0.136,0.229-0.195c-0.043,0.158-0.135,0.271-0.269,0.364
	c-0.529,0.333-1.06,0.082-1.338-0.328c-0.082-0.115-0.146-0.247-0.187-0.369c-0.019-0.063-0.048-0.141-0.144-0.074
	c-0.047-0.02-0.078,0.016-0.108,0.043c-0.17,0.117-0.335,0.227-0.505,0.338c0.047-0.149,0.143-0.25,0.275-0.328
	c0.097-0.053,0.183-0.137,0.271-0.197c0.12-0.09,0.174-0.079,0.274,0.035C42.973,60.418,42.988,60.51,43.041,60.585z"/>
<path fill="#040404" d="M43.25,56.948c0.116,0.003,0.234,0.011,0.352,0.014c0.002,0.009,0.004,0.019,0.006,0.026
	c-0.166,0.055-0.332,0.119-0.496,0.178c-0.637,0.227-1.271,0.454-1.91,0.686c-0.021,0.01-0.05,0.008-0.073,0.019
	c0.063-0.202,0.25-0.229,0.406-0.28c0.521-0.181,1.043-0.354,1.554-0.557C43.145,57.011,43.234,57.049,43.25,56.948z"/>
<path fill="#040404" d="M42.582,58.915c0.055,0.091,0.048,0.144-0.068,0.187c-0.281,0.088-0.556,0.189-0.837,0.285
	c0.118-0.256,0.394-0.234,0.595-0.34C42.373,59.001,42.499,59.004,42.582,58.915z"/>
<path fill="#040404" d="M42.184,51.668c0.094-0.021,0.188-0.027,0.281-0.021c0.021,0.006,0.036,0.015,0.061,0.023
	c-0.084,0.045-0.182,0.084-0.166,0.21c0,0.006-0.03,0.015-0.053,0.022c-0.002-0.021-0.016-0.047-0.009-0.063
	C42.357,51.717,42.327,51.654,42.184,51.668z"/>
<path fill="#040404" d="M42.734,47.008c-0.014-0.23-0.032-0.466-0.036-0.697c-0.003-0.109-0.04-0.121-0.138-0.088
	c-0.895,0.28-1.786,0.557-2.673,0.834c-0.044,0.018-0.089,0.021-0.135,0.032c0.036-0.185,0.209-0.176,0.336-0.216
	c0.316-0.096,0.63-0.199,0.945-0.305c0.177-0.06,0.352-0.11,0.532-0.157c0.363-0.099,0.716-0.238,1.08-0.345
	c0.112-0.031,0.174-0.008,0.188,0.107c0.03,0.233,0.047,0.473,0.033,0.705C42.863,46.967,42.805,46.986,42.734,47.008z"/>
<path fill="#040404" d="M42.777,49.846c-0.084-0.43-0.178-0.861-0.086-1.303c0.018-0.087-0.004-0.135-0.096-0.158
	c-0.111-0.025-0.219-0.074-0.324-0.096c-0.088-0.021-0.119-0.066-0.115-0.154c0.012-0.249,0.017-0.499,0.014-0.746
	c0.002-0.104,0.041-0.156,0.146-0.152c-0.002,0.229,0,0.449-0.018,0.678c-0.01,0.126,0.059,0.188,0.158,0.229
	c0.078,0.034,0.158,0.06,0.238,0.075c0.104,0.038,0.156,0.104,0.135,0.222c-0.044,0.22-0.064,0.438-0.005,0.66
	c0.053,0.185,0.056,0.373,0.083,0.563C42.927,49.768,42.875,49.826,42.777,49.846z"/>
<path fill="#040404" d="M42.906,51.432c-0.031-0.186-0.069-0.365-0.092-0.552c-0.015-0.121-0.068-0.136-0.174-0.127
	c-0.313,0.032-0.625,0.047-0.936,0.083c-0.091,0.008-0.112-0.023-0.117-0.104c-0.01-0.154-0.022-0.314-0.036-0.469
	c-0.02-0.181-0.021-0.18,0.166-0.186c-0.016,0.021-0.043,0.045-0.034,0.074c0.027,0.103,0.023,0.209,0.038,0.314
	c0.016,0.149,0.092,0.213,0.25,0.197c0.26-0.023,0.526-0.051,0.792-0.07c0.096-0.006,0.186,0.034,0.188,0.129
	c0.001,0.189,0.076,0.369,0.089,0.557C43.051,51.398,43.027,51.432,42.906,51.432z"/>
<path fill="#040404" d="M41.761,49.027c0.116,0.037,0.231,0.076,0.346,0.113c0,0.016,0,0.024,0,0.041
	c-0.801,0.063-1.604,0.127-2.406,0.188c0.048-0.115,0.129-0.146,0.254-0.158c0.356-0.045,0.714-0.045,1.067-0.088
	C41.27,49.098,41.519,49.092,41.761,49.027z"/>
<path fill="#040404" d="M40.818,50.738c0.031,0.162,0.032,0.17-0.123,0.178c-0.279,0.021-0.56,0.064-0.842,0.063
	c0.013-0.111,0.071-0.146,0.186-0.153C40.296,50.801,40.563,50.814,40.818,50.738z"/>
<path fill="#040404" d="M44.259,57.578c-0.222-0.405-0.385-0.842-0.435-1.319c-0.014-0.127-0.057-0.18-0.196-0.173
	c-0.103,0.012-0.21-0.007-0.315-0.005c-0.066-0.002-0.101-0.021-0.113-0.089c-0.061-0.221-0.124-0.459-0.182-0.686
	c-0.047-0.207-0.084-0.175,0.125-0.271c0.039,0.238,0.088,0.48,0.164,0.722c0.034,0.106,0.104,0.177,0.229,0.173
	c0.005,0,0.011,0,0.012-0.003c0.37-0.009,0.47,0.095,0.468,0.456c-0.002,0.153,0.049,0.299,0.104,0.432
	c0.065,0.178,0.134,0.338,0.219,0.494C44.396,57.443,44.37,57.521,44.259,57.578z"/>
<path fill="#040404" d="M45.402,61.423c0.078-0.214,0.168-0.429,0.185-0.662c0.044-0.519-0.139-0.961-0.428-1.37
	c-0.039-0.055-0.078-0.05-0.13-0.024c-0.163,0.049-0.323,0.1-0.485,0.147c0.034-0.188,0.216-0.146,0.328-0.211
	c0.034-0.031,0.084-0.019,0.123-0.033c0.223-0.1,0.299-0.058,0.422,0.148c0.155,0.259,0.271,0.53,0.304,0.832
	C45.766,60.686,45.686,61.081,45.402,61.423z"/>
<path fill="#040404" d="M44.807,59.105c-0.111-0.197-0.189-0.416-0.277-0.611c-0.032-0.077-0.063-0.104-0.148-0.066
	c-0.301,0.12-0.611,0.221-0.916,0.334c-0.068,0.027-0.113,0.026-0.145-0.066c-0.049-0.153-0.1-0.32-0.172-0.475
	c-0.061-0.132-0.004-0.162,0.104-0.188c0.021,0,0.036-0.004,0.052-0.006c-0.027,0.104,0.045,0.183,0.07,0.262
	c0.016,0.063,0.045,0.1,0.059,0.137c0.06,0.172,0.137,0.207,0.303,0.137c0.248-0.104,0.5-0.188,0.76-0.265
	c0.084-0.03,0.143,0,0.176,0.074c0.085,0.17,0.166,0.334,0.245,0.512C44.95,58.991,44.852,59.038,44.807,59.105z"/>
<path fill="#040404" d="M43.104,53.561c0.235-0.515,0.213-1.031,0.026-1.554c-0.03-0.077-0.062-0.12-0.159-0.112
	c-0.176,0.019-0.354,0.018-0.529,0.024c0.024-0.117,0.098-0.153,0.211-0.147c0.134,0.008,0.266-0.002,0.393-0.013
	c0.129-0.017,0.212,0.046,0.247,0.158c0.104,0.339,0.171,0.685,0.103,1.042C43.339,53.18,43.305,53.407,43.104,53.561z"/>
<path fill="#040404" d="M43.448,54.764c-0.093-0.268-0.188-0.541-0.281-0.806c-0.005-0.043,0.011-0.078,0.06-0.081
	c0.053-0.001,0.084,0.025,0.11,0.066c0.077,0.105,0.072,0.242,0.127,0.357c0.032,0.068,0.056,0.146,0.076,0.225
	C43.564,54.632,43.542,54.71,43.448,54.764z"/>
<path fill="#040404" d="M42.507,55.925c0.009,0.033,0.019,0.063,0.029,0.099c0.017,0.063-0.002,0.088-0.063,0.092
	c-0.346,0.005-0.689,0.009-1.038,0.014c-0.038,0-0.065-0.013-0.074-0.059c-0.01-0.041-0.005-0.071,0.036-0.094
	c0.051-0.024,0.098-0.05,0.147-0.074c0.019-0.021,0.045-0.017,0.069,0.002c0.172,0.033,0.344-0.002,0.517,0.007
	c0.06,0.009,0.12,0.003,0.179,0.009C42.372,55.932,42.445,55.882,42.507,55.925z"/>
<path fill="#040404" d="M41.602,55.92c-0.016-0.02-0.037-0.013-0.058-0.009c0.247-0.154,0.513-0.288,0.765-0.429
	c0.055-0.031,0.084-0.025,0.103,0.045c0.026,0.142,0.086,0.26,0.099,0.408c-0.064-0.002-0.13,0.049-0.197,0.019
	c0.004-0.022,0.018-0.052,0.021-0.068c-0.009-0.084-0.026-0.182-0.093-0.225c-0.063-0.048-0.117,0.03-0.174,0.054
	c-0.107,0.053-0.207,0.133-0.314,0.188C41.7,55.904,41.659,55.939,41.602,55.92z"/>
<path fill="#040404" d="M41.508,47.865c0.027,0.238,0.027,0.238-0.204,0.176c-0.278-0.074-0.556-0.148-0.831-0.23
	c-0.046-0.013-0.105-0.009-0.106-0.084c-0.001-0.078,0.059-0.086,0.11-0.098c0.055-0.011,0.114-0.018,0.173-0.027
	c0.038,0.021-0.021,0.053,0.009,0.075c0.211,0.029,0.411,0.107,0.614,0.159C41.357,47.828,41.436,47.813,41.508,47.865z"/>
<path fill="#040404" d="M40.619,47.695c-0.036,0.002-0.061-0.008-0.024-0.041c0.017-0.022,0.056-0.016,0.059-0.055
	c0.263-0.063,0.527-0.125,0.795-0.187c0.065-0.019,0.081,0.017,0.079,0.069c-0.004,0.123-0.013,0.248-0.02,0.373
	c-0.079,0.009-0.154-0.012-0.232,0.019c-0.013-0.062-0.005-0.118-0.009-0.176c-0.002-0.116-0.026-0.134-0.138-0.117
	C40.959,47.605,40.794,47.688,40.619,47.695z"/>
<path fill="#040404" d="M42.697,60.46c0.011-0.024-0.031-0.071,0.021-0.082c0.052-0.003,0.091,0.017,0.117,0.063
	c0.054,0.095,0.075,0.211,0.136,0.311c0.194,0.342,0.459,0.585,0.871,0.6c0.182,0.006,0.357-0.026,0.521-0.111
	c-0.342,0.322-0.891,0.33-1.244,0.018C42.883,61.042,42.748,60.771,42.697,60.46z"/>
<path fill="#F2F0F1" d="M41.602,55.92c0.193-0.102,0.379-0.215,0.568-0.329c0.061-0.034,0.094-0.039,0.119,0.04
	c0.021,0.063,0.046,0.143,0.08,0.215c0.023,0.059,0,0.098-0.061,0.104c-0.197,0.005-0.397,0.009-0.599,0.01
	C41.673,55.947,41.628,55.975,41.602,55.92z"/>
<path fill="#EBEBEB" d="M40.619,47.695c0.195-0.098,0.414-0.122,0.62-0.17c0.034-0.006,0.062-0.002,0.063,0.041
	c0,0.104,0.033,0.209-0.021,0.312C41.061,47.807,40.842,47.738,40.619,47.695z"/>
<path fill="#040404" d="M43.596,54.415c0.149-0.044,0.301-0.09,0.453-0.132c0.044-0.012,0.092-0.006,0.137-0.01
	c0.01-0.002,0.024,0.016,0.029-0.002c0.037-0.021,0.076-0.037,0.112-0.076c-0.022,0-0.052-0.006-0.074,0.002
	c-0.06,0.008-0.112,0.019-0.166,0.033c-0.032,0.006-0.045-0.004-0.051-0.035c-0.021-0.131-0.042-0.262-0.067-0.389
	c-0.018-0.094-0.017-0.178,0.02-0.261c0.019-0.03,0.007-0.063-0.018-0.09c-0.078-0.116-0.121-0.247-0.135-0.378
	c-0.016-0.146,0-0.28,0.063-0.408c0.06-0.115,0.153-0.206,0.281-0.255c0.036-0.021,0.074-0.028,0.113-0.044
	c-0.092-0.055-0.186-0.012-0.275-0.012c-0.056-0.002-0.105,0.002-0.166,0.007c-0.025,0-0.043-0.015-0.043-0.046
	c-0.002-0.021-0.002-0.045-0.002-0.063c-0.002-0.048-0.021-0.069-0.072-0.063c-0.075,0.008-0.15,0.027-0.229,0.033
	c-0.066,0-0.132-0.01-0.199-0.011c-0.01-0.161-0.017-0.319-0.024-0.483c0.003-0.023-0.003-0.059-0.003-0.08
	c0-0.043,0.031-0.069,0.076-0.073c0.113-0.003,0.229-0.011,0.349-0.019c0.053,0,0.11-0.016,0.159,0.004
	c0.103,0.026,0.187-0.031,0.279-0.031c0.146,0.002,0.295-0.008,0.441-0.014c0.063,0.004,0.118-0.002,0.182,0
	c0.039,0.002,0.053-0.021,0.055-0.063c0.015-0.103-0.063-0.133-0.12-0.177c-0.009-0.012-0.043,0.005-0.056,0.017
	c-0.057,0.054-0.119,0.101-0.196,0.128c-0.138,0.057-0.357,0.018-0.468-0.092c-0.166-0.165-0.198-0.368-0.192-0.589
	c0-0.104,0.021-0.208,0.06-0.313c0.053-0.15,0.135-0.281,0.301-0.334c0.016-0.005,0.033-0.013,0.049-0.01
	c0.111,0.008,0.226,0.018,0.34,0.023c0.009,0.002,0.02,0.016,0.023,0.027c0.004,0.014,0.002,0.024,0.004,0.043
	c0.006,0.025,0.017,0.047,0.045,0.016c0.108-0.086,0.236-0.12,0.371-0.104c0.125,0.015,0.234,0.069,0.315,0.171
	c0.138,0.17,0.168,0.364,0.146,0.571c-0.01,0.159-0.063,0.308-0.149,0.444c-0.015,0.019-0.021,0.035-0.034,0.068
	c0.033,0.006,0.057,0.008,0.077,0.004c0.056,0.002,0.065,0.018,0.065,0.066c-0.004,0.096-0.002,0.186-0.002,0.275
	c0.002,0.121,0.004,0.242-0.086,0.345c-0.027,0.03-0.063,0.062-0.09,0.103c0.039-0.004,0.077-0.002,0.116-0.014
	c0.063-0.004,0.075,0.004,0.074,0.078c-0.002,0.05,0.009,0.1,0.009,0.146c0.005,0.084,0.018,0.172,0.016,0.262
	c-0.01,0.175-0.119,0.298-0.307,0.318s-0.384,0.031-0.574,0.053c-0.13,0.019-0.158,0.08-0.084,0.19
	c0.064,0.097,0.164,0.119,0.271,0.109c0.152-0.021,0.311-0.054,0.462-0.072c0.082-0.01,0.163-0.021,0.239-0.028
	c0.031,0.002,0.053,0.008,0.059,0.047c0.063,0.338,0.12,0.677,0.178,1.017c0.021,0.104-0.012,0.194-0.091,0.278
	c-0.003,0.006-0.008,0.011-0.01,0.017c-0.003,0.002-0.002,0.006-0.004,0.021c0.024-0.004,0.058,0.002,0.08-0.004
	c0.081-0.018,0.084-0.018,0.108,0.064c0.035,0.141,0.073,0.281,0.104,0.428c0.021,0.102-0.046,0.221-0.133,0.275
	c-0.108,0.063-0.235,0.089-0.354,0.133c-0.117,0.046-0.24,0.068-0.361,0.111c-0.063,0.021-0.073,0.068-0.025,0.111
	c0.074,0.072,0.168,0.086,0.262,0.059c0.219-0.063,0.424-0.146,0.639-0.211c0.035-0.019,0.082-0.037,0.107-0.034
	c0.025,0.015,0.029,0.063,0.043,0.099c0.049,0.139,0.096,0.264,0.143,0.41c0.021,0.059,0.009,0.063-0.049,0.078
	c-0.146,0.053-0.299,0.115-0.449,0.162c-0.11,0.048-0.229,0.089-0.342,0.131c-0.026,0.014-0.059,0.035-0.08,0.053
	c-0.012,0.01-0.006,0.045,0.004,0.063c0.033,0.056,0.09,0.08,0.148,0.08c0.082,0.008,0.158-0.021,0.232-0.051
	c0.07-0.033,0.137-0.062,0.209-0.092c0.121-0.047,0.24-0.103,0.363-0.148c0.066-0.029,0.067-0.021,0.097,0.047
	c0.022,0.063,0.061,0.135,0.09,0.206c0.035,0.081,0.063,0.169,0.101,0.254c0.008,0.021,0.004,0.046-0.022,0.062
	c-0.146,0.063-0.296,0.125-0.44,0.191c-0.124,0.061-0.249,0.113-0.371,0.178c-0.066,0.034-0.074,0.075-0.033,0.146
	c0.028,0.055,0.027,0.053-0.025,0.068c-0.141,0.065-0.278,0.133-0.413,0.197c-0.031,0.021-0.056,0.021-0.067-0.012
	c-0.027-0.051-0.051-0.098-0.068-0.139c-0.043-0.098-0.092-0.199-0.127-0.293c-0.014-0.039-0.012-0.088-0.012-0.127
	c0.002-0.063-0.009-0.104-0.052-0.14c-0.138-0.12-0.211-0.28-0.231-0.465c-0.01-0.083-0.01-0.164,0.021-0.243
	c0.017-0.023,0.003-0.049-0.021-0.061c-0.108-0.084-0.188-0.196-0.233-0.314c-0.041-0.098-0.063-0.22-0.058-0.336
	c0.009-0.107,0.037-0.199,0.1-0.285c0.057-0.074,0.124-0.133,0.213-0.174c0.008-0.005,0.02-0.01,0.021-0.018
	c0.002-0.006,0.004-0.008,0.012-0.023c-0.034,0-0.063-0.005-0.088,0.002c-0.104,0.025-0.2,0.051-0.299,0.08
	c-0.067,0.021-0.084,0.018-0.101-0.047c-0.024-0.102-0.022-0.102-0.128-0.081c-0.121,0.03-0.246,0.058-0.371,0.083
	C43.671,54.811,43.634,54.611,43.596,54.415z M45.078,56.911c-0.02,0.043-0.046,0.083-0.045,0.123
	c0.002,0.059,0.021,0.114,0.039,0.168c0.027,0.067,0.064,0.137,0.091,0.208c0.021,0.061,0.03,0.063,0.083,0.048
	c0.066-0.034,0.136-0.063,0.197-0.103c0.02-0.014,0.037-0.028,0.018-0.063c-0.011-0.022-0.021-0.058-0.035-0.082
	c-0.011-0.021-0.003-0.038,0.016-0.046c0.067-0.033,0.137-0.063,0.201-0.098c0.221-0.101,0.443-0.196,0.664-0.301
	c0.031-0.014,0.041-0.029,0.027-0.063c-0.029-0.061-0.055-0.112-0.078-0.18c-0.044-0.107-0.063-0.114-0.174-0.068
	c-0.078,0.036-0.156,0.064-0.232,0.104c-0.078,0.039-0.16,0.064-0.238,0.107c-0.121,0.05-0.237,0.036-0.354-0.014
	c-0.073-0.028-0.112-0.098-0.146-0.163c-0.021-0.063-0.012-0.105,0.027-0.148c0.064-0.073,0.148-0.093,0.231-0.116
	c0.085-0.035,0.174-0.061,0.257-0.091c0.117-0.043,0.232-0.094,0.352-0.136c0.045-0.018,0.062-0.025,0.041-0.075
	c-0.025-0.082-0.056-0.157-0.082-0.239c-0.012-0.026-0.033-0.052-0.064-0.035c-0.076,0.035-0.158,0.054-0.234,0.08
	c-0.087,0.037-0.174,0.058-0.256,0.092c-0.115,0.054-0.229,0.066-0.354,0.027c-0.104-0.037-0.192-0.111-0.207-0.236
	c-0.006-0.047,0-0.086,0.041-0.111c0.048-0.032,0.099-0.061,0.152-0.082c0.191-0.061,0.396-0.123,0.592-0.182
	c0.099-0.029,0.148-0.116,0.127-0.217c-0.022-0.1-0.055-0.186-0.078-0.289c-0.014-0.03-0.036-0.041-0.07-0.029
	c-0.039,0.015-0.082,0.027-0.123,0.042c-0.119,0.021-0.119,0.021-0.096,0.138c0.007,0.028,0.004,0.051-0.03,0.061
	c-0.149,0.041-0.302,0.078-0.448,0.117c-0.063,0.022-0.133,0.045-0.188,0.077c-0.057,0.031-0.108,0.075-0.146,0.117
	c-0.074,0.093-0.096,0.199-0.08,0.324c0.023,0.149,0.067,0.294,0.19,0.399c0.044,0.041,0.093,0.065,0.14,0.104
	c0.021,0.019,0.049,0.017,0.027,0.06c-0.05,0.07-0.07,0.139-0.072,0.223c-0.005,0.182,0.068,0.318,0.188,0.443
	C44.979,56.843,45.032,56.876,45.078,56.911z M44.813,53.788c0.211-0.036,0.39-0.06,0.563-0.087c0.037-0.01,0.06-0.034,0.054-0.074
	c-0.017-0.087-0.031-0.174-0.049-0.262c-0.007-0.03-0.021-0.047-0.054-0.039c-0.188,0.031-0.388,0.055-0.575,0.08
	c-0.038,0.005-0.07,0.014-0.105,0.013c-0.164-0.015-0.291-0.096-0.34-0.265c-0.021-0.072-0.043-0.149,0.017-0.217
	c0.05-0.063,0.12-0.076,0.194-0.082c0.032-0.006,0.066,0.002,0.104-0.006c0.123-0.017,0.247-0.026,0.372-0.041
	c0.049-0.004,0.1-0.013,0.146-0.021c0.084-0.02,0.139-0.064,0.145-0.154c0.01-0.109-0.004-0.232-0.008-0.347
	c-0.004-0.019-0.029-0.036-0.045-0.037c-0.064-0.002-0.131,0.003-0.197,0.002c-0.072,0.003-0.081,0.019-0.078,0.089
	c0.005,0.092,0.005,0.092-0.08,0.094c-0.008,0-0.02,0-0.021,0.002c-0.07,0.004-0.146,0.013-0.226,0.02
	c-0.12,0.018-0.233,0.029-0.354,0.049c-0.063,0.002-0.118,0.045-0.174,0.084c-0.125,0.096-0.156,0.23-0.156,0.374
	c0.01,0.188,0.049,0.369,0.195,0.507c0.02,0.016,0.024,0.027,0.006,0.047c-0.082,0.07-0.08,0.166-0.07,0.26
	c0.006,0.074,0.023,0.146,0.04,0.229c0.01,0.054,0.021,0.062,0.071,0.05c0.071-0.012,0.144-0.021,0.205-0.041
	c0.047-0.013,0.059-0.021,0.045-0.068c-0.006-0.021-0.006-0.037-0.014-0.063c-0.021-0.049,0.008-0.06,0.049-0.063
	C44.6,53.83,44.721,53.805,44.813,53.788z M45.298,50.62c-0.019-0.16-0.137-0.321-0.266-0.368c-0.13-0.044-0.315-0.013-0.408,0.104
	c-0.075,0.1-0.126,0.209-0.176,0.318c-0.031,0.07-0.067,0.145-0.097,0.215c-0.021,0.029-0.055,0.051-0.08,0.036
	c-0.023-0.01-0.047-0.034-0.055-0.057c-0.021-0.07-0.021-0.146,0.008-0.22c0.018-0.041,0.045-0.061,0.088-0.051
	c0.053,0.01,0.074-0.012,0.078-0.064c0.004-0.044,0.004-0.086,0.006-0.127c0.004-0.045,0.008-0.088,0.012-0.129
	c0-0.027-0.01-0.049-0.047-0.047c-0.026,0.004-0.057-0.002-0.08-0.006c-0.122-0.02-0.217,0.024-0.279,0.135
	c-0.061,0.104-0.092,0.222-0.102,0.34c-0.01,0.111-0.008,0.229,0.024,0.339c0.054,0.157,0.14,0.269,0.313,0.293
	c0.13,0.017,0.228-0.038,0.311-0.126c0.09-0.096,0.126-0.217,0.188-0.335c0.039-0.074,0.08-0.156,0.125-0.229
	c0.018-0.029,0.068-0.078,0.096-0.05c0.025,0.023,0.034,0.099,0.036,0.132c-0.002,0.068-0.013,0.146-0.036,0.209
	c-0.027,0.078-0.087,0.146-0.152,0.202c-0.033,0.03-0.033,0.052,0,0.078c0.047,0.047,0.094,0.082,0.141,0.121
	c0.055,0.053,0.074,0.05,0.129-0.001c0.078-0.082,0.136-0.175,0.177-0.282C45.302,50.913,45.316,50.77,45.298,50.62z M44.122,51.671
	c-0.124,0.019-0.185,0.036-0.201,0.165c-0.017,0.094-0.009,0.193-0.01,0.286c0,0.03,0.003,0.063,0.011,0.096
	c0.006,0.019,0.028,0.034,0.042,0.033c0.07,0.002,0.144-0.006,0.216-0.002c0.059-0.006,0.063-0.021,0.057-0.078
	c-0.014-0.106-0.014-0.106,0.096-0.116c0.01-0.003,0.021-0.005,0.021-0.004c0.121-0.002,0.239-0.003,0.364-0.006
	c0.107-0.01,0.22-0.01,0.326-0.02c0.151-0.008,0.214-0.088,0.208-0.219c-0.003-0.084,0-0.168,0.002-0.257
	c0.001-0.032-0.01-0.049-0.05-0.05c-0.067-0.003-0.138-0.002-0.208-0.003c-0.042-0.002-0.063,0.007-0.064,0.049
	c0.002,0.021-0.002,0.042,0.002,0.063c0.008,0.033-0.008,0.057-0.043,0.057c-0.063-0.001-0.123,0.001-0.188,0
	c-0.105,0.003-0.212,0.001-0.314,0.005C44.287,51.664,44.186,51.668,44.122,51.671z M44.751,54.244
	c0.004,0.007,0.005,0.021,0.005,0.021c-0.129,0.022-0.256,0.049-0.383,0.071c-0.098,0.021-0.155,0.074-0.143,0.177
	c0.013,0.127,0.049,0.258,0.076,0.389c0.002,0.021,0.025,0.023,0.057,0.018c0.072-0.021,0.144-0.045,0.217-0.063
	c0.025-0.01,0.036-0.029,0.027-0.057c-0.006-0.021-0.018-0.059-0.021-0.08c-0.01-0.025,0.002-0.041,0.03-0.054
	c0.257-0.062,0.51-0.12,0.763-0.174c0.145-0.039,0.18-0.108,0.16-0.245c-0.012-0.088-0.034-0.173-0.055-0.257
	c-0.01-0.037-0.026-0.062-0.063-0.052c-0.057,0.006-0.107,0.016-0.162,0.031c-0.101,0.019-0.103,0.021-0.082,0.121
	c0,0.004,0.002,0.012,0.006,0.021c0.004,0.021-0.008,0.044-0.035,0.049C45.02,54.193,44.883,54.221,44.751,54.244z M43.419,52.049
	c0.005,0.043,0.019,0.055,0.075,0.049c0.079-0.002,0.15-0.008,0.229-0.01c0.051-0.002,0.064-0.013,0.066-0.063
	c-0.002-0.092-0.006-0.184-0.006-0.271c-0.002-0.033-0.02-0.055-0.055-0.054c-0.08,0.002-0.156,0.008-0.236,0.003
	c-0.059-0.001-0.079,0.014-0.078,0.07C43.411,51.861,43.417,51.949,43.419,52.049z M43.893,54.461l0.002,0.001
	c-0.043,0.011-0.093,0.021-0.14,0.022c-0.024,0.012-0.04,0.025-0.032,0.057c0.021,0.098,0.039,0.189,0.062,0.289
	c0.005,0.025,0.021,0.043,0.053,0.035c0.088-0.018,0.175-0.038,0.265-0.061c0.035-0.014,0.051-0.035,0.043-0.076
	c-0.006-0.021-0.021-0.049-0.025-0.069c-0.016-0.062-0.027-0.12-0.04-0.187c-0.009-0.027-0.027-0.051-0.063-0.037
	C43.973,54.45,43.932,54.456,43.893,54.461z M44.79,52.323c0.038-0.001,0.048-0.017,0.042-0.054c0-0.021-0.002-0.049-0.003-0.072
	c0.001-0.035-0.019-0.051-0.058-0.047c-0.106,0.006-0.215,0.008-0.324,0.01c-0.067,0.005-0.082,0.018-0.072,0.086
	c0.003,0.023,0.005,0.053,0.014,0.078c0.004,0.014,0.027,0.031,0.041,0.029C44.549,52.348,44.669,52.335,44.79,52.323z
	 M45.046,54.691c0.001-0.002-0.001-0.004-0.001-0.004c-0.082,0.021-0.164,0.041-0.245,0.065c-0.05,0.021-0.058,0.031-0.041,0.073
	c0.007,0.021,0.017,0.055,0.021,0.068c0.007,0.022,0.025,0.039,0.056,0.031c0.11-0.043,0.231-0.068,0.351-0.102
	c0.026-0.01,0.039-0.029,0.03-0.051c-0.015-0.043,0.003-0.1-0.052-0.117c-0.012-0.004-0.021,0-0.033,0.001
	C45.104,54.678,45.077,54.684,45.046,54.691z M44.796,53.921L44.796,53.921c-0.034,0.003-0.067,0.005-0.103,0.015
	c-0.146,0.027-0.125,0.01-0.103,0.15c0.011,0.038,0.026,0.053,0.063,0.044c0.091-0.021,0.184-0.038,0.271-0.058
	c0.134-0.025,0.117-0.016,0.101-0.143c-0.008-0.05-0.017-0.061-0.062-0.05C44.91,53.896,44.852,53.907,44.796,53.921z"/>
<path fill="#F4F4F4" d="M45.078,56.911c-0.046-0.035-0.102-0.069-0.146-0.11c-0.115-0.121-0.188-0.266-0.187-0.443
	c0.005-0.082,0.021-0.155,0.069-0.223c0.021-0.029-0.008-0.039-0.024-0.051c-0.048-0.036-0.099-0.068-0.142-0.107
	c-0.121-0.104-0.164-0.244-0.188-0.396c-0.019-0.126,0.005-0.23,0.079-0.33c0.039-0.045,0.092-0.082,0.146-0.12
	c0.059-0.028,0.129-0.046,0.188-0.071c0.146-0.05,0.298-0.08,0.451-0.113c0.028-0.021,0.036-0.028,0.028-0.065
	c-0.021-0.104-0.021-0.104,0.098-0.142c0.04-0.01,0.081-0.024,0.122-0.036c0.032-0.011,0.058,0,0.065,0.028
	c0.027,0.102,0.059,0.186,0.08,0.293c0.021,0.101-0.029,0.191-0.125,0.215c-0.197,0.062-0.396,0.119-0.595,0.176
	c-0.054,0.027-0.104,0.047-0.151,0.088c-0.039,0.025-0.043,0.072-0.041,0.115c0.012,0.121,0.104,0.205,0.205,0.236
	c0.127,0.041,0.239,0.021,0.359-0.027c0.08-0.037,0.165-0.059,0.251-0.094c0.076-0.03,0.157-0.053,0.235-0.076
	c0.033-0.014,0.056-0.004,0.064,0.033c0.029,0.076,0.057,0.153,0.082,0.237c0.021,0.06,0.01,0.063-0.041,0.076
	c-0.113,0.042-0.229,0.097-0.35,0.131c-0.084,0.038-0.176,0.06-0.26,0.095c-0.078,0.037-0.164,0.055-0.229,0.107
	c-0.042,0.039-0.055,0.094-0.029,0.156c0.03,0.063,0.07,0.135,0.146,0.16c0.115,0.057,0.236,0.068,0.355,0.014
	c0.078-0.037,0.162-0.066,0.238-0.102c0.078-0.037,0.158-0.063,0.232-0.104c0.111-0.049,0.131-0.048,0.177,0.068
	c0.021,0.062,0.046,0.113,0.075,0.177c0.015,0.028,0.003,0.053-0.026,0.065c-0.219,0.102-0.44,0.195-0.664,0.299
	c-0.063,0.035-0.134,0.063-0.198,0.097c-0.02,0.017-0.025,0.031-0.017,0.048c0.015,0.021,0.022,0.061,0.036,0.087
	c0.016,0.022,0.007,0.054-0.018,0.063C45.37,57.4,45.3,57.43,45.234,57.463c-0.051,0.021-0.063,0-0.08-0.045
	c-0.026-0.063-0.063-0.137-0.092-0.213c-0.021-0.055-0.041-0.104-0.041-0.167C45.033,56.994,45.061,56.954,45.078,56.911z"/>
<path fill="#F4F4F4" d="M44.813,53.788c-0.092,0.017-0.213,0.042-0.342,0.065c-0.039,0.006-0.063,0.015-0.046,0.063
	c0.007,0.02,0.005,0.039,0.011,0.061c0.017,0.053,0.006,0.063-0.041,0.075c-0.067,0.011-0.139,0.023-0.207,0.041
	c-0.051,0.009-0.063-0.003-0.07-0.049c-0.016-0.077-0.031-0.146-0.04-0.229c-0.011-0.092-0.013-0.188,0.071-0.258
	c0.02-0.02,0.015-0.035-0.006-0.049c-0.146-0.14-0.188-0.318-0.193-0.507c-0.004-0.146,0.029-0.276,0.154-0.374
	c0.055-0.038,0.106-0.081,0.174-0.084c0.119-0.018,0.234-0.029,0.355-0.047c0.07-0.008,0.145-0.018,0.223-0.021
	c0.008,0,0.017-0.002,0.021,0c0.082-0.006,0.082-0.006,0.081-0.093c-0.002-0.065,0.006-0.079,0.077-0.087
	c0.066,0,0.133-0.004,0.197-0.001c0.017,0.001,0.045,0.021,0.043,0.035c0.007,0.114,0.019,0.231,0.01,0.345
	c-0.003,0.088-0.061,0.137-0.143,0.155c-0.051,0.008-0.104,0.013-0.146,0.021c-0.125,0.018-0.248,0.027-0.372,0.043
	c-0.036,0-0.067,0-0.104,0.006c-0.076,0.002-0.146,0.021-0.195,0.078c-0.057,0.068-0.034,0.146-0.014,0.219
	c0.049,0.171,0.172,0.244,0.336,0.267c0.037,0.004,0.072-0.006,0.105-0.012c0.189-0.028,0.385-0.058,0.578-0.082
	c0.031-0.007,0.044,0.009,0.051,0.039c0.014,0.085,0.032,0.175,0.047,0.268c0.006,0.035-0.014,0.063-0.052,0.071
	C45.2,53.729,45.023,53.752,44.813,53.788z"/>
<path fill="#F4F4F4" d="M45.298,50.62c0.021,0.149,0.007,0.293-0.045,0.435c-0.043,0.108-0.103,0.199-0.178,0.282
	c-0.056,0.052-0.076,0.047-0.132,0c-0.043-0.041-0.092-0.081-0.139-0.121c-0.033-0.024-0.033-0.052,0-0.079
	c0.063-0.06,0.127-0.125,0.151-0.207c0.021-0.063,0.037-0.136,0.03-0.205c-0.01-0.173-0.113-0.113-0.133-0.084
	c-0.043,0.075-0.088,0.156-0.121,0.233c-0.055,0.117-0.104,0.235-0.188,0.336c-0.083,0.092-0.182,0.144-0.309,0.123
	c-0.176-0.021-0.266-0.136-0.316-0.292c-0.031-0.111-0.035-0.225-0.027-0.342c0.014-0.113,0.041-0.232,0.104-0.334
	c0.062-0.107,0.157-0.153,0.276-0.135c0.028,0.008,0.057,0.008,0.082,0.006c0.035-0.002,0.047,0.012,0.045,0.047
	c-0.002,0.042-0.004,0.085-0.008,0.129c-0.002,0.04-0.004,0.085-0.006,0.129c-0.006,0.055-0.025,0.073-0.082,0.063
	c-0.041-0.008-0.068,0.008-0.09,0.051c-0.023,0.072-0.025,0.15-0.004,0.223c0.007,0.021,0.027,0.051,0.053,0.061
	c0.028,0.012,0.063-0.004,0.076-0.039c0.033-0.074,0.067-0.144,0.104-0.215c0.051-0.117,0.102-0.227,0.179-0.316
	c0.087-0.114,0.276-0.151,0.399-0.105C45.163,50.298,45.279,50.462,45.298,50.62z"/>
<path fill="#F4F4F4" d="M44.122,51.671c0.063-0.005,0.165-0.005,0.267-0.009c0.106-0.005,0.213-0.005,0.317-0.005
	c0.063,0.001,0.125-0.001,0.188,0c0.035,0.003,0.049-0.023,0.043-0.06c-0.004-0.021-0.004-0.043-0.004-0.063
	c0.006-0.042,0.021-0.054,0.064-0.052c0.064,0.006,0.139,0.007,0.21,0.002c0.036,0.005,0.047,0.019,0.047,0.057
	c-0.004,0.084-0.004,0.164,0,0.251c0.007,0.133-0.055,0.214-0.208,0.218c-0.107,0.006-0.219,0.016-0.326,0.021
	c-0.121,0.003-0.24,0.011-0.363,0.007c-0.01,0-0.021-0.001-0.026,0.001c-0.106,0.011-0.106,0.011-0.093,0.115
	c0.009,0.063-0.002,0.068-0.063,0.076c-0.063,0-0.142,0.009-0.213,0.008c-0.015-0.002-0.036-0.021-0.04-0.036
	c-0.01-0.028-0.011-0.063-0.013-0.095c0.003-0.098-0.007-0.191,0.012-0.291C43.939,51.703,43.995,51.688,44.122,51.671z"/>
<path fill="#F4F4F4" d="M44.751,54.244c0.134-0.023,0.267-0.053,0.401-0.077c0.027-0.006,0.037-0.021,0.033-0.049
	c-0.002-0.009-0.002-0.011-0.002-0.019c-0.025-0.104-0.021-0.104,0.08-0.123c0.053-0.015,0.104-0.021,0.159-0.031
	c0.037-0.006,0.056,0.01,0.063,0.052c0.019,0.09,0.045,0.176,0.055,0.267c0.021,0.137-0.021,0.202-0.159,0.237
	c-0.253,0.072-0.506,0.122-0.764,0.177c-0.03,0.008-0.037,0.025-0.032,0.049c0.006,0.021,0.016,0.063,0.021,0.088
	c0.006,0.021,0,0.043-0.026,0.049c-0.073,0.025-0.144,0.053-0.22,0.064c-0.024,0.008-0.049,0.004-0.057-0.021
	c-0.027-0.136-0.066-0.263-0.076-0.39c-0.014-0.104,0.045-0.158,0.145-0.18c0.127-0.023,0.253-0.05,0.381-0.068
	C44.754,54.259,44.755,54.251,44.751,54.244z"/>
<path fill="#F4F4F4" d="M43.419,52.049c-0.003-0.101-0.008-0.189-0.008-0.275c0-0.061,0.022-0.068,0.08-0.066
	c0.077-0.004,0.155,0,0.233-0.005c0.037,0.003,0.053,0.017,0.053,0.052c0.005,0.096,0.007,0.186,0.009,0.271
	c-0.002,0.055-0.017,0.063-0.067,0.063c-0.074-0.001-0.148,0.005-0.229,0.012C43.436,52.104,43.426,52.092,43.419,52.049z"/>
<path fill="#F4F4F4" d="M43.893,54.461c0.041-0.006,0.082-0.011,0.121-0.023c0.034-0.008,0.053,0.008,0.063,0.041
	c0.014,0.063,0.024,0.121,0.04,0.185c0.007,0.022,0.021,0.055,0.025,0.067c0.01,0.043-0.006,0.069-0.045,0.082
	c-0.086,0.021-0.174,0.037-0.259,0.061c-0.03,0.009-0.048-0.012-0.053-0.035c-0.021-0.098-0.04-0.191-0.062-0.289
	c-0.009-0.027,0.01-0.043,0.031-0.052c0.049-0.011,0.096-0.019,0.143-0.021C43.895,54.464,43.893,54.461,43.893,54.461z"/>
<path fill="none" stroke="#020202" stroke-width="0.15" stroke-miterlimit="10" d="M50.25,33.781h1.563 M50.25,32.688h1.844
	 M50.25,31.578h1.844"/>
<path fill="none" stroke="#020202" stroke-width="0.15" stroke-miterlimit="10" d="M50.878,12.33
	c-1.392,0.076-2.381-0.341-2.381-0.341v-0.001l-0.981-0.325c-0.338-0.113-0.559-0.438-0.494-0.726
	c0.049-0.215,0.242-0.349,0.479-0.356l-0.167-0.056c-0.34-0.113-0.563-0.438-0.497-0.726c0.063-0.289,0.39-0.431,0.728-0.319
	L48.9,9.922l0.011-0.055l-1.543-0.513c-0.339-0.113-0.56-0.438-0.497-0.726c0.059-0.264,0.34-0.396,0.646-0.332
	c-0.19-0.169-0.301-0.411-0.248-0.638c0.068-0.318,0.416-0.483,0.776-0.374c0.638,0.191,0.667,0.271,1.8,0.626
	C53.246,8.979,53.898,12.165,50.878,12.33z M47.484,8.25l1.531,0.641 M47.297,10.594l1.375,0.344"/>
<path fill="#ED2224" stroke="#231F20" stroke-width="0.15" stroke-miterlimit="10" d="M74.736,24.944
	c0-2.886-2.338-5.315-5.225-5.425c-2.888-0.11-5.229,2.141-5.229,5.027c0,2.886,2.341,5.315,5.229,5.425
	C72.398,30.081,74.736,27.83,74.736,24.944z"/>
<path fill="#FFFFFF" d="M70.689,24.79c0-0.65-0.527-1.198-1.178-1.222c-0.65-0.025-1.18,0.483-1.18,1.133
	c0,0.65,0.525,1.197,1.18,1.222C70.162,25.947,70.689,25.44,70.689,24.79z"/>
<path fill="none" stroke="#020202" stroke-width="0.5" stroke-linecap="round" stroke-miterlimit="10" d="M34.061,23.946
	c0.31-0.205,0.665-0.352,1.053-0.424c0.511-0.095,1.017-0.047,1.474,0.115"/>
<path fill="none" stroke="#020202" stroke-width="0.5" stroke-linecap="round" stroke-miterlimit="10" d="M40.704,22.714
	c0.31-0.205,0.665-0.352,1.053-0.424c0.513-0.095,1.019-0.047,1.476,0.115"/>
<path fill="#F4F4F4" stroke="#020202" stroke-width="0.15" stroke-miterlimit="10" d="M35.603,27.505
	c-0.651,0.121-1.276-0.309-1.397-0.959c-0.121-0.651,0.309-1.276,0.96-1.397s1.276,0.309,1.396,0.96
	C36.684,26.759,36.253,27.384,35.603,27.505z M42.568,26.213c-0.652,0.121-1.276-0.309-1.397-0.959
	c-0.122-0.651,0.308-1.277,0.959-1.397c0.651-0.121,1.274,0.309,1.396,0.96C43.648,25.467,43.219,26.092,42.568,26.213z"/>
<path fill="#020202" d="M42.966,24.92c0.063,0.341-0.161,0.668-0.502,0.731s-0.668-0.162-0.732-0.502
	c-0.063-0.341,0.162-0.669,0.502-0.732C42.576,24.354,42.902,24.579,42.966,24.92"/>
<path fill="#FFFFFF" d="M42.777,24.77c0.019,0.105-0.051,0.207-0.156,0.227s-0.208-0.05-0.229-0.156
	c-0.021-0.105,0.051-0.207,0.153-0.227C42.654,24.594,42.757,24.664,42.777,24.77"/>
<path fill="#020202" d="M36.001,26.212c0.063,0.341-0.162,0.669-0.502,0.732c-0.341,0.063-0.668-0.162-0.732-0.503
	c-0.063-0.341,0.162-0.668,0.503-0.732C35.61,25.646,35.938,25.871,36.001,26.212"/>
<path fill="#FFFFFF" d="M35.812,26.062c0.019,0.106-0.05,0.207-0.156,0.227c-0.106,0.02-0.208-0.05-0.227-0.155
	c-0.02-0.106,0.05-0.208,0.155-0.227C35.69,25.886,35.792,25.956,35.812,26.062"/>
</svg>
