<svg xmlns="http://www.w3.org/2000/svg" width="29" height="98" fill="none"><rect id="backgroundrect" width="100%" height="100%" x="0" y="0" fill="none" stroke="none"/>








<g class="currentLayer" style=""><title>Layer 1</title><path d="M25.356898114013674,21.67248987083435 L3.8832981140136695,21.67248987083435 L11.526598114013673,1.0669898708343508 C11.76449811401367,0.4258398708343507 12.375998114013669,0.00035987083435085054 13.05989811401367,0.00035987083435085054 L16.180298114013674,0.00035987083435085054 C16.864198114013675,0.00035987083435085054 17.475698114013674,0.4258398708343507 17.71359811401367,1.0669898708343508 L25.356898114013674,21.67248987083435 z" fill="#006C39" id="svg_1" class=""/><path opacity="0.15" d="M11.526598114013673,1.0667498708343506 L3.88309811401367,21.67238987083435 L25.356898114013674,21.67238987083435 L23.933198114013678,17.83458987083435 L8.334198114013674,17.83458987083435 L13.61509811401367,3.5976398708343504 C13.852998114013673,2.9564898708343508 14.464598114013668,2.5310098708343505 15.14849811401367,2.5310098708343505 L18.25639811401367,2.5310098708343505 L17.713298114013675,1.0666298708343507 C17.47539811401367,0.42547987083435057 16.863898114013672,-1.2916564928744378e-7 16.17999811401367,0.000009870834350778068 L13.059598114013674,-1.2916564928744378e-7 C12.376198114013675,-1.2916564928744378e-7 11.76449811401367,0.42559987083435047 11.526598114013673,1.0667498708343506 z" fill="black" id="svg_2" class=""/><path d="M26.258098114013677,21.67228987083435 L2.982498114013673,21.67228987083435 C1.3354981140136744,21.67248987083435 0.00039811401367018107,23.00758987083435 0.00029811401367396684,24.65458987083435 L0.00019811401367064718,95.04428987083435 C0.00029811401367396684,96.69128987083435 1.335398114013671,98.02618987083434 2.9823981140136695,98.02618987083434 L26.258198114013666,98.02618987083434 C27.90509811401367,98.02618987083434 29.24029811401367,96.69128987083435 29.240398114013672,95.04428987083435 L29.240398114013672,24.65448987083435 C29.24029811401367,23.007489870834352 27.905198114013672,21.67228987083435 26.258098114013677,21.67228987083435 z" fill="#006C39" id="svg_3" class=""/><path opacity="0.5" d="M0.0007981140136692488,93.52458987083435 L29.240898114013675,93.52458987083435 L29.240898114013675,26.17268987083435 L0.0008981140136725685,26.17268987083435 L0.0007981140136692488,93.52458987083435 z" fill="white" id="svg_4" class=""/><path d="M29.24029811401367,93.52648987083435 L29.24029811401367,87.66708987083435 L0.00019811401367064718,87.66708987083435 L0.00019811401367064718,93.52638987083435 L29.24029811401367,93.52648987083435 z" fill="#394049" id="svg_5" class=""/><path d="M14.620798114013674,37.92668987083435 C8.610498114013673,37.92668987083435 3.73819811401367,47.74128987083435 3.73819811401367,59.848189870834354 C3.73819811401367,71.95508987083436 8.610498114013673,81.76968987083436 14.62069811401367,81.76968987083436 C20.63099811401367,81.76968987083436 25.503298114013674,71.95508987083436 25.503298114013674,59.848189870834354 C25.503298114013674,47.74128987083435 20.63099811401367,37.92668987083435 14.620798114013674,37.92668987083435 z" fill="#006C39" id="svg_6" class=""/><path d="M29.240198114013666,32.03328987083435 L29.240198114013666,26.17398987083435 L0.00019811401367064718,26.17398987083435 L0.00019811401367064718,32.03328987083435 L29.240198114013666,32.03328987083435 z" fill="#394049" id="svg_7" class=""/><path opacity="0.1" d="M0.00009811401367443295,24.65498987083435 L-0.0000018859863288867018,95.04468987083435 C0.00009811401367443295,96.69168987083435 1.3351981140136715,98.02718987083435 2.98219811401367,98.02718987083435 L3.607598114013669,98.02718987083435 L3.607598114013669,30.38728987083435 C3.607598114013669,28.74018987083435 4.942698114013673,27.40508987083435 6.589798114013675,27.40508987083435 L29.240198114013666,27.40508987083435 L29.240198114013666,24.65488987083435 C29.240198114013666,23.00778987083435 27.90509811401367,21.67258987083435 26.257998114013674,21.67258987083435 L2.9822981140136733,21.67268987083435 C1.3351981140136715,21.67268987083435 0.00009811401367443295,23.00788987083435 0.00009811401367443295,24.65498987083435 z" fill="black" id="svg_8" class=""/></g></svg>