<svg xmlns="http://www.w3.org/2000/svg" width="29" height="98" fill="none"><rect id="backgroundrect" width="100%" height="100%" x="0" y="0" fill="none" stroke="none"/>








<g class="currentLayer" style=""><title>Layer 1</title><path d="M25.356901110839843,21.67248987083435 L3.883201110839842,21.67248987083435 L11.526601110839842,1.0669898708343508 C11.764501110839845,0.4258398708343507 12.376001110839844,0.00035987083435085054 13.059901110839846,0.00035987083435085054 L16.180201110839846,0.00035987083435085054 C16.864101110839847,0.00035987083435085054 17.475701110839843,0.4258398708343507 17.713501110839843,1.0669898708343508 L25.356901110839843,21.67248987083435 z" fill="#F1592A" id="svg_1" class=""/><path opacity="0.15" d="M11.526601110839842,1.0667498708343506 L3.8831011108398457,21.67238987083435 L25.356901110839843,21.67238987083435 L23.933201110839846,17.83458987083435 L8.334201110839842,17.83458987083435 L13.615201110839841,3.5976398708343504 C13.853001110839841,2.9564898708343508 14.464601110839844,2.5310098708343505 15.148501110839845,2.5310098708343505 L18.256401110839846,2.5310098708343505 L17.713301110839843,1.0666298708343507 C17.475401110839847,0.42547987083435057 16.86390111083984,-1.2916564928744378e-7 16.180001110839846,0.000009870834350778068 L13.059601110839843,-1.2916564928744378e-7 C12.376201110839844,-1.2916564928744378e-7 11.764501110839845,0.42559987083435047 11.526601110839842,1.0667498708343506 z" fill="black" id="svg_2" class=""/><path d="M26.258001110839842,21.67228987083435 L2.9825011108398414,21.67228987083435 C1.335501110839843,21.67248987083435 0.00040111083984584184,23.00758987083435 0.0003011108398425222,24.65458987083435 L0.00020111083984630795,95.04428987083435 C0.0003011108398425222,96.69128987083435 1.3354011108398467,98.02618987083434 2.982401110839845,98.02618987083434 L26.258101110839846,98.02618987083434 C27.905001110839848,98.02618987083434 29.24020111083985,96.69128987083435 29.24040111083984,95.04428987083435 L29.24040111083984,24.65448987083435 C29.240301110839837,23.007489870834352 27.90520111083984,21.67228987083435 26.258001110839842,21.67228987083435 z" fill="#F1592A" id="svg_3" class=""/><path opacity="0.5" d="M0.0008011108398449096,93.52458987083435 L29.240901110839843,93.52458987083435 L29.240901110839843,26.17268987083435 L0.0009011108398411238,26.17268987083435 L0.0008011108398449096,93.52458987083435 z" fill="white" id="svg_4" class=""/><path d="M29.240301110839837,93.52648987083435 L29.240301110839837,87.66708987083435 L0.00020111083984630795,87.66708987083435 L0.00020111083984630795,93.52638987083435 L29.240301110839837,93.52648987083435 z" fill="#394049" id="svg_5" class=""/><path d="M14.620701110839846,37.92668987083435 C8.610501110839841,37.92668987083435 3.738201110839846,47.74128987083435 3.738201110839846,59.848189870834354 C3.738201110839846,71.95508987083436 8.610401110839845,81.76968987083436 14.620701110839846,81.76968987083436 C20.631001110839847,81.76968987083436 25.503301110839843,71.95508987083436 25.503301110839843,59.848189870834354 C25.503301110839843,47.74128987083435 20.631001110839847,37.92668987083435 14.620701110839846,37.92668987083435 z" fill="#F1592A" id="svg_6" class=""/><path d="M29.240101110839845,32.03328987083435 L29.240101110839845,26.17398987083435 L0.0001011108398429883,26.17398987083435 L0.0001011108398429883,32.03328987083435 L29.240101110839845,32.03328987083435 z" fill="#394049" id="svg_7" class=""/><path opacity="0.1" d="M0.0001011108398429883,24.65498987083435 L0.0000011108398467740699,95.04468987083435 C0.0001011108398429883,96.69168987083435 1.3352011108398472,98.02718987083435 2.9822011108398456,98.02718987083435 L3.6076011108398447,98.02718987083435 L3.6076011108398447,30.38728987083435 C3.6076011108398447,28.74018987083435 4.942701110839842,27.40508987083435 6.5898011108398435,27.40508987083435 L29.24020111083985,27.40508987083435 L29.24020111083985,24.65488987083435 C29.24020111083985,23.00778987083435 27.905101110839837,21.67258987083435 26.258001110839842,21.67258987083435 L2.982401110839845,21.67268987083435 C1.3352011108398472,21.67268987083435 0.0001011108398429883,23.00788987083435 0.0001011108398429883,24.65498987083435 z" fill="black" id="svg_8" class=""/></g></svg>