<svg xmlns="http://www.w3.org/2000/svg" width="29" height="98" fill="none"><rect id="backgroundrect" width="100%" height="100%" x="0" y="0" fill="none" stroke="none"/>








<g class="currentLayer" style=""><title>Layer 1</title><path d="M25.356999475097652,21.67248987083435 L3.883299475097658,21.67248987083435 L11.526699475097658,1.0669898708343508 C11.764599475097654,0.4258398708343507 12.376099475097654,0.00035987083435085054 13.059999475097655,0.00035987083435085054 L16.180299475097655,0.00035987083435085054 C16.864199475097656,0.00035987083435085054 17.47579947509766,0.4258398708343507 17.71359947509766,1.0669898708343508 L25.356999475097652,21.67248987083435 z" fill="#FFF200" id="svg_1" class=""/><path opacity="0.15" d="M11.526699475097658,1.0667498708343506 L3.883199475097655,21.67238987083435 L25.356899475097663,21.67238987083435 L23.933199475097652,17.83458987083435 L8.334199475097655,17.83458987083435 L13.615199475097654,3.5976398708343504 C13.852999475097654,2.9564898708343508 14.464599475097657,2.5310098708343505 15.148499475097658,2.5310098708343505 L18.25639947509766,2.5310098708343505 L17.713299475097656,1.0666298708343507 C17.475399475097653,0.42547987083435057 16.863899475097654,-1.2916564928744378e-7 16.17999947509766,0.000009870834350778068 L13.059599475097656,-1.2916564928744378e-7 C12.376199475097657,-1.2916564928744378e-7 11.764499475097658,0.42559987083435047 11.526699475097658,1.0667498708343506 z" fill="black" id="svg_2" class=""/><path d="M26.25809947509765,21.67228987083435 L2.9824994750976543,21.67228987083435 C1.3354994750976559,21.67248987083435 0.00039947509765880795,23.00758987083435 0.0002994750976554883,24.65458987083435 L0.00019947509765927407,95.04428987083435 C0.0002994750976554883,96.69128987083435 1.3353994750976597,98.02618987083434 2.982399475097658,98.02618987083434 L26.258199475097655,98.02618987083434 C27.904999475097654,98.02618987083434 29.240299475097657,96.69128987083435 29.24039947509766,95.04428987083435 L29.24039947509766,24.65448987083435 C29.240299475097657,23.007489870834352 27.90519947509766,21.67228987083435 26.25809947509765,21.67228987083435 z" fill="#FFF200" id="svg_3" class=""/><path opacity="0.5" d="M0.00089947509765409,93.52458987083435 L29.240899475097663,93.52458987083435 L29.240899475097663,26.17268987083435 L0.00089947509765409,26.17268987083435 L0.00089947509765409,93.52458987083435 z" fill="#C0C0C0" id="svg_4" class=""/><path d="M29.240299475097657,93.52648987083435 L29.240299475097657,87.66708987083435 L0.00019947509765927407,87.66708987083435 L0.00019947509765927407,93.52638987083435 L29.240299475097657,93.52648987083435 z" fill="#394049" id="svg_5" class=""/><path d="M14.620699475097659,37.92668987083435 C8.610399475097658,37.92668987083435 3.7380994750976555,47.74128987083435 3.7380994750976555,59.848189870834354 C3.7380994750976555,71.95508987083436 8.610399475097658,81.76968987083436 14.620699475097659,81.76968987083436 C20.630899475097657,81.76968987083436 25.50319947509766,71.95508987083436 25.50319947509766,59.848189870834354 C25.50319947509766,47.74128987083435 20.630999475097653,37.92668987083435 14.620699475097659,37.92668987083435 z" fill="#FFF200" id="svg_6" class=""/><path d="M29.240199475097654,32.03328987083435 L29.240199475097654,26.17398987083435 L0.00009947509765595441,26.17398987083435 L0.00009947509765595441,32.03328987083435 L29.240199475097654,32.03328987083435 z" fill="#394049" id="svg_7" class=""/><path opacity="0.1" d="M0.00009947509765595441,24.65498987083435 L-5.249023402598141e-7,95.04468987083435 C0.00009947509765595441,96.69168987083435 1.335199475097653,98.02718987083435 2.9821994750976586,98.02718987083435 L3.6074994750976543,98.02718987083435 L3.6074994750976543,30.38728987083435 C3.6074994750976543,28.74018987083435 4.942699475097655,27.40508987083435 6.5897994750976565,27.40508987083435 L29.240199475097654,27.40508987083435 L29.240199475097654,24.65488987083435 C29.240199475097654,23.00778987083435 27.905099475097657,21.67258987083435 26.25789947509766,21.67258987083435 L2.982299475097655,21.67268987083435 C1.335199475097653,21.67268987083435 0.00009947509765595441,23.00788987083435 0.00009947509765595441,24.65498987083435 z" fill="black" id="svg_8" class=""/></g></svg>