<svg xmlns="http://www.w3.org/2000/svg" width="29" height="98" fill="none" style=""><rect id="backgroundrect" width="100%" height="100%" x="0" y="0" fill="none" stroke="none"/>








<g class="currentLayer" style=""><title>Layer 1</title><path d="M25.356899749755854,21.67248987083435 L3.8831997497558604,21.67248987083435 L11.52659974975586,1.0669898708343508 C11.764499749755856,0.4258398708343507 12.375999749755863,0.00035987083435085054 13.059899749755857,0.00035987083435085054 L16.180199749755857,0.00035987083435085054 C16.86409974975586,0.00035987083435085054 17.47569974975586,0.4258398708343507 17.71349974975586,1.0669898708343508 L25.356899749755854,21.67248987083435 z" fill="#7FC325" id="svg_1" class=""/><path opacity="0.15" d="M11.526699749755856,1.0667498708343506 L3.8831997497558604,21.67238987083435 L25.356999749755857,21.67238987083435 L23.933199749755858,17.83458987083435 L8.33419974975586,17.83458987083435 L13.61519974975586,3.5976398708343504 C13.853099749755856,2.9564898708343508 14.464599749755862,2.5310098708343505 15.148499749755857,2.5310098708343505 L18.25649974975586,2.5310098708343505 L17.713299749755862,1.0666298708343507 C17.475499749755862,0.42547987083435057 16.86389974975586,-1.2916564928744378e-7 16.179999749755858,0.000009870834350778068 L13.059699749755858,-1.2916564928744378e-7 C12.376199749755862,-1.2916564928744378e-7 11.76459974975586,0.42559987083435047 11.526699749755856,1.0667498708343506 z" fill="black" id="svg_2" class=""/><path d="M26.257999749755854,21.67228987083435 L2.98249974975586,21.67228987083435 C1.3354997497558614,21.67248987083435 0.00039974975585721495,23.00758987083435 0.0002997497558610007,24.65458987083435 L0.00009974975586146684,95.04428987083435 C0.0002997497558610007,96.69128987083435 1.335399749755858,98.02618987083434 2.9823997497558565,98.02618987083434 L26.258099749755857,98.02618987083434 C27.90499974975586,98.02618987083434 29.24019974975586,96.69128987083435 29.240299749755863,95.04428987083435 L29.240299749755863,24.65448987083435 C29.24019974975586,23.007489870834352 27.905099749755863,21.67228987083435 26.257999749755854,21.67228987083435 z" fill="#7FC325" id="svg_3" class=""/><path opacity="0.5" d="M0.0006997497558600685,93.52548987083435 L29.240699749755862,93.52548987083435 L29.240799749755865,26.17368987083435 L0.0006997497558600685,26.17368987083435 L0.0006997497558600685,93.52548987083435 z" fill="white" id="svg_4" class=""/><path d="M29.24019974975586,93.52648987083435 L29.24019974975586,87.66708987083435 L0.00019974975585768107,87.66708987083435 L0.00019974975585768107,93.52638987083435 L29.24019974975586,93.52648987083435 z" fill="#394049" id="svg_5" class=""/><path d="M14.620699749755858,37.92668987083435 C8.610399749755857,37.92668987083435 3.7381997497558572,47.74128987083435 3.738099749755861,59.848189870834354 C3.738099749755861,71.95508987083436 8.610399749755857,81.76968987083436 14.620699749755858,81.76968987083436 C20.630899749755862,81.76968987083436 25.503199749755865,71.95508987083436 25.503199749755865,59.848189870834354 C25.503299749755854,47.74128987083435 20.63099974975586,37.92668987083435 14.620699749755858,37.92668987083435 z" fill="#7FC325" id="svg_6" class=""/><path d="M29.239999749755853,32.03328987083435 L29.239999749755853,26.17398987083435 L-2.5024414185281785e-7,26.17398987083435 L-2.5024414185281785e-7,32.03328987083435 L29.239999749755853,32.03328987083435 z" fill="#394049" id="svg_7" class=""/><path opacity="0.1" d="M0.00009974975586146684,24.65498987083435 L-2.5024414185281785e-7,95.04468987083435 C0.00009974975586146684,96.69168987083435 1.3351997497558585,98.02718987083435 2.982199749755857,98.02718987083435 L3.60749974975586,98.02718987083435 L3.60749974975586,30.38728987083435 C3.60749974975586,28.74018987083435 4.942599749755857,27.40508987083435 6.589799749755862,27.40508987083435 L29.24019974975586,27.40508987083435 L29.24019974975586,24.65488987083435 C29.24019974975586,23.00778987083435 27.90499974975586,21.67258987083435 26.257899749755865,21.67258987083435 L2.9822997497558603,21.67268987083435 C1.3351997497558585,21.67268987083435 0.00009974975586146684,23.00788987083435 0.00009974975586146684,24.65498987083435 z" fill="black" id="svg_8" class=""/></g></svg>