<svg xmlns="http://www.w3.org/2000/svg" width="29" height="98" fill="none"><rect id="backgroundrect" width="100%" height="100%" x="0" y="0" fill="none" stroke="none"/>








<g class="currentLayer" style=""><title>Layer 1</title><path d="M25.35699893188476,21.67248987083435 L3.8832989318847666,21.67248987083435 L11.526598931884763,1.0669898708343508 C11.764498931884766,0.4258398708343507 12.37609893188477,0.00035987083435085054 13.059998931884763,0.00035987083435085054 L16.180298931884764,0.00035987083435085054 C16.864198931884765,0.00035987083435085054 17.475698931884764,0.4258398708343507 17.713598931884768,1.0669898708343508 L25.35699893188476,21.67248987083435 z" fill="#ED1C24" id="svg_1" class=""/><path opacity="0.15" d="M11.526698931884766,1.0667498708343506 L3.883098931884767,21.67238987083435 L25.35689893188477,21.67238987083435 L23.93319893188476,17.83458987083435 L8.334198931884764,17.83458987083435 L13.615198931884763,3.5976398708343504 C13.852998931884763,2.9564898708343508 14.464598931884765,2.5310098708343505 15.148498931884767,2.5310098708343505 L18.256398931884767,2.5310098708343505 L17.713298931884765,1.0666298708343507 C17.47539893188477,0.42547987083435057 16.86389893188477,-1.2916564928744378e-7 16.179998931884768,0.000009870834350778068 L13.059598931884764,-1.2916564928744378e-7 C12.376198931884765,-1.2916564928744378e-7 11.764498931884766,0.42559987083435047 11.526698931884766,1.0667498708343506 z" fill="black" id="svg_2" class=""/><path d="M26.25809893188476,21.67228987083435 L2.982498931884763,21.67228987083435 C1.3354989318847643,21.67248987083435 0.0003989318847672507,23.00758987083435 0.00029893188476393107,24.65458987083435 L0.00019893188476771684,95.04428987083435 C0.00029893188476393107,96.69128987083435 1.335398931884768,98.02618987083434 2.9823989318847666,98.02618987083434 L26.258198931884763,98.02618987083434 C27.905098931884766,98.02618987083434 29.240298931884766,96.69128987083435 29.24039893188477,95.04428987083435 L29.24039893188477,24.65448987083435 C29.240298931884766,23.007489870834352 27.90519893188477,21.67228987083435 26.25809893188476,21.67228987083435 z" fill="#ED1C24" id="svg_3" class=""/><path opacity="0.5" d="M0.0008989318847625327,93.52458987083435 L29.24089893188477,93.52458987083435 L29.24089893188477,26.17268987083435 L0.0008989318847625327,26.17268987083435 L0.0008989318847625327,93.52458987083435 z" fill="white" id="svg_4" class=""/><path d="M29.240298931884766,93.52648987083435 L29.240298931884766,87.66708987083435 L0.00029893188476393107,87.66708987083435 L0.00029893188476393107,93.52638987083435 L29.240298931884766,93.52648987083435 z" fill="#394049" id="svg_5" class=""/><path d="M14.620798931884764,37.92668987083435 C8.610498931884763,37.92668987083435 3.7381989318847673,47.74128987083435 3.7381989318847673,59.848189870834354 C3.7381989318847673,71.95508987083436 8.610498931884763,81.76968987083436 14.620798931884764,81.76968987083436 C20.63099893188477,81.76968987083436 25.50329893188477,71.95508987083436 25.50329893188477,59.848189870834354 C25.50329893188477,47.74128987083435 20.63099893188477,37.92668987083435 14.620798931884764,37.92668987083435 z" fill="#ED1C24" id="svg_6" class=""/><path d="M29.240198931884763,32.03328987083435 L29.240198931884763,26.17398987083435 L0.00019893188476771684,26.17398987083435 L0.00019893188476771684,32.03328987083435 L29.240198931884763,32.03328987083435 z" fill="#394049" id="svg_7" class=""/><path opacity="0.1" d="M0.00009893188476439718,24.65498987083435 L-0.0000010681152318170462,95.04468987083435 C0.00009893188476439718,96.69168987083435 1.3351989318847686,98.02718987083435 2.9822989318847632,98.02718987083435 L3.607598931884766,98.02718987083435 L3.607598931884766,30.38728987083435 C3.607598931884766,28.74018987083435 4.942698931884763,27.40508987083435 6.589798931884765,27.40508987083435 L29.240198931884763,27.40508987083435 L29.240198931884763,24.65488987083435 C29.240198931884763,23.00778987083435 27.905098931884766,21.67258987083435 26.25799893188477,21.67258987083435 L2.9823989318847666,21.67268987083435 C1.3352989318847648,21.67268987083435 0.00009893188476439718,23.00788987083435 0.00009893188476439718,24.65498987083435 z" fill="black" id="svg_8" class=""/></g></svg>