<svg xmlns="http://www.w3.org/2000/svg" width="23" height="78" fill="none"><rect id="backgroundrect" width="100%" height="100%" x="0" y="0" fill="none" stroke="none" class="" style=""/>

<defs>
<clipPath id="clip0">
<rect width="64" height="64" fill="white" transform="rotate(45 45.99999999999999,6.06486161269454e-15) " y="0" x="46" id="svg_1"/>
</clipPath>
</defs>
<g class="currentLayer" style=""><title>Layer 1</title>








<g class=""><path d="M3.106800506591796,61.08329993896484 L20.285800506591798,61.08329993896484 L14.171100506591799,77.56769993896485 C13.980800506591798,78.08059993896484 13.491500506591798,78.42099993896484 12.944400506591798,78.42089993896484 L10.448200506591796,78.42099993896484 C9.9010005065918,78.42099993896484 9.411800506591796,78.08059993896484 9.221500506591795,77.56769993896485 L3.106800506591796,61.08329993896484 z" fill="#F4AC3B" id="svg_3" class=""/><path opacity="0.15" d="M14.171000506591795,77.56779993896484 L20.285800506591798,61.08329993896484 L3.106800506591796,61.08329993896484 L4.245800506591799,64.15359993896485 L16.725000506591797,64.15359993896485 L12.500200506591796,75.54309993896484 C12.309900506591795,76.05609993896485 11.820700506591798,76.39639993896485 11.273500506591795,76.39639993896485 H8.787200506591795 L9.221700506591795,77.56789993896484 C9.412000506591795,78.08089993896485 9.901200506591799,78.42119993896485 10.4483005065918,78.42119993896485 H12.944600506591797 C13.491400506591795,78.42119993896485 13.980700506591795,78.08079993896484 14.171000506591795,77.56779993896484 z" fill="black" id="svg_4" class=""/><path d="M2.386100506591795,61.08369993896484 H21.0065005065918 C22.324100506591797,61.08359993896484 23.3922005065918,60.01549993896484 23.392300506591795,58.69789993896484 L23.392400506591798,2.3860999389648434 C23.392300506591795,1.0684999389648446 22.324200506591794,0.00039993896484347147 21.006600506591795,0.0002999389648437045 L2.386000506591799,0.0002999389648437045 C1.0685005065917963,0.0002999389648437045 0.00030050659179892136,1.0684999389648446 0.0002005065917956017,2.3860999389648434 L0.0002005065917956017,58.69799993896484 C0.00030050659179892136,60.01559993896484 1.0684005065918,61.08369993896484 2.386100506591795,61.08369993896484 z" fill="#F4AC3B" id="svg_5" class=""/><path opacity="0.5" d="M23.3920005065918,3.6012999389648446 L5.065917960678235e-7,3.6012999389648446 L5.065917960678235e-7,57.482799938964845 L23.3920005065918,57.482799938964845 L23.3920005065918,3.6012999389648446 z" fill="white" id="svg_6" class=""/><path d="M5.065917960678235e-7,3.5998999389648443 L5.065917960678235e-7,8.287399938964843 L23.3920005065918,8.287399938964843 L23.3920005065918,3.5998999389648443 L5.065917960678235e-7,3.5998999389648443 z" fill="#394049" id="svg_7" class=""/><path d="M11.6953005065918,48.079499938964844 C16.5035005065918,48.079499938964844 20.401300506591795,40.227899938964846 20.401300506591795,30.542299938964845 C20.401300506591795,20.856799938964844 16.5035005065918,13.005099938964843 11.6953005065918,13.005099938964843 C6.8871005065918,13.005099938964843 2.989300506591796,20.856799938964844 2.989300506591796,30.542299938964845 C2.989300506591796,40.227899938964846 6.8871005065918,48.079499938964844 11.6953005065918,48.079499938964844 z" fill="#F4AC3B" id="svg_8" class=""/><path d="M0.0010005065917937372,52.794899938964846 V57.482399938964846 H23.393000506591797 V52.794899938964846 H0.0010005065917937372 z" fill="#394049" id="svg_9" class=""/><path opacity="0.1" d="M23.392800506591797,58.69759993896484 L23.392800506591797,2.385799938964844 C23.392700506591794,1.0681999389648436 22.324700506591796,0.00009993896484417064 21.007100506591797,-6.103515559630068e-8 L20.506800506591794,-6.103515559630068e-8 L20.506800506591794,54.11169993896485 C20.506800506591794,55.42939993896485 19.4387005065918,56.49749993896485 18.1210005065918,56.49749993896485 L0.0007005065917979891,56.49749993896485 L0.0007005065917979891,58.697699938964846 C0.0007005065917979891,60.01539993896485 1.0688005065917991,61.08349993896485 2.386500506591794,61.08349993896485 L21.007000506591794,61.083399938964845 C22.324700506591796,61.083399938964845 23.392800506591797,60.015299938964844 23.392800506591797,58.69759993896484 z" fill="black" id="svg_10" class=""/></g></g></svg>