<svg width="281" height="215" viewBox="0 0 281 215" fill="none" xmlns="http://www.w3.org/2000/svg">
<rect x="2" y="204" width="69" height="5" rx="2.5" fill="#48CDC4"/>
<rect x="63" y="206" width="54" height="7" rx="3.5" fill="#48CDC4"/>
<rect x="121" y="202" width="77" height="5" rx="2.5" fill="#48CDC4"/>
<rect x="58" y="175" width="94" height="10" rx="5" fill="#48CDC4"/>
<rect x="122" y="155" width="158" height="11" rx="5.5" fill="#48CDC4"/>
<g clip-path="url(#clip0)">
<path d="M247.95 100.711L243.333 80.6426C241.759 73.8018 235.67 68.9547 228.651 68.9547H168.35C161.331 68.9547 155.242 73.8022 153.668 80.6426L149.051 100.711C148.581 102.751 146.765 104.197 144.672 104.197H132.865C127.103 104.197 122.433 108.867 122.433 114.628V143.086H274.568V114.628C274.568 108.867 269.898 104.197 264.137 104.197H252.329C250.236 104.196 248.42 102.751 247.95 100.711Z" fill="#F8ED62"/>
<path d="M196.154 68.9547H168.35C161.331 68.9547 155.242 73.8022 153.668 80.6426L149.051 100.711C148.581 102.751 146.765 104.197 144.672 104.197H132.865C127.103 104.197 122.433 108.867 122.433 114.628V143.086H205.376C191.891 123.855 193.445 88.054 196.154 68.9547Z" fill="#E8DC45"/>
<path d="M153.961 160.041C163.346 157.822 169.155 148.416 166.937 139.031C164.718 129.646 155.312 123.836 145.927 126.055C136.542 128.273 130.732 137.68 132.951 147.065C135.169 156.45 144.576 162.259 153.961 160.041Z" fill="#8EAFE2"/>
<path d="M151.724 150.577C155.882 149.594 158.456 145.426 157.473 141.268C156.49 137.109 152.322 134.535 148.164 135.518C144.005 136.501 141.431 140.669 142.414 144.828C143.397 148.986 147.565 151.56 151.724 150.577Z" fill="#4E5660"/>
<path d="M129.616 150.367H118.842C117.273 150.367 116 149.095 116 147.525V137.715C116 136.145 117.273 134.873 118.842 134.873H129.617C131.186 134.873 132.459 136.145 132.459 137.715V147.525C132.459 149.095 131.186 150.367 129.616 150.367Z" fill="#4E5660"/>
<path d="M264.072 147.165C266.29 137.78 260.481 128.373 251.096 126.155C241.711 123.936 232.304 129.746 230.086 139.131C227.867 148.516 233.677 157.922 243.062 160.141C252.447 162.359 261.853 156.549 264.072 147.165Z" fill="#8EAFE2"/>
<path d="M254.609 144.928C255.592 140.769 253.017 136.601 248.859 135.618C244.7 134.635 240.532 137.209 239.549 141.368C238.566 145.526 241.141 149.694 245.299 150.677C249.458 151.66 253.626 149.086 254.609 144.928Z" fill="#4E5660"/>
<path d="M267.384 150.367H278.158C279.728 150.367 281.001 149.095 281.001 147.525V137.715C281.001 136.145 279.728 134.873 278.158 134.873H267.384C265.814 134.873 264.542 136.145 264.542 137.715V147.525C264.542 149.095 265.814 150.367 267.384 150.367Z" fill="#4E5660"/>
<path d="M202.283 117.299H209.847V124.863H202.283V117.299Z" fill="white"/>
<path d="M194.717 117.299H202.281V124.863H194.717V117.299Z" fill="#4E5660"/>
<path d="M187.153 117.299H194.718V124.863H187.153V117.299Z" fill="white"/>
<path d="M217.411 124.864H209.847V117.299H215.653C216.624 117.299 217.411 118.086 217.411 119.058V124.864H217.411Z" fill="#4E5660"/>
<path d="M179.589 124.864H187.154V117.299H181.348C180.377 117.299 179.589 118.086 179.589 119.058V124.864Z" fill="#4E5660"/>
<path d="M202.283 124.864H209.847V132.428H202.283V124.864Z" fill="#4E5660"/>
<path d="M194.717 124.864H202.281V132.428H194.717V124.864Z" fill="white"/>
<path d="M187.153 124.864H194.718V132.428H187.153V124.864Z" fill="#4E5660"/>
<path d="M215.653 132.428H209.847V124.864H217.411V130.67C217.411 131.641 216.624 132.428 215.653 132.428Z" fill="white"/>
<path d="M181.347 132.428H187.153V124.864H179.589V130.67C179.589 131.641 180.376 132.428 181.347 132.428Z" fill="white"/>
<path d="M220.36 54.4495H215.649C213.273 54.4495 211.181 56.0135 210.508 58.2922L207.36 68.955H228.65L225.501 58.2922C224.829 56.0135 222.736 54.4495 220.36 54.4495Z" fill="#FFD33F"/>
<path d="M269.039 114.628H274.567V127.826H269.039C266.555 127.826 264.541 125.813 264.541 123.329V119.125C264.541 116.641 266.555 114.628 269.039 114.628Z" fill="#DC4B6B"/>
<path d="M127.962 114.628H122.433V127.826H127.962C130.446 127.826 132.459 125.813 132.459 123.329V119.125C132.459 116.641 130.446 114.628 127.962 114.628Z" fill="#E8899E"/>
<path d="M184.948 78.5182H167.108C165.146 78.5182 163.452 79.8879 163.04 81.8057L159.313 99.1619C158.757 101.753 160.732 104.196 163.381 104.196H184.948C187.246 104.196 189.109 102.333 189.109 100.035V82.6793C189.109 80.3813 187.246 78.5182 184.948 78.5182Z" fill="#8EAFE2"/>
<path d="M201.738 78.5182H219.578C221.539 78.5182 223.234 79.8879 223.646 81.8057L227.373 99.1619C227.929 101.753 225.954 104.196 223.304 104.196H201.738C199.44 104.196 197.577 102.333 197.577 100.035V82.6793C197.577 80.3813 199.44 78.5182 201.738 78.5182Z" fill="#8EAFE2"/>
<path d="M237.953 98.7621C238.634 101.933 241.436 104.197 244.679 104.197H252.329C250.236 104.197 248.42 102.751 247.95 100.711L243.333 80.643C243.165 79.9102 242.941 79.2021 242.674 78.5186H237.172C235.337 78.5186 233.97 80.2105 234.355 82.0046L237.953 98.7621Z" fill="#8EAFE2"/>
<path d="M184.948 104.196C187.246 104.196 189.109 102.333 189.109 100.035V82.6791C189.109 81.9888 188.938 81.3391 188.641 80.7658L165.21 104.196H184.948Z" fill="#6A96D7"/>
<path d="M201.738 78.5182C199.44 78.5182 197.577 80.3813 197.577 82.6793V100.036C197.577 100.19 197.587 100.342 197.603 100.493L219.578 78.5182H201.738Z" fill="#6A96D7"/>
<path d="M229.246 111.328H225.982C223.538 111.328 221.557 109.347 221.557 106.903V102.758C221.557 100.314 223.538 98.3325 225.982 98.3325H229.246C232.834 98.3325 235.743 101.242 235.743 104.83C235.743 108.419 232.834 111.328 229.246 111.328Z" fill="#EFD176"/>
</g>
<path d="M72.0559 77.2152H90.4229L83.1868 62.7433C82.3844 61.1386 80.0943 61.1386 79.2917 62.7433L72.0559 77.2152Z" fill="#3A8855"/>
<path d="M88.1703 77.9191L103.601 87.8808L105.371 71.7979C105.567 70.0144 103.643 68.7722 102.098 69.6855L88.1703 77.9191Z" fill="#3A8855"/>
<path d="M102.602 89.8087L104.262 108.1L118.021 99.5858C119.546 98.6416 119.339 96.3609 117.668 95.7066L102.602 89.8087Z" fill="#3A8855"/>
<path d="M106.128 110.029L108.713 126.642L120.785 118.06C122.123 117.109 121.801 115.037 120.236 114.537L106.128 110.029Z" fill="#3A8855"/>
<path d="M112.808 134.874L116.958 150.4L127.556 141.013C128.731 139.972 128.214 138.036 126.676 137.721L112.808 134.874Z" fill="#3A8855"/>
<path d="M117.245 156.514L128.131 164.898L130.449 153.018C130.706 151.7 129.348 150.655 128.14 151.24L117.245 156.514Z" fill="#3A8855"/>
<path d="M140.834 150.455L147.299 140.051L136.554 139.056C135.362 138.946 134.556 140.243 135.183 141.263L140.834 150.455Z" fill="#3A8855"/>
<path d="M72.2279 134.874C72.7237 134.874 73.2227 134.866 73.7286 134.85C77.6797 134.723 80.7803 131.417 80.6535 127.466C80.5267 123.514 77.2224 120.412 73.2695 120.541C62.0037 120.905 57.8304 115.248 55.2283 109.668C53.5577 106.085 49.2992 104.535 45.7156 106.206C42.1326 107.877 40.5828 112.136 42.2536 115.719C48.1836 128.435 58.2646 134.874 72.2279 134.874Z" fill="#00BB61"/>
<path d="M65.7442 165.748H68.0505V163.103C68.0505 156.46 73.436 151.074 80.0794 151.074C86.7229 151.074 92.1084 156.46 92.1084 163.103V167.142C92.1084 172.178 88.026 176.26 82.99 176.26H59.6318C58.417 176.26 57.432 175.275 57.432 174.06C57.4322 169.469 61.1536 165.748 65.7442 165.748Z" fill="#00DC72"/>
<path d="M51.4339 87.2862C52.4872 86.8515 53.3129 86.0111 53.7928 84.9775C56.7549 78.5989 63.2139 74.1741 70.7097 74.1741H87.7491C98.0481 74.1741 106.397 82.5231 106.397 92.8223C106.397 92.9014 106.397 92.9805 106.396 93.0594C106.279 102.391 107.699 111.677 110.63 120.537L123.302 158.84C123.638 159.855 124.586 160.541 125.655 160.541C131.354 160.541 136.579 157.368 139.206 152.311L146.412 138.443C147.15 137.023 148.591 136.065 150.192 136.042C152.856 136.003 154.899 138.376 154.477 140.997L152.177 155.273C150.228 167.368 139.788 176.26 127.538 176.26H92.2169C80.7553 176.26 71.4639 166.969 71.4639 155.507V114.203C71.4639 112.694 70.2407 111.471 68.7319 111.471H56.2243C49.2849 111.471 43.6594 105.845 43.6594 98.9058C43.6594 93.6626 46.8707 89.1694 51.4339 87.2862Z" fill="#00DE73"/>
<g opacity="0.1">
<path opacity="0.1" d="M98.0572 108.8C97.1555 108.8 96.4245 108.069 96.4245 107.168C96.4245 106.266 97.1555 105.535 98.0572 105.535C98.9589 105.535 99.6899 106.266 99.6899 107.168C99.6899 108.069 98.9589 108.8 98.0572 108.8Z" fill="black"/>
<path opacity="0.1" d="M90.3223 115.991C89.4206 115.991 88.6896 115.26 88.6896 114.358C88.6896 113.456 89.4206 112.725 90.3223 112.725C91.2241 112.725 91.9551 113.456 91.9551 114.358C91.9551 115.26 91.2241 115.991 90.3223 115.991Z" fill="black"/>
<path opacity="0.1" d="M104.765 144.27C103.863 144.27 103.132 143.539 103.132 142.637C103.132 141.735 103.863 141.004 104.765 141.004C105.666 141.004 106.397 141.735 106.397 142.637C106.397 143.539 105.666 144.27 104.765 144.27Z" fill="black"/>
<path opacity="0.1" d="M129.831 168.163C128.929 168.163 128.198 167.432 128.198 166.531C128.198 165.629 128.929 164.898 129.831 164.898C130.732 164.898 131.463 165.629 131.463 166.531C131.463 167.432 130.732 168.163 129.831 168.163Z" fill="black"/>
<path opacity="0.1" d="M141.131 160.137C140.229 160.137 139.498 159.406 139.498 158.505C139.498 157.603 140.229 156.872 141.131 156.872C142.033 156.872 142.764 157.603 142.764 158.505C142.764 159.406 142.033 160.137 141.131 160.137Z" fill="black"/>
</g>
<path d="M80.6579 87.4415C81.5862 87.4415 82.3384 86.6891 82.3384 85.7611V83.0007C82.3384 82.0724 81.5862 81.3202 80.6579 81.3202C79.7296 81.3202 78.9775 82.0724 78.9775 83.0007V85.7609C78.9775 86.6891 79.7296 87.4415 80.6579 87.4415Z" fill="black"/>
<path d="M63.864 87.4415C64.7923 87.4415 65.5444 86.6891 65.5444 85.7611V83.0007C65.5444 82.0724 64.7923 81.3202 63.864 81.3202C62.9357 81.3202 62.1835 82.0724 62.1835 83.0007V85.7609C62.1835 86.6891 62.9357 87.4415 63.864 87.4415Z" fill="black"/>
<path d="M56.3391 104.955C58.5051 104.955 60.5647 104.017 61.9902 102.381C62.6001 101.681 62.527 100.62 61.8271 100.01C61.1275 99.4004 60.0664 99.4734 59.4563 100.173C58.6694 101.076 57.5332 101.594 56.3391 101.594C55.1451 101.594 54.0089 101.076 53.222 100.173C52.6125 99.4734 51.5507 99.4004 50.8512 100.01C50.1514 100.62 50.0784 101.681 50.6881 102.381C52.1133 104.016 54.1731 104.955 56.3391 104.955Z" fill="black"/>
<path d="M79.9666 121.768C84.2162 121.768 87.7906 124.953 88.2775 129.175L90.6931 150.118C91.236 154.825 95.221 158.376 99.9587 158.376C105.244 158.376 109.529 162.661 109.529 167.947C109.529 172.582 105.772 176.34 101.136 176.34H92.3803C80.9187 176.34 71.6273 167.048 71.6273 155.587V129.493C71.954 125.17 75.5625 121.768 79.9666 121.768Z" fill="#BEE9CD"/>
<path d="M90.3218 148.246H71.4625V144.885H89.9342L90.3218 148.246ZM88.3673 131.301L88.7549 134.662H71.4625V131.301H88.3673Z" fill="black" fill-opacity="0.15"/>
<path d="M107.207 133.479C107.374 133.479 107.543 133.473 107.712 133.461C122.206 132.45 132.009 125.19 136.85 111.883C138.202 108.168 136.286 104.06 132.571 102.709C128.855 101.357 124.749 103.273 123.397 106.988C119.769 116.959 112.929 118.747 106.716 119.18C102.772 119.455 99.7982 122.875 100.073 126.819C100.337 130.593 103.481 133.479 107.207 133.479Z" fill="#00BB61"/>
<path d="M89.7948 165.747H92.1013V163.102C92.1013 156.459 97.4868 151.073 104.13 151.073C110.774 151.073 116.159 156.459 116.159 163.102V167.141C116.159 172.177 112.077 176.259 107.041 176.259H83.6826C82.4675 176.259 81.4828 175.274 81.4828 174.06C81.483 169.469 85.2044 165.747 89.7948 165.747Z" fill="#00BB61"/>
<path d="M33.8584 197.446C33.3513 197.631 32.7947 197.703 32.2219 197.637C30.2573 197.408 28.85 195.63 29.0785 193.666L29.3183 191.603L26.6863 189.798C24.0464 187.987 22.6796 184.777 23.2041 181.619L24.1708 175.796C24.4945 173.845 26.339 172.526 28.2905 172.85C30.2417 173.174 31.5609 175.018 31.2371 176.97L30.2703 182.793C30.1997 183.217 30.3833 183.648 30.7379 183.891L35.1512 186.918C36.2466 187.67 36.8364 188.966 36.6827 190.286L36.193 194.493C36.0312 195.885 35.0914 196.998 33.8584 197.446Z" fill="#00A55A"/>
<path d="M54.8402 189.81C53.607 190.258 52.1722 190.011 51.1534 189.048L48.0738 186.14C47.1076 185.227 46.7263 183.855 47.0824 182.576L48.5176 177.42C48.633 177.006 48.4964 176.557 48.1699 176.278L43.686 172.438C42.1836 171.152 42.0088 168.891 43.2952 167.389C44.5819 165.886 46.8424 165.711 48.345 166.998L52.8287 170.837C55.2601 172.919 56.2766 176.257 55.4182 179.341L54.5623 182.415L56.0715 183.841C57.5095 185.199 57.5744 187.466 56.2163 188.904C55.8205 189.323 55.3473 189.625 54.8402 189.81Z" fill="#00A55A"/>
<path d="M48.5266 163.008C47.0468 163.547 45.3328 163.057 44.3796 161.709C43.2373 160.095 43.6203 157.86 45.2351 156.717L57.5618 147.998C59.1774 146.855 61.4118 147.238 62.554 148.853C63.6963 150.468 63.3133 152.703 61.6986 153.845L49.3718 162.565C49.1045 162.754 48.82 162.901 48.5266 163.008Z" fill="#00A55A"/>
<path d="M21.4674 172.857C21.1739 172.964 20.8616 173.034 20.5352 173.061L5.48737 174.305C3.51614 174.467 1.78612 173.001 1.62321 171.03C1.4603 169.059 2.92544 167.33 4.89742 167.166L19.9453 165.922C21.9165 165.759 23.6465 167.225 23.8094 169.197C23.9455 170.841 22.947 172.319 21.4674 172.857Z" fill="#00A55A"/>
<path d="M50.6131 156.584C47.7834 148.809 37.6822 145.347 28.0516 148.852C18.421 152.357 12.9078 161.502 15.7376 169.277C18.5673 177.052 28.6685 180.514 38.2991 177.009C47.9297 173.504 53.4429 164.359 50.6131 156.584Z" fill="#00B764"/>
<path d="M32.5707 161.267C26.9567 163.311 24.4128 170.482 26.8891 177.286C26.9864 177.554 27.0908 177.816 27.2004 178.074C30.66 178.687 34.5162 178.385 38.2999 177.008C42.0837 175.631 45.2313 173.383 47.4877 170.69C47.4057 170.421 47.317 170.154 47.2198 169.886C44.7435 163.083 38.1848 159.224 32.5707 161.267Z" fill="#B5E489"/>
<path opacity="0.05" d="M28.0513 148.851C18.7207 152.247 13.2551 160.937 15.4973 168.546C16.6254 168.69 17.7992 168.765 19.0182 168.765C19.0185 168.765 19.0183 168.765 19.0186 168.765C23.6283 168.765 28.7387 167.755 34.2074 165.765C41.1018 163.255 46.6353 159.855 50.3295 155.873C47.1576 148.6 37.3835 145.455 28.0513 148.851Z" fill="black"/>
<path d="M46.9047 130.25C46.6842 130.036 46.532 129.762 46.4791 129.46C46.3706 128.841 46.208 128.223 45.9855 127.611C43.9245 121.949 37.6635 119.029 32.001 121.09C30.5322 121.625 29.2496 122.443 28.1894 123.46C27.9277 123.711 27.5885 123.861 27.2274 123.894C24.701 124.12 22.1314 124.682 19.5915 125.607C17.0516 126.531 14.7221 127.753 12.6411 129.203C12.3436 129.41 11.9868 129.513 11.625 129.489C10.1596 129.392 8.65085 129.589 7.18209 130.123C1.51958 132.184 -1.4 138.445 0.660975 144.108C0.883469 144.719 1.15635 145.297 1.47131 145.841C1.62502 146.107 1.6846 146.415 1.65262 146.72C1.35003 149.617 1.66951 152.557 2.69978 155.388C6.89473 166.914 19.6519 167.852 33.1759 162.929C46.6999 158.007 55.8694 149.088 51.6744 137.563C50.644 134.732 48.9991 132.275 46.9047 130.25Z" fill="#00B764"/>
<path d="M11.7665 143.637C11.3043 143.637 10.8704 143.351 10.7032 142.892L9.94502 140.809C9.73128 140.222 10.034 139.573 10.6211 139.359C11.2083 139.145 11.8576 139.448 12.0712 140.035L12.8293 142.118C13.043 142.705 12.7403 143.354 12.1532 143.568C12.0255 143.615 11.8948 143.637 11.7665 143.637Z" fill="black"/>
<path d="M25.9671 143.123C24.0253 143.829 21.8782 142.828 21.1715 140.887L20.2411 138.33C20.0481 137.8 20.3215 137.214 20.8515 137.021L25.9638 135.16C26.4938 134.967 27.08 135.241 27.2729 135.771L28.2033 138.327C28.91 140.269 27.9089 142.416 25.9671 143.123Z" fill="black"/>
<path d="M36.4481 134.653C35.9859 134.653 35.5521 134.368 35.3848 133.908L34.6267 131.825C34.4129 131.238 34.7157 130.589 35.3027 130.375C35.8901 130.161 36.5391 130.464 36.7528 131.051L37.5109 133.134C37.7247 133.721 37.4219 134.37 36.8349 134.584C36.7071 134.631 36.5765 134.653 36.4481 134.653Z" fill="black"/>
<path opacity="0.1" d="M11.3404 145.902C4.06913 142.832 3.55958 134.983 5.6658 130.809C1.01666 133.352 -1.20708 138.976 0.660969 144.108C0.882106 144.716 1.15317 145.291 1.46572 145.832C1.61626 146.093 1.68731 146.393 1.65563 146.693C1.34821 149.599 1.66634 152.549 2.69992 155.388C6.89488 166.914 19.652 167.852 33.176 162.93C34.2389 162.543 35.2747 162.131 36.2795 161.696C20.4403 166.146 15.8437 156.177 13.7783 148.662C13.4351 147.414 12.5331 146.406 11.3404 145.902Z" fill="black"/>
<g opacity="0.1">
<path opacity="0.1" d="M43.7223 152.561C44.3483 152.561 44.8557 152.053 44.8557 151.428C44.8557 150.802 44.3483 150.294 43.7223 150.294C43.0963 150.294 42.5889 150.802 42.5889 151.428C42.5889 152.053 43.0963 152.561 43.7223 152.561Z" fill="black"/>
<path opacity="0.1" d="M4.48305 139.606C5.10903 139.606 5.61648 139.099 5.61648 138.473C5.61648 137.847 5.10903 137.34 4.48305 137.34C3.85707 137.34 3.34961 137.847 3.34961 138.473C3.34961 139.099 3.85707 139.606 4.48305 139.606Z" fill="black"/>
<path opacity="0.1" d="M21.3068 172.375C21.9328 172.375 22.4402 171.868 22.4402 171.242C22.4402 170.616 21.9328 170.109 21.3068 170.109C20.6808 170.109 20.1733 170.616 20.1733 171.242C20.1733 171.868 20.6808 172.375 21.3068 172.375Z" fill="black"/>
<path opacity="0.1" d="M46.38 147.186C47.006 147.186 47.5135 146.679 47.5135 146.053C47.5135 145.427 47.006 144.919 46.38 144.919C45.754 144.919 45.2466 145.427 45.2466 146.053C45.2466 146.679 45.754 147.186 46.38 147.186Z" fill="black"/>
</g>
<path d="M129.781 187.902C125.555 186.364 119.653 181.026 120.918 177.55C122.183 174.075 130.136 173.779 134.361 175.317C138.587 176.855 140.094 180.594 138.829 184.069C137.564 187.545 134.006 189.44 129.781 187.902Z" fill="#464D59"/>
<path opacity="0.1" d="M134.361 175.317C132.807 174.752 130.749 174.435 128.705 174.432C127.968 179.074 127.925 183.527 128.564 187.378C128.98 187.583 129.388 187.759 129.781 187.902C134.006 189.44 137.564 187.545 138.829 184.069C140.094 180.594 138.587 176.855 134.361 175.317Z" fill="black"/>
<path d="M188.939 187.902C193.165 186.364 199.067 181.026 197.802 177.55C196.537 174.075 188.584 173.779 184.359 175.317C180.133 176.855 178.626 180.594 179.891 184.069C181.156 187.545 184.714 189.44 188.939 187.902Z" fill="#464D59"/>
<path opacity="0.1" d="M184.359 175.317C185.913 174.752 187.971 174.435 190.015 174.432C190.752 179.074 190.796 183.527 190.156 187.378C189.741 187.583 189.333 187.759 188.939 187.902C184.714 189.44 181.156 187.545 179.891 184.069C178.626 180.594 180.133 176.855 184.359 175.317Z" fill="black"/>
<path d="M159.36 203.572C172.839 203.572 183.732 200.854 187.039 189.934C191.379 175.608 182.857 144.811 159.36 144.811C135.863 144.811 127.342 175.608 131.681 189.934C134.988 200.854 145.882 203.572 159.36 203.572Z" fill="#464D59"/>
<path d="M175.965 182.471C175.142 180.792 175.49 178.787 176.804 177.457C179.056 175.177 180.421 172.018 180.335 168.54C180.176 162.072 174.911 156.785 168.444 156.6C165.545 156.517 162.866 157.441 160.729 159.048C159.922 159.655 158.798 159.655 157.991 159.048C155.853 157.441 153.174 156.517 150.276 156.6C143.809 156.785 138.544 162.072 138.385 168.54C138.299 172.018 139.664 175.177 141.916 177.457C143.23 178.787 143.577 180.792 142.754 182.47C140.318 187.439 138.775 193.279 138.084 198.874C143.278 202.474 150.797 203.572 159.36 203.572C167.923 203.572 175.441 202.474 180.635 198.874C179.945 193.279 178.402 187.439 175.965 182.471Z" fill="white"/>
<path d="M159.36 176.653C161.283 176.653 163.344 174.912 163.757 171.948C164.258 168.356 161.789 167.59 159.36 167.59C156.931 167.59 154.462 168.356 154.963 171.948C155.376 174.912 157.437 176.653 159.36 176.653Z" fill="#FFCF59"/>
<path d="M146.875 172.989C149.152 172.989 150.998 171.519 150.998 169.705C150.998 167.892 149.152 166.422 146.875 166.422C144.598 166.422 142.752 167.892 142.752 169.705C142.752 171.519 144.598 172.989 146.875 172.989Z" fill="#F27281"/>
<path d="M171.846 172.989C174.122 172.989 175.968 171.519 175.968 169.705C175.968 167.892 174.122 166.422 171.846 166.422C169.569 166.422 167.723 167.892 167.723 169.705C167.723 171.519 169.569 172.989 171.846 172.989Z" fill="#F27281"/>
<path d="M151.24 167.264C150.615 167.264 150.109 166.758 150.109 166.133C150.109 165.675 149.736 165.302 149.278 165.302C148.819 165.302 148.447 165.675 148.447 166.133C148.447 166.758 147.94 167.264 147.315 167.264C146.691 167.264 146.184 166.758 146.184 166.133C146.184 164.427 147.572 163.039 149.278 163.039C150.984 163.039 152.372 164.427 152.372 166.133C152.372 166.758 151.865 167.264 151.24 167.264Z" fill="black"/>
<path d="M171.406 167.264C170.781 167.264 170.274 166.758 170.274 166.133C170.274 165.675 169.902 165.302 169.443 165.302C168.985 165.302 168.612 165.675 168.612 166.133C168.612 166.758 168.106 167.264 167.481 167.264C166.856 167.264 166.35 166.758 166.35 166.133C166.35 164.427 167.737 163.039 169.443 163.039C171.149 163.039 172.537 164.427 172.537 166.133C172.537 166.758 172.031 167.264 171.406 167.264Z" fill="black"/>
<path opacity="0.1" d="M148.967 147.103C133.406 154.502 128.055 177.966 131.68 189.934C134.988 200.854 145.881 203.572 159.36 203.572C164.733 203.572 169.695 203.139 173.93 201.928C141.755 203.211 141.404 161.849 148.967 147.103Z" fill="black"/>
<path d="M153.686 206.102H148.74C147.241 206.102 146.027 204.888 146.027 203.39C146.027 201.891 147.241 200.677 148.74 200.677H153.686C155.185 200.677 156.399 201.891 156.399 203.39C156.399 204.888 155.185 206.102 153.686 206.102Z" fill="#EEC151"/>
<path d="M165.034 206.102H169.981C171.479 206.102 172.694 204.888 172.694 203.39C172.694 201.891 171.479 200.677 169.981 200.677H165.034C163.536 200.677 162.321 201.891 162.321 203.39C162.321 204.888 163.536 206.102 165.034 206.102Z" fill="#EEC151"/>
<g clip-path="url(#clip1)">
<path d="M147.902 39.215H143.179C143.179 25.5036 132.023 14.3476 118.312 14.3476C104.6 14.3476 93.4443 25.5036 93.4443 39.215H88.7217C88.7217 22.8993 101.996 9.625 118.312 9.625C134.627 9.625 147.902 22.8993 147.902 39.215Z" fill="#656AFF"/>
<path d="M143.179 39.215H138.456C138.456 28.1078 129.418 19.0696 118.311 19.0696C107.204 19.0696 98.1665 28.1078 98.1665 39.215H93.4438C93.4438 25.5035 104.6 14.3476 118.311 14.3476C132.023 14.3476 143.179 25.5035 143.179 39.215Z" fill="#FFF200"/>
<path d="M138.456 39.2149H133.734C133.734 30.6978 126.829 23.7922 118.312 23.7922C109.793 23.7922 102.889 30.6978 102.889 39.2149H98.167C98.167 28.1077 107.205 19.0696 118.312 19.0696C129.419 19.0696 138.456 28.1077 138.456 39.2149Z" fill="#F8981E"/>
<path d="M121.373 37.0097C120.254 30.675 114.723 25.8631 108.068 25.8631C103.597 25.8631 99.6354 28.0344 97.1757 31.3788C94.5656 30.5299 91.5854 31.1403 89.5116 33.2135C88.144 34.5811 87.4132 36.3441 87.3169 38.1347C83.1488 38.9371 80 42.6017 80 47.0036C80 51.9935 84.0447 56.0382 89.0346 56.0382H117.246C122.748 56.0382 127.208 51.5782 127.208 46.076C127.209 42.0466 124.815 38.5788 121.373 37.0097Z" fill="#ECE6FF"/>
<path d="M140.407 33.3068L144.763 31.4792C146.037 30.944 147.507 31.5262 148.07 32.7899L150.12 37.3897C150.38 37.9736 150.85 38.4377 151.437 38.6909L155.462 40.4251C156.866 41.0296 157.422 42.7268 156.651 44.0457L154.285 48.0898C153.821 48.8828 153.821 49.8651 154.285 50.6588L156.651 54.7029C157.422 56.0217 156.866 57.7183 155.462 58.3234L151.437 60.0576C150.85 60.3102 150.38 60.7749 150.12 61.3582L148.07 65.9587C147.507 67.2217 146.037 67.8039 144.763 67.2687L140.407 65.4411C139.792 65.1832 139.101 65.1768 138.481 65.4241L133.808 67.2858C132.499 67.8074 131.015 67.1659 130.5 65.8553L128.769 61.4616C128.515 60.816 128.008 60.302 127.365 60.0394L122.794 58.1689C121.474 57.629 120.856 56.1092 121.425 54.801L123.342 50.3879C123.623 49.7411 123.623 49.0068 123.342 48.3606L121.425 43.947C120.856 42.6387 121.474 41.1189 122.794 40.579L127.365 38.7086C128.008 38.446 128.515 37.9325 128.769 37.2863L130.5 32.8932C131.015 31.582 132.499 30.9405 133.808 31.4622L138.481 33.3244C139.101 33.5712 139.792 33.5647 140.407 33.3068Z" fill="#FCB040"/>
<path d="M152.377 49.3739C152.377 56.6256 146.498 62.5044 139.247 62.5044C131.995 62.5044 126.116 56.6256 126.116 49.3739C126.116 42.1223 131.995 36.2435 139.247 36.2435C146.498 36.2435 152.377 42.1223 152.377 49.3739Z" fill="#FFF200"/>
</g>
<path d="M98.5991 161.581C97.3947 161.581 96.4182 160.605 96.4182 159.4V153.495C96.4182 152.319 95.4609 151.362 94.2845 151.362H85.7157C84.5391 151.362 83.582 152.319 83.582 153.495V159.4C83.582 160.604 82.6056 161.581 81.4011 161.581C80.1966 161.581 79.2202 160.605 79.2202 159.4V153.495C79.2202 149.914 82.1341 147 85.7157 147H94.2845C97.866 147 100.78 149.914 100.78 153.495V159.4C100.78 160.604 99.8036 161.581 98.5991 161.581Z" fill="#FF4B28"/>
<path d="M118.664 179.464V204.113C118.664 206.813 116.476 209 113.777 209H66.2234C63.5241 209 61.3369 206.813 61.3369 204.113V179.464H118.664Z" fill="#C9513B"/>
<path d="M118.664 179.464H61.3369V183.437L84.9973 191.872C86.6075 192.447 88.2907 192.737 90.0002 192.737C91.7096 192.737 93.3929 192.446 95.003 191.872L118.663 183.437L118.664 179.464Z" fill="#AD4F3D"/>
<path d="M66.2234 204.638C65.9341 204.638 65.6987 204.314 65.6987 203.915V175.932H114.302V203.915C114.302 204.314 114.066 204.638 113.777 204.638H66.2234V204.638Z" fill="#FA9F6A"/>
<path d="M114.302 175.932H65.6987V184.992L84.9974 191.873C86.6076 192.447 88.2908 192.738 90.0003 192.738C91.7098 192.738 93.393 192.447 95.0032 191.873L114.302 184.992V175.932H114.302Z" fill="#E0824A"/>
<path d="M118.664 161.669V179.464L93.7464 188.348C91.3238 189.211 88.6767 189.211 86.254 188.348L61.3369 179.464V161.669C61.3369 158.97 63.524 156.783 66.2234 156.783H113.777C116.476 156.783 118.664 158.97 118.664 161.669Z" fill="#CA391D"/>
<path d="M72.4651 154.745H70.4902C69.7166 154.745 69.0894 155.372 69.0894 156.145V190.734C69.0894 191.507 69.7165 192.134 70.4902 192.134H72.4651C73.2386 192.134 73.8659 191.507 73.8659 190.734V156.145C73.8659 155.372 73.2388 154.745 72.4651 154.745Z" fill="#8B210C"/>
<path d="M74.263 174.352H68.6922C68.1227 174.352 67.6611 174.814 67.6611 175.383V176.481C67.6611 177.05 68.1229 177.512 68.6922 177.512H74.2632C74.8327 177.512 75.2943 177.05 75.2943 176.481V175.383C75.2942 174.814 74.8324 174.352 74.263 174.352Z" fill="#FADC60"/>
<path d="M107.535 154.745H109.51C110.284 154.745 110.911 155.372 110.911 156.145V190.734C110.911 191.507 110.284 192.134 109.51 192.134H107.535C106.762 192.134 106.134 191.507 106.134 190.734V156.145C106.134 155.372 106.761 154.745 107.535 154.745Z" fill="#8B210C"/>
<path d="M105.737 174.352H111.308C111.878 174.352 112.339 174.814 112.339 175.383V176.481C112.339 177.05 111.877 177.512 111.308 177.512H105.737C105.168 177.512 104.706 177.05 104.706 176.481V175.383C104.706 174.814 105.168 174.352 105.737 174.352Z" fill="#FADC60"/>
<path d="M89.9997 185.319C92.7184 185.319 94.9223 184.121 94.9223 182.642C94.9223 181.163 92.7184 179.964 89.9997 179.964C87.2811 179.964 85.0771 181.163 85.0771 182.642C85.0771 184.121 87.2811 185.319 89.9997 185.319Z" fill="#E6CB59"/>
<path d="M89.9999 178.53C89.1739 178.53 88.5044 179.199 88.5044 180.025V185.259C88.5044 186.085 89.1739 186.755 89.9999 186.755C90.8259 186.755 91.4954 186.085 91.4954 185.259V180.025C91.4954 179.199 90.8259 178.53 89.9999 178.53Z" fill="#FADC60"/>
<g opacity="0.69">
<path d="M28 14C28 18.4184 24.4184 22 20 22C15.5816 22 12 18.4184 12 14C12 9.58164 15.5816 6 20 6C24.4184 6 28 9.58164 28 14Z" fill="#FCB040"/>
<path d="M25.2001 14.0001C24.5374 14.0001 24.0001 13.4628 24.0001 12.8001C24.0001 12.5792 23.821 12.4001 23.6001 12.4001C23.3792 12.4001 23.2001 12.5792 23.2001 12.8001C23.2001 13.4628 22.6628 14.0001 22.0001 14.0001C21.7792 14.0001 21.6001 14.1792 21.6001 14.4001C21.6001 14.621 21.7792 14.8001 22.0001 14.8001C22.6628 14.8001 23.2001 15.3374 23.2001 16.0001C23.2001 16.221 23.3792 16.4001 23.6001 16.4001C23.821 16.4001 24.0001 16.221 24.0001 16.0001C24.0001 15.3374 24.5374 14.8001 25.2001 14.8001C25.421 14.8001 25.6001 14.621 25.6001 14.4001C25.6001 14.1792 25.421 14.0001 25.2001 14.0001ZM23.6001 14.8124C23.4835 14.6556 23.3446 14.5167 23.1878 14.4001C23.3446 14.2835 23.4835 14.1446 23.6001 13.9878C23.7167 14.1446 23.8556 14.2835 24.0124 14.4001C23.8556 14.5167 23.7167 14.6556 23.6001 14.8124Z" fill="#E6F1FD"/>
<path d="M20.4003 10.4C19.7376 10.4 19.2003 9.86268 19.2003 9.19999C19.2003 8.97909 19.0212 8.79999 18.8003 8.79999C18.5794 8.79999 18.4003 8.97909 18.4003 9.19999C18.4003 9.86268 17.863 10.4 17.2003 10.4C16.9794 10.4 16.8003 10.5791 16.8003 10.8C16.8003 11.0209 16.9794 11.2 17.2003 11.2C17.863 11.2 18.4003 11.7373 18.4003 12.4C18.4003 12.6209 18.5794 12.8 18.8003 12.8C19.0212 12.8 19.2003 12.6209 19.2003 12.4C19.2003 11.7373 19.7376 11.2 20.4003 11.2C20.6212 11.2 20.8003 11.0209 20.8003 10.8C20.8003 10.5791 20.6212 10.4 20.4003 10.4ZM18.8003 11.2123C18.6837 11.0555 18.5448 10.9166 18.388 10.8C18.5448 10.6834 18.6837 10.5445 18.8003 10.3877C18.9169 10.5445 19.0558 10.6834 19.2126 10.8C19.0558 10.9166 18.9169 11.0555 18.8003 11.2123Z" fill="#E6F1FD"/>
<path d="M20.3999 18.8001C20.3999 18.5792 20.579 18.4001 20.7999 18.4001C21.0208 18.4001 21.1999 18.5792 21.1999 18.8001C21.1999 19.021 21.0208 19.2001 20.7999 19.2001C20.579 19.2001 20.3999 19.021 20.3999 18.8001Z" fill="#E6F1FD"/>
<path d="M26.3998 13.6C26.1809 13.6291 25.9803 13.4727 25.9422 13.2552C25.1837 8.92308 21.945 8.16127 20.7981 8.02805C20.5786 8.00256 20.3999 7.82093 20.3999 7.60001C20.3999 7.3791 20.5784 7.20457 20.7978 7.23003C22.0523 7.37555 25.8882 8.22354 26.7356 13.1485C26.7731 13.3662 26.6188 13.5709 26.3998 13.6Z" fill="#E6F1FD"/>
</g>
<g opacity="0.69">
<path d="M256 195C256 198.314 253.314 201 250 201C246.686 201 244 198.314 244 195C244 191.686 246.686 189 250 189C253.314 189 256 191.686 256 195Z" fill="#FF298F"/>
<path d="M249.077 196.385C249.077 196.13 249.284 195.923 249.539 195.923C249.794 195.923 250 196.13 250 196.385C250 196.639 249.794 196.846 249.539 196.846C249.284 196.846 249.077 196.639 249.077 196.385Z" fill="#E6F1FD"/>
<path d="M245.825 195.925C245.582 195.947 245.369 195.768 245.37 195.524C245.371 194.71 245.519 192.95 246.655 191.706C247.424 190.906 248.467 190.435 249.565 190.383C249.809 190.372 250 190.576 250 190.82C250 191.084 249.777 191.291 249.513 191.312C248.695 191.379 247.921 191.736 247.338 192.329C246.469 193.28 246.314 194.67 246.298 195.398C246.292 195.658 246.085 195.902 245.825 195.925Z" fill="#E6F1FD"/>
</g>
<defs>
<clipPath id="clip0">
<rect width="165" height="165" fill="white" transform="translate(116 25)"/>
</clipPath>
<clipPath id="clip1">
<rect width="77" height="77" fill="white" transform="translate(80)"/>
</clipPath>
</defs>
</svg>
