<?xml version="1.0" encoding="utf-8"?>
<!-- Generator: Adobe Illustrator 16.0.0, SVG Export Plug-In . SVG Version: 6.00 Build 0)  -->
<!DOCTYPE svg PUBLIC "-//W3C//DTD SVG 1.1//EN" "http://www.w3.org/Graphics/SVG/1.1/DTD/svg11.dtd">
<svg version="1.1" id="Layer_1" xmlns="http://www.w3.org/2000/svg" xmlns:xlink="http://www.w3.org/1999/xlink" x="0px" y="0px"
	 width="25px" height="90px" viewBox="0 0 25 90" enable-background="new 0 0 25 90" xml:space="preserve">
<rect id="backgroundrect" fill="none" width="25" height="90"/>
<g>
	<title>Layer 1</title>
	<path id="svg_1" fill="#FFBD86" d="M25.296,89.518H0l0-70.367c0-2.923,0.861-5.783,2.476-8.22l5.623-8.487
		c2.158-3.257,6.94-3.257,9.098,0l5.623,8.486c1.614,2.438,2.476,5.296,2.476,8.221V89.518z"/>
	<path id="svg_2" fill="#656AFF" d="M20.172,16.275c-0.934,0.943-2.457,0.943-3.391,0l-1.91-1.933c-1.223-1.238-3.223-1.238-4.447,0
		l-1.91,1.932c-0.933,0.943-2.457,0.944-3.39,0l-3.613-3.657c-0.99,2.026-1.511,4.26-1.511,6.533l0,70.367h25.296V19.151
		c0-2.273-0.521-4.507-1.511-6.534L20.172,16.275z"/>
	<path id="svg_3" fill="#394049" d="M6.819,89.518h11.656l0.001-72.536c-0.615,0-1.229-0.236-1.695-0.708l-1.91-1.932
		c-1.225-1.238-3.224-1.238-4.448,0l-1.909,1.932c-0.466,0.472-1.081,0.708-1.695,0.708L6.819,89.518z"/>
	<path id="svg_4" fill="#656AFF" d="M20.156,6.908l-2.959-4.464c-2.158-3.257-6.94-3.258-9.098,0L5.141,6.908
		c2.064,1.11,4.671,1.774,7.507,1.774C15.484,8.683,18.092,8.018,20.156,6.908z"/>
</g>
<g>
	<path fill="#FFFFFF" d="M12.319,51.508l-0.798,0.047c-1.149,0.078-1.861,0.117-2.135,0.117c-0.477,0-0.85-0.025-1.12-0.076
		c-0.27-0.051-0.449-0.141-0.539-0.27s-0.135-0.318-0.135-0.568c0-0.195,0.057-0.473,0.17-0.832s0.334-0.953,0.662-1.781
		c0.266-0.648,0.465-1.16,0.598-1.535c0.414-1.078,0.742-1.856,0.984-2.333c0.078-0.148,0.146-0.271,0.205-0.369
		s0.127-0.213,0.205-0.346c0.258-0.406,0.57-0.727,0.938-0.961c0.836-0.563,1.629-0.844,2.378-0.844
		c0.594,0,0.891,0.145,0.891,0.434c0,0.383-0.746,1.633-2.238,3.75c-0.727,1.031-1.359,1.988-1.898,2.871l2.742-0.141
		c0.195-0.648,0.455-1.182,0.781-1.6c0.324-0.418,0.732-0.729,1.225-0.932c0.494-0.203,1.064-0.305,1.713-0.305
		c0.338,0,0.574,0.037,0.711,0.111s0.205,0.197,0.205,0.37c0,0.157-0.059,0.427-0.176,0.809s-0.273,0.835-0.469,1.358l-0.094,0.234
		c0.156-0.016,0.26-0.025,0.309-0.029c0.051-0.004,0.115-0.01,0.193-0.018c0.07-0.008,0.129-0.014,0.18-0.018
		s0.107-0.006,0.17-0.006c0.178,0,0.268,0.047,0.268,0.141c0,0.031-0.008,0.055-0.023,0.07c-0.141,0.313-0.334,0.65-0.584,1.014
		c-0.248,0.363-0.479,0.65-0.689,0.861c-0.162,0.195-0.377,0.332-0.643,0.41c-0.172,0.563-0.49,1.642-0.959,3.236
		c-0.016,0.07-0.033,0.164-0.053,0.281c-0.021,0.117-0.035,0.199-0.041,0.246c-0.119,0.646-0.271,1.057-0.459,1.229
		c-0.617,0.367-1.162,0.639-1.631,0.814c-0.469,0.176-0.927,0.264-1.373,0.264c-0.321,0-0.606-0.078-0.856-0.234
		c-0.251-0.156-0.376-0.34-0.376-0.551c0-0.203,0.082-0.572,0.246-1.107c0.165-0.535,0.403-1.191,0.717-1.969
		C11.833,52.576,12.099,51.961,12.319,51.508z"/>
</g>
</svg>
