<?xml version="1.0" encoding="utf-8"?>
<!-- Generator: Adobe Illustrator 16.0.0, SVG Export Plug-In . SVG Version: 6.00 Build 0)  -->
<!DOCTYPE svg PUBLIC "-//W3C//DTD SVG 1.1//EN" "http://www.w3.org/Graphics/SVG/1.1/DTD/svg11.dtd">
<svg version="1.1" id="Layer_1" xmlns="http://www.w3.org/2000/svg" xmlns:xlink="http://www.w3.org/1999/xlink" x="0px" y="0px"
	 width="25px" height="90px" viewBox="0 0 25 90" enable-background="new 0 0 25 90" xml:space="preserve">
<rect id="backgroundrect" fill="none" width="25" height="90"/>
<g>
	<title>Layer 1</title>
	<path id="svg_1" fill="#FFBD86" d="M25.296,89.518H0l0-70.367c0-2.923,0.861-5.783,2.476-8.22l5.623-8.487
		c2.158-3.257,6.94-3.257,9.098,0l5.623,8.486c1.614,2.438,2.476,5.296,2.476,8.221V89.518z"/>
	<path id="svg_2" fill="#51008E" d="M20.172,16.275c-0.934,0.943-2.457,0.943-3.391,0l-1.91-1.933c-1.223-1.238-3.223-1.238-4.447,0
		l-1.91,1.932c-0.933,0.943-2.457,0.944-3.39,0l-3.613-3.657c-0.99,2.026-1.511,4.26-1.511,6.533l0,70.367h25.296V19.151
		c0-2.273-0.521-4.507-1.511-6.534L20.172,16.275z"/>
	<path id="svg_3" fill="#394049" d="M6.819,89.518h11.656l0.001-72.536c-0.615,0-1.229-0.236-1.695-0.708l-1.91-1.932
		c-1.225-1.238-3.224-1.238-4.448,0l-1.909,1.932c-0.466,0.472-1.081,0.708-1.695,0.708L6.819,89.518z"/>
	<path id="svg_4" fill="#51008E" d="M20.156,6.908l-2.959-4.464c-2.158-3.257-6.94-3.258-9.098,0L5.141,6.908
		c2.064,1.11,4.671,1.774,7.507,1.774C15.484,8.683,18.092,8.018,20.156,6.908z"/>
</g>
<g>
	<path fill="#FCFCFC" d="M12.842,44.766l-0.867,1.535l0.047,0.047c0.555-0.234,1.047-0.402,1.477-0.504s0.852-0.152,1.266-0.152
		c1.07,0,1.902,0.252,2.496,0.756s0.891,1.213,0.891,2.127c0,0.453-0.064,0.932-0.193,1.436s-0.32,1.012-0.574,1.523
		s-0.559,1.014-0.914,1.506s-0.795,1.004-1.318,1.535c-0.766,0.773-1.533,1.379-2.303,1.816s-1.459,0.656-2.068,0.656
		c-0.445,0-0.883-0.088-1.313-0.264s-0.809-0.424-1.137-0.744c-0.578-0.578-0.867-1.395-0.867-2.449
		c0-1.406,0.402-2.508,1.207-3.305c0.398-0.406,0.865-0.74,1.4-1.002s1.002-0.393,1.4-0.393c0.422,0,0.633,0.117,0.633,0.352v0.035
		c-0.336,0.398-0.588,0.736-0.756,1.014s-0.342,0.65-0.521,1.119c-0.305,0.781-0.457,1.691-0.457,2.73
		c0,0.805,0.16,1.207,0.48,1.207c0.414,0,0.863-0.242,1.348-0.727c0.531-0.555,0.992-1.242,1.383-2.063s0.586-1.516,0.586-2.086
		c0-0.797-0.166-1.385-0.498-1.764s-0.861-0.568-1.588-0.568c-0.406,0-0.953,0.074-1.641,0.223
		c-0.375,0.063-0.574,0.094-0.598,0.094c-0.227,0-0.416-0.076-0.568-0.229s-0.229-0.35-0.229-0.592c0-0.203,0.105-0.625,0.316-1.266
		c0.336-1.078,0.688-2.055,1.055-2.93l0.07-0.164c0.039-0.078,0.105-0.223,0.199-0.434c0.227-0.555,0.428-0.902,0.604-1.043
		s0.494-0.211,0.955-0.211c1.477,0,2.59,0.016,3.34,0.047c0.172,0,0.32,0.008,0.445,0.023h0.152
		c0.586,0.031,0.984,0.082,1.195,0.152s0.316,0.18,0.316,0.328c0,0.133-0.088,0.334-0.264,0.604s-0.393,0.525-0.65,0.768
		c-0.438,0.438-0.891,0.775-1.359,1.014s-0.93,0.357-1.383,0.357c-0.195,0-0.504-0.023-0.926-0.07
		c-0.125-0.031-0.191-0.047-0.199-0.047H12.842z"/>
</g>
</svg>
