<?xml version="1.0" encoding="utf-8"?>
<!-- Generator: Adobe Illustrator 16.0.0, SVG Export Plug-In . SVG Version: 6.00 Build 0)  -->
<!DOCTYPE svg PUBLIC "-//W3C//DTD SVG 1.1//EN" "http://www.w3.org/Graphics/SVG/1.1/DTD/svg11.dtd">
<svg version="1.1" id="Layer_1" xmlns="http://www.w3.org/2000/svg" xmlns:xlink="http://www.w3.org/1999/xlink" x="0px" y="0px"
	 width="25px" height="90px" viewBox="0 0 25 90" enable-background="new 0 0 25 90" xml:space="preserve">
<rect id="backgroundrect" fill="none" width="25" height="90"/>
<g>
	<title>Layer 1</title>
	<path id="svg_1" fill="#FFBD86" d="M25.296,89.518H0l0-70.367c0-2.923,0.861-5.783,2.476-8.22l5.623-8.487
		c2.158-3.257,6.94-3.257,9.098,0l5.623,8.486c1.614,2.438,2.476,5.296,2.476,8.221V89.518z"/>
	<path id="svg_2" fill="#7FC325" d="M20.172,16.275c-0.934,0.943-2.457,0.943-3.391,0l-1.91-1.933c-1.223-1.238-3.223-1.238-4.447,0
		l-1.91,1.932c-0.933,0.943-2.457,0.944-3.39,0l-3.613-3.657c-0.99,2.026-1.511,4.26-1.511,6.533l0,70.367h25.296V19.151
		c0-2.273-0.521-4.507-1.511-6.534L20.172,16.275z"/>
	<path id="svg_3" fill="#394049" d="M6.819,89.518h11.656l0.001-72.536c-0.615,0-1.229-0.236-1.695-0.708l-1.91-1.932
		c-1.225-1.238-3.224-1.238-4.448,0l-1.909,1.932c-0.466,0.472-1.081,0.708-1.695,0.708L6.819,89.518z"/>
	<path id="svg_4" fill="#7FC325" d="M20.156,6.908l-2.959-4.464c-2.158-3.257-6.94-3.258-9.098,0L5.141,6.908
		c2.064,1.11,4.671,1.774,7.507,1.774C15.484,8.683,18.092,8.018,20.156,6.908z"/>
</g>
<g>
	<path fill="#FFFFFF" d="M12.317,44.872l0.234-0.574c-0.117,0.031-0.301,0.102-0.551,0.211c-0.539,0.227-0.883,0.34-1.031,0.34
		c-0.141,0-0.256-0.076-0.346-0.229s-0.135-0.35-0.135-0.592c0-0.203,0.051-0.445,0.152-0.727s0.211-0.473,0.328-0.574
		c0.203-0.156,1.094-0.602,2.672-1.336l0.352-0.152c0.07-0.047,0.184-0.102,0.34-0.164c1.039-0.508,1.703-0.762,1.992-0.762
		c0.258,0,0.459,0.074,0.604,0.223c0.145,0.148,0.216,0.359,0.214,0.632c0,0.585-0.273,1.621-0.82,3.105
		c-0.125,0.36-0.225,0.643-0.299,0.85s-0.182,0.514-0.322,0.92c-0.039,0.148-0.082,0.301-0.128,0.457
		c-0.273,0.914-0.473,1.602-0.598,2.063c-0.016,0.055-0.068,0.24-0.158,0.557s-0.154,0.544-0.193,0.685s-0.082,0.286-0.129,0.434
		c-0.523,2-0.96,3.281-1.312,3.844c-0.117,0.181-0.254,0.341-0.41,0.481c-0.336,0.258-0.627,0.457-0.873,0.598
		s-0.48,0.24-0.703,0.299s-0.474,0.088-0.755,0.088c-0.406,0-0.768-0.119-1.083-0.357c-0.316-0.238-0.475-0.51-0.475-0.814
		c0-0.055,0.016-0.145,0.047-0.27C9.853,51.364,10.981,48.286,12.317,44.872z"/>
</g>
</svg>
