<?xml version="1.0" encoding="utf-8"?>
<!-- Generator: Adobe Illustrator 16.0.0, SVG Export Plug-In . SVG Version: 6.00 Build 0)  -->
<!DOCTYPE svg PUBLIC "-//W3C//DTD SVG 1.1//EN" "http://www.w3.org/Graphics/SVG/1.1/DTD/svg11.dtd">
<svg version="1.1" id="Layer_1" xmlns="http://www.w3.org/2000/svg" xmlns:xlink="http://www.w3.org/1999/xlink" x="0px" y="0px"
	 width="25px" height="90px" viewBox="0 0 25 90" enable-background="new 0 0 25 90" xml:space="preserve">
<rect id="backgroundrect" fill="none" width="25" height="90"/>
<g>
	<title>Layer 1</title>
	<path id="svg_1" fill="#FFBD86" d="M25.296,89.518H0l0-70.367c0-2.923,0.861-5.783,2.476-8.22l5.623-8.487
		c2.158-3.257,6.94-3.257,9.098,0l5.623,8.486c1.614,2.438,2.476,5.296,2.476,8.221V89.518z"/>
	<path id="svg_2" fill="#ED1C24" d="M20.172,16.275c-0.934,0.943-2.457,0.943-3.391,0l-1.91-1.933c-1.223-1.238-3.223-1.238-4.447,0
		l-1.91,1.932c-0.933,0.943-2.457,0.944-3.39,0l-3.613-3.657c-0.99,2.026-1.511,4.26-1.511,6.533l0,70.367h25.296V19.151
		c0-2.273-0.521-4.507-1.511-6.534L20.172,16.275z"/>
	<path id="svg_3" fill="#394049" d="M6.82,89.518h11.656V16.982c-0.613,0-1.229-0.236-1.695-0.708l-1.909-1.932
		c-1.225-1.238-3.224-1.238-4.448,0l-1.909,1.932c-0.467,0.472-1.081,0.708-1.695,0.708L6.82,89.518z"/>
	<path id="svg_4" fill="#ED1C24" d="M20.156,6.908l-2.959-4.464c-2.158-3.257-6.94-3.258-9.098,0L5.141,6.908
		c2.064,1.11,4.671,1.774,7.507,1.774C15.484,8.683,18.092,8.018,20.156,6.908z"/>
</g>
<g>
	<path fill="#FFFFFF" d="M10.487,51.62l0.891-0.609c-0.82-0.734-1.414-1.415-1.78-2.04c-0.367-0.625-0.551-1.266-0.551-1.922
		c0-0.547,0.125-1.07,0.375-1.57s0.602-0.943,1.055-1.33s0.979-0.688,1.576-0.902s1.221-0.322,1.87-0.322
		c0.992,0,1.488,0.168,1.488,0.504c0,0.109-0.121,0.176-0.363,0.199c-0.484,0.086-0.875,0.332-1.172,0.739
		c-0.227,0.297-0.424,0.676-0.592,1.137c-0.168,0.462-0.252,0.868-0.252,1.22c-0.002,0.813,0.317,1.453,0.959,1.922
		c0.438-0.462,0.784-0.946,1.038-1.454c0.255-0.508,0.382-0.984,0.382-1.43c0-0.431-0.121-0.782-0.363-1.056
		c-0.063-0.063-0.094-0.113-0.094-0.152c0-0.125,0.137-0.273,0.41-0.445c0.414-0.273,0.84-0.41,1.277-0.41
		c0.289,0,0.559,0.072,0.809,0.217s0.441,0.348,0.574,0.609s0.199,0.561,0.199,0.897c0,0.711-0.215,1.389-0.646,2.033
		c-0.43,0.646-1.177,1.409-2.239,2.292c0.642,0.632,1.111,1.232,1.408,1.803s0.445,1.145,0.445,1.723
		c0,0.641-0.172,1.277-0.516,1.91s-0.807,1.205-1.389,1.717s-1.232,0.918-1.951,1.219c-0.719,0.301-1.426,0.451-2.122,0.451
		c-1.109,0-2.008-0.277-2.695-0.832s-1.031-1.277-1.031-2.168c0-0.741,0.209-1.386,0.627-1.933
		C8.532,53.089,9.323,52.417,10.487,51.62z M12.726,52.041c-0.492,0.43-0.875,0.953-1.148,1.57s-0.41,1.262-0.41,1.934
		c0,0.516,0.063,0.918,0.188,1.207s0.301,0.434,0.527,0.434c0.086,0,0.195-0.033,0.328-0.1s0.23-0.131,0.293-0.193
		c0.336-0.336,0.633-0.781,0.891-1.336s0.387-1.027,0.387-1.418c0-0.492-0.094-0.92-0.281-1.283S13.055,52.221,12.726,52.041z"/>
</g>
</svg>
