<?xml version="1.0" encoding="utf-8"?>
<!-- Generator: Adobe Illustrator 16.0.0, SVG Export Plug-In . SVG Version: 6.00 Build 0)  -->
<!DOCTYPE svg PUBLIC "-//W3C//DTD SVG 1.1//EN" "http://www.w3.org/Graphics/SVG/1.1/DTD/svg11.dtd">
<svg version="1.1" id="Layer_1" xmlns="http://www.w3.org/2000/svg" xmlns:xlink="http://www.w3.org/1999/xlink" x="0px" y="0px"
	 width="25px" height="90px" viewBox="0 0 25 90" enable-background="new 0 0 25 90" xml:space="preserve">
<rect id="backgroundrect" fill="none" width="25" height="90"/>
<g>
	<title>Layer 1</title>
	<path id="svg_1" fill="#FFBD86" d="M25.296,89.518H0l0-70.367c0-2.923,0.861-5.783,2.476-8.22l5.623-8.487
		c2.158-3.257,6.94-3.257,9.098,0l5.623,8.486c1.614,2.438,2.476,5.296,2.476,8.221V89.518z"/>
	<path id="svg_2" fill="#C3184E" d="M20.172,16.275c-0.934,0.943-2.457,0.943-3.391,0l-1.91-1.933c-1.223-1.238-3.223-1.238-4.447,0
		l-1.91,1.932c-0.933,0.943-2.457,0.944-3.39,0l-3.613-3.657c-0.99,2.026-1.511,4.26-1.511,6.533l0,70.367h25.296V19.151
		c0-2.273-0.521-4.507-1.511-6.534L20.172,16.275z"/>
	<path id="svg_3" fill="#394049" d="M6.82,89.518h11.656V16.982c-0.613,0-1.229-0.236-1.695-0.708l-1.909-1.932
		c-1.224-1.238-3.224-1.238-4.448,0l-1.909,1.932c-0.467,0.472-1.081,0.708-1.695,0.708L6.82,89.518z"/>
	<path id="svg_4" fill="#C3184E" d="M20.156,6.908l-2.959-4.464c-2.158-3.257-6.94-3.258-9.098,0L5.141,6.908
		c2.064,1.11,4.671,1.774,7.507,1.774C15.484,8.683,18.092,8.018,20.156,6.908z"/>
</g>
<g>
	<path fill="#FFFFFF" d="M11.44,51.291l2.177-4.512c-0.07-0.016-0.16-0.023-0.27-0.023c-0.422,0-1.23,0.207-2.426,0.621
		c-0.617,0.219-1.096,0.373-1.436,0.463s-0.627,0.135-0.861,0.135c-0.438,0-0.656-0.168-0.656-0.504c0-0.281,0.113-0.658,0.34-1.131
		c0.226-0.473,0.492-0.896,0.796-1.271c0.203-0.258,0.391-0.43,0.563-0.516s0.429-0.129,0.773-0.129
		c0.148,0,0.269,0.008,0.363,0.023l2.635,0.047c1.773,0.047,2.998,0.214,3.678,0.503c0.25,0.125,0.375,0.308,0.375,0.55
		c0,0.218-0.145,0.628-0.436,1.23l-2.092,4.49h0.225h0.578h0.367c0.4,0,0.602,0.047,0.602,0.141c0,0.172-0.088,0.415-0.265,0.731
		c-0.176,0.315-0.362,0.567-0.558,0.755c-0.463,0.483-1.191,0.835-2.186,1.053l-1.576,3.87c-0.031,0.094-0.066,0.191-0.105,0.293
		c-0.117,0.313-0.242,0.544-0.375,0.692c-0.352,0.305-0.807,0.553-1.365,0.744c-0.558,0.191-1.111,0.287-1.658,0.287
		c-0.359,0-0.643-0.066-0.849-0.199c-0.207-0.133-0.311-0.305-0.311-0.516c0-0.242,0.259-0.82,0.776-1.734
		c0.023-0.039,0.042-0.072,0.059-0.1c0.016-0.027,0.035-0.064,0.059-0.111l1.541-2.789H9.781c-0.094,0.016-0.232,0.023-0.413,0.023
		c-0.675,0-1.013-0.254-1.013-0.762c0-0.164,0.063-0.414,0.187-0.75c0.319-0.719,0.584-1.176,0.794-1.371
		c0.109-0.109,0.428-0.164,0.958-0.164C10.63,51.361,11.011,51.338,11.44,51.291z"/>
</g>
</svg>
