<?xml version="1.0" encoding="utf-8"?>
<!-- Generator: Adobe Illustrator 16.0.0, SVG Export Plug-In . SVG Version: 6.00 Build 0)  -->
<!DOCTYPE svg PUBLIC "-//W3C//DTD SVG 1.1//EN" "http://www.w3.org/Graphics/SVG/1.1/DTD/svg11.dtd">
<svg version="1.1" id="Layer_1" xmlns="http://www.w3.org/2000/svg" xmlns:xlink="http://www.w3.org/1999/xlink" x="0px" y="0px"
	 width="25px" height="90px" viewBox="0 0 25 90" enable-background="new 0 0 25 90" xml:space="preserve">
<rect id="backgroundrect" fill="none" width="25" height="90"/>
<g>
	<title>Layer 1</title>
	<path id="svg_1" fill="#FFBD86" d="M25.296,89.518H0l0-70.367c0-2.923,0.861-5.783,2.476-8.22l5.623-8.487
		c2.158-3.257,6.94-3.257,9.098,0l5.623,8.486c1.614,2.438,2.476,5.296,2.476,8.221V89.518z"/>
	<path id="svg_2" fill="#F1592A" d="M20.172,16.275c-0.934,0.943-2.457,0.943-3.391,0l-1.91-1.933c-1.223-1.238-3.223-1.238-4.447,0
		l-1.91,1.932c-0.933,0.943-2.457,0.944-3.39,0l-3.613-3.657c-0.99,2.026-1.511,4.26-1.511,6.533l0,70.367h25.296V19.151
		c0-2.273-0.521-4.507-1.511-6.534L20.172,16.275z"/>
	<path id="svg_3" fill="#394049" d="M6.82,89.518h11.656V16.982c-0.613,0-1.229-0.236-1.695-0.708l-1.909-1.932
		c-1.225-1.238-3.224-1.238-4.448,0l-1.909,1.932c-0.467,0.472-1.081,0.708-1.695,0.708L6.82,89.518z"/>
	<path id="svg_4" fill="#F1592A" d="M20.156,6.908l-2.959-4.464c-2.158-3.257-6.94-3.258-9.098,0L5.141,6.908
		c2.064,1.11,4.671,1.774,7.507,1.774C15.484,8.683,18.092,8.018,20.156,6.908z"/>
</g>
<g>
	<path fill="#FFFFFF" d="M13.277,51.283v0.059l-0.047-0.059c-0.672,0.445-1.232,0.754-1.682,0.926s-0.92,0.258-1.412,0.258
		c-0.82,0-1.49-0.287-2.01-0.861s-0.779-1.318-0.779-2.232c0-1.023,0.32-2.021,0.961-2.994s1.477-1.764,2.508-2.373
		s2.066-0.91,3.105-0.902c1.141,0,2.125,0.406,2.953,1.219c0.945,0.945,1.418,2.234,1.418,3.867c0,1.172-0.293,2.379-0.879,3.621
		s-1.359,2.379-2.32,3.41s-2.027,1.861-3.199,2.49s-2.305,0.943-3.398,0.943c-0.25,0-0.428-0.027-0.533-0.082
		s-0.158-0.156-0.158-0.305c0-0.078,0.041-0.154,0.123-0.229s0.209-0.15,0.381-0.229c0.648-0.281,1.287-0.742,1.916-1.383
		s1.211-1.408,1.746-2.303S12.941,52.283,13.277,51.283z M13.535,50.639c0.313-0.75,0.551-1.498,0.715-2.244
		s0.246-1.455,0.246-2.127c0-0.594-0.092-1.066-0.275-1.418s-0.428-0.527-0.732-0.527c-0.125,0-0.285,0.057-0.48,0.17
		s-0.371,0.252-0.527,0.416c-0.414,0.43-0.74,0.93-0.979,1.5s-0.357,1.125-0.357,1.664c0,0.656,0.221,1.223,0.662,1.699
		S12.824,50.537,13.535,50.639z"/>
</g>
</svg>
