<?xml version="1.0" encoding="utf-8"?>
<!-- Generator: Adobe Illustrator 16.0.0, SVG Export Plug-In . SVG Version: 6.00 Build 0)  -->
<!DOCTYPE svg PUBLIC "-//W3C//DTD SVG 1.1//EN" "http://www.w3.org/Graphics/SVG/1.1/DTD/svg11.dtd">
<svg version="1.1" id="Layer_1" xmlns="http://www.w3.org/2000/svg" xmlns:xlink="http://www.w3.org/1999/xlink" x="0px" y="0px"
	 width="25px" height="90px" viewBox="0 0 25 90" enable-background="new 0 0 25 90" xml:space="preserve">
<rect id="backgroundrect" fill="none" width="25" height="90"/>
<g>
	<title>Layer 1</title>
	<path id="svg_1" fill="#FFBD86" d="M25.296,89.518H0l0-70.367c0-2.923,0.861-5.783,2.476-8.22l5.623-8.487
		c2.158-3.257,6.94-3.257,9.098,0l5.623,8.486c1.614,2.438,2.476,5.296,2.476,8.221V89.518z"/>
	<path id="svg_2" fill="#FFF200" d="M20.172,16.275c-0.934,0.943-2.457,0.943-3.391,0l-1.91-1.933c-1.223-1.238-3.223-1.238-4.447,0
		l-1.91,1.932c-0.933,0.943-2.457,0.944-3.39,0l-3.614-3.657c-0.99,2.026-1.51,4.26-1.51,6.533l0,70.367h25.296V19.151
		c0-2.273-0.521-4.507-1.512-6.534L20.172,16.275z"/>
	<path id="svg_3" fill="#394049" d="M6.82,89.518h11.657V16.982c-0.614,0-1.229-0.236-1.695-0.708l-1.909-1.932
		c-1.225-1.238-3.225-1.238-4.448,0l-1.909,1.932c-0.467,0.472-1.081,0.708-1.695,0.708V89.518z"/>
	<path id="svg_4" fill="#FFF200" d="M20.156,6.908l-2.959-4.464c-2.158-3.257-6.94-3.258-9.098,0L5.141,6.908
		c2.064,1.11,4.671,1.774,7.507,1.774C15.484,8.683,18.092,8.018,20.156,6.908z"/>
</g>
<g>
	<path fill="#FFFFFF" d="M8.129,49.029l0.176-0.431c-0.088,0.023-0.226,0.076-0.413,0.158c-0.404,0.17-0.662,0.255-0.773,0.255
		c-0.105,0-0.192-0.058-0.259-0.171c-0.067-0.115-0.101-0.263-0.101-0.444c0-0.152,0.038-0.334,0.114-0.545s0.158-0.354,0.246-0.431
		c0.152-0.117,0.82-0.451,2.004-1.002l0.264-0.114c0.053-0.035,0.138-0.076,0.255-0.123c0.779-0.381,1.277-0.571,1.494-0.571
		c0.193,0,0.344,0.056,0.453,0.167s0.162,0.27,0.161,0.475c0,0.438-0.205,1.215-0.615,2.329c-0.094,0.27-0.168,0.481-0.224,0.637
		c-0.056,0.156-0.136,0.386-0.242,0.69c-0.029,0.111-0.062,0.226-0.096,0.343c-0.205,0.686-0.354,1.201-0.448,1.547
		c-0.012,0.041-0.051,0.18-0.119,0.417s-0.116,0.409-0.145,0.515s-0.062,0.214-0.097,0.325c-0.393,1.5-0.72,2.461-0.984,2.883
		c-0.088,0.135-0.19,0.255-0.308,0.36C8.219,56.491,8,56.641,7.816,56.746c-0.185,0.105-0.36,0.181-0.527,0.224
		c-0.167,0.045-0.356,0.066-0.567,0.066c-0.305,0-0.576-0.089-0.813-0.268c-0.237-0.179-0.356-0.383-0.356-0.611
		c0-0.041,0.012-0.108,0.035-0.202C6.28,53.898,7.127,51.59,8.129,49.029z"/>
	<path fill="#FFFFFF" d="M14.791,52.571l0.141-0.176c0.398-0.604,0.68-1.052,0.844-1.345s0.296-0.601,0.396-0.923
		c0.146-0.445,0.22-0.908,0.22-1.389c0-0.492-0.061-0.861-0.18-1.107c-0.121-0.246-0.342-0.448-0.664-0.606
		c-0.41,0.592-0.615,1.342-0.615,2.25c0,0.352,0.056,0.712,0.167,1.081c0.047,0.135,0.07,0.226,0.07,0.272
		c0,0.17-0.091,0.255-0.272,0.255c-0.164,0-0.387-0.068-0.668-0.207c-0.281-0.137-0.495-0.279-0.642-0.426
		c-0.164-0.176-0.299-0.404-0.404-0.686s-0.158-0.58-0.158-0.896c0-0.445,0.093-0.87,0.276-1.274
		c0.186-0.404,0.444-0.756,0.778-1.055s0.731-0.532,1.19-0.698c0.461-0.168,0.948-0.251,1.464-0.251s0.985,0.112,1.411,0.338
		c0.424,0.226,0.763,0.536,1.015,0.932c0.252,0.395,0.378,0.824,0.378,1.286c0,0.346-0.066,0.715-0.199,1.107
		c-0.132,0.392-0.34,0.83-0.625,1.313c-0.286,0.483-0.651,1.015-1.097,1.595s-0.964,1.204-1.556,1.872l-0.176,0.211l-0.15,0.167
		c0.247,0.073,0.584,0.109,1.013,0.109s0.858-0.023,1.29-0.07c0.431-0.047,0.77-0.108,1.016-0.185
		c0.164-0.047,0.273-0.07,0.326-0.07c0.059,0,0.088,0.018,0.088,0.053c0,0.217-0.139,0.554-0.418,1.011
		c-0.277,0.457-0.569,0.835-0.874,1.134c-0.316,0.299-0.696,0.518-1.138,0.654c-0.443,0.139-0.989,0.207-1.64,0.207
		c-0.832,0-1.547-0.114-2.145-0.343s-0.896-0.504-0.896-0.826c0-0.223,0.302-0.668,0.905-1.336c0.428-0.486,0.817-0.97,1.169-1.45
		c0.023-0.035,0.048-0.07,0.075-0.105c0.025-0.035,0.049-0.068,0.07-0.102c0.02-0.031,0.048-0.077,0.083-0.136L14.791,52.571z"/>
</g>
</svg>
