<?xml version="1.0" encoding="utf-8"?>
<!-- Generator: Adobe Illustrator 16.0.0, SVG Export Plug-In . SVG Version: 6.00 Build 0)  -->
<!DOCTYPE svg PUBLIC "-//W3C//DTD SVG 1.1//EN" "http://www.w3.org/Graphics/SVG/1.1/DTD/svg11.dtd">
<svg version="1.1" id="Layer_1" xmlns="http://www.w3.org/2000/svg" xmlns:xlink="http://www.w3.org/1999/xlink" x="0px" y="0px"
	 width="25px" height="90px" viewBox="0 0 25 90" enable-background="new 0 0 25 90" xml:space="preserve">
<rect id="backgroundrect" fill="none" width="25" height="90"/>
<g>
	<title>Layer 1</title>
	<path id="svg_1" fill="#FFBD86" d="M25.296,89.518H0l0-70.367c0-2.923,0.861-5.783,2.476-8.22l5.623-8.487
		c2.158-3.257,6.94-3.257,9.098,0l5.623,8.486c1.614,2.438,2.476,5.296,2.476,8.221V89.518z"/>
	<path id="svg_2" fill="#FCB040" d="M20.172,16.275c-0.934,0.943-2.457,0.943-3.391,0l-1.91-1.933c-1.223-1.238-3.223-1.238-4.447,0
		l-1.91,1.932c-0.933,0.943-2.457,0.944-3.39,0l-3.613-3.657c-0.99,2.026-1.511,4.26-1.511,6.533l0,70.367h25.296V19.151
		c0-2.273-0.521-4.507-1.511-6.534L20.172,16.275z"/>
	<path id="svg_3" fill="#394049" d="M6.82,89.518h11.656V16.982c-0.613,0-1.229-0.236-1.695-0.708l-1.909-1.932
		c-1.225-1.238-3.224-1.238-4.448,0l-1.909,1.932c-0.467,0.472-1.081,0.708-1.695,0.708L6.82,89.518z"/>
	<path id="svg_4" fill="#FCB040" d="M20.156,6.908l-2.959-4.464c-2.158-3.257-6.94-3.258-9.098,0L5.141,6.908
		c2.064,1.11,4.671,1.774,7.507,1.774C15.484,8.683,18.092,8.018,20.156,6.908z"/>
</g>
<g>
	<path fill="#FFFFFF" d="M8.13,50.237l0.176-0.431c-0.088,0.023-0.226,0.076-0.413,0.158c-0.404,0.17-0.662,0.255-0.773,0.255
		c-0.105,0-0.192-0.058-0.259-0.171c-0.067-0.115-0.101-0.263-0.101-0.444c0-0.152,0.038-0.334,0.114-0.545s0.158-0.354,0.246-0.431
		c0.152-0.117,0.82-0.451,2.004-1.002l0.264-0.114c0.053-0.035,0.138-0.076,0.255-0.123c0.779-0.381,1.277-0.571,1.494-0.571
		c0.193,0,0.344,0.056,0.453,0.167s0.162,0.27,0.161,0.475c0,0.438-0.205,1.215-0.615,2.329c-0.094,0.27-0.168,0.481-0.224,0.637
		c-0.056,0.156-0.136,0.386-0.242,0.69c-0.029,0.111-0.062,0.226-0.096,0.343c-0.205,0.686-0.354,1.201-0.448,1.547
		c-0.012,0.041-0.051,0.18-0.119,0.417s-0.116,0.409-0.145,0.515s-0.062,0.214-0.097,0.325c-0.393,1.5-0.72,2.461-0.984,2.883
		c-0.088,0.135-0.19,0.255-0.308,0.36c-0.252,0.193-0.47,0.343-0.654,0.448c-0.185,0.105-0.36,0.181-0.527,0.224
		c-0.167,0.045-0.356,0.066-0.567,0.066c-0.305,0-0.576-0.089-0.813-0.268c-0.237-0.179-0.356-0.383-0.356-0.611
		c0-0.041,0.012-0.108,0.035-0.202C6.281,55.106,7.128,52.798,8.13,50.237z"/>
	<path fill="#FFFFFF" d="M14.88,50.237l0.176-0.431c-0.088,0.023-0.226,0.076-0.413,0.158c-0.404,0.17-0.662,0.255-0.773,0.255
		c-0.105,0-0.191-0.058-0.26-0.171c-0.066-0.115-0.101-0.263-0.101-0.444c0-0.152,0.038-0.334,0.114-0.545s0.158-0.354,0.246-0.431
		c0.152-0.117,0.82-0.451,2.004-1.002l0.264-0.114c0.053-0.035,0.138-0.076,0.255-0.123c0.779-0.381,1.277-0.571,1.494-0.571
		c0.193,0,0.345,0.056,0.452,0.167c0.109,0.111,0.162,0.27,0.161,0.475c0,0.438-0.205,1.215-0.615,2.329
		c-0.094,0.27-0.169,0.481-0.224,0.637c-0.057,0.156-0.137,0.386-0.242,0.69c-0.029,0.111-0.062,0.226-0.096,0.343
		c-0.205,0.686-0.355,1.201-0.449,1.547c-0.012,0.041-0.051,0.18-0.118,0.417s-0.116,0.409-0.146,0.515s-0.061,0.214-0.096,0.325
		c-0.393,1.5-0.721,2.461-0.984,2.883c-0.088,0.135-0.19,0.255-0.308,0.36c-0.252,0.193-0.47,0.343-0.654,0.448
		s-0.36,0.181-0.527,0.224c-0.167,0.045-0.356,0.066-0.567,0.066c-0.305,0-0.575-0.089-0.812-0.268
		c-0.237-0.179-0.356-0.383-0.356-0.611c0-0.041,0.012-0.108,0.035-0.202C13.031,55.106,13.878,52.798,14.88,50.237z"/>
</g>
</svg>
