<?xml version="1.0" encoding="utf-8"?>
<!-- Generator: Adobe Illustrator 16.0.0, SVG Export Plug-In . SVG Version: 6.00 Build 0)  -->
<!DOCTYPE svg PUBLIC "-//W3C//DTD SVG 1.1//EN" "http://www.w3.org/Graphics/SVG/1.1/DTD/svg11.dtd">
<svg version="1.1" id="Layer_1" xmlns="http://www.w3.org/2000/svg" xmlns:xlink="http://www.w3.org/1999/xlink" x="0px" y="0px"
	 width="25px" height="90px" viewBox="0 0 25 90" enable-background="new 0 0 25 90" xml:space="preserve">
<rect id="backgroundrect" fill="none" width="25" height="90"/>
<g>
	<title>Layer 1</title>
	<path id="svg_1" fill="#FFBD86" d="M25.296,89.518H0l0-70.367c0-2.923,0.861-5.783,2.476-8.22l5.623-8.487
		c2.158-3.257,6.94-3.257,9.098,0l5.623,8.486c1.614,2.438,2.476,5.296,2.476,8.221V89.518z"/>
	<path id="svg_2" fill="#F8981E" d="M20.172,16.275c-0.934,0.943-2.457,0.943-3.391,0l-1.91-1.933c-1.223-1.238-3.223-1.238-4.447,0
		l-1.91,1.932c-0.933,0.943-2.457,0.944-3.39,0l-3.613-3.657c-0.99,2.026-1.511,4.26-1.511,6.533l0,70.367h25.296V19.151
		c0-2.273-0.521-4.507-1.511-6.534L20.172,16.275z"/>
	<path id="svg_3" fill="#394049" d="M6.82,89.518h11.656V16.982c-0.613,0-1.229-0.236-1.695-0.708l-1.909-1.932
		c-1.225-1.238-3.224-1.238-4.448,0l-1.909,1.932c-0.467,0.472-1.081,0.708-1.695,0.708L6.82,89.518z"/>
	<path id="svg_4" fill="#F8981E" d="M20.156,6.908l-2.959-4.464c-2.158-3.257-6.94-3.258-9.098,0L5.141,6.908
		c2.064,1.11,4.671,1.774,7.507,1.774C15.484,8.683,18.092,8.018,20.156,6.908z"/>
</g>
<g>
	<path fill="#FFFFFF" d="M8.13,46.862l0.176-0.431c-0.088,0.023-0.226,0.076-0.413,0.158c-0.404,0.17-0.662,0.255-0.773,0.255
		c-0.105,0-0.192-0.058-0.259-0.171c-0.067-0.115-0.101-0.263-0.101-0.444c0-0.152,0.038-0.334,0.114-0.545s0.158-0.354,0.246-0.431
		c0.152-0.117,0.82-0.451,2.004-1.002l0.264-0.114c0.053-0.035,0.138-0.076,0.255-0.123c0.779-0.381,1.277-0.571,1.494-0.571
		c0.193,0,0.344,0.056,0.453,0.167s0.162,0.27,0.161,0.475c0,0.438-0.205,1.215-0.615,2.329c-0.094,0.27-0.168,0.481-0.224,0.637
		c-0.056,0.156-0.136,0.386-0.242,0.69c-0.029,0.111-0.062,0.226-0.096,0.343c-0.205,0.686-0.354,1.201-0.448,1.547
		c-0.012,0.041-0.051,0.18-0.119,0.417s-0.116,0.409-0.145,0.515s-0.062,0.214-0.097,0.325c-0.393,1.5-0.72,2.461-0.984,2.883
		c-0.088,0.135-0.19,0.255-0.308,0.36c-0.252,0.193-0.47,0.343-0.654,0.448c-0.185,0.105-0.36,0.181-0.527,0.224
		c-0.167,0.045-0.356,0.066-0.567,0.066c-0.305,0-0.576-0.089-0.813-0.268c-0.237-0.179-0.356-0.383-0.356-0.611
		c0-0.041,0.012-0.108,0.035-0.202C6.281,51.731,7.128,49.423,8.13,46.862z"/>
	<path fill="#FFFFFF" d="M19.292,43.531h0.088c0.316,0,0.62,0.144,0.909,0.431c0.291,0.287,0.521,0.671,0.69,1.151
		s0.255,0.984,0.255,1.512c0,0.533-0.076,1.127-0.229,1.779c-0.152,0.654-0.355,1.282-0.611,1.886
		c-0.254,0.604-0.563,1.189-0.922,1.758c-0.361,0.568-0.734,1.04-1.121,1.415c-0.914,0.926-1.849,1.389-2.804,1.389
		c-0.639,0-1.201-0.159-1.688-0.479s-0.861-0.773-1.125-1.363c-0.264-0.588-0.396-1.264-0.396-2.025c0-1.313,0.274-2.57,0.822-3.775
		c0.547-1.203,1.272-2.178,2.175-2.922s1.831-1.116,2.786-1.116C18.586,43.171,18.976,43.291,19.292,43.531z M18.501,43.944
		l0.158-0.088l-0.035-0.035c-0.375,0.006-0.761,0.195-1.155,0.567c-0.396,0.372-0.752,0.851-1.068,1.437s-0.574,1.248-0.773,1.986
		s-0.299,1.436-0.299,2.092c0,0.475,0.084,0.962,0.25,1.464c0.168,0.5,0.379,0.918,0.633,1.252c0.256,0.334,0.5,0.501,0.734,0.501
		c0.182,0,0.372-0.121,0.571-0.364s0.381-0.588,0.545-1.033c0.17-0.428,0.316-0.876,0.439-1.345s0.217-0.932,0.281-1.389
		s0.097-0.873,0.097-1.248c0-0.592-0.096-1.155-0.285-1.692c-0.191-0.535-0.438-0.933-0.743-1.19
		c-0.059-0.041-0.088-0.082-0.088-0.123C17.763,44.601,18.009,44.337,18.501,43.944z"/>
</g>
</svg>
