<?xml version="1.0" encoding="utf-8"?>
<!-- Generator: Adobe Illustrator 16.0.0, SVG Export Plug-In . SVG Version: 6.00 Build 0)  -->
<!DOCTYPE svg PUBLIC "-//W3C//DTD SVG 1.1//EN" "http://www.w3.org/Graphics/SVG/1.1/DTD/svg11.dtd">
<svg version="1.1" id="Layer_1" xmlns="http://www.w3.org/2000/svg" xmlns:xlink="http://www.w3.org/1999/xlink" x="0px" y="0px"
	 width="25px" height="90px" viewBox="0 0 25 90" enable-background="new 0 0 25 90" xml:space="preserve">
<rect id="backgroundrect" fill="none" width="25" height="90"/>
<g>
	<title>Layer 1</title>
	<path id="svg_1" fill="#FFBD86" d="M25.296,89.518H0l0-70.367c0-2.923,0.861-5.783,2.476-8.22l5.623-8.487
		c2.158-3.257,6.94-3.257,9.098,0l5.623,8.486c1.614,2.438,2.476,5.296,2.476,8.221V89.518z"/>
	<path id="svg_2" fill="#971993" d="M20.172,16.275c-0.934,0.943-2.457,0.943-3.391,0l-1.91-1.933c-1.223-1.238-3.223-1.238-4.447,0
		l-1.91,1.932c-0.933,0.943-2.457,0.944-3.39,0l-3.614-3.657c-0.99,2.026-1.51,4.26-1.51,6.533l0,70.367h25.296V19.151
		c0-2.273-0.521-4.507-1.512-6.534L20.172,16.275z"/>
	<path id="svg_3" fill="#394049" d="M6.819,89.518h11.656l0.001-72.536c-0.615,0-1.229-0.236-1.695-0.708l-1.91-1.932
		c-1.225-1.238-3.224-1.238-4.448,0l-1.909,1.932c-0.466,0.472-1.081,0.708-1.695,0.708L6.819,89.518z"/>
	<path id="svg_4" fill="#971993" d="M20.156,6.908l-2.959-4.464c-2.158-3.257-6.94-3.258-9.098,0L5.141,6.908
		c2.064,1.11,4.671,1.774,7.507,1.774C15.484,8.683,18.092,8.018,20.156,6.908z"/>
</g>
<g>
	<path fill="#FFFFFF" d="M13.99,45.297l-0.715,0.832l0.047,0.047c1.047-0.688,1.941-1.031,2.684-1.031
		c0.563,0,1.064,0.137,1.506,0.41s0.785,0.646,1.031,1.119s0.369,1.014,0.369,1.623c0,0.734-0.121,1.494-0.363,2.279
		s-0.586,1.543-1.031,2.273s-0.965,1.381-1.559,1.951c-0.531,0.516-1.188,0.924-1.969,1.225s-1.547,0.451-2.297,0.451
		c-1.445,0-2.547-0.307-3.305-0.92s-1.137-1.506-1.137-2.678c0-1.039,0.336-2.324,1.008-3.855s1.711-3.375,3.117-5.531
		c0.555-0.883,1.012-1.516,1.371-1.898c0.18-0.195,0.348-0.332,0.504-0.41s0.402-0.141,0.738-0.188
		c0.586-0.094,1.18-0.141,1.781-0.141c0.914,0,1.371,0.246,1.371,0.738c0,0.25-0.289,0.633-0.867,1.148
		c-0.336,0.281-0.879,0.875-1.629,1.781L13.99,45.297z M12.678,47.406c-0.273,0-0.555,0.16-0.844,0.48s-0.525,0.729-0.709,1.225
		s-0.275,0.982-0.275,1.459c0,0.641,0.123,1.238,0.369,1.793s0.586,0.998,1.02,1.33s0.885,0.498,1.354,0.498
		c0.25,0,0.449-0.07,0.598-0.211c0.25-0.289,0.455-0.758,0.615-1.406s0.24-1.34,0.24-2.074c0-0.648-0.096-1.205-0.287-1.67
		s-0.461-0.818-0.809-1.061S13.178,47.406,12.678,47.406z"/>
</g>
</svg>
