<?xml version="1.0" encoding="utf-8"?>
<!-- Generator: Adobe Illustrator 16.0.0, SVG Export Plug-In . SVG Version: 6.00 Build 0)  -->
<!DOCTYPE svg PUBLIC "-//W3C//DTD SVG 1.1//EN" "http://www.w3.org/Graphics/SVG/1.1/DTD/svg11.dtd">
<svg version="1.1" id="Layer_1" xmlns="http://www.w3.org/2000/svg" xmlns:xlink="http://www.w3.org/1999/xlink" x="0px" y="0px"
	 width="25px" height="90px" viewBox="0 0 25 90" enable-background="new 0 0 25 90" xml:space="preserve">
<rect id="backgroundrect" fill="none" width="25" height="90"/>
<g>
	<title>Layer 1</title>
	<path id="svg_1" fill="#FFBD86" d="M25.296,89.518H0l0-70.367c0-2.923,0.861-5.783,2.476-8.22l5.623-8.487
		c2.158-3.257,6.94-3.257,9.098,0l5.623,8.486c1.614,2.438,2.476,5.296,2.476,8.221V89.518z"/>
	<path id="svg_2" fill="#006C39" d="M20.172,16.275c-0.934,0.943-2.457,0.943-3.391,0l-1.91-1.933c-1.223-1.238-3.223-1.238-4.447,0
		l-1.91,1.932c-0.933,0.943-2.457,0.944-3.39,0l-3.613-3.657c-0.99,2.026-1.511,4.26-1.511,6.533l0,70.367h25.296V19.151
		c0-2.273-0.521-4.507-1.511-6.534L20.172,16.275z"/>
	<path id="svg_3" fill="#394049" d="M6.819,89.518h11.656l0.001-72.536c-0.615,0-1.229-0.236-1.695-0.708l-1.91-1.932
		c-1.225-1.238-3.224-1.238-4.448,0l-1.909,1.932c-0.466,0.472-1.081,0.708-1.695,0.708L6.819,89.518z"/>
	<path id="svg_4" fill="#006C39" d="M20.156,6.908l-2.959-4.464c-2.158-3.257-6.94-3.258-9.098,0L5.141,6.908
		c2.064,1.11,4.671,1.774,7.507,1.774C15.484,8.683,18.092,8.018,20.156,6.908z"/>
</g>
<g>
	<path fill="#FFFFFF" d="M10.686,50.344l0.188-0.234c0.531-0.805,0.906-1.402,1.125-1.793s0.395-0.801,0.527-1.23
		c0.195-0.594,0.293-1.211,0.293-1.852c0-0.656-0.08-1.148-0.24-1.477s-0.455-0.598-0.885-0.809c-0.547,0.789-0.82,1.789-0.82,3
		c0,0.469,0.074,0.949,0.223,1.441c0.063,0.18,0.094,0.301,0.094,0.363c0,0.227-0.121,0.34-0.363,0.34
		c-0.219,0-0.516-0.092-0.891-0.275s-0.66-0.373-0.855-0.568c-0.219-0.234-0.398-0.539-0.539-0.914S8.33,45.563,8.33,45.141
		c0-0.594,0.123-1.16,0.369-1.699s0.592-1.008,1.037-1.406s0.975-0.709,1.588-0.932s1.264-0.334,1.951-0.334s1.314,0.15,1.881,0.451
		c0.566,0.3,1.018,0.714,1.354,1.241c0.336,0.527,0.504,1.099,0.504,1.716c0,0.46-0.088,0.952-0.265,1.476
		c-0.177,0.522-0.455,1.106-0.835,1.751c-0.381,0.645-0.868,1.353-1.462,2.126s-1.285,1.605-2.074,2.495l-0.234,0.281l-0.199,0.223
		c0.328,0.098,0.778,0.146,1.35,0.146c0.57,0,1.144-0.031,1.719-0.094s1.027-0.145,1.355-0.246c0.22-0.063,0.364-0.094,0.435-0.094
		c0.078,0,0.117,0.023,0.117,0.07c0,0.289-0.186,0.738-0.557,1.348s-0.76,1.113-1.166,1.512c-0.422,0.398-0.928,0.689-1.518,0.873
		s-1.318,0.275-2.186,0.275c-1.109,0-2.063-0.152-2.859-0.457s-1.195-0.672-1.195-1.102c0-0.297,0.402-0.891,1.207-1.781
		c0.57-0.648,1.09-1.293,1.559-1.934c0.031-0.047,0.064-0.094,0.1-0.141s0.066-0.092,0.094-0.135s0.064-0.104,0.111-0.182
		L10.686,50.344z"/>
</g>
</svg>
