<?xml version="1.0" encoding="utf-8"?>
<!-- Generator: Adobe Illustrator 16.0.0, SVG Export Plug-In . SVG Version: 6.00 Build 0)  -->
<!DOCTYPE svg PUBLIC "-//W3C//DTD SVG 1.1//EN" "http://www.w3.org/Graphics/SVG/1.1/DTD/svg11.dtd">
<svg version="1.1" id="Layer_1" xmlns="http://www.w3.org/2000/svg" xmlns:xlink="http://www.w3.org/1999/xlink" x="0px" y="0px"
	 width="25px" height="90px" viewBox="0 0 25 90" enable-background="new 0 0 25 90" xml:space="preserve">
<rect id="backgroundrect" fill="none" width="25" height="90"/>
<g>
	<title>Layer 1</title>
	<path id="svg_1" fill="#FFBD86" d="M25.296,89.518H0l0-70.367c0-2.923,0.861-5.783,2.476-8.22l5.623-8.487
		c2.158-3.257,6.94-3.257,9.098,0l5.623,8.486c1.614,2.438,2.476,5.296,2.476,8.221V89.518z"/>
	<path id="svg_2" fill="#00C8BA" d="M20.172,16.275c-0.934,0.943-2.457,0.943-3.391,0l-1.91-1.933c-1.223-1.238-3.223-1.238-4.447,0
		l-1.91,1.932c-0.933,0.943-2.457,0.944-3.39,0l-3.613-3.657c-0.99,2.026-1.511,4.26-1.511,6.533l0,70.367h25.296V19.151
		c0-2.273-0.521-4.507-1.511-6.534L20.172,16.275z"/>
	<path id="svg_3" fill="#394049" d="M6.819,89.518h11.656l0.001-72.536c-0.615,0-1.229-0.236-1.695-0.708l-1.91-1.932
		c-1.225-1.238-3.224-1.238-4.448,0l-1.909,1.932c-0.466,0.472-1.081,0.708-1.695,0.708L6.819,89.518z"/>
	<path id="svg_4" fill="#00C8BA" d="M20.156,6.908l-2.959-4.464c-2.158-3.257-6.94-3.258-9.098,0L5.141,6.908
		c2.064,1.11,4.671,1.774,7.507,1.774C15.484,8.683,18.092,8.018,20.156,6.908z"/>
</g>
<g>
	<path fill="#FFFFFF" d="M10.418,55.738h0.07c0.258,0,0.58-0.119,0.967-0.357s0.768-0.553,1.143-0.943
		c0.484-0.5,0.869-1.033,1.154-1.6s0.428-1.096,0.428-1.588c0-1.07-0.566-1.719-1.699-1.945c-0.219-0.031-0.375-0.08-0.469-0.146
		s-0.141-0.17-0.141-0.311c0-0.156,0.188-0.395,0.563-0.715c0.563-0.492,1.001-1.029,1.318-1.611s0.475-1.166,0.475-1.752
		c0-0.625-0.129-0.938-0.387-0.938c-0.211,0-0.473,0.166-0.785,0.498c-0.312,0.332-0.611,0.756-0.896,1.271
		s-0.498,1.023-0.639,1.523c-0.047,0.172-0.094,0.283-0.141,0.334s-0.113,0.076-0.199,0.076c-0.227,0-0.508-0.176-0.844-0.527
		C9.86,46.5,9.622,45.984,9.622,45.461c0-0.602,0.244-1.199,0.732-1.793s1.123-1.074,1.904-1.441
		c0.781-0.367,1.582-0.551,2.402-0.551c0.664,0,1.27,0.129,1.816,0.387s0.973,0.615,1.277,1.072s0.457,0.971,0.457,1.541
		c0,1.039-0.449,1.871-1.348,2.496c-0.469,0.32-1.051,0.625-1.746,0.914v0.047c1.102,0.063,1.93,0.309,2.484,0.738
		s0.832,1.031,0.832,1.805c0,0.359-0.084,0.756-0.252,1.189s-0.406,0.879-0.715,1.336s-0.678,0.912-1.107,1.365
		c-0.938,0.992-1.957,1.768-3.059,2.326c-1.101,0.559-2.16,0.838-3.175,0.838c-0.969,0-1.775-0.309-2.42-0.926
		s-0.967-1.391-0.967-2.32c0-0.633,0.217-1.266,0.65-1.898s0.994-1.15,1.682-1.553s1.375-0.604,2.063-0.604
		c0.289,0,0.434,0.105,0.434,0.316c0,0.086-0.121,0.23-0.363,0.434c-0.023,0.023-0.049,0.049-0.076,0.076s-0.057,0.057-0.088,0.088
		c-0.305,0.352-0.541,0.789-0.709,1.313s-0.252,1.07-0.252,1.641C10.079,54.859,10.192,55.34,10.418,55.738z"/>
</g>
</svg>
