<svg xmlns="http://www.w3.org/2000/svg" width="26" height="102" fill="none"><rect id="backgroundrect" width="100%" height="100%" x="0" y="0" fill="none" stroke="none"/>







<g class="currentLayer" style=""><title>Layer 1</title><path d="M16.419098547363284,32.59268788909912 C16.419098547363284,32.59268788909912 29.183998547363288,27.535787889099122 24.913498547363282,17.041787889099123 C22.31919854736328,10.66688788909912 20.518198547363284,6.546577889099121 20.67709854736328,3.1206678890991215 C20.784498547363285,0.8026278890991212 18.33359854736328,-0.752372110900879 16.30639854736328,0.37708788909912094 C10.362198547363285,3.689487889099121 2.774998547363282,9.29488788909912 1.1754985473632829,16.78378788909912 C-1.5115014526367219,29.372187889099123 7.25139854736328,32.19468788909912 7.25139854736328,32.19468788909912 L16.419098547363284,32.59268788909912 z" fill="#FF3D44" id="svg_1" class=""/><path d="M7.250998547363281,32.19448788909912 L16.418698547363284,32.59248788909912 C16.418698547363284,32.59248788909912 22.407298547363283,30.220487889099118 24.80859854736328,25.353087889099122 C21.56179854736328,21.89218788909912 15.710898547363279,17.99978788909912 7.739098547363284,22.12958788909912 C5.287298547363278,23.39968788909912 3.235898547363284,24.81748788909912 1.5190985473632779,26.27788788909912 C3.301998547363283,30.92218788909912 7.250998547363281,32.19448788909912 7.250998547363281,32.19448788909912 z" fill="#ED1C24" id="svg_2" class=""/><path d="M7.912298547363278,99.60418788909912 C9.56389854736328,102.75418788909911 14.079198547363283,102.75418788909911 15.73039854736328,99.60418788909912 C19.172698547363282,93.03768788909912 23.64219854736328,81.49968788909912 23.64219854736328,65.85218788909913 C23.64219854736328,48.478387889099125 20.886998547363284,37.30818788909912 19.13949854736328,31.968987889099118 C18.416098547363283,29.76018788909912 16.35879854736328,28.26558788909912 14.035098547363283,28.26558788909912 L9.607498547363278,28.265987889099122 C7.283398547363284,28.26558788909912 5.226498547363285,29.76058788909912 4.503598547363282,31.968987889099118 C2.7552985473632816,37.30818788909912 0.0004985473632785897,48.478787889099124 -0.0000014526367166922682,65.85218788909913 C-0.0000014526367166922682,81.49968788909912 4.46949854736328,93.03768788909912 7.912298547363278,99.60418788909912 z" fill="#FFAA75" id="svg_3" class=""/><path d="M19.76509854736328,90.11028788909913 C21.90619854736328,83.75958788909912 23.64239854736328,75.60388788909913 23.64239854736328,65.85188788909912 C23.64239854736328,48.47798788909912 20.887598547363282,37.30818788909912 19.13969854736328,31.968687889099122 C18.41639854736328,29.759787889099123 16.358998547363278,28.26518788909912 14.035398547363279,28.26518788909912 L9.60779854736328,28.26568788909912 C7.283698547363279,28.26518788909912 5.226698547363284,29.76018788909912 4.503798547363282,31.968687889099122 C3.925498547363283,33.73378788909912 3.237998547363283,36.13728788909912 2.5754985473632814,39.19078788909912 C7.804998547363283,39.90418788909912 12.338398547363283,43.55188788909912 14.064698547363278,48.76888788909912 C20.41679854736328,67.96658788909912 19.76589854736328,90.07838788909912 19.76509854736328,90.11028788909913 z" fill="#FF8C42" id="svg_4" class=""/><path d="M23.27199854736328,55.13758788909912 C22.461898547363283,43.78218788909912 20.49689854736328,36.115987889099124 19.13919854736328,31.96928788909912 C18.41579854736328,29.760487889099124 16.35889854736328,28.26538788909912 14.03479854736328,28.265887889099123 L9.607198547363282,28.26538788909912 C7.28349854736328,28.26538788909912 5.226198547363282,29.759987889099122 4.503298547363279,31.96838788909912 C3.1454985473632817,36.115987889099124 1.1804985473632783,43.78218788909912 0.3703985473632798,55.13758788909912 C3.970698547363284,54.26918788909912 7.819998547363284,53.79748788909912 11.82119854736328,53.797087889099124 C15.822398547363278,53.79748788909912 19.67219854736328,54.26878788909912 23.27199854736328,55.13758788909912 z" fill="#F9EE80" id="svg_5" class=""/><path d="M15.59709854736328,53.93908788909912 C18.25049854736328,54.138487889099125 20.81929854736328,54.54588788909912 23.27199854736328,55.13758788909912 C22.461898547363283,43.78218788909912 20.49689854736328,36.115987889099124 19.13919854736328,31.96928788909912 C18.41579854736328,29.760487889099124 16.35889854736328,28.26538788909912 14.03479854736328,28.265887889099123 L9.607198547363282,28.26548788909912 C7.28349854736328,28.26548788909912 5.226198547363282,29.759987889099122 4.503298547363279,31.96838788909912 C3.9257985473632786,33.73358788909912 3.236998547363278,36.13838788909912 2.575398547363278,39.19098788909912 C7.803998547363278,39.90438788909912 12.338198547363284,43.55218788909912 14.06409854736328,48.76868788909912 C14.628698547363278,50.47518788909912 15.137898547363278,52.20408788909912 15.59709854736328,53.93908788909912 z" fill="#EEDB00" id="svg_6" class=""/><path d="M16.30679854736328,0.3764478890991212 C10.362198547363285,3.6892878890991216 2.7748985473632786,9.294687889099121 1.175898547363282,16.78308788909912 C0.9372985473632838,17.89958788909912 0.7896985473632796,18.93888788909912 0.7170985473632783,19.90648788909912 C0.7170985473632783,19.90648788909912 6.189198547363283,15.11458788909912 12.468298547363283,16.03688788909912 C18.747398547363282,16.95918788909912 22.653698547363284,11.429287889099122 22.653698547363284,11.429287889099122 C21.348198547363282,8.03488788909912 20.570398547363283,5.418657889099121 20.676998547363283,3.120467889099121 C20.784498547363285,0.8024278890991212 18.333498547363284,-0.7525721109008789 16.30679854736328,0.3764478890991212 z" fill="#ED1C24" id="svg_7" class=""/></g></svg>