<svg xmlns="http://www.w3.org/2000/svg" width="26" height="102" fill="none"><rect id="backgroundrect" width="100%" height="100%" x="0" y="0" fill="none" stroke="none"/>







<g class="currentLayer" style=""><title>Layer 1</title><path d="M16.418999365234377,32.59268788909912 C16.418999365234377,32.59268788909912 29.18389936523438,27.535787889099122 24.913399365234376,17.041787889099123 C22.319199365234375,10.66688788909912 20.518199365234373,6.546577889099121 20.676999365234373,3.1206678890991215 C20.784499365234375,0.8026278890991212 18.333499365234374,-0.752372110900879 16.306299365234374,0.37708788909912094 C10.362099365234378,3.689487889099121 2.7748993652343756,9.29488788909912 1.1754993652343728,16.78378788909912 C-1.5116006347656281,29.372187889099123 7.251299365234374,32.19468788909912 7.251299365234374,32.19468788909912 L16.418999365234377,32.59268788909912 z" fill="#FFF645" id="svg_1" class=""/><path d="M7.250899365234375,32.19448788909912 L16.41859936523438,32.59248788909912 C16.41859936523438,32.59248788909912 22.407199365234376,30.220487889099118 24.808499365234375,25.353087889099122 C21.561699365234375,21.89218788909912 15.710799365234372,17.99978788909912 7.738999365234378,22.12958788909912 C5.287199365234372,23.39968788909912 3.235799365234378,24.81748788909912 1.5189993652343716,26.27788788909912 C3.3018993652343767,30.92218788909912 7.250899365234375,32.19448788909912 7.250899365234375,32.19448788909912 z" fill="#FFF200" id="svg_2" class=""/><path d="M7.912199365234372,99.60418788909912 C9.563899365234377,102.75418788909911 14.079099365234377,102.75418788909911 15.730299365234373,99.60418788909912 C19.172599365234376,93.03768788909912 23.642099365234372,81.49968788909912 23.642099365234372,65.85218788909913 C23.642099365234372,48.478387889099125 20.886899365234378,37.30818788909912 19.139399365234375,31.968987889099118 C18.416099365234373,29.76018788909912 16.358699365234372,28.26558788909912 14.035099365234373,28.26558788909912 L9.607499365234375,28.265987889099122 C7.283399365234374,28.26558788909912 5.2263993652343785,29.76058788909912 4.503499365234376,31.968987889099118 C2.7551993652343754,37.30818788909912 0.00039936523437233973,48.478787889099124 -6.347656267280399e-7,65.85218788909913 C-6.347656267280399e-7,81.49968788909912 4.4693993652343735,93.03768788909912 7.912199365234372,99.60418788909912 z" fill="#FFAA75" id="svg_3" class=""/><path d="M19.764999365234374,90.11028788909913 C21.906099365234375,83.75958788909912 23.642399365234375,75.60388788909913 23.642399365234375,65.85188788909912 C23.642399365234375,48.47798788909912 20.887599365234372,37.30818788909912 19.139599365234375,31.968687889099122 C18.416299365234373,29.759787889099123 16.35889936523437,28.26518788909912 14.035299365234373,28.26518788909912 L9.607699365234375,28.26568788909912 C7.283599365234373,28.26518788909912 5.226699365234374,29.76018788909912 4.5037993652343715,31.968687889099122 C3.925499365234373,33.73378788909912 3.2378993652343766,36.13728788909912 2.5754993652343785,39.19078788909912 C7.804999365234373,39.90418788909912 12.338299365234377,43.55188788909912 14.064699365234375,48.76888788909912 C20.416699365234372,67.96658788909912 19.765899365234375,90.07838788909912 19.764999365234374,90.11028788909913 z" fill="#FF8C42" id="svg_4" class=""/><path d="M23.271899365234376,55.13758788909912 C22.461799365234377,43.78218788909912 20.496799365234374,36.115987889099124 19.139099365234372,31.96928788909912 C18.415799365234378,29.760487889099124 16.358799365234376,28.26538788909912 14.034699365234374,28.265887889099123 L9.607099365234376,28.26538788909912 C7.283499365234377,28.26538788909912 5.226099365234376,29.759987889099122 4.503199365234373,31.96838788909912 C3.1454993652343717,36.115987889099124 1.1804993652343754,43.78218788909912 0.3703993652343769,55.13758788909912 C3.970599365234378,54.26918788909912 7.819899365234377,53.79748788909912 11.821099365234375,53.797087889099124 C15.822399365234375,53.79748788909912 19.672099365234374,54.26878788909912 23.271899365234376,55.13758788909912 z" fill="#F9EE80" id="svg_5" class=""/><path d="M15.597099365234378,53.93908788909912 C18.250399365234372,54.138487889099125 20.819199365234375,54.54588788909912 23.271899365234376,55.13758788909912 C22.461799365234377,43.78218788909912 20.496799365234374,36.115987889099124 19.139099365234372,31.96928788909912 C18.415799365234378,29.760487889099124 16.358799365234376,28.26538788909912 14.034699365234374,28.265887889099123 L9.607099365234376,28.26548788909912 C7.283499365234377,28.26548788909912 5.226099365234376,29.759987889099122 4.503199365234373,31.96838788909912 C3.9256993652343724,33.73358788909912 3.236899365234372,36.13838788909912 2.575299365234372,39.19098788909912 C7.803999365234375,39.90438788909912 12.338199365234374,43.55218788909912 14.064099365234377,48.76868788909912 C14.628599365234372,50.47518788909912 15.137899365234375,52.20408788909912 15.597099365234378,53.93908788909912 z" fill="#EEDB00" id="svg_6" class=""/><path d="M16.306799365234376,0.3764478890991212 C10.362099365234378,3.6892878890991216 2.7748993652343756,9.294687889099121 1.1758993652343719,16.78308788909912 C0.9371993652343775,17.89958788909912 0.7895993652343734,18.93888788909912 0.7170993652343753,19.90648788909912 C0.7170993652343753,19.90648788909912 6.189199365234373,15.11458788909912 12.468299365234373,16.03688788909912 C18.747399365234372,16.95918788909912 22.653699365234374,11.429287889099122 22.653699365234374,11.429287889099122 C21.348099365234376,8.03488788909912 20.570399365234373,5.418657889099121 20.676999365234373,3.120467889099121 C20.784499365234375,0.8024278890991212 18.333499365234374,-0.7525721109008789 16.306799365234376,0.3764478890991212 z" fill="#FFF200" id="svg_7" class=""/></g></svg>