<svg xmlns="http://www.w3.org/2000/svg" width="619" height="121" fill="none" style=""><rect id="backgroundrect" width="100%" height="100%" x="0" y="0" fill="none" stroke="none" class="" style=""/>

<defs>
<filter id="filter0_d" x="30" y="42" width="44" height="46" filterUnits="userSpaceOnUse" color-interpolation-filters="sRGB">
<feFlood flood-opacity="0" result="BackgroundImageFix"/>
<feColorMatrix in="SourceAlpha" type="matrix" values="0 0 0 0 0 0 0 0 0 0 0 0 0 0 0 0 0 0 127 0"/>
<feOffset dy="4"/>
<feGaussianBlur stdDeviation="1"/>
<feColorMatrix type="matrix" values="0 0 0 0 0 0 0 0 0 0.22 0 0 0 0 1 0 0 0 0.22 0"/>
<feBlend mode="normal" in2="BackgroundImageFix" result="effect1_dropShadow"/>
<feBlend mode="normal" in="SourceGraphic" in2="effect1_dropShadow" result="shape"/>
</filter>
<filter id="filter1_d" x="40" y="52" width="26" height="22" filterUnits="userSpaceOnUse" color-interpolation-filters="sRGB">
<feFlood flood-opacity="0" result="BackgroundImageFix"/>
<feColorMatrix in="SourceAlpha" type="matrix" values="0 0 0 0 0 0 0 0 0 0 0 0 0 0 0 0 0 0 127 0"/>
<feOffset dx="1" dy="1"/>
<feGaussianBlur stdDeviation="0.5"/>
<feColorMatrix type="matrix" values="0 0 0 0 0.411765 0 0 0 0 0.411765 0 0 0 0 0.411765 0 0 0 0.69 0"/>
<feBlend mode="normal" in2="BackgroundImageFix" result="effect1_dropShadow"/>
<feBlend mode="normal" in="SourceGraphic" in2="effect1_dropShadow" result="shape"/>
</filter>
<filter id="filter2_d" x="20" y="165" width="342" height="334" filterUnits="userSpaceOnUse" color-interpolation-filters="sRGB">
<feFlood flood-opacity="0" result="BackgroundImageFix"/>
<feColorMatrix in="SourceAlpha" type="matrix" values="0 0 0 0 0 0 0 0 0 0 0 0 0 0 0 0 0 0 127 0"/>
<feOffset dx="3" dy="4"/>
<feGaussianBlur stdDeviation="3.5"/>
<feColorMatrix type="matrix" values="0 0 0 0 0.411765 0 0 0 0 0.411765 0 0 0 0 0.411765 0 0 0 0.22 0"/>
<feBlend mode="normal" in2="BackgroundImageFix" result="effect1_dropShadow"/>
<feBlend mode="normal" in="SourceGraphic" in2="effect1_dropShadow" result="shape"/>
</filter>
<filter id="filter3_d" x="302" y="42" width="44" height="46" filterUnits="userSpaceOnUse" color-interpolation-filters="sRGB">
<feFlood flood-opacity="0" result="BackgroundImageFix"/>
<feColorMatrix in="SourceAlpha" type="matrix" values="0 0 0 0 0 0 0 0 0 0 0 0 0 0 0 0 0 0 127 0"/>
<feOffset dy="4"/>
<feGaussianBlur stdDeviation="1"/>
<feColorMatrix type="matrix" values="0 0 0 0 0 0 0 0 0 0.22 0 0 0 0 1 0 0 0 0.22 0"/>
<feBlend mode="normal" in2="BackgroundImageFix" result="effect1_dropShadow"/>
<feBlend mode="normal" in="SourceGraphic" in2="effect1_dropShadow" result="shape"/>
</filter>
<filter id="filter4_d" x="314" y="51" width="22" height="22" filterUnits="userSpaceOnUse" color-interpolation-filters="sRGB">
<feFlood flood-opacity="0" result="BackgroundImageFix"/>
<feColorMatrix in="SourceAlpha" type="matrix" values="0 0 0 0 0 0 0 0 0 0 0 0 0 0 0 0 0 0 127 0"/>
<feOffset dx="1" dy="1"/>
<feGaussianBlur stdDeviation="0.5"/>
<feColorMatrix type="matrix" values="0 0 0 0 0.411765 0 0 0 0 0.411765 0 0 0 0 0.411765 0 0 0 0.69 0"/>
<feBlend mode="normal" in2="BackgroundImageFix" result="effect1_dropShadow"/>
<feBlend mode="normal" in="SourceGraphic" in2="effect1_dropShadow" result="shape"/>
</filter>
<linearGradient id="paint0_linear" x1="0.5000002980232239" y1="0.9839989542961121" x2="0.5000002980232239" y2="-0.295279324054718">
<stop offset="0.0677083" stop-color="white"/>
<stop offset="1" stop-color="#00BDFF"/>
</linearGradient>
<linearGradient id="paint1_linear" x1="0.5000304579734802" y1="0.810433566570282" x2="0.5000304579734802" y2="-0.6851827502250671">
<stop stop-color="#7FD6EA"/>
<stop offset="1" stop-color="#2F7AEA"/>
</linearGradient>
<radialGradient id="paint2_radial" cx="0" cy="0" r="1" gradientUnits="userSpaceOnUse" gradientTransform="translate(52 62) rotate(90) scale(20)">
<stop stop-color="#656AFF"/>
<stop offset="0.828125" stop-color="#656AFF" stop-opacity="0.69"/>
<stop offset="1" stop-color="white" stop-opacity="0.69"/>
</radialGradient>
<radialGradient id="paint3_radial" cx="0" cy="0" r="1" gradientUnits="userSpaceOnUse" gradientTransform="translate(324 62) rotate(90) scale(20)">
<stop stop-color="#656AFF"/>
<stop offset="0.828125" stop-color="#656AFF" stop-opacity="0.69"/>
<stop offset="1" stop-color="white" stop-opacity="0.69"/>
</radialGradient>
<radialGradient id="paint4_radial" cx="0" cy="0" r="1" gradientUnits="userSpaceOnUse" gradientTransform="translate(188 572) rotate(90) scale(36 164)">
<stop stop-color="#656AFF"/>
<stop offset="1" stop-color="#656AFF" stop-opacity="0.69"/>
</radialGradient>
<radialGradient id="paint5_radial" cx="0" cy="0" r="1" gradientUnits="userSpaceOnUse" gradientTransform="translate(188 684) rotate(90) scale(36 164)">
<stop stop-color="#656AFF"/>
<stop offset="1" stop-color="#656AFF" stop-opacity="0.69"/>
</radialGradient>
<clipPath id="clip0">
<rect width="375" height="812" fill="white" id="svg_1"/>
</clipPath>
<clipPath id="clip1">
<rect width="109.01799774169922" height="109.01799774169922" fill="white" transform="rotate(-30 -2.9521501064302123,439.5090026855468) " y="439.5090026855469" x="-2.9521501064300537" id="svg_2"/>
</clipPath>
<clipPath id="clip2">
<rect width="109.01799774169922" height="109.01799774169922" fill="white" transform="rotate(45 305.4599914550783,389.99999999999994) " y="390" x="305.4599914550781" id="svg_3"/>
</clipPath>
<clipPath id="clip3">
<rect width="40" height="40" fill="white" y="664" x="86" id="svg_4"/>
</clipPath>
</defs>
<g class="currentLayer" style=""><title>Layer 1</title>





<mask id="mask0" mask-type="alpha" maskUnits="userSpaceOnUse" x="40" y="52" width="24" height="20">
<path d="M40.7164 60.1503C39.7612 60.9724 39.7612 63.0276 40.7164 63.8497L49.8507 71.7107C50.806 72.5327 52 71.5052 52 69.861V68H62C63.1046 68 64 66.6569 64 65V59C64 57.3432 63.1046 56 62 56H52V54.139C52 52.4948 50.806 51.4673 49.8507 52.2893L40.7164 60.1503Z" fill="#FFF85C" id="svg_38"/>
</mask>




















































<g class="" id="svg_5"><path d="M2.3502989366384526,31.944714242946112 C-2.8253997577308994,26.399012951669533 1.1071249123288283,17.35064932742 8.69261191516027,17.35064932742 H101.50795854414422 C106.29912347279466,17.35064932742 110.18328320785422,21.23502594559615 110.18328320785422,26.02597399113 V112.77922062823001 C110.18328320785422,117.57016867376387 106.29912347279466,121.45454529194001 101.50795854414422,121.45454529194001 H8.69261191516027 C1.1071249123288283,121.45454529194001 -2.8253997577308994,112.40618166769048 2.3505158197550458,106.86048037641382 L31.785892403723086,75.32133756149618 C34.89686382812951,71.9878440594656 34.89686382812951,66.81735055989441 31.785892403723086,63.483857057863894 L2.3502989366384526,31.944714242946112 z" fill="#DA1F39" id="svg_133" class=""/><path d="M617.0803344772636,31.944714242946112 C622.2573344703325,26.399012951669533 618.3252435665061,17.35064932742 610.7386721480916,17.35064932742 H517.9235424022241 C513.1325943566903,17.35064932742 509.24821773851426,21.23502594559615 509.24821773851426,26.02597399113 V112.77922062823001 C509.24821773851426,117.57016867376387 513.1325943566903,121.45454529194001 517.9235424022241,121.45454529194001 H610.7386721480916 C618.3252435665061,121.45454529194001 622.2573344703325,112.40618166769048 617.0803344772636,106.86048037641382 L587.6449578932956,75.32133756149618 C584.5348540013556,71.9878440594656 584.5348540013556,66.81735055989441 587.6449578932956,63.483857057863894 L617.0803344772636,31.944714242946112 z" fill="#DA1F39" id="svg_134" class=""/><rect x="86.32614074260304" y="0" width="451.11689085861144" height="104.10389874641714" rx="4" fill="#FF334E" id="svg_135" class=""/><path d="M144.09729614946252,72.15701289040796 C146.71507536673704,72.15701289040796 149.1289844544143,71.6733635404061 151.34119224366037,70.6561817235861 C153.55123120174045,69.66502588075724 155.3556987317922,68.3940908175237 156.70254288583317,66.84337653388555 C157.92359483225033,65.4466492630282 158.53303638987597,64.1496882258036 158.53303638987597,62.93080511055238 C158.53303638987597,61.86157134575008 158.15132210467277,60.97235056771981 157.3900623654322,60.28699991928672 C156.62663379502573,59.599480439687746 155.66150392618795,59.26981810246673 154.51636107057823,59.29584407645786 C153.297477955327,59.26981810246673 152.00051691810233,59.879259660092316 150.65367276406135,61.10031160650953 C148.69738705239473,63.05659731817617 146.51120523713985,64.04775316100502 144.04524420148027,64.07377913499614 C141.65736108779407,64.07377913499614 139.72493251895264,63.21058433095695 138.22627018329678,61.45599991772166 C136.72543901647498,59.72744147847741 135.9880364200596,57.46535057241499 135.9880364200596,54.64370122554335 C135.9880364200596,51.848077852662826 136.72543901647498,49.585986946600435 138.22627018329678,47.83357136453103 C139.72493251895264,46.10501292528675 141.65736108779407,45.239649290081694 144.04524420148027,45.239649290081694 C146.5871143279473,45.265675264072804 148.64533510441254,46.25683110690173 150.19604938805065,48.239142792559505 C151.64482860689026,49.94167525781252 153.11963379972093,50.807038893017584 154.61829613537685,50.807038893017584 C155.73741301699545,50.807038893017584 156.67868574300797,50.451350581805514 157.41391950825738,49.713947985390156 C158.15132210467277,48.9765453889748 158.53303638987597,48.061298636953396 158.53303638987597,46.9443505865007 C158.53303638987597,45.08783110846678 157.59176366386345,43.28336357841511 155.71138704300432,41.52877916517976 C152.71189354052655,38.60736358467539 148.90125718199198,37.158584365835814 144.24911433107746,37.158584365835814 C139.36924420774056,37.158584365835814 135.3026857716265,38.785207740281436 132.0754649967264,42.012428515181554 C128.82221824783517,45.265675264072804 127.19559487338952,49.48405188180184 127.19559487338952,54.64370122554335 C127.19559487338952,59.82937654327604 128.79619227384399,64.04775316100502 132.02341304874415,67.27714276707101 C135.25280265481018,70.53038951596233 139.267309142942,72.15701289040796 144.09729614946252,72.15701289040796 zM184.87565973123134,68.44614276550598 C187.2635428449176,66.08211679464499 188.45856881734363,63.08262329216729 188.45856881734363,59.447662258072775 C188.45856881734363,55.81270122397826 187.2635428449176,52.78935057867536 184.87565973123134,50.425324607814375 C182.45958181238814,48.061298636953396 179.43623116708523,46.89229863851843 175.75138701617442,46.89229863851843 C172.06437403409763,46.89229863851843 169.0410233887947,48.061298636953396 166.67699741793376,50.425324607814375 C164.28911430424756,52.78935057867536 163.09408833182152,55.81270122397826 163.09408833182152,59.447662258072775 C163.09408833182152,63.08262329216729 164.28911430424756,66.08211679464499 166.67699741793376,68.44614276550598 C169.0410233887947,70.80799990520102 172.06437403409763,71.97916873480185 175.75138701617442,71.97916873480185 C179.43623116708523,71.97916873480185 182.45958181238814,70.80799990520102 184.87565973123134,68.44614276550598 zM175.75138701617442,65.47267523701935 C174.25055584935257,65.47267523701935 173.08155585091765,64.91311679621009 172.19233507288737,63.767973940600335 C171.3031142948571,62.6510258901477 170.8454909188464,61.20224667130812 170.8454909188464,59.421636284081636 C170.8454909188464,57.66922070201223 171.3031142948571,56.22044148317266 172.19233507288737,55.077467458728826 C173.08155585091765,53.95835057711032 174.25055584935257,53.39879213630093 175.75138701617442,53.39879213630093 C177.27607532582147,53.39879213630093 178.4711012982475,53.95835057711032 179.3342961022866,55.077467458728826 C180.1974909063258,56.22044148317266 180.63125713951126,57.66922070201223 180.63125713951126,59.421636284081636 C180.63125713951126,61.20224667130812 180.1974909063258,62.6510258901477 179.3342961022866,63.767973940600335 C178.4711012982475,64.91311679621009 177.27607532582147,65.47267523701935 175.75138701617442,65.47267523701935 zM198.12721815504847,71.9271167868196 C201.0009194499023,71.9271167868196 202.44969866874192,70.58027263277864 202.44969866874192,67.88658432469664 V59.549597322871364 C202.44969866874192,55.71293499034559 203.7444908748007,53.78050642150422 206.3123869752588,53.78050642150422 C208.72629606293617,53.78050642150422 209.74347787975609,55.433155769940974 209.74347787975609,59.19390901165927 V67.88658432469664 C209.74347787975609,70.58027263277864 211.1922570985957,71.9271167868196 214.11367267909998,71.9271167868196 C216.98737397395394,71.9531427608107 218.43615319279354,70.60629860676978 218.43615319279354,67.88658432469664 V56.957844079588014 C218.43615319279354,50.2214544782172 215.3347246255172,46.89229863851843 210.0471142429859,46.89229863851843 C207.58332203849227,46.89229863851843 205.39714022323744,47.85742850735622 203.49073762838708,49.763831102206474 C202.44969866874192,50.90897395781624 201.78820516313402,50.8829479838251 201.5084259427294,49.661896037407885 C201.12671165752613,47.80754539053989 199.85577659429265,46.89229863851843 197.6695947790377,46.89229863851843 C195.027958418938,46.89229863851843 193.7049714077222,48.26516876655064 193.7049714077222,51.01090902261476 V59.447662258072775 V67.88658432469664 C193.7049714077222,70.58027263277864 195.17977660055294,71.9271167868196 198.12721815504847,71.9271167868196 zM236.162010311919,83.89906482273942 C239.8468544628298,83.89906482273942 242.7704388745001,82.77994794112084 244.98047783258016,80.54388300904958 C247.19268562182623,78.30564924581238 248.2857765294537,75.25627262651837 248.2857765294537,71.36755834601033 V64.557428484998 V51.01090902261476 C248.2857765294537,48.26516876655064 247.09075055702766,46.89229863851843 244.70069861217553,46.89229863851843 C242.89623108212385,46.89229863851843 241.72723108368893,47.67958435175013 241.1936986168708,49.28235058337061 C240.9139193964661,50.37544149099806 240.40641290363914,50.451350581805514 239.64298433323262,49.56212980377524 C238.06841290676925,47.78151941654876 236.0861012211115,46.89229863851843 233.69604927625943,46.89229863851843 C231.12815317580123,46.89229863851843 228.8422051269137,47.93550642932962 226.80784149327366,50.04361032261117 C224.77564669079965,52.15388304705859 223.75846487397962,55.27916875716012 223.75846487397962,59.447662258072775 C223.75846487397962,63.54024666817797 224.72359474281734,66.6416752354543 226.65602331165877,68.74977912873587 C228.56242590650902,70.86005185318328 230.92645187736997,71.9271167868196 233.74593239307575,71.9271167868196 C235.7043869359083,71.9271167868196 237.35703628434504,71.41961029399259 238.75376355520234,70.3764025031815 C239.66901030722374,69.66502588075724 240.050724592427,69.97083107515301 240.050724592427,71.36755834601033 C240.050724592427,75.46014275611552 238.32216615318276,77.29063626015832 235.67836096191718,77.29063626015832 C234.127646678279,77.29063626015832 232.57693239464083,76.60311678055929 231.0522440849938,75.25627262651837 C229.93529603454112,74.41693496530442 228.91811421772115,74.01136353727594 227.97684149170863,74.01136353727594 C226.1723739616569,74.01136353727594 225.00337396322197,75.46014275611552 225.00337396322197,77.18870119535974 C225.00337396322197,78.99316872541141 226.04658175403313,80.56774015187476 228.10480253049832,81.9167531370817 C230.1630233069635,83.23757131713151 232.85671161504547,83.89906482273942 236.162010311919,83.89906482273942 zM236.21189342873532,65.37074017222082 C233.56808823746968,65.37074017222082 231.84169862939137,63.03057134418504 231.84169862939137,59.421636284081636 C231.84169862939137,55.81270122397826 233.56808823746968,53.500727201099586 236.21189342873532,53.500727201099586 C237.5587375827763,53.500727201099586 238.6778544643949,54.034259667917716 239.54104926843405,55.12735057554521 C240.40641290363914,56.22044148317266 240.83801030565866,57.61716875402997 240.83801030565866,59.345727193274186 C240.83801030565866,61.176220697316985 240.40641290363914,62.62499991615657 239.54104926843405,63.718090823784074 C238.6778544643949,64.81118173141144 237.5587375827763,65.37074017222082 236.21189342873532,65.37074017222082 zM258.94558170998744,71.9271167868196 C261.8171141736754,71.9271167868196 263.26589339251495,70.58027263277864 263.26589339251495,67.88658432469664 V59.24379212847559 C263.26589339251495,56.1445323923652 263.9013609241317,54.59381810872703 265.1983219613563,54.59381810872703 C265.62991936337596,54.59381810872703 266.2393609210016,54.92348044594805 267.0288154653992,55.61099992554706 C267.8161011786309,56.29635057398011 268.7313479306523,56.626012911201066 269.72250377348115,56.626012911201066 C271.14525701832963,56.626012911201066 272.2123219519659,56.1445323923652 272.92369857439013,55.203259666352665 C273.63507519681434,54.26415577150601 273.9907635080265,53.092986941905245 273.9907635080265,51.746142787864194 C273.9907635080265,50.451350581805514 273.61121805398915,49.358259674178 272.8738154575738,48.44301292215666 C272.1364128611585,47.553792144126334 271.043321953531,47.096168768115675 269.6205687086826,47.096168768115675 C267.61223104903365,47.12219474210681 265.7578804021657,47.95936357215481 264.05317910574666,49.661896037407885 C263.1401011848912,50.60316876342042 262.55451677009074,50.52725967261297 262.2747375496861,49.460194738976654 C261.89302326448285,47.75766227372351 260.62208820124937,46.89229863851843 258.43807521716036,46.89229863851843 C255.8202959998859,46.89229863851843 254.52333496266118,48.26516876655064 254.52333496266118,51.01090902261476 V59.447662258072775 V67.88658432469664 C254.52333496266118,70.58027263277864 255.9981401554919,71.9271167868196 258.94558170998744,71.9271167868196 zM286.1774258293731,71.9271167868196 C288.9209972542714,71.9271167868196 290.9813868619025,70.98584406080705 292.32823101594346,69.13149341393907 C293.08949075518404,67.9885193894953 293.5731401051858,68.03840250631156 293.77701023478306,69.28331159555398 C294.106672572004,71.03789600878933 295.275672570439,71.9271167868196 297.2579842560967,71.9271167868196 C299.77382840857257,71.9271167868196 301.0209063289809,70.7581167883847 301.0209063289809,68.3940908175237 C301.0209063289809,67.45498692267712 300.9948803549898,66.08211679464499 300.96885438099866,64.27764926459332 C300.94282840700754,62.473181734541654 300.9189712641823,60.89644147691235 300.9189712641823,59.549597322871364 V51.01090902261476 C300.9189712641823,48.26516876655064 299.72394529175625,46.89229863851843 297.3338933469041,46.89229863851843 C295.5294258168525,46.89229863851843 294.3604258184175,47.67958435175013 293.8268933515994,49.28235058337061 C293.59916607917694,50.2214544782172 293.1415427031663,50.323389543015786 292.4800491975584,49.56212980377524 C290.9813868619025,47.78151941654876 288.94702322826254,46.89229863851843 286.329244010988,46.89229863851843 C283.76351674169575,46.89229863851843 281.4753998616423,47.93550642932962 279.44103622800225,50.04361032261117 C277.40884142552824,52.15388304705859 276.39165960870815,55.27916875716012 276.39165960870815,59.447662258072775 C276.39165960870815,63.54024666817797 277.356789477546,66.6416752354543 279.26319207239624,68.74977912873587 C281.16959466724643,70.86005185318328 283.4577115473,71.9271167868196 286.1774258293731,71.9271167868196 zM288.84508816346397,65.37074017222082 C286.2034518033642,65.37074017222082 284.47489336411996,63.03057134418504 284.47489336411996,59.421636284081636 C284.47489336411996,55.81270122397826 286.2034518033642,53.500727201099586 288.84508816346397,53.500727201099586 C290.19193231750484,53.500727201099586 291.3110491991235,54.034259667917716 292.17424400316264,55.12735057554521 C293.0396076383677,56.22044148317266 293.47120504038725,57.69524667600337 293.47120504038725,59.549597322871364 C293.47120504038725,61.27815576211564 293.0396076383677,62.674883032972886 292.17424400316264,63.74411679777519 C291.3110491991235,64.83720770540258 290.19193231750484,65.37074017222082 288.84508816346397,65.37074017222082 zM317.2979842292668,71.97916873480185 C319.685867342953,71.97916873480185 321.56841279497803,71.52154535879119 322.9651400658354,70.60629860676978 C324.3380101938674,69.69105185474838 325.0233608423006,68.59796094712095 325.0233608423006,67.30099990989626 C324.99950369947527,65.19289601661472 324.21004915507774,64.12366225181246 322.65933487143957,64.12366225181246 C322.15182837861255,64.12366225181246 321.5922699378032,64.22559731661106 320.9828283801776,64.4034414722171 C320.3473608485608,64.60731160181429 319.863711498559,64.70924666661291 319.53404916133803,64.70924666661291 C318.39107513689424,64.6832206926218 317.8315166960849,63.846051862573724 317.8315166960849,62.193402514136956 V55.27916875716012 C317.8315166960849,54.36392200513872 318.1351530593148,54.13619473271635 318.8226725389138,54.13619473271635 H321.26260760058227 C323.5246985066446,54.060285641908834 324.6416465570973,52.915142786299135 324.6416465570973,50.70510382821907 C324.6416465570973,48.39096097417442 323.32082837704746,47.22196097573945 321.26260760058227,47.22196097573945 H319.026542668511 C318.23708812411337,47.22196097573945 317.8315166960849,46.89229863851843 317.8315166960849,46.23080513291059 V43.94485708402301 C317.8315166960849,41.30105189275739 316.484672542044,39.98023371270754 313.8148413767872,39.98023371270754 C310.99536086108145,39.98023371270754 309.5964647590582,41.30105189275739 309.5964647590582,43.94485708402301 V46.13103889927788 C309.62249073304935,46.866272664527315 309.3166855386536,47.22196097573945 308.73326995501907,47.22196097573945 H307.99586735860373 C306.0374128157712,47.22196097573945 304.76647775253764,48.39096097417442 304.76647775253764,50.70510382821907 C304.76647775253764,52.915142786299135 306.0634387897623,54.13619473271635 307.79199722900654,54.13619473271635 H308.7831530718354 C309.3166855386536,54.13619473271635 309.5964647590582,54.49188304392844 309.5964647590582,55.2292856403438 V64.47935056302462 C309.5964647590582,69.48718172515116 312.16436085951636,71.97916873480185 317.2979842292668,71.97916873480185 zM337.7435556304653,71.9271167868196 C340.20951666612484,71.9271167868196 342.3176205594064,70.98584406080705 344.09823094663295,69.13149341393907 C345.1891530230944,67.9885193894953 345.85064652870227,68.01237653232045 346.1304257491069,69.23342847873765 C346.51214003431016,71.03789600878933 347.8069322403689,71.9271167868196 350.01914002961496,71.9271167868196 C352.6868023637058,71.9531427608107 354.0358153489127,70.60629860676978 354.0358153489127,67.88658432469664 V59.447662258072775 V51.01090902261476 C354.0358153489127,48.26516876655064 352.58703613007316,46.89229863851843 349.6634517184029,46.89229863851843 C346.81577639754,46.89229863851843 345.39302315269157,48.26516876655064 345.39302315269157,51.01090902261476 V59.345727193274186 C345.39302315269157,63.184558356965816 344.07220497264177,65.11481809464132 341.42839978137624,65.11481809464132 C339.0144906936988,65.11481809464132 337.9973088768788,63.464337577370515 337.9973088768788,59.70141550448627 V51.01090902261476 C337.9973088768788,48.26516876655064 336.54852965803934,46.89229863851843 333.67699719435126,46.89229863851843 C330.7534127826809,46.89229863851843 329.3046335638414,48.26516876655064 329.3046335638414,51.01090902261476 V61.939649267723475 C329.3046335638414,68.59796094712095 332.1262829107131,71.9271167868196 337.7435556304653,71.9271167868196 zM364.77152962025383,71.9271167868196 C367.6430620839418,71.9271167868196 369.09184130278146,70.58027263277864 369.09184130278146,67.88658432469664 V53.98437655110144 V40.079999946340244 C369.09184130278146,37.362454495433056 367.6430620839418,36.01344151022618 364.77152962025383,36.01344151022618 C361.8240880657584,36.01344151022618 360.3492828729277,37.362454495433056 360.3492828729277,40.079999946340244 V53.98437655110144 V67.88658432469664 C360.3492828729277,70.58027263277864 361.8240880657584,71.9271167868196 364.77152962025383,71.9271167868196 zM384.12401011382497,71.9271167868196 C386.8697503698892,71.9271167868196 388.92797114635437,70.98584406080705 390.27481530039535,69.13149341393907 C391.0382438708018,67.9885193894953 391.5197243896377,68.03840250631156 391.7235945192349,69.28331159555398 C392.0532568564559,71.03789600878933 393.2222568548907,71.9271167868196 395.2067373717145,71.9271167868196 C397.7225815241904,71.9271167868196 398.9674906134327,70.7581167883847 398.9674906134327,68.3940908175237 C398.9674906134327,67.45498692267712 398.94146463944156,66.08211679464499 398.9154386654504,64.27764926459332 C398.8915815226252,62.473181734541654 398.8655555486341,60.89644147691235 398.8655555486341,59.549597322871364 V51.01090902261476 C398.8655555486341,48.26516876655064 397.67052957620814,46.89229863851843 395.28264646252194,46.89229863851843 C393.47817893247026,46.89229863851843 392.30917893403523,47.67958435175013 391.77347763605127,49.28235058337061 C391.5457503636288,50.2214544782172 391.0881269876182,50.323389543015786 390.4266334820103,49.56212980377524 C388.92797114635437,47.78151941654876 386.89360751271437,46.89229863851843 384.2758282954398,46.89229863851843 C381.7101010261476,46.89229863851843 379.4219841460941,47.93550642932962 377.38978934362007,50.04361032261117 C375.35542570998,52.15388304705859 374.33824389316004,55.27916875716012 374.33824389316004,59.447662258072775 C374.33824389316004,63.54024666817797 375.30554259316364,66.6416752354543 377.211945188014,68.74977912873587 C379.11834778286425,70.86005185318328 381.4042958317519,71.9271167868196 384.12401011382497,71.9271167868196 zM386.7938412790817,65.37074017222082 C384.15003608781603,65.37074017222082 382.42147764857185,63.03057134418504 382.42147764857185,59.421636284081636 C382.42147764857185,55.81270122397826 384.15003608781603,53.500727201099586 386.7938412790817,53.500727201099586 C388.14068543312266,53.500727201099586 389.2576334835754,54.034259667917716 390.12299711878046,55.12735057554521 C390.98619192281956,56.22044148317266 391.4177893248391,57.69524667600337 391.4177893248391,59.549597322871364 C391.4177893248391,61.27815576211564 390.98619192281956,62.674883032972886 390.12299711878046,63.74411679777519 C389.2576334835754,64.83720770540258 388.14068543312266,65.37074017222082 386.7938412790817,65.37074017222082 zM415.2445685137186,71.97916873480185 C417.6346204585707,71.97916873480185 419.51499707942986,71.52154535879119 420.9117243502872,70.60629860676978 C422.28459447831926,69.69105185474838 422.9721139579183,68.59796094712095 422.9721139579183,67.30099990989626 C422.94608798392716,65.19289601661472 422.15880227069545,64.12366225181246 420.6080879870573,64.12366225181246 C420.0984126630644,64.12366225181246 419.53885422225505,64.22559731661106 418.9294126646294,64.4034414722171 C418.29394513301264,64.60731160181429 417.81246461417675,64.70924666661291 417.48063344578986,64.70924666661291 C416.337659421346,64.6832206926218 415.77810098053675,63.846051862573724 415.77810098053675,62.193402514136956 V55.27916875716012 C415.77810098053675,54.36392200513872 416.08390617493257,54.13619473271635 416.76925682336565,54.13619473271635 H419.2091918850341 C421.4712827910965,54.060285641908834 422.5903996727151,52.915142786299135 422.5903996727151,50.70510382821907 C422.5903996727151,48.39096097417442 421.2674126614993,47.22196097573945 419.2091918850341,47.22196097573945 H416.97312695296284 C416.18584123973113,47.22196097573945 415.77810098053675,46.89229863851843 415.77810098053675,46.23080513291059 V43.94485708402301 C415.77810098053675,41.30105189275739 414.43125682649577,39.98023371270754 411.763594492405,39.98023371270754 C408.9419451455333,39.98023371270754 407.54304904351,41.30105189275739 407.54304904351,43.94485708402301 V46.13103889927788 C407.5690750175012,46.866272664527315 407.26326982310536,47.22196097573945 406.6798542394709,47.22196097573945 H405.94245164305556 C403.98616593138894,47.22196097573945 402.7152308681554,48.39096097417442 402.7152308681554,50.70510382821907 C402.7152308681554,52.915142786299135 404.01002307421413,54.13619473271635 405.73858151345837,54.13619473271635 H406.7297373562872 C407.26326982310536,54.13619473271635 407.54304904351,54.49188304392844 407.54304904351,55.2292856403438 V64.47935056302462 C407.54304904351,69.48718172515116 410.1109451439682,71.97916873480185 415.2445685137186,71.97916873480185 zM436.35163342052505,42.723805137605865 C437.31676328936277,41.86061033356664 437.8004126393646,40.71546747795695 437.8004126393646,39.29271423310857 C437.8004126393646,37.843935014268986 437.31676328936277,36.67493501583402 436.35163342052505,35.811740211794884 C435.36047757769614,34.946376576589806 434.08954251446266,34.514779174570215 432.53882823082455,34.514779174570215 C430.9881139471864,34.514779174570215 429.71717888395284,34.946376576589806 428.7520490151151,35.811740211794884 C427.7608931722862,36.67493501583402 427.2772438222844,37.843935014268986 427.2772438222844,39.29271423310857 C427.2772438222844,40.71546747795695 427.7608931722862,41.86061033356664 428.7520490151151,42.723805137605865 C429.71717888395284,43.613025915636065 430.9881139471864,44.0467921488216 432.53882823082455,44.0467921488216 C434.08954251446266,44.0467921488216 435.36047757769614,43.613025915636065 436.35163342052505,42.723805137605865 zM432.53882823082455,71.9271167868196 C435.4103606945125,71.9271167868196 436.85913991335207,70.58027263277864 436.85913991335207,67.88658432469664 V59.447662258072775 V51.01090902261476 C436.85913991335207,48.26516876655064 435.4103606945125,46.89229863851843 432.53882823082455,46.89229863851843 C429.591386676329,46.89229863851843 428.11658148349835,48.26516876655064 428.11658148349835,51.01090902261476 V59.447662258072775 V67.88658432469664 C428.11658148349835,70.58027263277864 429.591386676329,71.9271167868196 432.53882823082455,71.9271167868196 zM464.0909840327377,68.44614276550598 C466.4810359775899,66.08211679464499 467.67389311885006,63.08262329216729 467.67389311885006,59.447662258072775 C467.67389311885006,55.81270122397826 466.4810359775899,52.78935057867536 464.0909840327377,50.425324607814375 C461.6770749450604,48.061298636953396 458.6515554685916,46.89229863851843 454.9667113176808,46.89229863851843 C451.28186716677,46.89229863851843 448.256347690301,48.061298636953396 445.89232171944013,50.425324607814375 C443.50443860575393,52.78935057867536 442.3094126333278,55.81270122397826 442.3094126333278,59.447662258072775 C442.3094126333278,63.08262329216729 443.50443860575393,66.08211679464499 445.89232171944013,68.44614276550598 C448.256347690301,70.80799990520102 451.28186716677,71.97916873480185 454.9667113176808,71.97916873480185 C458.6515554685916,71.97916873480185 461.6770749450604,70.80799990520102 464.0909840327377,68.44614276550598 zM454.9667113176808,65.47267523701935 C453.46804898202487,65.47267523701935 452.2990489835899,64.91311679621009 451.40765937439375,63.767973940600335 C450.51843859636347,62.6510258901477 450.0608152203528,61.20224667130812 450.0608152203528,59.421636284081636 C450.0608152203528,57.66922070201223 450.51843859636347,56.22044148317266 451.40765937439375,55.077467458728826 C452.2990489835899,53.95835057711032 453.46804898202487,53.39879213630093 454.9667113176808,53.39879213630093 C456.49139962732784,53.39879213630093 457.6864255997539,53.95835057711032 458.549620403793,55.077467458728826 C459.4149840389981,56.22044148317266 459.8465814410176,57.66922070201223 459.8465814410176,59.421636284081636 C459.8465814410176,61.20224667130812 459.4149840389981,62.6510258901477 458.549620403793,63.767973940600335 C457.6864255997539,64.91311679621009 456.49139962732784,65.47267523701935 454.9667113176808,65.47267523701935 zM477.34471128772077,71.9271167868196 C480.2162437514087,71.9271167868196 481.6650229702483,70.58027263277864 481.6650229702483,67.88658432469664 V59.549597322871364 C481.6650229702483,55.71293499034559 482.9619840074729,53.78050642150422 485.52771127676516,53.78050642150422 C487.94162036444243,53.78050642150422 488.9588021812624,55.433155769940974 488.9588021812624,59.19390901165927 V67.88658432469664 C488.9588021812624,70.58027263277864 490.40758140010206,71.9271167868196 493.3311658117723,71.9271167868196 C496.20269827546036,71.9531427608107 497.65147749429997,70.60629860676978 497.65147749429997,67.88658432469664 V56.957844079588014 C497.65147749429997,50.2214544782172 494.5500489270236,46.89229863851843 489.2646073756582,46.89229863851843 C486.7986463399987,46.89229863851843 484.6124645247438,47.85742850735622 482.70606192989345,49.763831102206474 C481.6650229702483,50.90897395781624 481.0035294646404,50.8829479838251 480.7237502442358,49.661896037407885 C480.3442047901985,47.80754539053989 479.07326972696495,46.89229863851843 476.88708791171007,46.89229863851843 C474.2432827204444,46.89229863851843 472.9224645403945,48.26516876655064 472.9224645403945,51.01090902261476 V59.447662258072775 V67.88658432469664 C472.9224645403945,70.58027263277864 474.3951009020593,71.9271167868196 477.34471128772077,71.9271167868196 z" fill="white" id="svg_136" class=""/></g></g></svg>