<?xml version="1.0" encoding="utf-8"?>
<!-- Generator: Adobe Illustrator 16.0.0, SVG Export Plug-In . SVG Version: 6.00 Build 0)  -->
<!DOCTYPE svg PUBLIC "-//W3C//DTD SVG 1.1//EN" "http://www.w3.org/Graphics/SVG/1.1/DTD/svg11.dtd">
<svg version="1.1" id="Layer_1" xmlns="http://www.w3.org/2000/svg" xmlns:xlink="http://www.w3.org/1999/xlink" x="0px" y="0px"
	 width="83px" height="83px" viewBox="0 0 83 83" enable-background="new 0 0 83 83" xml:space="preserve">
<path fill="#ADE1FA" stroke="#010101" stroke-width="0.15" stroke-miterlimit="10" d="M-0.001,0h83v42.25h-83V0z"/>
<path fill="#8EC641" stroke="#010101" stroke-width="0.15" stroke-miterlimit="10" d="M82.998,26.042
	c-1.336-1.28-3.146-2.069-5.145-2.069c-2.777,0-5.197,1.521-6.479,3.776c-0.66-0.717-1.605-1.167-2.654-1.167
	c-1.037,0-1.973,0.438-2.631,1.139c-0.678-1.701-2.338-2.904-4.279-2.904c-2.537,0-4.596,2.052-4.604,4.586
	c-0.729-0.236-1.498-0.364-2.307-0.364c-4.109,0-7.441,3.334-7.441,7.446c0,4.113,3.332,7.447,7.441,7.447
	c2.936,0,5.471-1.688,6.686-4.156c1.316,2.084,3.646,3.466,6.293,3.466c3.25,0,6.016-2.082,7.029-4.984
	c0.9,0.392,1.898,0.607,2.947,0.607c1.996,0,3.811-0.79,5.146-2.07L82.998,26.042L82.998,26.042z M15.623,40.839
	c0.402-0.583,0.638-1.291,0.638-2.052c0-1.999-1.62-3.619-3.618-3.619c-0.981,0-1.872,0.393-2.523,1.025
	c-0.292-2.791-2.65-4.967-5.518-4.967c-1.916,0-3.605,0.972-4.602,2.448v13.744c1.118,1.813,3.118,3.028,5.406,3.028
	c0.828,0,1.617-0.16,2.342-0.446c0.752,0.313,1.578,0.485,2.444,0.485c3.508,0,6.352-2.844,6.352-6.354
	C16.542,42.928,16.207,41.8,15.623,40.839z M47.262,35.034c0-1.616-1.254-2.927-2.803-2.927c-0.914,0-1.725,0.457-2.236,1.16
	c-0.653-0.734-1.582-1.197-2.624-1.197c-1.979,0-3.584,1.676-3.584,3.74c0,0.109,0.005,0.217,0.015,0.323
	c-2.7,0.423-4.771,2.853-4.771,5.786c0,3.232,2.511,5.852,5.608,5.852c2.906,0,5.295-2.308,5.575-5.262
	c0.021,0.002,0.043,0.002,0.063,0.002c1.551,0,2.805-1.309,2.805-2.925c0-0.614-0.182-1.185-0.49-1.653
	C46.197,37.75,47.262,36.521,47.262,35.034z"/>
<path fill="#8EC641" stroke="#010101" stroke-width="0.15" stroke-miterlimit="10" d="M82.998,31.547
	c-1.568-0.598-3.4-0.141-4.465,1.264c-0.068,0.092-0.133,0.184-0.191,0.278c-2.59-1.417-5.895-0.763-7.734,1.661
	c-2.02,2.668-1.502,6.473,1.168,8.497c2.51,1.897,6.014,1.556,8.105-0.699c0.02,0.017,0.035,0.029,0.057,0.044
	c0.912,0.692,2.088,0.775,3.064,0.338L82.998,31.547L82.998,31.547z"/>
<path fill="#4D4D4D" stroke="#010101" stroke-width="0.15" stroke-miterlimit="10" d="M-0.001,83h83V40.775
	c-13.238-1.26-28.764-1.146-45.73,0.601c-12.862,1.325-25.437,3.474-37.269,6.246V83z"/>
<path fill="#BBBDBF" stroke="#231F20" stroke-width="0.15" stroke-miterlimit="10" d="M-0.001,83h83V41.496
	c-6.508-0.053-13.379,0.273-20.533,1.02c-23.347,2.433-45.387,8.856-62.466,17.353V83z"/>
<path fill="#F6F7F8" stroke="#020202" stroke-width="0.15" stroke-miterlimit="10" d="M74.818,58.813l3.258,1.239
	c0.889,0.341,0.99,1.558,0.168,2.039l-17.82,10.442c-0.35,0.203-0.783,0.207-1.135,0.007l-2.719-1.547
	c-0.76-0.433-0.768-1.522-0.014-1.966l17.281-10.135C74.137,58.719,74.498,58.688,74.818,58.813z M82.998,64.398L67.457,75.326
	c-0.68,0.479-0.631,1.501,0.092,1.913l2.926,1.663c0.381,0.22,0.855,0.195,1.215-0.063l11.309-7.957V64.398z M82.998,83v-5.223
	l-4.697,3.798c-0.449,0.362-0.527,0.967-0.279,1.425H82.998z"/>
<path fill="#FFFFFF" stroke="#020202" stroke-width="0.15" stroke-miterlimit="10" d="M37.687,12.111
	c-0.163,0.033-0.319,0.078-0.468,0.138c-0.003-0.015-0.005-0.028-0.008-0.042c-0.246-1.237-1.447-2.039-2.682-1.793
	c-0.882,0.175-1.544,0.839-1.76,1.654c-0.24-0.118-0.519-0.161-0.801-0.105c-0.685,0.137-1.128,0.801-0.992,1.484
	c0.001,0.008,0.004,0.016,0.005,0.023c-0.959,0.203-1.579,1.143-1.388,2.106c0.159,0.8,0.828,1.368,1.6,1.438
	c0.006,0.031,0.01,0.063,0.017,0.096c0.246,1.236,1.447,2.037,2.682,1.791c0.583-0.115,1.069-0.443,1.394-0.887
	c0.243,0.043,0.498,0.043,0.755-0.01c0.447-0.089,0.833-0.316,1.119-0.63c0.492,0.206,1.047,0.272,1.609,0.161
	c1.499-0.298,2.47-1.755,2.174-3.254C40.642,12.786,39.186,11.813,37.687,12.111z"/>
<path fill="#BBBDBF" stroke="#231F20" stroke-width="0.15" stroke-miterlimit="10" d="M48.453,41.477h-1.152
	c-0.508,0-0.922-0.416-0.922-0.922V18.982c0-0.506,0.414-0.922,0.922-0.922h1.152c0.506,0,0.92,0.416,0.92,0.922v21.572
	C49.373,41.061,48.959,41.477,48.453,41.477z"/>
<path fill="#BBBDBF" stroke="#231F20" stroke-width="0.15" stroke-miterlimit="10" d="M48.541,24.203h-0.814
	c-1.895,0-3.438-1.551-3.438-3.445V8.915c0-1.895,1.549-3.443,3.438-3.443h0.814c1.893,0,3.441,1.549,3.441,3.443v11.843
	C51.982,22.652,50.434,24.203,48.541,24.203z"/>
<path fill="#2F2D2C" d="M17.199,37.354c-0.504-0.062-1.244-0.24-2.035-0.73c-1.792-1.109-3.01-3.219-3.622-6.264
	c-0.439-2.188-0.329-7.389-0.324-7.608l1.305,0.03c-0.001,0.052-0.112,5.275,0.298,7.32c1.256,6.252,4.875,5.981,4.913,5.979
	l0.123,1.299C17.833,37.382,17.585,37.402,17.199,37.354z"/>
<path fill="#F6F7F8" stroke="#020202" stroke-width="0.15" stroke-miterlimit="10" d="M12.851,25.43l-0.806,0.018
	c-0.225,0.005-0.412-0.176-0.417-0.399l0,0c-0.004-0.225,0.176-0.413,0.4-0.417l0.805-0.018c0.225-0.006,0.413,0.175,0.418,0.398
	C13.255,25.236,13.075,25.426,12.851,25.43z"/>
<path fill="#BBBDBF" stroke="#231F20" stroke-width="0.15" stroke-miterlimit="10" d="M10.476,29.313L10.476,29.313
	c-0.58-0.072-0.997-0.605-0.924-1.186l2.327-18.744c0.072-0.58,0.606-0.996,1.186-0.923c0.58,0.072,0.996,0.605,0.923,1.186
	l-2.327,18.745C11.588,28.968,11.056,29.384,10.476,29.313z"/>
<path fill="#2F2D2C" d="M17.295,57.947c0.022-0.371-0.259-0.689-0.629-0.713c-0.368-0.021-0.689,0.26-0.712,0.63l-0.545,8.903
	c-4.266-1.625-4.829-0.121-4.734,0.543c0.109,0.76,1.847,1.381,4.127,1.055c1.239-0.176,1.784-0.395,1.879-0.635
	c0.022-0.039,0.037-0.082,0.04-0.133L17.295,57.947z M21.607,57.947c-0.022-0.371,0.259-0.689,0.629-0.713
	c0.368-0.021,0.689,0.26,0.712,0.63l0.545,8.903c4.266-1.625,4.829-0.121,4.733,0.543c-0.108,0.76-1.846,1.381-4.126,1.055
	c-1.24-0.176-1.785-0.395-1.88-0.635c-0.022-0.039-0.036-0.082-0.039-0.133L21.607,57.947z"/>
<path fill="#2F2D2C" d="M17.189,26.443L13.5,56.159c-0.124,0.998,0.584,1.907,1.582,2.03l8.006,0.994
	c0.998,0.125,1.907-0.584,2.031-1.582l3.69-29.721C28.809,27.886,23.02,30.068,17.189,26.443z"/>
<path fill="none" stroke="#020202" stroke-width="0.25" stroke-linecap="round" stroke-miterlimit="10" d="M26.348,32.521
	c0.101-0.256,0.253-0.494,0.458-0.703c0.27-0.273,0.596-0.459,0.94-0.555"/>
<path fill="none" stroke="#020202" stroke-width="0.25" stroke-linecap="round" stroke-miterlimit="10" d="M24.73,32.43
	c-0.135-0.24-0.318-0.457-0.548-0.635c-0.304-0.234-0.652-0.374-1.007-0.423"/>
<path fill="#2F2D2C" d="M24.992,18.877c0.004-0.021,0.01-0.046,0.013-0.07c0.058-0.473-0.278-0.904-0.751-0.963
	c-0.474-0.058-0.904,0.278-0.964,0.752c-0.002,0.016-0.002,0.029-0.003,0.045c-2.89-0.021-5.36,1.881-5.688,4.519
	c0,0-0.171,1.38-0.408,3.284c5.83,3.625,11.619,1.443,11.619,1.443l0.407-3.285C29.536,22.023,27.699,19.625,24.992,18.877z"/>
<path fill="#2F2D2C" d="M30.617,29.777c-0.402-1.008-1.713-1.879-1.713-1.879l-0.095-0.012c0,0-5.79,2.182-11.619-1.443l-0.094-0.01
	c0,0-1.485,0.523-2.12,1.401c-0.253,0.351,0.043,0.836,0.473,0.793c0.656-0.063,1.469-0.169,2.505,0.231
	c1.477,0.57,2.906,1.521,4.621,1.734c1.714,0.213,3.332-0.359,4.903-0.552c1.103-0.134,1.865,0.166,2.485,0.39
	C30.371,30.577,30.775,30.178,30.617,29.777z"/>
<path fill="#F6F7F8" stroke="#020202" stroke-width="0.15" stroke-miterlimit="10" d="M13.063,24.568
	c0.514-0.463,0.223-1.502-0.334-1.713l-0.838-0.34c-0.278-0.106-0.593,0.031-0.701,0.309c-0.107,0.277,0.03,0.593,0.308,0.701
	l0.875,0.381l-0.202,0.219l-0.031,0.531L13.063,24.568z"/>
<path fill="#F6F7F8" stroke="#020202" stroke-width="0.15" stroke-miterlimit="10" d="M10.741,23.083l-0.526-0.125
	c-0.29-0.069-0.47-0.362-0.401-0.651c0.07-0.291,0.363-0.471,0.652-0.402l0.526,0.125c0.289,0.07,0.47,0.363,0.401,0.652
	S11.031,23.15,10.741,23.083z"/>
<path fill="#F6F7F8" stroke="#020202" stroke-width="0.15" stroke-miterlimit="10" d="M10.237,25.188l-0.526-0.125
	c-0.29-0.068-0.47-0.362-0.401-0.651c0.069-0.29,0.362-0.47,0.652-0.401l0.527,0.125c0.29,0.07,0.47,0.363,0.4,0.652
	C10.819,25.076,10.526,25.257,10.237,25.188z"/>
<path fill="#F6F7F8" stroke="#020202" stroke-width="0.15" stroke-miterlimit="10" d="M10.805,24.21l-0.842-0.201
	c-0.29-0.069-0.469-0.362-0.4-0.651c0.069-0.291,0.362-0.471,0.652-0.4l0.842,0.201c0.29,0.068,0.47,0.361,0.401,0.652
	C11.388,24.1,11.095,24.279,10.805,24.21z"/>
<path fill="#ED2224" stroke="#231F20" stroke-width="0.15" stroke-miterlimit="10" d="M19.434,11.536
	c0,3.731-3.024,6.756-6.755,6.756s-6.755-3.024-6.755-6.756c0-3.731,3.023-6.756,6.754-6.756S19.434,7.805,19.434,11.536z"/>
<path fill="#2F2D2C" d="M27.666,32.859c0.997-0.008,1.811,0.949,1.82,2.136c0.01,1.188-0.791,2.155-1.787,2.164"/>
<path fill="none" stroke="#020202" stroke-width="0.15" stroke-miterlimit="10" d="M23.452,34.313
	c0.589,0.168,0.759,0.605,0.56,1.308c-0.199,0.702-0.838,1.134-1.426,0.967"/>
<path fill="#F7F8F8" d="M29.796,38.467c0,0,0.001-1.828-1.841-2.365h-1.368l-0.398,3.455l3.224,0.536L29.796,38.467z"/>
<path fill="none" stroke="#020202" stroke-width="0.15" stroke-miterlimit="10" d="M29.796,38.467c0,0,0.001-1.828-1.841-2.365
	h-1.368l-0.398,3.455l3.224,0.536L29.796,38.467z"/>
<path fill="#FFFFFF" stroke="#020202" stroke-width="0.15" stroke-miterlimit="10" d="M25.989,37.119l-1.477-0.614l-0.028-0.782
	l1.466-0.283L25.989,37.119z"/>
<path fill="#FFFFFF" stroke="#020202" stroke-width="0.15" stroke-miterlimit="10" d="M27.479,36.036
	c0.127,0.536-0.204,1.073-0.74,1.202c-0.536,0.128-1.074-0.203-1.202-0.74c-0.127-0.536,0.203-1.074,0.74-1.202
	C26.813,35.167,27.352,35.5,27.479,36.036"/>
<path fill="#FFFFFF" d="M30.09,43.152c-0.778,0-1.746-0.154-3.099-0.463l0.16-1.047c3.046,0.69,3.652,0.375,3.739,0.311
	c-0.003-0.092-0.102-0.639-1.724-2.114l0.722-0.795c1.777,1.614,2.361,2.634,1.958,3.406C31.604,42.92,31.046,43.152,30.09,43.152"
	/>
<path fill="#2F2D2C" d="M30.09,43.152c-0.778,0-1.746-0.154-3.099-0.463l0.16-1.047c3.046,0.69,3.652,0.375,3.739,0.311
	c-0.003-0.092-0.102-0.639-1.724-2.114l0.722-0.795c1.777,1.614,2.361,2.634,1.958,3.406C31.604,42.92,31.046,43.152,30.09,43.152z"
	/>
<path fill="#F7F8F8" d="M29.023,40.348L29.023,40.348c0.182,0.108,0.419,0.047,0.525-0.135l0.705-1.189
	c0.107-0.182,0.045-0.418-0.136-0.525c-0.182-0.107-0.417-0.047-0.525,0.135l-0.703,1.189
	C28.782,40.004,28.842,40.241,29.023,40.348"/>
<path fill="none" stroke="#020202" stroke-width="0.15" stroke-miterlimit="10" d="M29.023,40.348L29.023,40.348
	c0.182,0.108,0.419,0.047,0.525-0.135l0.705-1.189c0.107-0.182,0.045-0.418-0.136-0.525c-0.182-0.107-0.417-0.047-0.525,0.135
	l-0.703,1.189C28.782,40.004,28.842,40.241,29.023,40.348z"/>
<path fill="#F7F8F8" d="M27.956,36.947l-1.465-0.42c-0.29-0.069-0.583,0.111-0.652,0.4c-0.07,0.289,0.11,0.583,0.399,0.652
	l0.526,0.126"/>
<path fill="none" stroke="#020202" stroke-width="0.15" stroke-miterlimit="10" d="M27.956,36.947l-1.465-0.42
	c-0.29-0.069-0.583,0.111-0.652,0.4c-0.07,0.289,0.11,0.583,0.399,0.652l0.526,0.126"/>
<path fill="#F7F8F8" d="M26.511,38.758l-0.525-0.125c-0.29-0.07-0.583,0.11-0.653,0.399c-0.069,0.288,0.111,0.583,0.4,0.653
	l0.526,0.125c0,0,2.004,0.437,2.618,0.129"/>
<path fill="none" stroke="#020202" stroke-width="0.15" stroke-miterlimit="10" d="M26.511,38.758l-0.525-0.125
	c-0.29-0.07-0.583,0.11-0.653,0.399c-0.069,0.288,0.111,0.583,0.4,0.653l0.526,0.125c0,0,2.004,0.437,2.618,0.129"/>
<path fill="#F7F8F8" d="M27.188,37.791l-1.496-0.364c-0.289-0.069-0.583,0.111-0.653,0.401c-0.069,0.289,0.111,0.582,0.401,0.652
	l1.441,0.385"/>
<path fill="none" stroke="#020202" stroke-width="0.15" stroke-miterlimit="10" d="M27.188,37.791l-1.496-0.364
	c-0.289-0.069-0.583,0.111-0.653,0.401c-0.069,0.289,0.111,0.582,0.401,0.652l1.441,0.385"/>
<path fill="#FFFFFF" d="M8.434,12.725c-0.136-0.043-0.263-0.103-0.38-0.173c-0.032-0.02-0.064-0.041-0.095-0.062
	c-0.126-0.088-0.153-0.264-0.065-0.389L7.895,12.1c0.085-0.12,0.252-0.153,0.374-0.07c0.09,0.059,0.188,0.109,0.296,0.15
	c0.106,0.039,0.217,0.065,0.329,0.08c0.202,0.025,0.36,0.01,0.477-0.044c0.111-0.054,0.173-0.138,0.186-0.255l0.001-0.001
	c0.008-0.082-0.007-0.149-0.048-0.202c-0.042-0.053-0.098-0.095-0.17-0.125c-0.073-0.031-0.166-0.062-0.28-0.093
	c-0.004-0.002-0.009-0.003-0.012-0.003c-0.004,0-0.007-0.001-0.011-0.003l-0.046-0.011c-0.203-0.056-0.368-0.115-0.498-0.178
	c-0.13-0.064-0.236-0.162-0.317-0.294c-0.081-0.132-0.109-0.311-0.085-0.535l0.001-0.002c0.022-0.198,0.084-0.363,0.189-0.495
	c0.103-0.131,0.245-0.224,0.421-0.28c0.177-0.056,0.386-0.07,0.625-0.043C9.436,9.708,9.547,9.733,9.66,9.77
	C9.771,9.808,9.88,9.857,9.984,9.917c0.021,0.012,0.043,0.024,0.064,0.039c0.132,0.083,0.173,0.255,0.089,0.387
	c-0.081,0.124-0.246,0.165-0.373,0.088c-0.044-0.027-0.089-0.052-0.136-0.074c-0.125-0.059-0.246-0.095-0.364-0.108
	c-0.178-0.02-0.318-0.005-0.422,0.042c-0.104,0.047-0.161,0.124-0.172,0.23v0.002c-0.01,0.088,0.008,0.162,0.053,0.219
	c0.045,0.057,0.103,0.101,0.176,0.134c0.072,0.032,0.174,0.068,0.306,0.11c0.005,0.002,0.011,0.004,0.017,0.005
	c0.006,0.002,0.012,0.004,0.016,0.005C9.248,10.999,9.255,11,9.263,11.003c0.007,0.003,0.016,0.005,0.024,0.008
	c0.19,0.06,0.348,0.124,0.472,0.192c0.125,0.069,0.224,0.168,0.298,0.298c0.074,0.13,0.1,0.3,0.076,0.508v0.005
	c-0.022,0.195-0.085,0.358-0.193,0.487c-0.106,0.129-0.252,0.222-0.436,0.274c-0.183,0.055-0.398,0.067-0.645,0.041
	C8.712,12.801,8.572,12.771,8.434,12.725"/>
<path fill="#F7F8F8" stroke="#020202" stroke-width="0.15" stroke-miterlimit="10" d="M8.434,12.725
	c-0.136-0.043-0.263-0.103-0.38-0.173c-0.032-0.02-0.064-0.041-0.095-0.062c-0.126-0.088-0.153-0.264-0.065-0.389L7.895,12.1
	c0.085-0.12,0.252-0.153,0.374-0.07c0.09,0.059,0.188,0.109,0.296,0.15c0.106,0.039,0.217,0.065,0.329,0.08
	c0.202,0.025,0.36,0.01,0.477-0.044c0.111-0.054,0.173-0.138,0.186-0.255l0.001-0.001c0.008-0.082-0.007-0.149-0.048-0.202
	c-0.042-0.053-0.098-0.095-0.17-0.125c-0.073-0.031-0.166-0.062-0.28-0.093c-0.004-0.002-0.009-0.003-0.012-0.003
	c-0.004,0-0.007-0.001-0.011-0.003l-0.046-0.011c-0.203-0.056-0.368-0.115-0.498-0.178c-0.13-0.064-0.236-0.162-0.317-0.294
	c-0.081-0.132-0.109-0.311-0.085-0.535l0.001-0.002c0.022-0.198,0.084-0.363,0.189-0.495c0.103-0.131,0.245-0.224,0.421-0.28
	c0.177-0.056,0.386-0.07,0.625-0.043C9.436,9.708,9.547,9.733,9.66,9.77C9.771,9.808,9.88,9.857,9.984,9.917
	c0.021,0.012,0.043,0.024,0.064,0.039c0.132,0.083,0.173,0.255,0.089,0.387c-0.081,0.124-0.246,0.165-0.373,0.088
	c-0.044-0.027-0.089-0.052-0.136-0.074c-0.125-0.059-0.246-0.095-0.364-0.108c-0.178-0.02-0.318-0.005-0.422,0.042
	c-0.104,0.047-0.161,0.124-0.172,0.23v0.002c-0.01,0.088,0.008,0.162,0.053,0.219c0.045,0.057,0.103,0.101,0.176,0.134
	c0.072,0.032,0.174,0.068,0.306,0.11c0.005,0.002,0.011,0.004,0.017,0.005c0.006,0.002,0.012,0.004,0.016,0.005
	C9.248,10.999,9.255,11,9.263,11.003c0.007,0.003,0.016,0.005,0.024,0.008c0.19,0.06,0.348,0.124,0.472,0.192
	c0.125,0.069,0.224,0.168,0.298,0.298c0.074,0.13,0.1,0.3,0.076,0.508v0.005c-0.022,0.195-0.085,0.358-0.193,0.487
	c-0.106,0.129-0.252,0.222-0.436,0.274c-0.183,0.055-0.398,0.067-0.645,0.041C8.712,12.801,8.572,12.771,8.434,12.725z"/>
<path fill="#FFFFFF" stroke="#020202" stroke-width="0.15" stroke-miterlimit="10" d="M12.456,10.07l-1.703-0.188
	c-0.152-0.016-0.289,0.093-0.305,0.246l-0.001,0.007c-0.017,0.152,0.093,0.289,0.245,0.306l0.562,0.061l-0.246,2.24
	c-0.017,0.152,0.094,0.289,0.245,0.306l0.029,0.003c0.152,0.016,0.289-0.092,0.306-0.244l0.245-2.241l0.563,0.061
	c0.152,0.017,0.288-0.093,0.305-0.245l0.001-0.008C12.717,10.223,12.607,10.087,12.456,10.07"/>
<path fill="#F7F8F8" stroke="#020202" stroke-width="0.15" stroke-miterlimit="10" d="M12.456,10.07l-1.703-0.188
	c-0.152-0.016-0.289,0.093-0.305,0.246l-0.001,0.007c-0.017,0.152,0.093,0.289,0.245,0.306l0.562,0.061l-0.246,2.24
	c-0.017,0.152,0.094,0.289,0.245,0.306l0.029,0.003c0.152,0.016,0.289-0.092,0.306-0.244l0.245-2.241l0.563,0.061
	c0.152,0.017,0.288-0.093,0.305-0.245l0.001-0.008C12.717,10.223,12.607,10.087,12.456,10.07z"/>
<path fill="#FFFFFF" d="M13.128,13.145c-0.159-0.112-0.276-0.26-0.35-0.44c-0.075-0.183-0.099-0.386-0.075-0.611l0.096-0.871
	c0.024-0.225,0.093-0.419,0.205-0.58c0.112-0.161,0.257-0.279,0.438-0.355c0.18-0.074,0.381-0.1,0.603-0.075
	c0.223,0.024,0.414,0.093,0.574,0.205c0.159,0.113,0.276,0.26,0.351,0.441c0.074,0.182,0.099,0.385,0.074,0.611l-0.096,0.871
	c-0.025,0.225-0.093,0.418-0.205,0.579c-0.112,0.161-0.258,0.279-0.438,0.354c-0.18,0.074-0.381,0.101-0.604,0.076
	C13.479,13.324,13.289,13.256,13.128,13.145 M14.046,12.734c0.084-0.036,0.152-0.092,0.204-0.17
	c0.052-0.076,0.083-0.168,0.095-0.275l0.1-0.9c0.012-0.107,0.001-0.205-0.033-0.291s-0.089-0.156-0.162-0.208
	c-0.074-0.054-0.164-0.085-0.268-0.097c-0.104-0.011-0.199,0.001-0.283,0.037c-0.083,0.036-0.152,0.092-0.203,0.169
	c-0.052,0.077-0.084,0.169-0.096,0.276l-0.099,0.901c-0.011,0.106,0,0.203,0.034,0.29c0.034,0.087,0.088,0.157,0.162,0.209
	c0.074,0.054,0.163,0.085,0.268,0.097C13.87,12.781,13.963,12.77,14.046,12.734"/>
<path fill="#F7F8F8" stroke="#020202" stroke-width="0.15" stroke-miterlimit="10" d="M13.128,13.145
	c-0.159-0.112-0.276-0.26-0.35-0.44c-0.075-0.183-0.099-0.386-0.075-0.611l0.096-0.871c0.024-0.225,0.093-0.419,0.205-0.58
	c0.112-0.161,0.257-0.279,0.438-0.355c0.18-0.074,0.381-0.1,0.603-0.075c0.223,0.024,0.414,0.093,0.574,0.205
	c0.159,0.113,0.276,0.26,0.351,0.441c0.074,0.182,0.099,0.385,0.074,0.611l-0.096,0.871c-0.025,0.225-0.093,0.418-0.205,0.579
	c-0.112,0.161-0.258,0.279-0.438,0.354c-0.18,0.074-0.381,0.101-0.604,0.076C13.479,13.324,13.289,13.256,13.128,13.145z
	 M14.046,12.734c0.084-0.036,0.152-0.092,0.204-0.17c0.052-0.076,0.083-0.168,0.095-0.275l0.1-0.9
	c0.012-0.107,0.001-0.205-0.033-0.291s-0.089-0.156-0.162-0.208c-0.074-0.054-0.164-0.085-0.268-0.097
	c-0.104-0.011-0.199,0.001-0.283,0.037c-0.083,0.036-0.152,0.092-0.203,0.169c-0.052,0.077-0.084,0.169-0.096,0.276l-0.099,0.901
	c-0.011,0.106,0,0.203,0.034,0.29c0.034,0.087,0.088,0.157,0.162,0.209c0.074,0.054,0.163,0.085,0.268,0.097
	C13.87,12.781,13.963,12.77,14.046,12.734z"/>
<path fill="#FFFFFF" d="M17.765,11.106c-0.065-0.151-0.166-0.274-0.304-0.368c-0.137-0.094-0.302-0.152-0.492-0.173l-0.751-0.082
	l-0.206-0.023c-0.152-0.017-0.289,0.093-0.306,0.245l-0.277,2.523c-0.017,0.151,0.093,0.287,0.245,0.305l0.029,0.004
	c0.152,0.018,0.288-0.094,0.305-0.246l0.101-0.917l0.653,0.071c0.192,0.021,0.365,0.002,0.519-0.061
	c0.155-0.062,0.28-0.158,0.375-0.292c0.096-0.132,0.154-0.292,0.175-0.48C17.851,11.427,17.83,11.258,17.765,11.106 M17.23,11.548
	c-0.008,0.075-0.03,0.14-0.067,0.194c-0.036,0.055-0.082,0.094-0.138,0.121c-0.056,0.025-0.119,0.034-0.188,0.027l-0.668-0.074
	l0.084-0.764l0.668,0.073c0.07,0.007,0.13,0.03,0.18,0.067c0.049,0.038,0.084,0.088,0.107,0.149
	C17.231,11.404,17.239,11.473,17.23,11.548"/>
<path fill="#F7F8F8" stroke="#020202" stroke-width="0.15" stroke-miterlimit="10" d="M17.765,11.106
	c-0.065-0.151-0.166-0.274-0.304-0.368c-0.137-0.094-0.302-0.152-0.492-0.173l-0.751-0.082l-0.206-0.023
	c-0.152-0.017-0.289,0.093-0.306,0.245l-0.277,2.523c-0.017,0.151,0.093,0.287,0.245,0.305l0.029,0.004
	c0.152,0.018,0.288-0.094,0.305-0.246l0.101-0.917l0.653,0.071c0.192,0.021,0.365,0.002,0.519-0.061
	c0.155-0.062,0.28-0.158,0.375-0.292c0.096-0.132,0.154-0.292,0.175-0.48C17.851,11.427,17.83,11.258,17.765,11.106z M17.23,11.548
	c-0.008,0.075-0.03,0.14-0.067,0.194c-0.036,0.055-0.082,0.094-0.138,0.121c-0.056,0.025-0.119,0.034-0.188,0.027l-0.668-0.074
	l0.084-0.764l0.668,0.073c0.07,0.007,0.13,0.03,0.18,0.067c0.049,0.038,0.084,0.088,0.107,0.149
	C17.231,11.404,17.239,11.473,17.23,11.548z"/>
<path fill="#ED2224" stroke="#010101" stroke-width="0.15" stroke-miterlimit="10" d="M52.596,69.309
	c-0.953,0.521-2.072,0.631-3.109,0.32L33.2,64.75c-1.722-0.516-2.902-2.102-2.902-3.898c0-1.963,0.541-3.932,1.397-5.094
	c1.458-1.98,3.713-4.941,5.022-6.165l5.223-10.599c0.832-1.664,0.908-1.74,1.57-2.235c0.387-0.288,6.125-2.437,9.316-3.547
	c1.34-0.467,2.771-0.612,4.18-0.427l15.16,2.012l-0.225,0.413l0.488-0.265c0.76-0.412,1.439,0.152,1.73,1.429l1.902,8.358
	l1.736,1.009c0.703-0.104,1.213,0.872,1.223,2.332l0.033,6.886L52.596,69.309z"/>
<path fill="#FFFFFF" stroke="#020202" stroke-width="0.15" stroke-miterlimit="10" d="M66.213,48.874l-6.342,3.438
	c-0.414,0.225-0.664-0.584-0.436-1.416l1.971-7.188c0.174-0.638,0.469-1.121,0.785-1.293l4.021-2.181
	c0.287-0.155,0.52,0.195,0.52,0.783v6.508C66.734,48.113,66.502,48.717,66.213,48.874"/>
<path fill="none" stroke="#020202" stroke-width="0.15" stroke-miterlimit="10" d="M67.484,40.611c0-0.588,0.229-1.192,0.521-1.348
	l4.424-2.399c0.383-0.207,0.729,0.073,0.869,0.715l1.215,5.319c0.146,0.625-0.105,1.535-0.479,1.73L68.006,47.9
	c-0.287,0.156-0.521-0.193-0.521-0.782V40.611L67.484,40.611z"/>
<path fill="#FCEE23" stroke="#010101" stroke-width="0.15" stroke-miterlimit="10" d="M76.639,57.795l2.627-1.425
	c0.176-0.095,0.316-0.461,0.316-0.817v-1.972c0-0.354-0.143-0.567-0.316-0.476l-2.627,1.427c-0.174,0.094-0.313,0.461-0.313,0.815
	v1.973C76.322,57.676,76.465,57.889,76.639,57.795z"/>
<path fill="#FFFFFF" stroke="#020202" stroke-width="0.15" stroke-miterlimit="10" d="M79.033,48.29
	c-0.047-0.004-0.094,0.007-0.145,0.032l-0.479,0.262c-0.266,0.145-0.48,0.702-0.48,1.244v2.13c0,0.54,0.215,0.866,0.48,0.724
	l0.479-0.262c0.059-0.031,0.107-0.082,0.164-0.146L79.033,48.29z"/>
<path fill="none" stroke="#020202" stroke-width="0.15" stroke-miterlimit="10" d="M53.145,69.01
	c-1.146,0.618-2.564,0.237-3.244-0.867c-0.492-0.808-0.691-1.761-0.563-2.697c0.199-1.438,0.656-2.814,1.283-3.809
	c1.457-2.303,5.6-5.763,6.904-7.275l3.094-11.278c0.35-1.269,0.938-2.24,1.568-2.582l10.234-5.55
	c0.762-0.412,1.445,0.152,1.734,1.429l1.904,8.354l1.736,1.014c0.701-0.104,1.215,0.872,1.223,2.332l0.035,6.886"/>
<path fill="#ADE1FA" stroke="#010101" stroke-width="0.15" stroke-miterlimit="10" d="M66.213,48.874l-6.342,3.438
	c-0.414,0.225-0.664-0.584-0.436-1.416l1.971-7.188c0.174-0.638,0.469-1.121,0.785-1.293l4.021-2.181
	c0.287-0.155,0.52,0.195,0.52,0.783v6.508C66.734,48.113,66.502,48.717,66.213,48.874z M67.484,40.611
	c0-0.588,0.229-1.192,0.521-1.348l4.424-2.399c0.383-0.207,0.729,0.073,0.869,0.715l1.215,5.319c0.146,0.625-0.105,1.535-0.479,1.73
	L68.006,47.9c-0.287,0.156-0.521-0.193-0.521-0.782V40.611L67.484,40.611z M40.558,50.076l13.981,2.913
	c0.877,0.183,1.744-0.354,1.971-1.222l2.168-8.324c0.248-0.95-0.367-1.909-1.334-2.084l-12.303-2.17
	c-0.729-0.127-1.455,0.235-1.789,0.896l-3.85,7.582C38.9,48.656,39.474,49.852,40.558,50.076"/>
<path fill="#ADE1FA" stroke="#010101" stroke-width="0.15" stroke-miterlimit="10" d="M40.558,50.076l13.981,2.913
	c0.877,0.183,1.744-0.354,1.971-1.222l2.168-8.324c0.248-0.95-0.367-1.909-1.334-2.084l-12.303-2.17
	c-0.729-0.127-1.455,0.235-1.789,0.896l-3.85,7.582C38.9,48.656,39.474,49.852,40.558,50.076z"/>
<circle fill="#ED2224" stroke="#231F20" stroke-width="0.15" stroke-miterlimit="10" cx="49.064" cy="9.54" r="2.268"/>
<path fill="#FCEE23" stroke="#231F20" stroke-width="0.15" stroke-miterlimit="10" d="M49.066,12.648
	c-1.252,0-2.27,1.015-2.27,2.266c0,1.25,1.018,2.264,2.27,2.264c1.25,0,2.266-1.014,2.266-2.264
	C51.332,13.663,50.316,12.648,49.066,12.648z"/>
<path fill="#8EC641" stroke="#231F20" stroke-width="0.15" stroke-miterlimit="10" d="M49.066,18.023
	c-1.252,0-2.27,1.014-2.27,2.264c0,1.251,1.018,2.265,2.27,2.265c1.25,0,2.266-1.014,2.266-2.265
	C51.332,19.037,50.316,18.023,49.066,18.023z"/>
<circle fill="#FFFFFF" stroke="#020202" stroke-width="0.15" stroke-miterlimit="10" cx="49.592" cy="64.419" r="3.237"/>
<path fill="#FFFFFF" stroke="#020202" stroke-width="0.15" stroke-miterlimit="10" d="M30.582,62.329c-0.002,0-0.003,0-0.005,0
	c-0.18-0.461-0.279-0.961-0.279-1.479c0-1.832,0.471-3.672,1.232-4.853c1.324,0.405,2.288,1.637,2.288,3.094
	C33.817,60.88,32.369,62.329,30.582,62.329z"/>
<path fill="#FCEE23" stroke="#010101" stroke-width="0.15" stroke-miterlimit="10" d="M53.133,70.327l-1.213,0.417
	c-1.92,0.658-3.998,0.713-5.949,0.156c-4.534-1.293-12.755-3.664-14.283-4.313c-2.13-0.897-3.278-1.313-3.524-4.343
	c-0.188-2.323,1.212-2.963,2.134-2.508c0.079,1.359,1.318,2.193,1.964,2.508c3.964,1.922,15.65,4.507,17.08,4.334
	c0.516-0.063,1.359-0.336,2.225-0.658c1.525-0.564,3.146,0.566,3.146,2.193l0,0C54.713,69.115,54.078,70.004,53.133,70.327z"/>
<path fill="#393A39" stroke="#020202" stroke-width="0.15" stroke-miterlimit="10" d="M56.328,65.23
	c0-2.524,1.738-4.248,3.738-4.813c1.479-0.417,1.625,0.067,1.625,2.593c0,2.526-0.008,6.45-1.375,7.119
	c-0.098,0.048-1.625-0.638-2.473-1.021c-0.646-0.291-1.113-0.834-1.266-1.476C56.438,66.998,56.299,66.134,56.328,65.23z"/>
<path fill="#393A39" stroke="#020202" stroke-width="0.15" stroke-miterlimit="10" d="M58.758,66.645
	c0-2.521,1.109-5.107,2.475-5.775c1.365-0.676,2.48,0.834,2.48,3.354c0,2.523-1.105,5.112-2.48,5.781
	C59.867,70.673,58.758,69.168,58.758,66.645z"/>
<path fill="#F89520" stroke="#010101" stroke-width="0.15" stroke-miterlimit="10" d="M58.33,67.752
	c0.486-0.152,0.783-0.654,0.783-1.281c0-2.158,0.949-4.38,2.119-4.951c1.168-0.566,2.117,0.724,2.117,2.877
	c0,0.627,0.271,1,0.609,0.834c0.346-0.166,0.254-0.828,0.254-1.455c0-3.403-2.512-4.822-4.637-4.153
	c-2.605,0.813-3.576,4.532-3.447,6.923C56.205,67.818,57.646,68.081,58.33,67.752z"/>
<path fill="#F6F7F8" stroke="#020202" stroke-width="0.15" stroke-miterlimit="10" d="M60.254,65.912
	c0-0.999,0.438-2.023,0.979-2.288c0.541-0.267,0.979,0.33,0.979,1.33c0,0.998-0.438,2.022-0.979,2.288S60.254,66.911,60.254,65.912z
	"/>
<path fill="#393A39" stroke="#020202" stroke-width="0.15" stroke-miterlimit="10" d="M69.275,58.645c0-2.224,1.51-3.74,3.242-4.233
	c1.287-0.368,1.41,0.063,1.41,2.278c0,2.229-0.012,5.687-1.191,6.271c-0.086,0.042-1.41-0.563-2.146-0.898
	c-0.561-0.256-0.967-0.729-1.092-1.299C69.371,60.201,69.25,59.439,69.275,58.645z"/>
<path fill="#393A39" stroke="#020202" stroke-width="0.15" stroke-miterlimit="10" d="M71.385,59.891
	c0-2.224,0.959-4.504,2.146-5.093c1.186-0.59,2.146,0.735,2.146,2.959s-0.965,4.503-2.146,5.091
	C72.344,63.438,71.385,62.113,71.385,59.891z"/>
<path fill="#F89520" stroke="#010101" stroke-width="0.15" stroke-miterlimit="10" d="M71.012,60.866
	c0.424-0.136,0.682-0.577,0.682-1.13c0-1.901,0.822-3.857,1.842-4.361c1.014-0.503,1.838,0.634,1.838,2.535
	c0,0.552,0.232,0.88,0.525,0.732c0.295-0.146,0.227-0.729,0.227-1.281c0-3.002-2.184-4.252-4.021-3.662
	c-2.252,0.72-3.104,3.996-2.986,6.098C69.17,60.924,70.422,61.154,71.012,60.866z"/>
<path fill="#F6F7F8" stroke="#020202" stroke-width="0.15" stroke-miterlimit="10" d="M72.68,59.245c0-0.88,0.381-1.782,0.855-2.015
	c0.467-0.234,0.85,0.291,0.85,1.17s-0.383,1.783-0.85,2.016C73.061,60.65,72.68,60.125,72.68,59.245z"/>
<path fill="#BCBCBC" d="M25.874,33.809c-0.07-0.42,0.748-0.779,1.523-0.222s1.563,1.687,2.697,1.09c0,0-0.561,0.584-1.52,0.415
	c-0.48-0.085-0.683-0.654-1.45-0.83C26.751,34.176,25.982,34.477,25.874,33.809z"/>
<path fill="#BCBCBC" d="M25.489,33.816c0.051-0.422-0.781-0.748-1.533-0.158s-1.492,1.749-2.649,1.201c0,0,0.585,0.56,1.536,0.351
	c0.475-0.104,0.655-0.683,1.415-0.89C24.625,34.221,25.406,34.488,25.489,33.816z"/>
<path fill="#F4F4F4" d="M18.026,50.412c-0.103-0.041-0.206-0.086-0.313-0.123c-0.056-0.02-0.08-0.046-0.077-0.107
	c0.03-0.537,0.054-1.074,0.083-1.613c0.015-0.271,0.019-0.271,0.285-0.344c0.182-0.053,0.365-0.104,0.548-0.158
	c0.007-0.002,0.014-0.012,0.029-0.021c-0.058-0.056-0.114-0.106-0.169-0.166c-0.439-0.454-0.638-1.004-0.654-1.631
	c-0.011-0.42,0.097-0.812,0.261-1.188c0.022-0.05,0.04-0.082,0.097-0.076c0.089,0.012,0.108-0.043,0.119-0.116
	c0.069-0.479,0.144-0.955,0.216-1.438c0.008-0.054-0.004-0.121,0.095-0.104c0.066,0.01,0.048-0.061,0.053-0.096
	c0.071-0.455,0.143-0.91,0.206-1.371c0.014-0.103,0.05-0.125,0.145-0.101c0.114,0.033,0.229,0.054,0.36,0.083
	c-0.069-0.093-0.159-0.141-0.238-0.197c-0.051-0.041-0.068-0.076-0.047-0.138c0.195-0.569,0.39-1.144,0.583-1.716
	c0.019-0.057,0.057-0.064,0.106-0.063c0.711,0.004,1.42,0.008,2.13,0.012c0.697,0.003,1.394,0.008,2.091,0.005
	c0.079-0.001,0.092,0.008,0.071,0.088c-0.149,0.545-0.292,1.093-0.437,1.642c-0.022,0.086-0.053,0.17-0.067,0.258
	c-0.014,0.086-0.043,0.123-0.14,0.11c-0.135-0.017-0.271-0.015-0.406-0.022c-0.041,0-0.085-0.004-0.107,0.048
	c-0.024,0.057,0.023,0.075,0.055,0.098c0.114,0.081,0.226,0.165,0.343,0.24c0.066,0.043,0.077,0.082,0.046,0.149
	c-0.103,0.229-0.198,0.47-0.298,0.699c-0.046,0.104-0.074,0.215-0.09,0.325c-0.057,0.397-0.115,0.8-0.175,1.194
	c-0.007,0.059,0.006,0.139-0.1,0.113c-0.044-0.011-0.042,0.033-0.046,0.062c-0.038,0.25-0.078,0.501-0.113,0.753
	c-0.006,0.053,0.005,0.104,0.011,0.15c0.116,0.752,0,1.445-0.468,2.063c-0.086,0.111-0.031,0.243-0.031,0.367
	C21.982,48.45,21.99,48.816,22,49.188c0.001,0.071-0.021,0.099-0.087,0.104c-0.141,0.028-0.281,0.063-0.419,0.101
	c-0.036,0.016-0.079,0.015-0.083,0.063c-0.003,0.059,0.033,0.07,0.075,0.084c0.134,0.045,0.263,0.097,0.396,0.138
	c0.078,0.021,0.103,0.062,0.09,0.146c-0.034,0.229-0.043,0.456-0.087,0.688c-0.083,0.438,0.011,0.855,0.049,1.284
	c0.012,0.126,0.034,0.25,0.041,0.38c0.005,0.063,0.064,0.153-0.074,0.168c-0.035,0.011-0.022,0.058-0.018,0.074
	c0.02,0.174,0.048,0.347,0.055,0.519c0.003,0.082,0.079,0.073,0.103,0.131c0.229,0.512,0.38,1.052,0.316,1.615
	c-0.109,0.979-0.753,1.743-1.699,1.978c-0.952,0.237-1.804,0.056-2.469-0.704c-0.496-0.563-0.66-1.243-0.572-1.98
	c0.011-0.099-0.019-0.207,0.09-0.274c0.025-0.019,0.006-0.063,0.001-0.099c-0.052-0.476-0.104-0.949-0.156-1.433
	c-0.007-0.056-0.028-0.106,0.065-0.104c0.055-0.012,0.032-0.063,0.029-0.102c-0.05-0.447-0.097-0.91-0.155-1.355
	c-0.015-0.104-0.01-0.174,0.131-0.164c0.131,0.016,0.264-0.008,0.398-0.016C18.024,50.43,18.025,50.419,18.026,50.412z"/>
<path fill="#020202" d="M16.357,46.744c0.06,0.08,0.137,0.021,0.201,0.033c0.101,0.02,0.112-0.038,0.116-0.113
	c0.002-0.034,0.016-0.057,0.055-0.053c0.044,0.006,0.043,0.039,0.036,0.063c-0.033,0.108,0.027,0.131,0.117,0.139
	c0.165,0.015,0.327,0.045,0.491,0.055c0.125,0.005,0.205,0.049,0.239,0.171c0.009,0.032,0.024,0.063,0.042,0.103
	c-0.057,0.021-0.11,0.004-0.162-0.002c-0.219-0.025-0.437-0.053-0.655-0.076c-0.048-0.004-0.108-0.037-0.128,0.051
	c-0.009,0.05-0.058,0.021-0.063-0.006c-0.018-0.078-0.079-0.07-0.136-0.09c-0.173-0.041-0.254-0.187-0.207-0.354
	c0.014-0.045,0.037-0.084,0.081-0.106c0.041-0.021,0.08-0.021,0.118,0.016c0.032,0.021,0.044,0.061,0.031,0.102
	c-0.011,0.043-0.047,0.055-0.084,0.063C16.42,46.732,16.392,46.703,16.357,46.744z"/>
<path fill="#020202" d="M16.822,47.27c0.13,0.021,0.261,0.032,0.391,0.047c0.056,0.011,0.108,0,0.084-0.08
	c-0.008-0.021-0.017-0.053,0.017-0.063c0.028-0.007,0.047,0.014,0.061,0.038c0.046,0.082,0.046,0.171,0.005,0.254
	c-0.042,0.082-0.117,0.107-0.202,0.099c-0.235-0.021-0.47-0.055-0.707-0.078c-0.05-0.004-0.119-0.043-0.123,0.063
	c-0.003,0.042-0.053,0.021-0.065-0.014c-0.026-0.08-0.06-0.167-0.006-0.245c0.047-0.073,0.127-0.066,0.206-0.059
	C16.596,47.246,16.708,47.259,16.822,47.27C16.822,47.271,16.822,47.271,16.822,47.27z"/>
<path fill="#020202" d="M17.241,46.546c-0.142-0.015-0.284-0.026-0.427-0.042c-0.044-0.013-0.076-0.038-0.093-0.079
	c-0.045-0.104,0.008-0.177,0.121-0.164c0.134,0.017,0.268,0.031,0.401,0.048c0.062,0.006,0.135,0.004,0.146,0.088
	c0.008,0.071-0.051,0.104-0.105,0.127C17.271,46.529,17.255,46.537,17.241,46.546z"/>
<path fill="#020202" d="M17.241,46.546c0.007-0.042,0.038-0.063,0.072-0.082c0.03-0.015,0.066-0.022,0.052-0.071
	c-0.016-0.045-0.047-0.063-0.094-0.064c-0.147-0.021-0.293-0.034-0.442-0.057c-0.032-0.002-0.072-0.018-0.088,0.023
	c-0.016,0.039-0.03,0.081,0.007,0.119c0.028,0.023,0.055,0.054,0.066,0.09c-0.02,0.021-0.035,0.048-0.057,0.066
	c-0.045,0.037-0.071,0.021-0.069-0.031c0.004-0.083,0.016-0.162,0.021-0.241c0.004-0.065,0.048-0.056,0.09-0.051
	c0.169,0.021,0.336,0.041,0.504,0.058c0.059,0.006,0.144,0.034,0.106-0.084c-0.006-0.021,0.003-0.045,0.028-0.049
	c0.031-0.007,0.046,0.021,0.057,0.042c0.042,0.085,0.04,0.173-0.01,0.252C17.425,46.563,17.338,46.573,17.241,46.546z"/>
<path fill="#020202" d="M16.337,46.341c0.019-0.089,0.076-0.137,0.161-0.124c0.083,0.012,0.135,0.072,0.121,0.16
	c-0.012,0.085-0.074,0.129-0.153,0.119C16.379,46.489,16.333,46.434,16.337,46.341z"/>
<path fill="#020202" d="M22.064,54.391c0.019,0.577-0.174,1.084-0.592,1.479c-0.661,0.607-1.447,0.74-2.277,0.438
	c-0.82-0.304-1.192-0.97-1.288-1.813c-0.016-0.146,0.001-0.283,0.012-0.436c0.006-0.078,0.033-0.119,0.112-0.137
	c0.135-0.041,0.265-0.083,0.394-0.146c-0.099,0.004-0.199,0.002-0.298,0.019c-0.064,0.004-0.09-0.021-0.097-0.082
	c-0.045-0.415-0.092-0.833-0.141-1.248c-0.011-0.083,0.02-0.104,0.095-0.103c0.322-0.012,0.642-0.021,0.964-0.031
	c0.063-0.01,0.115,0.001,0.11-0.098c-0.004-0.084-0.038-0.101-0.116-0.092c-0.278,0.021-0.557,0.021-0.837,0.034
	c-0.09,0.011-0.134-0.014-0.143-0.118c-0.037-0.396-0.081-0.798-0.132-1.197c-0.011-0.096,0.013-0.105,0.103-0.109
	c0.499-0.018,0.997-0.036,1.498-0.061c0.029-0.004,0.06,0.002,0.089-0.022c-0.452-0.181-0.899-0.353-1.349-0.521
	c-0.226-0.086-0.223-0.086-0.209-0.326c0.021-0.391,0.041-0.773,0.056-1.166c0.003-0.088,0.035-0.125,0.118-0.146
	c0.403-0.104,0.806-0.224,1.206-0.342c0.006-0.05-0.031-0.042-0.05-0.055c-0.827-0.364-1.292-1.145-1.225-2.045
	c0.017-0.235,0.066-0.467,0.153-0.688c0.029-0.067,0.063-0.104,0.146-0.104c0.222-0.002,0.444-0.021,0.671-0.056
	c-0.138-0.028-0.276-0.065-0.417-0.092c-0.083-0.019-0.109-0.046-0.096-0.136c0.067-0.407,0.129-0.819,0.189-1.229
	c0.009-0.065,0.033-0.089,0.097-0.063c0.086,0.028,0.185,0.022,0.268,0.067c0.003,0.104-0.069,0.188-0.112,0.278
	c-0.059,0.229-0.05,0.472-0.107,0.698c-0.02,0.076,0.053,0.086,0.104,0.101c0.277,0.072,0.557,0.136,0.836,0.196
	c0.405,0.088,0.808,0.184,1.21,0.271c0.035,0.006,0.064,0.021,0.095,0.035c0.182,0.088,0.182,0.088,0.081,0.279
	c-0.02,0.031-0.067,0.052-0.051,0.102c0.049,0.369,0.005,0.715-0.234,1.019c-0.087,0.106-0.182,0.211-0.324,0.252
	c-0.314,0.028-0.618,0.021-0.883-0.188c-0.289-0.226-0.402-0.533-0.394-0.892c0.003-0.116,0.024-0.233,0.041-0.354
	c0.008-0.055,0.006-0.106-0.06-0.113c-0.228-0.028-0.453-0.037-0.665,0.068c-0.184,0.031-0.213,0.172-0.235,0.324
	c-0.057,0.403-0.028,0.795,0.158,1.164c0.214,0.424,0.562,0.689,1.006,0.838c0.051,0.021,0.105,0.032,0.154,0.057
	c0.09,0.051,0.191,0.035,0.284,0.059c0.042,0.009,0.098,0.008,0.108,0.059c0.007,0.06-0.044,0.074-0.087,0.096
	c-0.177,0.063-0.361,0.111-0.545,0.162c-0.308,0.074-0.606,0.186-0.912,0.266c-0.093,0.025-0.146,0.095-0.179,0.182
	c-0.043,0.055-0.073,0.111-0.075,0.182c-0.003,0.24-0.009,0.484-0.038,0.732c-0.018,0.151,0.008,0.189,0.157,0.246
	c0.668,0.254,1.333,0.516,2.002,0.77c0.053,0.024,0.115,0.033,0.139,0.104c-0.009,0.091-0.082,0.063-0.135,0.065
	c-0.585,0.033-1.171,0.06-1.756,0.066c-0.151,0.004-0.294,0.026-0.41,0.127c-0.082,0.022-0.098,0.086-0.09,0.158
	c0.02,0.174,0.044,0.344,0.06,0.516c0.008,0.103,0.049,0.143,0.146,0.129c0.25-0.008,0.498-0.019,0.748-0.021
	c0.172-0.003,0.208,0.021,0.222,0.189c0.011,0.147,0.032,0.291-0.002,0.44c-0.042,0.06-0.105,0.066-0.169,0.069
	c-0.139,0.005-0.277,0.025-0.415,0.016c-0.167-0.009-0.313,0.034-0.447,0.135c-0.076,0.019-0.085,0.067-0.079,0.143
	c0.017,0.175,0.03,0.35,0.057,0.521c0.021,0.135,0.035,0.146,0.173,0.137c0.724-0.021,1.445-0.062,2.167-0.081
	c0.069-0.005,0.137-0.007,0.204,0.007c0.157,0.051,0.16,0.126,0.017,0.271c-0.013,0.06,0.018,0.103,0.033,0.147
	c0.11,0.34,0.123,0.675-0.053,1.003c-0.035,0.063-0.069,0.125-0.132,0.165c-0.209,0.104-0.421,0.188-0.66,0.183
	c-0.1-0.006-0.2-0.018-0.239-0.136c0.053-0.032,0.116-0.021,0.174-0.021c0.408-0.027,0.643-0.268,0.664-0.674
	c0.006-0.146-0.024-0.281-0.078-0.422c-0.034-0.082-0.092-0.125-0.184-0.123c-0.305,0.019-0.608,0.021-0.913,0.033
	c-0.085,0.012-0.118,0.053-0.135,0.127c-0.019,0.08-0.007,0.172-0.051,0.245c-0.068,0.03-0.062-0.024-0.065-0.063
	c-0.008-0.063-0.024-0.133-0.052-0.194c-0.039-0.084-0.104-0.116-0.194-0.088c-0.148,0.063-0.301,0.11-0.454,0.155
	c-0.103,0.023-0.159,0.117-0.237,0.183c-0.053,0.03-0.07,0.084-0.071,0.144c-0.019,0.821,0.516,1.674,1.448,1.805
	c0.305,0.046,0.597,0.008,0.891-0.047c0.508-0.045,0.884-0.303,1.165-0.709c0.166-0.246,0.295-0.502,0.314-0.808
	C22.016,54.471,22.019,54.419,22.064,54.391z"/>
<path fill="#020202" d="M18.941,44.003c0.069-0.063,0.073-0.167,0.135-0.237c0.242,0.051,0.483,0.104,0.723,0.158
	c0.081,0.02,0.079-0.033,0.096-0.078c0.024-0.063,0.003-0.094-0.061-0.104c-0.276-0.063-0.553-0.133-0.829-0.188
	c-0.099-0.021-0.141-0.046-0.121-0.162c0.069-0.396,0.127-0.793,0.182-1.188c0.013-0.101,0.055-0.097,0.126-0.073
	c0.412,0.102,0.824,0.188,1.236,0.283c0.056,0.016,0.111,0.021,0.177,0.008c-0.149-0.107-0.299-0.229-0.449-0.341
	c-0.231-0.174-0.457-0.351-0.691-0.519c-0.081-0.057-0.104-0.104-0.069-0.203c0.147-0.406,0.285-0.816,0.419-1.226
	c0.023-0.071,0.053-0.097,0.132-0.096c1.193,0.005,2.385,0.009,3.579,0.009c0.084,0.001,0.109,0.018,0.085,0.107
	c-0.119,0.429-0.232,0.856-0.343,1.289c-0.018,0.072-0.05,0.1-0.129,0.091c-0.13-0.015-0.264-0.009-0.394-0.024
	c-0.078-0.009-0.105,0.023-0.124,0.088c-0.032,0.109-0.067,0.221-0.11,0.324c-0.036,0.087-0.015,0.143,0.063,0.188
	c0.105,0.063,0.198,0.145,0.302,0.209c0.059,0.041,0.08,0.076,0.045,0.146c-0.241,0.457-0.351,0.949-0.399,1.457
	c-0.01,0.11-0.04,0.221-0.049,0.328c-0.009,0.081-0.036,0.096-0.113,0.073c-0.35-0.082-0.702-0.157-1.051-0.241
	c-0.086-0.021-0.105,0.011-0.126,0.085c-0.024,0.092,0.042,0.085,0.091,0.097c0.308,0.069,0.616,0.146,0.927,0.207
	c0.093,0.021,0.112,0.057,0.097,0.147c-0.05,0.296-0.082,0.596-0.14,0.889c-0.022,0.109,0.059,0.191,0.029,0.293
	c-0.133-0.028-0.248-0.104-0.366-0.169c-0.037-0.021-0.034-0.063-0.025-0.104c0.006-0.061,0.007-0.113,0.05-0.156
	c0.106-0.005,0.15-0.059,0.168-0.164c0.028-0.152,0.022-0.311,0.057-0.464c0.021-0.095-0.043-0.142-0.126-0.16
	c-0.233-0.056-0.466-0.112-0.701-0.163c-0.235-0.048-0.299-0.148-0.24-0.38c0.017-0.063,0.03-0.131,0.042-0.197
	c0.009-0.063,0.034-0.112,0.102-0.13c0.276,0.032,0.542,0.11,0.813,0.169c0.086,0.021,0.175,0.044,0.235-0.055
	c0.122-0.038,0.171-0.122,0.19-0.25c0.019-0.122,0.052-0.242,0.059-0.364c0.014-0.242,0.083-0.472,0.196-0.688
	c0.061-0.121,0.048-0.168-0.058-0.252c-0.03-0.021-0.061-0.043-0.091-0.063c-0.221-0.171-0.243-0.229-0.143-0.483
	c0.069-0.172,0.093-0.365,0.202-0.52c0.064-0.059,0.139-0.045,0.212-0.032c0.105,0.021,0.196,0.007,0.269-0.077
	c0.109-0.029,0.157-0.111,0.181-0.209c0.036-0.146,0.079-0.291,0.113-0.44c0.039-0.169,0.006-0.205-0.165-0.207
	c-0.459-0.011-0.918,0.006-1.378-0.005c-0.459-0.01-0.919,0.009-1.377-0.006c-0.079-0.002-0.149,0.019-0.208,0.074
	c-0.137,0.032-0.184,0.135-0.224,0.258c-0.071,0.213-0.139,0.426-0.219,0.636c-0.041,0.104-0.018,0.171,0.071,0.237
	c0.518,0.39,1.033,0.78,1.549,1.168c0.037,0.026,0.077,0.058,0.105,0.09c0.018,0.023,0.034,0.054-0.008,0.074
	c-0.136,0.021-0.271-0.009-0.401-0.037c-0.444-0.103-0.888-0.207-1.333-0.309c-0.119-0.025-0.214-0.008-0.31,0.059
	c-0.092,0.006-0.126,0.063-0.134,0.148c-0.014,0.158-0.036,0.314-0.074,0.477c-0.03,0.123-0.01,0.146,0.113,0.181
	c0.217,0.055,0.436,0.098,0.654,0.146c0.063,0.018,0.124,0.027,0.18,0.062c0.045,0.021,0.082,0.058,0.071,0.104
	c-0.031,0.172-0.045,0.354-0.135,0.51c-0.044,0.039-0.092,0.022-0.144,0.021c-0.198-0.021-0.388-0.082-0.58-0.13
	c-0.111-0.026-0.206-0.026-0.293,0.052C19.031,44.057,18.978,44.059,18.941,44.003z"/>
<path fill="#020202" d="M21.832,45.54c-0.033,0.067,0.025,0.077,0.066,0.092c0.104,0.037,0.204,0.089,0.292,0.161
	c0.027,0.078,0.039,0.161,0.025,0.244c-0.007,0.602-0.197,1.119-0.654,1.525c-0.057,0.047-0.074,0.088-0.001,0.136
	c0.064,0.043,0.076,0.118,0.106,0.183c0.029,0.199,0.01,0.402,0.021,0.605c0.007,0.146,0.002,0.296,0.01,0.443
	c0.004,0.076-0.018,0.117-0.104,0.137c-0.125,0.021-0.247,0.06-0.37,0.084c-0.072,0.013-0.102,0.041-0.103,0.113
	c0,0.131-0.008,0.262-0.02,0.396c-0.008,0.063,0.034,0.087,0.083,0.104c0.125,0.033,0.246,0.094,0.372,0.127
	c0.086,0.021,0.102,0.068,0.087,0.146c-0.124,0.632-0.1,1.255,0.007,1.88c0.015,0.1-0.01,0.122-0.109,0.125
	c-0.347,0.004-0.694,0.021-1.041,0.036c-0.059,0.002-0.125-0.015-0.12,0.092c0.006,0.104,0.062,0.097,0.134,0.089
	c0.312-0.013,0.625-0.019,0.937-0.035c0.101-0.014,0.119,0.03,0.127,0.116c0.027,0.29,0.063,0.576,0.094,0.873
	c0.007,0.063,0.01,0.118,0.097,0.111c0.041-0.013,0.059,0.021,0.074,0.057c0.137,0.329,0.228,0.661,0.22,1.019
	c-0.015,0.381-0.161,0.717-0.379,1.017c-0.207,0.291-0.49,0.479-0.816,0.604c-0.104,0.043-0.223,0.035-0.333,0.053
	c0.009-0.063,0.068-0.063,0.112-0.084c0.22-0.08,0.414-0.205,0.598-0.353c0.578-0.444,0.738-1.038,0.609-1.735
	c-0.015-0.064-0.028-0.146-0.051-0.223c-0.031-0.104-0.1-0.156-0.206-0.154c-0.134,0.008-0.269-0.004-0.405,0.002
	c-0.081,0.002-0.129,0.049-0.19,0.082c-0.076,0.018-0.153,0.047-0.226-0.008c0.011-0.021,0.029-0.021,0.051-0.025
	c0.069-0.008,0.085-0.055,0.088-0.111c0.002-0.064-0.061-0.057-0.098-0.064c0.018-0.062,0.064-0.053,0.105-0.055
	c0.102-0.007,0.201-0.021,0.303-0.021c0.054,0.003,0.097-0.013,0.129-0.06c0.126-0.074,0.157-0.184,0.128-0.32
	c-0.022-0.104-0.035-0.229-0.049-0.338c-0.012-0.104-0.064-0.148-0.167-0.146c-0.237-0.008-0.473,0.008-0.708,0.021
	c-0.078,0.006-0.151,0.002-0.223-0.031c-0.059-0.025-0.101-0.067-0.106-0.129c-0.005-0.141-0.029-0.273-0.028-0.418
	c0.001-0.047,0.013-0.092,0.053-0.123c0.046-0.036,0.104-0.03,0.158-0.033c0.248-0.018,0.497-0.018,0.745-0.027
	c0.059-0.003,0.109-0.009,0.14-0.064c0.118-0.055,0.144-0.15,0.122-0.271c-0.025-0.147-0.03-0.309-0.05-0.448
	c-0.019-0.166-0.023-0.33,0.029-0.488c0.006-0.02,0.006-0.021,0.01-0.037c0.063-0.313,0.038-0.354-0.26-0.477
	c-0.195-0.072-0.234-0.134-0.233-0.344c0.002-0.229,0.013-0.453,0.069-0.683c0.043-0.068,0.12-0.068,0.19-0.087
	c0.074-0.016,0.151-0.024,0.199-0.098c0.077-0.054,0.132-0.108,0.133-0.217c0-0.167-0.01-0.335-0.007-0.502
	c0.001-0.107-0.037-0.132-0.137-0.104c-0.599,0.178-1.202,0.347-1.803,0.519c-0.349,0.104-0.696,0.192-1.047,0.297
	c-0.053,0.017-0.111,0.052-0.167,0.002c-0.001-0.112,0.086-0.183,0.17-0.2c0.455-0.137,0.913-0.26,1.372-0.391
	c0.064-0.018,0.13-0.037,0.194-0.092c-0.132-0.061-0.275-0.012-0.393-0.079c0.079-0.056,0.167-0.021,0.247-0.011
	c0.45,0.068,0.856-0.045,1.231-0.289c0.087-0.063,0.148-0.15,0.247-0.197c0.155-0.063,0.248-0.188,0.332-0.318
	c0.223-0.345,0.314-0.729,0.306-1.134c-0.003-0.118-0.053-0.188-0.171-0.224c-0.105-0.027-0.212-0.053-0.316-0.092
	c-0.106-0.039-0.197-0.029-0.278,0.051c-0.068,0.021-0.127-0.012-0.188-0.03c-0.025-0.075,0.034-0.038,0.059-0.044
	c0.065-0.076,0.103-0.193,0.24-0.162c-0.016-0.021-0.025-0.05,0.014-0.063C21.558,45.432,21.703,45.452,21.832,45.54z"/>
<path fill="#020202" d="M21.666,47.88c-0.076-0.063-0.102-0.171-0.207-0.213c-0.046-0.017-0.009-0.065,0.022-0.089
	c0.238-0.172,0.385-0.414,0.521-0.668c0.093-0.171,0.105-0.361,0.161-0.54c0.034-0.104,0.034-0.222,0.05-0.333
	c0.038,0.525-0.082,1.008-0.396,1.436C21.726,47.598,21.652,47.719,21.666,47.88z"/>
<path fill="#020202" d="M16.067,48.896c-0.02,0.146,0.008,0.287-0.063,0.43c-0.029,0.055,0.033,0.099,0.057,0.146
	c0.008,0.021,0.026,0.021,0.042,0.004c0.038-0.037,0.043-0.082,0.031-0.129c-0.006-0.037-0.006-0.074-0.01-0.106
	c0.055,0.11,0.148,0.124,0.25,0.135c0.181,0.017,0.361,0.04,0.542,0.06c0.054,0.008,0.112,0.002,0.133,0.078
	c0.009,0.021,0.027,0.049,0.058,0.032c0.03-0.019,0.023-0.043,0.026-0.062c0.018-0.15,0.041-0.313,0.053-0.471
	c0.025-0.313-0.192-0.554-0.531-0.593C16.34,48.391,16.108,48.582,16.067,48.896z M16.912,48.768
	c0.071,0.029,0.131,0.075,0.161,0.151c0.08,0.2,0.026,0.271-0.176,0.247c-0.096-0.012-0.193-0.021-0.291-0.033
	c-0.131-0.016-0.26-0.031-0.391-0.044c-0.066,0.003-0.084-0.028-0.077-0.096c0.015-0.146,0.111-0.261,0.275-0.284
	C16.584,48.682,16.751,48.704,16.912,48.768z"/>
<path fill="#020202" d="M16.063,49.727c-0.177,0.207-0.188,0.506-0.025,0.729c0.154,0.207,0.444,0.29,0.679,0.188
	c0.079-0.035,0.172-0.142,0.221-0.117c0.069,0.029,0.104,0.144,0.168,0.248c-0.029-0.278-0.189-0.459-0.313-0.651
	c-0.018-0.021-0.06-0.026-0.098-0.036c-0.06-0.027-0.138-0.025-0.168-0.092c-0.059-0.135-0.108-0.146-0.208-0.046
	c0.019-0.146,0.019-0.146,0.168-0.13c0.068,0.01,0.113,0.015,0.048-0.063c-0.023,0.013-0.048,0.019-0.072,0.015
	c-0.074,0.006-0.164-0.058-0.201,0.063c-0.023,0.069-0.104,0.13-0.08,0.224c0.015,0.051-0.025,0.058-0.053,0.063
	c-0.045,0.022-0.062,0.058-0.035,0.103c0.014,0.024,0.047,0.068,0.065,0.034c0.018-0.024,0.102-0.024,0.053-0.092
	c-0.012-0.019-0.032-0.035,0-0.051c0.011-0.007,0.025-0.007,0.035,0c0.023,0.015,0.049,0.036,0.036,0.062
	c-0.066,0.117,0.035,0.141,0.101,0.165c0.092,0.031,0.19,0.058,0.302,0.089c-0.02-0.065-0.065-0.072-0.108-0.078
	c-0.072-0.019-0.135-0.049-0.194-0.088c-0.047-0.031-0.035-0.072-0.01-0.109c0.035-0.051,0.058-0.002,0.079,0.021
	c0.104,0.083,0.222,0.15,0.343,0.218c0.095,0.045,0.077,0.082,0.004,0.143c-0.177,0.128-0.418,0.135-0.594,0.003
	c-0.18-0.128-0.252-0.36-0.178-0.575c0.075-0.221,0.256-0.331,0.5-0.331l0,0c0.319,0.021,0.529,0.293,0.463,0.606
	c-0.005,0.023-0.021,0.063-0.022,0.085c0,0.021,0.015,0.044,0.031,0.055c0.026,0.017,0.031-0.021,0.039-0.037
	c0.01-0.021,0.022-0.063,0.028-0.083c0.059-0.248-0.069-0.521-0.299-0.646C16.53,49.468,16.232,49.523,16.063,49.727z M16.59,50.127
	c0.117,0.021,0.171,0.087,0.229,0.146C16.734,50.261,16.673,50.206,16.59,50.127z"/>
<path fill="#020202" d="M17.185,47.742c0.056,0.07,0.07,0.152,0.046,0.238c-0.031,0.103-0.172,0.181-0.29,0.146
	c-0.114-0.028-0.028-0.119-0.038-0.178c-0.005-0.025,0.005-0.054,0.007-0.076c0.007-0.063,0.014-0.134,0.024-0.203
	c0.005-0.043-0.01-0.063-0.055-0.063c-0.131-0.006-0.275,0.076-0.333,0.195c-0.093,0.184-0.038,0.402,0.128,0.521
	c0.177,0.111,0.414,0.068,0.553-0.084c0.13-0.149,0.142-0.42,0.023-0.563c-0.018-0.021-0.031-0.055-0.069-0.027
	C17.145,47.693,17.166,47.717,17.185,47.742z M16.733,48.104c-0.083-0.02-0.165-0.052-0.151-0.146c0.013-0.1,0.1-0.104,0.179-0.104
	c0.12,0.002,0.042,0.09,0.059,0.143C16.794,48.031,16.844,48.127,16.733,48.104z"/>
<path fill="#F04949" d="M21.388,48.718c-0.003,0.062-0.035,0.085-0.094,0.095c-0.094,0.021-0.188,0.047-0.281,0.071
	c-0.155,0.067-0.168,0.194-0.165,0.341c0,0.168-0.002,0.34-0.023,0.506c-0.015,0.108,0.023,0.162,0.125,0.197
	c0.088,0.03,0.178,0.059,0.264,0.094c0.085,0.03,0.134,0.09,0.117,0.188c-0.078,0.444-0.073,0.896,0,1.351
	c0.005,0.03-0.003,0.063-0.018,0.103c0.006,0.08-0.036,0.095-0.106,0.094c-0.315,0.015-0.63,0.011-0.942,0.039
	c-0.165,0.068-0.165,0.068-0.161,0.249c0.005,0.112,0.007,0.229,0.012,0.342c0.003,0.092,0.041,0.127,0.135,0.122
	c0.291-0.016,0.583-0.021,0.875-0.038c0.16-0.003,0.19,0.016,0.208,0.172c0.019,0.174,0.042,0.349,0.057,0.521
	c0.004,0.044,0.005,0.087-0.012,0.125c-0.004,0.065-0.04,0.093-0.108,0.095c-0.151,0.001-0.302,0.018-0.452,0.018
	c-0.387-0.008-0.769,0.021-1.154,0.033c-0.422,0.015-0.845,0.024-1.267,0.045c-0.118,0.008-0.141-0.037-0.149-0.139
	c-0.015-0.189-0.036-0.377-0.065-0.568c-0.017-0.104,0.002-0.17,0.127-0.162c0.269-0.07,0.545-0.041,0.816-0.063
	c0.09-0.008,0.158-0.022,0.188-0.122c-0.004-0.158-0.011-0.322-0.012-0.488c0-0.088-0.039-0.108-0.125-0.105
	c-0.291,0.016-0.583,0.021-0.874,0.036c-0.08,0.01-0.103-0.021-0.11-0.091c-0.02-0.213-0.042-0.42-0.075-0.629
	c-0.016-0.107,0.022-0.146,0.122-0.144c0.135-0.049,0.276-0.032,0.414-0.046c0.693-0.025,1.388-0.057,2.09-0.082
	c-0.071-0.035-0.154-0.043-0.201-0.111c-0.5-0.197-0.997-0.392-1.497-0.58c-0.24-0.096-0.48-0.188-0.723-0.274
	c-0.09-0.029-0.116-0.077-0.109-0.163c0.017-0.298,0.034-0.594,0.044-0.891c0.002-0.063,0.031-0.104,0.09-0.135
	c0.38-0.091,0.749-0.207,1.122-0.313c0.59-0.163,1.177-0.337,1.767-0.503c0.04-0.012,0.083-0.016,0.125-0.021
	c0.03,0.023,0.039,0.063,0.041,0.104c0.009,0.215,0.015,0.431,0.012,0.644C21.414,48.648,21.396,48.684,21.388,48.718z"/>
<path fill="#F04949" d="M21.832,45.54c-0.149-0.032-0.298-0.063-0.448-0.093c-0.101,0.025-0.18-0.063-0.274-0.063
	c-0.346-0.079-0.691-0.163-1.035-0.243c-0.395-0.093-0.79-0.181-1.187-0.268c-0.048-0.016-0.095-0.023-0.082-0.09
	c0.058-0.262,0.058-0.526,0.134-0.783c0.049,0.008,0.101,0.018,0.15,0.021c0.166-0.022,0.313,0.053,0.472,0.076
	c0.101,0.017,0.2,0.034,0.295,0.063c0.099,0.03,0.174,0.009,0.226-0.081c0.041-0.167,0.084-0.335,0.123-0.503
	c0.015-0.063-0.031-0.075-0.079-0.085c-0.288-0.063-0.575-0.139-0.863-0.196c-0.086-0.021-0.11-0.053-0.095-0.137
	c0.038-0.22,0.071-0.437,0.098-0.646c0.015-0.134,0.103-0.063,0.161-0.068c0.096-0.034,0.185,0.01,0.272,0.027
	c0.648,0.146,1.297,0.297,1.947,0.44c0.008,0.003,0.017,0.002,0.023-0.005c-0.054-0.063-0.149-0.084-0.176-0.178
	c-0.397-0.303-0.796-0.605-1.195-0.912c-0.182-0.137-0.362-0.276-0.547-0.41c-0.07-0.051-0.084-0.098-0.056-0.18
	c0.095-0.262,0.188-0.523,0.268-0.791c0.034-0.106,0.083-0.166,0.198-0.162c0.165-0.06,0.335-0.027,0.502-0.026
	c0.792-0.001,1.588,0.002,2.38,0.004c0.207,0.001,0.232,0.034,0.184,0.231c-0.042,0.164-0.087,0.326-0.133,0.49
	c-0.013,0.043-0.023,0.09-0.063,0.121c-0.022,0.098-0.083,0.118-0.177,0.105c-0.096-0.014-0.194-0.027-0.291-0.01
	c-0.104,0.031-0.148,0.106-0.18,0.207c-0.062,0.188-0.119,0.379-0.189,0.565c-0.036,0.097-0.015,0.162,0.071,0.218
	c0.092,0.057,0.178,0.108,0.26,0.183c0.063,0.05,0.077,0.108,0.046,0.181c-0.014,0.031-0.027,0.063-0.042,0.094
	c-0.122,0.256-0.204,0.521-0.217,0.807c-0.006,0.133-0.04,0.26-0.093,0.381c-0.008,0.124-0.074,0.133-0.179,0.104
	c-0.3-0.072-0.6-0.134-0.901-0.199c-0.11,0.002-0.166,0.063-0.185,0.168c-0.021,0.109-0.047,0.228-0.072,0.332
	c-0.032,0.143-0.021,0.158,0.12,0.193c0.25,0.063,0.501,0.117,0.754,0.172c0.211,0.045,0.237,0.074,0.212,0.291
	c-0.012,0.104-0.022,0.211-0.036,0.313c-0.009,0.063-0.015,0.126-0.067,0.171C21.855,45.434,21.844,45.486,21.832,45.54z"/>
<path fill="#F04949" d="M21.25,55.659c-0.211,0.181-0.456,0.304-0.713,0.401c-0.257,0.058-0.515,0.099-0.78,0.064
	c-0.768-0.084-1.333-0.563-1.53-1.313c-0.048-0.187-0.078-0.364-0.072-0.563c0.001-0.083,0.032-0.124,0.104-0.146
	c0.185-0.114,0.398-0.146,0.6-0.215c0.043-0.015,0.086-0.013,0.105,0.038c0.028,0.113,0.01,0.233,0.026,0.354
	c0.051,0.367,0.196,0.688,0.557,0.847c0.239,0.104,0.492,0.111,0.74,0.019c0.148-0.056,0.267-0.153,0.391-0.244
	c0.222-0.248,0.269-0.555,0.226-0.879c-0.022-0.149-0.079-0.293-0.128-0.438c0.076-0.005,0.152-0.008,0.229-0.012
	c0.18-0.063,0.367-0.027,0.551-0.027c0.065-0.001,0.098,0.063,0.117,0.119c0.196,0.624,0.183,1.224-0.214,1.769
	C21.398,55.525,21.313,55.584,21.25,55.659z"/>
<path fill="#F04949" d="M21.419,47.468c-0.469,0.451-1.023,0.595-1.655,0.476c-0.025-0.004-0.051-0.006-0.076-0.006
	c-0.247-0.078-0.488-0.166-0.696-0.328c-0.496-0.381-0.696-0.896-0.673-1.51c0.005-0.127,0.031-0.252,0.047-0.377
	c0.016-0.134,0.074-0.221,0.224-0.211c0.136-0.063,0.281-0.039,0.423-0.045c0.275-0.01,0.271-0.009,0.211,0.256
	c-0.046,0.2-0.06,0.402-0.019,0.604c0.106,0.521,0.548,0.758,1.031,0.715c0.117-0.01,0.234-0.037,0.345-0.078
	c0.285-0.147,0.434-0.394,0.503-0.692c0.042-0.188,0.046-0.387,0.012-0.58c0.064-0.047,0.121,0.029,0.183,0.02
	c0.211-0.005,0.406,0.063,0.601,0.139c0.052,0.021,0.064,0.074,0.066,0.133c0.016,0.476-0.058,0.928-0.343,1.32
	C21.552,47.363,21.487,47.417,21.419,47.468z"/>
<path fill="#F4F4F4" d="M20.856,46.1c-0.063,0.562-0.489,0.853-0.964,0.687c-0.211-0.076-0.349-0.228-0.404-0.438
	c-0.087-0.339,0.005-0.646,0.178-0.935c0.026-0.043,0.061-0.035,0.098-0.027c0.327,0.072,0.652,0.146,0.979,0.222
	c0.052,0.012,0.066,0.045,0.079,0.086C20.867,45.83,20.874,45.977,20.856,46.1z"/>
<path fill="#F4F4F4" d="M19.25,54.148c0.017-0.104,0.019-0.229,0.052-0.336c0.015-0.056,0.032-0.078,0.093-0.082
	c0.341-0.01,0.682-0.022,1.024-0.039c0.075-0.002,0.116,0.021,0.145,0.092c0.075,0.181,0.12,0.369,0.1,0.564
	c-0.043,0.404-0.358,0.668-0.768,0.641c-0.033-0.004-0.067-0.006-0.1-0.01c-0.16,0.021-0.262-0.078-0.352-0.187
	c-0.152-0.169-0.203-0.38-0.215-0.604C19.228,54.174,19.237,54.16,19.25,54.148z"/>
<path fill="#020202" d="M20.582,46.962c-0.569,0.365-1.368-0.048-1.434-0.744c-0.019-0.211,0-0.422,0.075-0.622
	c0.038-0.1,0.001-0.104-0.077-0.104c-0.187,0.009-0.372,0.014-0.557,0.019c0.046-0.095,0.143-0.09,0.221-0.095
	c0.155-0.008,0.308-0.043,0.465-0.014c0.096,0.018,0.125,0.053,0.106,0.152c-0.054,0.279-0.084,0.564,0.039,0.846
	c0.182,0.404,0.505,0.57,0.897,0.574C20.406,46.977,20.495,46.966,20.582,46.962z"/>
<path fill="#020202" d="M19.25,54.148c0.013,0.08,0.02,0.168,0.038,0.248c0.062,0.285,0.214,0.498,0.507,0.582
	c0.193,0.146,0.398,0.104,0.603,0.043c0.096-0.031,0.188-0.082,0.281-0.115c-0.091,0.137-0.21,0.217-0.363,0.266
	c-0.608,0.155-1.035-0.24-1.18-0.716c-0.041-0.134-0.063-0.276-0.066-0.408c0-0.063-0.003-0.147-0.113-0.114
	c-0.04-0.033-0.08-0.006-0.118,0.008c-0.195,0.063-0.388,0.113-0.581,0.177c0.088-0.134,0.208-0.198,0.36-0.229
	c0.109-0.021,0.214-0.076,0.32-0.109c0.142-0.049,0.189-0.021,0.253,0.119C19.233,53.971,19.222,54.063,19.25,54.148z"/>
<path fill="#020202" d="M20.541,50.744c0.11,0.037,0.221,0.079,0.331,0.119c-0.001,0.009-0.002,0.018-0.003,0.027
	c-0.175,0-0.352,0.014-0.527,0.021c-0.675,0.022-1.351,0.052-2.027,0.078c-0.025,0.002-0.051-0.007-0.076-0.007
	c0.12-0.172,0.307-0.143,0.472-0.146c0.55-0.016,1.101-0.021,1.65-0.063C20.419,50.771,20.495,50.833,20.541,50.744z"/>
<path fill="#020202" d="M19.312,52.417c0.027,0.106,0.003,0.155-0.12,0.158c-0.295,0-0.59,0.014-0.885,0.022
	c0.19-0.209,0.446-0.105,0.671-0.146C19.088,52.438,19.206,52.479,19.312,52.417z"/>
<path fill="#020202" d="M21.11,45.387c0.094,0.006,0.186,0.029,0.274,0.063c0.017,0.012,0.031,0.022,0.05,0.042
	c-0.096,0.018-0.199,0.023-0.222,0.148c-0.002,0.006-0.037,0.004-0.056,0.008c0.002-0.021-0.002-0.051,0.009-0.063
	C21.261,45.484,21.25,45.418,21.11,45.387z"/>
<path fill="#020202" d="M23.035,41.107c0.058-0.227,0.109-0.453,0.174-0.676c0.032-0.111-0.001-0.13-0.102-0.13
	c-0.935,0-1.869-0.003-2.803-0.006c-0.046,0-0.091-0.008-0.137-0.01c0.092-0.164,0.254-0.104,0.387-0.104
	c0.33,0.004,0.661-0.002,0.992-0.006c0.185,0,0.37-0.003,0.553,0.008c0.377,0.018,0.755-0.011,1.133,0
	c0.117,0.004,0.17,0.045,0.148,0.159c-0.04,0.232-0.095,0.46-0.178,0.683C23.169,41.105,23.105,41.109,23.035,41.107z"/>
<path fill="#020202" d="M22.224,43.828c0.052-0.438,0.089-0.876,0.308-1.27c0.044-0.078,0.038-0.129-0.042-0.182
	c-0.1-0.059-0.185-0.135-0.283-0.188c-0.077-0.047-0.092-0.101-0.062-0.183c0.084-0.235,0.167-0.47,0.239-0.708
	c0.032-0.105,0.086-0.136,0.183-0.104c-0.072,0.216-0.136,0.432-0.217,0.641c-0.046,0.118-0.004,0.196,0.081,0.27
	c0.067,0.053,0.136,0.101,0.205,0.146c0.088,0.063,0.119,0.144,0.061,0.25c-0.106,0.196-0.195,0.397-0.202,0.63
	c-0.005,0.189-0.059,0.373-0.091,0.563C22.387,43.797,22.323,43.838,22.224,43.828z"/>
<path fill="#020202" d="M21.871,45.376c0.024-0.183,0.041-0.367,0.076-0.55c0.025-0.12-0.023-0.151-0.127-0.176
	c-0.306-0.063-0.61-0.145-0.916-0.202c-0.088-0.019-0.1-0.056-0.08-0.132c0.037-0.152,0.073-0.31,0.105-0.457
	c0.036-0.174,0.034-0.176,0.215-0.125c-0.024,0.018-0.053,0.029-0.055,0.063c-0.004,0.104-0.04,0.205-0.06,0.313
	c-0.029,0.149,0.026,0.229,0.179,0.266c0.26,0.061,0.519,0.107,0.777,0.17c0.092,0.021,0.167,0.09,0.14,0.182
	c-0.057,0.184-0.035,0.375-0.082,0.559C22.017,45.391,21.985,45.415,21.871,45.376z"/>
<path fill="#020202" d="M21.498,42.741c0.098,0.069,0.198,0.142,0.297,0.212c-0.004,0.013-0.01,0.027-0.014,0.041
	c-0.783-0.182-1.566-0.362-2.351-0.545c0.08-0.094,0.167-0.1,0.291-0.075c0.352,0.063,0.694,0.17,1.044,0.237
	C21.01,42.659,21.248,42.73,21.498,42.741z"/>
<path fill="#020202" d="M20.085,44.09c-0.02,0.164-0.021,0.169-0.171,0.133c-0.273-0.063-0.553-0.104-0.822-0.193
	c0.045-0.104,0.112-0.114,0.223-0.092C19.569,43.993,19.817,44.086,20.085,44.09z"/>
<path fill="#020202" d="M21.313,51.648c-0.089-0.453-0.113-0.918-0.018-1.392c0.025-0.126,0-0.188-0.135-0.225
	c-0.102-0.021-0.198-0.07-0.301-0.103c-0.064-0.021-0.086-0.051-0.083-0.119c0.013-0.229,0.019-0.475,0.036-0.707
	c0.017-0.211-0.028-0.188,0.2-0.221c-0.035,0.24-0.06,0.485-0.06,0.737c0,0.116,0.044,0.202,0.168,0.233
	c0.004,0.002,0.008,0.002,0.012,0.002c0.354,0.104,0.419,0.227,0.306,0.576c-0.048,0.146-0.043,0.297-0.031,0.439
	c0.012,0.188,0.027,0.359,0.059,0.537C21.485,51.561,21.438,51.626,21.313,51.648z"/>
<path fill="#020202" d="M21.25,55.659c0.139-0.183,0.288-0.359,0.375-0.578c0.197-0.479,0.156-0.955,0.002-1.435
	c-0.02-0.063-0.059-0.069-0.117-0.065c-0.167,0.001-0.336-0.002-0.505-0.003c0.088-0.166,0.249-0.075,0.376-0.102
	c0.04-0.021,0.084,0.008,0.126,0.006c0.243-0.025,0.302,0.035,0.356,0.269c0.07,0.295,0.101,0.589,0.041,0.886
	C21.818,55.063,21.62,55.417,21.25,55.659z"/>
<path fill="#020202" d="M21.377,53.27c-0.049-0.222-0.058-0.451-0.082-0.666c-0.009-0.084-0.03-0.117-0.124-0.105
	c-0.324,0.021-0.651,0.021-0.975,0.041c-0.077,0.006-0.117-0.012-0.115-0.104c0.001-0.166,0.003-0.338-0.019-0.504
	c-0.02-0.146,0.044-0.16,0.153-0.15c0.018,0.006,0.034,0.008,0.051,0.01c-0.058,0.093-0.012,0.188-0.012,0.271
	c-0.003,0.063,0.013,0.105,0.015,0.147c0.004,0.181,0.07,0.235,0.247,0.22c0.268-0.023,0.534-0.029,0.803-0.021
	c0.087-0.004,0.134,0.041,0.145,0.121c0.029,0.188,0.059,0.371,0.078,0.563C21.547,53.204,21.438,53.218,21.377,53.27z"/>
<path fill="#020202" d="M21.419,47.468c0.377-0.42,0.51-0.92,0.491-1.473c-0.005-0.085-0.022-0.134-0.12-0.155
	c-0.173-0.035-0.342-0.091-0.511-0.136c0.058-0.104,0.136-0.119,0.246-0.078c0.122,0.047,0.25,0.079,0.376,0.106
	c0.127,0.021,0.187,0.105,0.187,0.224c0,0.354-0.042,0.705-0.22,1.022C21.757,47.175,21.656,47.384,21.419,47.468z"/>
<path fill="#020202" d="M21.388,48.718c-0.01-0.282-0.018-0.571-0.028-0.852c0.01-0.042,0.035-0.07,0.082-0.06
	c0.049,0.014,0.072,0.051,0.086,0.098c0.039,0.125-0.006,0.252,0.01,0.378c0.011,0.077,0.011,0.155,0.006,0.237
	C21.536,48.629,21.494,48.695,21.388,48.718z"/>
<path fill="#020202" d="M20.138,49.546c-0.001,0.033,0,0.065-0.002,0.103c-0.001,0.063-0.026,0.082-0.086,0.064
	c-0.331-0.102-0.663-0.199-0.994-0.301c-0.036-0.012-0.058-0.033-0.054-0.075c0.003-0.042,0.018-0.073,0.064-0.08
	c0.054-0.008,0.109-0.017,0.162-0.024c0.027-0.014,0.049-0.002,0.067,0.021c0.154,0.083,0.329,0.104,0.491,0.161
	c0.054,0.024,0.113,0.037,0.168,0.062C20.01,49.509,20.092,49.484,20.138,49.546z"/>
<path fill="#020202" d="M19.278,49.268c-0.01-0.021-0.032-0.021-0.053-0.021c0.282-0.072,0.573-0.121,0.857-0.18
	c0.06-0.015,0.088,0,0.082,0.072c-0.014,0.141,0.004,0.273-0.029,0.418c-0.063-0.021-0.14,0.008-0.195-0.043
	c0.009-0.021,0.033-0.043,0.039-0.063c0.02-0.082,0.029-0.18-0.021-0.242c-0.042-0.061-0.119-0.005-0.178,0.001
	c-0.121,0.017-0.236,0.063-0.357,0.082C19.376,49.283,19.326,49.305,19.278,49.268z"/>
<path fill="#020202" d="M21.608,41.555c-0.048,0.239-0.048,0.239-0.25,0.109c-0.241-0.155-0.483-0.311-0.722-0.467
	c-0.04-0.026-0.097-0.043-0.076-0.112c0.022-0.076,0.081-0.065,0.135-0.062c0.058,0.006,0.114,0.018,0.173,0.024
	c0.03,0.034-0.036,0.046-0.015,0.077c0.193,0.091,0.361,0.225,0.54,0.337C21.474,41.475,21.554,41.482,21.608,41.555z"/>
<path fill="#020202" d="M20.81,41.129c-0.034-0.009-0.057-0.023-0.01-0.047c0.023-0.012,0.059,0.002,0.07-0.035
	c0.271,0.021,0.542,0.042,0.815,0.063c0.068,0.006,0.074,0.041,0.055,0.094c-0.042,0.115-0.087,0.234-0.131,0.352
	c-0.075-0.019-0.145-0.06-0.226-0.056c0.006-0.062,0.03-0.114,0.044-0.171c0.033-0.11,0.016-0.131-0.095-0.152
	C21.16,41.145,20.98,41.173,20.81,41.129z"/>
<path fill="#020202" d="M18.958,53.927c0.018-0.021-0.008-0.077,0.046-0.071c0.049,0.013,0.081,0.045,0.093,0.098
	c0.023,0.104,0.009,0.225,0.034,0.336c0.085,0.386,0.263,0.693,0.656,0.836c0.168,0.061,0.349,0.077,0.529,0.048
	c-0.423,0.205-0.947,0.05-1.191-0.356C18.962,54.536,18.914,54.239,18.958,53.927z"/>
<path fill="#F0EFF0" d="M19.278,49.268c0.212-0.039,0.426-0.091,0.639-0.143c0.069-0.014,0.1-0.008,0.101,0.075
	c0.002,0.067,0.004,0.147,0.011,0.227c0.006,0.065-0.027,0.093-0.088,0.082c-0.19-0.054-0.381-0.11-0.57-0.171
	C19.337,49.314,19.286,49.327,19.278,49.268z"/>
<path fill="#EBECEC" d="M20.81,41.129c0.215-0.033,0.43,0.007,0.642,0.023c0.035,0.004,0.059,0.017,0.046,0.057
	c-0.031,0.1-0.03,0.211-0.114,0.291C21.198,41.366,21.01,41.236,20.81,41.129z"/>
<path fill="#020202" d="M21.63,48.43c0.157,0.004,0.316,0.006,0.473,0.012c0.044,0.002,0.088,0.021,0.132,0.031
	c0.009,0.002,0.019,0.021,0.028,0.008c0.042-0.008,0.084-0.013,0.13-0.039c-0.022-0.008-0.047-0.02-0.071-0.021
	c-0.057-0.009-0.113-0.017-0.168-0.021c-0.031-0.002-0.043-0.019-0.039-0.047c0.021-0.131,0.04-0.264,0.053-0.392
	c0.011-0.091,0.038-0.173,0.098-0.237c0.024-0.029,0.02-0.063,0.01-0.095c-0.042-0.133-0.043-0.271-0.016-0.399
	c0.029-0.145,0.083-0.271,0.182-0.369c0.091-0.096,0.208-0.15,0.345-0.159c0.04-0.005,0.079-0.005,0.121-0.007
	c-0.071-0.078-0.171-0.065-0.259-0.092c-0.052-0.02-0.105-0.031-0.159-0.045c-0.028-0.012-0.038-0.023-0.03-0.059
	c0.006-0.021,0.013-0.042,0.018-0.063c0.014-0.045-0.001-0.076-0.048-0.084c-0.076-0.019-0.154-0.021-0.228-0.039
	c-0.065-0.019-0.126-0.045-0.189-0.064c0.041-0.161,0.081-0.314,0.121-0.475c0.008-0.022,0.014-0.053,0.022-0.076
	c0.014-0.041,0.052-0.059,0.094-0.049c0.112,0.029,0.224,0.061,0.338,0.086c0.05,0.018,0.11,0.021,0.152,0.052
	c0.087,0.062,0.187,0.026,0.276,0.058c0.14,0.047,0.283,0.08,0.426,0.121c0.057,0.02,0.114,0.033,0.171,0.053
	c0.038,0.015,0.055-0.002,0.072-0.041c0.042-0.094-0.022-0.146-0.063-0.207c-0.005-0.012-0.041-0.008-0.057,0
	c-0.07,0.033-0.144,0.061-0.226,0.063c-0.146,0.013-0.347-0.094-0.418-0.229c-0.109-0.207-0.077-0.41-0.01-0.619
	c0.034-0.104,0.084-0.192,0.149-0.279c0.097-0.128,0.213-0.229,0.39-0.227c0.014-0.002,0.034-0.002,0.047,0.004
	c0.105,0.041,0.21,0.082,0.317,0.123c0.008,0.004,0.014,0.021,0.014,0.035c0.001,0.016-0.006,0.026-0.008,0.041
	c-0.003,0.03,0.002,0.049,0.039,0.031c0.13-0.053,0.26-0.046,0.384,0.01c0.116,0.051,0.203,0.141,0.251,0.26
	c0.08,0.201,0.05,0.396-0.027,0.59c-0.06,0.148-0.153,0.275-0.28,0.38c-0.018,0.014-0.03,0.028-0.054,0.056
	c0.03,0.016,0.051,0.021,0.073,0.025c0.049,0.018,0.058,0.035,0.041,0.085c-0.031,0.089-0.055,0.176-0.083,0.265
	c-0.035,0.116-0.07,0.232-0.184,0.303c-0.038,0.021-0.078,0.039-0.118,0.067c0.038,0.011,0.076,0.021,0.114,0.022
	c0.066,0.018,0.071,0.027,0.049,0.097c-0.016,0.048-0.022,0.099-0.036,0.146c-0.021,0.082-0.037,0.17-0.066,0.252
	c-0.06,0.164-0.202,0.248-0.387,0.213c-0.188-0.036-0.375-0.082-0.563-0.121c-0.13-0.022-0.174,0.027-0.138,0.156
	c0.032,0.109,0.12,0.164,0.226,0.187c0.154,0.024,0.312,0.046,0.463,0.069c0.08,0.018,0.159,0.031,0.238,0.045
	c0.029,0.011,0.047,0.021,0.042,0.061c-0.046,0.342-0.089,0.68-0.138,1.021c-0.014,0.104-0.07,0.187-0.171,0.24
	c-0.004,0.002-0.009,0.006-0.013,0.012c-0.002,0-0.002,0.006-0.01,0.021c0.028,0.009,0.053,0.021,0.078,0.021
	c0.084,0.009,0.087,0.009,0.084,0.095c-0.006,0.146-0.015,0.291-0.029,0.438c-0.01,0.104-0.11,0.196-0.208,0.225
	c-0.125,0.025-0.25,0.013-0.375,0.02c-0.128,0.01-0.252-0.007-0.381,0c-0.068,0-0.091,0.041-0.059,0.101
	c0.051,0.092,0.134,0.133,0.233,0.133c0.223,0.007,0.448-0.011,0.67-0.008c0.04-0.007,0.091-0.013,0.114,0
	c0.021,0.021,0.011,0.069,0.012,0.104c0.003,0.146,0.009,0.281,0.012,0.434c0,0.063-0.011,0.063-0.07,0.063
	c-0.16,0.004-0.318,0.02-0.478,0.021c-0.122,0.012-0.243,0.018-0.364,0.021c-0.032,0.003-0.066,0.017-0.093,0.025
	c-0.013,0.006-0.021,0.041-0.015,0.057c0.017,0.063,0.063,0.104,0.119,0.125c0.077,0.029,0.158,0.027,0.238,0.021
	c0.076-0.012,0.149-0.019,0.228-0.026c0.128-0.008,0.258-0.022,0.391-0.03c0.074-0.008,0.073-0.002,0.077,0.071
	c0.005,0.069,0.018,0.146,0.024,0.226c0.01,0.088,0.014,0.18,0.018,0.271c0.002,0.022-0.009,0.044-0.041,0.05
	c-0.159,0.016-0.318,0.027-0.478,0.051c-0.135,0.019-0.271,0.033-0.407,0.057c-0.074,0.015-0.095,0.048-0.078,0.127
	c0.013,0.06,0.012,0.058-0.046,0.06c-0.152,0.021-0.303,0.044-0.454,0.065c-0.035,0.011-0.056,0.003-0.063-0.032
	c-0.01-0.054-0.018-0.104-0.024-0.149c-0.012-0.104-0.026-0.218-0.033-0.318c-0.002-0.041,0.014-0.086,0.028-0.123
	c0.02-0.059,0.024-0.102-0.007-0.146c-0.095-0.158-0.117-0.33-0.082-0.513c0.015-0.082,0.04-0.159,0.095-0.226
	c0.018-0.021,0.017-0.049-0.002-0.063c-0.08-0.112-0.122-0.241-0.131-0.372c-0.008-0.104,0.004-0.229,0.048-0.337
	c0.041-0.099,0.096-0.181,0.181-0.241c0.076-0.057,0.158-0.088,0.253-0.102c0.01-0.002,0.019-0.004,0.027-0.01
	c0.003-0.002,0.006-0.008,0.017-0.021c-0.032-0.008-0.058-0.021-0.085-0.021c-0.104-0.006-0.205-0.014-0.307-0.014
	c-0.073,0-0.085-0.008-0.081-0.076c0.008-0.104,0.008-0.104-0.096-0.113c-0.126-0.008-0.252-0.021-0.379-0.032
	C21.584,48.832,21.607,48.63,21.63,48.43z M22.294,51.257c-0.03,0.036-0.069,0.066-0.08,0.104c-0.015,0.056-0.015,0.115-0.012,0.172
	c0.004,0.074,0.019,0.15,0.024,0.225c0.002,0.061,0.009,0.068,0.064,0.071c0.073-0.013,0.147-0.019,0.22-0.037
	c0.024-0.005,0.042-0.017,0.036-0.054c-0.005-0.028-0.006-0.059-0.01-0.088c-0.004-0.023,0.007-0.037,0.029-0.039
	c0.074-0.012,0.148-0.021,0.22-0.03c0.24-0.03,0.482-0.058,0.723-0.087c0.034-0.002,0.048-0.018,0.044-0.051
	c-0.008-0.064-0.015-0.123-0.018-0.192c-0.009-0.117-0.026-0.131-0.146-0.12c-0.083,0.012-0.169,0.018-0.254,0.031
	c-0.085,0.014-0.172,0.014-0.258,0.031c-0.131,0.01-0.241-0.039-0.337-0.117c-0.062-0.053-0.08-0.129-0.087-0.202
	c-0.005-0.063,0.02-0.106,0.072-0.134c0.083-0.049,0.169-0.042,0.254-0.04c0.09-0.009,0.182-0.007,0.272-0.011
	c0.125-0.006,0.25-0.02,0.374-0.021c0.049-0.001,0.064-0.012,0.063-0.063c-0.001-0.086-0.004-0.168-0.007-0.254
	c-0.001-0.031-0.017-0.058-0.052-0.056c-0.083,0.015-0.167,0.002-0.25,0.009c-0.09,0.01-0.179,0-0.268,0.01
	c-0.128,0.015-0.242-0.004-0.35-0.078c-0.088-0.067-0.151-0.166-0.126-0.287c0.009-0.045,0.027-0.084,0.073-0.098
	c0.056-0.021,0.113-0.027,0.17-0.033c0.206,0.002,0.415,0.004,0.621,0.009c0.1-0.001,0.177-0.066,0.185-0.17
	c0.008-0.101,0.007-0.194,0.011-0.3c0-0.034-0.022-0.049-0.056-0.049c-0.042,0.002-0.086,0.002-0.13,0.002
	c-0.12-0.016-0.12-0.016-0.133,0.104c-0.003,0.029-0.014,0.048-0.047,0.046c-0.156-0.008-0.311-0.017-0.464-0.022
	c-0.069,0.002-0.14,0.002-0.205,0.02c-0.061,0.018-0.125,0.039-0.175,0.064c-0.1,0.065-0.152,0.164-0.173,0.285
	c-0.023,0.151-0.024,0.303,0.061,0.439c0.028,0.053,0.069,0.093,0.102,0.143c0.012,0.021,0.039,0.029,0.008,0.063
	c-0.067,0.051-0.108,0.108-0.134,0.188c-0.059,0.172-0.032,0.325,0.045,0.479C22.22,51.162,22.261,51.21,22.294,51.257z
	 M22.979,48.199c0.21,0.029,0.386,0.059,0.563,0.087c0.037,0.004,0.064-0.015,0.071-0.054c0.012-0.086,0.022-0.176,0.034-0.262
	c0.003-0.031-0.007-0.051-0.039-0.057c-0.192-0.023-0.383-0.063-0.574-0.098c-0.037-0.008-0.072-0.01-0.106-0.021
	c-0.154-0.063-0.249-0.179-0.244-0.354c0.002-0.072,0.003-0.153,0.077-0.2c0.066-0.043,0.14-0.035,0.212-0.021
	c0.034,0.006,0.065,0.021,0.1,0.024c0.122,0.022,0.245,0.05,0.367,0.073c0.048,0.011,0.097,0.02,0.146,0.024
	c0.086,0.011,0.153-0.021,0.183-0.104c0.041-0.104,0.067-0.224,0.097-0.332c0.002-0.015-0.018-0.043-0.032-0.048
	c-0.061-0.021-0.124-0.039-0.189-0.061c-0.07-0.02-0.083-0.009-0.101,0.063c-0.022,0.087-0.022,0.087-0.104,0.063
	c-0.008-0.002-0.016-0.004-0.021-0.004c-0.073-0.019-0.146-0.032-0.22-0.049c-0.118-0.021-0.233-0.044-0.351-0.063
	c-0.067-0.017-0.13,0.008-0.192,0.027c-0.146,0.057-0.22,0.176-0.26,0.313c-0.053,0.182-0.067,0.365,0.034,0.541
	c0.01,0.021,0.014,0.035-0.01,0.047c-0.1,0.043-0.125,0.135-0.147,0.228c-0.018,0.074-0.021,0.147-0.03,0.229
	c-0.006,0.054,0.004,0.063,0.056,0.067c0.069,0.013,0.14,0.021,0.208,0.022c0.047,0.005,0.059-0.008,0.061-0.055
	c0-0.021,0.007-0.035,0.007-0.063c-0.004-0.053,0.024-0.055,0.065-0.048C22.762,48.175,22.888,48.188,22.979,48.199z M24.394,45.322
	c0.03-0.156-0.033-0.348-0.145-0.432c-0.107-0.08-0.295-0.104-0.416-0.023c-0.103,0.068-0.185,0.16-0.265,0.251
	c-0.053,0.058-0.107,0.116-0.159,0.175c-0.025,0.025-0.063,0.034-0.087,0.012c-0.02-0.017-0.032-0.048-0.032-0.072
	c0.001-0.07,0.026-0.146,0.072-0.207c0.028-0.031,0.059-0.039,0.097-0.021c0.05,0.022,0.075,0.013,0.095-0.038
	c0.016-0.041,0.031-0.081,0.046-0.119c0.017-0.041,0.034-0.08,0.048-0.121c0.011-0.023,0.006-0.047-0.03-0.057
	c-0.026-0.005-0.051-0.02-0.075-0.029c-0.11-0.054-0.214-0.039-0.305,0.045c-0.09,0.082-0.153,0.184-0.2,0.291
	c-0.043,0.106-0.075,0.215-0.075,0.332c-0.001,0.166,0.052,0.299,0.212,0.373c0.118,0.055,0.226,0.032,0.331-0.029
	c0.112-0.063,0.189-0.168,0.277-0.262c0.061-0.063,0.124-0.125,0.188-0.184c0.026-0.023,0.09-0.05,0.107-0.02
	c0.017,0.033,0.004,0.104-0.005,0.138c-0.022,0.065-0.055,0.134-0.097,0.188c-0.051,0.064-0.127,0.108-0.207,0.146
	c-0.042,0.021-0.047,0.039-0.024,0.075c0.032,0.058,0.066,0.104,0.097,0.156c0.036,0.063,0.057,0.069,0.122,0.036
	c0.102-0.053,0.183-0.125,0.254-0.215C24.312,45.604,24.367,45.471,24.394,45.322z M22.957,45.971
	c-0.125-0.021-0.184-0.021-0.242,0.096c-0.042,0.084-0.065,0.187-0.096,0.272c-0.009,0.028-0.017,0.062-0.017,0.093
	c0,0.021,0.016,0.041,0.03,0.045c0.066,0.021,0.137,0.039,0.206,0.063c0.056,0.013,0.067,0.002,0.078-0.061
	c0.019-0.104,0.019-0.104,0.125-0.082c0.01,0.002,0.018,0.004,0.025,0.006c0.116,0.033,0.231,0.068,0.349,0.104
	c0.106,0.022,0.212,0.056,0.319,0.079c0.147,0.039,0.229-0.021,0.264-0.146c0.023-0.082,0.049-0.162,0.077-0.24
	c0.011-0.034,0.005-0.053-0.031-0.063c-0.067-0.021-0.133-0.04-0.199-0.063c-0.04-0.014-0.06-0.012-0.076,0.027
	c-0.008,0.021-0.015,0.039-0.017,0.062c-0.002,0.036-0.023,0.053-0.057,0.041c-0.061-0.021-0.119-0.036-0.179-0.058
	c-0.103-0.029-0.203-0.063-0.304-0.093C23.116,46.016,23.017,45.988,22.957,45.971z M22.785,48.615
	c-0.001,0.008-0.002,0.021-0.002,0.021c-0.129-0.016-0.259-0.03-0.387-0.044c-0.099-0.011-0.169,0.024-0.188,0.122
	c-0.028,0.127-0.031,0.261-0.044,0.396c-0.003,0.022,0.019,0.033,0.047,0.035c0.076,0,0.152,0,0.227,0.004
	c0.028,0,0.042-0.018,0.042-0.043c0-0.021,0.003-0.058,0.005-0.084c0.001-0.025,0.016-0.041,0.046-0.039
	c0.261,0.021,0.521,0.041,0.78,0.063c0.146,0.007,0.202-0.05,0.225-0.187c0.016-0.086,0.019-0.174,0.027-0.262
	c0.003-0.037-0.009-0.063-0.046-0.063c-0.052-0.013-0.106-0.021-0.161-0.021c-0.101-0.015-0.105-0.009-0.115,0.094
	c0,0.004-0.001,0.012-0.002,0.021c-0.001,0.022-0.019,0.039-0.047,0.036C23.054,48.646,22.917,48.631,22.785,48.615z M22.173,46.12
	c-0.008,0.045,0,0.058,0.056,0.069c0.074,0.02,0.146,0.039,0.22,0.059c0.049,0.014,0.066,0.008,0.083-0.038
	c0.026-0.087,0.05-0.173,0.076-0.261c0.009-0.032-0.001-0.057-0.036-0.066c-0.076-0.021-0.151-0.043-0.226-0.068
	c-0.055-0.02-0.08-0.013-0.097,0.043C22.223,45.939,22.201,46.025,22.173,46.12z M21.9,48.564v0.002
	c-0.045-0.004-0.093-0.01-0.138-0.021c-0.027-0.001-0.046,0.013-0.048,0.04c-0.011,0.102-0.021,0.195-0.03,0.293
	c-0.003,0.027,0.008,0.051,0.038,0.053c0.09,0.008,0.179,0.016,0.269,0.021c0.039,0.002,0.06-0.019,0.063-0.06
	c0.001-0.022-0.003-0.055-0.002-0.076c0.003-0.063,0.01-0.123,0.016-0.188c0.002-0.032-0.01-0.054-0.047-0.056
	C21.979,48.577,21.938,48.57,21.9,48.564z M23.397,46.794c0.036,0.013,0.051,0,0.057-0.037c0.005-0.021,0.012-0.046,0.019-0.069
	c0.011-0.035-0.003-0.054-0.04-0.062c-0.106-0.028-0.209-0.058-0.313-0.09c-0.065-0.017-0.083-0.007-0.095,0.062
	c-0.004,0.025-0.012,0.053-0.01,0.08c0,0.012,0.017,0.037,0.029,0.04C23.162,46.746,23.278,46.77,23.397,46.794z M22.932,49.129
	c0-0.001,0-0.003,0-0.003c-0.085-0.003-0.171-0.007-0.256-0.008c-0.051,0.001-0.062,0.012-0.061,0.058c0,0.024,0,0.059-0.001,0.074
	c-0.002,0.025,0.014,0.045,0.042,0.044c0.122-0.004,0.243,0.008,0.362,0.009c0.032,0.002,0.047-0.015,0.046-0.039
	c0-0.043,0.034-0.09-0.013-0.125c-0.006-0.007-0.019-0.005-0.031-0.007C22.99,49.136,22.961,49.132,22.932,49.129z M22.924,48.318
	L22.924,48.318c-0.035-0.006-0.067-0.012-0.103-0.014c-0.146-0.02-0.122-0.027-0.14,0.11c-0.004,0.038,0.01,0.058,0.044,0.06
	c0.093,0.01,0.186,0.021,0.277,0.025c0.135,0.02,0.116,0.021,0.139-0.104c0.007-0.049,0.001-0.063-0.045-0.063
	C23.041,48.332,22.982,48.325,22.924,48.318z"/>
<path fill="#F4F4F4" d="M22.294,51.257c-0.034-0.047-0.075-0.095-0.104-0.149c-0.076-0.146-0.103-0.31-0.046-0.479
	c0.029-0.078,0.068-0.145,0.134-0.191c0.03-0.021,0.005-0.041-0.008-0.057c-0.033-0.048-0.073-0.092-0.102-0.141
	c-0.084-0.139-0.084-0.284-0.06-0.439c0.02-0.121,0.073-0.223,0.173-0.289c0.051-0.033,0.112-0.051,0.175-0.07
	c0.065-0.012,0.136-0.006,0.204-0.014c0.155,0.002,0.309,0.016,0.465,0.027c0.034-0.007,0.044-0.018,0.048-0.051
	c0.012-0.108,0.012-0.108,0.133-0.107c0.042,0.003,0.087,0.003,0.129,0.002c0.034,0,0.055,0.016,0.055,0.049
	c-0.004,0.106-0.003,0.194-0.011,0.301c-0.008,0.104-0.085,0.179-0.185,0.168c-0.206-0.002-0.414-0.004-0.62-0.008
	c-0.057,0.006-0.114,0.012-0.17,0.037c-0.045,0.01-0.062,0.051-0.073,0.096c-0.025,0.121,0.037,0.229,0.125,0.291
	c0.106,0.076,0.222,0.095,0.35,0.08c0.089-0.012,0.178-0.006,0.268-0.012c0.083-0.007,0.167-0.002,0.25-0.004
	c0.035,0,0.051,0.016,0.052,0.053c0.003,0.082,0.005,0.166,0.007,0.254c0.001,0.058-0.012,0.063-0.062,0.062
	c-0.125,0.007-0.25,0.021-0.374,0.021c-0.091,0.008-0.182,0.002-0.273,0.013c-0.086,0.01-0.173,0.003-0.253,0.034
	c-0.051,0.022-0.078,0.07-0.073,0.142c0.009,0.069,0.026,0.149,0.088,0.199c0.095,0.087,0.206,0.136,0.337,0.116
	c0.085-0.014,0.172-0.017,0.257-0.021c0.085-0.011,0.17-0.016,0.254-0.027c0.122-0.017,0.139-0.009,0.146,0.116
	c0.003,0.063,0.011,0.121,0.019,0.188c0.004,0.033-0.011,0.054-0.045,0.059c-0.24,0.027-0.482,0.055-0.723,0.086
	c-0.074,0.014-0.146,0.021-0.22,0.031c-0.022,0.005-0.035,0.021-0.029,0.04c0.005,0.024,0.004,0.063,0.01,0.09
	c0.004,0.028-0.012,0.052-0.036,0.058c-0.072,0.017-0.147,0.021-0.22,0.032c-0.056,0.007-0.061-0.019-0.065-0.065
	c-0.006-0.066-0.019-0.148-0.023-0.229c-0.003-0.061-0.006-0.111,0.012-0.172C22.226,51.323,22.265,51.293,22.294,51.257z"/>
<path fill="#F4F4F4" d="M22.979,48.199c-0.092-0.012-0.218-0.024-0.344-0.04c-0.041-0.007-0.068-0.005-0.064,0.047
	c0,0.021-0.007,0.039-0.007,0.06c-0.003,0.053-0.014,0.063-0.062,0.063c-0.07-0.014-0.14-0.021-0.209-0.023
	c-0.052-0.007-0.062-0.021-0.056-0.066c0.009-0.076,0.014-0.15,0.031-0.229c0.02-0.09,0.047-0.185,0.147-0.226
	c0.024-0.012,0.022-0.028,0.01-0.047c-0.101-0.178-0.087-0.361-0.034-0.541c0.04-0.139,0.114-0.256,0.26-0.313
	c0.062-0.021,0.125-0.044,0.192-0.026c0.118,0.021,0.233,0.041,0.352,0.063c0.072,0.015,0.145,0.029,0.22,0.047
	c0.006,0.001,0.014,0.002,0.021,0.005c0.082,0.021,0.082,0.021,0.104-0.063c0.018-0.063,0.031-0.072,0.101-0.059
	c0.065,0.019,0.128,0.032,0.189,0.057c0.014,0.005,0.035,0.033,0.032,0.049c-0.03,0.111-0.055,0.229-0.096,0.331
	c-0.029,0.082-0.097,0.11-0.183,0.104c-0.049-0.007-0.098-0.019-0.146-0.024c-0.122-0.021-0.245-0.05-0.367-0.07
	c-0.035-0.009-0.066-0.021-0.1-0.022c-0.072-0.021-0.146-0.027-0.212,0.016c-0.073,0.048-0.075,0.129-0.077,0.203
	c-0.004,0.176,0.091,0.287,0.244,0.354c0.034,0.016,0.069,0.019,0.105,0.021c0.19,0.029,0.382,0.063,0.574,0.097
	c0.032,0.007,0.042,0.021,0.038,0.052c-0.012,0.086-0.022,0.176-0.035,0.269c-0.006,0.034-0.031,0.055-0.07,0.051
	C23.367,48.258,23.191,48.229,22.979,48.199z"/>
<path fill="#F4F4F4" d="M24.394,45.322c-0.027,0.148-0.082,0.283-0.174,0.402c-0.072,0.09-0.155,0.157-0.255,0.215
	c-0.066,0.033-0.085,0.021-0.123-0.039c-0.031-0.053-0.065-0.104-0.097-0.157c-0.023-0.036-0.017-0.06,0.024-0.076
	c0.081-0.036,0.157-0.081,0.208-0.151c0.042-0.055,0.077-0.119,0.094-0.188c0.045-0.165-0.074-0.143-0.102-0.119
	c-0.064,0.061-0.128,0.119-0.187,0.186c-0.087,0.099-0.166,0.194-0.278,0.267c-0.105,0.063-0.214,0.085-0.33,0.022
	c-0.162-0.074-0.214-0.207-0.213-0.373c0.001-0.117,0.031-0.225,0.075-0.332c0.046-0.106,0.109-0.211,0.2-0.289
	c0.091-0.084,0.196-0.1,0.305-0.045c0.024,0.017,0.05,0.022,0.076,0.028c0.034,0.009,0.04,0.026,0.029,0.058
	c-0.015,0.041-0.031,0.08-0.047,0.119c-0.015,0.041-0.029,0.082-0.045,0.121c-0.02,0.051-0.047,0.063-0.096,0.037
	c-0.039-0.02-0.07-0.016-0.098,0.021c-0.046,0.062-0.071,0.132-0.071,0.207c0,0.021,0.013,0.056,0.031,0.072
	c0.027,0.021,0.063,0.016,0.088-0.018c0.054-0.063,0.106-0.111,0.16-0.175c0.082-0.097,0.163-0.187,0.265-0.25
	c0.119-0.081,0.309-0.062,0.414,0.021C24.361,44.975,24.424,45.167,24.394,45.322z"/>
<path fill="#F4F4F4" d="M22.957,45.971c0.061,0.016,0.16,0.045,0.259,0.072c0.101,0.027,0.202,0.061,0.302,0.09
	c0.061,0.02,0.12,0.038,0.18,0.057c0.035,0.015,0.054-0.004,0.058-0.041c0.002-0.02,0.007-0.041,0.016-0.059
	c0.016-0.04,0.035-0.043,0.077-0.027c0.064,0.023,0.13,0.045,0.199,0.065c0.035,0.013,0.041,0.028,0.03,0.063
	c-0.029,0.078-0.055,0.158-0.077,0.24c-0.034,0.127-0.116,0.188-0.263,0.146c-0.107-0.027-0.214-0.054-0.32-0.079
	c-0.117-0.033-0.232-0.063-0.348-0.104c-0.009-0.002-0.017-0.004-0.026-0.006c-0.106-0.022-0.106-0.022-0.126,0.082
	c-0.009,0.061-0.022,0.065-0.078,0.057c-0.067-0.021-0.138-0.033-0.206-0.061c-0.013-0.004-0.028-0.027-0.028-0.045
	c0-0.029,0.007-0.063,0.017-0.093c0.029-0.093,0.051-0.188,0.095-0.271C22.771,45.947,22.831,45.949,22.957,45.971z"/>
<path fill="#F4F4F4" d="M22.785,48.615c0.135,0.016,0.269,0.031,0.405,0.047c0.029,0.003,0.044-0.008,0.047-0.036
	c0-0.006,0.001-0.011,0.002-0.017c0.008-0.104,0.012-0.106,0.115-0.096c0.052,0.006,0.106,0.016,0.161,0.021
	c0.037,0.005,0.048,0.024,0.045,0.067c-0.009,0.088-0.011,0.178-0.027,0.268c-0.023,0.133-0.081,0.188-0.225,0.178
	c-0.261-0.007-0.519-0.035-0.78-0.058c-0.031-0.005-0.044,0.011-0.047,0.036c0,0.021-0.005,0.063-0.005,0.086
	c0,0.021-0.013,0.043-0.04,0.041c-0.077,0.002-0.152,0.005-0.228-0.004c-0.028-0.002-0.05-0.012-0.047-0.037
	c0.012-0.137,0.016-0.271,0.043-0.396c0.021-0.104,0.091-0.138,0.19-0.127c0.128,0.016,0.258,0.028,0.386,0.045
	C22.783,48.63,22.784,48.623,22.785,48.615z"/>
<path fill="#F4F4F4" d="M22.173,46.12c0.027-0.095,0.048-0.181,0.074-0.265c0.018-0.06,0.044-0.063,0.099-0.041
	c0.074,0.021,0.15,0.047,0.225,0.063c0.035,0.016,0.044,0.033,0.036,0.063c-0.025,0.092-0.05,0.178-0.076,0.265
	c-0.016,0.046-0.034,0.052-0.083,0.038c-0.073-0.021-0.145-0.039-0.219-0.063C22.173,46.178,22.166,46.165,22.173,46.12z"/>
<path fill="#F4F4F4" d="M21.9,48.564c0.039,0.006,0.079,0.013,0.121,0.014c0.037,0.002,0.048,0.021,0.046,0.056
	c-0.005,0.062-0.01,0.125-0.016,0.187c-0.001,0.025,0.004,0.058,0.003,0.076c-0.002,0.041-0.023,0.063-0.063,0.063
	c-0.089-0.007-0.178-0.019-0.267-0.021c-0.03,0-0.041-0.021-0.038-0.049c0.009-0.1,0.019-0.195,0.028-0.293
	c0.004-0.031,0.022-0.041,0.048-0.039c0.047,0.006,0.093,0.012,0.139,0.02C21.899,48.566,21.9,48.564,21.9,48.564z"/>
<g>
	
		<path fill="#BCBCBC" stroke="#020202" stroke-width="0.15" stroke-linecap="round" stroke-linejoin="round" stroke-miterlimit="10" d="
		M27.168,25.65l0.634-0.363l-0.707-0.417l0.498-0.82l-0.332-0.017c0.12-0.164,0.248-0.396,0.26-0.65
		c0.01-0.203-0.055-0.389-0.196-0.552c-0.175-0.205-0.396-0.315-0.652-0.328c-0.058-0.003-0.113,0.001-0.167,0.005l0,0
		c-0.463-0.434-1.03-0.072-1.03-0.072l0.024,0.02c-0.044-0.008-0.09-0.016-0.137-0.018c-0.257-0.013-0.486,0.076-0.682,0.262
		c-0.157,0.15-0.244,0.332-0.25,0.541c-0.012,0.251,0.092,0.49,0.193,0.662l-0.47-0.023l0.414,0.866l-0.746,0.345l0.596,0.426
		l-0.491,0.703l0.779,0.024l-0.081,0.868l0.717-0.412l0.353,0.787l0.43-0.748l0.672,0.482l0.006-0.873l0.778,0.055L27.168,25.65z
		 M27.018,23.341c0-0.108-0.022-0.212-0.068-0.31c-0.004-0.01-0.01-0.021-0.016-0.031c-0.024-0.045-0.053-0.09-0.089-0.133
		c0.03,0.01,0.059,0.021,0.087,0.035c0.199,0.097,0.295,0.275,0.271,0.502c-0.002,0.025-0.007,0.051-0.013,0.078
		c-0.006,0.026-0.013,0.053-0.021,0.08c-0.017,0.053-0.041,0.107-0.069,0.16c-0.015,0.028-0.029,0.055-0.046,0.082
		c-0.044,0.068-0.096,0.133-0.156,0.193l-0.009,0.01l-0.005,0.008l-0.125-0.006c0.009-0.012,0.015-0.021,0.024-0.033
		c0.028-0.041,0.056-0.082,0.08-0.125c0.023-0.039,0.043-0.08,0.062-0.117c0.003-0.008,0.008-0.018,0.011-0.026
		c0.006-0.019,0.014-0.035,0.021-0.052c0.003-0.01,0.006-0.018,0.009-0.027c0.005-0.018,0.012-0.035,0.018-0.054
		c0.002-0.011,0.005-0.019,0.007-0.028c0.006-0.027,0.013-0.057,0.018-0.085C27.015,23.42,27.018,23.379,27.018,23.341z
		 M25.237,23.284v-0.003c0,0,0-0.012,0-0.016s0-0.009,0.001-0.012l0.001-0.01c0-0.003,0-0.005,0-0.008
		c0.001-0.006,0.002-0.012,0.005-0.021c0-0.005,0.001-0.01,0.003-0.015c0.001-0.006,0.004-0.016,0.005-0.021l0.005-0.014
		c0.002-0.004,0.003-0.008,0.004-0.014c0.001-0.002,0.005-0.014,0.005-0.014c0.001-0.005,0.002-0.008,0.006-0.014
		c0.001-0.002,0.002-0.005,0.004-0.007l0.001-0.003c0.002-0.004,0.004-0.01,0.007-0.016c0.001-0.002,0.002-0.006,0.006-0.01
		c0.002-0.005,0.004-0.009,0.009-0.014c0.002-0.003,0.004-0.008,0.007-0.012c0.002-0.002,0.005-0.006,0.009-0.012
		c0.002-0.003,0.006-0.006,0.009-0.009c0.002-0.005,0.006-0.008,0.01-0.013c0.003-0.004,0.006-0.006,0.01-0.01
		c0.003-0.004,0.007-0.008,0.011-0.013c0.003-0.004,0.006-0.005,0.011-0.009c0.004-0.003,0.009-0.006,0.013-0.011l0.001-0.001
		c0.003-0.004,0.006-0.006,0.009-0.008c0.005-0.004,0.01-0.006,0.017-0.01c0,0,0.008-0.007,0.012-0.009s0.01-0.006,0.018-0.01
		c0,0,0.01-0.007,0.012-0.009c0.006-0.002,0.014-0.006,0.021-0.008l0.011-0.008c0.011-0.004,0.022-0.009,0.035-0.014
		c0.036-0.014,0.075-0.018,0.117-0.016c0.033,0,0.069,0.006,0.109,0.019c0.025,0.008,0.051,0.017,0.076,0.024
		c0.005,0.043,0.01,0.082,0.012,0.121c0.002,0.041,0.002,0.08,0.001,0.113c-0.008,0.135-0.057,0.52-0.091,0.783l-0.261-0.014
		c-0.001-0.008-0.004-0.014-0.006-0.021l-0.004-0.012l-0.008-0.011c-0.023-0.03-0.048-0.065-0.071-0.101
		c-0.005-0.007-0.01-0.014-0.014-0.021l-0.009-0.018c-0.005-0.006-0.01-0.014-0.013-0.021l-0.01-0.017
		c-0.003-0.006-0.008-0.016-0.011-0.022l-0.002-0.003c-0.017-0.031-0.03-0.063-0.043-0.094l-0.004-0.012
		c-0.003-0.007-0.005-0.013-0.007-0.019l-0.007-0.021c-0.002-0.006-0.003-0.013-0.006-0.021l-0.005-0.016
		c-0.001-0.006-0.003-0.014-0.005-0.021c0-0.006-0.003-0.011-0.004-0.017s-0.003-0.012-0.004-0.019c0-0.005-0.001-0.01-0.002-0.016
		c-0.002-0.007-0.002-0.013-0.004-0.021c-0.001-0.005-0.002-0.011-0.003-0.016c0-0.005-0.001-0.012-0.002-0.02
		c0-0.006,0-0.011,0-0.016c-0.002-0.006-0.001-0.011-0.002-0.018c0-0.004,0-0.01-0.001-0.019c0-0.005,0-0.009,0-0.014
		c0-0.007,0-0.011,0.001-0.019v-0.002c0-0.005,0-0.009,0-0.013C25.234,23.291,25.237,23.288,25.237,23.284z M25.002,23.911
		L24.995,23.9c-0.196-0.246-0.284-0.539-0.228-0.766c0.039-0.154,0.144-0.269,0.304-0.326c0.029-0.013,0.06-0.02,0.09-0.027
		c-0.139,0.14-0.214,0.308-0.221,0.498c-0.011,0.246,0.094,0.482,0.192,0.646l-0.125-0.006L25.002,23.911z M26.146,23.979
		c-0.008-0.267-0.018-0.652-0.013-0.789c0.002-0.033,0.006-0.071,0.012-0.111c0.007-0.039,0.015-0.078,0.026-0.119
		c0.034-0.008,0.069-0.018,0.104-0.021c0.029-0.004,0.055-0.004,0.081-0.004c0.044,0.002,0.082,0.012,0.116,0.028
		c0.011,0.005,0.023,0.013,0.034,0.017l0.01,0.008c0.007,0.004,0.014,0.009,0.021,0.012c0.002,0.002,0.012,0.009,0.012,0.009
		c0.006,0.003,0.011,0.009,0.017,0.011c0.003,0.002,0.005,0.004,0.007,0.006l0.003,0.002c0.004,0.004,0.01,0.008,0.015,0.013
		c0.003,0.002,0.005,0.004,0.009,0.009c0.004,0.004,0.009,0.008,0.013,0.012c0.002,0.004,0.006,0.008,0.01,0.01
		c0.003,0.005,0.007,0.01,0.01,0.014c0.003,0.003,0.006,0.007,0.008,0.011c0.004,0.005,0.007,0.009,0.01,0.015
		c0.003,0.002,0.004,0.007,0.008,0.01c0.003,0.004,0.005,0.009,0.008,0.013c0.002,0.004,0.004,0.009,0.006,0.013
		c0.001,0.004,0.004,0.008,0.009,0.017c0,0.003,0.002,0.006,0.004,0.009c0.001,0.005,0.003,0.009,0.006,0.016
		c0,0,0.003,0.01,0.004,0.012c0.001,0.005,0.002,0.009,0.005,0.017c0,0,0.003,0.009,0.004,0.013s0.001,0.008,0.002,0.012
		l0.003,0.016c0.002,0.007,0.003,0.014,0.004,0.021c0.001,0.004,0,0.01,0.002,0.016c0,0.007,0.001,0.013,0.002,0.02
		c0,0.004,0,0.006,0,0.008v0.011c0,0.005,0,0.008,0,0.011c0,0.004,0,0.008,0,0.012v0.008c0,0.004,0,0.009-0.001,0.013
		c0,0.004,0,0.009-0.001,0.013v0.008c0,0.004,0,0.008,0,0.014c0,0.004-0.001,0.01-0.002,0.016c0,0.004-0.001,0.012-0.001,0.016
		c0,0.006-0.002,0.012-0.003,0.018c0,0.005-0.001,0.01-0.003,0.016c-0.001,0.006-0.002,0.014-0.003,0.018
		c-0.001,0.006-0.003,0.011-0.005,0.017s-0.003,0.013-0.005,0.019c-0.001,0.004-0.002,0.011-0.005,0.017
		c-0.001,0.006-0.004,0.012-0.006,0.019c-0.002,0.004-0.003,0.008-0.006,0.016c-0.002,0.006-0.005,0.014-0.008,0.02
		c-0.001,0.004-0.008,0.02-0.008,0.02c-0.002,0.005-0.005,0.012-0.008,0.018l-0.009,0.02c-0.002,0.004-0.005,0.01-0.008,0.017
		l-0.009,0.017c-0.002,0.006-0.005,0.012-0.01,0.018L26.614,23.7c-0.011,0.021-0.024,0.041-0.039,0.062l-0.002,0.006
		c-0.004,0.006-0.009,0.014-0.014,0.021l-0.01,0.017c-0.004,0.004-0.01,0.012-0.014,0.018l-0.011,0.016
		c-0.006,0.006-0.011,0.014-0.017,0.021c-0.025,0.031-0.052,0.063-0.081,0.092l-0.008,0.01l-0.005,0.012
		c-0.002,0.006-0.006,0.012-0.009,0.021L26.146,23.979L26.146,23.979z"/>
	
		<path fill="#BCBCBC" stroke="#020202" stroke-width="0.15" stroke-linecap="round" stroke-linejoin="round" stroke-miterlimit="10" d="
		M24.591,25.333c-0.033,0.66,0.474,1.222,1.133,1.254c0.659,0.034,1.221-0.473,1.253-1.132c0-0.001,0-0.002,0-0.003
		c0.034-0.659-0.473-1.22-1.132-1.254c-0.66-0.033-1.22,0.474-1.254,1.133C24.591,25.331,24.591,25.332,24.591,25.333"/>
</g>
<path fill="#FCEE23" stroke="#010101" stroke-width="0.15" stroke-miterlimit="10" d="M31.659,32.459l0.922-2.291l0.482,0.575
	l1.934-3.481l0.545,2.287l-2.494,2.58l-0.42-0.677L31.659,32.459z M36.185,35.872l-0.724-0.864l3.419,0.223l-1.949-2.385
	l-3.471,0.653l1.012,0.623l-2.614,0.623L36.185,35.872z"/>
</svg>
