<?xml version="1.0" encoding="utf-8"?>
<!-- Generator: Adobe Illustrator 16.0.0, SVG Export Plug-In . SVG Version: 6.00 Build 0)  -->
<!DOCTYPE svg PUBLIC "-//W3C//DTD SVG 1.1//EN" "http://www.w3.org/Graphics/SVG/1.1/DTD/svg11.dtd">
<svg version="1.1" id="Layer_1" xmlns="http://www.w3.org/2000/svg" xmlns:xlink="http://www.w3.org/1999/xlink" x="0px" y="0px"
	 width="83px" height="83px" viewBox="0 0 83 83" enable-background="new 0 0 83 83" xml:space="preserve">
<path fill="#0D73BB" stroke="#010101" stroke-width="0.15" stroke-miterlimit="10" d="M82.896,63.736H0V0h82.897V63.736z"/>
<path fill="#8EC641" stroke="#010101" stroke-width="0.15" stroke-miterlimit="10" d="M82.859,65.109
	c-0.98,1.063-2.381,1.729-3.941,1.729c-1.393,0-2.664-0.529-3.617-1.402c-0.539,0.209-1.129,0.32-1.742,0.32
	c-1.074,0-2.063-0.348-2.869-0.938c-1.037,0.699-2.287,1.107-3.633,1.107c-3.592,0-6.502-2.91-6.502-6.502s2.91-6.502,6.502-6.502
	c0.393,0,0.771,0.035,1.146,0.104c-0.002-0.033-0.004-0.066-0.004-0.104c0-2.961,2.398-5.359,5.359-5.359
	c2.113,0,3.941,1.227,4.814,3.004c0.498-0.381,1.123-0.607,1.799-0.607c1.189,0,2.217,0.699,2.689,1.711v13.439H82.859
	L82.859,65.109z"/>
<path fill="#8EC641" stroke="#010101" stroke-width="0.15" stroke-miterlimit="10" d="M39.149,53.664
	c0.561,0,1.106,0.057,1.639,0.146c-0.001-0.049-0.004-0.096-0.004-0.146c0-4.236,3.439-7.68,7.677-7.68
	c3.029,0,5.65,1.756,6.898,4.305c0.715-0.547,1.604-0.871,2.578-0.871c2.346,0,4.246,1.9,4.246,4.246c0,0.027,0,0.059,0,0.084
	c3.301,0.043,5.965,2.73,5.965,6.043c0,2.746-1.832,5.063-4.338,5.799c0.004,0.109,0.008,0.221,0.008,0.328
	c0,4.24-3.439,7.682-7.678,7.682c-1.998,0-3.816-0.768-5.186-2.018c-0.771,0.299-1.617,0.465-2.498,0.465
	c-1.537,0-2.957-0.5-4.104-1.346c-1.486,1.002-3.278,1.588-5.208,1.588c-5.143,0-9.312-4.17-9.312-9.313
	C29.837,57.832,34.006,53.664,39.149,53.664z"/>
<path fill="#BBBDBF" stroke="#010101" stroke-width="0.15" stroke-miterlimit="10" d="M-0.153,63.736h83.05v19.16h-83.05V63.736z"/>
<path fill="#FCEE23" stroke="#010101" stroke-width="0.15" stroke-miterlimit="10" d="M62.439,20.366
	c-1.797,1.727-4.385,2.565-7.008,2.018c-4.223-0.881-6.92-5.011-6.039-9.229c0.549-2.622,2.354-4.659,4.652-5.612
	c0.484-0.202,0.896,0.41,0.527,0.781c-0.943,0.941-1.625,2.167-1.895,3.581c-0.684,3.605,1.635,7.146,5.211,7.965
	c1.402,0.321,2.799,0.188,4.039-0.299C62.424,19.376,62.818,20.001,62.439,20.366z"/>
<path fill="#FCEE23" stroke="#010101" stroke-width="0.15" stroke-miterlimit="10" d="M74.865,20.556l0.412,0.836
	c0.059,0.118,0.172,0.2,0.303,0.219l0.922,0.134c0.33,0.048,0.461,0.452,0.223,0.684l-0.666,0.65
	c-0.096,0.092-0.139,0.225-0.115,0.355l0.156,0.918c0.059,0.328-0.287,0.578-0.582,0.422l-0.824-0.433
	c-0.113-0.063-0.256-0.063-0.373,0l-0.822,0.433c-0.293,0.155-0.639-0.095-0.582-0.422l0.158-0.918
	c0.021-0.13-0.02-0.263-0.115-0.355l-0.668-0.65c-0.232-0.232-0.104-0.636,0.227-0.684l0.924-0.134
	c0.129-0.019,0.242-0.101,0.301-0.219l0.412-0.836C74.293,20.258,74.721,20.258,74.865,20.556z"/>
<path fill="#FCEE23" stroke="#010101" stroke-width="0.15" stroke-miterlimit="10" d="M38.173,16.382l0.035,0.931
	c0.005,0.132,0.074,0.253,0.187,0.324l0.787,0.499c0.28,0.179,0.234,0.601-0.076,0.715l-0.875,0.321
	c-0.125,0.045-0.217,0.149-0.25,0.276l-0.23,0.903c-0.083,0.322-0.499,0.41-0.705,0.148l-0.575-0.732
	c-0.082-0.104-0.209-0.161-0.34-0.152l-0.93,0.059c-0.332,0.021-0.543-0.347-0.358-0.623l0.519-0.774
	c0.073-0.109,0.088-0.248,0.04-0.371l-0.343-0.866c-0.123-0.309,0.163-0.625,0.482-0.534l0.896,0.254
	c0.127,0.037,0.264,0.008,0.365-0.076l0.718-0.595C37.772,15.876,38.162,16.049,38.173,16.382z"/>
<path fill="#FCEE23" stroke="#010101" stroke-width="0.15" stroke-miterlimit="10" d="M64.701,7.403l0.445,0.353
	c0.063,0.05,0.145,0.065,0.223,0.042l0.543-0.167c0.193-0.06,0.371,0.129,0.301,0.318l-0.197,0.532
	c-0.025,0.076-0.018,0.16,0.027,0.226l0.328,0.464c0.115,0.166-0.01,0.393-0.211,0.384l-0.566-0.023
	c-0.08-0.003-0.156,0.033-0.205,0.097l-0.342,0.454c-0.119,0.162-0.375,0.113-0.43-0.081l-0.152-0.546
	c-0.021-0.078-0.08-0.14-0.156-0.166l-0.537-0.184c-0.191-0.065-0.229-0.322-0.061-0.434l0.477-0.314
	c0.063-0.045,0.104-0.12,0.105-0.2l0.012-0.567C64.311,7.388,64.543,7.278,64.701,7.403z"/>
<path fill="#ED2224" stroke="#010101" stroke-width="0.15" stroke-miterlimit="10" d="M17.398,24.42H0.054V8.14H12.18
	c0.847,0,1.614,0.503,1.951,1.28l5.219,12.027C19.958,22.851,18.93,24.42,17.398,24.42z"/>
<path fill="#F89520" stroke="#010101" stroke-width="0.15" stroke-miterlimit="10" d="M14.65,24.42v39.316H-0.022V24.42H14.65z"/>
<path fill="#FCEE23" stroke="#010101" stroke-width="0.15" stroke-miterlimit="10" d="M8.523,32.906v30.83H0.115
	c-0.046,0-0.092-0.002-0.138-0.006V31.492c0.045-0.005,0.091-0.007,0.138-0.007h6.988C7.888,31.485,8.523,32.121,8.523,32.906z"/>
<path fill="#2F2D2C" stroke="#010101" stroke-width="0.15" stroke-miterlimit="10" d="M6.22,45.615c0.573,0,1.037,0.465,1.037,1.035
	c0,0.574-0.464,1.037-1.037,1.037c-0.573,0-1.037-0.463-1.037-1.037C5.184,46.08,5.646,45.615,6.22,45.615z"/>
<path fill="#2F2D2C" d="M28.964,62.807c-0.291-0.229-0.342-0.65-0.113-0.941c0.227-0.289,0.651-0.344,0.943-0.115
	c0,0,3.369,1.271,4.295,2.016c0.867,0.688,2.727,3.496,2.727,3.496c1.618-4.271,3.116-3.693,3.548-3.184
	c0.497,0.586-0.193,2.299-1.951,3.787c-0.957,0.813-1.481,1.07-1.724,0.982c-0.043-0.01-0.086-0.025-0.126-0.059
	c0,0-2.457-3.293-3.415-4.047C32.2,63.996,28.964,62.807,28.964,62.807z"/>
<path fill="#FFFFFF" stroke="#020202" stroke-width="0.15" stroke-miterlimit="10" d="M20.451,43.896
	c-0.504,0.059-1.266,0.055-2.149-0.238c-2.001-0.666-3.675-2.435-4.977-5.257c-0.935-2.026-2.032-7.113-2.078-7.328l1.276-0.273
	c0.011,0.051,1.113,5.159,1.987,7.055c2.67,5.792,6.131,4.69,6.166,4.68l0.421,1.232C21.075,43.775,20.839,43.854,20.451,43.896"/>
<path fill="#2F2D2C" d="M20.451,43.896c-0.504,0.059-1.266,0.055-2.149-0.238c-2.001-0.666-3.675-2.435-4.977-5.257
	c-0.935-2.026-2.032-7.113-2.078-7.328l1.276-0.273c0.011,0.051,1.113,5.159,1.987,7.055c2.67,5.792,6.131,4.69,6.166,4.68
	l0.421,1.232C21.075,43.775,20.839,43.854,20.451,43.896z"/>
<path fill="#FFFFFF" d="M13.429,31.84c0.188,0.624-0.123,1.27-0.696,1.443c-0.573,0.173-1.19-0.192-1.379-0.816
	c-0.188-0.624,0.123-1.27,0.696-1.443C12.623,30.852,13.24,31.217,13.429,31.84"/>
<path fill="#F4F4F4" d="M13.502,33.301l-0.78,0.204c-0.217,0.057-0.442-0.075-0.499-0.292l0,0c-0.057-0.218,0.075-0.442,0.292-0.5
	l0.78-0.204c0.218-0.057,0.442,0.075,0.499,0.292C13.853,33.02,13.721,33.245,13.502,33.301"/>
<path fill="none" stroke="#020202" stroke-width="0.15" stroke-miterlimit="10" d="M13.457,33.301l-0.78,0.204
	c-0.217,0.057-0.442-0.075-0.499-0.292l0,0c-0.057-0.218,0.075-0.442,0.292-0.5l0.78-0.204c0.218-0.057,0.442,0.075,0.499,0.292
	C13.806,33.02,13.673,33.245,13.457,33.301z"/>
<path fill="#BBBDBF" d="M12.044,37.629L12.044,37.629c-0.581,0.063-1.109-0.359-1.173-0.94L8.792,17.911
	c-0.064-0.582,0.358-1.109,0.939-1.174c0.582-0.064,1.11,0.359,1.173,0.94l2.079,18.778C13.048,37.036,12.625,37.565,12.044,37.629"
	/>
<path fill="none" stroke="#020202" stroke-width="0.15" stroke-miterlimit="10" d="M12.044,37.629L12.044,37.629
	c-0.581,0.063-1.109-0.359-1.173-0.94L8.792,17.911c-0.064-0.582,0.358-1.109,0.939-1.174c0.582-0.064,1.11,0.359,1.173,0.94
	l2.079,18.778C13.048,37.036,12.625,37.565,12.044,37.629z"/>
<path fill="#2F2D2C" d="M17.915,33.282c6.512,2.177,11.64-1.288,11.64-1.288l3.295,29.771c0.11,0.998-0.61,1.898-1.61,2.01
	l-8.02,0.889c-1,0.109-1.899-0.607-2.01-1.607L17.915,33.282"/>
<path fill="none" stroke="#020202" stroke-width="0.15" stroke-miterlimit="10" d="M17.915,33.282l3.295,29.771
	c0.111,1,1.011,1.721,2.01,1.609l8.02-0.891c1-0.107,1.72-1.012,1.61-2.01L29.555,31.99C29.554,31.994,24.427,35.458,17.915,33.282z
	"/>
<path fill="none" stroke="#020202" stroke-width="0.25" stroke-linecap="round" stroke-miterlimit="10" d="M28.232,37.074
	c0.04-0.271,0.132-0.54,0.283-0.79c0.199-0.329,0.473-0.584,0.787-0.758"/>
<path fill="none" stroke="#020202" stroke-width="0.25" stroke-linecap="round" stroke-miterlimit="10" d="M26.639,37.359
	c-0.186-0.202-0.415-0.37-0.681-0.49c-0.35-0.159-0.721-0.213-1.078-0.178"/>
<path fill="#2F2D2C" d="M29.189,28.702l0.364,3.292c0,0-5.127,3.465-11.64,1.288c-0.211-1.908-0.365-3.291-0.365-3.291
	c-0.292-2.642,1.671-5.065,4.489-5.714c-0.002-0.015-0.006-0.03-0.007-0.045c-0.052-0.474,0.29-0.901,0.763-0.954
	c0.475-0.052,0.902,0.29,0.954,0.764c0.003,0.023,0.003,0.046,0.004,0.07C26.559,24.211,28.903,26.119,29.189,28.702z"/>
<path fill="#FFFFFF" stroke="#020202" stroke-width="0.15" stroke-miterlimit="10" d="M31.75,33.414
	c0.25,0.353-0.053,0.835-0.483,0.787c-0.656-0.074-1.468-0.188-2.509,0.198c-1.484,0.551-2.927,1.483-4.644,1.673
	c-1.717,0.19-3.328-0.404-4.897-0.616c-1.101-0.15-1.869,0.14-2.492,0.355c-0.409,0.141-0.81-0.264-0.644-0.663
	c0.415-1.001,1.737-1.856,1.737-1.856l0.095-0.011c6.513,2.177,11.64-1.288,11.64-1.288l0.096-0.011
	C29.649,31.983,31.126,32.528,31.75,33.414"/>
<path fill="#2F2D2C" d="M31.75,33.414c-0.624-0.887-2.101-1.432-2.101-1.432l-0.096,0.011c0,0-5.127,3.465-11.64,1.288l-0.095,0.011
	c0,0-1.322,0.855-1.737,1.856c-0.166,0.399,0.235,0.804,0.644,0.663c0.623-0.215,1.391-0.505,2.492-0.355
	c1.569,0.212,3.18,0.807,4.897,0.616c1.717-0.19,3.16-1.122,4.644-1.673c1.042-0.386,1.854-0.271,2.509-0.198
	C31.697,34.249,32,33.767,31.75,33.414z"/>
<path fill="#F4F4F4" stroke="#020202" stroke-width="0.15" stroke-miterlimit="10" d="M13.463,32.414
	c0.393-0.571-0.131-1.514-0.723-1.59l-0.894-0.136c-0.295-0.041-0.57,0.167-0.611,0.462s0.167,0.57,0.462,0.61l0.94,0.169
	l-0.128,0.194l0.094,0.563L13.463,32.414z"/>
<path fill="#F4F4F4" d="M10.859,31.506h-0.542c-0.298,0-0.541-0.244-0.541-0.542c0-0.298,0.244-0.541,0.542-0.541h0.542
	c0.298,0,0.541,0.244,0.541,0.542C11.4,31.263,11.158,31.506,10.859,31.506"/>
<path fill="none" stroke="#020202" stroke-width="0.15" stroke-miterlimit="10" d="M10.859,31.506h-0.542
	c-0.298,0-0.541-0.244-0.541-0.542c0-0.298,0.244-0.541,0.542-0.541h0.542c0.298,0,0.541,0.244,0.541,0.542
	C11.4,31.263,11.158,31.506,10.859,31.506z"/>
<path fill="#F4F4F4" d="M10.857,33.671h-0.542c-0.297,0-0.541-0.244-0.541-0.542c0-0.297,0.244-0.541,0.542-0.541h0.542
	c0.298,0,0.542,0.243,0.541,0.541C11.399,33.428,11.156,33.671,10.857,33.671"/>
<path fill="none" stroke="#020202" stroke-width="0.15" stroke-miterlimit="10" d="M10.857,33.671h-0.542
	c-0.297,0-0.541-0.244-0.541-0.542c0-0.297,0.244-0.541,0.542-0.541h0.542c0.298,0,0.542,0.243,0.541,0.541
	C11.399,33.428,11.156,33.671,10.857,33.671z"/>
<path fill="#F4F4F4" d="M11.184,32.589h-0.867c-0.297,0-0.541-0.244-0.541-0.542c0-0.297,0.244-0.541,0.542-0.541h0.866
	c0.298,0,0.542,0.244,0.541,0.542C11.725,32.345,11.48,32.589,11.184,32.589"/>
<path fill="none" stroke="#020202" stroke-width="0.15" stroke-miterlimit="10" d="M11.184,32.589h-0.867
	c-0.297,0-0.541-0.244-0.541-0.542c0-0.297,0.244-0.541,0.542-0.541h0.866c0.298,0,0.542,0.244,0.541,0.542
	C11.725,32.345,11.48,32.589,11.184,32.589z"/>
<path fill="#2F2D2C" d="M29.595,37.098c0.968-0.239,1.982,0.503,2.266,1.656c0.284,1.153-0.27,2.28-1.237,2.519"/>
<path fill="none" stroke="#020202" stroke-width="0.15" stroke-miterlimit="10" d="M25.627,39.263
	c0.612,0.027,1.082,0.639,1.05,1.367c-0.031,0.728-0.552,1.297-1.164,1.272"/>
<path fill="#FFFFFF" d="M34.339,46.551c-0.759,0.182-1.734,0.254-3.124,0.27l-0.086-1.057c3.123-0.033,3.641-0.48,3.709-0.563
	c-0.024-0.092-0.246-0.604-2.167-1.658l0.52-0.941c2.102,1.158,2.908,2.016,2.695,2.859C35.758,45.975,35.27,46.33,34.339,46.551"/>
<path fill="#2F2D2C" d="M34.339,46.551c-0.759,0.182-1.734,0.254-3.124,0.27l-0.086-1.057c3.123-0.033,3.641-0.48,3.709-0.563
	c-0.024-0.092-0.246-0.604-2.167-1.658l0.52-0.941c2.102,1.158,2.908,2.016,2.695,2.859C35.758,45.975,35.27,46.33,34.339,46.551z"
	/>
<path fill="#BBBDBF" d="M27.937,38.281c-0.157-0.399,0.569-0.925,1.45-0.542c0.88,0.382,1.894,1.325,2.881,0.498
	c0,0-0.427,0.694-1.405,0.729c-0.489,0.018-0.81-0.499-1.601-0.507C28.878,38.455,28.187,38.912,27.937,38.281z"/>
<path fill="#BBBDBF" d="M27.562,38.371c-0.04-0.427-0.925-0.569-1.539,0.169c-0.614,0.738-1.094,2.037-2.348,1.743
	c0,0,0.693,0.427,1.583,0.017c0.445-0.204,0.498-0.808,1.201-1.173C26.798,38.95,27.624,39.047,27.562,38.371z"/>
<path fill="#2F2D2C" d="M23.935,63.156c0.19-0.318,0.602-0.424,0.921-0.23c0.316,0.189,0.423,0.604,0.233,0.92
	c0,0-0.52,3.619-1.138,4.645c-0.593,0.979-3.431,3.023-3.431,3.023c4.441,1.063,4.059,2.617,3.606,3.111
	c-0.518,0.566-2.304,0.104-4.004-1.453c-0.924-0.846-1.251-1.332-1.195-1.584c0.003-0.045,0.016-0.09,0.042-0.133
	c0,0,3.195-2.564,3.862-3.729C23.414,66.703,23.935,63.156,23.935,63.156z"/>
<path fill="#2F2D2C" stroke="#010101" stroke-width="0.15" stroke-miterlimit="10" d="M68.313,60.23
	c-0.414-0.342-4.074-3.365-4.811-4.611c-0.346-0.592-0.43-1.23-0.246-1.914c0.58-2.16,3.771-3.994,3.906-4.068l0.527,0.936
	l-0.264-0.469l0.264,0.469c-0.813,0.467-3.014,1.982-3.396,3.414c-0.104,0.396-0.063,0.758,0.139,1.096
	c0.537,0.914,3.477,3.432,4.563,4.32L68.313,60.23z"/>
<path fill="#2F2D2C" stroke="#010101" stroke-width="0.15" stroke-miterlimit="10" d="M60.785,63.773
	c-0.029-0.369,0.246-0.693,0.615-0.723c0.367-0.031,0.695,0.244,0.725,0.615c0,0,1.352,3.336,1.438,4.52
	c0.082,1.105-0.717,4.375-0.717,4.375c4.232-1.709,4.826-0.217,4.744,0.449c-0.094,0.762-1.818,1.416-4.105,1.135
	c-1.24-0.15-1.791-0.359-1.893-0.598c-0.021-0.037-0.039-0.08-0.043-0.131c0,0,0.754-4.039,0.656-5.254
	C62.107,66.957,60.785,63.773,60.785,63.773z"/>
<path fill="#B8893D" stroke="#010101" stroke-width="0.15" stroke-miterlimit="10" d="M68.58,37.846l1.75,0.931
	c2.527,1.344,3.486,4.485,2.143,7.012L61.488,66.438c-0.418,0.787-1.396,1.086-2.182,0.668l-8.059-4.285
	c-0.787-0.418-1.086-1.395-0.666-2.18l10.982-20.652C62.914,37.46,66.055,36.501,68.58,37.846z"/>
<path fill="#2F2D2C" stroke="#010101" stroke-width="0.15" stroke-linejoin="round" stroke-miterlimit="10" d="M69.068,37.607
	l1.186,0.63c2.043,1.086,4.264,4.189,2.361,7.283l0,0L61.711,39.72C63.313,36.725,67.027,36.521,69.068,37.607z"/>
<path fill="#2F2D2C" stroke="#010101" stroke-width="0.15" stroke-miterlimit="10" d="M58.965,44.883l10.904,5.799l-4.961,9.326
	l-10.904-5.801L58.965,44.883z"/>
<path fill="#FFFFFF" stroke="#020202" stroke-width="0.15" stroke-miterlimit="10" d="M54.869,52.582l10.904,5.799l-0.865,1.627
	l-10.904-5.801L54.869,52.582z"/>
<path fill="#FFFFFF" stroke="#020202" stroke-width="0.15" stroke-miterlimit="10" d="M56.51,49.357l10.902,5.801l-0.865,1.625
	l-10.902-5.799L56.51,49.357z M57.281,47.758l10.902,5.799l0.861-1.625l-10.898-5.799L57.281,47.758z"/>
<path fill="#2F2D2C" stroke="#010101" stroke-width="0.15" stroke-linejoin="round" stroke-miterlimit="10" d="M72.273,45.391
	l-10.406-5.537c-0.338-0.18-0.467-0.598-0.287-0.935l0.182-0.341c0.18-0.337,0.598-0.465,0.938-0.286l10.406,5.538
	c0.338,0.182,0.465,0.6,0.285,0.936l-0.182,0.342C73.029,45.441,72.611,45.57,72.273,45.391z"/>
<path fill="#2F2D2C" stroke="#010101" stroke-width="0.15" stroke-miterlimit="10" d="M71.188,48.129l1.1-2.068
	c0.08-0.199,0.148-0.4,0.207-0.604l-10.662-5.672c-0.273,0.327-0.52,0.686-0.729,1.078l-0.764,1.428l7.535,4.008l1.408,0.336
	l0.605,0.807L71.188,48.129z"/>
<path fill="#2F2D2C" stroke="#010101" stroke-width="0.15" stroke-miterlimit="10" d="M55.289,61.865
	c0.371-0.014,0.682,0.277,0.693,0.648c0.012,0.369-0.281,0.682-0.65,0.693c0,0-3.33,1.512-4.523,1.539
	c-1.145,0.023-4.396-1.266-4.396-1.266c1.5,4.313-0.02,4.832-0.682,4.721c-0.758-0.135-1.326-1.891-0.936-4.156
	c0.217-1.236,0.449-1.773,0.691-1.861c0.037-0.02,0.082-0.035,0.135-0.035c0,0,3.883,1.311,5.227,1.244
	C52.02,63.334,55.289,61.865,55.289,61.865z"/>
<path fill="#FFFFFF" stroke="#020202" stroke-width="0.15" stroke-miterlimit="10" d="M61.711,39.721"/>
<path fill="#FCEE23" stroke="#010101" stroke-width="0.15" stroke-miterlimit="10" d="M64.762,52.373
	c-2.539-3.918-4.809-5.256-7.816-3.533c-2.854,1.639-9.57,6.199-13.455-0.354c-3.286-5.547,3.861-14.638,12.941-9.227
	c6.416,3.823,9.854,13.348,9.854,13.348L64.762,52.373z"/>
<path fill="#2F2D2C" stroke="#010101" stroke-width="0.15" stroke-miterlimit="10" d="M63.928,54.883
	c-0.1-0.006-2.438-0.172-3.826-0.318c-2.803-0.297-0.311-5.844-0.25-6.027c0.09-0.281,0.396-0.438,0.676-0.346
	c0.281,0.092,0.438,0.395,0.35,0.678l0,0c-0.016,0.039-1.813,4.316-0.627,4.631c1.311,0.348,3.713,0.311,3.734,0.311
	C64.246,53.822,64.225,54.896,63.928,54.883z"/>
<g>
	<path fill="#F4F4F4" stroke="#020202" stroke-width="0.15" stroke-miterlimit="10" d="M64.174,53.479c0,0,0.006-1.252,1.361-1.268
		c0.695,0.146,0.32,0.629,0.32,0.629s0.775,0.063,0.764,0.518c-0.016,0.453,0.016,0.609-0.313,0.938
		c-0.33,0.33-1.031,0.596-1.473,0.5c-0.438-0.094-0.438-0.313-0.438-0.313L64.174,53.479z"/>
	<path fill="#F4F4F4" stroke="#020202" stroke-width="0.15" stroke-miterlimit="10" d="M64.986,52.82
		c0.234-0.35,1.541-0.166,1.541-0.166c0.229-0.021,0.438,0.164,0.438,0.402c-0.002,0.209-0.178,0.377-0.387,0.396l-0.377,0.031"/>
	<path fill="#F4F4F4" stroke="#020202" stroke-width="0.15" stroke-miterlimit="10" d="M65.836,54.084l0.377-0.033
		c0.203-0.016,0.402,0.109,0.447,0.307c0.055,0.246-0.119,0.447-0.354,0.49c-0.574,0.104-1.539,0.422-2.328-0.154"/>
	<path fill="#F4F4F4" stroke="#020202" stroke-width="0.15" stroke-miterlimit="10" d="M65.744,53.369l0.814-0.066
		c0.219-0.02,0.414,0.146,0.434,0.361c0.021,0.221-0.145,0.414-0.363,0.438l-0.775,0.09"/>
	<path fill="#F4F4F4" stroke="#020202" stroke-width="0.15" stroke-miterlimit="10" d="M64.221,55.066L64.221,55.066
		c-0.182,0.043-0.363-0.068-0.406-0.25l-0.232-0.988c-0.045-0.182,0.064-0.363,0.25-0.406l0,0c0.184-0.043,0.361,0.068,0.404,0.25
		l0.236,0.988C64.516,54.842,64.402,55.023,64.221,55.066z"/>
</g>
<path fill="#F4F4F4" stroke="#020202" stroke-width="0.15" stroke-miterlimit="10" d="M70.332,46.98
	c-0.498-0.25-0.701-0.854-0.453-1.352s0.854-0.701,1.352-0.455c0.5,0.248,0.701,0.854,0.453,1.354
	C71.436,47.025,70.83,47.229,70.332,46.98z M68.861,45.105c0.248-0.498,0.045-1.104-0.453-1.352
	c-0.498-0.246-1.104-0.045-1.352,0.453c-0.25,0.498-0.045,1.104,0.449,1.352C68.008,45.807,68.613,45.605,68.861,45.105z"/>
<path fill="#020202" d="M68.041,45.146c-0.262-0.129-0.367-0.445-0.236-0.705c0.131-0.264,0.447-0.367,0.709-0.238
	c0.26,0.131,0.365,0.445,0.236,0.707C68.619,45.172,68.303,45.277,68.041,45.146z M68.697,44.713c0.041-0.08,0.008-0.18-0.074-0.219
	c-0.08-0.041-0.178-0.012-0.219,0.068c-0.039,0.082-0.008,0.184,0.074,0.225C68.559,44.826,68.658,44.795,68.697,44.713z"/>
<path fill="#EA6A6B" stroke="#020202" stroke-width="0.15" stroke-miterlimit="10" d="M68.729,47.061
	c0.35,0.172,0.414,0.74,0.148,1.271c-0.262,0.525-0.758,0.814-1.104,0.645c-0.346-0.172-0.412-0.74-0.148-1.27
	C67.891,47.178,68.383,46.887,68.729,47.061z"/>
<path fill="#020202" d="M70.863,46.568c-0.26-0.131-0.367-0.447-0.236-0.707c0.129-0.262,0.447-0.367,0.707-0.238
	c0.262,0.131,0.367,0.447,0.238,0.709C71.441,46.592,71.125,46.699,70.863,46.568z M71.52,46.135c0.041-0.082,0.008-0.18-0.07-0.221
	c-0.08-0.039-0.182-0.008-0.223,0.07c-0.041,0.08-0.008,0.184,0.072,0.223C71.381,46.248,71.48,46.215,71.52,46.135z"/>
<g>
	
		<path fill="#BCBCBC" stroke="#020202" stroke-width="0.15" stroke-linecap="round" stroke-linejoin="round" stroke-miterlimit="10" d="
		M27.617,30.268l0.511-0.522l-0.794-0.208l0.254-0.925l-0.324,0.075c0.07-0.19,0.13-0.449,0.072-0.696
		c-0.045-0.198-0.159-0.359-0.339-0.478c-0.225-0.149-0.467-0.194-0.717-0.137c-0.056,0.013-0.108,0.032-0.159,0.051l0,0
		c-0.564-0.291-1.011,0.211-1.011,0.211l0.029,0.013c-0.045,0.004-0.091,0.01-0.136,0.021c-0.251,0.058-0.447,0.206-0.585,0.438
		c-0.11,0.188-0.144,0.386-0.092,0.588c0.057,0.245,0.223,0.447,0.367,0.585l-0.458,0.105l0.635,0.72l-0.623,0.536l0.689,0.246
		l-0.28,0.811l0.756-0.189l0.16,0.857l0.577-0.593l0.555,0.66l0.209-0.837l0.778,0.28l-0.232-0.841l0.763-0.161L27.617,30.268z
		 M26.839,28.089c-0.029-0.104-0.079-0.198-0.15-0.279c-0.007-0.007-0.016-0.018-0.024-0.025c-0.035-0.037-0.076-0.072-0.122-0.104
		c0.031,0.001,0.062,0.004,0.093,0.01c0.217,0.039,0.359,0.185,0.397,0.408c0.005,0.025,0.007,0.051,0.009,0.079
		c0.001,0.027,0.002,0.055,0.001,0.083c-0.001,0.056-0.01,0.115-0.022,0.174c-0.007,0.031-0.014,0.06-0.021,0.092
		c-0.024,0.077-0.057,0.154-0.098,0.228l-0.006,0.012l-0.003,0.01l-0.122,0.028c0.006-0.014,0.009-0.024,0.015-0.038
		c0.016-0.047,0.031-0.095,0.042-0.142c0.012-0.044,0.02-0.089,0.027-0.13c0.001-0.009,0.003-0.019,0.003-0.028
		c0.001-0.019,0.004-0.038,0.006-0.055c0-0.01,0-0.019,0.001-0.029c0-0.019,0.002-0.037,0.002-0.057c-0.001-0.01,0-0.02,0-0.029
		c-0.002-0.028-0.003-0.058-0.006-0.086C26.858,28.166,26.851,28.125,26.839,28.089z M25.112,28.521l-0.001-0.003
		c0,0-0.003-0.012-0.004-0.015c-0.001-0.004-0.002-0.009-0.002-0.012l-0.001-0.01c-0.001-0.002-0.001-0.004-0.002-0.008
		c0-0.006-0.001-0.012,0-0.021c-0.001-0.005-0.002-0.01-0.001-0.015c0-0.006,0-0.016-0.001-0.021l0.001-0.015
		c0.001-0.004,0.001-0.009,0-0.014c0-0.003,0-0.015,0-0.015c0-0.005,0-0.008,0.002-0.015c0-0.002,0-0.005,0.002-0.007v-0.003
		c0-0.004,0.001-0.011,0.003-0.017c0-0.003,0-0.006,0.003-0.011c0-0.005,0.001-0.009,0.004-0.016
		c0.001-0.003,0.002-0.008,0.004-0.013c0.001-0.003,0.003-0.008,0.005-0.014c0.001-0.004,0.004-0.008,0.006-0.012
		c0-0.005,0.003-0.009,0.006-0.015c0.002-0.004,0.004-0.008,0.007-0.013c0.001-0.004,0.004-0.008,0.007-0.015
		c0.002-0.004,0.004-0.006,0.008-0.012c0.003-0.004,0.007-0.008,0.009-0.014v-0.001c0.002-0.004,0.005-0.007,0.007-0.009
		c0.003-0.005,0.007-0.009,0.014-0.014c0,0,0.005-0.009,0.009-0.012c0.004-0.003,0.008-0.008,0.015-0.014
		c0,0,0.008-0.009,0.009-0.011c0.005-0.003,0.012-0.009,0.018-0.014l0.008-0.01c0.01-0.007,0.019-0.015,0.03-0.023
		c0.031-0.023,0.067-0.038,0.107-0.047c0.032-0.008,0.069-0.013,0.111-0.012c0.026,0,0.053,0.001,0.08,0.003
		c0.017,0.039,0.032,0.076,0.044,0.113c0.013,0.038,0.024,0.076,0.032,0.108c0.029,0.132,0.087,0.516,0.126,0.778l-0.255,0.059
		c-0.003-0.007-0.008-0.013-0.011-0.019l-0.007-0.01l-0.011-0.009c-0.03-0.022-0.064-0.049-0.095-0.077
		c-0.007-0.005-0.014-0.01-0.02-0.016l-0.013-0.014c-0.007-0.005-0.014-0.011-0.018-0.017l-0.014-0.013
		c-0.005-0.005-0.012-0.013-0.017-0.019l-0.002-0.002c-0.025-0.025-0.046-0.051-0.067-0.078l-0.007-0.011
		c-0.004-0.005-0.008-0.01-0.012-0.015l-0.012-0.018c-0.003-0.005-0.006-0.012-0.012-0.02l-0.01-0.014
		c-0.002-0.005-0.006-0.012-0.01-0.018c-0.002-0.006-0.006-0.01-0.008-0.015c-0.003-0.006-0.006-0.011-0.009-0.017
		c-0.001-0.005-0.004-0.009-0.006-0.015c-0.003-0.005-0.005-0.012-0.009-0.018c-0.002-0.005-0.005-0.01-0.008-0.015
		c-0.001-0.004-0.004-0.011-0.007-0.018c-0.002-0.006-0.003-0.011-0.004-0.016c-0.003-0.005-0.004-0.01-0.007-0.016
		c-0.001-0.004-0.003-0.01-0.006-0.018c-0.001-0.005-0.002-0.009-0.004-0.013c-0.001-0.006-0.003-0.01-0.004-0.018l-0.001-0.002
		c-0.001-0.004-0.002-0.008-0.003-0.012C25.111,28.529,25.114,28.525,25.112,28.521z M25.058,29.188l-0.01-0.008
		c-0.256-0.184-0.421-0.441-0.429-0.674c-0.005-0.16,0.065-0.298,0.203-0.397c0.025-0.02,0.053-0.035,0.08-0.05
		c-0.096,0.172-0.122,0.354-0.077,0.54c0.057,0.239,0.223,0.438,0.361,0.569l-0.122,0.028L25.058,29.188z M26.175,28.94
		c-0.08-0.254-0.195-0.622-0.228-0.754c-0.007-0.033-0.014-0.071-0.019-0.111c-0.004-0.04-0.007-0.08-0.007-0.122
		c0.031-0.017,0.062-0.035,0.094-0.048c0.027-0.013,0.052-0.02,0.077-0.026c0.043-0.01,0.082-0.012,0.12-0.005
		c0.012,0.002,0.025,0.006,0.037,0.007l0.012,0.005c0.008,0.001,0.016,0.004,0.023,0.005c0.002,0.001,0.014,0.005,0.014,0.005
		c0.007,0.001,0.013,0.005,0.02,0.006c0.003,0,0.006,0.002,0.008,0.002l0.003,0.002c0.005,0.002,0.012,0.004,0.018,0.008
		c0.004,0.001,0.006,0.002,0.011,0.006c0.005,0.003,0.011,0.006,0.016,0.008c0.003,0.003,0.008,0.005,0.012,0.006
		c0.004,0.004,0.009,0.008,0.013,0.011c0.004,0.002,0.008,0.005,0.011,0.008c0.005,0.004,0.009,0.007,0.013,0.011
		c0.003,0.002,0.006,0.006,0.011,0.008c0.004,0.003,0.007,0.007,0.011,0.01c0.003,0.003,0.006,0.007,0.009,0.01
		c0.002,0.004,0.007,0.007,0.014,0.014c0,0.003,0.003,0.005,0.006,0.008c0.002,0.004,0.005,0.007,0.01,0.013
		c0,0,0.006,0.009,0.007,0.01c0.003,0.005,0.005,0.008,0.01,0.015c0,0,0.005,0.008,0.007,0.011c0.002,0.003,0.003,0.007,0.005,0.011
		l0.007,0.014c0.003,0.006,0.006,0.013,0.009,0.019c0.002,0.004,0.003,0.01,0.006,0.015c0.002,0.007,0.004,0.012,0.007,0.019
		c0.001,0.003,0.001,0.004,0.002,0.007l0.003,0.01c0.001,0.005,0.002,0.008,0.003,0.011c0.001,0.003,0.002,0.007,0.003,0.011
		l0.002,0.008c0.001,0.004,0.002,0.008,0.002,0.012c0.001,0.003,0.002,0.008,0.002,0.012l0.002,0.007
		c0.001,0.003,0.002,0.007,0.003,0.013c0.001,0.004,0.002,0.01,0.002,0.016c0.001,0.004,0.002,0.011,0.003,0.016
		c0.002,0.005,0.001,0.011,0.002,0.017c0.001,0.005,0.002,0.01,0.001,0.016c0.001,0.006,0.002,0.013,0.002,0.019
		c0,0.006,0,0.01,0,0.017s0,0.013,0,0.02c0,0.004,0.001,0.01,0,0.017c0.001,0.006,0,0.012,0,0.02
		c-0.001,0.004-0.001,0.008-0.002,0.016c0,0.007-0.001,0.015-0.002,0.021c0,0.004-0.002,0.021-0.002,0.021
		c0,0.006-0.001,0.013-0.003,0.02l-0.003,0.021c-0.001,0.005-0.002,0.011-0.003,0.019l-0.005,0.018c0,0.006-0.001,0.012-0.004,0.02
		l-0.002,0.001c-0.005,0.023-0.012,0.046-0.021,0.07v0.005c-0.003,0.007-0.005,0.016-0.008,0.024l-0.006,0.019
		c-0.002,0.006-0.006,0.014-0.008,0.021L26.5,28.705c-0.004,0.007-0.007,0.016-0.011,0.025c-0.015,0.038-0.032,0.075-0.053,0.111
		l-0.005,0.012l-0.001,0.012c0,0.006-0.002,0.014-0.003,0.022L26.175,28.94L26.175,28.94z"/>
	
		<path fill="#BCBCBC" stroke="#020202" stroke-width="0.15" stroke-linecap="round" stroke-linejoin="round" stroke-miterlimit="10" d="
		M25.05,30.668c0.149,0.644,0.79,1.045,1.433,0.896c0.643-0.147,1.045-0.789,0.896-1.431c0-0.001-0.001-0.002-0.001-0.003
		c-0.147-0.644-0.789-1.044-1.432-0.896C25.303,29.382,24.902,30.023,25.05,30.668C25.05,30.667,25.05,30.668,25.05,30.668"/>
</g>
<path fill="#F4F4F4" d="M23.826,55.957c-0.109-0.021-0.219-0.045-0.331-0.064c-0.058-0.008-0.087-0.025-0.095-0.09
	c-0.073-0.533-0.151-1.063-0.224-1.602c-0.037-0.27-0.032-0.271,0.214-0.393c0.168-0.086,0.339-0.172,0.509-0.26
	c0.006-0.004,0.011-0.014,0.024-0.025c-0.068-0.043-0.132-0.082-0.197-0.131c-0.517-0.361-0.816-0.863-0.951-1.479
	c-0.09-0.408-0.059-0.813,0.032-1.215c0.012-0.055,0.024-0.088,0.081-0.096c0.089-0.006,0.098-0.063,0.094-0.137
	c-0.022-0.484-0.04-0.965-0.06-1.453c-0.002-0.053-0.027-0.117,0.073-0.119c0.066-0.004,0.036-0.066,0.034-0.104
	c-0.017-0.461-0.032-0.92-0.057-1.385c-0.006-0.105,0.025-0.135,0.124-0.125c0.118,0.01,0.235,0.01,0.369,0.012
	c-0.085-0.078-0.183-0.107-0.271-0.148c-0.058-0.029-0.082-0.063-0.073-0.125c0.084-0.598,0.167-1.195,0.248-1.797
	c0.008-0.059,0.043-0.074,0.092-0.08c0.699-0.131,1.396-0.262,2.094-0.393c0.685-0.129,1.371-0.256,2.054-0.395
	c0.077-0.016,0.091-0.01,0.086,0.074c-0.043,0.563-0.08,1.127-0.118,1.691c-0.005,0.09-0.02,0.18-0.017,0.27
	c0.003,0.086-0.019,0.129-0.117,0.135c-0.135,0.012-0.269,0.035-0.402,0.057c-0.041,0.008-0.084,0.014-0.096,0.064
	c-0.013,0.063,0.037,0.07,0.072,0.086c0.127,0.061,0.253,0.119,0.382,0.174c0.073,0.027,0.092,0.063,0.074,0.139
	c-0.058,0.246-0.105,0.498-0.16,0.742c-0.025,0.109-0.032,0.227-0.027,0.338c0.02,0.4,0.039,0.807,0.055,1.205
	c0.004,0.059,0.032,0.137-0.077,0.131c-0.045,0-0.035,0.043-0.034,0.07c0.01,0.252,0.019,0.506,0.032,0.76
	c0.004,0.053,0.025,0.102,0.04,0.145c0.256,0.715,0.273,1.42-0.068,2.115c-0.063,0.127,0.015,0.246,0.039,0.365
	c0.068,0.359,0.145,0.723,0.225,1.082c0.015,0.068-0.002,0.1-0.065,0.119c-0.133,0.057-0.264,0.113-0.393,0.178
	c-0.033,0.02-0.075,0.027-0.069,0.078c0.008,0.057,0.045,0.063,0.089,0.066c0.14,0.02,0.277,0.045,0.415,0.061
	c0.08,0.008,0.112,0.041,0.116,0.127c0.01,0.23,0.044,0.455,0.045,0.689c0,0.445,0.172,0.842,0.291,1.252
	c0.035,0.121,0.08,0.24,0.112,0.365c0.017,0.063,0.091,0.141-0.041,0.182c-0.033,0.018-0.011,0.061-0.004,0.074
	c0.053,0.166,0.113,0.33,0.152,0.498c0.019,0.08,0.091,0.059,0.125,0.109c0.322,0.457,0.572,0.959,0.617,1.525
	c0.078,0.979-0.409,1.854-1.294,2.262c-0.89,0.414-1.761,0.396-2.558-0.227c-0.594-0.459-0.884-1.094-0.937-1.836
	c-0.008-0.098-0.058-0.199,0.036-0.285c0.021-0.021-0.006-0.063-0.017-0.098c-0.141-0.457-0.282-0.914-0.424-1.377
	c-0.018-0.053-0.048-0.102,0.044-0.115c0.051-0.02,0.019-0.064,0.009-0.104c-0.133-0.428-0.268-0.873-0.408-1.301
	c-0.035-0.104-0.043-0.168,0.097-0.188c0.131-0.012,0.258-0.059,0.388-0.092C23.827,55.975,23.826,55.965,23.826,55.957z"/>
<path fill="#020202" d="M21.493,52.672c0.074,0.068,0.139-0.004,0.204-0.006c0.103,0.002,0.103-0.061,0.092-0.133
	c-0.004-0.033,0.005-0.061,0.044-0.064c0.044-0.002,0.05,0.029,0.048,0.057c-0.012,0.113,0.051,0.121,0.141,0.113
	c0.165-0.02,0.33-0.02,0.493-0.041c0.124-0.02,0.21,0.01,0.267,0.123c0.015,0.029,0.036,0.057,0.061,0.092
	c-0.052,0.031-0.107,0.023-0.16,0.029c-0.22,0.016-0.439,0.029-0.658,0.049c-0.047,0.006-0.112-0.018-0.116,0.072
	c0.001,0.051-0.053,0.033-0.063,0.008c-0.033-0.074-0.091-0.057-0.15-0.063c-0.178-0.01-0.285-0.137-0.271-0.313
	c0.005-0.047,0.021-0.088,0.059-0.121c0.036-0.025,0.075-0.033,0.119-0.008c0.036,0.018,0.055,0.051,0.05,0.094
	c-0.002,0.045-0.036,0.064-0.07,0.078C21.552,52.648,21.519,52.625,21.493,52.672z"/>
<path fill="#020202" d="M22.047,53.102c0.131-0.006,0.262-0.02,0.392-0.027c0.057-0.004,0.106-0.021,0.067-0.098
	c-0.012-0.018-0.026-0.047,0.005-0.063c0.026-0.012,0.048,0.004,0.066,0.025c0.061,0.072,0.078,0.158,0.053,0.248
	c-0.026,0.088-0.094,0.127-0.18,0.137c-0.235,0.021-0.472,0.033-0.708,0.057c-0.05,0.008-0.125-0.021-0.109,0.088
	c0.005,0.041-0.048,0.027-0.066-0.004c-0.042-0.07-0.091-0.15-0.053-0.236c0.033-0.082,0.112-0.09,0.191-0.1
	C21.822,53.121,21.934,53.111,22.047,53.102C22.047,53.104,22.047,53.104,22.047,53.102z"/>
<path fill="#020202" d="M22.322,52.311c-0.142,0.014-0.284,0.027-0.428,0.039c-0.045-0.004-0.082-0.021-0.106-0.059
	c-0.064-0.098-0.025-0.176,0.088-0.188c0.135-0.01,0.269-0.021,0.403-0.025c0.063-0.01,0.133-0.023,0.16,0.059
	c0.021,0.068-0.031,0.111-0.079,0.145C22.349,52.289,22.334,52.299,22.322,52.311z"/>
<path fill="#020202" d="M22.322,52.311c-0.001-0.043,0.025-0.068,0.055-0.094c0.026-0.021,0.061-0.035,0.038-0.08
	c-0.024-0.041-0.059-0.053-0.105-0.049c-0.148,0.01-0.294,0.02-0.444,0.031c-0.033,0.004-0.075-0.004-0.083,0.039
	c-0.008,0.043-0.014,0.086,0.03,0.113c0.031,0.02,0.064,0.043,0.081,0.076c-0.015,0.021-0.025,0.053-0.043,0.076
	c-0.037,0.045-0.066,0.031-0.074-0.02c-0.012-0.084-0.015-0.162-0.025-0.24c-0.008-0.064,0.037-0.063,0.079-0.066
	c0.171-0.014,0.339-0.021,0.506-0.039c0.059-0.004,0.148,0.006,0.088-0.104c-0.01-0.02-0.006-0.045,0.018-0.053
	c0.03-0.016,0.049,0.012,0.064,0.027c0.058,0.076,0.072,0.164,0.038,0.25C22.506,52.293,22.422,52.318,22.322,52.311z"/>
<path fill="#020202" d="M21.396,52.281c0.002-0.092,0.049-0.146,0.135-0.152c0.083-0.004,0.146,0.047,0.149,0.137
	c0.004,0.084-0.048,0.143-0.128,0.146C21.465,52.418,21.41,52.373,21.396,52.281z"/>
<path fill="#020202" d="M28.543,59.1c0.128,0.564,0.035,1.1-0.301,1.563c-0.534,0.727-1.281,1.004-2.153,0.859
	c-0.862-0.141-1.354-0.725-1.607-1.535c-0.044-0.141-0.053-0.277-0.071-0.428c-0.009-0.078,0.01-0.123,0.084-0.154
	c0.125-0.066,0.245-0.133,0.359-0.219c-0.096,0.021-0.195,0.039-0.289,0.072c-0.063,0.016-0.092-0.004-0.111-0.064
	c-0.123-0.396-0.249-0.801-0.375-1.197c-0.027-0.078,0-0.105,0.074-0.115c0.314-0.072,0.626-0.146,0.941-0.217
	c0.06-0.021,0.112-0.021,0.089-0.115c-0.02-0.08-0.057-0.09-0.131-0.066c-0.269,0.072-0.542,0.127-0.815,0.191
	c-0.086,0.027-0.134,0.014-0.163-0.088c-0.112-0.385-0.23-0.771-0.355-1.15c-0.029-0.092-0.008-0.105,0.08-0.129
	c0.487-0.111,0.973-0.225,1.459-0.342c0.028-0.01,0.06-0.01,0.083-0.041c-0.478-0.09-0.949-0.174-1.423-0.256
	c-0.238-0.043-0.235-0.041-0.267-0.279c-0.053-0.389-0.106-0.77-0.165-1.156c-0.014-0.086,0.011-0.129,0.088-0.166
	c0.375-0.178,0.749-0.371,1.119-0.563c-0.003-0.051-0.038-0.035-0.059-0.043c-0.881-0.201-1.485-0.879-1.59-1.775
	c-0.028-0.234-0.024-0.473,0.02-0.707c0.015-0.07,0.042-0.111,0.124-0.129c0.217-0.043,0.432-0.104,0.648-0.182
	c-0.141-0.002-0.283-0.016-0.427-0.012c-0.085-0.004-0.116-0.023-0.12-0.113c-0.011-0.414-0.029-0.83-0.047-1.244
	c-0.003-0.066,0.016-0.094,0.083-0.078c0.09,0.012,0.187-0.014,0.276,0.016c0.023,0.105-0.033,0.197-0.058,0.297
	c-0.014,0.234,0.041,0.473,0.027,0.705c-0.004,0.078,0.069,0.074,0.122,0.078c0.286,0.021,0.573,0.027,0.858,0.035
	c0.415,0.01,0.828,0.025,1.239,0.037c0.036-0.002,0.067,0.008,0.1,0.016c0.196,0.055,0.196,0.055,0.133,0.262
	c-0.014,0.035-0.056,0.063-0.031,0.105c0.119,0.355,0.141,0.701-0.037,1.045c-0.065,0.121-0.138,0.24-0.27,0.311
	c-0.303,0.088-0.603,0.139-0.903-0.02c-0.327-0.166-0.496-0.445-0.556-0.801c-0.019-0.115-0.021-0.232-0.027-0.354
	c-0.002-0.059-0.015-0.105-0.08-0.104c-0.23,0.018-0.453,0.049-0.64,0.193c-0.175,0.064-0.177,0.209-0.169,0.361
	c0.021,0.406,0.123,0.785,0.375,1.113c0.291,0.375,0.683,0.57,1.146,0.633c0.054,0.014,0.109,0.014,0.162,0.025
	c0.097,0.029,0.194-0.002,0.29,0.002c0.043,0.002,0.098-0.012,0.116,0.035c0.019,0.059-0.028,0.082-0.067,0.107
	c-0.162,0.098-0.333,0.18-0.504,0.264c-0.289,0.133-0.56,0.299-0.845,0.436c-0.086,0.043-0.125,0.119-0.141,0.213
	c-0.032,0.063-0.051,0.121-0.04,0.191c0.042,0.236,0.083,0.479,0.102,0.727c0.011,0.152,0.043,0.186,0.201,0.211
	c0.704,0.125,1.407,0.258,2.111,0.381c0.057,0.012,0.119,0.01,0.156,0.072c0.008,0.09-0.068,0.078-0.12,0.094
	c-0.568,0.143-1.139,0.275-1.711,0.396c-0.147,0.031-0.283,0.082-0.379,0.201c-0.076,0.039-0.08,0.104-0.058,0.174
	c0.052,0.166,0.108,0.328,0.157,0.494c0.027,0.1,0.075,0.131,0.167,0.1c0.244-0.055,0.486-0.109,0.73-0.164
	c0.168-0.031,0.208-0.018,0.254,0.146c0.039,0.143,0.087,0.279,0.082,0.434c-0.03,0.064-0.091,0.084-0.153,0.102
	c-0.136,0.029-0.267,0.078-0.405,0.094c-0.165,0.023-0.301,0.094-0.413,0.219c-0.072,0.029-0.071,0.082-0.051,0.152
	c0.05,0.168,0.095,0.334,0.155,0.5c0.046,0.129,0.062,0.139,0.196,0.104c0.707-0.156,1.407-0.334,2.112-0.488
	c0.067-0.021,0.133-0.033,0.202-0.033c0.164,0.02,0.181,0.094,0.068,0.264c-0.002,0.061,0.037,0.098,0.061,0.141
	c0.172,0.313,0.249,0.639,0.138,0.994c-0.022,0.068-0.044,0.137-0.099,0.188c-0.185,0.145-0.377,0.268-0.613,0.305
	c-0.099,0.018-0.199,0.021-0.26-0.086c0.046-0.045,0.11-0.043,0.167-0.055c0.396-0.104,0.581-0.385,0.524-0.789
	c-0.021-0.145-0.077-0.271-0.156-0.396c-0.049-0.072-0.114-0.104-0.204-0.086c-0.296,0.074-0.593,0.139-0.89,0.205
	c-0.082,0.025-0.106,0.074-0.109,0.148c-0.003,0.084,0.026,0.17-0.003,0.252c-0.061,0.041-0.065-0.014-0.076-0.053
	c-0.02-0.061-0.049-0.125-0.088-0.182c-0.054-0.076-0.124-0.096-0.207-0.051c-0.133,0.09-0.274,0.168-0.417,0.24
	c-0.096,0.043-0.134,0.145-0.198,0.223c-0.046,0.041-0.052,0.098-0.042,0.154c0.137,0.811,0.824,1.545,1.764,1.498
	c0.308-0.018,0.587-0.105,0.866-0.215c0.49-0.143,0.811-0.467,1.009-0.916c0.117-0.275,0.195-0.553,0.156-0.855
	C28.511,59.188,28.503,59.137,28.543,59.1z"/>
<path fill="#020202" d="M23.511,49.492c0.056-0.076,0.041-0.18,0.088-0.26c0.247,0.004,0.494,0.012,0.74,0.02
	c0.083,0.004,0.071-0.047,0.08-0.096c0.011-0.063-0.015-0.092-0.08-0.092c-0.283-0.008-0.568-0.023-0.85-0.023
	c-0.101-0.002-0.146-0.02-0.149-0.139c-0.007-0.4-0.026-0.803-0.047-1.199c-0.006-0.102,0.036-0.104,0.11-0.098
	c0.423,0.021,0.845,0.027,1.267,0.045c0.058,0.002,0.113,0,0.175-0.025c-0.167-0.078-0.337-0.168-0.505-0.25
	c-0.26-0.127-0.515-0.256-0.777-0.377c-0.09-0.041-0.122-0.082-0.106-0.188c0.068-0.426,0.125-0.854,0.18-1.281
	c0.009-0.072,0.034-0.104,0.111-0.117c1.172-0.223,2.343-0.443,3.516-0.67c0.082-0.016,0.11-0.006,0.103,0.09
	c-0.035,0.441-0.065,0.885-0.092,1.33c-0.003,0.074-0.03,0.105-0.109,0.113c-0.13,0.012-0.262,0.039-0.392,0.051
	c-0.079,0.008-0.099,0.043-0.105,0.109c-0.011,0.113-0.024,0.23-0.046,0.338c-0.019,0.094,0.012,0.145,0.097,0.174
	c0.115,0.041,0.221,0.104,0.336,0.146c0.065,0.027,0.093,0.061,0.072,0.135c-0.15,0.494-0.165,0.998-0.116,1.506
	c0.011,0.111,0.002,0.225,0.014,0.332c0.006,0.08-0.018,0.1-0.097,0.096c-0.359-0.018-0.719-0.021-1.077-0.039
	c-0.088-0.004-0.101,0.029-0.108,0.105c-0.006,0.098,0.058,0.076,0.108,0.076c0.315,0.012,0.632,0.025,0.949,0.027
	c0.095,0.004,0.121,0.035,0.123,0.127c0.007,0.303,0.032,0.604,0.031,0.898c-0.001,0.111,0.094,0.178,0.083,0.283
	c-0.136-0.004-0.263-0.057-0.391-0.1c-0.041-0.012-0.045-0.057-0.044-0.098c-0.005-0.059-0.015-0.111,0.019-0.162
	c0.104-0.023,0.137-0.084,0.134-0.191c-0.002-0.154-0.037-0.309-0.032-0.467c0.003-0.098-0.069-0.131-0.154-0.133
	c-0.239-0.012-0.479-0.023-0.719-0.027c-0.24-0.004-0.322-0.092-0.308-0.328c0.004-0.066,0.005-0.135,0.004-0.201
	c-0.003-0.063,0.012-0.117,0.076-0.145c0.276-0.021,0.553,0.006,0.83,0.012c0.088,0.004,0.18,0.012,0.221-0.098
	c0.112-0.063,0.145-0.152,0.139-0.281c-0.004-0.125,0.005-0.246-0.012-0.367c-0.032-0.244-0.008-0.479,0.063-0.715
	c0.037-0.131,0.016-0.176-0.104-0.236c-0.033-0.016-0.068-0.027-0.101-0.045c-0.25-0.125-0.282-0.18-0.232-0.447
	c0.035-0.182,0.022-0.375,0.1-0.549c0.051-0.066,0.128-0.066,0.202-0.068c0.106,0,0.193-0.031,0.249-0.127
	c0.102-0.051,0.133-0.141,0.138-0.24c0.008-0.148,0.022-0.301,0.027-0.455c0.006-0.172-0.033-0.199-0.201-0.17
	c-0.453,0.076-0.9,0.18-1.354,0.256c-0.453,0.078-0.901,0.184-1.353,0.256c-0.079,0.014-0.144,0.047-0.19,0.111
	c-0.129,0.059-0.155,0.168-0.171,0.295c-0.029,0.225-0.056,0.443-0.095,0.666c-0.021,0.107,0.015,0.172,0.116,0.221
	c0.582,0.283,1.162,0.57,1.742,0.854c0.042,0.021,0.086,0.041,0.121,0.066c0.022,0.021,0.043,0.045,0.006,0.074
	c-0.13,0.045-0.268,0.045-0.4,0.039c-0.456-0.016-0.912-0.035-1.367-0.049c-0.122-0.004-0.212,0.031-0.294,0.115
	c-0.089,0.021-0.111,0.084-0.103,0.172c0.016,0.154,0.024,0.314,0.018,0.479c-0.007,0.127,0.018,0.146,0.145,0.154
	c0.223,0.014,0.446,0.014,0.669,0.021c0.065,0.004,0.127,0.004,0.188,0.025c0.048,0.012,0.092,0.041,0.09,0.09
	c0.002,0.174,0.023,0.354-0.036,0.523c-0.036,0.049-0.086,0.041-0.138,0.049c-0.198,0.018-0.396-0.006-0.594-0.02
	c-0.115-0.006-0.208,0.014-0.278,0.107C23.608,49.527,23.557,49.539,23.511,49.492z"/>
<path fill="#020202" d="M26.64,50.455c-0.02,0.072,0.039,0.068,0.083,0.078c0.109,0.018,0.217,0.049,0.317,0.104
	c0.041,0.07,0.069,0.148,0.071,0.232c0.107,0.594,0.019,1.137-0.354,1.623c-0.047,0.059-0.056,0.102,0.025,0.133
	c0.071,0.031,0.097,0.104,0.139,0.158c0.066,0.191,0.086,0.396,0.135,0.592c0.034,0.145,0.058,0.291,0.094,0.436
	c0.019,0.076,0.005,0.119-0.076,0.152c-0.119,0.043-0.231,0.104-0.347,0.152c-0.068,0.025-0.093,0.063-0.08,0.131
	c0.025,0.129,0.042,0.258,0.056,0.395c0.004,0.063,0.049,0.078,0.101,0.086c0.129,0.01,0.26,0.045,0.389,0.057
	c0.089,0.008,0.114,0.051,0.113,0.127c-0.002,0.645,0.139,1.252,0.363,1.846c0.033,0.094,0.013,0.121-0.083,0.143
	c-0.34,0.07-0.677,0.152-1.016,0.232c-0.057,0.014-0.125,0.01-0.1,0.113c0.026,0.102,0.079,0.082,0.148,0.063
	c0.304-0.072,0.61-0.139,0.913-0.213c0.097-0.033,0.123,0.006,0.147,0.09c0.082,0.279,0.171,0.555,0.257,0.84
	c0.019,0.063,0.033,0.113,0.116,0.092c0.039-0.021,0.063,0.01,0.083,0.041c0.197,0.297,0.35,0.605,0.409,0.959
	c0.058,0.377-0.022,0.73-0.18,1.066c-0.148,0.326-0.391,0.564-0.687,0.746c-0.094,0.064-0.212,0.078-0.317,0.115
	c-0.003-0.064,0.055-0.074,0.094-0.105c0.201-0.119,0.368-0.277,0.521-0.457c0.483-0.547,0.527-1.16,0.269-1.82
	c-0.027-0.061-0.055-0.139-0.091-0.207c-0.051-0.098-0.128-0.137-0.232-0.113c-0.13,0.033-0.265,0.049-0.397,0.078
	c-0.079,0.02-0.117,0.072-0.171,0.117c-0.072,0.029-0.141,0.074-0.224,0.033c0.008-0.02,0.025-0.025,0.045-0.033
	c0.066-0.021,0.073-0.07,0.065-0.127c-0.01-0.063-0.071-0.043-0.108-0.043c0.006-0.064,0.053-0.066,0.093-0.074
	c0.099-0.025,0.193-0.061,0.293-0.078c0.053-0.01,0.092-0.029,0.116-0.082c0.109-0.098,0.119-0.211,0.065-0.34
	c-0.042-0.1-0.078-0.217-0.112-0.32c-0.031-0.102-0.091-0.137-0.192-0.113c-0.234,0.037-0.463,0.1-0.691,0.154
	c-0.076,0.021-0.148,0.029-0.225,0.012c-0.063-0.016-0.113-0.049-0.129-0.104c-0.031-0.139-0.08-0.268-0.106-0.406
	c-0.008-0.045-0.005-0.092,0.028-0.129c0.038-0.045,0.096-0.051,0.148-0.064c0.241-0.063,0.485-0.109,0.727-0.168
	c0.057-0.014,0.105-0.027,0.125-0.092c0.105-0.074,0.112-0.174,0.068-0.287c-0.052-0.143-0.088-0.299-0.134-0.434
	c-0.05-0.16-0.085-0.318-0.064-0.484c0.002-0.02,0.001-0.021,0.003-0.037c0.002-0.32-0.03-0.355-0.346-0.42
	c-0.205-0.033-0.255-0.086-0.293-0.293c-0.042-0.225-0.073-0.447-0.062-0.682c0.029-0.076,0.105-0.092,0.17-0.121
	c0.07-0.029,0.144-0.055,0.177-0.133c0.066-0.068,0.109-0.135,0.089-0.238c-0.031-0.164-0.073-0.326-0.102-0.492
	c-0.02-0.105-0.062-0.121-0.154-0.076c-0.554,0.287-1.114,0.568-1.672,0.852c-0.322,0.17-0.646,0.32-0.971,0.49
	c-0.049,0.025-0.1,0.07-0.164,0.031c-0.022-0.107,0.05-0.193,0.129-0.229c0.421-0.221,0.848-0.428,1.273-0.643
	c0.06-0.029,0.121-0.063,0.173-0.129c-0.141-0.033-0.272,0.041-0.401-0.002c0.067-0.068,0.16-0.053,0.241-0.059
	c0.455-0.018,0.832-0.205,1.154-0.518c0.074-0.074,0.117-0.178,0.206-0.238c0.14-0.092,0.208-0.232,0.265-0.377
	c0.154-0.381,0.17-0.773,0.086-1.17c-0.025-0.117-0.087-0.178-0.21-0.189c-0.108-0.006-0.218-0.012-0.328-0.027
	c-0.111-0.02-0.198,0.008-0.263,0.102c-0.063,0.035-0.126,0.014-0.19,0.008c-0.039-0.068,0.026-0.045,0.05-0.057
	c0.049-0.086,0.064-0.209,0.205-0.203c-0.02-0.02-0.034-0.045,0.002-0.063C26.35,50.398,26.497,50.391,26.64,50.455z"/>
<path fill="#020202" d="M26.918,52.783c-0.086-0.049-0.132-0.146-0.243-0.17c-0.049-0.008-0.021-0.063,0.004-0.092
	c0.202-0.215,0.3-0.479,0.385-0.756c0.059-0.184,0.035-0.373,0.056-0.561c0.014-0.107-0.009-0.227-0.014-0.336
	c0.137,0.51,0.11,1.006-0.117,1.482C26.924,52.494,26.875,52.627,26.918,52.783z"/>
<path fill="#020202" d="M21.615,54.84c0.008,0.145,0.063,0.281,0.02,0.434c-0.018,0.063,0.051,0.092,0.083,0.135
	c0.012,0.021,0.029,0.018,0.042-0.004c0.03-0.045,0.026-0.09,0.006-0.133c-0.013-0.035-0.02-0.07-0.03-0.104
	c0.075,0.098,0.169,0.094,0.271,0.086c0.181-0.021,0.362-0.029,0.543-0.045c0.055-0.002,0.11-0.021,0.146,0.053
	c0.013,0.02,0.036,0.043,0.063,0.021c0.026-0.025,0.014-0.049,0.013-0.066c-0.011-0.15-0.019-0.314-0.036-0.473
	c-0.035-0.314-0.293-0.504-0.633-0.48C21.787,54.293,21.596,54.525,21.615,54.84z M22.419,54.555
	c0.075,0.016,0.143,0.049,0.187,0.117c0.117,0.182,0.077,0.262-0.126,0.273c-0.096,0.01-0.194,0.02-0.292,0.023
	c-0.131,0.008-0.261,0.021-0.392,0.027c-0.064,0.018-0.088-0.012-0.093-0.078c-0.013-0.146,0.06-0.275,0.216-0.332
	C22.083,54.533,22.25,54.521,22.419,54.555z"/>
<path fill="#020202" d="M21.768,55.658c-0.135,0.234-0.089,0.531,0.113,0.721c0.19,0.176,0.491,0.201,0.702,0.059
	c0.071-0.049,0.143-0.17,0.195-0.156c0.074,0.018,0.129,0.121,0.212,0.213c-0.081-0.27-0.272-0.414-0.431-0.58
	c-0.021-0.02-0.063-0.018-0.103-0.02c-0.064-0.018-0.14,0.002-0.183-0.061c-0.083-0.121-0.133-0.123-0.213-0.004
	c-0.009-0.146-0.009-0.146,0.141-0.16c0.069-0.004,0.114-0.008,0.036-0.07c-0.021,0.02-0.044,0.025-0.068,0.027
	c-0.071,0.021-0.172-0.025-0.186,0.1c-0.009,0.074-0.077,0.146-0.036,0.232c0.024,0.047-0.014,0.063-0.041,0.072
	c-0.04,0.029-0.05,0.066-0.015,0.104c0.018,0.023,0.059,0.061,0.07,0.023c0.013-0.027,0.096-0.043,0.034-0.104
	c-0.015-0.016-0.038-0.027-0.009-0.051c0.01-0.008,0.023-0.012,0.035-0.008c0.025,0.012,0.055,0.027,0.046,0.057
	c-0.042,0.127,0.061,0.129,0.13,0.146c0.097,0.012,0.198,0.02,0.313,0.025c-0.032-0.063-0.077-0.061-0.12-0.059
	c-0.074-0.004-0.142-0.021-0.208-0.049c-0.052-0.021-0.047-0.063-0.03-0.105c0.025-0.057,0.057-0.014,0.082,0.008
	c0.118,0.063,0.246,0.104,0.377,0.146c0.103,0.025,0.092,0.064,0.031,0.139c-0.15,0.158-0.385,0.211-0.583,0.113
	c-0.202-0.092-0.316-0.307-0.284-0.529c0.032-0.229,0.189-0.373,0.428-0.42l0,0c0.318-0.039,0.575,0.189,0.57,0.51
	c-0.001,0.023-0.009,0.064-0.006,0.086c0.004,0.021,0.023,0.041,0.041,0.051c0.028,0.012,0.027-0.025,0.032-0.047
	c0.005-0.02,0.009-0.063,0.011-0.086c0.011-0.254-0.166-0.498-0.416-0.574C22.178,55.314,21.896,55.426,21.768,55.658z
	 M22.361,55.951c0.119-0.002,0.185,0.053,0.252,0.104C22.528,56.055,22.458,56.012,22.361,55.951z"/>
<path fill="#020202" d="M22.494,53.496c0.068,0.061,0.098,0.139,0.09,0.229c-0.011,0.104-0.135,0.209-0.257,0.195
	c-0.117-0.006-0.05-0.109-0.071-0.168c-0.01-0.021-0.005-0.053-0.008-0.074c-0.005-0.063-0.011-0.135-0.015-0.203
	c-0.003-0.043-0.022-0.063-0.066-0.055c-0.13,0.021-0.255,0.127-0.29,0.258c-0.056,0.195,0.039,0.4,0.224,0.486
	c0.195,0.074,0.42-0.014,0.527-0.188c0.099-0.172,0.06-0.438-0.083-0.557c-0.022-0.018-0.041-0.047-0.073-0.018
	C22.444,53.457,22.47,53.475,22.494,53.496z M22.119,53.936c-0.085-0.002-0.171-0.02-0.176-0.117
	c-0.005-0.098,0.079-0.119,0.156-0.135c0.118-0.021,0.058,0.08,0.084,0.127C22.165,53.854,22.231,53.938,22.119,53.936z"/>
<path fill="#F04949" d="M26.805,53.66c0.009,0.061-0.018,0.09-0.074,0.109c-0.088,0.039-0.175,0.08-0.262,0.123
	c-0.14,0.094-0.128,0.223-0.098,0.365c0.032,0.164,0.063,0.334,0.073,0.502c0.006,0.107,0.054,0.154,0.16,0.17
	c0.092,0.012,0.186,0.023,0.277,0.041c0.089,0.014,0.149,0.064,0.15,0.162c0.008,0.453,0.098,0.895,0.256,1.324
	c0.011,0.027,0.009,0.063,0.001,0.104c0.021,0.078-0.018,0.102-0.086,0.111c-0.307,0.072-0.617,0.129-0.917,0.217
	c-0.149,0.098-0.149,0.098-0.111,0.273c0.026,0.109,0.05,0.227,0.077,0.334c0.02,0.09,0.064,0.115,0.156,0.096
	c0.283-0.07,0.568-0.133,0.852-0.203c0.156-0.033,0.189-0.021,0.236,0.129c0.052,0.166,0.107,0.334,0.155,0.5
	c0.012,0.043,0.021,0.084,0.012,0.125c0.008,0.066-0.022,0.102-0.088,0.115c-0.147,0.029-0.292,0.074-0.44,0.104
	c-0.381,0.064-0.751,0.166-1.126,0.252c-0.412,0.094-0.825,0.188-1.236,0.283c-0.114,0.029-0.146-0.01-0.172-0.105
	c-0.051-0.186-0.107-0.361-0.171-0.549c-0.037-0.1-0.031-0.166,0.094-0.184c0.251-0.119,0.527-0.143,0.79-0.215
	c0.087-0.025,0.151-0.055,0.162-0.154c-0.035-0.156-0.072-0.316-0.104-0.479c-0.017-0.088-0.059-0.102-0.143-0.08
	c-0.283,0.07-0.568,0.131-0.851,0.201c-0.077,0.021-0.105-0.002-0.125-0.068c-0.06-0.205-0.121-0.406-0.192-0.604
	c-0.036-0.105-0.006-0.148,0.093-0.162c0.124-0.074,0.265-0.086,0.398-0.123c0.675-0.16,1.352-0.318,2.037-0.48
	c-0.077-0.02-0.16-0.014-0.219-0.07c-0.528-0.102-1.053-0.193-1.58-0.285c-0.253-0.047-0.507-0.098-0.762-0.133
	c-0.094-0.014-0.129-0.057-0.138-0.143c-0.04-0.295-0.079-0.59-0.125-0.883c-0.009-0.063,0.011-0.107,0.063-0.148
	c0.356-0.158,0.696-0.346,1.043-0.521c0.548-0.271,1.092-0.553,1.64-0.824c0.037-0.021,0.079-0.031,0.118-0.047
	c0.035,0.018,0.051,0.057,0.061,0.096c0.049,0.207,0.096,0.42,0.133,0.629C26.817,53.584,26.808,53.623,26.805,53.66z"/>
<path fill="#F04949" d="M26.64,50.455c-0.152-0.004-0.305-0.006-0.458-0.008c-0.094,0.045-0.188-0.027-0.281-0.01
	c-0.354-0.012-0.709-0.029-1.062-0.043c-0.406-0.016-0.81-0.027-1.216-0.039c-0.051-0.006-0.098-0.004-0.098-0.07
	c0.008-0.27-0.043-0.529-0.017-0.795c0.05-0.002,0.103-0.004,0.151-0.008c0.159-0.055,0.317-0.008,0.478-0.016
	c0.102-0.002,0.204-0.002,0.302,0.008c0.104,0.014,0.173-0.021,0.207-0.121c0.008-0.172,0.019-0.346,0.025-0.518
	c0.003-0.064-0.045-0.068-0.094-0.068c-0.295-0.01-0.59-0.025-0.884-0.027c-0.088-0.004-0.118-0.031-0.12-0.117
	c-0.004-0.223-0.012-0.439-0.026-0.652c-0.01-0.135,0.089-0.078,0.145-0.1c0.087-0.053,0.183-0.023,0.272-0.023
	c0.664,0.021,1.33,0.047,1.995,0.064c0.008,0.002,0.018-0.002,0.021-0.01c-0.064-0.051-0.162-0.055-0.206-0.139
	c-0.447-0.223-0.897-0.447-1.346-0.67c-0.205-0.102-0.408-0.203-0.615-0.301c-0.078-0.037-0.101-0.08-0.089-0.166
	c0.043-0.273,0.085-0.549,0.113-0.828c0.013-0.109,0.05-0.178,0.164-0.195c0.15-0.09,0.324-0.092,0.488-0.121
	c0.777-0.15,1.56-0.299,2.337-0.445c0.204-0.039,0.234-0.012,0.225,0.191c-0.01,0.168-0.023,0.336-0.038,0.506
	c-0.004,0.045-0.005,0.094-0.039,0.133c-0.002,0.102-0.059,0.131-0.154,0.137c-0.097,0.006-0.196,0.012-0.288,0.047
	c-0.097,0.051-0.125,0.133-0.138,0.234c-0.024,0.197-0.044,0.396-0.078,0.592c-0.017,0.104,0.017,0.162,0.111,0.199
	c0.101,0.037,0.195,0.074,0.29,0.129c0.072,0.037,0.097,0.096,0.08,0.17c-0.008,0.033-0.015,0.064-0.023,0.102
	c-0.071,0.271-0.102,0.549-0.061,0.832c0.02,0.131,0.01,0.262-0.019,0.393c0.015,0.125-0.048,0.145-0.157,0.137
	c-0.308-0.014-0.614-0.02-0.922-0.025c-0.107,0.023-0.152,0.094-0.15,0.201c0,0.111-0.003,0.23-0.008,0.34
	c-0.004,0.145,0.009,0.16,0.155,0.168c0.257,0.014,0.514,0.02,0.773,0.025c0.215,0.004,0.247,0.027,0.264,0.244
	c0.008,0.104,0.018,0.211,0.024,0.313c0.002,0.064,0.009,0.127-0.033,0.184C26.643,50.344,26.642,50.398,26.64,50.455z"/>
<path fill="#F04949" d="M27.983,60.5c-0.173,0.217-0.39,0.385-0.624,0.525c-0.241,0.105-0.487,0.195-0.753,0.217
	c-0.77,0.063-1.416-0.303-1.75-1c-0.083-0.176-0.146-0.346-0.178-0.539c-0.015-0.082,0.008-0.127,0.074-0.162
	c0.16-0.148,0.364-0.223,0.549-0.324c0.04-0.021,0.082-0.029,0.11,0.018c0.049,0.105,0.054,0.229,0.093,0.344
	c0.12,0.354,0.322,0.641,0.707,0.727c0.254,0.059,0.504,0.018,0.729-0.123c0.136-0.08,0.233-0.201,0.338-0.313
	c0.171-0.285,0.159-0.598,0.055-0.906c-0.05-0.145-0.133-0.271-0.208-0.404c0.074-0.021,0.148-0.037,0.223-0.057
	c0.165-0.098,0.355-0.098,0.536-0.131c0.064-0.016,0.108,0.043,0.137,0.096c0.311,0.574,0.412,1.166,0.125,1.775
	C28.104,60.34,28.033,60.414,27.983,60.5z"/>
<path fill="#F04949" d="M26.6,52.424c-0.375,0.533-0.892,0.777-1.535,0.781c-0.025,0-0.052,0.004-0.076,0.008
	c-0.258-0.029-0.511-0.07-0.746-0.189c-0.56-0.279-0.853-0.748-0.947-1.355c-0.019-0.125-0.017-0.252-0.025-0.377
	c-0.01-0.135,0.031-0.23,0.18-0.25c0.122-0.088,0.269-0.092,0.407-0.125c0.268-0.063,0.265-0.061,0.256,0.211
	c-0.007,0.207,0.017,0.406,0.096,0.6c0.202,0.488,0.681,0.643,1.147,0.506c0.113-0.027,0.223-0.08,0.324-0.143
	c0.252-0.197,0.352-0.469,0.363-0.773c0.005-0.189-0.029-0.389-0.098-0.568c0.054-0.063,0.124,0.004,0.183-0.021
	c0.207-0.045,0.411-0.016,0.616,0.021c0.055,0.01,0.077,0.063,0.09,0.119c0.105,0.463,0.119,0.922-0.087,1.359
	C26.709,52.297,26.657,52.361,26.6,52.424z"/>
<path fill="#F4F4F4" d="M25.789,51.188c0.043,0.563-0.319,0.93-0.817,0.855c-0.222-0.035-0.386-0.156-0.48-0.355
	c-0.15-0.314-0.117-0.633-0.002-0.949c0.018-0.047,0.054-0.047,0.091-0.047c0.334,0.012,0.668,0.021,1.003,0.033
	c0.053,0,0.073,0.031,0.094,0.068C25.747,50.92,25.782,51.063,25.789,51.188z"/>
<path fill="#F4F4F4" d="M25.733,59.395c-0.003-0.104-0.024-0.229-0.012-0.34c0.004-0.055,0.016-0.082,0.076-0.098
	c0.333-0.074,0.666-0.15,0.998-0.232c0.074-0.016,0.118-0.002,0.16,0.064c0.107,0.162,0.188,0.34,0.205,0.535
	c0.035,0.404-0.225,0.723-0.633,0.771c-0.033,0.002-0.066,0.006-0.1,0.01c-0.153,0.053-0.272-0.025-0.381-0.113
	c-0.181-0.139-0.271-0.334-0.326-0.555C25.717,59.424,25.725,59.41,25.733,59.395z"/>
<path fill="#020202" d="M25.682,52.086c-0.49,0.467-1.353,0.213-1.549-0.459c-0.058-0.203-0.08-0.414-0.044-0.625
	c0.019-0.105-0.019-0.105-0.095-0.088c-0.182,0.045-0.363,0.084-0.543,0.125c0.027-0.105,0.124-0.115,0.199-0.139
	c0.15-0.033,0.294-0.1,0.454-0.1c0.098-0.002,0.133,0.025,0.133,0.127c0.001,0.287,0.025,0.57,0.199,0.822
	c0.256,0.363,0.604,0.467,0.989,0.396C25.512,52.135,25.597,52.107,25.682,52.086z"/>
<path fill="#020202" d="M25.733,59.395c0.028,0.076,0.052,0.162,0.084,0.238c0.115,0.268,0.304,0.447,0.608,0.475
	c0.217,0.107,0.41,0.025,0.6-0.07c0.088-0.051,0.169-0.117,0.254-0.168c-0.063,0.15-0.166,0.254-0.307,0.33
	c-0.567,0.27-1.061-0.039-1.294-0.479c-0.065-0.125-0.114-0.262-0.142-0.391c-0.012-0.064-0.031-0.146-0.133-0.09
	c-0.045-0.025-0.08,0.008-0.114,0.027c-0.18,0.1-0.359,0.188-0.537,0.281c0.061-0.146,0.167-0.234,0.31-0.295
	c0.103-0.041,0.196-0.113,0.293-0.166c0.13-0.074,0.182-0.059,0.271,0.068C25.685,59.223,25.69,59.316,25.733,59.395z"/>
<path fill="#020202" d="M26.356,55.809c0.115,0.016,0.232,0.035,0.348,0.053c0,0.01,0.001,0.02,0.002,0.027
	c-0.172,0.035-0.343,0.08-0.514,0.121c-0.658,0.15-1.316,0.307-1.976,0.461c-0.024,0.006-0.051,0.002-0.076,0.008
	c0.085-0.191,0.275-0.195,0.436-0.232c0.537-0.119,1.077-0.229,1.608-0.375C26.244,55.857,26.329,55.906,26.356,55.809z"/>
<path fill="#020202" d="M25.467,57.684c0.046,0.1,0.032,0.15-0.088,0.178c-0.29,0.057-0.576,0.125-0.865,0.189
	c0.147-0.242,0.418-0.189,0.631-0.27C25.251,57.746,25.375,57.764,25.467,57.684z"/>
<path fill="#020202" d="M25.902,50.439c0.093-0.012,0.188-0.006,0.281,0.012c0.019,0.008,0.035,0.018,0.057,0.029
	c-0.091,0.037-0.191,0.063-0.19,0.189c0,0.006-0.036,0.01-0.053,0.018c-0.002-0.021-0.012-0.049-0.003-0.063
	C26.067,50.508,26.045,50.443,25.902,50.439z"/>
<path fill="#020202" d="M26.98,45.873c0.014-0.23,0.021-0.465,0.043-0.695c0.011-0.113-0.025-0.125-0.125-0.105
	c-0.918,0.18-1.836,0.354-2.753,0.523c-0.045,0.01-0.091,0.01-0.137,0.018c0.059-0.18,0.229-0.148,0.361-0.176
	c0.324-0.061,0.648-0.127,0.973-0.191c0.182-0.035,0.363-0.072,0.545-0.1c0.373-0.057,0.739-0.15,1.112-0.215
	c0.116-0.021,0.175,0.012,0.176,0.129c0.004,0.232-0.006,0.473-0.046,0.703C27.114,45.848,27.052,45.861,26.98,45.873z"/>
<path fill="#020202" d="M26.7,48.699c-0.032-0.438-0.078-0.879,0.063-1.305c0.028-0.086,0.013-0.135-0.075-0.17
	c-0.109-0.037-0.208-0.098-0.314-0.133c-0.085-0.031-0.109-0.078-0.095-0.164c0.039-0.246,0.075-0.494,0.1-0.742
	c0.012-0.105,0.059-0.148,0.161-0.135c-0.029,0.225-0.052,0.449-0.092,0.67c-0.023,0.125,0.034,0.193,0.131,0.246
	c0.075,0.041,0.152,0.074,0.229,0.104c0.098,0.047,0.144,0.119,0.107,0.234c-0.067,0.213-0.116,0.428-0.079,0.656
	c0.031,0.188,0.013,0.377,0.017,0.57C26.854,48.637,26.798,48.689,26.7,48.699z"/>
<path fill="#020202" d="M26.646,50.287c-0.011-0.186-0.029-0.369-0.029-0.557c0.002-0.123-0.052-0.143-0.159-0.146
	c-0.312-0.004-0.625-0.023-0.938-0.023c-0.09-0.002-0.108-0.035-0.103-0.113c0.007-0.154,0.013-0.314,0.017-0.471
	c0.002-0.18,0-0.18,0.187-0.164c-0.02,0.021-0.047,0.039-0.042,0.072c0.016,0.104,0,0.211,0,0.316c0,0.152,0.069,0.221,0.226,0.227
	c0.266,0.01,0.53,0.01,0.795,0.021c0.095,0.004,0.181,0.057,0.172,0.148c-0.022,0.189,0.036,0.375,0.025,0.563
	C26.792,50.271,26.767,50.303,26.646,50.287z"/>
<path fill="#020202" d="M25.782,47.768c0.11,0.051,0.221,0.104,0.332,0.152c-0.001,0.014-0.004,0.029-0.005,0.043
	c-0.803-0.029-1.606-0.063-2.412-0.09c0.061-0.107,0.145-0.129,0.271-0.129c0.358-0.004,0.713,0.033,1.07,0.033
	C25.288,47.781,25.534,47.805,25.782,47.768z"/>
<path fill="#020202" d="M24.65,49.359c0.011,0.166,0.011,0.172-0.143,0.164c-0.28-0.012-0.563,0-0.844-0.033
	c0.025-0.111,0.088-0.137,0.202-0.135C24.125,49.363,24.387,49.408,24.65,49.359z"/>
<path fill="#020202" d="M27.287,56.549c-0.173-0.428-0.285-0.879-0.281-1.359c0.001-0.129-0.035-0.186-0.174-0.195
	c-0.104,0-0.208-0.031-0.315-0.041c-0.066-0.01-0.094-0.033-0.104-0.104c-0.03-0.225-0.071-0.469-0.099-0.699
	c-0.023-0.211-0.063-0.18,0.155-0.256c0.011,0.242,0.033,0.488,0.081,0.736c0.022,0.113,0.082,0.188,0.209,0.197
	c0.004,0,0.008,0,0.012-0.002c0.368,0.033,0.454,0.145,0.41,0.508c-0.02,0.15,0.014,0.301,0.053,0.438
	c0.047,0.184,0.095,0.354,0.16,0.52C27.439,56.432,27.404,56.504,27.287,56.549z"/>
<path fill="#020202" d="M27.983,60.5c0.102-0.205,0.215-0.408,0.259-0.643c0.103-0.508-0.027-0.967-0.269-1.404
	c-0.032-0.063-0.072-0.061-0.127-0.043c-0.165,0.029-0.331,0.063-0.497,0.094c0.055-0.184,0.23-0.123,0.35-0.172
	c0.036-0.027,0.084-0.008,0.125-0.021c0.234-0.068,0.303-0.021,0.401,0.197c0.125,0.273,0.21,0.559,0.208,0.859
	C28.43,59.807,28.302,60.191,27.983,60.5z"/>
<path fill="#020202" d="M27.657,58.129c-0.09-0.209-0.143-0.436-0.207-0.639c-0.024-0.08-0.051-0.109-0.142-0.082
	c-0.313,0.084-0.635,0.145-0.949,0.225c-0.074,0.021-0.117,0.014-0.133-0.08c-0.03-0.162-0.061-0.332-0.114-0.49
	c-0.047-0.139,0.013-0.164,0.122-0.176c0.019,0,0.035,0,0.052-0.002c-0.04,0.102,0.024,0.189,0.039,0.268
	c0.009,0.064,0.034,0.105,0.043,0.145c0.038,0.178,0.113,0.223,0.284,0.172c0.259-0.076,0.519-0.135,0.784-0.178
	c0.085-0.021,0.14,0.018,0.165,0.094c0.065,0.182,0.128,0.354,0.184,0.537C27.812,58.033,27.708,58.066,27.657,58.129z"/>
<path fill="#020202" d="M26.6,52.424c0.291-0.482,0.327-1,0.203-1.539c-0.021-0.082-0.046-0.127-0.147-0.129
	c-0.176-0.002-0.353-0.025-0.527-0.037c0.037-0.113,0.111-0.143,0.227-0.123c0.128,0.023,0.26,0.029,0.389,0.033
	c0.128-0.002,0.204,0.07,0.226,0.184c0.067,0.35,0.092,0.701-0.022,1.047C26.875,52.074,26.815,52.297,26.6,52.424z"/>
<path fill="#020202" d="M26.805,53.66c-0.063-0.275-0.125-0.559-0.189-0.832c0.002-0.043,0.021-0.076,0.07-0.074
	c0.051,0.006,0.08,0.037,0.103,0.08c0.063,0.115,0.042,0.248,0.082,0.369c0.025,0.072,0.04,0.15,0.051,0.23
	C26.934,53.543,26.904,53.617,26.805,53.66z"/>
<path fill="#020202" d="M25.734,54.707c0.005,0.033,0.012,0.063,0.018,0.102c0.011,0.063-0.011,0.086-0.073,0.08
	c-0.344-0.037-0.688-0.07-1.033-0.105c-0.038-0.006-0.063-0.021-0.067-0.063c-0.005-0.043,0.003-0.076,0.047-0.092
	c0.052-0.02,0.104-0.035,0.155-0.057c0.023-0.02,0.047-0.012,0.069,0.01c0.167,0.053,0.343,0.039,0.513,0.064
	c0.057,0.014,0.118,0.016,0.176,0.029C25.602,54.695,25.679,54.656,25.734,54.707z"/>
<path fill="#020202" d="M24.837,54.598c-0.014-0.02-0.035-0.016-0.056-0.014c0.263-0.125,0.54-0.23,0.808-0.338
	c0.056-0.025,0.086-0.018,0.094,0.057c0.013,0.141,0.056,0.268,0.051,0.416c-0.066-0.01-0.136,0.035-0.2-0.006
	c0.005-0.021,0.024-0.049,0.026-0.068c0.004-0.084-0.005-0.182-0.066-0.232c-0.053-0.053-0.118,0.02-0.175,0.033
	c-0.115,0.039-0.22,0.107-0.335,0.148C24.938,54.594,24.892,54.625,24.837,54.598z"/>
<path fill="#020202" d="M25.666,46.584c-0.002,0.242-0.002,0.242-0.225,0.15c-0.266-0.104-0.533-0.213-0.797-0.32
	c-0.044-0.02-0.104-0.023-0.096-0.098c0.007-0.076,0.067-0.076,0.121-0.086c0.058-0.004,0.115-0.004,0.175-0.008
	c0.036,0.025-0.027,0.051,0,0.078c0.207,0.053,0.397,0.15,0.594,0.229C25.519,46.531,25.599,46.523,25.666,46.584z"/>
<path fill="#020202" d="M24.8,46.316c-0.035-0.004-0.061-0.014-0.019-0.045c0.021-0.018,0.058-0.01,0.063-0.049
	c0.27-0.027,0.54-0.061,0.812-0.09c0.067-0.01,0.08,0.023,0.072,0.08c-0.019,0.121-0.042,0.246-0.063,0.369
	c-0.077-0.004-0.153-0.031-0.233-0.014c-0.005-0.061,0.008-0.115,0.012-0.176c0.011-0.115-0.01-0.133-0.123-0.133
	C25.147,46.264,24.977,46.328,24.8,46.316z"/>
<path fill="#020202" d="M25.406,59.232c0.014-0.021-0.022-0.072,0.031-0.078c0.051,0.002,0.088,0.027,0.11,0.076
	c0.042,0.1,0.051,0.219,0.097,0.324c0.156,0.361,0.39,0.633,0.802,0.695c0.176,0.023,0.357,0.01,0.528-0.057
	c-0.376,0.283-0.921,0.23-1.237-0.125C25.525,59.832,25.421,59.549,25.406,59.232z"/>
<path fill="#F0EFF0" d="M24.837,54.598c0.201-0.08,0.401-0.17,0.601-0.262c0.065-0.027,0.097-0.025,0.114,0.055
	c0.014,0.066,0.031,0.146,0.054,0.221c0.019,0.064-0.009,0.098-0.071,0.098c-0.197-0.018-0.395-0.037-0.592-0.061
	C24.904,54.633,24.856,54.654,24.837,54.598z"/>
<path fill="#EBECEC" d="M24.8,46.316c0.205-0.074,0.424-0.074,0.635-0.1c0.035-0.002,0.062,0.006,0.056,0.047
	c-0.012,0.105,0.01,0.213-0.057,0.307C25.228,46.475,25.018,46.383,24.8,46.316z"/>
<path fill="#020202" d="M26.989,53.33c0.155-0.023,0.312-0.055,0.467-0.078c0.044-0.006,0.091,0.004,0.136,0.008
	c0.009,0,0.022,0.018,0.029,0.002c0.04-0.018,0.08-0.027,0.12-0.063c-0.023-0.004-0.049-0.012-0.073-0.008
	c-0.058,0.002-0.115,0.006-0.169,0.014c-0.031,0.004-0.045-0.01-0.047-0.039c-0.004-0.133-0.011-0.266-0.022-0.395
	c-0.006-0.092,0.004-0.176,0.051-0.254c0.018-0.033,0.008-0.063-0.008-0.092c-0.066-0.123-0.094-0.258-0.091-0.393
	c0.001-0.146,0.031-0.279,0.108-0.396c0.071-0.111,0.176-0.188,0.309-0.225c0.038-0.012,0.077-0.021,0.117-0.027
	c-0.085-0.063-0.181-0.031-0.271-0.041c-0.055-0.01-0.109-0.014-0.165-0.016c-0.03-0.004-0.042-0.018-0.041-0.051
	c0.002-0.021,0.005-0.043,0.006-0.064c0.005-0.047-0.016-0.072-0.063-0.072c-0.078-0.002-0.155,0.01-0.231,0.006
	c-0.067-0.004-0.132-0.02-0.198-0.025c0.01-0.166,0.02-0.324,0.029-0.488c0.004-0.023,0.004-0.055,0.007-0.08
	c0.006-0.043,0.04-0.066,0.083-0.063c0.116,0.008,0.231,0.016,0.348,0.021c0.052,0.006,0.112-0.002,0.159,0.021
	c0.097,0.043,0.189-0.01,0.282,0.004c0.146,0.02,0.293,0.023,0.441,0.039c0.059,0.008,0.118,0.012,0.178,0.02
	c0.04,0.006,0.054-0.014,0.063-0.055c0.023-0.102-0.049-0.141-0.101-0.189c-0.007-0.012-0.042-0.002-0.056,0.01
	c-0.063,0.047-0.13,0.086-0.21,0.105c-0.142,0.039-0.358-0.025-0.454-0.146c-0.146-0.184-0.153-0.389-0.126-0.605
	c0.013-0.105,0.045-0.205,0.093-0.303c0.071-0.145,0.166-0.268,0.341-0.297c0.013-0.004,0.033-0.008,0.046-0.004
	c0.111,0.021,0.222,0.039,0.334,0.063c0.009,0.002,0.018,0.018,0.021,0.031c0.003,0.012,0,0.025,0,0.043
	c0.003,0.027,0.011,0.047,0.044,0.021c0.118-0.076,0.247-0.096,0.379-0.063c0.123,0.025,0.226,0.098,0.295,0.207
	c0.117,0.184,0.124,0.381,0.084,0.584c-0.03,0.156-0.098,0.299-0.203,0.426c-0.015,0.016-0.023,0.035-0.042,0.063
	c0.032,0.012,0.054,0.014,0.077,0.014c0.051,0.008,0.063,0.021,0.056,0.074c-0.014,0.094-0.021,0.184-0.032,0.273
	c-0.012,0.121-0.024,0.24-0.123,0.332c-0.034,0.025-0.07,0.053-0.103,0.09c0.039,0.002,0.079,0.006,0.117,0
	c0.068,0.004,0.075,0.016,0.066,0.086c-0.007,0.051-0.003,0.102-0.008,0.148c-0.004,0.084-0.004,0.176-0.017,0.262
	c-0.027,0.172-0.151,0.279-0.339,0.281c-0.191-0.002-0.384-0.012-0.576-0.014c-0.132,0.002-0.166,0.063-0.106,0.18
	c0.052,0.104,0.148,0.141,0.257,0.143c0.156-0.006,0.315-0.018,0.468-0.021c0.082,0,0.163,0,0.243-0.002
	c0.03,0.006,0.05,0.014,0.052,0.053c0.019,0.344,0.041,0.684,0.058,1.027c0.006,0.104-0.033,0.193-0.122,0.27
	c-0.003,0.002-0.008,0.008-0.011,0.016c-0.002,0.002-0.001,0.006-0.006,0.021c0.028,0,0.056,0.006,0.08,0.004
	c0.084-0.01,0.087-0.01,0.101,0.074c0.021,0.146,0.041,0.289,0.054,0.438c0.01,0.104-0.07,0.217-0.162,0.262
	c-0.118,0.049-0.244,0.061-0.365,0.09c-0.124,0.033-0.249,0.041-0.374,0.068c-0.067,0.016-0.082,0.061-0.039,0.109
	c0.067,0.08,0.156,0.105,0.254,0.086c0.22-0.035,0.438-0.096,0.656-0.137c0.038-0.014,0.087-0.025,0.112-0.021
	c0.025,0.018,0.024,0.068,0.032,0.104c0.031,0.145,0.063,0.273,0.094,0.426c0.012,0.061,0.001,0.063-0.057,0.07
	c-0.156,0.035-0.309,0.08-0.466,0.109c-0.117,0.035-0.235,0.064-0.354,0.092c-0.031,0.01-0.062,0.027-0.086,0.043
	c-0.012,0.008-0.013,0.043-0.004,0.061c0.028,0.057,0.082,0.09,0.141,0.1c0.081,0.018,0.16-0.004,0.237-0.021
	c0.073-0.025,0.143-0.045,0.219-0.07c0.124-0.029,0.249-0.07,0.378-0.104c0.071-0.021,0.071-0.016,0.089,0.059
	c0.018,0.066,0.045,0.141,0.066,0.215c0.026,0.086,0.047,0.176,0.068,0.264c0.006,0.021,0,0.047-0.03,0.059
	c-0.154,0.045-0.308,0.088-0.46,0.141c-0.129,0.041-0.26,0.084-0.389,0.133c-0.07,0.025-0.084,0.063-0.053,0.139
	c0.024,0.057,0.023,0.055-0.034,0.066c-0.145,0.049-0.289,0.1-0.433,0.15c-0.032,0.016-0.054,0.012-0.068-0.021
	c-0.02-0.051-0.037-0.1-0.052-0.143c-0.032-0.102-0.067-0.211-0.093-0.309c-0.009-0.041-0.002-0.088,0.004-0.127
	c0.009-0.063,0.004-0.105-0.035-0.145c-0.124-0.139-0.178-0.303-0.178-0.486c0-0.084,0.01-0.164,0.05-0.24
	c0.014-0.021,0.008-0.049-0.013-0.063c-0.1-0.098-0.166-0.215-0.199-0.342c-0.028-0.102-0.04-0.227-0.017-0.34
	c0.022-0.104,0.061-0.195,0.132-0.27c0.064-0.068,0.138-0.117,0.229-0.146c0.009-0.004,0.018-0.008,0.024-0.016
	c0.002-0.004,0.005-0.01,0.013-0.023c-0.033-0.002-0.061-0.01-0.088-0.006c-0.103,0.016-0.204,0.025-0.304,0.045
	c-0.071,0.016-0.085,0.01-0.094-0.059c-0.012-0.105-0.012-0.105-0.116-0.096c-0.125,0.018-0.251,0.027-0.378,0.039
	C27.02,53.732,27.004,53.531,26.989,53.33z M28.177,55.979c-0.022,0.041-0.055,0.08-0.059,0.117
	c-0.004,0.059,0.008,0.117,0.021,0.172c0.018,0.072,0.047,0.145,0.066,0.217c0.013,0.061,0.021,0.064,0.076,0.059
	c0.07-0.023,0.141-0.047,0.209-0.078c0.022-0.01,0.039-0.023,0.025-0.059c-0.01-0.027-0.017-0.059-0.026-0.086
	c-0.008-0.021,0-0.037,0.021-0.045c0.071-0.023,0.141-0.049,0.211-0.07c0.229-0.074,0.462-0.146,0.693-0.223
	c0.033-0.008,0.044-0.025,0.034-0.059c-0.021-0.063-0.039-0.117-0.055-0.188c-0.031-0.111-0.051-0.121-0.166-0.092
	c-0.08,0.029-0.163,0.053-0.244,0.08c-0.082,0.027-0.167,0.045-0.248,0.08c-0.127,0.031-0.244,0.006-0.353-0.055
	c-0.071-0.039-0.103-0.109-0.124-0.182c-0.017-0.063,0-0.107,0.045-0.146c0.072-0.063,0.158-0.072,0.242-0.086
	c0.087-0.027,0.178-0.041,0.265-0.064c0.122-0.027,0.242-0.063,0.363-0.092c0.048-0.01,0.061-0.021,0.05-0.072
	c-0.017-0.084-0.036-0.164-0.055-0.248c-0.007-0.029-0.027-0.053-0.061-0.043c-0.079,0.027-0.164,0.033-0.244,0.055
	c-0.087,0.025-0.176,0.035-0.261,0.063c-0.123,0.039-0.239,0.041-0.359-0.012c-0.099-0.051-0.179-0.135-0.178-0.26
	c0-0.045,0.011-0.086,0.053-0.107c0.051-0.029,0.106-0.047,0.161-0.063c0.202-0.037,0.408-0.076,0.611-0.109
	c0.098-0.02,0.161-0.1,0.149-0.201c-0.011-0.102-0.03-0.189-0.045-0.297c-0.007-0.033-0.031-0.043-0.064-0.037
	c-0.041,0.01-0.084,0.02-0.127,0.025c-0.121,0.01-0.121,0.01-0.111,0.127c0.003,0.029-0.004,0.051-0.037,0.055
	c-0.155,0.021-0.309,0.043-0.46,0.064c-0.067,0.018-0.137,0.027-0.198,0.059c-0.057,0.025-0.115,0.063-0.159,0.098
	c-0.086,0.084-0.118,0.188-0.116,0.313c0.006,0.152,0.034,0.303,0.144,0.42c0.038,0.047,0.085,0.078,0.127,0.119
	c0.016,0.021,0.044,0.021,0.02,0.061c-0.057,0.064-0.085,0.129-0.097,0.211c-0.025,0.182,0.031,0.326,0.135,0.463
	C28.084,55.9,28.134,55.939,28.177,55.979z M28.27,52.848c0.212-0.012,0.391-0.016,0.57-0.021c0.037-0.004,0.06-0.023,0.06-0.064
	c-0.005-0.086-0.012-0.178-0.017-0.266c-0.003-0.031-0.016-0.047-0.049-0.045c-0.193,0.01-0.388,0.01-0.581,0.014
	c-0.038,0-0.073,0.006-0.108,0c-0.163-0.031-0.278-0.129-0.306-0.301c-0.013-0.074-0.027-0.152,0.037-0.215
	c0.057-0.055,0.131-0.061,0.205-0.059c0.034,0,0.068,0.01,0.103,0.006c0.124-0.002,0.25,0.002,0.375,0.002
	c0.049,0.002,0.099,0,0.148-0.002c0.086-0.008,0.146-0.051,0.16-0.139c0.021-0.111,0.023-0.232,0.032-0.344
	c0-0.018-0.026-0.039-0.041-0.041c-0.064-0.012-0.129-0.018-0.197-0.021c-0.072-0.006-0.083,0.006-0.087,0.08
	c-0.005,0.088-0.005,0.088-0.09,0.08c-0.008,0-0.017,0-0.022,0c-0.074-0.002-0.149-0.004-0.225-0.006
	c-0.12,0.002-0.237,0.002-0.357,0.006c-0.068-0.004-0.125,0.033-0.183,0.064c-0.132,0.082-0.183,0.213-0.196,0.354
	c-0.018,0.188,0.003,0.371,0.136,0.525c0.013,0.016,0.02,0.029-0.001,0.047c-0.09,0.061-0.098,0.156-0.101,0.25
	c-0.004,0.076,0.007,0.148,0.014,0.229c0.003,0.057,0.016,0.064,0.067,0.059c0.071-0.002,0.142-0.006,0.209-0.02
	c0.047-0.004,0.057-0.018,0.05-0.063c-0.004-0.021,0-0.037-0.005-0.063c-0.014-0.053,0.013-0.061,0.055-0.061
	C28.052,52.865,28.178,52.854,28.27,52.848z M29.114,49.756c0-0.16-0.098-0.336-0.224-0.396c-0.12-0.059-0.309-0.049-0.413,0.055
	c-0.088,0.088-0.151,0.193-0.212,0.297c-0.041,0.066-0.083,0.137-0.123,0.203c-0.02,0.027-0.056,0.045-0.083,0.025
	c-0.022-0.012-0.041-0.039-0.045-0.063c-0.013-0.07-0.002-0.146,0.031-0.217c0.021-0.039,0.05-0.051,0.091-0.039
	c0.053,0.014,0.077-0.002,0.086-0.057c0.008-0.043,0.015-0.086,0.022-0.125c0.009-0.045,0.018-0.086,0.024-0.129
	c0.006-0.025-0.003-0.047-0.04-0.049c-0.027,0-0.055-0.01-0.08-0.016c-0.118-0.031-0.217,0.002-0.291,0.102
	c-0.073,0.1-0.116,0.209-0.141,0.324c-0.022,0.111-0.033,0.225-0.011,0.34c0.031,0.164,0.108,0.283,0.279,0.326
	c0.126,0.031,0.229-0.012,0.32-0.09c0.099-0.084,0.153-0.201,0.223-0.314c0.048-0.068,0.098-0.145,0.15-0.215
	c0.021-0.027,0.079-0.066,0.101-0.039c0.023,0.027,0.023,0.104,0.021,0.137c-0.01,0.066-0.029,0.145-0.06,0.203
	c-0.038,0.074-0.104,0.131-0.176,0.186c-0.038,0.023-0.039,0.047-0.009,0.078c0.042,0.051,0.084,0.092,0.125,0.137
	c0.047,0.055,0.069,0.057,0.127,0.012c0.09-0.07,0.156-0.156,0.208-0.258C29.086,50.047,29.116,49.906,29.114,49.756z
	 M27.826,50.664c-0.126,0.004-0.185,0.018-0.219,0.143c-0.026,0.09-0.029,0.191-0.042,0.283c-0.004,0.029-0.005,0.063,0,0.096
	c0.004,0.021,0.024,0.037,0.038,0.039c0.069,0.008,0.142,0.012,0.213,0.021c0.058,0.002,0.066-0.012,0.065-0.072
	c-0.001-0.107-0.001-0.107,0.107-0.104c0.01-0.002,0.019,0,0.026,0c0.12,0.014,0.239,0.023,0.362,0.035
	c0.108,0.004,0.219,0.018,0.328,0.021c0.152,0.01,0.221-0.064,0.231-0.193c0.007-0.086,0.018-0.168,0.03-0.252
	c0.004-0.037-0.005-0.051-0.043-0.057c-0.069-0.008-0.138-0.02-0.207-0.027c-0.042-0.006-0.062,0-0.07,0.041
	c-0.003,0.023-0.007,0.043-0.005,0.064c0.005,0.033-0.013,0.055-0.048,0.051c-0.064-0.01-0.124-0.016-0.187-0.023
	c-0.106-0.008-0.211-0.021-0.315-0.029C27.991,50.678,27.888,50.67,27.826,50.664z M28.158,53.293
	c0.001,0.008,0.002,0.02,0.002,0.02c-0.13,0.012-0.26,0.021-0.389,0.031c-0.099,0.008-0.161,0.057-0.161,0.156
	c-0.003,0.129,0.019,0.26,0.032,0.395c0.001,0.023,0.025,0.029,0.053,0.025c0.075-0.014,0.149-0.029,0.224-0.039
	c0.027-0.006,0.038-0.025,0.033-0.051c-0.004-0.021-0.008-0.059-0.011-0.082c-0.004-0.027,0.008-0.043,0.038-0.049
	c0.26-0.027,0.52-0.061,0.778-0.088c0.145-0.021,0.189-0.088,0.186-0.225c0-0.09-0.014-0.178-0.023-0.264
	c-0.004-0.037-0.02-0.061-0.057-0.053c-0.053-0.004-0.107,0-0.163,0.01c-0.101,0.006-0.104,0.014-0.094,0.111
	c0,0.006,0.001,0.012,0.002,0.021c0.003,0.021-0.012,0.043-0.04,0.045C28.428,53.271,28.291,53.285,28.158,53.293z M27.084,50.959
	c0,0.045,0.011,0.057,0.068,0.057c0.077,0.006,0.151,0.01,0.228,0.018c0.05,0.004,0.066-0.006,0.074-0.055
	c0.009-0.09,0.016-0.18,0.025-0.27c0.003-0.033-0.012-0.059-0.048-0.063c-0.079-0.006-0.157-0.014-0.235-0.021
	c-0.058-0.008-0.081,0.004-0.087,0.061C27.099,50.771,27.094,50.861,27.084,50.959z M27.279,53.41v0.002
	c-0.044,0.006-0.093,0.008-0.139,0.008c-0.027,0.008-0.043,0.021-0.04,0.051c0.008,0.102,0.017,0.193,0.026,0.295
	c0.002,0.025,0.017,0.045,0.047,0.041c0.089-0.01,0.178-0.02,0.268-0.029c0.039-0.006,0.055-0.027,0.051-0.068
	c-0.003-0.021-0.013-0.053-0.017-0.074c-0.009-0.064-0.014-0.123-0.02-0.189c-0.004-0.031-0.02-0.051-0.057-0.045
	C27.359,53.408,27.318,53.41,27.279,53.41z M28.415,51.389c0.038,0.004,0.05-0.01,0.049-0.047c0.001-0.021,0.003-0.049,0.005-0.072
	c0.004-0.037-0.013-0.053-0.051-0.053c-0.109-0.008-0.216-0.018-0.325-0.029c-0.067-0.004-0.083,0.01-0.082,0.078
	c0.001,0.025-0.001,0.055,0.005,0.082c0.002,0.01,0.024,0.033,0.036,0.033C28.173,51.385,28.292,51.387,28.415,51.389z
	 M28.398,53.77l-0.001-0.002c-0.083,0.012-0.168,0.023-0.252,0.039c-0.05,0.012-0.059,0.023-0.049,0.068
	c0.004,0.021,0.011,0.057,0.013,0.07c0.002,0.025,0.021,0.045,0.049,0.035c0.119-0.023,0.24-0.037,0.357-0.061
	c0.031-0.006,0.043-0.021,0.038-0.047c-0.008-0.043,0.016-0.096-0.037-0.121c-0.007-0.006-0.02-0.002-0.032-0.002
	C28.458,53.766,28.43,53.766,28.398,53.77z M28.239,52.975L28.239,52.975c-0.035,0.002-0.068,0.002-0.103,0.006
	c-0.147,0.012-0.125-0.004-0.116,0.139c0.003,0.037,0.02,0.053,0.054,0.049c0.093-0.01,0.187-0.018,0.277-0.025
	c0.136-0.008,0.118,0,0.117-0.127c-0.002-0.051-0.011-0.063-0.056-0.057C28.354,52.965,28.296,52.971,28.239,52.975z"/>
<path fill="#F4F4F4" d="M28.177,55.979c-0.042-0.039-0.091-0.078-0.131-0.125c-0.102-0.133-0.159-0.285-0.136-0.463
	c0.014-0.082,0.04-0.154,0.096-0.213c0.026-0.025-0.003-0.041-0.019-0.053c-0.042-0.041-0.089-0.078-0.127-0.121
	c-0.108-0.119-0.136-0.262-0.142-0.418c-0.003-0.125,0.03-0.232,0.116-0.318c0.043-0.041,0.1-0.07,0.158-0.102
	c0.062-0.023,0.133-0.031,0.198-0.051c0.152-0.029,0.306-0.047,0.461-0.064c0.033-0.014,0.04-0.025,0.038-0.061
	c-0.009-0.107-0.009-0.107,0.111-0.131c0.042-0.006,0.085-0.016,0.126-0.021c0.034-0.006,0.057,0.006,0.063,0.037
	c0.016,0.104,0.034,0.189,0.046,0.297c0.012,0.104-0.05,0.189-0.149,0.201c-0.203,0.037-0.408,0.072-0.611,0.107
	c-0.055,0.02-0.109,0.033-0.16,0.068c-0.042,0.018-0.051,0.063-0.053,0.107c-0.002,0.123,0.08,0.217,0.178,0.262
	c0.119,0.055,0.235,0.051,0.359,0.014c0.085-0.029,0.173-0.039,0.261-0.063c0.08-0.021,0.163-0.033,0.244-0.053
	c0.035-0.006,0.054,0.008,0.062,0.043c0.019,0.078,0.036,0.16,0.055,0.246c0.011,0.059,0,0.064-0.05,0.072
	c-0.121,0.029-0.241,0.066-0.363,0.09c-0.087,0.025-0.178,0.037-0.266,0.064c-0.082,0.025-0.169,0.035-0.241,0.082
	c-0.046,0.033-0.063,0.086-0.045,0.15c0.022,0.068,0.054,0.145,0.125,0.182c0.109,0.064,0.228,0.096,0.353,0.051
	c0.081-0.027,0.166-0.049,0.248-0.07c0.082-0.025,0.164-0.047,0.245-0.076c0.116-0.035,0.135-0.031,0.166,0.09
	c0.015,0.063,0.033,0.115,0.054,0.182c0.011,0.031-0.001,0.055-0.033,0.063c-0.23,0.074-0.463,0.146-0.693,0.225
	c-0.07,0.023-0.14,0.049-0.21,0.07c-0.021,0.012-0.031,0.027-0.021,0.047c0.01,0.021,0.016,0.061,0.026,0.088
	c0.01,0.023-0.001,0.053-0.024,0.061c-0.068,0.029-0.14,0.051-0.21,0.074c-0.054,0.018-0.063-0.006-0.076-0.053
	c-0.019-0.064-0.046-0.145-0.066-0.223c-0.014-0.057-0.027-0.107-0.021-0.172C28.122,56.059,28.153,56.02,28.177,55.979z"/>
<path fill="#F4F4F4" d="M28.27,52.848c-0.092,0.006-0.218,0.018-0.345,0.025c-0.042,0.002-0.068,0.008-0.054,0.059
	c0.004,0.02,0,0.039,0.004,0.061c0.007,0.053-0.002,0.063-0.049,0.07c-0.071,0.002-0.141,0.008-0.21,0.018
	c-0.052,0.002-0.065-0.012-0.068-0.059c-0.005-0.076-0.015-0.148-0.013-0.23c0.002-0.092,0.011-0.188,0.101-0.248
	c0.021-0.018,0.017-0.029,0.001-0.049c-0.132-0.154-0.153-0.338-0.136-0.523c0.014-0.145,0.063-0.27,0.196-0.354
	c0.057-0.033,0.115-0.066,0.184-0.063c0.12-0.002,0.236-0.004,0.357-0.006c0.073,0,0.147,0,0.225,0.004c0.006,0,0.014,0,0.021,0.002
	c0.084,0.004,0.084,0.004,0.09-0.082c0.006-0.064,0.017-0.078,0.088-0.078c0.067,0.006,0.132,0.012,0.197,0.021
	c0.015,0.002,0.041,0.023,0.04,0.041c-0.008,0.115-0.011,0.232-0.031,0.344c-0.013,0.086-0.075,0.127-0.16,0.137
	c-0.049,0.004-0.1,0.002-0.148,0.004c-0.124,0.002-0.25-0.002-0.374,0c-0.036-0.002-0.068-0.006-0.102-0.004
	c-0.075-0.008-0.149,0-0.206,0.057c-0.063,0.061-0.049,0.141-0.037,0.213c0.029,0.174,0.144,0.266,0.306,0.303
	c0.037,0.008,0.072,0.004,0.107,0c0.192-0.006,0.387-0.01,0.582-0.014c0.033,0,0.045,0.012,0.047,0.043
	c0.004,0.086,0.012,0.178,0.016,0.27c0.001,0.037-0.02,0.063-0.059,0.064C28.662,52.832,28.483,52.836,28.27,52.848z"/>
<path fill="#F4F4F4" d="M29.114,49.756c0.002,0.15-0.026,0.293-0.094,0.426c-0.054,0.104-0.123,0.188-0.21,0.26
	c-0.059,0.045-0.079,0.037-0.128-0.014c-0.04-0.047-0.083-0.092-0.125-0.137c-0.029-0.031-0.028-0.059,0.009-0.08
	c0.073-0.051,0.139-0.109,0.176-0.189c0.031-0.061,0.053-0.131,0.056-0.201c0.013-0.17-0.1-0.125-0.123-0.098
	c-0.051,0.07-0.103,0.145-0.148,0.217c-0.067,0.113-0.126,0.225-0.223,0.314c-0.091,0.082-0.194,0.123-0.319,0.086
	c-0.172-0.041-0.249-0.162-0.28-0.326c-0.021-0.115-0.011-0.227,0.011-0.34c0.024-0.115,0.067-0.23,0.142-0.322
	c0.074-0.098,0.173-0.133,0.291-0.1c0.027,0.008,0.053,0.012,0.08,0.012c0.035,0.002,0.045,0.02,0.04,0.053
	c-0.007,0.041-0.015,0.084-0.023,0.125c-0.007,0.043-0.013,0.086-0.021,0.127c-0.01,0.055-0.035,0.072-0.088,0.055
	c-0.042-0.012-0.071,0-0.092,0.041c-0.034,0.068-0.045,0.145-0.031,0.217c0.004,0.021,0.023,0.055,0.044,0.064
	c0.03,0.016,0.064,0.004,0.083-0.031c0.041-0.068,0.083-0.131,0.124-0.203c0.063-0.105,0.125-0.211,0.213-0.295
	c0.101-0.104,0.292-0.117,0.41-0.059C29.017,49.42,29.115,49.596,29.114,49.756z"/>
<path fill="#F4F4F4" d="M27.826,50.664c0.063,0.004,0.166,0.016,0.268,0.021c0.104,0.008,0.21,0.021,0.313,0.031
	c0.064,0.008,0.125,0.014,0.188,0.02c0.036,0.008,0.052-0.014,0.049-0.051c-0.002-0.02,0-0.041,0.005-0.061
	c0.008-0.041,0.026-0.049,0.07-0.041c0.067,0.01,0.136,0.02,0.208,0.023c0.037,0.008,0.045,0.021,0.042,0.059
	c-0.014,0.084-0.024,0.166-0.03,0.252c-0.009,0.131-0.078,0.205-0.231,0.189c-0.11-0.008-0.22-0.012-0.329-0.02
	c-0.122-0.01-0.24-0.018-0.361-0.033c-0.009,0-0.017-0.002-0.027-0.002c-0.108-0.002-0.108-0.002-0.108,0.105
	c0.002,0.063-0.009,0.068-0.066,0.068c-0.069-0.006-0.142-0.008-0.214-0.02c-0.013-0.002-0.032-0.023-0.036-0.039
	c-0.006-0.029-0.005-0.063,0-0.094c0.011-0.098,0.014-0.195,0.042-0.287C27.64,50.676,27.698,50.666,27.826,50.664z"/>
<path fill="#F4F4F4" d="M28.158,53.293c0.136-0.01,0.27-0.021,0.406-0.031c0.03-0.002,0.042-0.016,0.04-0.045
	c-0.001-0.006-0.001-0.01,0-0.016c-0.013-0.105-0.009-0.107,0.094-0.115c0.053-0.006,0.107-0.006,0.163-0.012
	c0.037-0.004,0.052,0.016,0.057,0.059c0.007,0.088,0.023,0.176,0.024,0.268c0.002,0.137-0.044,0.199-0.188,0.219
	c-0.258,0.041-0.516,0.063-0.777,0.09c-0.031,0.002-0.042,0.021-0.039,0.045c0.004,0.021,0.007,0.063,0.011,0.086
	c0.004,0.021-0.004,0.047-0.032,0.049c-0.075,0.02-0.148,0.031-0.224,0.039c-0.028,0.004-0.051-0.002-0.054-0.027
	c-0.014-0.137-0.035-0.266-0.032-0.395c0.001-0.105,0.063-0.152,0.163-0.16c0.128-0.012,0.258-0.02,0.387-0.029
	C28.159,53.307,28.159,53.301,28.158,53.293z"/>
<path fill="#F4F4F4" d="M27.084,50.959c0.009-0.102,0.013-0.189,0.022-0.275c0.007-0.059,0.031-0.068,0.089-0.059
	c0.077,0.006,0.156,0.018,0.233,0.02c0.037,0.008,0.05,0.023,0.047,0.059c-0.007,0.094-0.015,0.184-0.024,0.271
	c-0.007,0.049-0.023,0.059-0.074,0.053c-0.076-0.008-0.15-0.012-0.227-0.018C27.096,51.016,27.085,51.004,27.084,50.959z"/>
<path fill="#F4F4F4" d="M27.279,53.41c0.04,0,0.081-0.002,0.122-0.01c0.036-0.004,0.051,0.014,0.055,0.047
	c0.007,0.063,0.014,0.125,0.02,0.188c0.003,0.023,0.014,0.055,0.017,0.072c0.006,0.043-0.011,0.066-0.05,0.074
	c-0.089,0.01-0.178,0.02-0.267,0.027c-0.03,0.008-0.044-0.012-0.046-0.039c-0.01-0.1-0.018-0.195-0.028-0.293
	c-0.001-0.031,0.014-0.045,0.04-0.049c0.047-0.002,0.093-0.006,0.14-0.008C27.278,53.414,27.279,53.41,27.279,53.41z"/>
<path fill="#FCEE23" stroke="#010101" stroke-width="0.15" stroke-miterlimit="10" d="M33.326,36.457l0.922-2.291l0.482,0.575
	l1.934-3.481l0.545,2.287l-2.494,2.58l-0.42-0.677L33.326,36.457z M37.852,39.869l-0.725-0.864l3.419,0.222l-1.948-2.385
	l-3.472,0.654l1.012,0.623l-2.614,0.623L37.852,39.869z"/>
<path fill="none" stroke="#020202" stroke-width="0.15" stroke-miterlimit="10" d="M30.197,39.263
	c-0.781,0.922-3.27,1.293-3.522,1.215"/>
<path fill="#FFFFFF" stroke="#020202" stroke-width="0.15" stroke-miterlimit="10" d="M29.052,41.408l-1.477-0.614l-0.028-0.783
	l1.466-0.283L29.052,41.408z"/>
<path fill="#F4F4F4" d="M32.973,43.732l-3.262,0.225l-0.414-3.454l1.331-0.318c1.918,0.097,2.34,1.875,2.34,1.875L32.973,43.732z"/>
<path fill="none" stroke="#020202" stroke-width="0.15" stroke-miterlimit="10" d="M32.967,42.061c0,0-0.422-1.778-2.34-1.875
	l-1.331,0.318l0.414,3.454l3.262-0.225L32.967,42.061z"/>
<path fill="#FFFFFF" stroke="#020202" stroke-width="0.15" stroke-miterlimit="10" d="M30.542,40.325
	c0.127,0.536-0.204,1.074-0.74,1.202c-0.536,0.128-1.074-0.203-1.202-0.74c-0.127-0.536,0.203-1.074,0.74-1.202
	C29.875,39.457,30.415,39.789,30.542,40.325"/>
<path fill="#FFFFFF" d="M32.651,44.07L32.651,44.07c0.202,0.063,0.418-0.051,0.481-0.254l0.409-1.318
	c0.063-0.201-0.051-0.418-0.253-0.479c-0.202-0.061-0.418,0.053-0.48,0.254l-0.409,1.32C32.335,43.791,32.45,44.008,32.651,44.07"/>
<path fill="#F4F4F4" stroke="#020202" stroke-width="0.15" stroke-miterlimit="10" d="M32.651,44.07L32.651,44.07
	c0.202,0.063,0.418-0.051,0.481-0.254l0.409-1.318c0.063-0.201-0.051-0.418-0.253-0.479c-0.202-0.061-0.418,0.053-0.48,0.254
	l-0.409,1.32C32.335,43.791,32.45,44.008,32.651,44.07z"/>
<path fill="#F4F4F4" d="M30.824,41.008L29.3,40.939c-0.297,0-0.541,0.243-0.542,0.541c0,0.298,0.243,0.542,0.54,0.542l0.542,0.002"
	/>
<path fill="none" stroke="#020202" stroke-width="0.15" stroke-miterlimit="10" d="M30.824,41.008L29.3,40.939
	c-0.297,0-0.541,0.243-0.542,0.541c0,0.298,0.243,0.542,0.54,0.542l0.542,0.002"/>
<path fill="#F4F4F4" d="M29.837,43.105h-0.541c-0.298,0-0.542,0.242-0.542,0.539c0,0.299,0.243,0.543,0.541,0.543l0.541,0.002
	c0,0,2.05-0.041,2.577-0.48"/>
<path fill="none" stroke="#020202" stroke-width="0.15" stroke-miterlimit="10" d="M29.837,43.105h-0.541
	c-0.298,0-0.542,0.242-0.542,0.539c0,0.299,0.243,0.543,0.541,0.543l0.541,0.002c0,0,2.05-0.041,2.577-0.48"/>
<path fill="#F4F4F4" d="M30.271,42.008L28.731,42c-0.297,0-0.542,0.243-0.542,0.542c0,0.297,0.243,0.541,0.541,0.543l1.491,0.041"/>
<path fill="none" stroke="#020202" stroke-width="0.15" stroke-miterlimit="10" d="M30.271,42.008L28.731,42
	c-0.297,0-0.542,0.243-0.542,0.542c0,0.297,0.243,0.541,0.541,0.543l1.491,0.041"/>
<polygon fill="#F4F4F4" points="69.045,61.453 69.832,61.837 70.469,61.009 70.927,60.401 70.219,59.281 68.711,59.622 
	68.519,60.401 68.813,61.203 "/>
<g>
	<path fill="#F4F4F4" stroke="#020202" stroke-width="0.15" stroke-miterlimit="10" d="M70.523,60.584l0.383,0.213
		c0.211,0.117,0.477,0.039,0.594-0.172c0.117-0.209,0.041-0.48-0.17-0.594l-0.383-0.217c-0.209-0.111-0.477-0.039-0.594,0.176
		C70.236,60.201,70.314,60.467,70.523,60.584"/>
	<path fill="#F4F4F4" stroke="#020202" stroke-width="0.15" stroke-miterlimit="10" d="M69.871,61.221l0.611,0.34
		c0.209,0.117,0.477,0.041,0.594-0.17c0.115-0.211,0.041-0.477-0.17-0.594l-0.611-0.34c-0.211-0.117-0.479-0.041-0.596,0.17
		C69.582,60.836,69.66,61.105,69.871,61.221z"/>
	<path fill="#F4F4F4" stroke="#020202" stroke-width="0.15" stroke-miterlimit="10" d="M69.684,59.912l0.73,0.25
		c0.225,0.086,0.479-0.021,0.564-0.25c0.086-0.225-0.025-0.479-0.248-0.563l-0.689-0.256c-0.443-0.182-1.188,0.279-1.135,0.838"/>
	<path fill="#F4F4F4" stroke="#020202" stroke-width="0.15" stroke-miterlimit="10" d="M68.686,59.293l-0.563,0.604
		c-0.156,0.168-0.145,0.438,0.023,0.594v0.002c0.17,0.15,0.436,0.145,0.592-0.023l0.561-0.607c0.156-0.17,0.146-0.434-0.023-0.592
		C69.105,59.115,68.84,59.123,68.686,59.293"/>
	<path fill="#F4F4F4" stroke="#020202" stroke-width="0.15" stroke-miterlimit="10" d="M68.52,60.525c0,0-0.076,1.1,1.313,1.514"/>
	<path fill="#F4F4F4" stroke="#020202" stroke-width="0.15" stroke-miterlimit="10" d="M69.674,62.113l0.385,0.213
		c0.209,0.115,0.479,0.041,0.594-0.17s0.039-0.479-0.17-0.596L70.1,61.348c-0.209-0.115-0.479-0.039-0.594,0.17
		C69.389,61.729,69.465,61.998,69.674,62.113z"/>
</g>
</svg>
