<?xml version="1.0" encoding="utf-8"?>
<!-- Generator: Adobe Illustrator 16.0.0, SVG Export Plug-In . SVG Version: 6.00 Build 0)  -->
<!DOCTYPE svg PUBLIC "-//W3C//DTD SVG 1.1//EN" "http://www.w3.org/Graphics/SVG/1.1/DTD/svg11.dtd">
<svg version="1.1" id="Layer_1" xmlns="http://www.w3.org/2000/svg" xmlns:xlink="http://www.w3.org/1999/xlink" x="0px" y="0px"
	 width="83px" height="83px" viewBox="0 0 83 83" enable-background="new 0 0 83 83" xml:space="preserve">
<rect x="0.046" y="0.017" fill="#ADE1FA" width="82.928" height="82.967"/>
<path fill="#49C8F5" stroke="#231F20" stroke-width="0.15" stroke-miterlimit="10" d="M82.898,45.938H64.914
	c-1.568,0-2.844-1.246-2.844-2.784v-43.1h20.828V45.938z"/>
<path fill="#2F9CBA" stroke="#121212" stroke-width="0.15" stroke-miterlimit="10" d="M70.832,19.883H65.76
	c-0.506,0-0.922-0.415-0.922-0.922v-5.073c0-0.507,0.416-0.922,0.922-0.922h5.072c0.51,0,0.924,0.415,0.924,0.922v5.073
	C71.756,19.469,71.342,19.883,70.832,19.883z"/>
<path fill="#2F9CBA" stroke="#121212" stroke-width="0.15" stroke-miterlimit="10" d="M80.594,18.962V13.89
	c0-0.507-0.416-0.922-0.922-0.922H74.6c-0.508,0-0.924,0.415-0.924,0.922v5.073c0,0.507,0.416,0.922,0.924,0.922h5.072
	C80.178,19.883,80.594,19.469,80.594,18.962z"/>
<path fill="#2F9CBA" stroke="#121212" stroke-width="0.15" stroke-miterlimit="10" d="M71.756,9.508V4.437
	c0-0.508-0.414-0.922-0.924-0.922H65.76c-0.506,0-0.922,0.415-0.922,0.922v5.073c0,0.506,0.416,0.922,0.922,0.922h5.072
	C71.342,10.43,71.756,10.016,71.756,9.508z"/>
<path fill="#2F9CBA" stroke="#121212" stroke-width="0.15" stroke-miterlimit="10" d="M80.594,9.508V4.437
	c0-0.508-0.416-0.922-0.922-0.922H74.6c-0.508,0-0.924,0.415-0.924,0.922v5.073c0,0.506,0.416,0.922,0.924,0.922h5.072
	C80.178,10.43,80.594,10.016,80.594,9.508z"/>
<path fill="#2F9CBA" stroke="#121212" stroke-width="0.15" stroke-miterlimit="10" d="M71.756,28.416v-5.072
	c0-0.507-0.414-0.922-0.924-0.922H65.76c-0.506,0-0.922,0.415-0.922,0.922v5.072c0,0.507,0.416,0.922,0.922,0.922h5.072
	C71.342,29.337,71.756,28.922,71.756,28.416z"/>
<path fill="#2F9CBA" stroke="#121212" stroke-width="0.15" stroke-miterlimit="10" d="M80.594,28.416v-5.072
	c0-0.507-0.416-0.922-0.922-0.922H74.6c-0.508,0-0.924,0.415-0.924,0.922v5.072c0,0.507,0.416,0.922,0.924,0.922h5.072
	C80.178,29.337,80.594,28.922,80.594,28.416z"/>
<path fill="#BDBEC0" d="M83.014,55.075v27.908H0.046V55.238h21.482l3.708-6.918h30.64l3.773,6.61L83.014,55.075z"/>
<path fill="#231F20" d="M37.421,29.956c-0.508,0-1.266-0.087-2.111-0.477c-1.918-0.882-3.389-2.825-4.373-5.776
	c-0.707-2.119-1.237-7.299-1.26-7.519l1.301-0.131c0.006,0.052,0.539,5.255,1.199,7.237c2.02,6.056,5.584,5.341,5.619,5.333
	l0.281,1.275C38.056,29.902,37.812,29.956,37.421,29.956z M53.352,30.592c0.479-1.684,0.674-3.339,0.684-3.408l-1.299-0.151
	c-0.002,0.016-0.193,1.631-0.646,3.214c-0.594,2.077-1.27,2.817-1.701,2.817c-0.68,0-1.951-1.406-2.6-2.355l0,0l-1.08,0.734
	c0.332,0.489,2.072,2.928,3.68,2.928C51.658,34.372,52.627,33.135,53.352,30.592z"/>
<path fill="#8EC641" stroke="#231F20" stroke-width="0.15" stroke-miterlimit="10" d="M23.161,22.853
	c0.112,0.375,0.173,0.771,0.173,1.182c0,2.377-2.013,4.304-4.496,4.304c-2.484,0-4.496-1.927-4.496-4.304
	c0-0.228,0.019-0.45,0.053-0.668c-0.782-0.993-1.283-2.511-1.283-4.212c0-2.992,1.548-5.418,3.458-5.418
	c1.019,0,1.932,0.688,2.565,1.784c0.301-0.061,0.611-0.093,0.932-0.093c2.482,0,4.496,1.927,4.496,4.304
	C24.564,20.96,24.025,22.067,23.161,22.853z"/>
<path fill="#8EC641" stroke="#231F20" stroke-width="0.15" stroke-miterlimit="10" d="M14.726,24.649
	c0,2.037-1.651,3.689-3.688,3.689c-1.301,0-2.444-0.674-3.101-1.692c-0.404,0.291-0.899,0.462-1.435,0.462
	c-1.358,0-2.459-1.102-2.459-2.459c0-0.327,0.064-0.639,0.181-0.925c-1.551-0.047-2.793-1.318-2.793-2.88
	c0-1.592,1.289-2.883,2.881-2.883c0.562,0,1.084,0.161,1.525,0.438c0.521-1.721,2.118-2.973,4.01-2.973
	c2.313,0,4.188,1.875,4.188,4.189c0,0.81-0.23,1.565-0.628,2.207C14.212,22.499,14.726,23.513,14.726,24.649z"/>
<path fill="#B07B4B" stroke="#231F20" stroke-width="0.15" stroke-miterlimit="10" d="M20.451,24.831
	c-0.068,0.009-5.07,0.717-5.07,3.55v14.023c0,0.87-0.707,1.575-1.576,1.575c-0.871,0-1.576-0.705-1.576-1.575v-25.44
	c0-0.87,0.705-1.576,1.576-1.576c0.869,0,1.576,0.706,1.576,1.576v6.324c0.312-0.188,0.644-0.364,0.998-0.525
	c1.815-0.828,3.618-1.051,3.694-1.061c0.862-0.104,1.647,0.513,1.752,1.376C21.927,23.941,21.312,24.725,20.451,24.831z"/>
<path fill="#8EC641" stroke="#231F20" stroke-width="0.15" stroke-miterlimit="10" d="M22.028,13.658c0,2.419-1.961,4.38-4.382,4.38
	c-0.906,0-1.748-0.274-2.447-0.747c-0.541,0.397-1.209,0.633-1.934,0.633c-0.414,0-0.81-0.078-1.174-0.218
	c-0.643,0.588-1.498,0.947-2.438,0.947c-1.995,0-3.612-1.618-3.612-3.612c0-0.052,0.002-0.103,0.004-0.154
	c-1.179-0.347-2.041-1.436-2.041-2.728c0-1.558,1.254-2.822,2.807-2.843c0-0.013-0.002-0.025-0.002-0.039
	c0-1.104,0.896-1.999,1.998-1.999c0.457,0,0.877,0.153,1.213,0.411c0.589-1.199,1.82-2.024,3.246-2.024
	c1.994,0,3.611,1.618,3.611,3.612c0,0.023-0.001,0.046-0.002,0.069c0.25-0.044,0.508-0.069,0.771-0.069
	C20.067,9.277,22.028,11.239,22.028,13.658z M25.503,20.505c0.109-0.513,0.084-1.061-0.107-1.591
	c-0.541-1.514-2.209-2.301-3.723-1.758c-1.238,0.444-1.988,1.638-1.927,2.887c-0.354-0.077-0.733-0.06-1.101,0.072
	c-1.041,0.374-1.582,1.521-1.209,2.563c0.367,1.022,1.478,1.562,2.504,1.229c-0.01,0.214,0.021,0.433,0.099,0.647
	c0.318,0.889,1.298,1.351,2.187,1.032c0.351-0.125,0.635-0.354,0.83-0.638c0.668,0.512,1.574,0.684,2.427,0.379
	c1.333-0.478,2.026-1.946,1.548-3.28C26.763,21.303,26.19,20.759,25.503,20.505z"/>
<path fill="#F4F4F4" stroke="#121212" stroke-width="0.15" stroke-miterlimit="10" d="M43.955,71.634h-4.928
	c-0.773,0-1.383-0.256-1.352-0.565l0.848-8.539c0.018-0.187,0.513-0.334,1.1-0.334h3.735c0.588,0,1.082,0.147,1.102,0.334
	l0.848,8.539C45.338,71.378,44.729,71.634,43.955,71.634z M46.488,82.983l-0.762-7.682c-0.037-0.375-0.75-0.676-1.584-0.676h-5.305
	c-0.832,0-1.546,0.301-1.582,0.676l-0.763,7.682H46.488z"/>
<path fill="#F4F4F4" d="M31.63,18.645l-0.798,0.116c-0.223,0.033-0.432-0.123-0.464-0.345c-0.033-0.224,0.123-0.432,0.346-0.465
	l0.797-0.117c0.224-0.033,0.433,0.123,0.465,0.345C32.009,18.402,31.853,18.611,31.63,18.645"/>
<path fill="none" stroke="#020202" stroke-width="0.15" stroke-miterlimit="10" d="M31.63,18.645l-0.798,0.116
	c-0.223,0.033-0.432-0.123-0.464-0.345c-0.033-0.224,0.123-0.432,0.346-0.465l0.797-0.117c0.224-0.033,0.433,0.123,0.465,0.345
	C32.009,18.402,31.853,18.611,31.63,18.645z"/>
<path fill="#BBBDBF" stroke="#231F20" stroke-width="0.15" stroke-miterlimit="10" d="M29.75,22.793L29.75,22.793
	c-0.585,0-1.064-0.479-1.064-1.063V2.82c0-0.585,0.479-1.064,1.064-1.064c0.584,0,1.063,0.479,1.063,1.064v18.909
	C30.814,22.315,30.334,22.793,29.75,22.793z"/>
<path fill="#F4F4F4" d="M52.654,25.84c0-0.637,0.48-1.153,1.066-1.153c0.59,0,1.066,0.516,1.066,1.153
	c0,0.637-0.479,1.153-1.066,1.153C53.135,26.993,52.654,26.478,52.654,25.84"/>
<path fill="#F4F4F4" stroke="#010101" stroke-width="0.15" stroke-miterlimit="10" d="M53.723,24.688
	c0.588,0,1.064,0.516,1.064,1.153c0,0.637-0.477,1.153-1.064,1.153c-0.59,0-1.068-0.516-1.068-1.153
	C52.654,25.204,53.133,24.688,53.723,24.688z"/>
<path fill="#F4F4F4" d="M53.592,26.438c0,0.269-0.221,0.489-0.488,0.489c-0.27,0-0.416-0.23-0.488-0.489
	c-0.342-1.212,0.398-4.504,0.398-4.504c0.047-0.265,0.305-0.443,0.566-0.396c0.266,0.047,0.443,0.302,0.396,0.567l-0.385,3.043"/>
<path fill="none" stroke="#020202" stroke-width="0.15" stroke-miterlimit="10" d="M53.592,26.438c0,0.269-0.221,0.489-0.488,0.489
	c-0.27,0-0.416-0.23-0.488-0.489c-0.342-1.212,0.398-4.504,0.398-4.504c0.047-0.265,0.305-0.443,0.566-0.396
	c0.266,0.047,0.443,0.302,0.396,0.567l-0.385,3.043"/>
<path fill="#F4F4F4" d="M53.092,25.574l0.262-1.589c0.084-0.255,0.363-0.395,0.619-0.31c0.254,0.085,0.395,0.363,0.311,0.619
	l-0.148,0.92"/>
<path fill="#FFFFFF" stroke="#121212" stroke-width="0.15" stroke-miterlimit="10" d="M53.77,62.117
	c0,1.847-5.402,3.343-12.066,3.343c-6.665,0-12.067-1.496-12.067-3.343v-3.036H53.77V62.117z"/>
<path fill="#FFFFFF" stroke="#121212" stroke-width="0.15" stroke-miterlimit="10" d="M53.77,59.044
	c0,1.847-5.402,3.342-12.066,3.342c-6.665,0-12.067-1.495-12.067-3.342c0-1.849,5.402-3.345,12.067-3.345
	C48.367,55.699,53.77,57.195,53.77,59.044z"/>
<path fill="none" stroke="#020202" stroke-width="0.15" stroke-miterlimit="10" d="M53.092,25.574l0.262-1.589
	c0.084-0.255,0.363-0.395,0.619-0.31c0.254,0.085,0.395,0.363,0.311,0.619l-0.148,0.92"/>
<path fill="#231F20" d="M39.142,59.563c-0.004,0.05-0.02,0.094-0.041,0.132c-0.096,0.24-0.641,0.459-1.881,0.638
	c-2.283,0.325-4.022-0.298-4.131-1.059c-0.096-0.664,0.469-2.169,4.739-0.541l0.545-8.914c0.022-0.371,0.345-0.652,0.714-0.631
	s0.651,0.342,0.629,0.712L39.142,59.563z M44.607,59.563c0.004,0.05,0.02,0.094,0.041,0.132c0.096,0.24,0.641,0.459,1.881,0.638
	c2.283,0.325,4.023-0.298,4.133-1.059c0.094-0.664-0.471-2.169-4.738-0.541l-0.549-8.914c-0.021-0.371-0.344-0.652-0.711-0.631
	c-0.371,0.021-0.652,0.342-0.631,0.712L44.607,59.563z"/>
<path fill="#231F20" d="M47.787,19.116v29.977c0,1.009-0.814,1.822-1.82,1.822H37.89c-1.006,0-1.822-0.813-1.822-1.822V19.116
	C42.307,21.998,47.787,19.116,47.787,19.116z"/>
<path fill="#F4F4F4" stroke="#121212" stroke-width="0.15" stroke-miterlimit="10" d="M39.574,26.476
	c-0.557,0-1.009-0.452-1.009-1.009c0-0.558,0.452-1.008,1.009-1.008s1.008,0.451,1.008,1.008S40.13,26.476,39.574,26.476z
	 M45.193,25.466c0-0.558-0.451-1.008-1.008-1.008s-1.01,0.451-1.01,1.008s0.453,1.009,1.01,1.009S45.193,26.023,45.193,25.466z"/>
<path fill="#F04B4A" d="M44.23,28.369c-0.037,1.241-1.053,2.236-2.303,2.236c-1.25,0-2.267-0.995-2.303-2.236
	c0.729,0.222,1.501,0.341,2.303,0.341C42.729,28.71,43.502,28.591,44.23,28.369z"/>
<path fill="none" stroke="#020202" stroke-width="0.25" stroke-linecap="round" stroke-miterlimit="10" d="M38.415,23.086
	c0.253-0.107,0.532-0.166,0.824-0.166c0.384,0,0.745,0.103,1.055,0.282 M45.289,23.202c-0.311-0.18-0.67-0.282-1.057-0.282
	c-0.291,0-0.568,0.059-0.822,0.166"/>
<path fill="#C0BFBF" d="M42.217,27.32c-0.061-0.425,0.77-0.769,1.537-0.192c0.768,0.576,1.537,1.729,2.689,1.153
	c0,0-0.578,0.576-1.537,0.384c-0.479-0.096-0.674-0.672-1.439-0.865C43.094,27.708,42.313,27.993,42.217,27.32z M41.828,27.32
	c0.061-0.425-0.768-0.769-1.537-0.192c-0.77,0.576-1.537,1.729-2.689,1.153c0,0,0.576,0.576,1.537,0.384
	c0.479-0.096,0.672-0.672,1.44-0.865C40.953,27.708,41.733,27.993,41.828,27.32z"/>
<path fill="#231F20" d="M47.787,15.801v3.315c0,0-5.48,2.881-11.719,0v-3.315c0-2.66,2.219-4.854,5.094-5.19
	c-0.001-0.015-0.002-0.03-0.002-0.045c0-0.478,0.387-0.865,0.866-0.865c0.479,0,0.863,0.387,0.863,0.865
	c0,0.024-0.002,0.047-0.004,0.07C45.666,11.044,47.787,13.201,47.787,15.801z M49.816,20.771c-0.523-0.951-1.932-1.655-1.932-1.655
	h-0.1c0,0-5.479,2.881-11.719,0h-0.098c0,0-1.408,0.704-1.932,1.655c-0.208,0.378,0.146,0.825,0.566,0.73
	c0.645-0.146,1.439-0.349,2.519-0.08c1.538,0.384,3.074,1.153,4.804,1.153c1.729,0,3.266-0.769,4.805-1.153
	c1.076-0.27,1.871-0.066,2.516,0.08C49.672,21.596,50.025,21.149,49.816,20.771z"/>
<path fill="#F4F4F4" d="M54.037,27.551l-1.471-0.135c-0.268-0.024-0.469-0.265-0.443-0.535c0.023-0.269,0.266-0.47,0.533-0.445
	l1.471,0.135c0.27,0.024,0.471,0.265,0.445,0.535S54.307,27.576,54.037,27.551"/>
<path fill="none" stroke="#020202" stroke-width="0.15" stroke-miterlimit="10" d="M54.037,27.551l-1.471-0.135
	c-0.268-0.024-0.469-0.265-0.443-0.535c0.023-0.269,0.266-0.47,0.533-0.445l1.471,0.135c0.27,0.024,0.471,0.265,0.445,0.535
	S54.307,27.576,54.037,27.551z"/>
<path fill="#F4F4F4" stroke="#010101" stroke-width="0.15" stroke-miterlimit="10" d="M30.812,17.936v-0.562l0.156-0.186
	l-0.918-0.271c-0.289-0.073-0.465-0.369-0.392-0.658c0.073-0.29,0.369-0.466,0.659-0.393l0.874,0.233
	c0.579,0.142,0.998,1.138,0.544,1.662L30.812,17.936z"/>
<path fill="#F4F4F4" d="M29.245,16.571l-0.539-0.06c-0.295-0.033-0.511-0.302-0.478-0.598c0.033-0.297,0.303-0.512,0.598-0.479
	l0.539,0.061c0.296,0.033,0.511,0.302,0.479,0.598C29.81,16.391,29.542,16.605,29.245,16.571"/>
<path fill="none" stroke="#020202" stroke-width="0.15" stroke-miterlimit="10" d="M29.245,16.571l-0.539-0.06
	c-0.295-0.033-0.511-0.302-0.478-0.598c0.033-0.297,0.303-0.512,0.598-0.479l0.539,0.061c0.296,0.033,0.511,0.302,0.479,0.598
	C29.81,16.391,29.542,16.605,29.245,16.571z"/>
<path fill="#F4F4F4" d="M29.005,18.726l-0.539-0.06c-0.297-0.033-0.512-0.302-0.479-0.599c0.032-0.296,0.303-0.511,0.599-0.479
	l0.539,0.06c0.297,0.034,0.512,0.302,0.479,0.599C29.571,18.543,29.302,18.758,29.005,18.726"/>
<path fill="none" stroke="#020202" stroke-width="0.15" stroke-miterlimit="10" d="M29.005,18.726l-0.539-0.06
	c-0.297-0.033-0.512-0.302-0.479-0.599c0.032-0.296,0.303-0.511,0.599-0.479l0.539,0.06c0.297,0.034,0.512,0.302,0.479,0.599
	C29.571,18.543,29.302,18.758,29.005,18.726z"/>
<path fill="#F4F4F4" d="M29.449,17.685l-0.861-0.096c-0.297-0.033-0.512-0.303-0.479-0.599s0.303-0.512,0.599-0.479l0.861,0.096
	c0.296,0.033,0.512,0.303,0.479,0.599C30.013,17.503,29.744,17.718,29.449,17.685"/>
<path fill="none" stroke="#020202" stroke-width="0.15" stroke-miterlimit="10" d="M29.449,17.685l-0.861-0.096
	c-0.297-0.033-0.512-0.303-0.479-0.599s0.303-0.512,0.599-0.479l0.861,0.096c0.296,0.033,0.512,0.303,0.479,0.599
	C30.013,17.503,29.744,17.718,29.449,17.685z"/>
<path fill="#FCEE23" stroke="#231F20" stroke-width="0.15" stroke-miterlimit="10" d="M82.898,51.796H54.23
	c-2.59,0-4.484-2.443-3.836-4.953c1.098-4.25,4.846-7.257,9.195-7.446c0.766-4.78,5.42-8.458,11.049-8.458
	c5.73,0,10.453,3.813,11.088,8.719c-0.004,0.007-0.008,0.016-0.01,0.023c0.4,0.101,0.797,0.227,1.182,0.375V51.796L82.898,51.796z"
	/>
<path fill="#3E3E3E" stroke="#020202" stroke-width="0.15" stroke-miterlimit="10" d="M58.715,47.044
	c2.57,0,4.652,2.084,4.652,4.654s-2.082,4.654-4.652,4.654s-4.654-2.084-4.654-4.654S56.145,47.044,58.715,47.044z"/>
<path fill="#8EC641" stroke="#231F20" stroke-width="0.15" stroke-miterlimit="10" d="M63.855,52.854
	c-0.639,0-1.156-0.517-1.156-1.155c0-2.197-1.787-3.984-3.984-3.984c-2.199,0-3.986,1.787-3.986,3.984
	c0,0.639-0.518,1.155-1.154,1.155s-1.154-0.517-1.154-1.155c0-3.471,2.824-6.296,6.297-6.296s6.297,2.825,6.297,6.296
	C65.012,52.337,64.492,52.854,63.855,52.854z"/>
<path fill="#F89520" stroke="#231F20" stroke-width="0.15" stroke-miterlimit="10" d="M55.139,40.669
	c0.299,0.435,0.473,0.961,0.473,1.528c0,1.499-1.217,2.716-2.715,2.716c-0.568,0-1.096-0.176-1.531-0.474
	C52.264,42.851,53.574,41.551,55.139,40.669z"/>
<path fill="#ADE1FA" stroke="#231F20" stroke-width="0.15" stroke-miterlimit="10" d="M68.463,32.554
	c-3.182,0.732-5.645,3.03-6.27,5.905c-0.102,0.473,0.074,0.968,0.447,1.276c1.02,0.84,3.256,1.481,5.998,1.693
	c0.771,0.06,1.436-0.549,1.436-1.325v-6.252C70.074,33.004,69.289,32.364,68.463,32.554z"/>
<path fill="#ADE1FA" stroke="#231F20" stroke-width="0.15" stroke-miterlimit="10" d="M71.203,33.853v6.252
	c0,0.776,0.662,1.384,1.438,1.325c2.742-0.213,4.977-0.854,5.996-1.693c0.375-0.308,0.553-0.803,0.447-1.276
	c-0.623-2.875-3.086-5.173-6.268-5.905C71.99,32.364,71.203,33.004,71.203,33.853z"/>
<path fill="#F89520" stroke="#231F20" stroke-width="0.15" stroke-miterlimit="10" d="M0.009,56.823H26.94l-0.066-6.474
	c-0.014-1.374-0.993-2.55-2.343-2.81l-3.333-1.828L17.539,36.9c-0.559-1.346-1.874-2.223-3.33-2.223H0.009V56.823z"/>
<line fill="none" x1="4.179" y1="45.829" x2="4.179" y2="54.649"/>
<path fill="none" stroke="#020202" stroke-width="0.15" stroke-miterlimit="10" d="M4.179,45.829v8.82"/>
<path fill="#ED2224" d="M26.875,50.554c-0.087-0.027-0.179-0.043-0.273-0.043h-0.924c-0.506,0-0.922,0.416-0.922,0.924v1.997
	c0,0.508,0.416,0.923,0.922,0.923h0.924c0.108,0,0.214-0.021,0.312-0.057L26.875,50.554z"/>
<path fill="#ED2224" stroke="#231F20" stroke-width="0.15" stroke-miterlimit="10" d="M82.898,58.778H63.275v-3.357
	c0-2.146,1.207-4.108,3.121-5.08c3.262-1.652,8.771-4.979,8.771-4.979l6.914-10.502c0.229-0.347,0.506-0.652,0.814-0.912
	L82.898,58.778L82.898,58.778z"/>
<path fill="#3E3E3E" stroke="#020202" stroke-width="0.15" stroke-miterlimit="10" d="M82.898,56.319
	c-0.898-1.33-2.418-2.202-4.143-2.202c-2.762,0-4.996,2.236-4.996,4.995c0,2.76,2.234,4.996,4.996,4.996
	c1.725,0,3.242-0.873,4.143-2.202V56.319z"/>
<path fill="#ADE1FA" stroke="#231F20" stroke-width="0.15" stroke-miterlimit="10" d="M82.898,43.972H80.48
	c-0.926,0-1.482-1.031-0.973-1.807l3.391-5.149V43.972z"/>
<path fill="#F4F4F4" d="M58.715,49.856c1.018,0,1.842,0.824,1.842,1.842s-0.824,1.842-1.842,1.842s-1.844-0.824-1.844-1.842
	S57.697,49.856,58.715,49.856z"/>
<path fill="#F4F4F4" d="M78.756,57.134c1.094,0,1.979,0.887,1.979,1.979c0,1.094-0.885,1.979-1.979,1.979
	c-1.092,0-1.979-0.885-1.979-1.979C76.777,58.021,77.664,57.134,78.756,57.134z"/>
<path fill="#ADE1FA" stroke="#231F20" stroke-width="0.15" stroke-miterlimit="10" d="M2.279,36.479h-2.27v8.104H2.28
	c0.552,0,0.999-0.449,0.999-1v-6.104C3.278,36.926,2.831,36.479,2.279,36.479z"/>
<g>
	
		<path fill="#BCBCBC" stroke="#030303" stroke-width="0.15" stroke-linecap="round" stroke-linejoin="round" stroke-miterlimit="10" d="
		M43.662,17.021l0.613-0.393l-0.725-0.382l0.455-0.844h-0.332c0.109-0.169,0.229-0.406,0.229-0.661c0-0.203-0.074-0.385-0.225-0.542
		c-0.186-0.196-0.41-0.296-0.668-0.296c-0.059,0-0.111,0.007-0.164,0.013l0,0c-0.484-0.41-1.036-0.021-1.036-0.021l0.025,0.017
		c-0.045-0.005-0.092-0.01-0.137-0.01c-0.256,0.001-0.48,0.101-0.669,0.296c-0.147,0.159-0.228,0.343-0.222,0.552
		c0,0.251,0.115,0.485,0.225,0.653l-0.469-0.001l0.455,0.844l-0.728,0.381l0.615,0.396l-0.456,0.727l0.779-0.014l-0.037,0.872
		l0.695-0.448l0.391,0.768l0.395-0.769l0.695,0.449l-0.037-0.871l0.779,0.014L43.662,17.021z M43.396,14.724
		c-0.006-0.109-0.031-0.211-0.084-0.307c-0.004-0.008-0.01-0.02-0.02-0.029c-0.023-0.045-0.057-0.087-0.096-0.13
		c0.031,0.008,0.061,0.018,0.09,0.031c0.201,0.087,0.309,0.261,0.293,0.487c0.002,0.025-0.004,0.051-0.008,0.078
		c-0.006,0.027-0.012,0.054-0.02,0.082c-0.016,0.053-0.035,0.109-0.061,0.165c-0.014,0.029-0.027,0.055-0.043,0.084
		c-0.039,0.069-0.09,0.136-0.145,0.199l-0.012,0.011l-0.004,0.01l-0.127-0.001c0.012-0.013,0.018-0.021,0.023-0.032
		c0.025-0.042,0.053-0.085,0.072-0.13c0.021-0.041,0.041-0.083,0.057-0.121c0.004-0.008,0.008-0.018,0.01-0.025
		c0.006-0.019,0.016-0.037,0.02-0.053c0.004-0.01,0.006-0.019,0.008-0.027c0.006-0.02,0.012-0.035,0.018-0.056
		c0-0.009,0.004-0.02,0.004-0.028c0.006-0.027,0.012-0.057,0.014-0.086C43.398,14.802,43.4,14.761,43.396,14.724z M41.617,14.754
		l-0.001-0.004c0,0,0.001-0.012,0-0.016c0-0.004,0-0.008,0-0.012l0.003-0.01c-0.001-0.001-0.001-0.005,0-0.008
		c0.001-0.005,0.001-0.012,0.004-0.02c0-0.004,0-0.01,0.001-0.014c0.002-0.007,0.005-0.016,0.005-0.022l0.004-0.015
		c0.002-0.002,0.004-0.007,0.004-0.013c0-0.002,0.002-0.015,0.002-0.015c0.002-0.005,0.002-0.008,0.006-0.014
		c0-0.001,0-0.005,0.005-0.006l-0.001-0.001c0.001-0.004,0.004-0.012,0.008-0.016c0-0.003,0-0.005,0.005-0.012
		c0-0.004,0.003-0.008,0.007-0.013c0.004-0.004,0.004-0.008,0.006-0.013c0.002-0.003,0.008-0.007,0.01-0.012
		c0.002-0.003,0.006-0.008,0.008-0.01c0.002-0.004,0.006-0.009,0.01-0.014c0.003-0.004,0.005-0.006,0.01-0.012
		c0.002-0.002,0.008-0.005,0.01-0.012c0.002-0.003,0.006-0.006,0.012-0.008c0.004-0.005,0.009-0.008,0.012-0.013v-0.001
		c0.003-0.004,0.007-0.006,0.01-0.007c0.004-0.004,0.008-0.007,0.018-0.011c0,0,0.007-0.008,0.012-0.009
		c0.004-0.002,0.008-0.006,0.016-0.011c0,0,0.01-0.006,0.014-0.007c0.004-0.003,0.013-0.008,0.02-0.011l0.01-0.008
		c0.012-0.004,0.022-0.01,0.034-0.016c0.036-0.015,0.076-0.021,0.115-0.022c0.035,0,0.072,0.002,0.113,0.013
		c0.025,0.006,0.051,0.012,0.076,0.021c0.008,0.042,0.014,0.082,0.018,0.121s0.008,0.079,0.006,0.112
		c0,0.135-0.029,0.521-0.053,0.787l-0.262-0.002c-0.002-0.007-0.004-0.012-0.006-0.02l-0.004-0.011l-0.009-0.01
		c-0.024-0.03-0.051-0.063-0.076-0.098c-0.005-0.007-0.011-0.013-0.016-0.02l-0.009-0.017c-0.006-0.005-0.012-0.014-0.014-0.021
		l-0.012-0.016c-0.003-0.006-0.008-0.016-0.014-0.022V15.16c-0.02-0.03-0.032-0.06-0.047-0.091l-0.004-0.013
		c-0.004-0.005-0.006-0.011-0.01-0.016l-0.007-0.021c-0.002-0.006-0.004-0.014-0.006-0.022l-0.011-0.014
		c0-0.006-0.002-0.014-0.004-0.02c0-0.007-0.002-0.012-0.004-0.016c-0.002-0.006-0.004-0.013-0.004-0.02
		c-0.002-0.004-0.004-0.009-0.002-0.016c-0.002-0.005-0.004-0.012-0.008-0.02c0-0.005,0-0.011-0.004-0.016
		c0.001-0.004,0-0.012,0-0.02c-0.001-0.006-0.001-0.012-0.001-0.016c-0.002-0.006-0.001-0.011-0.003-0.018
		c0.001-0.004,0-0.011-0.001-0.019c0-0.005,0.001-0.009-0.001-0.014c0.001-0.005,0-0.011,0-0.019v-0.001
		c0.001-0.004,0-0.008,0.001-0.012C41.613,14.761,41.617,14.758,41.617,14.754z M41.413,15.391l-0.008-0.009
		c-0.208-0.237-0.312-0.523-0.265-0.752c0.029-0.157,0.127-0.277,0.285-0.342c0.03-0.013,0.061-0.022,0.09-0.031
		c-0.131,0.146-0.2,0.317-0.197,0.509c0.001,0.244,0.119,0.477,0.223,0.635h-0.125L41.413,15.391z M42.557,15.402
		c-0.021-0.266-0.049-0.65-0.049-0.787c-0.002-0.034,0-0.071,0.004-0.111c0.006-0.04,0.012-0.08,0.02-0.121
		c0.035-0.009,0.068-0.021,0.105-0.026c0.027-0.005,0.055-0.007,0.078-0.007c0.047,0,0.084,0.008,0.117,0.021
		c0.014,0.006,0.021,0.012,0.035,0.016l0.012,0.007c0.01,0.004,0.016,0.008,0.02,0.011c0.002,0,0.014,0.007,0.014,0.007
		c0.01,0.003,0.012,0.007,0.018,0.011c0.004,0.001,0.008,0.003,0.01,0.004l0.004,0.003c0.004,0.002,0.01,0.006,0.014,0.011
		c0.004,0.002,0.006,0.004,0.012,0.008c0.004,0.004,0.008,0.009,0.012,0.012s0.008,0.007,0.012,0.009
		c0.004,0.004,0.01,0.009,0.014,0.013c0.004,0.002,0.006,0.006,0.01,0.01c0.002,0.005,0.006,0.009,0.01,0.014
		c0.002,0.003,0.002,0.007,0.008,0.011c0.004,0.004,0.004,0.008,0.006,0.012c0.006,0.003,0.008,0.008,0.01,0.012
		s0.006,0.009,0.01,0.016c0,0.003,0.004,0.007,0.004,0.01s0.006,0.007,0.01,0.014c0,0,0.002,0.011,0.004,0.011
		c0.002,0.007,0.004,0.009,0.006,0.018c0,0,0.002,0.008,0.006,0.012c0.004,0.003,0,0.007,0.002,0.011l0.006,0.015
		c0,0.008,0,0.016,0.002,0.022c0.004,0.003,0.002,0.01,0.004,0.015c0,0.008,0.002,0.013,0.002,0.021c0,0.001,0,0.004,0,0.006
		l0.002,0.011c-0.002,0.005,0,0.009,0,0.012c0,0.004,0,0.008,0,0.012l0.002,0.008c-0.002,0.004,0,0.008-0.002,0.013
		c0,0.002,0,0.008-0.002,0.012l0.002,0.008c0,0.002,0,0.006,0,0.012c0,0.003-0.002,0.01-0.002,0.015c0,0.004-0.002,0.012,0,0.018
		c0,0.006-0.004,0.011-0.004,0.016c0,0.006,0,0.011,0,0.017c-0.002,0.007-0.002,0.013-0.004,0.019c0,0.007-0.004,0.01-0.004,0.016
		c-0.002,0.008-0.002,0.014-0.006,0.02c-0.002,0.003-0.002,0.011-0.004,0.018c-0.002,0.005-0.004,0.011-0.006,0.018
		c0,0.004,0,0.009-0.006,0.016c-0.002,0.006-0.002,0.014-0.008,0.021c0,0.004-0.004,0.02-0.004,0.02
		c-0.006,0.006-0.006,0.013-0.008,0.021l-0.012,0.019c0.002,0.006-0.004,0.01-0.006,0.017l-0.008,0.017
		c-0.002,0.006-0.004,0.013-0.008,0.019h-0.002c-0.014,0.022-0.023,0.043-0.039,0.063v0.005c-0.004,0.006-0.008,0.015-0.014,0.022
		l-0.012,0.018c-0.004,0.004-0.008,0.012-0.014,0.018l-0.01,0.018c-0.004,0.005-0.012,0.014-0.016,0.022
		c-0.023,0.034-0.049,0.064-0.08,0.095l-0.006,0.012l-0.006,0.011c0.002,0.006-0.002,0.014-0.006,0.022L42.557,15.402L42.557,15.402
		z"/>
	
		<path fill="#BCBCBC" stroke="#030303" stroke-width="0.15" stroke-linecap="round" stroke-linejoin="round" stroke-miterlimit="10" d="
		M41.072,16.832c-0.001,0.661,0.533,1.196,1.196,1.196c0.656,0.002,1.191-0.533,1.195-1.192c0-0.001-0.004-0.002-0.004-0.003
		c0.004-0.66-0.529-1.194-1.191-1.195C41.608,15.637,41.073,16.17,41.072,16.832L41.072,16.832"/>
</g>
<path fill="#F4F4F4" d="M39.289,42.962c-0.107-0.026-0.215-0.063-0.324-0.088c-0.058-0.013-0.084-0.035-0.088-0.097
	c-0.029-0.539-0.064-1.074-0.096-1.614c-0.016-0.272-0.01-0.272,0.246-0.373c0.174-0.073,0.352-0.145,0.527-0.218
	c0.006-0.004,0.013-0.014,0.025-0.023c-0.064-0.049-0.125-0.094-0.186-0.147c-0.486-0.403-0.744-0.926-0.829-1.551
	c-0.058-0.414,0.006-0.815,0.129-1.208c0.017-0.053,0.03-0.086,0.089-0.089c0.089,0,0.102-0.054,0.105-0.13
	c0.016-0.484,0.037-0.964,0.056-1.451c0.003-0.054-0.017-0.119,0.083-0.114c0.064,0.002,0.041-0.063,0.042-0.101
	c0.021-0.46,0.042-0.92,0.055-1.385c0.002-0.103,0.035-0.128,0.132-0.114c0.118,0.019,0.233,0.029,0.368,0.042
	c-0.079-0.084-0.174-0.122-0.259-0.169c-0.055-0.035-0.078-0.07-0.063-0.131c0.131-0.588,0.263-1.179,0.393-1.77
	c0.012-0.059,0.048-0.071,0.097-0.073c0.708-0.076,1.414-0.149,2.119-0.223c0.693-0.074,1.388-0.146,2.08-0.227
	c0.078-0.008,0.09-0.001,0.08,0.082c-0.088,0.557-0.17,1.117-0.254,1.677c-0.012,0.089-0.035,0.176-0.039,0.266
	c-0.006,0.087-0.029,0.127-0.127,0.125c-0.135,0-0.271,0.015-0.406,0.022c-0.041,0.006-0.084,0.007-0.1,0.06
	c-0.021,0.058,0.031,0.071,0.063,0.09c0.121,0.068,0.242,0.139,0.365,0.202c0.072,0.035,0.088,0.072,0.064,0.144
	c-0.078,0.241-0.146,0.488-0.223,0.727c-0.031,0.11-0.049,0.224-0.053,0.335c-0.014,0.403-0.023,0.807-0.043,1.205
	c0,0.061,0.021,0.139-0.088,0.125c-0.043-0.003-0.037,0.042-0.037,0.067c-0.012,0.252-0.021,0.506-0.029,0.76
	c-0.002,0.053,0.018,0.105,0.027,0.15c0.197,0.732,0.156,1.436-0.238,2.102c-0.07,0.121-0.004,0.246,0.012,0.368
	c0.039,0.366,0.086,0.73,0.137,1.097c0.01,0.07-0.012,0.099-0.074,0.113c-0.137,0.044-0.271,0.092-0.406,0.145
	c-0.033,0.018-0.076,0.021-0.074,0.073c0.004,0.057,0.039,0.065,0.084,0.074c0.137,0.029,0.271,0.067,0.406,0.093
	c0.08,0.013,0.109,0.049,0.105,0.134c-0.008,0.232,0.008,0.458-0.01,0.695c-0.035,0.441,0.104,0.85,0.188,1.271
	c0.023,0.123,0.061,0.245,0.082,0.373c0.014,0.063,0.08,0.146-0.057,0.175c-0.033,0.016-0.018,0.062-0.01,0.075
	c0.037,0.171,0.086,0.339,0.111,0.511c0.014,0.08,0.084,0.063,0.115,0.119c0.283,0.481,0.492,1.002,0.492,1.568
	c-0.002,0.982-0.561,1.816-1.475,2.15c-0.919,0.342-1.788,0.252-2.532-0.431c-0.556-0.506-0.793-1.161-0.785-1.905
	c-0.002-0.101-0.043-0.205,0.058-0.283c0.022-0.021,0-0.063-0.009-0.098c-0.104-0.468-0.207-0.934-0.313-1.406
	c-0.013-0.053-0.039-0.104,0.055-0.11c0.052-0.017,0.022-0.063,0.017-0.103c-0.099-0.438-0.197-0.896-0.302-1.332
	c-0.025-0.104-0.029-0.168,0.111-0.176c0.131-0.005,0.262-0.039,0.396-0.062C39.288,42.98,39.288,42.968,39.289,42.962z"/>
<path fill="#030303" d="M37.226,39.5c0.068,0.074,0.14,0.007,0.205,0.011c0.103,0.01,0.107-0.05,0.103-0.125
	c-0.001-0.033,0.009-0.059,0.049-0.059c0.044,0.002,0.048,0.033,0.043,0.059c-0.021,0.112,0.041,0.126,0.132,0.124
	c0.166-0.005,0.33,0.009,0.496,0c0.125-0.009,0.207,0.026,0.256,0.145c0.012,0.031,0.03,0.059,0.053,0.096
	c-0.055,0.027-0.108,0.015-0.161,0.016c-0.222,0-0.441-0.006-0.66-0.005c-0.047,0.003-0.11-0.024-0.121,0.065
	c-0.003,0.049-0.058,0.029-0.063,0.001c-0.028-0.076-0.086-0.063-0.146-0.073c-0.176-0.023-0.271-0.158-0.245-0.332
	c0.009-0.046,0.027-0.087,0.069-0.117c0.037-0.023,0.076-0.027,0.119,0.003c0.033,0.019,0.051,0.056,0.041,0.099
	c-0.006,0.044-0.041,0.059-0.075,0.072C37.289,39.481,37.259,39.456,37.226,39.5z"/>
<path fill="#030303" d="M37.746,39.973c0.133,0.005,0.264,0.001,0.393,0.004c0.058,0.001,0.107-0.013,0.076-0.091
	c-0.012-0.02-0.022-0.05,0.01-0.063c0.026-0.009,0.047,0.008,0.063,0.031c0.055,0.077,0.064,0.166,0.033,0.252
	c-0.032,0.085-0.104,0.119-0.189,0.12c-0.236,0.004-0.475-0.004-0.711,0.001c-0.05,0.001-0.123-0.031-0.115,0.077
	c0.002,0.042-0.051,0.025-0.064-0.007c-0.037-0.076-0.079-0.16-0.033-0.242c0.038-0.079,0.118-0.08,0.197-0.083
	C37.519,39.974,37.63,39.975,37.746,39.973C37.745,39.974,37.745,39.974,37.746,39.973z"/>
<path fill="#030303" d="M38.083,39.206c-0.143,0.003-0.284,0.004-0.429,0.006c-0.044-0.007-0.08-0.029-0.102-0.068
	c-0.057-0.1-0.011-0.177,0.102-0.178c0.137,0.001,0.27,0,0.404,0.005c0.063-0.002,0.135-0.011,0.154,0.072
	c0.016,0.07-0.039,0.109-0.092,0.138C38.112,39.188,38.097,39.196,38.083,39.206z"/>
<path fill="#030303" d="M38.083,39.206c0.002-0.042,0.031-0.065,0.062-0.089c0.027-0.02,0.063-0.029,0.045-0.075
	c-0.021-0.044-0.055-0.059-0.1-0.059c-0.15-0.001-0.297-0.001-0.447-0.004c-0.032,0.002-0.074-0.01-0.086,0.031
	c-0.01,0.042-0.021,0.085,0.021,0.119c0.03,0.02,0.062,0.047,0.076,0.082c-0.019,0.022-0.03,0.051-0.05,0.072
	c-0.041,0.042-0.068,0.028-0.072-0.023c-0.005-0.084-0.002-0.162-0.005-0.241c-0.002-0.065,0.042-0.061,0.083-0.062
	c0.172,0.002,0.34,0.004,0.508,0.003c0.061,0,0.146,0.018,0.096-0.095c-0.009-0.021-0.003-0.045,0.022-0.051
	c0.03-0.012,0.048,0.016,0.062,0.033c0.051,0.08,0.059,0.169,0.018,0.252C38.269,39.204,38.181,39.223,38.083,39.206z"/>
<path fill="#030303" d="M37.163,39.102c0.009-0.09,0.062-0.143,0.146-0.14c0.084,0.001,0.144,0.057,0.138,0.146
	c-0.003,0.084-0.06,0.137-0.138,0.135C37.22,39.244,37.168,39.194,37.163,39.102z"/>
<path fill="#030303" d="M43.736,46.475c0.084,0.573-0.053,1.098-0.424,1.532c-0.592,0.681-1.359,0.896-2.217,0.686
	c-0.847-0.212-1.289-0.833-1.479-1.661c-0.031-0.144-0.029-0.28-0.035-0.432c-0.004-0.078,0.02-0.122,0.096-0.148
	c0.131-0.056,0.254-0.11,0.375-0.188c-0.098,0.016-0.197,0.023-0.293,0.05c-0.064,0.012-0.092-0.013-0.105-0.07
	c-0.092-0.405-0.184-0.817-0.277-1.226c-0.021-0.081,0.008-0.105,0.083-0.109c0.318-0.047,0.636-0.096,0.956-0.141
	c0.061-0.016,0.113-0.012,0.098-0.106c-0.013-0.081-0.049-0.094-0.125-0.077c-0.274,0.051-0.551,0.084-0.828,0.127
	c-0.088,0.021-0.137,0-0.155-0.102c-0.081-0.395-0.167-0.787-0.261-1.177c-0.021-0.097,0-0.107,0.09-0.123
	c0.494-0.07,0.988-0.146,1.482-0.224c0.028-0.008,0.061-0.004,0.086-0.033c-0.47-0.129-0.934-0.25-1.398-0.369
	c-0.232-0.063-0.23-0.061-0.242-0.301c-0.021-0.393-0.045-0.774-0.072-1.167c-0.007-0.088,0.021-0.128,0.102-0.158
	c0.388-0.148,0.775-0.311,1.158-0.472c0.004-0.05-0.033-0.037-0.055-0.047c-0.861-0.273-1.408-0.995-1.441-1.899
	c-0.008-0.237,0.015-0.472,0.076-0.702c0.022-0.07,0.054-0.11,0.137-0.119c0.219-0.025,0.438-0.069,0.66-0.128
	c-0.143-0.013-0.28-0.037-0.424-0.045c-0.084-0.01-0.115-0.034-0.111-0.124c0.021-0.413,0.039-0.83,0.055-1.244
	c0.002-0.066,0.021-0.092,0.088-0.072c0.09,0.019,0.188,0.002,0.273,0.039c0.016,0.106-0.049,0.194-0.081,0.29
	c-0.034,0.234,0.003,0.474-0.031,0.706c-0.01,0.079,0.063,0.079,0.116,0.088c0.283,0.043,0.568,0.073,0.854,0.105
	c0.414,0.042,0.822,0.092,1.232,0.135c0.036,0.001,0.064,0.015,0.098,0.024c0.191,0.069,0.191,0.069,0.112,0.271
	c-0.017,0.034-0.062,0.059-0.04,0.104c0.09,0.363,0.084,0.71-0.122,1.038c-0.073,0.117-0.157,0.229-0.293,0.287
	c-0.31,0.063-0.612,0.089-0.897-0.089c-0.313-0.193-0.459-0.486-0.492-0.844c-0.008-0.117,0-0.235,0.004-0.355
	c0.001-0.058-0.008-0.107-0.072-0.11c-0.23-0.001-0.456,0.014-0.654,0.143c-0.178,0.051-0.193,0.195-0.197,0.349
	c-0.012,0.408,0.061,0.792,0.285,1.139c0.26,0.398,0.635,0.625,1.09,0.724c0.054,0.016,0.107,0.021,0.16,0.04
	c0.094,0.036,0.193,0.013,0.289,0.024c0.043,0.006,0.1-0.003,0.112,0.045c0.015,0.059-0.035,0.08-0.075,0.105
	c-0.17,0.082-0.347,0.149-0.522,0.219c-0.3,0.109-0.583,0.253-0.88,0.366c-0.088,0.035-0.133,0.108-0.156,0.2
	c-0.036,0.06-0.061,0.118-0.055,0.188c0.021,0.239,0.043,0.483,0.043,0.732c-0.002,0.151,0.027,0.188,0.183,0.228
	c0.69,0.18,1.381,0.368,2.074,0.548c0.056,0.016,0.118,0.02,0.149,0.087c0,0.089-0.074,0.072-0.127,0.081
	c-0.578,0.098-1.158,0.186-1.738,0.258c-0.147,0.021-0.289,0.059-0.395,0.17c-0.079,0.032-0.088,0.096-0.072,0.168
	c0.041,0.17,0.082,0.336,0.118,0.506c0.019,0.103,0.063,0.137,0.157,0.111c0.248-0.035,0.494-0.07,0.741-0.104
	c0.17-0.021,0.209,0,0.241,0.166c0.027,0.146,0.063,0.287,0.047,0.438c-0.036,0.062-0.098,0.076-0.161,0.089
	c-0.138,0.019-0.271,0.055-0.411,0.06c-0.167,0.011-0.309,0.069-0.43,0.185c-0.073,0.024-0.077,0.076-0.063,0.149
	c0.035,0.171,0.066,0.339,0.113,0.51c0.035,0.133,0.051,0.142,0.188,0.119c0.717-0.101,1.43-0.22,2.145-0.317
	c0.066-0.015,0.137-0.021,0.203-0.018c0.162,0.033,0.174,0.107,0.047,0.268c-0.006,0.063,0.029,0.103,0.051,0.146
	c0.146,0.326,0.195,0.656,0.059,1.004c-0.027,0.064-0.057,0.133-0.115,0.178c-0.195,0.129-0.396,0.235-0.635,0.253
	c-0.1,0.009-0.199,0.007-0.252-0.104c0.051-0.041,0.113-0.033,0.172-0.041c0.401-0.071,0.608-0.336,0.584-0.742
	c-0.01-0.146-0.055-0.277-0.123-0.41c-0.043-0.078-0.105-0.113-0.195-0.102c-0.302,0.051-0.603,0.088-0.904,0.134
	c-0.084,0.021-0.11,0.063-0.12,0.14c-0.01,0.084,0.012,0.172-0.022,0.251c-0.065,0.036-0.065-0.021-0.072-0.059
	c-0.015-0.063-0.039-0.13-0.073-0.188c-0.048-0.08-0.117-0.104-0.201-0.066c-0.143,0.078-0.287,0.146-0.437,0.205
	c-0.101,0.033-0.146,0.134-0.215,0.207c-0.05,0.037-0.06,0.091-0.056,0.148c0.072,0.819,0.699,1.605,1.639,1.637
	c0.308,0.01,0.594-0.06,0.879-0.146c0.5-0.101,0.85-0.396,1.08-0.83c0.139-0.267,0.236-0.533,0.223-0.838
	C43.699,46.561,43.693,46.509,43.736,46.475z"/>
<path fill="#030303" d="M39.495,36.492c0.062-0.071,0.056-0.174,0.108-0.251c0.246,0.024,0.492,0.051,0.736,0.079
	c0.082,0.009,0.073-0.041,0.086-0.089c0.018-0.064-0.007-0.092-0.072-0.097c-0.279-0.03-0.563-0.069-0.844-0.092
	c-0.101-0.01-0.146-0.031-0.139-0.149c0.025-0.4,0.04-0.802,0.051-1.201c0-0.1,0.043-0.1,0.116-0.087
	c0.42,0.055,0.841,0.095,1.259,0.146c0.059,0.008,0.114,0.008,0.178-0.011c-0.162-0.092-0.322-0.196-0.483-0.291
	c-0.249-0.147-0.492-0.297-0.744-0.439c-0.087-0.047-0.114-0.09-0.09-0.195c0.103-0.419,0.192-0.842,0.282-1.263
	c0.014-0.072,0.041-0.102,0.119-0.109c1.187-0.126,2.372-0.253,3.557-0.385c0.084-0.008,0.113,0.004,0.1,0.098
	c-0.07,0.439-0.137,0.877-0.199,1.319c-0.01,0.074-0.039,0.104-0.117,0.105c-0.133,0-0.266,0.019-0.395,0.019
	c-0.078,0-0.104,0.035-0.113,0.102c-0.021,0.113-0.043,0.226-0.074,0.333c-0.025,0.091,0.002,0.143,0.086,0.18
	c0.109,0.051,0.211,0.122,0.322,0.175c0.061,0.032,0.086,0.066,0.061,0.14c-0.189,0.48-0.246,0.981-0.236,1.491
	c0.002,0.111-0.018,0.222-0.014,0.331c-0.002,0.082-0.025,0.097-0.104,0.087c-0.357-0.044-0.717-0.079-1.072-0.126
	c-0.087-0.011-0.103,0.022-0.116,0.098c-0.014,0.095,0.053,0.08,0.102,0.085c0.313,0.036,0.629,0.076,0.944,0.104
	c0.096,0.012,0.119,0.044,0.111,0.137c-0.016,0.302-0.016,0.604-0.041,0.898c-0.01,0.111,0.08,0.184,0.061,0.29
	c-0.135-0.014-0.258-0.076-0.383-0.13c-0.039-0.014-0.039-0.059-0.033-0.099c-0.002-0.06-0.008-0.114,0.029-0.161
	c0.107-0.016,0.145-0.073,0.148-0.181c0.012-0.154-0.012-0.31,0.008-0.467c0.01-0.096-0.063-0.136-0.145-0.145
	c-0.236-0.03-0.475-0.063-0.714-0.085c-0.239-0.022-0.313-0.117-0.28-0.352c0.008-0.066,0.015-0.135,0.02-0.2
	c0.002-0.063,0.021-0.118,0.089-0.14c0.274,0,0.55,0.05,0.824,0.079c0.09,0.009,0.18,0.025,0.23-0.08
	c0.115-0.052,0.154-0.141,0.158-0.27c0.008-0.125,0.025-0.245,0.021-0.368c-0.012-0.245,0.031-0.478,0.121-0.706
	c0.045-0.127,0.025-0.174-0.086-0.246c-0.031-0.017-0.066-0.034-0.1-0.051c-0.236-0.145-0.268-0.201-0.193-0.464
	c0.051-0.179,0.053-0.374,0.145-0.54c0.057-0.063,0.133-0.057,0.207-0.053c0.105,0.008,0.193-0.016,0.258-0.106
	c0.105-0.042,0.145-0.129,0.158-0.229c0.021-0.148,0.045-0.298,0.063-0.452c0.02-0.17-0.018-0.202-0.188-0.185
	c-0.457,0.04-0.912,0.106-1.37,0.146c-0.458,0.041-0.913,0.108-1.37,0.146c-0.08,0.007-0.147,0.036-0.196,0.095
	c-0.136,0.048-0.168,0.156-0.195,0.281c-0.047,0.22-0.092,0.439-0.149,0.656c-0.03,0.107,0.001,0.173,0.099,0.229
	c0.557,0.33,1.111,0.663,1.668,0.992c0.041,0.023,0.082,0.047,0.115,0.078c0.02,0.023,0.039,0.048,0,0.074
	c-0.133,0.035-0.27,0.022-0.4,0.007c-0.453-0.052-0.906-0.109-1.359-0.158c-0.122-0.014-0.214,0.013-0.303,0.091
	c-0.09,0.015-0.117,0.073-0.117,0.162c0.005,0.157-0.001,0.317-0.02,0.48c-0.019,0.125,0.006,0.146,0.131,0.166
	c0.222,0.031,0.443,0.05,0.664,0.075c0.066,0.009,0.127,0.014,0.187,0.041c0.048,0.015,0.089,0.048,0.083,0.097
	c-0.014,0.174-0.007,0.355-0.079,0.52c-0.038,0.045-0.09,0.034-0.141,0.038c-0.2,0.002-0.394-0.038-0.591-0.066
	c-0.113-0.015-0.207-0.004-0.285,0.084C39.591,36.535,39.536,36.543,39.495,36.492z"/>
<path fill="#030303" d="M42.537,37.705c-0.025,0.07,0.033,0.072,0.074,0.084c0.107,0.025,0.213,0.066,0.311,0.127
	c0.033,0.075,0.057,0.155,0.051,0.24c0.061,0.6-0.072,1.134-0.482,1.588c-0.053,0.053-0.063,0.095,0.018,0.134
	c0.066,0.037,0.088,0.11,0.125,0.168c0.051,0.197,0.055,0.4,0.088,0.601c0.02,0.145,0.033,0.295,0.059,0.44
	c0.012,0.078-0.006,0.121-0.09,0.148c-0.121,0.033-0.238,0.085-0.357,0.123c-0.07,0.02-0.098,0.054-0.092,0.125
	c0.018,0.13,0.023,0.26,0.025,0.396c0,0.062,0.043,0.082,0.096,0.093c0.125,0.021,0.254,0.067,0.383,0.086
	c0.088,0.014,0.107,0.06,0.102,0.135c-0.055,0.645,0.039,1.26,0.215,1.869c0.023,0.096,0.002,0.122-0.096,0.136
	c-0.346,0.042-0.688,0.097-1.032,0.149c-0.058,0.009-0.125,0-0.109,0.104c0.018,0.104,0.072,0.09,0.143,0.075
	c0.309-0.049,0.62-0.091,0.928-0.142c0.098-0.022,0.121,0.019,0.139,0.104c0.061,0.284,0.125,0.564,0.189,0.857
	c0.014,0.063,0.02,0.115,0.105,0.1c0.041-0.02,0.063,0.018,0.08,0.049c0.172,0.313,0.299,0.633,0.33,0.987
	c0.025,0.381-0.08,0.729-0.268,1.051c-0.172,0.313-0.434,0.53-0.744,0.688c-0.1,0.055-0.219,0.06-0.324,0.089
	c0.002-0.064,0.063-0.069,0.104-0.097c0.211-0.104,0.389-0.248,0.559-0.414c0.523-0.508,0.617-1.113,0.412-1.793
	c-0.021-0.063-0.043-0.143-0.072-0.215c-0.043-0.103-0.119-0.146-0.223-0.132c-0.133,0.021-0.271,0.024-0.402,0.046
	c-0.08,0.012-0.123,0.063-0.18,0.104c-0.074,0.025-0.146,0.064-0.229,0.018c0.012-0.021,0.025-0.025,0.047-0.031
	c0.068-0.016,0.08-0.063,0.076-0.121c-0.004-0.063-0.066-0.049-0.104-0.053c0.014-0.063,0.061-0.06,0.1-0.063
	c0.104-0.021,0.197-0.046,0.297-0.056c0.057-0.006,0.096-0.021,0.123-0.072c0.117-0.088,0.137-0.199,0.094-0.334
	c-0.033-0.103-0.061-0.223-0.088-0.328c-0.02-0.104-0.078-0.145-0.182-0.131c-0.234,0.021-0.469,0.062-0.699,0.101
	c-0.08,0.017-0.151,0.021-0.227-0.006c-0.062-0.021-0.107-0.06-0.121-0.117c-0.02-0.138-0.057-0.271-0.071-0.413
	c-0.004-0.045,0.001-0.091,0.037-0.126c0.043-0.042,0.101-0.042,0.153-0.052c0.249-0.044,0.493-0.071,0.741-0.107
	c0.057-0.011,0.104-0.021,0.131-0.08c0.109-0.066,0.125-0.166,0.092-0.281c-0.041-0.146-0.064-0.305-0.1-0.443
	c-0.037-0.164-0.061-0.324-0.023-0.488c0.004-0.02,0.002-0.021,0.006-0.035c0.025-0.319,0-0.356-0.313-0.446
	c-0.201-0.052-0.248-0.105-0.27-0.314c-0.021-0.229-0.035-0.453-0.008-0.686c0.035-0.074,0.113-0.083,0.18-0.107
	c0.074-0.022,0.148-0.043,0.189-0.118c0.07-0.062,0.119-0.124,0.105-0.229c-0.018-0.167-0.047-0.332-0.063-0.498
	c-0.01-0.108-0.051-0.127-0.146-0.09c-0.576,0.243-1.155,0.478-1.735,0.715c-0.334,0.143-0.668,0.268-1.008,0.41
	c-0.051,0.021-0.105,0.062-0.167,0.02c-0.013-0.111,0.067-0.19,0.147-0.218c0.438-0.188,0.879-0.359,1.32-0.539
	c0.063-0.023,0.127-0.052,0.185-0.113c-0.14-0.045-0.274,0.019-0.399-0.035c0.073-0.063,0.163-0.04,0.245-0.039
	c0.456,0.019,0.847-0.138,1.189-0.422c0.08-0.068,0.133-0.166,0.229-0.223c0.146-0.079,0.227-0.213,0.293-0.353
	c0.186-0.367,0.232-0.758,0.182-1.159c-0.018-0.12-0.072-0.183-0.193-0.206c-0.107-0.015-0.217-0.03-0.326-0.055
	c-0.107-0.027-0.195-0.008-0.27,0.081c-0.066,0.03-0.127,0.002-0.19-0.009c-0.033-0.073,0.029-0.043,0.055-0.051
	c0.055-0.083,0.082-0.203,0.221-0.186c-0.021-0.021-0.029-0.047,0.008-0.064C42.252,37.625,42.398,37.629,42.537,37.705z"/>
<path fill="#030303" d="M42.629,40.047c-0.084-0.055-0.121-0.159-0.229-0.189c-0.051-0.012-0.018-0.064,0.012-0.092
	c0.219-0.196,0.338-0.452,0.443-0.721c0.072-0.18,0.063-0.37,0.102-0.555c0.021-0.106,0.01-0.224,0.016-0.335
	c0.094,0.519,0.025,1.012-0.236,1.469C42.656,39.759,42.598,39.887,42.629,40.047z"/>
<path fill="#030303" d="M37.175,41.67c-0.004,0.147,0.039,0.286-0.017,0.435c-0.022,0.06,0.043,0.095,0.071,0.14
	c0.011,0.021,0.027,0.021,0.041-0.001c0.035-0.04,0.035-0.085,0.019-0.131c-0.01-0.036-0.014-0.071-0.021-0.104
	c0.065,0.104,0.16,0.107,0.262,0.106c0.182-0.006,0.363,0.001,0.545-0.001c0.057,0.002,0.111-0.011,0.141,0.064
	c0.012,0.02,0.033,0.045,0.063,0.025c0.027-0.021,0.018-0.047,0.018-0.064c0.002-0.151,0.006-0.315,0.002-0.474
	c-0.009-0.315-0.25-0.526-0.592-0.529C37.39,41.14,37.179,41.355,37.175,41.67z M38,41.45c0.074,0.021,0.139,0.061,0.178,0.131
	c0.103,0.19,0.055,0.268-0.148,0.265c-0.096-0.001-0.194,0.001-0.292-0.001c-0.132-0.001-0.263,0-0.394-0.002
	c-0.065,0.012-0.086-0.02-0.086-0.085c0-0.147,0.082-0.272,0.241-0.313C37.666,41.402,37.833,41.405,38,41.45z"/>
<path fill="#030303" d="M37.261,42.499c-0.153,0.225-0.131,0.521,0.055,0.729c0.174,0.188,0.473,0.238,0.695,0.111
	c0.074-0.043,0.156-0.156,0.205-0.142c0.072,0.021,0.121,0.132,0.195,0.229c-0.061-0.271-0.238-0.437-0.383-0.612
	c-0.02-0.021-0.063-0.021-0.102-0.026c-0.063-0.021-0.14-0.009-0.178-0.074c-0.074-0.127-0.123-0.133-0.212-0.02
	c0.002-0.148,0.002-0.148,0.153-0.148c0.068,0.002,0.113,0.002,0.041-0.066c-0.021,0.016-0.045,0.021-0.069,0.021
	c-0.073,0.015-0.169-0.041-0.194,0.084c-0.014,0.07-0.088,0.142-0.054,0.229c0.021,0.05-0.019,0.062-0.047,0.069
	c-0.042,0.024-0.056,0.062-0.024,0.104c0.018,0.021,0.056,0.063,0.068,0.025c0.016-0.023,0.1-0.032,0.042-0.096
	c-0.013-0.018-0.036-0.033-0.005-0.053c0.011-0.007,0.023-0.009,0.036-0.004c0.022,0.014,0.052,0.031,0.04,0.057
	c-0.051,0.125,0.052,0.137,0.119,0.155c0.096,0.021,0.195,0.036,0.31,0.054c-0.026-0.063-0.071-0.063-0.114-0.064
	c-0.074-0.012-0.141-0.034-0.205-0.064c-0.05-0.025-0.041-0.068-0.02-0.109c0.027-0.053,0.057-0.008,0.081,0.016
	c0.112,0.071,0.237,0.124,0.364,0.18c0.1,0.031,0.084,0.069,0.02,0.139c-0.163,0.146-0.4,0.18-0.592,0.066
	c-0.191-0.106-0.29-0.332-0.239-0.552c0.05-0.228,0.218-0.356,0.46-0.385l0,0c0.32-0.015,0.557,0.233,0.527,0.554
	c-0.003,0.025-0.016,0.064-0.014,0.086s0.021,0.043,0.037,0.051c0.026,0.015,0.028-0.021,0.035-0.041
	c0.008-0.021,0.016-0.063,0.02-0.086c0.031-0.252-0.125-0.51-0.368-0.605C37.697,42.189,37.408,42.276,37.261,42.499z
	 M37.829,42.837c0.119,0.008,0.181,0.067,0.243,0.123C37.988,42.954,37.921,42.907,37.829,42.837z"/>
<path fill="#030303" d="M38.159,40.401c0.063,0.064,0.087,0.144,0.071,0.232c-0.02,0.105-0.151,0.199-0.271,0.176
	c-0.117-0.016-0.042-0.115-0.058-0.172c-0.009-0.025-0.001-0.054-0.002-0.077c0-0.063,0-0.133,0.001-0.204
	c0.001-0.043-0.018-0.063-0.061-0.058c-0.133,0.009-0.266,0.106-0.311,0.232c-0.073,0.192,0.006,0.403,0.186,0.504
	c0.187,0.089,0.418,0.021,0.539-0.145c0.112-0.164,0.094-0.433-0.037-0.561c-0.021-0.019-0.037-0.05-0.072-0.022
	C38.114,40.358,38.136,40.378,38.159,40.401z M37.75,40.811c-0.085-0.01-0.168-0.034-0.166-0.132
	c0.002-0.098,0.088-0.112,0.167-0.122c0.119-0.012,0.05,0.086,0.073,0.134C37.802,40.731,37.863,40.821,37.75,40.811z"/>
<path fill="#F04B4A" d="M42.441,40.912c0.006,0.061-0.023,0.088-0.082,0.103c-0.092,0.033-0.18,0.068-0.271,0.103
	c-0.146,0.083-0.145,0.21-0.127,0.357c0.018,0.165,0.035,0.336,0.032,0.503c-0.002,0.109,0.042,0.16,0.146,0.183
	c0.09,0.021,0.186,0.039,0.273,0.063c0.088,0.021,0.145,0.076,0.137,0.175c-0.027,0.451,0.025,0.899,0.148,1.341
	c0.008,0.029,0.004,0.063-0.008,0.104c0.014,0.08-0.027,0.099-0.096,0.104c-0.314,0.047-0.625,0.077-0.932,0.144
	c-0.154,0.086-0.154,0.086-0.133,0.265c0.018,0.11,0.031,0.229,0.05,0.339c0.013,0.091,0.054,0.121,0.147,0.105
	c0.29-0.047,0.579-0.086,0.868-0.135c0.156-0.02,0.188-0.004,0.225,0.147c0.037,0.171,0.08,0.341,0.115,0.512
	c0.008,0.044,0.014,0.086,0.002,0.126c0.002,0.067-0.031,0.098-0.098,0.106c-0.148,0.018-0.299,0.052-0.447,0.067
	c-0.385,0.034-0.762,0.105-1.144,0.16c-0.418,0.061-0.836,0.12-1.255,0.184c-0.116,0.021-0.145-0.021-0.163-0.118
	c-0.036-0.189-0.078-0.37-0.125-0.562c-0.028-0.103-0.019-0.169,0.108-0.175c0.258-0.103,0.535-0.103,0.804-0.149
	c0.09-0.021,0.155-0.045,0.174-0.145c-0.022-0.156-0.047-0.318-0.063-0.482c-0.012-0.09-0.051-0.104-0.137-0.094
	c-0.287,0.049-0.576,0.088-0.865,0.135c-0.078,0.017-0.104-0.013-0.119-0.08c-0.043-0.209-0.088-0.412-0.143-0.616
	c-0.027-0.104,0.006-0.146,0.105-0.153c0.131-0.063,0.271-0.064,0.406-0.091c0.688-0.104,1.373-0.208,2.073-0.313
	c-0.077-0.023-0.161-0.023-0.214-0.09c-0.519-0.142-1.034-0.277-1.553-0.412c-0.248-0.064-0.498-0.135-0.748-0.19
	c-0.093-0.021-0.125-0.065-0.127-0.153c-0.015-0.296-0.031-0.593-0.054-0.888c-0.004-0.064,0.021-0.106,0.074-0.144
	c0.369-0.132,0.723-0.289,1.082-0.437c0.569-0.225,1.133-0.462,1.702-0.69c0.037-0.018,0.08-0.024,0.121-0.037
	c0.033,0.021,0.049,0.061,0.055,0.101c0.031,0.21,0.063,0.426,0.082,0.637C42.463,40.837,42.449,40.875,42.441,40.912z"/>
<path fill="#F04B4A" d="M42.537,37.705c-0.152-0.016-0.305-0.031-0.457-0.045c-0.096,0.038-0.186-0.042-0.278-0.032
	c-0.353-0.041-0.705-0.086-1.057-0.128c-0.402-0.049-0.804-0.093-1.208-0.136c-0.05-0.01-0.098-0.012-0.092-0.078
	c0.028-0.27-0.001-0.532,0.046-0.794c0.051,0.001,0.104,0.005,0.152,0.005c0.162-0.041,0.316,0.017,0.478,0.022
	c0.103,0.007,0.204,0.014,0.302,0.034c0.102,0.021,0.172-0.01,0.215-0.105c0.021-0.171,0.047-0.342,0.066-0.515
	c0.008-0.064-0.039-0.07-0.087-0.076c-0.293-0.032-0.587-0.072-0.879-0.098c-0.087-0.011-0.116-0.041-0.11-0.127
	c0.014-0.221,0.022-0.439,0.025-0.654c0.001-0.133,0.097-0.071,0.152-0.085c0.093-0.044,0.187-0.01,0.273-0.002
	c0.66,0.075,1.322,0.153,1.983,0.225c0.008,0.003,0.018,0,0.021-0.008c-0.061-0.055-0.157-0.067-0.196-0.155
	c-0.426-0.257-0.856-0.516-1.287-0.775c-0.196-0.119-0.392-0.235-0.59-0.351c-0.074-0.043-0.093-0.087-0.074-0.172
	c0.064-0.269,0.129-0.54,0.18-0.816c0.021-0.108,0.064-0.173,0.18-0.183c0.155-0.076,0.33-0.063,0.496-0.08
	c0.786-0.088,1.579-0.174,2.366-0.256c0.205-0.022,0.232,0.007,0.207,0.209c-0.021,0.167-0.049,0.334-0.076,0.501
	c-0.01,0.044-0.016,0.093-0.051,0.129c-0.012,0.1-0.07,0.125-0.164,0.123c-0.1-0.002-0.195-0.006-0.291,0.023
	c-0.102,0.042-0.135,0.122-0.154,0.223c-0.041,0.195-0.078,0.392-0.125,0.584c-0.027,0.099,0.002,0.164,0.094,0.207
	c0.096,0.045,0.188,0.089,0.275,0.152c0.07,0.043,0.092,0.102,0.066,0.176c-0.012,0.034-0.02,0.063-0.031,0.098
	c-0.092,0.267-0.146,0.54-0.127,0.825c0.008,0.132-0.014,0.261-0.051,0.388c0.006,0.125-0.059,0.142-0.168,0.123
	c-0.307-0.038-0.611-0.065-0.917-0.098c-0.109,0.013-0.159,0.079-0.166,0.188c-0.008,0.111-0.021,0.229-0.036,0.337
	c-0.015,0.144-0.004,0.161,0.142,0.181c0.256,0.034,0.51,0.061,0.768,0.087c0.215,0.021,0.244,0.048,0.242,0.264
	c0.002,0.106,0.002,0.212,0,0.317c-0.004,0.063-0.002,0.126-0.047,0.177C42.549,37.595,42.543,37.647,42.537,37.705z"/>
<path fill="#F04B4A" d="M43.066,47.824c-0.189,0.204-0.42,0.353-0.664,0.478c-0.248,0.086-0.501,0.154-0.768,0.152
	c-0.772,0-1.387-0.414-1.664-1.139c-0.069-0.18-0.119-0.354-0.133-0.553c-0.01-0.081,0.018-0.125,0.086-0.154
	c0.17-0.135,0.381-0.189,0.573-0.279c0.042-0.018,0.083-0.021,0.106,0.027c0.041,0.107,0.037,0.232,0.065,0.35
	c0.091,0.36,0.271,0.662,0.646,0.78c0.249,0.077,0.501,0.058,0.738-0.065c0.141-0.065,0.248-0.181,0.359-0.283
	c0.191-0.271,0.205-0.58,0.129-0.897c-0.039-0.146-0.109-0.28-0.176-0.42c0.076-0.017,0.148-0.024,0.23-0.038
	c0.17-0.082,0.357-0.066,0.543-0.087c0.064-0.009,0.104,0.052,0.129,0.104c0.264,0.599,0.314,1.195-0.021,1.779
	C43.201,47.675,43.121,47.743,43.066,47.824z"/>
<path fill="#F04B4A" d="M42.338,39.665c-0.417,0.5-0.952,0.702-1.593,0.654c-0.024-0.001-0.051,0-0.076,0.001
	c-0.255-0.05-0.503-0.111-0.729-0.248c-0.535-0.324-0.789-0.814-0.835-1.428c-0.008-0.126,0.004-0.252,0.006-0.377
	c0.002-0.135,0.05-0.229,0.199-0.235c0.129-0.078,0.277-0.07,0.416-0.092c0.271-0.04,0.27-0.038,0.238,0.23
	c-0.023,0.207-0.016,0.407,0.047,0.604c0.162,0.505,0.627,0.694,1.103,0.598c0.116-0.021,0.229-0.063,0.335-0.115
	c0.268-0.177,0.389-0.439,0.424-0.742c0.02-0.192,0.002-0.39-0.052-0.578c0.06-0.054,0.125,0.014,0.185-0.004
	c0.211-0.028,0.41,0.019,0.611,0.071c0.055,0.014,0.072,0.07,0.08,0.125c0.068,0.47,0.045,0.929-0.195,1.35
	C42.457,39.546,42.4,39.606,42.338,39.665z"/>
<path fill="#F4F4F4" d="M41.628,38.366c-0.002,0.564-0.392,0.9-0.882,0.786c-0.219-0.052-0.373-0.186-0.45-0.392
	c-0.125-0.328-0.064-0.641,0.075-0.948c0.021-0.045,0.058-0.041,0.095-0.039c0.332,0.038,0.664,0.074,0.996,0.113
	c0.053,0.004,0.07,0.037,0.088,0.076C41.609,38.096,41.632,38.241,41.628,38.366z"/>
<path fill="#F4F4F4" d="M40.914,46.544c0.004-0.104-0.006-0.229,0.016-0.34c0.008-0.058,0.022-0.08,0.084-0.094
	c0.338-0.045,0.676-0.098,1.014-0.15c0.074-0.01,0.115,0.008,0.154,0.076c0.092,0.17,0.16,0.354,0.16,0.551
	c0.002,0.407-0.283,0.703-0.694,0.722c-0.032,0.001-0.065,0.001-0.102,0.001c-0.156,0.037-0.268-0.051-0.369-0.146
	c-0.17-0.15-0.244-0.354-0.281-0.576C40.894,46.571,40.903,46.556,40.914,46.544z"/>
<path fill="#030303" d="M41.45,39.252c-0.526,0.427-1.365,0.104-1.508-0.582c-0.04-0.208-0.046-0.418,0.007-0.627
	c0.027-0.102-0.009-0.104-0.087-0.095c-0.185,0.031-0.369,0.056-0.552,0.082c0.037-0.1,0.134-0.104,0.209-0.119
	c0.152-0.024,0.301-0.076,0.461-0.063c0.098,0.006,0.131,0.038,0.123,0.137c-0.021,0.287-0.021,0.572,0.131,0.837
	c0.225,0.383,0.564,0.512,0.955,0.473C41.276,39.288,41.366,39.268,41.45,39.252z"/>
<path fill="#030303" d="M40.914,46.544c0.021,0.078,0.039,0.164,0.064,0.242c0.093,0.275,0.266,0.471,0.565,0.522
	c0.208,0.124,0.408,0.06,0.605-0.022c0.092-0.042,0.178-0.103,0.266-0.146c-0.072,0.146-0.186,0.239-0.332,0.304
	c-0.586,0.223-1.054-0.125-1.25-0.581c-0.056-0.129-0.094-0.271-0.111-0.399c-0.006-0.063-0.02-0.146-0.125-0.101
	c-0.041-0.028-0.08,0-0.115,0.021c-0.188,0.082-0.372,0.156-0.559,0.234c0.074-0.14,0.187-0.218,0.334-0.268
	c0.105-0.033,0.204-0.098,0.305-0.143c0.137-0.064,0.187-0.043,0.266,0.09C40.878,46.367,40.876,46.46,40.914,46.544z"/>
<path fill="#030303" d="M41.824,43.018c0.113,0.024,0.229,0.056,0.342,0.081c-0.002,0.009-0.002,0.019,0,0.027
	c-0.174,0.021-0.349,0.053-0.522,0.08c-0.668,0.096-1.336,0.196-2.008,0.299c-0.022,0.006-0.051-0.002-0.076,0.002
	c0.102-0.187,0.291-0.174,0.455-0.196c0.543-0.076,1.092-0.144,1.633-0.245C41.707,43.058,41.788,43.112,41.824,43.018z"/>
<path fill="#030303" d="M40.786,44.816c0.037,0.101,0.019,0.149-0.103,0.169c-0.293,0.033-0.582,0.079-0.877,0.119
	c0.166-0.229,0.433-0.155,0.65-0.219C40.565,44.86,40.687,44.888,40.786,44.816z"/>
<path fill="#030303" d="M41.802,37.629c0.096-0.004,0.188,0.01,0.28,0.035c0.02,0.009,0.033,0.02,0.055,0.035
	c-0.094,0.028-0.195,0.046-0.204,0.173c0,0.005-0.037,0.007-0.055,0.013c0-0.022-0.008-0.05,0.002-0.063
	C41.962,37.711,41.945,37.646,41.802,37.629z"/>
<path fill="#030303" d="M43.244,33.165c0.033-0.231,0.061-0.462,0.102-0.691c0.021-0.112-0.016-0.127-0.117-0.115
	c-0.93,0.103-1.859,0.202-2.785,0.301c-0.046,0.005-0.093,0.002-0.14,0.005c0.074-0.172,0.242-0.131,0.375-0.145
	c0.328-0.034,0.656-0.074,0.985-0.115c0.185-0.021,0.367-0.042,0.554-0.052c0.375-0.026,0.748-0.094,1.125-0.125
	c0.115-0.01,0.172,0.025,0.164,0.141c-0.018,0.235-0.045,0.47-0.105,0.699C43.381,33.15,43.318,33.159,43.244,33.165z"/>
<path fill="#030303" d="M42.738,35.958c0.002-0.44-0.008-0.881,0.168-1.295c0.033-0.083,0.023-0.133-0.063-0.174
	c-0.105-0.046-0.199-0.115-0.303-0.157c-0.082-0.039-0.104-0.088-0.082-0.172c0.061-0.243,0.113-0.486,0.158-0.731
	c0.021-0.105,0.07-0.145,0.172-0.122c-0.045,0.222-0.086,0.442-0.145,0.66c-0.033,0.122,0.018,0.195,0.111,0.256
	c0.068,0.047,0.145,0.085,0.221,0.122c0.092,0.054,0.133,0.13,0.088,0.241c-0.086,0.207-0.152,0.417-0.133,0.648
	c0.016,0.19-0.02,0.377-0.029,0.57C42.898,35.91,42.838,35.958,42.738,35.958z"/>
<path fill="#030303" d="M42.555,37.538c0.006-0.187,0.004-0.371,0.02-0.557c0.012-0.122-0.041-0.146-0.146-0.158
	c-0.313-0.029-0.622-0.076-0.933-0.101c-0.089-0.009-0.104-0.044-0.094-0.123c0.021-0.154,0.04-0.313,0.056-0.466
	c0.016-0.178,0.014-0.177,0.199-0.148c-0.021,0.021-0.051,0.036-0.048,0.069c0.007,0.103-0.017,0.209-0.025,0.316
	c-0.012,0.152,0.05,0.225,0.207,0.243c0.265,0.03,0.527,0.053,0.792,0.084c0.096,0.013,0.176,0.073,0.158,0.163
	c-0.037,0.188,0.004,0.377-0.021,0.563C42.705,37.534,42.676,37.563,42.555,37.538z"/>
<path fill="#030303" d="M41.898,34.958c0.106,0.059,0.211,0.12,0.319,0.178c-0.002,0.014-0.01,0.028-0.01,0.041
	c-0.798-0.093-1.598-0.188-2.399-0.283c0.07-0.102,0.156-0.117,0.281-0.106c0.358,0.025,0.711,0.093,1.064,0.121
	C41.404,34.93,41.648,34.975,41.898,34.958z"/>
<path fill="#030303" d="M40.64,36.454c0,0.165-0.002,0.172-0.154,0.15c-0.279-0.033-0.563-0.044-0.838-0.101
	c0.033-0.109,0.098-0.129,0.212-0.117C40.118,36.414,40.375,36.479,40.64,36.454z"/>
<path fill="#030303" d="M42.691,43.831c-0.139-0.439-0.215-0.898-0.172-1.379c0.012-0.127-0.021-0.188-0.158-0.208
	c-0.102-0.009-0.205-0.047-0.309-0.065c-0.067-0.016-0.095-0.041-0.098-0.11c-0.013-0.226-0.033-0.473-0.043-0.706
	c-0.006-0.212-0.048-0.185,0.176-0.242c-0.01,0.243-0.008,0.489,0.02,0.74c0.014,0.114,0.066,0.191,0.191,0.213
	c0.004,0.001,0.01,0.001,0.012,0c0.365,0.063,0.441,0.182,0.369,0.538c-0.031,0.149-0.01,0.304,0.02,0.442
	c0.029,0.186,0.064,0.356,0.117,0.527C42.852,43.726,42.811,43.796,42.691,43.831z"/>
<path fill="#030303" d="M43.066,47.824c0.119-0.194,0.248-0.388,0.311-0.614c0.143-0.5,0.051-0.969-0.154-1.427
	c-0.027-0.062-0.066-0.063-0.123-0.052c-0.168,0.018-0.336,0.035-0.504,0.053c0.068-0.177,0.238-0.104,0.363-0.143
	c0.037-0.024,0.084-0.001,0.127-0.01c0.236-0.053,0.303,0.002,0.385,0.229c0.104,0.284,0.162,0.572,0.137,0.875
	C43.566,47.171,43.41,47.544,43.066,47.824z"/>
<path fill="#030303" d="M42.932,45.436c-0.072-0.216-0.109-0.444-0.154-0.654c-0.018-0.082-0.043-0.112-0.135-0.094
	c-0.318,0.06-0.647,0.096-0.965,0.149c-0.074,0.015-0.117,0.004-0.125-0.093c-0.019-0.161-0.035-0.336-0.076-0.497
	c-0.035-0.143,0.027-0.162,0.137-0.164c0.018,0.002,0.036,0.002,0.052,0.002c-0.049,0.099,0.009,0.188,0.019,0.271
	c0.002,0.063,0.024,0.106,0.031,0.146c0.022,0.181,0.094,0.229,0.27,0.192c0.264-0.054,0.528-0.091,0.795-0.112
	c0.086-0.014,0.139,0.027,0.158,0.106c0.049,0.185,0.098,0.36,0.139,0.55C43.096,45.352,42.988,45.378,42.932,45.436z"/>
<path fill="#030303" d="M42.338,39.665c0.328-0.458,0.406-0.97,0.326-1.518c-0.014-0.083-0.035-0.13-0.135-0.141
	c-0.176-0.017-0.352-0.053-0.523-0.079c0.047-0.11,0.123-0.133,0.234-0.105c0.127,0.034,0.26,0.051,0.387,0.064
	c0.129,0.009,0.197,0.087,0.211,0.204c0.039,0.353,0.035,0.705-0.104,1.041C42.641,39.337,42.563,39.554,42.338,39.665z"/>
<path fill="#030303" d="M42.441,40.912c-0.039-0.28-0.078-0.566-0.119-0.844c0.004-0.043,0.025-0.074,0.074-0.068
	c0.051,0.009,0.076,0.043,0.096,0.088c0.055,0.12,0.023,0.25,0.055,0.375c0.02,0.074,0.025,0.153,0.031,0.233
	C42.58,40.805,42.545,40.877,42.441,40.912z"/>
<path fill="#030303" d="M41.292,41.869c0.002,0.034,0.007,0.066,0.009,0.104c0.006,0.063-0.018,0.085-0.078,0.072
	c-0.34-0.063-0.681-0.125-1.022-0.188c-0.036-0.008-0.062-0.025-0.062-0.07c-0.002-0.042,0.01-0.074,0.055-0.085
	c0.054-0.016,0.105-0.029,0.158-0.044c0.023-0.016,0.048-0.006,0.068,0.016c0.162,0.065,0.338,0.066,0.506,0.105
	c0.057,0.02,0.116,0.026,0.172,0.043C41.16,41.849,41.241,41.814,41.292,41.869z"/>
<path fill="#030303" d="M40.407,41.688c-0.013-0.021-0.034-0.018-0.056-0.019c0.272-0.103,0.558-0.183,0.834-0.271
	c0.059-0.021,0.086-0.009,0.089,0.064c0.002,0.143,0.034,0.271,0.018,0.419c-0.065-0.016-0.137,0.024-0.198-0.022
	c0.006-0.021,0.026-0.047,0.031-0.065c0.012-0.083,0.01-0.181-0.047-0.237c-0.05-0.057-0.12,0.008-0.178,0.019
	c-0.117,0.03-0.229,0.089-0.346,0.123C40.505,41.692,40.458,41.719,40.407,41.688z"/>
<path fill="#030303" d="M41.876,33.769c-0.021,0.24-0.021,0.24-0.234,0.134c-0.258-0.127-0.516-0.255-0.77-0.387
	c-0.043-0.021-0.102-0.03-0.088-0.103c0.014-0.077,0.074-0.073,0.127-0.076c0.057,0,0.116,0.006,0.176,0.007
	c0.033,0.03-0.033,0.049-0.007,0.076c0.202,0.072,0.384,0.186,0.572,0.277C41.737,33.704,41.816,33.702,41.876,33.769z"/>
<path fill="#030303" d="M41.036,33.432c-0.034-0.006-0.06-0.019-0.017-0.046c0.023-0.017,0.06-0.005,0.068-0.042
	c0.271-0.007,0.543-0.019,0.816-0.026c0.068-0.003,0.076,0.03,0.064,0.085c-0.029,0.121-0.062,0.242-0.092,0.363
	c-0.078-0.011-0.15-0.042-0.23-0.03c-0.002-0.061,0.016-0.116,0.025-0.174c0.021-0.114,0-0.134-0.113-0.142
	C41.388,33.406,41.21,33.457,41.036,33.432z"/>
<path fill="#030303" d="M40.599,46.354c0.017-0.021-0.017-0.075,0.039-0.076c0.049,0.007,0.084,0.034,0.103,0.084
	c0.034,0.104,0.033,0.223,0.071,0.331c0.125,0.373,0.338,0.663,0.742,0.758c0.174,0.04,0.355,0.04,0.534-0.011
	c-0.401,0.251-0.938,0.152-1.225-0.225C40.669,46.962,40.589,46.671,40.599,46.354z"/>
<path fill="#F1F0F1" d="M40.407,41.688c0.208-0.062,0.413-0.137,0.621-0.212c0.065-0.021,0.099-0.018,0.108,0.063
	c0.008,0.067,0.018,0.148,0.037,0.226c0.012,0.064-0.019,0.095-0.08,0.09c-0.194-0.033-0.391-0.069-0.586-0.107
	C40.47,41.729,40.421,41.747,40.407,41.688z"/>
<path fill="#EBECEB" d="M41.036,33.432c0.21-0.058,0.429-0.041,0.642-0.048c0.035,0,0.061,0.011,0.053,0.052
	c-0.021,0.103-0.008,0.212-0.082,0.301C41.45,33.625,41.248,33.515,41.036,33.432z"/>
<path fill="#030303" d="M42.652,40.599c0.156-0.014,0.314-0.029,0.471-0.041c0.045-0.002,0.092,0.012,0.137,0.018
	c0.01,0,0.021,0.02,0.027,0.003c0.043-0.013,0.082-0.021,0.125-0.053c-0.021-0.005-0.049-0.015-0.07-0.013
	c-0.061-0.003-0.115-0.004-0.17,0c-0.033,0-0.043-0.012-0.043-0.043c0.006-0.133,0.01-0.264,0.01-0.393
	c0-0.092,0.018-0.176,0.068-0.249c0.021-0.032,0.016-0.063,0-0.093c-0.055-0.128-0.07-0.264-0.059-0.398
	c0.014-0.145,0.055-0.275,0.139-0.386c0.08-0.106,0.191-0.173,0.328-0.197c0.037-0.008,0.078-0.014,0.119-0.019
	c-0.08-0.07-0.18-0.046-0.27-0.063c-0.055-0.013-0.105-0.021-0.162-0.027c-0.029-0.006-0.041-0.021-0.035-0.054
	c0.002-0.02,0.006-0.043,0.01-0.063c0.008-0.047-0.008-0.074-0.057-0.078c-0.078-0.008-0.156-0.004-0.23-0.013
	c-0.066-0.011-0.129-0.032-0.197-0.045c0.025-0.163,0.049-0.32,0.07-0.484c0.006-0.023,0.008-0.054,0.014-0.078
	c0.01-0.043,0.045-0.064,0.09-0.058c0.111,0.019,0.227,0.035,0.344,0.049c0.053,0.01,0.111,0.009,0.156,0.034
	c0.094,0.049,0.188,0.006,0.281,0.025c0.145,0.032,0.289,0.049,0.436,0.075c0.061,0.013,0.117,0.021,0.178,0.034
	c0.039,0.009,0.055-0.01,0.066-0.05c0.029-0.097-0.039-0.143-0.086-0.198c-0.006-0.011-0.043-0.004-0.057,0.006
	c-0.064,0.042-0.137,0.075-0.219,0.087c-0.145,0.027-0.354-0.054-0.439-0.181c-0.131-0.195-0.123-0.399-0.076-0.615
	c0.021-0.105,0.061-0.201,0.117-0.294c0.08-0.139,0.188-0.251,0.361-0.268c0.014-0.003,0.033-0.005,0.047,0
	c0.109,0.029,0.219,0.058,0.328,0.088c0.008,0.003,0.018,0.019,0.02,0.034c0.002,0.013-0.002,0.027-0.004,0.042
	c0,0.03,0.006,0.048,0.041,0.026c0.125-0.065,0.256-0.074,0.385-0.032c0.119,0.038,0.217,0.116,0.275,0.23
	c0.104,0.192,0.096,0.39,0.035,0.589c-0.041,0.154-0.121,0.29-0.234,0.408c-0.016,0.015-0.025,0.032-0.049,0.061
	c0.033,0.012,0.055,0.015,0.076,0.017C45,37.951,45.012,37.968,45,38.02c-0.021,0.091-0.035,0.18-0.055,0.271
	c-0.02,0.12-0.043,0.24-0.148,0.32c-0.035,0.026-0.074,0.047-0.109,0.082c0.039,0.004,0.078,0.013,0.117,0.01
	c0.066,0.009,0.074,0.019,0.059,0.09c-0.012,0.049-0.01,0.099-0.02,0.149c-0.012,0.083-0.02,0.172-0.037,0.258
	c-0.043,0.168-0.174,0.267-0.361,0.254c-0.188-0.017-0.383-0.043-0.574-0.061c-0.129-0.008-0.17,0.047-0.117,0.171
	c0.045,0.107,0.137,0.151,0.244,0.161c0.154,0.008,0.313,0.009,0.469,0.019c0.082,0.006,0.164,0.012,0.24,0.017
	c0.031,0.008,0.051,0.016,0.049,0.055c-0.008,0.344-0.016,0.686-0.023,1.031c-0.002,0.104-0.049,0.191-0.143,0.256
	c-0.006,0.003-0.012,0.008-0.014,0.014c-0.004,0.001-0.004,0.005-0.008,0.022c0.025,0.002,0.055,0.011,0.078,0.012
	c0.084-0.002,0.086-0.001,0.096,0.083c0.008,0.147,0.02,0.291,0.02,0.438c0.002,0.104-0.088,0.208-0.184,0.245
	c-0.121,0.041-0.25,0.041-0.373,0.061c-0.125,0.023-0.25,0.021-0.377,0.04c-0.066,0.008-0.086,0.053-0.047,0.104
	c0.061,0.086,0.146,0.116,0.244,0.106c0.225-0.019,0.443-0.06,0.666-0.082c0.037-0.013,0.088-0.021,0.113-0.015
	c0.023,0.021,0.018,0.07,0.021,0.105c0.02,0.145,0.041,0.279,0.061,0.432c0.008,0.061-0.004,0.063-0.063,0.066
	c-0.158,0.021-0.314,0.055-0.473,0.071c-0.119,0.024-0.24,0.044-0.361,0.063c-0.031,0.007-0.063,0.022-0.088,0.035
	c-0.012,0.009-0.016,0.043-0.01,0.06c0.021,0.061,0.074,0.097,0.133,0.108c0.078,0.022,0.158,0.013,0.238-0.003
	c0.076-0.02,0.145-0.034,0.223-0.051c0.129-0.021,0.256-0.055,0.387-0.075c0.072-0.017,0.07-0.009,0.084,0.063
	c0.012,0.069,0.033,0.145,0.049,0.221c0.02,0.087,0.031,0.178,0.047,0.268c0.004,0.021-0.004,0.047-0.035,0.055
	c-0.154,0.033-0.313,0.063-0.469,0.104c-0.133,0.033-0.268,0.064-0.398,0.104c-0.072,0.021-0.09,0.058-0.063,0.135
	c0.02,0.058,0.02,0.056-0.039,0.063c-0.15,0.038-0.299,0.076-0.445,0.115c-0.033,0.014-0.055,0.01-0.064-0.025
	c-0.018-0.052-0.027-0.103-0.041-0.146c-0.021-0.104-0.049-0.214-0.064-0.313c-0.006-0.041,0.004-0.088,0.014-0.127
	c0.014-0.061,0.012-0.103-0.023-0.146c-0.111-0.147-0.152-0.315-0.139-0.502c0.006-0.083,0.023-0.162,0.068-0.234
	c0.016-0.021,0.012-0.047-0.008-0.062c-0.092-0.104-0.148-0.229-0.17-0.355c-0.021-0.104-0.021-0.23,0.01-0.341
	c0.029-0.102,0.076-0.19,0.152-0.26c0.068-0.063,0.146-0.106,0.24-0.128c0.01-0.003,0.021-0.006,0.023-0.014
	c0.002-0.003,0.006-0.006,0.016-0.021c-0.033-0.005-0.061-0.015-0.086-0.014c-0.104,0.006-0.207,0.01-0.309,0.021
	c-0.07,0.008-0.086,0-0.088-0.067c-0.006-0.105-0.004-0.104-0.109-0.104c-0.125,0.007-0.252,0.008-0.381,0.01
	C42.65,41.001,42.652,40.799,42.652,40.599z M43.625,43.335c-0.027,0.039-0.063,0.073-0.068,0.112
	c-0.01,0.058-0.002,0.116,0.006,0.172c0.014,0.072,0.035,0.147,0.049,0.222c0.008,0.063,0.02,0.066,0.072,0.063
	c0.072-0.021,0.145-0.035,0.213-0.062c0.021-0.008,0.043-0.021,0.029-0.058c-0.008-0.026-0.012-0.059-0.02-0.088
	c-0.006-0.021,0.004-0.037,0.025-0.042c0.07-0.02,0.143-0.036,0.215-0.054c0.236-0.056,0.475-0.109,0.709-0.167
	c0.035-0.006,0.047-0.021,0.039-0.055c-0.016-0.064-0.029-0.121-0.041-0.189c-0.021-0.116-0.039-0.127-0.156-0.104
	c-0.084,0.021-0.166,0.037-0.25,0.059c-0.084,0.023-0.17,0.033-0.254,0.061c-0.131,0.023-0.242-0.012-0.348-0.082
	c-0.068-0.043-0.096-0.117-0.109-0.188c-0.01-0.063,0.01-0.104,0.057-0.142c0.078-0.059,0.164-0.061,0.25-0.066
	c0.09-0.021,0.182-0.027,0.27-0.042c0.123-0.019,0.246-0.044,0.369-0.063c0.047-0.008,0.063-0.017,0.057-0.068
	c-0.012-0.086-0.021-0.166-0.035-0.252c-0.004-0.028-0.021-0.055-0.059-0.047c-0.082,0.021-0.166,0.021-0.248,0.033
	c-0.09,0.021-0.178,0.021-0.266,0.041c-0.125,0.028-0.24,0.021-0.355-0.041c-0.094-0.058-0.166-0.146-0.156-0.271
	c0.004-0.047,0.02-0.086,0.063-0.105c0.053-0.025,0.107-0.039,0.164-0.05c0.203-0.022,0.412-0.044,0.617-0.061
	c0.102-0.011,0.17-0.086,0.166-0.189c-0.006-0.102-0.018-0.192-0.021-0.299c-0.006-0.035-0.027-0.047-0.063-0.043
	c-0.041,0.006-0.086,0.012-0.129,0.017c-0.123-0.001-0.123-0.001-0.123,0.117c0.004,0.03-0.006,0.05-0.041,0.052
	c-0.152,0.009-0.309,0.017-0.461,0.027c-0.068,0.011-0.139,0.018-0.201,0.042c-0.061,0.021-0.121,0.052-0.168,0.085
	c-0.092,0.076-0.133,0.178-0.141,0.303c-0.006,0.153,0.01,0.3,0.109,0.429c0.035,0.05,0.078,0.084,0.117,0.13
	c0.014,0.021,0.043,0.024,0.016,0.062c-0.064,0.061-0.096,0.122-0.115,0.203c-0.039,0.178,0.004,0.327,0.1,0.473
	C43.537,43.249,43.584,43.292,43.625,43.335z M43.969,40.219c0.213,0.006,0.393,0.017,0.568,0.025c0.037,0,0.064-0.021,0.066-0.061
	c0.002-0.087,0.002-0.176,0.004-0.265c-0.002-0.032-0.012-0.048-0.045-0.048c-0.193-0.006-0.389-0.021-0.58-0.033
	c-0.039-0.002-0.072,0-0.109-0.009c-0.156-0.046-0.266-0.151-0.279-0.325c-0.006-0.075-0.016-0.155,0.057-0.21
	c0.063-0.05,0.135-0.051,0.209-0.042c0.031,0.002,0.064,0.015,0.102,0.014c0.123,0.008,0.248,0.021,0.373,0.032
	c0.051,0.006,0.102,0.01,0.148,0.011c0.086-0.001,0.148-0.04,0.17-0.124c0.031-0.11,0.043-0.232,0.063-0.342
	c0-0.016-0.023-0.041-0.037-0.045c-0.064-0.014-0.129-0.024-0.195-0.037c-0.072-0.01-0.082,0-0.094,0.073
	c-0.014,0.088-0.014,0.088-0.098,0.074c-0.008-0.001-0.02-0.003-0.02-0.002c-0.072-0.009-0.148-0.018-0.225-0.025
	c-0.121-0.007-0.236-0.017-0.355-0.022c-0.066-0.009-0.127,0.022-0.188,0.049c-0.141,0.071-0.199,0.197-0.227,0.336
	c-0.031,0.186-0.025,0.372,0.094,0.535c0.014,0.018,0.02,0.033-0.004,0.046c-0.094,0.053-0.109,0.148-0.121,0.241
	c-0.01,0.076-0.004,0.15-0.004,0.232c-0.002,0.053,0.01,0.062,0.063,0.061c0.07,0.004,0.143,0.006,0.209,0
	c0.049-0.002,0.061-0.012,0.057-0.06c-0.002-0.02,0.002-0.037,0-0.063c-0.012-0.052,0.018-0.056,0.063-0.053
	C43.75,40.22,43.877,40.218,43.969,40.219z M45.059,37.207c0.014-0.16-0.072-0.343-0.189-0.413c-0.119-0.068-0.307-0.074-0.42,0.021
	c-0.092,0.081-0.164,0.181-0.232,0.279c-0.047,0.063-0.096,0.128-0.139,0.193c-0.023,0.026-0.061,0.04-0.086,0.019
	c-0.02-0.013-0.039-0.043-0.039-0.066c-0.008-0.073,0.01-0.148,0.047-0.214c0.025-0.037,0.057-0.047,0.096-0.032
	c0.051,0.017,0.076,0.005,0.09-0.048c0.014-0.043,0.021-0.084,0.031-0.124c0.012-0.043,0.023-0.084,0.035-0.125
	c0.006-0.026,0-0.048-0.035-0.053c-0.027-0.002-0.057-0.014-0.078-0.022c-0.117-0.041-0.217-0.016-0.299,0.079
	c-0.082,0.092-0.135,0.198-0.168,0.311c-0.031,0.11-0.051,0.223-0.037,0.339c0.02,0.165,0.084,0.29,0.252,0.347
	c0.123,0.042,0.229,0.007,0.326-0.064c0.104-0.076,0.168-0.188,0.246-0.293c0.055-0.067,0.109-0.137,0.168-0.202
	c0.023-0.026,0.082-0.062,0.104-0.031c0.021,0.03,0.016,0.103,0.01,0.137c-0.016,0.067-0.039,0.14-0.076,0.197
	c-0.043,0.072-0.111,0.124-0.188,0.169c-0.039,0.024-0.043,0.045-0.018,0.078c0.037,0.054,0.078,0.098,0.115,0.146
	c0.041,0.061,0.064,0.063,0.125,0.024c0.096-0.064,0.168-0.144,0.229-0.242C45.008,37.494,45.051,37.357,45.059,37.207z
	 M43.701,38.007c-0.125-0.006-0.186,0-0.229,0.124c-0.033,0.087-0.045,0.189-0.064,0.28c-0.006,0.03-0.008,0.063-0.008,0.095
	c0.002,0.019,0.021,0.039,0.035,0.042c0.068,0.014,0.141,0.022,0.211,0.039c0.059,0.006,0.064-0.006,0.07-0.066
	c0.008-0.108,0.008-0.108,0.113-0.096c0.012,0,0.02,0.001,0.025,0.003c0.119,0.02,0.236,0.042,0.359,0.063
	c0.105,0.013,0.217,0.033,0.322,0.045c0.15,0.022,0.229-0.045,0.246-0.174c0.016-0.084,0.033-0.166,0.051-0.249
	c0.01-0.035,0-0.05-0.037-0.06c-0.066-0.013-0.137-0.028-0.203-0.042c-0.041-0.01-0.064-0.006-0.074,0.035
	c-0.002,0.023-0.01,0.042-0.01,0.063c0.002,0.035-0.02,0.054-0.055,0.047c-0.063-0.014-0.121-0.024-0.186-0.038
	c-0.104-0.018-0.207-0.04-0.313-0.055C43.865,38.034,43.764,38.019,43.701,38.007z M43.82,40.654c0.002,0.008,0,0.021,0,0.021
	c-0.131,0-0.26-0.001-0.389-0.001c-0.102,0-0.168,0.042-0.174,0.143c-0.014,0.127-0.002,0.261,0,0.396
	c-0.002,0.022,0.021,0.031,0.051,0.028c0.076-0.007,0.148-0.016,0.227-0.021c0.025-0.003,0.041-0.021,0.037-0.047
	c-0.002-0.021-0.004-0.058-0.004-0.083c-0.004-0.027,0.01-0.042,0.041-0.046c0.262-0.005,0.523-0.017,0.781-0.022
	c0.146-0.01,0.193-0.072,0.205-0.21c0.008-0.087,0-0.176-0.002-0.262c-0.002-0.038-0.018-0.062-0.053-0.058
	c-0.055-0.007-0.107-0.008-0.166-0.002c-0.1-0.003-0.104,0.002-0.102,0.103c-0.002,0.004,0,0.011,0,0.022
	c0,0.023-0.016,0.042-0.043,0.041C44.094,40.656,43.953,40.657,43.82,40.654z M42.939,38.243c-0.004,0.043,0.006,0.056,0.063,0.062
	c0.078,0.011,0.15,0.022,0.229,0.035c0.051,0.008,0.064,0,0.076-0.047c0.018-0.09,0.031-0.179,0.047-0.267
	c0.006-0.033-0.008-0.058-0.043-0.064c-0.076-0.013-0.154-0.025-0.23-0.042c-0.059-0.013-0.082-0.003-0.092,0.054
	C42.969,38.059,42.955,38.146,42.939,38.243z M42.934,40.701l0.002,0.002c-0.043,0.002-0.094,0-0.139-0.004
	c-0.027,0.005-0.047,0.018-0.047,0.048c0.004,0.1,0.004,0.194,0.006,0.294c0,0.027,0.014,0.047,0.043,0.045
	c0.09-0.001,0.178-0.004,0.27-0.008c0.037-0.003,0.057-0.024,0.057-0.065c-0.002-0.023-0.01-0.054-0.012-0.076
	c-0.004-0.063-0.004-0.123-0.004-0.19c-0.002-0.031-0.018-0.052-0.055-0.049C43.016,40.706,42.975,40.705,42.934,40.701z
	 M44.23,38.777c0.037,0.007,0.051-0.006,0.051-0.042c0.004-0.021,0.008-0.05,0.012-0.072c0.008-0.035-0.008-0.053-0.047-0.057
	c-0.105-0.016-0.213-0.035-0.32-0.055c-0.066-0.008-0.084,0.002-0.086,0.072c-0.002,0.024-0.008,0.052-0.004,0.081
	c0.002,0.011,0.021,0.035,0.033,0.036C43.99,38.754,44.109,38.767,44.23,38.777z M44.021,41.15c0.002-0.002,0-0.003,0-0.003
	c-0.084,0.004-0.168,0.009-0.254,0.019c-0.051,0.008-0.063,0.018-0.055,0.063c0.002,0.023,0.006,0.058,0.006,0.074
	c0,0.025,0.018,0.043,0.047,0.04c0.119-0.018,0.242-0.02,0.359-0.031c0.031-0.003,0.047-0.021,0.041-0.043
	c-0.004-0.043,0.023-0.095-0.025-0.124c-0.006-0.006-0.021-0.003-0.033-0.005C44.082,41.15,44.055,41.148,44.021,41.15z
	 M43.928,40.346L43.928,40.346c-0.035-0.003-0.066-0.006-0.104-0.005c-0.146,0-0.125-0.012-0.127,0.129
	c0,0.038,0.016,0.055,0.049,0.054c0.096-0.002,0.189-0.002,0.279-0.004c0.137,0.001,0.117,0.008,0.127-0.118
	c0-0.049-0.006-0.061-0.053-0.059C44.043,40.344,43.984,40.345,43.928,40.346z"/>
<path fill="#F4F4F4" d="M43.625,43.335c-0.041-0.043-0.086-0.086-0.123-0.137c-0.09-0.14-0.135-0.297-0.098-0.471
	c0.021-0.081,0.053-0.151,0.113-0.205c0.025-0.023,0-0.041-0.018-0.055c-0.037-0.045-0.082-0.086-0.115-0.133
	c-0.1-0.125-0.113-0.271-0.107-0.428c0.008-0.126,0.051-0.23,0.141-0.308c0.049-0.038,0.107-0.063,0.168-0.089
	c0.063-0.02,0.135-0.021,0.199-0.036c0.156-0.017,0.311-0.021,0.465-0.025c0.035-0.012,0.043-0.021,0.043-0.058
	c0-0.107,0-0.107,0.123-0.121c0.041-0.002,0.084-0.008,0.125-0.012c0.035-0.003,0.059,0.01,0.063,0.042
	c0.008,0.105,0.02,0.193,0.021,0.3c0.004,0.105-0.064,0.187-0.162,0.189c-0.205,0.021-0.414,0.04-0.617,0.058
	c-0.059,0.015-0.113,0.024-0.166,0.054c-0.043,0.016-0.057,0.06-0.063,0.105c-0.014,0.121,0.063,0.222,0.152,0.272
	c0.117,0.063,0.23,0.068,0.359,0.042c0.086-0.021,0.174-0.025,0.264-0.043c0.082-0.016,0.166-0.02,0.246-0.029
	c0.037-0.006,0.057,0.008,0.061,0.047c0.016,0.08,0.023,0.162,0.035,0.25c0.006,0.06-0.006,0.063-0.057,0.066
	c-0.123,0.02-0.246,0.049-0.369,0.061c-0.088,0.021-0.18,0.022-0.271,0.041c-0.082,0.021-0.17,0.021-0.246,0.063
	c-0.049,0.03-0.068,0.08-0.059,0.147c0.018,0.067,0.045,0.146,0.111,0.188c0.104,0.076,0.219,0.113,0.348,0.08
	c0.084-0.021,0.172-0.036,0.254-0.05c0.084-0.021,0.168-0.033,0.25-0.058c0.119-0.026,0.137-0.021,0.158,0.103
	c0.01,0.063,0.021,0.118,0.039,0.187c0.01,0.03-0.006,0.053-0.039,0.061c-0.234,0.056-0.471,0.107-0.709,0.165
	c-0.07,0.021-0.145,0.036-0.213,0.055c-0.021,0.011-0.033,0.026-0.025,0.044c0.008,0.024,0.012,0.063,0.02,0.092
	c0.008,0.024-0.004,0.053-0.029,0.06c-0.068,0.022-0.143,0.038-0.215,0.057c-0.053,0.013-0.063-0.013-0.07-0.059
	c-0.014-0.067-0.033-0.146-0.047-0.226c-0.012-0.06-0.02-0.111-0.01-0.174C43.563,43.408,43.596,43.374,43.625,43.335z"/>
<path fill="#F4F4F4" d="M43.969,40.219c-0.092-0.001-0.219,0-0.348-0.002c-0.041-0.001-0.066,0.002-0.057,0.055
	c0.002,0.02-0.004,0.04-0.002,0.061c0.004,0.054-0.006,0.064-0.055,0.066c-0.07-0.004-0.143-0.004-0.211,0
	c-0.053-0.002-0.064-0.016-0.064-0.063c0.002-0.077-0.002-0.15,0.006-0.231c0.01-0.092,0.027-0.188,0.123-0.239
	c0.021-0.015,0.02-0.03,0.002-0.049c-0.117-0.165-0.123-0.349-0.094-0.534c0.027-0.143,0.086-0.266,0.227-0.337
	c0.061-0.028,0.121-0.058,0.188-0.049c0.119,0.007,0.236,0.017,0.355,0.024c0.072,0.006,0.146,0.012,0.225,0.022
	c0.006,0.001,0.016,0.001,0.021,0.004c0.082,0.01,0.082,0.01,0.098-0.074c0.01-0.066,0.021-0.078,0.092-0.071
	c0.064,0.011,0.133,0.021,0.195,0.037c0.016,0.004,0.037,0.029,0.035,0.044c-0.018,0.115-0.027,0.232-0.059,0.34
	c-0.021,0.084-0.084,0.121-0.17,0.124c-0.049-0.001-0.104-0.007-0.146-0.008c-0.125-0.008-0.25-0.022-0.375-0.03
	c-0.033-0.007-0.066-0.013-0.1-0.014c-0.076-0.012-0.148-0.011-0.211,0.04c-0.068,0.055-0.063,0.136-0.053,0.21
	c0.014,0.175,0.121,0.275,0.277,0.326c0.035,0.011,0.072,0.009,0.105,0.008c0.189,0.01,0.387,0.021,0.582,0.033
	c0.033,0.002,0.043,0.015,0.043,0.047c-0.004,0.086-0.002,0.178-0.006,0.271c-0.002,0.037-0.025,0.059-0.064,0.06
	C44.361,40.236,44.182,40.227,43.969,40.219z"/>
<path fill="#F4F4F4" d="M45.059,37.207c-0.01,0.15-0.051,0.289-0.129,0.417c-0.063,0.098-0.139,0.176-0.23,0.242
	c-0.063,0.04-0.084,0.031-0.129-0.025c-0.033-0.05-0.072-0.098-0.113-0.146c-0.023-0.032-0.02-0.058,0.018-0.079
	c0.078-0.045,0.146-0.097,0.189-0.173c0.035-0.057,0.064-0.126,0.072-0.196c0.025-0.17-0.092-0.134-0.115-0.107
	c-0.055,0.065-0.111,0.133-0.164,0.204c-0.074,0.106-0.145,0.211-0.244,0.293c-0.102,0.075-0.205,0.107-0.328,0.061
	c-0.166-0.055-0.232-0.182-0.252-0.347c-0.014-0.116,0.006-0.227,0.039-0.339c0.031-0.111,0.084-0.222,0.168-0.308
	c0.078-0.093,0.184-0.12,0.297-0.078c0.023,0.012,0.053,0.017,0.078,0.02c0.033,0.005,0.045,0.021,0.035,0.055
	c-0.01,0.041-0.021,0.082-0.031,0.124c-0.014,0.04-0.021,0.083-0.031,0.125c-0.016,0.052-0.041,0.067-0.092,0.045
	c-0.041-0.015-0.07-0.005-0.098,0.034c-0.039,0.066-0.057,0.14-0.049,0.214c0.004,0.021,0.021,0.054,0.039,0.067
	c0.027,0.019,0.064,0.01,0.084-0.023c0.049-0.066,0.096-0.124,0.143-0.192c0.07-0.103,0.143-0.2,0.236-0.277
	c0.105-0.094,0.299-0.094,0.412-0.026C44.99,36.864,45.072,37.048,45.059,37.207z"/>
<path fill="#F4F4F4" d="M43.701,38.007c0.064,0.009,0.164,0.028,0.266,0.044c0.104,0.015,0.209,0.037,0.313,0.055
	c0.063,0.014,0.123,0.026,0.188,0.037c0.031,0.01,0.051-0.011,0.053-0.047c0-0.02,0.004-0.042,0.008-0.061
	c0.014-0.041,0.031-0.046,0.074-0.036c0.064,0.017,0.135,0.032,0.207,0.043c0.035,0.009,0.043,0.025,0.035,0.06
	c-0.021,0.082-0.035,0.163-0.051,0.248c-0.02,0.13-0.094,0.199-0.244,0.172c-0.109-0.016-0.219-0.029-0.326-0.044
	c-0.121-0.02-0.238-0.036-0.357-0.063c-0.01-0.001-0.018-0.004-0.027-0.003c-0.107-0.011-0.107-0.011-0.113,0.095
	c-0.004,0.062-0.016,0.068-0.074,0.063c-0.064-0.011-0.141-0.019-0.211-0.035c-0.014-0.003-0.029-0.026-0.031-0.042
	c-0.004-0.031,0.002-0.062,0.006-0.094c0.021-0.095,0.033-0.192,0.066-0.282C43.516,38.004,43.574,38,43.701,38.007z"/>
<path fill="#F4F4F4" d="M43.82,40.654c0.137,0.002,0.271,0.001,0.408,0.003c0.029,0,0.041-0.013,0.043-0.042
	c0-0.007,0-0.011,0.002-0.017c-0.006-0.105,0-0.106,0.102-0.107c0.055-0.001,0.107,0.002,0.164,0.001
	c0.037,0.001,0.053,0.02,0.053,0.063c0,0.089,0.01,0.179,0.002,0.269c-0.01,0.137-0.061,0.195-0.203,0.204
	c-0.262,0.02-0.521,0.02-0.783,0.026c-0.031,0-0.041,0.017-0.041,0.042c0.002,0.02,0.002,0.063,0.004,0.087
	c0.002,0.019-0.008,0.043-0.035,0.044c-0.078,0.01-0.148,0.021-0.229,0.021c-0.025,0.002-0.049-0.005-0.051-0.032
	c-0.002-0.137-0.016-0.269,0-0.396c0.008-0.104,0.074-0.146,0.176-0.147c0.129,0,0.258,0,0.389,0.003
	C43.82,40.67,43.822,40.664,43.82,40.654z"/>
<path fill="#F4F4F4" d="M42.939,38.243c0.016-0.099,0.029-0.187,0.045-0.272c0.012-0.059,0.037-0.066,0.092-0.052
	c0.076,0.012,0.154,0.031,0.23,0.041c0.037,0.01,0.049,0.027,0.043,0.06c-0.018,0.093-0.031,0.182-0.047,0.27
	c-0.012,0.048-0.025,0.055-0.078,0.046c-0.072-0.013-0.146-0.023-0.227-0.036C42.945,38.299,42.938,38.288,42.939,38.243z"/>
<path fill="#F4F4F4" d="M42.934,40.701c0.043,0.003,0.084,0.006,0.125,0.001c0.037-0.002,0.049,0.016,0.051,0.049
	c0.002,0.062,0.004,0.126,0.004,0.187c0.002,0.026,0.012,0.057,0.014,0.075c0.004,0.043-0.018,0.066-0.059,0.07
	c-0.088,0.002-0.178,0.003-0.266,0.007c-0.031,0.003-0.045-0.017-0.045-0.044c-0.002-0.1-0.002-0.197-0.002-0.295
	c0-0.03,0.016-0.041,0.043-0.043c0.047,0.002,0.094,0.001,0.141,0.003C42.936,40.706,42.934,40.701,42.934,40.701z"/>
<path fill="#4D4D4D" stroke="#231F20" stroke-width="0.15" stroke-miterlimit="10" d="M61.777,59.296v-2.354
	c0-0.334,0.271-0.604,0.605-0.604h7.604c0.332,0,0.604,0.271,0.604,0.604v2.354c0,0.334-0.271,0.604-0.604,0.604h-7.604
	C62.051,59.901,61.777,59.63,61.777,59.296z"/>
<path fill="#FCB919" stroke="#231F20" stroke-width="0.15" stroke-miterlimit="10" d="M66.396,50.341
	c0.205-0.104,0.418-0.215,0.637-0.33c0.979,0.382,1.668,1.33,1.668,2.44c0,1.448-1.174,2.623-2.621,2.623
	c-1.109,0-2.057-0.688-2.438-1.661C64.135,52.104,65.104,50.997,66.396,50.341z"/>
<line fill="none" x1="75.686" y1="46.263" x2="75.686" y2="51.509"/>
<path fill="none" stroke="#020202" stroke-width="0.15" stroke-miterlimit="10" d="M75.686,46.263v5.246"/>
<path fill="#3E3E3E" stroke="#020202" stroke-width="0.15" stroke-miterlimit="10" d="M12.935,53.286
	c2.367,0,4.287,1.92,4.287,4.287s-1.92,4.287-4.287,4.287c-2.368,0-4.287-1.92-4.287-4.287S10.567,53.286,12.935,53.286z"/>
<path fill="#F4F4F4" d="M12.933,55.876c0.938,0,1.697,0.76,1.697,1.697s-0.76,1.697-1.697,1.697c-0.937,0-1.696-0.76-1.696-1.697
	S11.997,55.876,12.933,55.876z"/>
<path fill="#FCEE23" stroke="#231F20" stroke-width="0.15" stroke-miterlimit="10" d="M8.199,58.636
	c0.588,0,1.064-0.477,1.064-1.063c0-2.022,1.646-3.672,3.672-3.672c2.023,0,3.67,1.646,3.67,3.672c0,0.588,0.477,1.063,1.064,1.063
	s1.064-0.477,1.064-1.063c0-3.196-2.602-5.8-5.801-5.8c-3.198,0-5.799,2.604-5.799,5.8C7.134,58.161,7.611,58.636,8.199,58.636z"/>
<path fill="#ADE1FA" stroke="#231F20" stroke-width="0.15" stroke-miterlimit="10" d="M4.718,37.479c0-0.552,0.447-1,1-1h8.489
	c0.732,0,1.388,0.437,1.667,1.114l2.329,5.606c0.272,0.658-0.21,1.383-0.923,1.383H5.718c-0.553,0-1-0.447-1-0.998V37.479
	L4.718,37.479z"/>
<path fill="#FCEE23" stroke="#231F20" stroke-width="0.15" stroke-miterlimit="10" d="M23.28,58.251h5.044
	c0.333,0,0.605-0.271,0.605-0.604v-1.852c0-0.334-0.272-0.604-0.605-0.604H23.28c-0.333,0-0.604,0.271-0.604,0.604v1.852
	C22.675,57.978,22.947,58.251,23.28,58.251z"/>
<path fill="#FFFFFF" stroke="#121212" stroke-width="0.15" stroke-miterlimit="10" d="M-0.012,65.866h10.855
	c2.892,0,4.854,2.938,3.748,5.608L9.818,82.983h-9.831L-0.012,65.866L-0.012,65.866z"/>
<path fill="#B07B4B" stroke="#231F20" stroke-width="0.15" stroke-miterlimit="10" d="M0.039,82.983h3.955l3.928-9.475
	c0.447-1.076-0.345-2.266-1.513-2.266h-6.37V82.983z"/>
<line fill="#FFFFFF" stroke="#121212" stroke-width="0.15" stroke-miterlimit="10" x1="6.202" y1="65.866" x2="3.296" y2="71.245"/>
<polygon fill="#231F20" points="6.202,65.866 3.296,71.245 0.039,71.243 -0.012,65.866 "/>
<line fill="#FFFFFF" stroke="#121212" stroke-width="0.15" stroke-miterlimit="10" x1="14.136" y1="72.57" x2="8.017" y2="72.57"/>
<line fill="#FFFFFF" stroke="#121212" stroke-width="0.15" stroke-miterlimit="10" x1="11.076" y1="79.948" x2="5.251" y2="79.948"/>
<polygon fill="#231F20" points="8.017,72.57 14.136,72.57 11.076,79.948 5.251,79.948 "/>
<path fill="#FFFFFF" stroke="#121212" stroke-width="0.15" stroke-miterlimit="10" d="M68.396,71.475
	c-1.107-2.671,0.854-5.608,3.748-5.608h10.869v17.117h-9.846L68.396,71.475z"/>
<path fill="#B07B4B" stroke="#231F20" stroke-width="0.15" stroke-miterlimit="10" d="M78.994,82.983h4.02V71.245h-6.436
	c-1.168,0-1.959,1.188-1.512,2.266L78.994,82.983z"/>
<line fill="#FFFFFF" stroke="#121212" stroke-width="0.15" stroke-miterlimit="10" x1="79.689" y1="71.245" x2="76.785" y2="65.866"/>
<polygon fill="#231F20" points="83.014,65.866 83.014,71.245 79.689,71.245 76.785,65.866 "/>
<line fill="#FFFFFF" stroke="#121212" stroke-width="0.15" stroke-miterlimit="10" x1="68.852" y1="72.57" x2="74.971" y2="72.57"/>
<line fill="#FFFFFF" stroke="#121212" stroke-width="0.15" stroke-miterlimit="10" x1="71.91" y1="79.948" x2="77.734" y2="79.948"/>
<polygon fill="#231F20" points="68.852,72.57 74.971,72.57 77.734,79.948 71.91,79.948 "/>
<path fill="#4D4D4D" stroke="#231F20" stroke-width="0.15" stroke-miterlimit="10" d="M82.898,58.04
	c-0.479-1.843-2.154-3.205-4.143-3.205c-2.359,0-4.279,1.918-4.279,4.277c0,0.686-0.559,1.241-1.24,1.241
	c-0.686,0-1.24-0.556-1.24-1.241c0-3.729,3.031-6.76,6.76-6.76c1.561,0,2.998,0.531,4.145,1.423L82.898,58.04L82.898,58.04z"/>
<path fill="#020202" d="M44.715,25.466c0,0.292-0.236,0.528-0.527,0.528c-0.293,0-0.529-0.236-0.529-0.528s0.236-0.528,0.529-0.528
	C44.477,24.938,44.715,25.174,44.715,25.466 M40.101,25.466c0,0.292-0.236,0.528-0.527,0.528s-0.529-0.236-0.529-0.528
	s0.238-0.528,0.529-0.528S40.101,25.174,40.101,25.466"/>
<path fill="#F4F4F4" d="M44.58,25.313c0-0.09-0.072-0.164-0.164-0.164c-0.09,0-0.164,0.074-0.164,0.164s0.074,0.164,0.164,0.164
	C44.508,25.477,44.58,25.402,44.58,25.313 M39.968,25.313c0-0.09-0.072-0.164-0.164-0.164c-0.09,0-0.164,0.074-0.164,0.164
	s0.074,0.164,0.164,0.164S39.968,25.402,39.968,25.313"/>
</svg>
