<?xml version="1.0" encoding="utf-8"?>
<!-- Generator: Adobe Illustrator 16.0.0, SVG Export Plug-In . SVG Version: 6.00 Build 0)  -->
<!DOCTYPE svg PUBLIC "-//W3C//DTD SVG 1.1//EN" "http://www.w3.org/Graphics/SVG/1.1/DTD/svg11.dtd">
<svg version="1.1" id="Layer_1" xmlns="http://www.w3.org/2000/svg" xmlns:xlink="http://www.w3.org/1999/xlink" x="0px" y="0px"
	 width="83px" height="83px" viewBox="0 0 83 83" enable-background="new 0 0 83 83" xml:space="preserve">
<path fill="#4598D3" stroke="#010101" stroke-width="2.5052" stroke-miterlimit="10" d="M-443.191-187.11h-72
	c-7.732,0-14-6.268-14-14v-116c0-7.732,6.268-14,14-14h72c7.732,0,14,6.268,14,14v116
	C-429.191-193.378-435.459-187.11-443.191-187.11z"/>
<path fill="#F89520" stroke="#010101" stroke-width="2.5052" stroke-miterlimit="10" d="M-379.191-87.11h-72
	c-7.732,0-14-6.268-14-14v-116c0-7.732,6.268-14,14-14h72c7.732,0,14,6.268,14,14v116C-365.191-93.378-371.459-87.11-379.191-87.11z
	"/>
<rect x="-552.191" y="-340.11" transform="matrix(0.7071 -0.7071 0.7071 0.7071 79.2442 -467.9068)" fill="#FFFFFF" stroke="#010101" stroke-width="2.5052" stroke-miterlimit="10" width="54" height="21"/>
<rect x="-395.191" y="-238.61" transform="matrix(0.7071 0.7071 -0.7071 0.7071 -269.1413 193.5395)" fill="#FFFFFF" stroke="#010101" stroke-width="2.5052" stroke-miterlimit="10" width="54" height="21.001"/>
<path fill="#4598D3" stroke="#010101" stroke-width="2.5052" stroke-miterlimit="10" d="M-429.037-462.368h-840.084
	c-14.084,0-25.502-11.418-25.502-25.502v-129.013c0-14.084,11.418-25.502,25.502-25.502h840.084
	c14.085,0,25.503,11.418,25.503,25.502v129.013C-403.534-473.786-414.952-462.368-429.037-462.368z"/>
<text transform="matrix(1 0 0 1 -1261.2031 -521.7183)" fill="#FFFFFF" font-family="'Quicksand-Bold'" font-size="81.0666">POLICE DEPARTMENT</text>
<path fill="#4598D3" stroke="#010101" stroke-width="0.15" stroke-miterlimit="10" d="M0.043,0h82.923v83H0.043V0z M0.043,0h82.923
	v83H0.043V0z"/>
<path fill="#2F2D2C" stroke="#010101" stroke-width="0.15" stroke-miterlimit="10" d="M18.842,64.154
	c-0.027-0.443,0.312-0.826,0.755-0.854c0.441-0.027,0.827,0.313,0.854,0.756l0.655,10.689c5.121-1.951,5.796-0.146,5.682,0.646
	c-0.13,0.912-2.216,1.658-4.953,1.271c-1.489-0.215-2.142-0.479-2.256-0.768c-0.026-0.045-0.044-0.098-0.048-0.156L18.842,64.154z
	 M13.667,64.154c0.027-0.443-0.311-0.826-0.755-0.854c-0.441-0.027-0.827,0.313-0.854,0.756l-0.654,10.689
	c-5.121-1.951-5.796-0.146-5.682,0.646c0.13,0.912,2.216,1.658,4.953,1.271c1.489-0.215,2.142-0.479,2.256-0.768
	c0.026-0.045,0.044-0.098,0.048-0.156L13.667,64.154z"/>
<path fill="#BBBDBF" stroke="#1D1D1B" stroke-width="0.15" stroke-miterlimit="10" d="M0.01,0h82.923v62.687H0.01V0z"/>
<path fill="#019653" stroke="#010101" stroke-width="0.15" stroke-miterlimit="10" d="M59.646,51.436v-35.47
	c0-1.101-0.893-1.994-1.994-1.994H0.01V53.43h57.642C58.754,53.43,59.646,52.537,59.646,51.436z"/>
<path fill="#886C45" stroke="#010101" stroke-width="0.15" stroke-miterlimit="10" d="M61.955,14.344v38.71
	c0,1.48-1.199,2.68-2.678,2.68H0.014v-2.307h57.642c1.105,0,1.994-0.893,1.994-1.994V15.964c0-1.101-0.893-1.994-1.994-1.994H0.014
	v-2.306h59.263C60.756,11.666,61.955,12.865,61.955,14.344z"/>
<path fill="#886C45" stroke="#010101" stroke-width="0.15" stroke-miterlimit="10" d="M62.02,74.309h-0.686
	c-0.402,0-0.736-0.434-0.771-1l-0.215-3.717h2.656l-0.215,3.717C62.756,73.875,62.422,74.309,62.02,74.309z"/>
<path fill="#886C45" stroke="#010101" stroke-width="0.15" stroke-miterlimit="10" d="M82.988,69.504H56.074
	c-1.883,0-3.406-1.525-3.406-3.406V55.611c0-1.635,1.15-3,2.688-3.33h27.633v2.229H56.074c-0.607,0-1.104,0.494-1.104,1.102v10.486
	c0,0.605,0.492,1.104,1.104,1.104h26.914V69.504L82.988,69.504z"/>
<path fill="#886C45" stroke="#010101" stroke-width="0.15" stroke-miterlimit="10" d="M82.977,54.51v12.689H56.074
	c-0.607,0-1.104-0.496-1.104-1.104V55.611c0-0.607,0.492-1.104,1.104-1.104L82.977,54.51L82.977,54.51z"/>
<path fill="#F89520" stroke="#010101" stroke-width="0.15" stroke-miterlimit="10" d="M60.561,65.748h-2.553
	c-0.377,0-0.684-0.307-0.684-0.684v-8.316c0-0.379,0.307-0.684,0.684-0.684h2.553c0.379,0,0.684,0.305,0.684,0.684v8.316
	C61.242,65.441,60.939,65.748,60.561,65.748z"/>
<path fill="#FCEE23" stroke="#010101" stroke-width="0.15" stroke-miterlimit="10" d="M65.752,65.064v-8.316
	c0-0.379-0.305-0.684-0.684-0.684h-2.555c-0.377,0-0.686,0.305-0.686,0.684v8.316c0,0.377,0.309,0.684,0.686,0.684h2.555
	C65.447,65.748,65.752,65.441,65.752,65.064z"/>
<path fill="#8EC641" stroke="#010101" stroke-width="0.15" stroke-miterlimit="10" d="M70.262,65.064v-8.316
	c0-0.379-0.307-0.684-0.686-0.684h-2.551c-0.379,0-0.686,0.305-0.686,0.684v8.316c0,0.377,0.307,0.684,0.686,0.684h2.551
	C69.955,65.748,70.262,65.441,70.262,65.064z"/>
<path fill="#F89520" stroke="#010101" stroke-width="0.15" stroke-miterlimit="10" d="M74.771,65.064v-8.316
	c0-0.379-0.307-0.684-0.686-0.684h-2.553c-0.377,0-0.686,0.305-0.686,0.684v8.316c0,0.377,0.309,0.684,0.686,0.684h2.553
	C74.465,65.748,74.771,65.441,74.771,65.064z"/>
<path fill="#ED2224" stroke="#010101" stroke-width="0.15" stroke-miterlimit="10" d="M79.279,65.064v-8.316
	c0-0.379-0.307-0.684-0.684-0.684h-2.553c-0.379,0-0.684,0.305-0.684,0.684v8.316c0,0.377,0.305,0.684,0.684,0.684h2.553
	C78.973,65.748,79.279,65.441,79.279,65.064z"/>
<path fill="#FCEE23" stroke="#010101" stroke-width="0.15" stroke-miterlimit="10" d="M82.988,56.064h-2.438
	c-0.377,0-0.684,0.305-0.684,0.684v8.316c0,0.377,0.307,0.684,0.684,0.684h2.438V56.064z"/>
<path fill="#ED2224" stroke="#010101" stroke-width="0.15" stroke-miterlimit="10" d="M56,30.728l-5.213,5.211h-7.369l-5.211-5.211
	v-7.37l5.211-5.211h7.369L56,23.357V30.728L56,30.728z"/>
<path fill="#2F2D2C" stroke="#010101" stroke-width="0.15" stroke-miterlimit="10" d="M25.694,45.445
	c-0.211,0-0.425-0.045-0.637-0.131c-1.715-0.713-3.008-4.472-3.25-5.216l1.315-0.427c0.521,1.603,1.63,4.018,2.465,4.364
	c0.098,0.041,0.141,0.027,0.186,0.004c1.134-0.572,2.683-3.447,3.393-5.123l1.273,0.539c-0.208,0.492-2.09,4.83-4.041,5.818
	C26.174,45.387,25.935,45.445,25.694,45.445z M8.06,51.477c-0.049-0.031-1.202-0.77-1.354-2.287
	c-0.174-1.738,1.038-3.896,3.505-6.236l-1.005-1.061c-2.862,2.713-4.191,5.232-3.95,7.479c0.241,2.236,1.969,3.313,2.042,3.354
	L8.06,51.477z"/>
<path fill="#2F2D2C" stroke="#010101" stroke-width="0.15" stroke-miterlimit="10" d="M23.217,27.247v35.941
	c0,1.207-0.978,2.186-2.185,2.186h-9.683c-1.207,0-2.185-0.979-2.185-2.186V27.247C9.165,27.247,15.738,30.703,23.217,27.247z"/>
<path fill="#F4F4F4" stroke="#020202" stroke-width="0.15" stroke-miterlimit="10" d="M17.803,34.86
	c0-0.668,0.542-1.209,1.209-1.209s1.209,0.541,1.209,1.209s-0.542,1.21-1.209,1.21S17.803,35.528,17.803,34.86z M13.484,36.07
	c0.668,0,1.209-0.542,1.209-1.21s-0.542-1.209-1.209-1.209s-1.209,0.541-1.209,1.209S12.816,36.07,13.484,36.07z"/>
<path fill="#ED5B5B" d="M16.191,38.75c0.96,0,1.887-0.144,2.76-0.409c-0.044,1.488-1.261,2.681-2.76,2.681s-2.715-1.193-2.76-2.681
	C14.304,38.606,15.231,38.75,16.191,38.75z"/>
<path fill="none" stroke="#020202" stroke-width="0.25" stroke-linecap="round" stroke-miterlimit="10" d="M18.15,32.146
	c0.372-0.216,0.805-0.339,1.266-0.339c0.35,0,0.683,0.071,0.986,0.199 M14.413,32.007c-0.303-0.128-0.637-0.199-0.986-0.199
	c-0.461,0-0.894,0.123-1.266,0.339"/>
<path fill="#BCBCBC" d="M15.845,37.083c0.073-0.51-0.921-0.921-1.843-0.23c-0.921,0.691-1.843,2.074-3.225,1.383
	c0,0,0.691,0.691,1.843,0.46c0.576-0.115,0.807-0.806,1.728-1.037C14.795,37.547,15.73,37.891,15.845,37.083z"/>
<path fill="#BCBCBC" d="M16.31,37.083c-0.073-0.51,0.922-0.921,1.843-0.23s1.843,2.074,3.225,1.383c0,0-0.691,0.691-1.843,0.46
	c-0.576-0.115-0.806-0.806-1.728-1.037C17.36,37.547,16.425,37.891,16.31,37.083z"/>
<path fill="#2F2D2C" stroke="#010101" stroke-width="0.15" stroke-miterlimit="10" d="M15.043,17.081
	c-0.002-0.028-0.004-0.057-0.004-0.085c0-0.572,0.464-1.037,1.037-1.037c0.572,0,1.036,0.464,1.036,1.037
	c0,0.019-0.001,0.037-0.002,0.056c3.446,0.402,6.107,3.033,6.107,6.222c0,0,0,1.67,0,3.974c-7.479,3.456-14.052,0-14.052,0v-3.974
	C9.165,20.155,11.709,17.569,15.043,17.081z M7.413,30.105c0.772-0.174,1.725-0.418,3.019-0.095
	c1.843,0.461,3.686,1.382,5.759,1.382c2.074,0,3.917-0.921,5.759-1.382c1.294-0.324,2.247-0.079,3.019,0.095
	c0.506,0.115,0.931-0.421,0.681-0.875c-0.628-1.14-2.317-1.984-2.317-1.984h-0.115c-7.479,3.456-14.052,0-14.052,0H9.049
	c0,0-1.689,0.845-2.316,1.984C6.482,29.686,6.907,30.221,7.413,30.105z"/>
<path fill="#F3F3F3" stroke="#020202" stroke-width="0.15" stroke-miterlimit="10" d="M28.696,39.983l0.942,0.625
	c0.188,0.125,0.443,0.073,0.567-0.114l0.09-0.136c0.125-0.188,0.073-0.443-0.114-0.567l-0.941-0.625
	c-0.188-0.125-0.443-0.073-0.567,0.114l-0.09,0.136C28.457,39.604,28.509,39.859,28.696,39.983z"/>
<path fill="#886C45" stroke="#010101" stroke-width="0.15" stroke-miterlimit="10" d="M27.98,43.984l9.86-20.884
	c0.25-0.529,0.887-0.758,1.416-0.508l0.383,0.181c0.529,0.25,0.757,0.887,0.508,1.416l-9.861,20.883
	c-0.25,0.529-0.887,0.76-1.416,0.508l-0.382-0.182C27.959,45.148,27.73,44.514,27.98,43.984z"/>
<path fill="#F3F3F3" stroke="#020202" stroke-width="0.15" stroke-miterlimit="10" d="M29.984,39.661l0.39-0.744l0.987,0.05
	c0.351,0.068,0.694-0.163,0.762-0.514l0,0c0.068-0.351-0.162-0.693-0.513-0.762l-1.068-0.194c-0.701-0.144-1.664,0.722-1.44,1.523
	L29.984,39.661z"/>
<path fill="#F3F3F3" stroke="#020202" stroke-width="0.15" stroke-miterlimit="10" d="M32.309,38.968l0.818,0.28
	c0.282,0.097,0.592-0.055,0.688-0.337l0.07-0.204c0.097-0.282-0.055-0.592-0.337-0.688l-0.818-0.28
	c-0.282-0.097-0.592,0.055-0.688,0.337l-0.07,0.204C31.876,38.563,32.027,38.872,32.309,38.968z"/>
<path fill="#F3F3F3" stroke="#020202" stroke-width="0.15" stroke-miterlimit="10" d="M31.467,41.426l0.819,0.281
	c0.282,0.097,0.591-0.055,0.688-0.337l0.069-0.204c0.097-0.282-0.055-0.591-0.337-0.688l-0.818-0.281
	c-0.282-0.096-0.592,0.055-0.688,0.337l-0.07,0.204C31.033,41.021,31.185,41.331,31.467,41.426z"/>
<path fill="#F3F3F3" stroke="#020202" stroke-width="0.15" stroke-miterlimit="10" d="M31.519,40.071l1.187,0.407
	c0.282,0.097,0.592-0.055,0.688-0.337l0.07-0.204c0.097-0.282-0.055-0.591-0.337-0.688l-1.188-0.407
	c-0.281-0.097-0.591,0.055-0.688,0.337l-0.07,0.204C31.086,39.666,31.238,39.975,31.519,40.071z"/>
<path fill="#FFFFFF" stroke="#020202" stroke-width="0.15" stroke-miterlimit="10" d="M41.994,28.807
	c-0.167-0.038-0.323-0.092-0.469-0.163c-0.041-0.02-0.081-0.041-0.119-0.063c-0.159-0.09-0.211-0.293-0.12-0.45l0.001-0.002
	c0.088-0.151,0.28-0.209,0.434-0.126c0.112,0.061,0.234,0.108,0.367,0.145c0.129,0.035,0.264,0.054,0.396,0.059
	c0.238,0.008,0.426-0.028,0.559-0.106c0.125-0.075,0.188-0.181,0.189-0.321v-0.002c0.002-0.097-0.023-0.175-0.078-0.233
	c-0.057-0.058-0.127-0.101-0.215-0.129c-0.092-0.028-0.203-0.055-0.344-0.079c-0.006-0.001-0.01-0.002-0.016-0.003
	c-0.006,0-0.012,0-0.016-0.002l-0.055-0.008c-0.244-0.043-0.447-0.094-0.608-0.155s-0.296-0.164-0.406-0.312
	c-0.11-0.148-0.163-0.354-0.159-0.622V26.23c0.004-0.237,0.06-0.439,0.168-0.605s0.264-0.292,0.467-0.377
	c0.205-0.085,0.449-0.125,0.732-0.121c0.133,0.002,0.268,0.019,0.402,0.051c0.137,0.033,0.271,0.078,0.398,0.138
	c0.023,0.012,0.053,0.025,0.08,0.038c0.164,0.083,0.23,0.283,0.145,0.447c-0.08,0.156-0.27,0.223-0.43,0.146
	c-0.057-0.027-0.111-0.051-0.17-0.073c-0.152-0.056-0.299-0.085-0.439-0.087c-0.213-0.003-0.377,0.029-0.494,0.097
	c-0.115,0.068-0.176,0.165-0.178,0.291v0.002c-0.002,0.105,0.027,0.19,0.086,0.252c0.061,0.063,0.133,0.108,0.223,0.139
	c0.09,0.03,0.217,0.063,0.375,0.097c0.008,0.002,0.016,0.003,0.021,0.004c0.008,0.001,0.016,0.002,0.021,0.004
	c0.012,0.002,0.021,0.004,0.031,0.007c0.008,0.002,0.02,0.005,0.025,0.006c0.229,0.049,0.424,0.107,0.578,0.174
	c0.152,0.067,0.281,0.173,0.387,0.319c0.104,0.146,0.148,0.342,0.146,0.591v0.005c-0.004,0.233-0.063,0.433-0.174,0.597
	c-0.109,0.165-0.271,0.29-0.482,0.374s-0.463,0.124-0.758,0.119C42.332,28.863,42.16,28.843,41.994,28.807z M46.447,25.225
	l-2.029-0.032c-0.184-0.003-0.33,0.142-0.332,0.323v0.009c-0.008,0.181,0.141,0.331,0.318,0.333l0.67,0.011l-0.041,2.672
	c-0.002,0.182,0.145,0.331,0.324,0.333h0.033c0.182,0.003,0.33-0.142,0.334-0.323l0.043-2.672l0.67,0.01
	c0.182,0.003,0.33-0.142,0.334-0.323v-0.009C46.773,25.376,46.629,25.228,46.447,25.225z M48.283,28.958
	c0.266,0.005,0.5-0.048,0.705-0.156c0.203-0.109,0.359-0.265,0.479-0.467c0.111-0.202,0.172-0.438,0.176-0.707l0.018-1.039
	c0.004-0.269-0.049-0.506-0.154-0.712s-0.264-0.366-0.461-0.481c-0.201-0.115-0.438-0.174-0.699-0.179
	c-0.27-0.004-0.502,0.048-0.705,0.156c-0.205,0.109-0.361,0.265-0.48,0.467c-0.111,0.203-0.174,0.438-0.178,0.708l-0.018,1.039
	c-0.004,0.269,0.049,0.506,0.154,0.712s0.264,0.366,0.465,0.481C47.783,28.894,48.018,28.954,48.283,28.958z M48.293,28.267
	c-0.123-0.001-0.232-0.03-0.326-0.084c-0.094-0.054-0.164-0.13-0.215-0.229c-0.049-0.098-0.072-0.211-0.07-0.339l0.016-1.074
	c0.002-0.127,0.029-0.24,0.084-0.336c0.055-0.097,0.125-0.171,0.225-0.222c0.094-0.052,0.203-0.076,0.324-0.074
	c0.125,0.002,0.234,0.03,0.328,0.084c0.096,0.055,0.164,0.13,0.213,0.229c0.053,0.099,0.074,0.211,0.072,0.339l-0.018,1.074
	c-0.002,0.128-0.029,0.24-0.08,0.337c-0.053,0.097-0.129,0.17-0.223,0.222C48.527,28.244,48.418,28.269,48.293,28.267z
	 M52.965,26.451c-0.004,0.224-0.057,0.419-0.152,0.586c-0.1,0.167-0.236,0.296-0.412,0.386c-0.174,0.09-0.377,0.133-0.604,0.129
	l-0.779-0.013l-0.02,1.094c-0.002,0.181-0.15,0.326-0.33,0.323h-0.035c-0.182-0.003-0.326-0.152-0.322-0.333l0.047-3.009
	c0.002-0.181,0.15-0.326,0.332-0.323l0.246,0.004l0.896,0.014c0.229,0.004,0.43,0.053,0.604,0.149
	c0.172,0.096,0.303,0.229,0.396,0.401C52.924,26.029,52.969,26.228,52.965,26.451z M52.199,26.197
	c-0.031-0.07-0.08-0.125-0.145-0.164c-0.064-0.039-0.137-0.059-0.221-0.06l-0.799-0.012l-0.014,0.912l0.797,0.013
	c0.082,0.001,0.154-0.017,0.217-0.054c0.066-0.037,0.115-0.089,0.152-0.158c0.035-0.069,0.055-0.147,0.055-0.236
	C52.248,26.349,52.234,26.269,52.199,26.197z"/>
<g>
	
		<path fill="#BCBCBC" stroke="#030303" stroke-width="0.15" stroke-linecap="round" stroke-linejoin="round" stroke-miterlimit="10" d="
		M17.596,24.123l0.614-0.393l-0.726-0.382l0.455-0.844h-0.332c0.112-0.169,0.229-0.406,0.229-0.661c0-0.203-0.073-0.385-0.224-0.542
		c-0.185-0.196-0.411-0.296-0.668-0.296c-0.057,0-0.111,0.007-0.165,0.013l0,0c-0.484-0.41-1.033-0.021-1.033-0.021l0.025,0.017
		c-0.045-0.005-0.092-0.01-0.137-0.01c-0.256,0.001-0.48,0.101-0.67,0.296c-0.147,0.159-0.227,0.343-0.221,0.552
		c-0.001,0.251,0.115,0.485,0.225,0.653l-0.469-0.001l0.455,0.844l-0.728,0.381l0.614,0.396l-0.455,0.727l0.779-0.014l-0.037,0.872
		l0.695-0.448l0.392,0.768l0.392-0.769l0.697,0.449l-0.037-0.871l0.78,0.014L17.596,24.123z M17.332,21.825
		c-0.006-0.109-0.032-0.211-0.084-0.307c-0.005-0.008-0.011-0.02-0.018-0.029c-0.025-0.045-0.058-0.087-0.097-0.13
		c0.032,0.008,0.06,0.018,0.09,0.031c0.202,0.087,0.308,0.261,0.294,0.487c0.001,0.025-0.004,0.051-0.009,0.078
		c-0.005,0.027-0.011,0.054-0.018,0.082c-0.015,0.053-0.035,0.109-0.061,0.165c-0.014,0.029-0.028,0.055-0.042,0.084
		c-0.04,0.069-0.091,0.136-0.146,0.199l-0.009,0.011l-0.004,0.01l-0.127-0.001c0.01-0.013,0.015-0.021,0.023-0.032
		c0.026-0.042,0.053-0.085,0.073-0.13c0.022-0.041,0.04-0.083,0.056-0.121c0.003-0.008,0.008-0.018,0.01-0.025
		c0.005-0.019,0.013-0.037,0.018-0.053c0.003-0.01,0.005-0.019,0.008-0.027c0.005-0.02,0.011-0.035,0.017-0.056
		c0-0.009,0.004-0.02,0.004-0.028c0.005-0.027,0.012-0.057,0.014-0.086C17.333,21.903,17.335,21.861,17.332,21.825z M15.552,21.854
		l-0.001-0.004c0,0,0.001-0.012-0.001-0.016c0-0.004,0-0.008,0-0.012l0.004-0.01c-0.002-0.001-0.002-0.005,0-0.008
		c0-0.005,0.001-0.012,0.004-0.02c0-0.004,0-0.01,0.001-0.014c0.003-0.007,0.005-0.016,0.005-0.022l0.004-0.015
		c0.002-0.002,0.004-0.007,0.004-0.013c0-0.002,0.002-0.015,0.002-0.015c0.002-0.005,0.002-0.008,0.006-0.014
		c0-0.001,0-0.005,0.005-0.006l-0.001-0.001c0.001-0.004,0.004-0.012,0.008-0.016c0.001-0.003,0.001-0.005,0.006-0.012
		c0-0.004,0.002-0.008,0.006-0.013c0.004-0.004,0.004-0.008,0.007-0.013c0.003-0.003,0.007-0.007,0.009-0.012
		c0.002-0.003,0.006-0.008,0.008-0.01c0.002-0.004,0.006-0.009,0.01-0.014c0.003-0.004,0.005-0.006,0.01-0.012
		c0.002-0.002,0.008-0.005,0.01-0.012c0.003-0.003,0.006-0.006,0.012-0.008c0.004-0.005,0.008-0.008,0.012-0.013v-0.001
		c0.002-0.004,0.006-0.006,0.01-0.007c0.002-0.004,0.008-0.007,0.016-0.011c0,0,0.008-0.008,0.013-0.009
		c0.004-0.002,0.009-0.006,0.017-0.011c0,0,0.009-0.006,0.012-0.007c0.005-0.003,0.014-0.008,0.021-0.011l0.01-0.008
		c0.012-0.004,0.022-0.01,0.034-0.016c0.035-0.015,0.075-0.021,0.115-0.022c0.033,0,0.07,0.002,0.111,0.013
		c0.025,0.006,0.052,0.012,0.076,0.021c0.009,0.042,0.014,0.082,0.019,0.121c0.004,0.039,0.007,0.079,0.006,0.112
		c0,0.135-0.031,0.521-0.054,0.787l-0.262-0.002c-0.002-0.007-0.004-0.012-0.006-0.02l-0.004-0.011l-0.009-0.01
		c-0.024-0.03-0.052-0.063-0.075-0.098c-0.006-0.007-0.012-0.013-0.016-0.02l-0.01-0.017c-0.006-0.005-0.012-0.014-0.014-0.02
		l-0.011-0.016c-0.003-0.006-0.009-0.016-0.013-0.022l-0.001-0.003c-0.019-0.03-0.032-0.06-0.048-0.091l-0.004-0.013
		c-0.004-0.005-0.006-0.011-0.01-0.016l-0.006-0.021c-0.002-0.006-0.004-0.014-0.007-0.022l-0.008-0.016
		c0-0.006-0.003-0.014-0.005-0.02c0-0.007-0.002-0.012-0.004-0.016c-0.002-0.006-0.005-0.013-0.005-0.02
		c-0.002-0.004-0.003-0.009-0.003-0.016c-0.002-0.005-0.002-0.012-0.006-0.02c0-0.005-0.001-0.011-0.005-0.016
		c0.001-0.004-0.001-0.012-0.001-0.02c-0.001-0.006-0.001-0.012-0.001-0.016c-0.003-0.006-0.001-0.011-0.003-0.018
		c0.001-0.004-0.001-0.011-0.002-0.019c0-0.005,0.001-0.009-0.001-0.014c0.001-0.005-0.001-0.011-0.001-0.019v-0.001
		c0.001-0.004,0-0.008,0.002-0.012C15.548,21.862,15.552,21.859,15.552,21.854z M15.347,22.492l-0.009-0.009
		c-0.207-0.237-0.311-0.523-0.264-0.752c0.029-0.157,0.128-0.277,0.285-0.342c0.031-0.013,0.061-0.022,0.091-0.031
		c-0.132,0.146-0.2,0.317-0.198,0.509c0.002,0.244,0.119,0.477,0.224,0.635h-0.125L15.347,22.492z M16.492,22.502
		c-0.02-0.266-0.05-0.65-0.05-0.787c-0.001-0.034,0-0.071,0.005-0.111s0.011-0.08,0.021-0.121c0.034-0.009,0.068-0.021,0.103-0.026
		c0.029-0.005,0.056-0.007,0.079-0.007c0.047,0,0.084,0.008,0.118,0.021c0.013,0.006,0.023,0.012,0.036,0.016l0.009,0.007
		c0.01,0.004,0.016,0.008,0.022,0.011c0.001,0,0.013,0.007,0.013,0.007c0.008,0.003,0.011,0.007,0.017,0.011
		c0.004,0.001,0.007,0.003,0.009,0.004l0.004,0.003c0.004,0.002,0.01,0.006,0.015,0.011c0.003,0.002,0.005,0.004,0.011,0.008
		c0.003,0.004,0.007,0.009,0.012,0.012c0.003,0.003,0.006,0.007,0.01,0.009c0.004,0.004,0.01,0.009,0.013,0.013
		c0.003,0.002,0.005,0.006,0.009,0.01c0.003,0.005,0.006,0.009,0.01,0.014c0.003,0.003,0.002,0.007,0.008,0.011
		c0.004,0.004,0.005,0.008,0.007,0.012c0.005,0.003,0.007,0.008,0.008,0.012c0.002,0.004,0.006,0.009,0.011,0.016
		c0,0.003,0.003,0.007,0.003,0.01c0.001,0.003,0.005,0.007,0.01,0.014c0,0,0.002,0.011,0.004,0.011
		c0.001,0.007,0.003,0.009,0.005,0.018c0,0,0.003,0.008,0.005,0.012c0.003,0.003,0.001,0.007,0.002,0.011l0.005,0.015
		c0.001,0.008,0.001,0.016,0.003,0.022c0.003,0.003,0.002,0.01,0.004,0.015c0,0.008,0.002,0.013,0.001,0.021
		c0,0.001,0.001,0.004,0.001,0.006l0.001,0.011c-0.001,0.005,0.001,0.009,0.001,0.012c0,0.004,0,0.008,0,0.012l0.001,0.008
		c-0.001,0.004,0,0.008-0.001,0.013c-0.001,0.002,0,0.008-0.002,0.012l0.001,0.008c0,0.002,0,0.006,0,0.012
		c0,0.003-0.002,0.01-0.001,0.015c0,0.004-0.002,0.012-0.001,0.018c0,0.006-0.003,0.011-0.004,0.016
		c0.001,0.006,0.001,0.011,0,0.017c-0.002,0.007-0.002,0.013-0.004,0.019c0,0.007-0.003,0.01-0.003,0.016
		c-0.002,0.008-0.002,0.014-0.005,0.02c-0.001,0.003-0.002,0.011-0.003,0.018c-0.003,0.005-0.004,0.011-0.007,0.018
		c0,0.004,0,0.009-0.005,0.016c-0.002,0.006-0.003,0.014-0.008,0.021c0,0.004-0.004,0.02-0.004,0.02
		c-0.005,0.006-0.005,0.013-0.008,0.021l-0.01,0.019c0.001,0.006-0.004,0.01-0.006,0.017l-0.009,0.017
		c-0.002,0.006-0.003,0.013-0.008,0.019h-0.002c-0.011,0.022-0.023,0.043-0.039,0.063v0.005c-0.003,0.006-0.007,0.015-0.013,0.022
		l-0.01,0.018c-0.004,0.004-0.008,0.012-0.013,0.018l-0.01,0.018c-0.005,0.005-0.011,0.014-0.016,0.022
		c-0.023,0.034-0.049,0.064-0.079,0.095l-0.006,0.012l-0.006,0.011c0.001,0.006-0.003,0.014-0.006,0.022L16.492,22.502
		L16.492,22.502z"/>
	
		<path fill="#BCBCBC" stroke="#030303" stroke-width="0.15" stroke-linecap="round" stroke-linejoin="round" stroke-miterlimit="10" d="
		M15.007,23.933c-0.002,0.661,0.532,1.196,1.194,1.196c0.657,0.002,1.194-0.533,1.195-1.192c0-0.001-0.001-0.002-0.002-0.003
		c0.003-0.66-0.531-1.194-1.192-1.195C15.542,22.738,15.007,23.271,15.007,23.933L15.007,23.933"/>
</g>
<path fill="#F4F4F4" d="M13.942,55.891c-0.107-0.025-0.215-0.063-0.325-0.088c-0.057-0.012-0.084-0.035-0.087-0.096
	c-0.03-0.539-0.065-1.074-0.096-1.615c-0.015-0.271-0.009-0.271,0.246-0.373c0.174-0.072,0.351-0.145,0.527-0.217
	c0.006-0.004,0.013-0.016,0.026-0.023c-0.064-0.051-0.125-0.094-0.186-0.145c-0.486-0.4-0.744-0.93-0.829-1.555
	c-0.057-0.41,0.006-0.813,0.129-1.203c0.017-0.057,0.031-0.09,0.089-0.094c0.089,0.002,0.102-0.053,0.105-0.129
	c0.016-0.48,0.037-0.965,0.056-1.451c0.003-0.055-0.017-0.115,0.083-0.111c0.065,0.002,0.041-0.064,0.042-0.104
	c0.02-0.461,0.042-0.92,0.055-1.385c0.002-0.104,0.035-0.129,0.132-0.115c0.118,0.021,0.233,0.029,0.368,0.041
	c-0.079-0.084-0.174-0.121-0.259-0.168c-0.054-0.035-0.078-0.066-0.062-0.131c0.131-0.588,0.262-1.18,0.392-1.77
	c0.012-0.061,0.048-0.072,0.097-0.074c0.707-0.074,1.414-0.148,2.119-0.223c0.693-0.074,1.388-0.146,2.079-0.229
	c0.078-0.008,0.091,0,0.081,0.082c-0.088,0.559-0.171,1.117-0.255,1.68c-0.012,0.088-0.035,0.176-0.038,0.266
	c-0.006,0.088-0.029,0.127-0.128,0.125c-0.135-0.002-0.272,0.014-0.406,0.021c-0.041,0.006-0.084,0.006-0.1,0.061
	c-0.019,0.057,0.031,0.07,0.065,0.09c0.121,0.068,0.241,0.139,0.365,0.201c0.072,0.035,0.087,0.072,0.063,0.145
	c-0.078,0.242-0.146,0.488-0.221,0.73c-0.033,0.107-0.049,0.225-0.053,0.336c-0.013,0.398-0.025,0.807-0.043,1.203
	c0,0.061,0.022,0.141-0.088,0.121c-0.043-0.002-0.038,0.043-0.038,0.068c-0.011,0.252-0.021,0.506-0.029,0.76
	c-0.002,0.057,0.017,0.105,0.028,0.15c0.197,0.73,0.157,1.436-0.238,2.102c-0.073,0.121-0.005,0.246,0.01,0.367
	c0.038,0.365,0.085,0.73,0.136,1.102c0.01,0.066-0.011,0.098-0.073,0.109c-0.138,0.045-0.272,0.092-0.407,0.146
	c-0.034,0.02-0.076,0.021-0.075,0.07c0.004,0.061,0.04,0.066,0.085,0.074c0.137,0.029,0.271,0.068,0.407,0.096
	c0.079,0.014,0.108,0.049,0.105,0.135c-0.008,0.23,0.007,0.457-0.01,0.693c-0.035,0.441,0.104,0.852,0.189,1.271
	c0.024,0.123,0.059,0.244,0.082,0.373c0.013,0.063,0.079,0.145-0.056,0.176c-0.034,0.014-0.018,0.061-0.011,0.074
	c0.039,0.17,0.087,0.338,0.112,0.512c0.013,0.08,0.085,0.063,0.116,0.117c0.283,0.482,0.491,1.002,0.491,1.568
	c-0.001,0.98-0.558,1.814-1.473,2.148c-0.92,0.342-1.787,0.252-2.531-0.43c-0.555-0.506-0.792-1.162-0.785-1.906
	c-0.001-0.1-0.042-0.205,0.058-0.283c0.023-0.02,0-0.063-0.009-0.098c-0.104-0.467-0.207-0.932-0.312-1.406
	c-0.013-0.053-0.039-0.104,0.054-0.107c0.052-0.02,0.023-0.064,0.017-0.105c-0.098-0.438-0.197-0.895-0.302-1.332
	c-0.025-0.104-0.029-0.168,0.112-0.176c0.131-0.004,0.261-0.039,0.395-0.061C13.942,55.91,13.942,55.896,13.942,55.891z"/>
<path fill="#030303" d="M11.881,52.428c0.068,0.074,0.139,0.008,0.205,0.012c0.102,0.014,0.107-0.051,0.102-0.125
	c-0.001-0.031,0.009-0.059,0.049-0.059c0.044,0.002,0.047,0.033,0.043,0.059c-0.021,0.111,0.041,0.125,0.131,0.123
	c0.167-0.004,0.331,0.012,0.496,0c0.125-0.008,0.208,0.027,0.256,0.146c0.013,0.031,0.031,0.061,0.053,0.098
	c-0.054,0.025-0.108,0.018-0.161,0.018c-0.221,0-0.441-0.008-0.66-0.006c-0.047,0.002-0.11-0.023-0.121,0.064
	c-0.003,0.051-0.057,0.029-0.064,0c-0.028-0.072-0.086-0.063-0.146-0.07c-0.176-0.023-0.272-0.158-0.245-0.332
	c0.009-0.045,0.027-0.086,0.069-0.117c0.037-0.021,0.077-0.025,0.119,0.004c0.034,0.02,0.051,0.055,0.041,0.098
	c-0.005,0.045-0.04,0.059-0.075,0.072C11.943,52.41,11.912,52.385,11.881,52.428z"/>
<path fill="#030303" d="M12.399,52.9c0.132,0.006,0.264,0.002,0.393,0.004c0.057,0.002,0.107-0.012,0.075-0.09
	c-0.011-0.021-0.022-0.051,0.01-0.063c0.027-0.01,0.048,0.008,0.063,0.029c0.055,0.076,0.065,0.164,0.033,0.254
	c-0.032,0.084-0.104,0.117-0.19,0.117c-0.236,0.006-0.474-0.004-0.71,0.002c-0.05,0-0.123-0.031-0.115,0.076
	c0.001,0.041-0.051,0.023-0.065-0.008c-0.037-0.074-0.079-0.16-0.033-0.242c0.038-0.078,0.118-0.078,0.197-0.082
	C12.173,52.902,12.284,52.902,12.399,52.9C12.399,52.902,12.399,52.902,12.399,52.9z"/>
<path fill="#030303" d="M12.737,52.135c-0.143,0.002-0.285,0.004-0.429,0.006c-0.044-0.008-0.08-0.029-0.102-0.064
	c-0.056-0.104-0.01-0.182,0.102-0.182c0.137,0.002,0.27,0,0.404,0.004c0.063-0.002,0.135-0.01,0.155,0.072
	c0.015,0.07-0.04,0.109-0.092,0.139C12.765,52.115,12.75,52.125,12.737,52.135z"/>
<path fill="#030303" d="M12.737,52.135c0.002-0.041,0.031-0.066,0.062-0.09c0.027-0.02,0.063-0.029,0.044-0.074
	c-0.021-0.045-0.055-0.059-0.1-0.059c-0.15-0.002-0.296-0.002-0.446-0.004c-0.033,0.002-0.075-0.012-0.086,0.029
	c-0.011,0.043-0.021,0.086,0.02,0.119c0.03,0.02,0.061,0.047,0.076,0.082c-0.018,0.021-0.03,0.051-0.049,0.07
	c-0.041,0.041-0.069,0.025-0.073-0.021c-0.005-0.084-0.002-0.162-0.005-0.242c-0.002-0.064,0.042-0.063,0.083-0.063
	c0.172,0.002,0.34,0.006,0.508,0.002c0.06,0,0.147,0.021,0.096-0.094c-0.009-0.021-0.003-0.047,0.022-0.055
	c0.031-0.012,0.048,0.018,0.061,0.033c0.051,0.08,0.059,0.168,0.018,0.252C12.922,52.133,12.836,52.15,12.737,52.135z"/>
<path fill="#030303" d="M11.816,52.029c0.009-0.09,0.061-0.145,0.146-0.139c0.083,0.002,0.143,0.057,0.137,0.146
	c-0.003,0.084-0.059,0.137-0.138,0.135C11.875,52.174,11.822,52.123,11.816,52.029z"/>
<path fill="#030303" d="M18.39,59.402c0.083,0.574-0.053,1.1-0.425,1.533c-0.591,0.682-1.357,0.896-2.216,0.686
	c-0.847-0.211-1.29-0.832-1.479-1.66c-0.031-0.145-0.03-0.281-0.035-0.434c-0.004-0.076,0.019-0.121,0.096-0.146
	c0.13-0.057,0.254-0.111,0.375-0.189c-0.098,0.018-0.198,0.023-0.294,0.051c-0.064,0.012-0.091-0.014-0.105-0.07
	c-0.091-0.404-0.184-0.816-0.277-1.229c-0.021-0.078,0.008-0.104,0.083-0.105c0.318-0.047,0.635-0.096,0.955-0.145
	c0.061-0.014,0.113-0.01,0.098-0.104c-0.012-0.082-0.049-0.094-0.125-0.076c-0.273,0.051-0.55,0.082-0.828,0.127
	c-0.088,0.021-0.136,0-0.155-0.102c-0.081-0.396-0.167-0.787-0.26-1.18c-0.022-0.096,0-0.105,0.089-0.123
	c0.495-0.068,0.988-0.145,1.482-0.223c0.028-0.008,0.061-0.004,0.086-0.033c-0.469-0.129-0.933-0.25-1.398-0.371
	c-0.233-0.061-0.231-0.059-0.242-0.299c-0.022-0.393-0.045-0.773-0.073-1.166c-0.006-0.088,0.022-0.129,0.102-0.158
	c0.388-0.145,0.776-0.311,1.159-0.473c0.004-0.049-0.033-0.035-0.055-0.047c-0.861-0.271-1.408-0.994-1.441-1.898
	c-0.008-0.234,0.015-0.471,0.077-0.697c0.022-0.07,0.053-0.111,0.136-0.119c0.219-0.023,0.438-0.068,0.66-0.129
	c-0.142-0.016-0.28-0.037-0.424-0.045c-0.084-0.014-0.114-0.033-0.111-0.123c0.022-0.414,0.039-0.83,0.055-1.244
	c0.002-0.064,0.022-0.092,0.088-0.072c0.089,0.02,0.188,0.004,0.273,0.039c0.016,0.104-0.048,0.193-0.081,0.289
	c-0.034,0.234,0.003,0.477-0.031,0.705c-0.01,0.08,0.064,0.08,0.116,0.088c0.283,0.043,0.57,0.074,0.853,0.104
	c0.414,0.043,0.823,0.096,1.232,0.139c0.037,0,0.065,0.016,0.098,0.021c0.191,0.068,0.191,0.068,0.112,0.271
	c-0.017,0.033-0.062,0.061-0.04,0.104c0.091,0.361,0.084,0.711-0.121,1.037c-0.073,0.117-0.157,0.229-0.293,0.287
	c-0.31,0.063-0.613,0.09-0.898-0.09c-0.314-0.193-0.459-0.486-0.491-0.844c-0.009-0.117-0.001-0.236,0.003-0.355
	c0.002-0.059-0.008-0.105-0.072-0.107c-0.23-0.004-0.456,0.014-0.654,0.143c-0.178,0.053-0.193,0.193-0.197,0.35
	c-0.012,0.408,0.06,0.793,0.284,1.141c0.26,0.396,0.635,0.625,1.09,0.725c0.053,0.016,0.107,0.021,0.16,0.039
	c0.095,0.035,0.193,0.014,0.289,0.023c0.043,0.006,0.099-0.004,0.112,0.045c0.015,0.061-0.034,0.08-0.075,0.104
	c-0.17,0.082-0.347,0.148-0.522,0.221c-0.3,0.105-0.583,0.252-0.879,0.363c-0.088,0.035-0.134,0.107-0.157,0.199
	c-0.036,0.063-0.061,0.117-0.055,0.189c0.022,0.236,0.044,0.482,0.043,0.73c-0.002,0.152,0.028,0.188,0.183,0.229
	c0.691,0.18,1.381,0.367,2.074,0.549c0.056,0.016,0.118,0.02,0.149,0.086c0,0.09-0.074,0.07-0.127,0.082
	c-0.578,0.098-1.158,0.186-1.737,0.256c-0.148,0.021-0.29,0.061-0.395,0.17c-0.079,0.033-0.088,0.098-0.072,0.17
	c0.04,0.17,0.082,0.336,0.118,0.506c0.019,0.104,0.063,0.135,0.157,0.111c0.248-0.035,0.493-0.07,0.741-0.105
	c0.17-0.02,0.209,0,0.242,0.166c0.027,0.146,0.063,0.287,0.047,0.439c-0.037,0.061-0.099,0.076-0.162,0.088
	c-0.138,0.018-0.271,0.055-0.41,0.059c-0.166,0.014-0.308,0.07-0.429,0.188c-0.074,0.021-0.078,0.076-0.063,0.146
	c0.035,0.174,0.066,0.342,0.113,0.514c0.036,0.133,0.051,0.143,0.187,0.119c0.717-0.104,1.43-0.223,2.146-0.318
	c0.066-0.014,0.136-0.021,0.203-0.018c0.161,0.031,0.173,0.105,0.047,0.268c-0.007,0.063,0.029,0.104,0.05,0.146
	c0.146,0.328,0.196,0.658,0.058,1.004c-0.028,0.066-0.056,0.135-0.115,0.18c-0.195,0.129-0.396,0.234-0.636,0.252
	c-0.1,0.008-0.199,0.006-0.252-0.105c0.051-0.041,0.113-0.031,0.172-0.041c0.402-0.068,0.609-0.336,0.586-0.74
	c-0.011-0.146-0.055-0.277-0.124-0.41c-0.043-0.078-0.105-0.113-0.195-0.104c-0.302,0.053-0.603,0.088-0.904,0.135
	c-0.085,0.02-0.11,0.063-0.121,0.141c-0.009,0.084,0.013,0.172-0.022,0.252c-0.064,0.035-0.064-0.021-0.072-0.061
	c-0.015-0.064-0.038-0.131-0.073-0.189c-0.048-0.08-0.116-0.105-0.201-0.066c-0.142,0.078-0.287,0.146-0.437,0.205
	c-0.1,0.033-0.145,0.135-0.215,0.207c-0.05,0.037-0.06,0.09-0.055,0.148c0.072,0.818,0.697,1.605,1.639,1.637
	c0.307,0.01,0.594-0.059,0.88-0.145c0.5-0.102,0.847-0.396,1.08-0.83c0.139-0.268,0.237-0.533,0.223-0.838
	C18.352,59.49,18.347,59.438,18.39,59.402z"/>
<path fill="#030303" d="M14.149,49.422c0.061-0.072,0.056-0.176,0.109-0.252c0.245,0.023,0.491,0.051,0.735,0.078
	c0.082,0.01,0.074-0.041,0.087-0.088c0.017-0.064-0.007-0.094-0.071-0.098c-0.28-0.031-0.564-0.07-0.845-0.096
	c-0.1-0.01-0.145-0.029-0.138-0.146c0.025-0.4,0.04-0.803,0.05-1.201c0.001-0.1,0.044-0.1,0.117-0.086
	c0.42,0.055,0.841,0.096,1.26,0.146c0.058,0.008,0.113,0.008,0.178-0.014c-0.162-0.092-0.323-0.193-0.484-0.291
	c-0.249-0.146-0.492-0.297-0.744-0.438c-0.087-0.047-0.115-0.09-0.09-0.193c0.102-0.42,0.193-0.846,0.282-1.266
	c0.014-0.07,0.042-0.102,0.12-0.107c1.186-0.125,2.371-0.252,3.557-0.387c0.084-0.008,0.112,0.008,0.098,0.1
	c-0.07,0.438-0.136,0.877-0.198,1.318c-0.011,0.074-0.039,0.104-0.118,0.104c-0.132,0-0.266,0.021-0.396,0.021
	c-0.079,0-0.102,0.035-0.113,0.104c-0.02,0.111-0.043,0.225-0.074,0.332c-0.026,0.092,0.001,0.143,0.085,0.18
	c0.11,0.051,0.211,0.121,0.322,0.176c0.062,0.031,0.087,0.066,0.061,0.143c-0.189,0.479-0.245,0.979-0.237,1.49
	c0.003,0.109-0.017,0.223-0.013,0.328c-0.001,0.082-0.025,0.1-0.103,0.09c-0.357-0.043-0.717-0.078-1.072-0.125
	c-0.087-0.014-0.103,0.021-0.116,0.098c-0.014,0.098,0.053,0.08,0.102,0.086c0.313,0.035,0.628,0.076,0.944,0.104
	c0.094,0.014,0.118,0.045,0.111,0.139c-0.016,0.301-0.016,0.604-0.041,0.896c-0.01,0.109,0.08,0.186,0.06,0.289
	c-0.135-0.016-0.257-0.076-0.383-0.131c-0.039-0.014-0.039-0.059-0.033-0.1c-0.002-0.061-0.007-0.113,0.03-0.16
	c0.106-0.02,0.144-0.074,0.148-0.182c0.012-0.154-0.011-0.313,0.007-0.469c0.01-0.098-0.06-0.137-0.143-0.145
	c-0.238-0.029-0.475-0.064-0.715-0.086c-0.238-0.021-0.313-0.117-0.28-0.355c0.009-0.063,0.015-0.135,0.02-0.195
	c0.003-0.064,0.022-0.119,0.089-0.145c0.275,0,0.55,0.051,0.824,0.078c0.089,0.01,0.18,0.025,0.229-0.078
	c0.116-0.053,0.156-0.143,0.16-0.27c0.006-0.125,0.026-0.244,0.02-0.367c-0.013-0.244,0.03-0.48,0.12-0.707
	c0.046-0.127,0.028-0.174-0.086-0.244c-0.031-0.018-0.065-0.033-0.097-0.053c-0.238-0.146-0.267-0.199-0.195-0.463
	c0.05-0.182,0.053-0.375,0.144-0.541c0.057-0.063,0.133-0.059,0.208-0.055c0.104,0.01,0.193-0.018,0.258-0.104
	c0.105-0.043,0.144-0.131,0.157-0.23c0.021-0.146,0.046-0.299,0.063-0.453c0.019-0.17-0.018-0.199-0.188-0.184
	c-0.456,0.039-0.911,0.105-1.369,0.146c-0.458,0.043-0.913,0.107-1.37,0.146c-0.08,0.008-0.146,0.033-0.197,0.096
	c-0.135,0.049-0.168,0.156-0.195,0.281c-0.045,0.219-0.091,0.438-0.148,0.654c-0.03,0.104,0.002,0.172,0.098,0.229
	c0.557,0.328,1.112,0.662,1.668,0.992c0.041,0.021,0.082,0.047,0.115,0.076c0.02,0.021,0.039,0.049,0,0.074
	c-0.133,0.035-0.27,0.02-0.4,0.008c-0.453-0.053-0.906-0.109-1.359-0.158c-0.122-0.014-0.214,0.014-0.303,0.092
	c-0.089,0.016-0.117,0.072-0.117,0.16c0.005,0.158-0.001,0.316-0.02,0.48c-0.018,0.125,0.007,0.145,0.132,0.166
	c0.222,0.029,0.442,0.049,0.664,0.072c0.065,0.012,0.127,0.016,0.186,0.041c0.048,0.018,0.089,0.051,0.083,0.1
	c-0.012,0.174-0.006,0.354-0.078,0.52c-0.038,0.045-0.09,0.033-0.141,0.037c-0.2,0.002-0.395-0.037-0.592-0.064
	c-0.113-0.016-0.207-0.004-0.285,0.086C14.244,49.465,14.19,49.473,14.149,49.422z"/>
<path fill="#030303" d="M17.19,50.633c-0.026,0.07,0.034,0.072,0.075,0.086c0.107,0.023,0.212,0.064,0.309,0.127
	c0.035,0.074,0.058,0.154,0.052,0.238c0.059,0.6-0.073,1.135-0.483,1.59c-0.052,0.053-0.063,0.094,0.015,0.133
	c0.069,0.037,0.088,0.111,0.125,0.17c0.051,0.195,0.055,0.4,0.089,0.604c0.021,0.145,0.033,0.295,0.059,0.438
	c0.011,0.076-0.007,0.119-0.09,0.146c-0.121,0.033-0.238,0.086-0.358,0.123c-0.07,0.021-0.097,0.055-0.091,0.125
	c0.016,0.131,0.022,0.26,0.025,0.396c0,0.063,0.042,0.082,0.095,0.094c0.126,0.021,0.255,0.064,0.383,0.086
	c0.088,0.014,0.108,0.061,0.102,0.135c-0.054,0.645,0.038,1.26,0.215,1.869c0.023,0.096,0.001,0.121-0.096,0.137
	c-0.346,0.041-0.688,0.096-1.031,0.148c-0.058,0.01-0.125,0-0.109,0.104c0.018,0.104,0.072,0.09,0.143,0.076
	c0.31-0.049,0.619-0.092,0.928-0.143c0.099-0.021,0.121,0.02,0.14,0.104c0.059,0.285,0.125,0.564,0.188,0.857
	c0.014,0.063,0.022,0.115,0.107,0.1c0.041-0.02,0.063,0.018,0.081,0.049c0.171,0.313,0.299,0.633,0.329,0.988
	c0.027,0.381-0.08,0.729-0.266,1.051c-0.173,0.313-0.434,0.529-0.745,0.688c-0.099,0.055-0.218,0.061-0.324,0.088
	c0.001-0.063,0.061-0.068,0.102-0.096c0.211-0.104,0.389-0.248,0.558-0.414c0.524-0.508,0.617-1.113,0.413-1.793
	c-0.021-0.063-0.044-0.143-0.073-0.215c-0.043-0.104-0.118-0.146-0.223-0.133c-0.132,0.021-0.269,0.021-0.402,0.045
	c-0.08,0.014-0.122,0.063-0.18,0.104c-0.074,0.025-0.146,0.064-0.227,0.02c0.011-0.021,0.027-0.025,0.048-0.031
	c0.067-0.016,0.079-0.063,0.075-0.121c-0.004-0.063-0.067-0.049-0.104-0.053c0.013-0.064,0.06-0.061,0.099-0.064
	c0.103-0.02,0.197-0.045,0.298-0.055c0.055-0.006,0.095-0.021,0.123-0.072c0.117-0.088,0.135-0.199,0.093-0.334
	c-0.034-0.104-0.061-0.223-0.087-0.33c-0.021-0.104-0.079-0.143-0.182-0.129c-0.235,0.021-0.469,0.063-0.7,0.102
	c-0.078,0.016-0.15,0.02-0.227-0.006c-0.061-0.021-0.107-0.061-0.12-0.117c-0.02-0.141-0.058-0.271-0.071-0.414
	c-0.004-0.045,0-0.09,0.036-0.125c0.043-0.043,0.101-0.043,0.153-0.053c0.247-0.043,0.492-0.07,0.739-0.109
	c0.057-0.008,0.105-0.02,0.131-0.078c0.111-0.064,0.126-0.166,0.092-0.281c-0.04-0.145-0.064-0.307-0.099-0.441
	c-0.037-0.164-0.06-0.324-0.024-0.488c0.004-0.02,0.002-0.021,0.005-0.035c0.027-0.318,0-0.355-0.311-0.447
	c-0.202-0.051-0.248-0.104-0.269-0.313c-0.023-0.23-0.036-0.453-0.008-0.688c0.035-0.072,0.113-0.08,0.18-0.105
	c0.073-0.021,0.148-0.043,0.188-0.117c0.072-0.063,0.12-0.125,0.107-0.229c-0.016-0.166-0.047-0.33-0.063-0.498
	c-0.01-0.105-0.051-0.127-0.146-0.09c-0.575,0.242-1.155,0.479-1.734,0.715c-0.335,0.145-0.669,0.27-1.008,0.41
	c-0.051,0.02-0.105,0.063-0.167,0.02c-0.013-0.109,0.067-0.188,0.147-0.219c0.438-0.188,0.879-0.357,1.321-0.539
	c0.063-0.021,0.125-0.051,0.184-0.111c-0.139-0.047-0.275,0.021-0.4-0.035c0.073-0.063,0.163-0.039,0.245-0.039
	c0.456,0.021,0.846-0.139,1.19-0.422c0.08-0.066,0.132-0.166,0.227-0.225c0.146-0.078,0.225-0.213,0.294-0.354
	c0.184-0.365,0.231-0.758,0.18-1.158c-0.016-0.119-0.073-0.186-0.193-0.205c-0.108-0.018-0.217-0.029-0.326-0.057
	c-0.108-0.025-0.197-0.008-0.27,0.08c-0.065,0.029-0.128,0.002-0.19-0.01c-0.033-0.072,0.029-0.043,0.055-0.051
	c0.055-0.082,0.082-0.203,0.221-0.188c-0.019-0.021-0.029-0.047,0.008-0.063C16.905,50.553,17.052,50.559,17.19,50.633z"/>
<path fill="#030303" d="M17.281,52.977c-0.083-0.055-0.121-0.158-0.229-0.188c-0.049-0.014-0.017-0.063,0.012-0.094
	c0.218-0.193,0.338-0.449,0.444-0.721c0.073-0.18,0.064-0.369,0.101-0.555c0.022-0.105,0.009-0.227,0.015-0.336
	c0.094,0.52,0.026,1.012-0.237,1.469C17.309,52.688,17.251,52.816,17.281,52.977z"/>
<path fill="#030303" d="M11.828,54.6c-0.004,0.146,0.04,0.285-0.016,0.438c-0.022,0.061,0.043,0.094,0.071,0.139
	c0.011,0.021,0.028,0.021,0.042,0c0.034-0.041,0.035-0.086,0.018-0.131c-0.01-0.037-0.014-0.07-0.021-0.105
	c0.066,0.105,0.16,0.107,0.262,0.105c0.182-0.006,0.364,0.002,0.545,0c0.056,0.002,0.112-0.012,0.141,0.063
	c0.012,0.021,0.033,0.045,0.062,0.025c0.028-0.021,0.018-0.047,0.018-0.064c0.002-0.15,0.006-0.314,0.002-0.475
	c-0.009-0.314-0.251-0.525-0.592-0.529C12.044,54.068,11.834,54.285,11.828,54.6z M12.654,54.379
	c0.074,0.021,0.138,0.061,0.177,0.133c0.103,0.189,0.055,0.268-0.148,0.264c-0.096,0-0.194,0.002-0.292,0
	c-0.131-0.002-0.262,0-0.393-0.002c-0.066,0.016-0.087-0.02-0.086-0.086c-0.001-0.145,0.082-0.27,0.241-0.313
	C12.32,54.332,12.488,54.334,12.654,54.379z"/>
<path fill="#030303" d="M11.914,55.428c-0.153,0.223-0.13,0.521,0.055,0.727c0.174,0.189,0.473,0.24,0.695,0.113
	c0.075-0.043,0.157-0.158,0.206-0.141c0.072,0.02,0.12,0.131,0.195,0.229c-0.06-0.271-0.238-0.438-0.383-0.611
	c-0.02-0.021-0.062-0.021-0.101-0.027c-0.063-0.021-0.14-0.008-0.178-0.074c-0.074-0.127-0.123-0.133-0.212-0.02
	c0.002-0.148,0.002-0.148,0.153-0.148c0.068,0.002,0.113,0.002,0.041-0.064c-0.021,0.016-0.045,0.02-0.069,0.02
	c-0.073,0.014-0.169-0.041-0.194,0.084c-0.014,0.07-0.088,0.141-0.054,0.23c0.02,0.049-0.019,0.059-0.047,0.068
	c-0.042,0.023-0.056,0.063-0.024,0.104c0.017,0.021,0.055,0.063,0.068,0.025c0.016-0.023,0.099-0.031,0.042-0.096
	c-0.013-0.018-0.036-0.033-0.005-0.053c0.011-0.008,0.024-0.01,0.036-0.004c0.023,0.012,0.052,0.029,0.04,0.057
	c-0.05,0.125,0.052,0.137,0.12,0.154c0.095,0.021,0.195,0.037,0.309,0.055c-0.026-0.063-0.071-0.063-0.114-0.064
	c-0.074-0.012-0.141-0.033-0.205-0.064c-0.05-0.025-0.042-0.068-0.02-0.109c0.028-0.053,0.057-0.008,0.081,0.018
	c0.112,0.068,0.237,0.123,0.364,0.178c0.1,0.033,0.085,0.07,0.02,0.141c-0.163,0.146-0.401,0.18-0.592,0.064
	c-0.192-0.105-0.29-0.33-0.239-0.551c0.05-0.229,0.218-0.355,0.46-0.387l0,0c0.32-0.014,0.557,0.234,0.527,0.557
	c-0.003,0.023-0.015,0.063-0.013,0.086c0.002,0.02,0.02,0.043,0.037,0.051c0.026,0.014,0.028-0.021,0.035-0.041
	c0.008-0.021,0.015-0.063,0.019-0.086c0.031-0.252-0.125-0.51-0.368-0.607C12.35,55.119,12.061,55.205,11.914,55.428z
	 M12.483,55.768c0.119,0.008,0.18,0.066,0.243,0.121C12.641,55.883,12.574,55.836,12.483,55.768z"/>
<path fill="#030303" d="M12.812,53.33c0.063,0.064,0.087,0.145,0.071,0.232c-0.019,0.104-0.151,0.197-0.271,0.178
	c-0.117-0.018-0.042-0.115-0.058-0.174c-0.008-0.023-0.001-0.053-0.002-0.076c0-0.063,0-0.133,0.001-0.203
	c0.001-0.045-0.018-0.064-0.061-0.059c-0.132,0.008-0.265,0.104-0.31,0.229c-0.073,0.189,0.006,0.4,0.185,0.506
	c0.187,0.088,0.419,0.02,0.54-0.146c0.112-0.164,0.094-0.434-0.038-0.563c-0.021-0.02-0.037-0.049-0.071-0.021
	C12.767,53.287,12.79,53.307,12.812,53.33z M12.403,53.74c-0.085-0.012-0.168-0.035-0.166-0.133c0.002-0.1,0.088-0.113,0.167-0.123
	c0.119-0.012,0.05,0.086,0.073,0.135C12.455,53.66,12.516,53.75,12.403,53.74z"/>
<path fill="#F04B4A" d="M17.095,53.84c0.006,0.063-0.024,0.088-0.083,0.104c-0.091,0.033-0.18,0.068-0.271,0.105
	c-0.146,0.082-0.146,0.209-0.127,0.355c0.019,0.164,0.035,0.338,0.032,0.504c-0.002,0.107,0.042,0.158,0.146,0.184
	c0.09,0.021,0.185,0.039,0.273,0.063c0.088,0.021,0.144,0.076,0.137,0.178c-0.028,0.447,0.025,0.896,0.148,1.34
	c0.008,0.029,0.004,0.063-0.007,0.104c0.014,0.08-0.027,0.1-0.096,0.105c-0.313,0.047-0.625,0.076-0.932,0.145
	c-0.154,0.086-0.154,0.086-0.133,0.264c0.018,0.111,0.033,0.229,0.051,0.34c0.013,0.09,0.053,0.121,0.148,0.105
	c0.287-0.047,0.575-0.086,0.864-0.135c0.159-0.021,0.19-0.006,0.225,0.146c0.038,0.17,0.081,0.34,0.115,0.512
	c0.008,0.043,0.014,0.086,0.002,0.125c0.002,0.068-0.03,0.1-0.098,0.104c-0.148,0.021-0.297,0.055-0.447,0.068
	c-0.385,0.035-0.761,0.107-1.142,0.162c-0.419,0.059-0.837,0.119-1.256,0.182c-0.115,0.021-0.144-0.02-0.163-0.119
	c-0.036-0.188-0.078-0.367-0.125-0.561c-0.029-0.102-0.018-0.168,0.108-0.174c0.258-0.102,0.536-0.102,0.804-0.15
	c0.09-0.02,0.155-0.045,0.175-0.143c-0.023-0.158-0.048-0.32-0.064-0.484c-0.011-0.09-0.051-0.104-0.137-0.092
	c-0.287,0.047-0.576,0.086-0.865,0.133c-0.079,0.02-0.105-0.012-0.12-0.08c-0.043-0.209-0.088-0.412-0.142-0.617
	c-0.028-0.104,0.006-0.145,0.105-0.15c0.131-0.063,0.271-0.063,0.407-0.09c0.687-0.105,1.373-0.209,2.07-0.314
	c-0.074-0.023-0.158-0.023-0.213-0.09c-0.518-0.143-1.033-0.277-1.553-0.412c-0.248-0.066-0.497-0.135-0.747-0.191
	c-0.093-0.02-0.125-0.064-0.127-0.152c-0.015-0.297-0.031-0.592-0.054-0.887c-0.003-0.064,0.021-0.107,0.075-0.146
	c0.369-0.133,0.722-0.289,1.082-0.439c0.568-0.225,1.133-0.461,1.701-0.688c0.038-0.018,0.081-0.021,0.121-0.035
	c0.034,0.021,0.047,0.063,0.054,0.102c0.032,0.211,0.063,0.428,0.081,0.639C17.115,53.766,17.102,53.805,17.095,53.84z"/>
<path fill="#F04B4A" d="M17.19,50.633c-0.152-0.016-0.304-0.029-0.456-0.045c-0.097,0.037-0.187-0.041-0.279-0.031
	c-0.352-0.041-0.704-0.086-1.056-0.129c-0.402-0.049-0.804-0.092-1.208-0.137c-0.05-0.01-0.098-0.012-0.092-0.078
	c0.029-0.27-0.001-0.531,0.046-0.793c0.051,0,0.104,0.004,0.152,0.004c0.163-0.041,0.317,0.018,0.477,0.021
	c0.103,0.008,0.205,0.016,0.301,0.035c0.102,0.02,0.173-0.01,0.217-0.105c0.021-0.172,0.047-0.342,0.066-0.516
	c0.008-0.063-0.039-0.068-0.088-0.074c-0.293-0.033-0.588-0.072-0.879-0.1c-0.087-0.012-0.116-0.039-0.111-0.127
	c0.014-0.223,0.023-0.438,0.026-0.654c0.001-0.133,0.097-0.07,0.153-0.084c0.092-0.045,0.186-0.012,0.273-0.002
	c0.659,0.074,1.321,0.152,1.983,0.225c0.008,0.004,0.018,0,0.023-0.008c-0.062-0.055-0.158-0.066-0.196-0.154
	c-0.426-0.258-0.857-0.516-1.288-0.775c-0.195-0.119-0.391-0.232-0.588-0.352c-0.076-0.043-0.093-0.086-0.075-0.172
	c0.065-0.27,0.127-0.539,0.179-0.814c0.021-0.105,0.063-0.174,0.179-0.184c0.156-0.076,0.33-0.063,0.497-0.08
	c0.786-0.088,1.578-0.174,2.365-0.256c0.206-0.023,0.234,0.006,0.207,0.209c-0.021,0.166-0.049,0.334-0.076,0.502
	c-0.009,0.043-0.015,0.092-0.05,0.129c-0.011,0.1-0.07,0.125-0.165,0.123c-0.098-0.002-0.197-0.006-0.29,0.021
	c-0.102,0.043-0.136,0.123-0.156,0.225c-0.041,0.193-0.078,0.391-0.126,0.584c-0.026,0.1,0.003,0.164,0.095,0.207
	c0.096,0.045,0.187,0.09,0.276,0.15c0.07,0.043,0.091,0.104,0.066,0.178c-0.01,0.033-0.019,0.063-0.031,0.098
	c-0.092,0.266-0.145,0.539-0.127,0.824c0.009,0.133-0.012,0.262-0.05,0.389c0.005,0.125-0.059,0.141-0.168,0.121
	c-0.307-0.037-0.611-0.064-0.917-0.098c-0.108,0.014-0.159,0.08-0.166,0.188c-0.008,0.111-0.021,0.23-0.036,0.338
	c-0.015,0.146-0.004,0.16,0.143,0.184c0.256,0.031,0.511,0.063,0.768,0.088c0.214,0.02,0.244,0.047,0.243,0.264
	c0.001,0.105,0.002,0.215-0.001,0.316c-0.004,0.063-0.001,0.127-0.046,0.178C17.201,50.523,17.197,50.576,17.19,50.633z"/>
<path fill="#F04B4A" d="M17.72,60.754c-0.19,0.203-0.421,0.352-0.665,0.477c-0.248,0.086-0.501,0.154-0.768,0.152
	c-0.772,0-1.387-0.414-1.664-1.139c-0.069-0.18-0.118-0.354-0.133-0.553c-0.009-0.082,0.018-0.125,0.086-0.154
	c0.172-0.135,0.381-0.189,0.574-0.279c0.041-0.018,0.083-0.021,0.107,0.027c0.041,0.107,0.035,0.232,0.064,0.35
	c0.092,0.361,0.27,0.662,0.646,0.781c0.248,0.076,0.501,0.057,0.737-0.066c0.142-0.064,0.248-0.18,0.361-0.283
	c0.193-0.27,0.206-0.582,0.129-0.896c-0.039-0.146-0.111-0.279-0.175-0.42c0.075-0.018,0.149-0.023,0.228-0.037
	c0.17-0.082,0.36-0.066,0.544-0.088c0.065-0.008,0.104,0.051,0.128,0.104c0.264,0.6,0.316,1.195-0.019,1.779
	C17.854,60.604,17.775,60.672,17.72,60.754z"/>
<path fill="#F04B4A" d="M16.99,52.594c-0.415,0.5-0.95,0.701-1.592,0.654c-0.024-0.002-0.051,0-0.076,0
	c-0.255-0.049-0.503-0.109-0.729-0.248c-0.535-0.322-0.789-0.813-0.834-1.428c-0.009-0.127,0.003-0.252,0.005-0.377
	c0.002-0.135,0.05-0.229,0.2-0.234c0.128-0.078,0.276-0.07,0.416-0.092c0.271-0.041,0.269-0.039,0.237,0.229
	c-0.023,0.207-0.015,0.408,0.048,0.605c0.161,0.504,0.626,0.693,1.102,0.598c0.116-0.021,0.229-0.064,0.335-0.115
	c0.268-0.178,0.389-0.438,0.424-0.742c0.02-0.189,0.002-0.391-0.052-0.574c0.06-0.059,0.124,0.014,0.184-0.008
	c0.211-0.025,0.412,0.021,0.613,0.07c0.053,0.014,0.072,0.07,0.079,0.125c0.068,0.471,0.045,0.93-0.195,1.354
	C17.111,52.475,17.053,52.535,16.99,52.594z"/>
<path fill="#F4F4F4" d="M16.282,51.295c-0.002,0.564-0.392,0.9-0.883,0.787c-0.219-0.053-0.372-0.188-0.451-0.393
	c-0.123-0.328-0.064-0.643,0.076-0.947c0.021-0.047,0.057-0.041,0.094-0.039c0.332,0.039,0.664,0.074,0.998,0.113
	c0.053,0.004,0.069,0.037,0.088,0.076C16.262,51.025,16.286,51.17,16.282,51.295z"/>
<path fill="#F4F4F4" d="M15.567,59.473c0.004-0.104-0.006-0.229,0.016-0.34c0.008-0.057,0.021-0.08,0.083-0.094
	c0.338-0.045,0.676-0.098,1.014-0.15c0.075-0.01,0.116,0.008,0.154,0.076c0.093,0.17,0.16,0.354,0.161,0.551
	c0.001,0.408-0.283,0.703-0.694,0.721c-0.032,0-0.065,0-0.101,0c-0.156,0.039-0.268-0.049-0.369-0.145
	c-0.17-0.15-0.244-0.355-0.281-0.576C15.548,59.5,15.555,59.484,15.567,59.473z"/>
<path fill="#030303" d="M16.103,52.182c-0.526,0.426-1.365,0.105-1.508-0.582c-0.04-0.207-0.046-0.418,0.007-0.627
	c0.028-0.102-0.009-0.104-0.087-0.096c-0.184,0.031-0.369,0.055-0.551,0.082c0.036-0.102,0.133-0.105,0.209-0.119
	c0.152-0.025,0.3-0.076,0.46-0.064c0.098,0.01,0.131,0.039,0.123,0.141c-0.021,0.287-0.021,0.568,0.131,0.838
	c0.225,0.383,0.565,0.514,0.955,0.475C15.929,52.217,16.018,52.195,16.103,52.182z"/>
<path fill="#030303" d="M15.567,59.473c0.021,0.078,0.039,0.164,0.064,0.242c0.094,0.275,0.266,0.471,0.566,0.521
	c0.208,0.125,0.408,0.061,0.604-0.021c0.093-0.041,0.178-0.104,0.266-0.146c-0.073,0.146-0.185,0.24-0.332,0.307
	c-0.586,0.225-1.054-0.125-1.249-0.58c-0.057-0.129-0.095-0.271-0.111-0.398c-0.006-0.064-0.02-0.146-0.125-0.102
	c-0.043-0.027-0.08,0-0.115,0.02c-0.189,0.082-0.373,0.154-0.56,0.234c0.073-0.141,0.187-0.219,0.333-0.27
	c0.105-0.031,0.205-0.098,0.306-0.143c0.136-0.063,0.186-0.045,0.265,0.09C15.532,59.297,15.53,59.389,15.567,59.473z"/>
<path fill="#030303" d="M16.477,55.945c0.113,0.025,0.228,0.057,0.342,0.082c-0.001,0.01-0.001,0.02,0,0.027
	c-0.174,0.021-0.35,0.053-0.521,0.078c-0.668,0.098-1.336,0.197-2.008,0.301c-0.023,0.006-0.051-0.002-0.076,0.002
	c0.101-0.188,0.29-0.176,0.453-0.195c0.545-0.076,1.092-0.145,1.633-0.246C16.36,55.986,16.442,56.041,16.477,55.945z"/>
<path fill="#030303" d="M15.44,57.746c0.036,0.1,0.019,0.148-0.103,0.168c-0.294,0.033-0.583,0.08-0.877,0.119
	c0.165-0.229,0.432-0.154,0.65-0.219C15.218,57.789,15.341,57.816,15.44,57.746z"/>
<path fill="#030303" d="M16.455,50.559c0.096-0.004,0.189,0.01,0.28,0.033c0.019,0.01,0.033,0.02,0.055,0.035
	c-0.093,0.027-0.195,0.047-0.204,0.174c-0.001,0.006-0.036,0.008-0.056,0.012c0.002-0.02-0.006-0.049,0.004-0.063
	C16.616,50.641,16.598,50.574,16.455,50.559z"/>
<path fill="#030303" d="M17.898,46.094c0.033-0.229,0.059-0.463,0.1-0.691c0.021-0.107-0.015-0.127-0.116-0.111
	c-0.93,0.104-1.859,0.201-2.785,0.301c-0.047,0.006-0.092,0.002-0.139,0.006c0.072-0.174,0.24-0.133,0.373-0.146
	c0.328-0.033,0.656-0.072,0.986-0.115c0.184-0.021,0.366-0.041,0.552-0.051c0.376-0.027,0.748-0.096,1.125-0.129
	c0.117-0.01,0.173,0.025,0.165,0.145c-0.016,0.234-0.045,0.471-0.104,0.697C18.033,46.08,17.971,46.088,17.898,46.094z"/>
<path fill="#030303" d="M17.391,48.887c0.002-0.438-0.007-0.881,0.168-1.295c0.034-0.082,0.023-0.133-0.063-0.174
	c-0.104-0.045-0.198-0.115-0.301-0.156c-0.082-0.039-0.103-0.088-0.082-0.174c0.059-0.242,0.113-0.486,0.159-0.73
	c0.021-0.104,0.07-0.145,0.172-0.121c-0.046,0.225-0.087,0.441-0.146,0.66c-0.033,0.121,0.018,0.195,0.11,0.256
	c0.071,0.051,0.145,0.088,0.221,0.121c0.093,0.059,0.134,0.131,0.088,0.242c-0.085,0.205-0.151,0.416-0.133,0.646
	c0.017,0.189-0.018,0.377-0.028,0.57C17.552,48.84,17.49,48.887,17.391,48.887z"/>
<path fill="#030303" d="M17.209,50.467c0.006-0.188,0.003-0.371,0.018-0.559c0.012-0.121-0.041-0.146-0.147-0.158
	c-0.311-0.029-0.621-0.074-0.932-0.1c-0.09-0.01-0.105-0.045-0.094-0.123c0.02-0.154,0.039-0.314,0.055-0.467
	c0.016-0.18,0.014-0.18,0.199-0.148c-0.021,0.021-0.051,0.037-0.048,0.068c0.007,0.104-0.017,0.209-0.024,0.314
	c-0.013,0.15,0.049,0.229,0.207,0.244c0.264,0.025,0.526,0.053,0.791,0.084c0.094,0.014,0.174,0.068,0.158,0.162
	c-0.037,0.188,0.005,0.377-0.021,0.563C17.358,50.463,17.329,50.492,17.209,50.467z"/>
<path fill="#030303" d="M16.552,47.887c0.106,0.059,0.212,0.119,0.318,0.178c-0.002,0.018-0.007,0.027-0.008,0.041
	c-0.799-0.094-1.598-0.188-2.398-0.279c0.07-0.105,0.155-0.117,0.281-0.107c0.357,0.025,0.709,0.096,1.063,0.121
	C16.057,47.859,16.302,47.902,16.552,47.887z"/>
<path fill="#030303" d="M15.295,49.383c-0.001,0.164-0.002,0.172-0.155,0.15c-0.278-0.033-0.562-0.045-0.838-0.102
	c0.034-0.109,0.098-0.133,0.212-0.117C14.771,49.342,15.029,49.408,15.295,49.383z"/>
<path fill="#030303" d="M17.344,56.76c-0.139-0.441-0.214-0.9-0.171-1.379c0.012-0.127-0.021-0.188-0.158-0.207
	c-0.103-0.01-0.205-0.047-0.31-0.066c-0.066-0.016-0.093-0.041-0.096-0.109c-0.014-0.229-0.033-0.475-0.043-0.705
	c-0.006-0.213-0.049-0.188,0.175-0.242c-0.009,0.244-0.007,0.49,0.021,0.74c0.014,0.111,0.066,0.191,0.191,0.213
	c0.005,0.002,0.011,0.002,0.013,0c0.364,0.063,0.441,0.184,0.369,0.539c-0.032,0.148-0.011,0.301,0.018,0.439
	c0.031,0.188,0.065,0.357,0.118,0.529C17.506,56.654,17.464,56.725,17.344,56.76z"/>
<path fill="#030303" d="M17.72,60.754c0.118-0.195,0.248-0.389,0.31-0.615c0.143-0.5,0.051-0.969-0.154-1.426
	c-0.028-0.063-0.067-0.064-0.123-0.053c-0.169,0.018-0.336,0.035-0.504,0.053c0.069-0.176,0.239-0.104,0.363-0.143
	c0.038-0.023,0.085-0.002,0.127-0.01c0.237-0.055,0.303,0.002,0.384,0.229c0.103,0.285,0.163,0.572,0.137,0.875
	C18.22,60.1,18.063,60.473,17.72,60.754z"/>
<path fill="#030303" d="M17.585,58.365c-0.072-0.217-0.108-0.445-0.154-0.654c-0.018-0.082-0.042-0.113-0.135-0.094
	c-0.318,0.059-0.646,0.096-0.964,0.148c-0.075,0.014-0.118,0.004-0.126-0.094c-0.018-0.162-0.034-0.336-0.076-0.498
	c-0.034-0.141,0.027-0.16,0.138-0.164c0.019,0.004,0.036,0.004,0.052,0.004c-0.049,0.098,0.009,0.188,0.018,0.271
	c0.004,0.063,0.025,0.105,0.031,0.145c0.023,0.18,0.094,0.23,0.27,0.193c0.264-0.055,0.528-0.092,0.795-0.113
	c0.087-0.014,0.139,0.027,0.158,0.107c0.05,0.184,0.098,0.359,0.14,0.549C17.748,58.279,17.642,58.307,17.585,58.365z"/>
<path fill="#030303" d="M16.99,52.594c0.33-0.459,0.408-0.971,0.327-1.518c-0.014-0.084-0.035-0.131-0.135-0.143
	c-0.175-0.02-0.351-0.055-0.523-0.078c0.046-0.109,0.123-0.133,0.235-0.105c0.127,0.035,0.259,0.051,0.386,0.064
	c0.128,0.01,0.198,0.086,0.211,0.203c0.039,0.354,0.035,0.705-0.105,1.041C17.295,52.266,17.217,52.482,16.99,52.594z"/>
<path fill="#030303" d="M17.095,53.84c-0.039-0.279-0.079-0.566-0.12-0.844c0.004-0.043,0.026-0.074,0.074-0.068
	c0.051,0.01,0.077,0.043,0.096,0.088c0.054,0.121,0.023,0.252,0.054,0.377c0.019,0.074,0.027,0.152,0.032,0.232
	C17.234,53.734,17.198,53.807,17.095,53.84z"/>
<path fill="#030303" d="M15.946,54.799c0.002,0.033,0.006,0.064,0.009,0.102c0.005,0.064-0.018,0.086-0.079,0.074
	c-0.34-0.063-0.68-0.125-1.021-0.188c-0.037-0.008-0.061-0.025-0.061-0.068c-0.002-0.043,0.009-0.074,0.054-0.086
	c0.054-0.016,0.106-0.029,0.159-0.045c0.023-0.018,0.047-0.006,0.068,0.016c0.161,0.066,0.337,0.066,0.506,0.105
	c0.056,0.02,0.116,0.025,0.172,0.043C15.813,54.777,15.894,54.744,15.946,54.799z"/>
<path fill="#030303" d="M15.059,54.617c-0.012-0.021-0.033-0.02-0.055-0.02c0.272-0.104,0.558-0.184,0.833-0.271
	c0.059-0.021,0.087-0.01,0.089,0.063c0.002,0.146,0.034,0.271,0.018,0.42c-0.065-0.016-0.137,0.023-0.199-0.02
	c0.008-0.021,0.027-0.047,0.032-0.064c0.011-0.084,0.011-0.184-0.047-0.238c-0.05-0.059-0.12,0.01-0.179,0.021
	c-0.116,0.029-0.227,0.09-0.346,0.121C15.159,54.621,15.112,54.648,15.059,54.617z"/>
<path fill="#030303" d="M16.53,46.697c-0.02,0.24-0.02,0.24-0.234,0.133c-0.258-0.127-0.516-0.254-0.77-0.387
	c-0.043-0.021-0.102-0.029-0.088-0.104c0.013-0.076,0.074-0.072,0.127-0.074c0.057,0,0.115,0.006,0.176,0.006
	c0.033,0.029-0.032,0.049-0.007,0.076c0.202,0.07,0.384,0.188,0.572,0.275C16.389,46.633,16.469,46.631,16.53,46.697z"/>
<path fill="#030303" d="M15.69,46.359c-0.035-0.006-0.059-0.02-0.016-0.045c0.022-0.02,0.059-0.006,0.068-0.043
	c0.27-0.008,0.541-0.021,0.816-0.025c0.067-0.004,0.076,0.029,0.063,0.084c-0.028,0.121-0.061,0.242-0.091,0.363
	c-0.078-0.01-0.15-0.041-0.231-0.029c-0.001-0.061,0.017-0.117,0.025-0.174c0.021-0.115,0.001-0.135-0.112-0.143
	C16.042,46.336,15.864,46.385,15.69,46.359z"/>
<path fill="#030303" d="M15.253,59.283c0.016-0.021-0.017-0.074,0.038-0.076c0.05,0.008,0.085,0.035,0.103,0.084
	c0.033,0.104,0.033,0.223,0.071,0.332c0.126,0.373,0.338,0.662,0.741,0.758c0.174,0.039,0.356,0.039,0.533-0.012
	c-0.398,0.252-0.938,0.152-1.225-0.225C15.323,59.891,15.243,59.6,15.253,59.283z"/>
<path fill="#F1F0F1" d="M15.059,54.617c0.209-0.063,0.414-0.137,0.621-0.213c0.066-0.021,0.1-0.02,0.109,0.063
	c0.008,0.066,0.018,0.148,0.037,0.227c0.012,0.064-0.019,0.098-0.08,0.092c-0.194-0.033-0.391-0.068-0.586-0.107
	C15.123,54.658,15.075,54.676,15.059,54.617z"/>
<path fill="#EBECEB" d="M15.69,46.359c0.21-0.061,0.429-0.041,0.641-0.047c0.035,0,0.061,0.01,0.053,0.053
	c-0.021,0.102-0.008,0.211-0.081,0.301C16.102,46.553,15.901,46.443,15.69,46.359z"/>
<path fill="#030303" d="M17.306,53.527c0.156-0.014,0.314-0.029,0.471-0.041c0.045-0.002,0.091,0.012,0.136,0.018
	c0.01,0,0.021,0.02,0.028,0.004c0.042-0.012,0.082-0.021,0.125-0.053c-0.022-0.006-0.049-0.016-0.072-0.014
	c-0.059-0.004-0.114-0.004-0.169,0c-0.033,0-0.044-0.012-0.044-0.043c0.007-0.133,0.01-0.266,0.01-0.395
	c0-0.094,0.018-0.176,0.069-0.25c0.022-0.029,0.016-0.064,0-0.092c-0.054-0.129-0.071-0.268-0.059-0.396
	c0.014-0.146,0.055-0.275,0.14-0.389c0.079-0.105,0.191-0.172,0.327-0.195c0.038-0.01,0.078-0.016,0.119-0.021
	c-0.08-0.068-0.179-0.045-0.269-0.063c-0.054-0.014-0.106-0.021-0.162-0.027c-0.029-0.006-0.041-0.021-0.036-0.053
	c0.003-0.021,0.007-0.043,0.011-0.063c0.008-0.047-0.009-0.074-0.058-0.078c-0.077-0.008-0.155-0.004-0.23-0.014
	c-0.066-0.012-0.129-0.031-0.196-0.047c0.024-0.162,0.047-0.318,0.07-0.48c0.006-0.023,0.008-0.057,0.013-0.078
	c0.009-0.043,0.045-0.064,0.089-0.059c0.113,0.02,0.227,0.033,0.344,0.049c0.052,0.012,0.112,0.01,0.157,0.035
	c0.093,0.049,0.188,0.006,0.281,0.023c0.144,0.029,0.29,0.049,0.436,0.072c0.059,0.016,0.116,0.021,0.177,0.035
	c0.038,0.01,0.055-0.012,0.066-0.051c0.031-0.098-0.038-0.145-0.085-0.197c-0.006-0.012-0.043-0.004-0.057,0.006
	c-0.065,0.041-0.137,0.074-0.218,0.088c-0.145,0.027-0.354-0.055-0.44-0.182c-0.131-0.193-0.123-0.398-0.077-0.615
	c0.022-0.104,0.061-0.199,0.118-0.295c0.081-0.139,0.187-0.25,0.361-0.27c0.014-0.002,0.034-0.006,0.048,0
	c0.109,0.029,0.218,0.061,0.328,0.09c0.008,0.004,0.017,0.02,0.018,0.031c0.002,0.016-0.001,0.027-0.003,0.043
	c0,0.029,0.006,0.049,0.041,0.025c0.125-0.064,0.255-0.074,0.384-0.031c0.12,0.037,0.218,0.115,0.277,0.23
	c0.102,0.191,0.094,0.391,0.035,0.59c-0.042,0.152-0.121,0.289-0.235,0.408c-0.016,0.014-0.026,0.029-0.048,0.061
	c0.032,0.012,0.053,0.018,0.076,0.02c0.051,0.012,0.062,0.027,0.051,0.078c-0.022,0.094-0.037,0.182-0.055,0.271
	c-0.021,0.119-0.043,0.238-0.149,0.32c-0.036,0.023-0.074,0.047-0.109,0.082c0.039,0.004,0.077,0.012,0.117,0.01
	c0.066,0.01,0.073,0.02,0.058,0.092c-0.011,0.049-0.01,0.098-0.02,0.146c-0.011,0.084-0.018,0.172-0.037,0.26
	c-0.042,0.168-0.174,0.268-0.361,0.254c-0.189-0.02-0.383-0.043-0.574-0.063c-0.13-0.008-0.171,0.049-0.119,0.172
	c0.044,0.105,0.137,0.148,0.245,0.16c0.155,0.01,0.314,0.01,0.468,0.02c0.081,0.008,0.164,0.014,0.241,0.02
	c0.031,0.008,0.049,0.018,0.048,0.057c-0.007,0.344-0.014,0.686-0.024,1.029c-0.002,0.104-0.049,0.189-0.143,0.258
	c-0.003,0.004-0.01,0.008-0.012,0.014c-0.003,0-0.003,0.004-0.008,0.02c0.027,0.002,0.055,0.014,0.079,0.014
	c0.084-0.002,0.086,0,0.095,0.084c0.009,0.146,0.018,0.291,0.018,0.438c0.002,0.105-0.087,0.209-0.182,0.246
	c-0.121,0.041-0.249,0.041-0.372,0.063c-0.125,0.021-0.25,0.021-0.377,0.041c-0.068,0.008-0.087,0.053-0.048,0.104
	c0.06,0.088,0.147,0.117,0.245,0.107c0.224-0.021,0.444-0.063,0.665-0.082c0.038-0.014,0.089-0.021,0.114-0.016
	c0.024,0.021,0.017,0.068,0.023,0.105c0.019,0.145,0.041,0.277,0.06,0.43c0.008,0.063-0.004,0.064-0.063,0.068
	c-0.157,0.021-0.315,0.055-0.473,0.07c-0.119,0.025-0.24,0.043-0.361,0.063c-0.03,0.008-0.063,0.023-0.088,0.037
	c-0.012,0.006-0.016,0.043-0.009,0.059c0.023,0.063,0.074,0.098,0.132,0.109c0.079,0.021,0.159,0.01,0.238-0.004
	c0.076-0.02,0.146-0.033,0.224-0.051c0.128-0.021,0.255-0.053,0.386-0.074c0.072-0.018,0.071-0.01,0.084,0.063
	c0.012,0.066,0.033,0.145,0.048,0.221c0.019,0.086,0.032,0.178,0.047,0.268c0.005,0.02-0.003,0.045-0.034,0.053
	c-0.156,0.033-0.314,0.064-0.47,0.105c-0.132,0.033-0.266,0.063-0.398,0.102c-0.072,0.021-0.089,0.061-0.063,0.135
	c0.02,0.061,0.019,0.059-0.039,0.064c-0.15,0.037-0.298,0.076-0.444,0.115c-0.034,0.014-0.055,0.008-0.066-0.025
	c-0.017-0.053-0.028-0.104-0.04-0.146c-0.023-0.104-0.05-0.215-0.067-0.313c-0.006-0.041,0.005-0.09,0.014-0.127
	c0.014-0.061,0.012-0.104-0.023-0.146c-0.112-0.146-0.153-0.316-0.139-0.502c0.007-0.082,0.023-0.162,0.068-0.234
	c0.017-0.021,0.013-0.047-0.007-0.063c-0.092-0.104-0.148-0.229-0.171-0.354c-0.02-0.105-0.021-0.23,0.01-0.342
	c0.03-0.104,0.076-0.188,0.153-0.262c0.069-0.063,0.147-0.104,0.241-0.129c0.009-0.004,0.02-0.006,0.024-0.014
	c0.003-0.004,0.006-0.006,0.016-0.02c-0.033-0.008-0.06-0.018-0.087-0.016c-0.104,0.006-0.206,0.01-0.308,0.021
	c-0.071,0.008-0.085,0-0.088-0.066c-0.005-0.104-0.004-0.104-0.109-0.104c-0.125,0.008-0.252,0.008-0.38,0.01
	C17.304,53.93,17.306,53.729,17.306,53.527z M18.278,56.264c-0.028,0.039-0.062,0.074-0.069,0.113
	c-0.009,0.057-0.001,0.115,0.006,0.172c0.014,0.072,0.036,0.146,0.049,0.221c0.008,0.064,0.017,0.066,0.072,0.064
	c0.072-0.021,0.145-0.035,0.214-0.063c0.021-0.008,0.042-0.021,0.029-0.059c-0.007-0.025-0.011-0.061-0.019-0.088
	c-0.007-0.021,0.004-0.037,0.024-0.041c0.073-0.021,0.144-0.037,0.216-0.057c0.235-0.055,0.474-0.107,0.709-0.166
	c0.034-0.006,0.046-0.02,0.039-0.055c-0.016-0.063-0.03-0.121-0.042-0.188c-0.021-0.117-0.039-0.127-0.156-0.105
	c-0.084,0.021-0.166,0.035-0.25,0.061c-0.084,0.023-0.17,0.031-0.254,0.061c-0.13,0.023-0.242-0.012-0.348-0.082
	c-0.068-0.043-0.093-0.117-0.108-0.188c-0.011-0.064,0.009-0.107,0.056-0.143c0.078-0.059,0.164-0.061,0.25-0.068
	c0.089-0.02,0.181-0.025,0.269-0.039c0.123-0.02,0.247-0.047,0.37-0.064c0.047-0.006,0.063-0.016,0.055-0.066
	c-0.011-0.086-0.022-0.166-0.034-0.252c-0.005-0.027-0.023-0.055-0.058-0.047c-0.082,0.021-0.166,0.021-0.248,0.033
	c-0.09,0.021-0.178,0.021-0.266,0.039c-0.126,0.029-0.24,0.021-0.356-0.041c-0.094-0.057-0.167-0.146-0.157-0.271
	c0.004-0.049,0.018-0.086,0.063-0.104c0.053-0.023,0.108-0.039,0.165-0.051c0.203-0.021,0.412-0.043,0.617-0.063
	c0.101-0.012,0.169-0.086,0.165-0.188c-0.004-0.104-0.016-0.191-0.021-0.299c-0.006-0.035-0.027-0.049-0.062-0.045
	c-0.042,0.008-0.086,0.012-0.129,0.018c-0.122-0.002-0.122-0.002-0.122,0.117c0.003,0.027-0.006,0.049-0.041,0.051
	c-0.154,0.012-0.31,0.02-0.462,0.027c-0.069,0.012-0.139,0.02-0.202,0.041c-0.06,0.021-0.12,0.053-0.167,0.086
	c-0.092,0.076-0.132,0.178-0.141,0.303c-0.006,0.152,0.01,0.303,0.109,0.432c0.035,0.049,0.079,0.084,0.117,0.129
	c0.015,0.021,0.043,0.023,0.016,0.063c-0.063,0.061-0.096,0.123-0.114,0.203c-0.04,0.178,0.004,0.328,0.098,0.473
	C18.191,56.178,18.238,56.221,18.278,56.264z M18.622,53.148c0.213,0.006,0.391,0.018,0.568,0.023
	c0.038-0.002,0.064-0.021,0.066-0.064c0.002-0.088,0.003-0.176,0.004-0.266c-0.001-0.031-0.011-0.049-0.045-0.049
	c-0.193-0.006-0.389-0.021-0.58-0.033c-0.038-0.002-0.072,0-0.108-0.008c-0.158-0.047-0.266-0.15-0.28-0.324
	c-0.007-0.076-0.015-0.156,0.055-0.211c0.062-0.051,0.135-0.051,0.209-0.043c0.033,0.002,0.066,0.016,0.102,0.016
	c0.124,0.012,0.249,0.021,0.374,0.031c0.049,0.006,0.099,0.01,0.147,0.01c0.086,0,0.15-0.039,0.171-0.123
	c0.031-0.107,0.043-0.229,0.06-0.342c0.001-0.016-0.022-0.041-0.037-0.045c-0.063-0.014-0.129-0.021-0.194-0.037
	c-0.072-0.01-0.083,0-0.094,0.072c-0.012,0.088-0.012,0.088-0.096,0.074c-0.008,0-0.019-0.002-0.022-0.002
	c-0.072-0.01-0.148-0.018-0.224-0.025c-0.121-0.006-0.236-0.016-0.356-0.02c-0.066-0.012-0.127,0.02-0.188,0.049
	c-0.14,0.068-0.199,0.195-0.225,0.336c-0.031,0.186-0.026,0.371,0.093,0.535c0.013,0.018,0.019,0.031-0.004,0.047
	c-0.094,0.053-0.11,0.146-0.121,0.24c-0.009,0.074-0.004,0.148-0.004,0.23c-0.001,0.053,0.01,0.063,0.063,0.063
	c0.071,0.004,0.142,0.006,0.209,0c0.048-0.004,0.059-0.014,0.056-0.061c-0.002-0.021,0.002-0.037,0-0.063
	c-0.011-0.053,0.017-0.057,0.06-0.055C18.404,53.148,18.53,53.146,18.622,53.148z M19.713,50.135c0.013-0.16-0.072-0.342-0.19-0.412
	c-0.118-0.068-0.306-0.074-0.419,0.021c-0.093,0.082-0.164,0.182-0.234,0.279c-0.046,0.063-0.094,0.127-0.138,0.189
	c-0.023,0.027-0.06,0.041-0.085,0.021c-0.021-0.014-0.039-0.043-0.04-0.064c-0.008-0.074,0.009-0.148,0.048-0.215
	c0.025-0.037,0.055-0.047,0.095-0.031c0.051,0.018,0.076,0.004,0.09-0.049c0.012-0.043,0.021-0.084,0.031-0.123
	c0.012-0.043,0.024-0.084,0.035-0.125c0.006-0.027,0-0.049-0.036-0.055c-0.027-0.002-0.055-0.014-0.078-0.021
	c-0.116-0.041-0.217-0.016-0.299,0.078c-0.081,0.092-0.133,0.199-0.167,0.313c-0.031,0.109-0.051,0.225-0.038,0.338
	c0.019,0.164,0.084,0.289,0.252,0.35c0.123,0.041,0.229,0.006,0.327-0.063c0.104-0.076,0.167-0.188,0.247-0.293
	c0.053-0.064,0.109-0.139,0.167-0.201c0.023-0.025,0.083-0.063,0.103-0.029c0.021,0.027,0.015,0.102,0.01,0.137
	c-0.015,0.066-0.04,0.139-0.076,0.197c-0.043,0.07-0.113,0.123-0.189,0.168c-0.039,0.023-0.043,0.045-0.016,0.078
	c0.037,0.055,0.077,0.098,0.115,0.145c0.041,0.064,0.063,0.064,0.125,0.023c0.095-0.064,0.167-0.145,0.227-0.242
	C19.661,50.424,19.703,50.285,19.713,50.135z M18.355,50.938c-0.125-0.006-0.187,0-0.229,0.123
	c-0.034,0.088-0.045,0.189-0.065,0.279c-0.006,0.029-0.009,0.063-0.008,0.096c0.002,0.021,0.021,0.039,0.035,0.041
	c0.069,0.018,0.141,0.021,0.211,0.039c0.058,0.006,0.065-0.006,0.07-0.064c0.008-0.107,0.008-0.107,0.115-0.098
	c0.011,0,0.019,0,0.025,0.002c0.119,0.021,0.236,0.043,0.358,0.064c0.108,0.012,0.218,0.033,0.325,0.045
	c0.15,0.021,0.226-0.045,0.246-0.174c0.013-0.084,0.032-0.166,0.05-0.25c0.008-0.033,0-0.049-0.038-0.059
	c-0.067-0.016-0.136-0.027-0.204-0.043c-0.041-0.01-0.063-0.006-0.073,0.035c-0.003,0.021-0.01,0.041-0.01,0.063
	c0.001,0.035-0.018,0.055-0.053,0.047c-0.063-0.014-0.122-0.023-0.185-0.037c-0.104-0.018-0.208-0.039-0.312-0.055
	C18.519,50.963,18.417,50.947,18.355,50.938z M18.474,53.584c0.002,0.008,0,0.021,0,0.021c-0.131,0-0.26-0.002-0.39-0.002
	c-0.1,0-0.167,0.043-0.174,0.145c-0.012,0.127-0.002,0.262,0.001,0.395c-0.002,0.023,0.022,0.031,0.051,0.029
	c0.075-0.008,0.15-0.018,0.226-0.021c0.026-0.004,0.041-0.021,0.038-0.047c-0.003-0.021-0.004-0.061-0.004-0.084
	c-0.004-0.027,0.01-0.041,0.04-0.045c0.263-0.008,0.523-0.02,0.782-0.021c0.147-0.012,0.195-0.072,0.205-0.211
	c0.007-0.088,0-0.176-0.003-0.262c-0.001-0.039-0.015-0.063-0.051-0.061c-0.055-0.008-0.108-0.008-0.165-0.002
	c-0.101-0.004-0.104,0.002-0.103,0.104c-0.001,0.004,0,0.012,0.001,0.021c0,0.02-0.016,0.041-0.043,0.041
	C18.746,53.586,18.607,53.586,18.474,53.584z M17.593,51.172c-0.004,0.043,0.006,0.057,0.063,0.063
	c0.078,0.014,0.151,0.021,0.228,0.035c0.05,0.008,0.065,0,0.077-0.049c0.016-0.09,0.03-0.178,0.047-0.266
	c0.005-0.033-0.008-0.059-0.043-0.064c-0.078-0.014-0.155-0.021-0.232-0.043c-0.058-0.012-0.081-0.002-0.091,0.055
	C17.622,50.986,17.609,51.074,17.593,51.172z M17.588,53.631l0.002,0.002c-0.044,0.002-0.094,0-0.14-0.004
	c-0.027,0.004-0.045,0.018-0.044,0.047c0.001,0.1,0.002,0.195,0.003,0.295c0,0.027,0.014,0.047,0.044,0.045
	c0.09,0,0.178-0.004,0.269-0.008c0.038-0.004,0.057-0.025,0.058-0.066c-0.002-0.02-0.01-0.053-0.012-0.072
	c-0.004-0.064-0.004-0.123-0.004-0.189c-0.003-0.029-0.018-0.053-0.055-0.051C17.669,53.635,17.628,53.633,17.588,53.631z
	 M18.884,51.707c0.038,0.008,0.051-0.006,0.052-0.043c0.004-0.021,0.008-0.049,0.011-0.072c0.008-0.035-0.008-0.053-0.046-0.057
	c-0.107-0.016-0.213-0.035-0.321-0.055c-0.067-0.008-0.084,0.002-0.087,0.07c-0.002,0.023-0.007,0.053-0.003,0.08
	c0.001,0.014,0.021,0.035,0.034,0.037C18.643,51.684,18.763,51.695,18.884,51.707z M18.676,54.08c0.001-0.002,0-0.004,0-0.004
	c-0.085,0.004-0.169,0.01-0.254,0.02c-0.052,0.008-0.062,0.021-0.055,0.064c0.002,0.021,0.006,0.057,0.006,0.072
	c0,0.023,0.018,0.043,0.047,0.041c0.119-0.02,0.242-0.021,0.361-0.031c0.03-0.004,0.044-0.021,0.041-0.043
	c-0.005-0.045,0.023-0.096-0.027-0.125c-0.007-0.006-0.02-0.004-0.033-0.006C18.735,54.078,18.708,54.078,18.676,54.08z
	 M18.58,53.275L18.58,53.275c-0.034-0.004-0.067-0.008-0.103-0.006c-0.147,0-0.124-0.014-0.127,0.129
	c0.001,0.039,0.016,0.057,0.05,0.055c0.094-0.002,0.188-0.002,0.278-0.004c0.137,0.002,0.118,0.008,0.127-0.119
	c0.001-0.049-0.006-0.061-0.052-0.059C18.697,53.273,18.637,53.273,18.58,53.275z"/>
<path fill="#F4F4F4" d="M18.278,56.264c-0.04-0.043-0.086-0.086-0.123-0.137c-0.09-0.141-0.134-0.297-0.097-0.471
	c0.02-0.08,0.052-0.15,0.112-0.205c0.028-0.023,0-0.041-0.016-0.055c-0.038-0.045-0.081-0.086-0.117-0.133
	c-0.097-0.125-0.113-0.271-0.107-0.428c0.008-0.127,0.051-0.23,0.142-0.311c0.048-0.035,0.106-0.063,0.167-0.09
	c0.063-0.02,0.135-0.02,0.2-0.035c0.155-0.018,0.31-0.02,0.465-0.021c0.034-0.012,0.043-0.021,0.043-0.061
	c0-0.105,0-0.105,0.122-0.119c0.041-0.004,0.084-0.01,0.126-0.014c0.035-0.004,0.057,0.014,0.061,0.041
	c0.008,0.105,0.02,0.193,0.021,0.303c0.003,0.105-0.065,0.188-0.163,0.189c-0.205,0.021-0.415,0.039-0.618,0.057
	c-0.057,0.018-0.112,0.025-0.166,0.057c-0.043,0.018-0.055,0.063-0.061,0.105c-0.013,0.121,0.062,0.223,0.154,0.271
	c0.116,0.063,0.231,0.066,0.358,0.043c0.086-0.021,0.175-0.025,0.265-0.043c0.081-0.018,0.165-0.021,0.246-0.029
	c0.037-0.006,0.055,0.008,0.06,0.047c0.014,0.08,0.023,0.162,0.034,0.25c0.007,0.061-0.005,0.063-0.055,0.066
	c-0.123,0.02-0.246,0.047-0.369,0.061c-0.089,0.021-0.181,0.021-0.271,0.041c-0.083,0.021-0.171,0.021-0.246,0.063
	c-0.049,0.029-0.07,0.08-0.059,0.146c0.018,0.068,0.044,0.146,0.111,0.189c0.104,0.076,0.219,0.111,0.348,0.08
	c0.083-0.021,0.171-0.037,0.253-0.051c0.084-0.021,0.168-0.033,0.25-0.059c0.119-0.025,0.137-0.02,0.158,0.104
	c0.011,0.063,0.023,0.117,0.04,0.188c0.009,0.029-0.006,0.053-0.039,0.061c-0.234,0.057-0.472,0.107-0.709,0.164
	c-0.071,0.021-0.143,0.037-0.214,0.057c-0.021,0.01-0.033,0.023-0.024,0.043c0.008,0.023,0.011,0.063,0.018,0.092
	c0.009,0.025-0.003,0.053-0.028,0.059c-0.07,0.023-0.144,0.039-0.216,0.059c-0.053,0.014-0.062-0.012-0.07-0.061
	c-0.014-0.064-0.034-0.145-0.047-0.227c-0.011-0.057-0.019-0.109-0.009-0.172C18.217,56.338,18.25,56.303,18.278,56.264z"/>
<path fill="#F4F4F4" d="M18.622,53.148c-0.092-0.002-0.218,0-0.348-0.002c-0.04-0.002-0.066,0.002-0.057,0.055
	c0.003,0.02-0.003,0.039-0.002,0.061c0.004,0.053-0.006,0.064-0.054,0.066c-0.071-0.004-0.141-0.004-0.211,0
	c-0.051-0.002-0.064-0.016-0.063-0.063c0.002-0.078-0.002-0.15,0.006-0.232c0.01-0.092,0.027-0.188,0.122-0.238
	c0.021-0.016,0.018-0.031,0.003-0.049c-0.118-0.164-0.124-0.35-0.093-0.533c0.026-0.145,0.085-0.268,0.225-0.338
	c0.059-0.027,0.121-0.059,0.188-0.049c0.12,0.008,0.236,0.016,0.357,0.023c0.072,0.006,0.146,0.012,0.224,0.021
	c0.006,0.002,0.014,0.002,0.021,0.004c0.082,0.01,0.082,0.01,0.097-0.074c0.011-0.066,0.022-0.078,0.093-0.07
	c0.065,0.014,0.131,0.021,0.194,0.037c0.016,0.004,0.039,0.029,0.036,0.043c-0.017,0.115-0.028,0.232-0.058,0.34
	c-0.021,0.084-0.085,0.121-0.17,0.125c-0.049-0.002-0.102-0.008-0.147-0.008c-0.125-0.01-0.249-0.02-0.374-0.031
	c-0.035-0.006-0.067-0.012-0.101-0.014c-0.075-0.012-0.148-0.01-0.21,0.039c-0.068,0.057-0.061,0.137-0.054,0.211
	c0.015,0.176,0.121,0.275,0.279,0.326c0.036,0.01,0.072,0.008,0.106,0.008c0.191,0.01,0.387,0.021,0.583,0.033
	c0.032,0.002,0.042,0.016,0.042,0.047c-0.003,0.086-0.002,0.178-0.006,0.271c-0.002,0.035-0.025,0.059-0.064,0.061
	C19.014,53.166,18.836,53.154,18.622,53.148z"/>
<path fill="#F4F4F4" d="M19.713,50.135c-0.01,0.15-0.051,0.289-0.129,0.418c-0.062,0.098-0.138,0.176-0.229,0.242
	c-0.063,0.041-0.084,0.031-0.129-0.025c-0.034-0.049-0.073-0.098-0.113-0.145c-0.026-0.031-0.021-0.059,0.016-0.078
	c0.077-0.045,0.148-0.098,0.191-0.174c0.035-0.059,0.063-0.125,0.072-0.195c0.025-0.17-0.091-0.133-0.115-0.107
	c-0.056,0.066-0.114,0.137-0.164,0.205c-0.076,0.105-0.146,0.211-0.247,0.293c-0.099,0.074-0.205,0.107-0.327,0.063
	c-0.167-0.055-0.233-0.186-0.253-0.348c-0.011-0.115,0.007-0.229,0.039-0.342c0.033-0.107,0.085-0.221,0.168-0.307
	c0.08-0.094,0.184-0.121,0.297-0.078c0.026,0.012,0.053,0.02,0.079,0.021c0.035,0.006,0.044,0.021,0.036,0.055
	c-0.01,0.041-0.021,0.082-0.033,0.125c-0.011,0.039-0.021,0.082-0.031,0.125c-0.015,0.053-0.04,0.066-0.092,0.045
	c-0.04-0.016-0.069-0.004-0.096,0.033c-0.039,0.064-0.056,0.143-0.048,0.215c0.003,0.021,0.019,0.057,0.039,0.066
	c0.028,0.02,0.063,0.01,0.084-0.023c0.048-0.064,0.095-0.123,0.141-0.189c0.072-0.104,0.143-0.199,0.237-0.275
	c0.107-0.096,0.3-0.096,0.413-0.027C19.643,49.793,19.726,49.977,19.713,50.135z"/>
<path fill="#F4F4F4" d="M18.355,50.938c0.063,0.008,0.164,0.027,0.265,0.043c0.104,0.018,0.208,0.037,0.311,0.059
	c0.063,0.014,0.123,0.021,0.186,0.037c0.034,0.01,0.052-0.016,0.053-0.051c0-0.02,0.004-0.043,0.009-0.061
	c0.013-0.041,0.031-0.047,0.074-0.037c0.065,0.018,0.134,0.033,0.206,0.043c0.035,0.01,0.043,0.025,0.036,0.064
	c-0.021,0.082-0.036,0.158-0.049,0.244c-0.021,0.133-0.095,0.199-0.247,0.176c-0.108-0.02-0.217-0.029-0.326-0.045
	c-0.12-0.021-0.237-0.035-0.357-0.063c-0.01-0.002-0.017-0.006-0.027-0.004c-0.107-0.012-0.107-0.012-0.114,0.096
	c-0.004,0.063-0.015,0.066-0.074,0.063c-0.065-0.012-0.141-0.021-0.21-0.035c-0.014-0.004-0.031-0.025-0.032-0.043
	c-0.004-0.029,0.001-0.063,0.006-0.094c0.021-0.096,0.032-0.189,0.067-0.281C18.17,50.934,18.228,50.93,18.355,50.938z"/>
<path fill="#F4F4F4" d="M18.474,53.584c0.136,0.002,0.271,0,0.408,0.002c0.029,0,0.041-0.012,0.042-0.041
	c0.001-0.008,0-0.01,0.002-0.018c-0.006-0.104,0-0.105,0.103-0.105c0.053-0.002,0.107,0.002,0.164,0
	c0.037,0.002,0.051,0.02,0.052,0.063c0,0.094,0.009,0.184,0.002,0.271c-0.009,0.139-0.06,0.195-0.204,0.203
	c-0.262,0.021-0.52,0.021-0.783,0.025c-0.031,0-0.041,0.018-0.041,0.041c0.002,0.021,0.002,0.063,0.004,0.09
	c0.002,0.02-0.008,0.043-0.036,0.043c-0.077,0.012-0.149,0.021-0.228,0.021c-0.026,0.002-0.049-0.008-0.051-0.031
	c-0.002-0.139-0.014-0.271,0-0.396c0.009-0.104,0.075-0.146,0.176-0.146c0.129,0,0.258,0,0.388,0.004
	C18.474,53.6,18.476,53.592,18.474,53.584z"/>
<path fill="#F4F4F4" d="M17.593,51.172c0.016-0.098,0.029-0.188,0.045-0.271c0.012-0.059,0.037-0.064,0.092-0.053
	c0.077,0.012,0.154,0.031,0.231,0.041c0.036,0.01,0.048,0.027,0.042,0.063c-0.015,0.092-0.03,0.182-0.046,0.27
	c-0.011,0.051-0.026,0.057-0.078,0.049c-0.073-0.016-0.147-0.023-0.226-0.035C17.598,51.229,17.591,51.217,17.593,51.172z"/>
<path fill="#F4F4F4" d="M17.588,53.631c0.042,0.002,0.083,0.006,0.125,0c0.036-0.002,0.049,0.018,0.051,0.051
	c0.002,0.064,0.003,0.125,0.004,0.189c0.002,0.023,0.011,0.057,0.013,0.072c0.003,0.043-0.018,0.066-0.058,0.07
	c-0.089,0.002-0.179,0.004-0.266,0.008c-0.032,0.002-0.045-0.018-0.045-0.045c-0.002-0.1-0.002-0.197-0.003-0.295
	c0-0.031,0.017-0.041,0.043-0.045c0.047,0.002,0.094,0.002,0.141,0.004C17.59,53.635,17.588,53.631,17.588,53.631z"/>
<g>
	<path fill="#F4F4F4" d="M8.85,51.885h0.413c0,0,0.257,0.479,1,0.441c0.509,0.531,0,1.611,0,1.611L9.8,54.492l-1.998-0.883
		L8.85,51.885z"/>
	<g>
		<path fill="#F4F4F4" stroke="#020202" stroke-width="0.15" stroke-linecap="round" stroke-miterlimit="10" d="M9.154,51.566
			c0.018,0.086,0.468,0.713,1.375,0.594c0.253-0.033,0.484,0.143,0.518,0.395c0.034,0.252-0.143,0.484-0.396,0.52
			c-0.149,0.021-0.29,0.104-0.419,0.104"/>
	</g>
	<g>
		<path fill="#F4F4F4" stroke="#020202" stroke-width="0.15" stroke-linecap="round" stroke-miterlimit="10" d="M10.111,53.854
			c0.254-0.004,0.465,0.199,0.47,0.453c0.004,0.254-0.198,0.465-0.453,0.469c-0.024,0.002-0.048,0.002-0.072,0.002
			c-1.562,0-2.23-1.127-2.253-1.168"/>
		<path fill="#F4F4F4" stroke="#020202" stroke-width="0.15" stroke-miterlimit="10" d="M8.712,53.328"/>
		<g>
			<path fill="#F4F4F4" stroke="#020202" stroke-width="0.15" stroke-miterlimit="10" d="M8.066,51.416l-0.793,1.393
				c-0.133,0.234-0.051,0.535,0.184,0.67l0.17,0.1c0.235,0.135,0.537,0.053,0.671-0.188L9.091,52
				c0.134-0.234,0.051-0.537-0.184-0.672l-0.17-0.098C8.502,51.1,8.199,51.182,8.066,51.416z"/>
		</g>
	</g>
	<g>
		<path fill="#F4F4F4" stroke="#020202" stroke-width="0.15" stroke-linecap="round" stroke-miterlimit="10" d="M9.466,52.828
			c0.307,0.205,0.755,0.393,1.326,0.316c0.253-0.033,0.484,0.145,0.518,0.396c0.034,0.252-0.144,0.48-0.396,0.518
			c-0.133,0.02-0.262,0.025-0.386,0.025c-0.63,0-1.138-0.211-1.515-0.455"/>
	</g>
</g>
<g>
	<path fill="#FCEE23" stroke="#010101" stroke-width="0.15" stroke-miterlimit="10" d="M76.787,35.423l1.936-1.232l-2.279-1.207
		l1.438-2.651l-1.043-0.003c0.354-0.532,0.721-1.276,0.723-2.078c0.002-0.637-0.23-1.212-0.697-1.705
		c-0.58-0.619-1.291-0.933-2.104-0.935c-0.18-0.002-0.352,0.021-0.521,0.041l0,0c-1.52-1.293-3.248-0.074-3.248-0.074l0.08,0.054
		c-0.143-0.016-0.289-0.031-0.432-0.033c-0.805,0.001-1.512,0.313-2.107,0.927c-0.465,0.5-0.715,1.077-0.695,1.736
		c-0.008,0.79,0.357,1.527,0.699,2.056l-1.475-0.005l1.428,2.658l-2.291,1.193l1.932,1.248l-1.438,2.284l2.451-0.04L69.021,40.4
		l2.189-1.404l1.227,2.418l1.236-2.416l2.189,1.417l-0.111-2.74l2.455,0.049L76.787,35.423z M75.969,28.194
		c-0.018-0.342-0.1-0.664-0.264-0.965c-0.014-0.025-0.031-0.063-0.053-0.091c-0.08-0.142-0.184-0.275-0.307-0.41
		c0.104,0.027,0.188,0.058,0.283,0.1c0.635,0.276,0.965,0.823,0.92,1.534c0.004,0.078-0.014,0.161-0.025,0.246
		c-0.018,0.086-0.033,0.17-0.057,0.258c-0.047,0.167-0.111,0.344-0.189,0.519c-0.045,0.09-0.092,0.172-0.135,0.264
		c-0.127,0.217-0.283,0.427-0.463,0.625l-0.025,0.033l-0.014,0.031l-0.398-0.003c0.031-0.04,0.047-0.064,0.074-0.101
		c0.084-0.133,0.166-0.269,0.23-0.408c0.066-0.129,0.125-0.26,0.174-0.381c0.012-0.024,0.023-0.055,0.031-0.078
		c0.016-0.058,0.041-0.117,0.055-0.167c0.014-0.031,0.02-0.058,0.027-0.086c0.014-0.063,0.029-0.11,0.051-0.176
		c0-0.029,0.016-0.063,0.016-0.089c0.016-0.084,0.033-0.178,0.043-0.271C75.973,28.442,75.979,28.313,75.969,28.194z M70.369,28.28
		l-0.002-0.012c0,0,0.002-0.039-0.004-0.049c0-0.014,0-0.026,0-0.038l0.014-0.031c-0.008-0.004-0.008-0.015,0-0.026
		c0-0.015,0.002-0.038,0.012-0.063c0-0.014,0-0.032,0.004-0.044c0.008-0.022,0.016-0.05,0.016-0.068l0.014-0.047
		c0.008-0.007,0.014-0.022,0.014-0.04c0-0.007,0.008-0.047,0.008-0.047c0.006-0.015,0.006-0.024,0.02-0.044
		c0-0.005,0-0.016,0.016-0.02l-0.004-0.005c0.004-0.014,0.014-0.038,0.023-0.05c0.006-0.011,0.006-0.017,0.021-0.039
		c0-0.014,0.006-0.024,0.018-0.04c0.016-0.014,0.016-0.024,0.021-0.04c0.012-0.009,0.021-0.023,0.029-0.038
		c0.006-0.011,0.018-0.025,0.021-0.032c0.006-0.015,0.021-0.028,0.029-0.043c0.012-0.014,0.018-0.02,0.031-0.037
		c0.006-0.008,0.023-0.017,0.029-0.039c0.012-0.009,0.021-0.018,0.037-0.026c0.014-0.015,0.023-0.024,0.037-0.04v-0.003
		c0.006-0.012,0.02-0.019,0.029-0.023c0.006-0.013,0.021-0.023,0.051-0.033c0,0,0.023-0.025,0.039-0.029
		c0.012-0.006,0.027-0.02,0.053-0.035c0,0,0.027-0.019,0.037-0.021c0.014-0.009,0.043-0.024,0.064-0.034l0.027-0.024
		c0.037-0.014,0.07-0.03,0.107-0.049c0.111-0.047,0.236-0.067,0.363-0.068c0.104,0,0.221,0.006,0.35,0.042
		c0.08,0.018,0.162,0.038,0.238,0.067c0.027,0.13,0.045,0.256,0.059,0.38c0.012,0.123,0.021,0.249,0.021,0.352
		c0,0.426-0.105,1.64-0.176,2.474l-0.82-0.007c-0.008-0.021-0.016-0.039-0.021-0.063l-0.014-0.034l-0.027-0.032
		c-0.076-0.094-0.162-0.2-0.232-0.308c-0.021-0.021-0.037-0.042-0.053-0.063l-0.027-0.053c-0.021-0.017-0.035-0.044-0.043-0.063
		l-0.033-0.05c-0.01-0.019-0.025-0.051-0.039-0.069l-0.004-0.011c-0.061-0.093-0.104-0.188-0.148-0.286l-0.014-0.04
		c-0.012-0.017-0.018-0.035-0.029-0.051l-0.02-0.067c-0.008-0.019-0.016-0.043-0.021-0.069L70.463,29
		c0-0.018-0.01-0.043-0.016-0.061c0-0.022-0.006-0.037-0.014-0.051c-0.006-0.02-0.016-0.042-0.016-0.063
		c-0.01-0.014-0.012-0.029-0.012-0.049c-0.006-0.017-0.006-0.039-0.018-0.062c-0.002-0.015-0.004-0.034-0.018-0.049
		c0.004-0.014-0.002-0.037-0.002-0.063c-0.004-0.019-0.004-0.037-0.004-0.049c-0.008-0.019-0.002-0.035-0.008-0.055
		c0.002-0.015-0.004-0.036-0.01-0.061c0-0.015,0.006-0.029-0.002-0.043c0.002-0.017-0.004-0.035-0.004-0.06v-0.004
		c0.004-0.014,0-0.026,0.008-0.039C70.357,28.304,70.369,28.293,70.369,28.28z M69.725,30.282l-0.027-0.03
		c-0.648-0.746-0.975-1.648-0.826-2.368c0.098-0.494,0.404-0.872,0.898-1.074c0.1-0.041,0.191-0.068,0.287-0.096
		c-0.416,0.46-0.631,0.997-0.627,1.599c0.004,0.768,0.371,1.501,0.701,2l-0.396,0.001L69.725,30.282z M73.324,30.324
		c-0.063-0.836-0.154-2.044-0.152-2.474c-0.004-0.106,0-0.225,0.016-0.351s0.035-0.251,0.066-0.379
		c0.105-0.029,0.215-0.064,0.32-0.083c0.094-0.017,0.178-0.021,0.25-0.023c0.146,0.002,0.266,0.025,0.371,0.067
		c0.041,0.019,0.07,0.039,0.111,0.05l0.029,0.023c0.027,0.013,0.047,0.026,0.066,0.035c0.004,0.001,0.041,0.023,0.041,0.023
		c0.023,0.01,0.031,0.023,0.053,0.034c0.014,0.003,0.021,0.011,0.025,0.013l0.012,0.01c0.018,0.006,0.031,0.019,0.051,0.034
		c0.008,0.006,0.014,0.014,0.031,0.026c0.01,0.013,0.021,0.028,0.035,0.037c0.01,0.009,0.021,0.023,0.031,0.029
		c0.012,0.012,0.031,0.027,0.039,0.042c0.01,0.007,0.016,0.02,0.027,0.031c0.01,0.015,0.02,0.027,0.031,0.042
		c0.008,0.011,0.006,0.022,0.021,0.034c0.014,0.014,0.018,0.026,0.021,0.037c0.018,0.011,0.021,0.024,0.023,0.039
		c0.006,0.012,0.02,0.028,0.035,0.051c0,0.009,0.008,0.021,0.01,0.032c0.002,0.011,0.014,0.021,0.029,0.044
		c0,0,0.006,0.035,0.012,0.034c0.004,0.021,0.01,0.029,0.016,0.055c0,0,0.012,0.026,0.018,0.039c0.01,0.011,0.004,0.023,0.006,0.035
		l0.018,0.046c0.002,0.026,0.002,0.051,0.01,0.07c0.01,0.009,0.006,0.031,0.014,0.048c0,0.024,0.004,0.042,0.002,0.066
		c0,0.005,0.004,0.013,0.004,0.019l0.004,0.033c-0.004,0.016,0.002,0.028,0.002,0.037c0,0.014,0,0.024,0,0.037l0.004,0.025
		c-0.004,0.014-0.002,0.026-0.004,0.04c-0.004,0.008,0,0.025-0.008,0.037l0.004,0.026c0,0.008,0,0.019,0.002,0.039
		c-0.002,0.011-0.008,0.032-0.006,0.047c0,0.014-0.006,0.038-0.002,0.056c0,0.018-0.012,0.034-0.014,0.05
		c0.004,0.02,0.004,0.034,0,0.052c-0.008,0.023-0.008,0.042-0.014,0.059c0,0.021-0.01,0.033-0.01,0.051
		c-0.006,0.025-0.008,0.042-0.018,0.063c-0.004,0.01-0.006,0.033-0.01,0.055c-0.008,0.015-0.014,0.034-0.021,0.055
		c0.002,0.014,0,0.028-0.018,0.049c-0.006,0.021-0.01,0.044-0.021,0.064c0,0.012-0.012,0.062-0.012,0.062
		c-0.02,0.02-0.02,0.042-0.023,0.064l-0.031,0.058c0.002,0.019-0.014,0.031-0.02,0.053l-0.027,0.052
		c-0.008,0.019-0.012,0.041-0.021,0.059l-0.008,0.001c-0.033,0.069-0.072,0.137-0.125,0.198v0.02
		c-0.008,0.02-0.021,0.048-0.037,0.069l-0.031,0.057c-0.014,0.012-0.025,0.037-0.041,0.055l-0.029,0.057
		c-0.016,0.017-0.035,0.043-0.051,0.07c-0.074,0.106-0.154,0.203-0.248,0.298l-0.02,0.037l-0.021,0.034
		c0.004,0.019-0.01,0.043-0.02,0.069L73.324,30.324L73.324,30.324z"/>
	<path fill="#FCEE23" stroke="#010101" stroke-width="0.15" stroke-miterlimit="10" d="M68.645,34.811
		c-0.01,2.078,1.666,3.765,3.75,3.77c2.066,0.011,3.76-1.67,3.766-3.744c0-0.003-0.002-0.006-0.006-0.01
		c0.016-2.077-1.664-3.76-3.744-3.767c-2.074-0.005-3.762,1.668-3.77,3.747C68.645,34.811,68.645,34.811,68.645,34.811"/>
</g>
<path fill="#020202" d="M12.85,34.86c0-0.35,0.284-0.633,0.634-0.633s0.633,0.284,0.633,0.633c0,0.35-0.284,0.634-0.633,0.634
	C13.134,35.495,12.85,35.21,12.85,34.86z M19.013,35.495c0.35,0,0.634-0.284,0.634-0.634s-0.284-0.633-0.634-0.633
	s-0.634,0.284-0.634,0.633C18.379,35.21,18.663,35.495,19.013,35.495z"/>
<path fill="#F4F4F4" d="M13.208,34.873c0.108,0,0.196-0.088,0.196-0.196c0-0.108-0.088-0.196-0.196-0.196
	c-0.108,0-0.196,0.088-0.196,0.196C13.012,34.785,13.099,34.873,13.208,34.873z M18.737,34.873c0.108,0,0.196-0.088,0.196-0.196
	c0-0.108-0.088-0.196-0.196-0.196c-0.109,0-0.197,0.088-0.197,0.196C18.54,34.785,18.628,34.873,18.737,34.873z"/>
</svg>
