<?xml version="1.0" encoding="utf-8"?>
<!-- Generator: Adobe Illustrator 16.0.0, SVG Export Plug-In . SVG Version: 6.00 Build 0)  -->
<!DOCTYPE svg PUBLIC "-//W3C//DTD SVG 1.1//EN" "http://www.w3.org/Graphics/SVG/1.1/DTD/svg11.dtd">
<svg version="1.1" id="Layer_1" xmlns="http://www.w3.org/2000/svg" xmlns:xlink="http://www.w3.org/1999/xlink" x="0px" y="0px"
	 width="25px" height="90px" viewBox="0 0 25 90" enable-background="new 0 0 25 90" xml:space="preserve">
<rect id="backgroundrect" fill="none" width="25" height="90"/>
<title>Layer 1</title>
<path id="svg_1" fill="#FFBD86" d="M25.296,89.519H0l0-70.368c0-2.923,0.861-5.783,2.476-8.22l5.623-8.487
	c2.158-3.257,6.94-3.257,9.098,0l5.623,8.486c1.614,2.438,2.476,5.296,2.476,8.221V89.519z"/>
<path id="svg_2" fill="#08A650" d="M20.172,16.274c-0.934,0.944-2.457,0.944-3.391,0l-1.91-1.933
	c-1.223-1.238-3.223-1.238-4.447,0.001l-1.91,1.932c-0.933,0.943-2.457,0.944-3.39,0l-3.613-3.657
	c-0.99,2.027-1.511,4.261-1.511,6.534l0,70.367h25.296V19.151c0-2.273-0.521-4.507-1.511-6.533L20.172,16.274z"/>
<path id="svg_3" fill="#394049" d="M6.819,89.518h11.656l0.001-72.536c-0.615,0-1.229-0.236-1.695-0.708l-1.91-1.932
	c-1.225-1.238-3.224-1.238-4.448,0l-1.909,1.932c-0.466,0.472-1.081,0.708-1.695,0.708L6.819,89.518z"/>
<path id="svg_4" fill="#08A650" d="M20.156,6.908l-2.959-4.464c-2.158-3.258-6.94-3.258-9.098,0L5.141,6.908
	c2.064,1.11,4.671,1.774,7.507,1.774C15.484,8.683,18.092,8.018,20.156,6.908z"/>
<g>
	<path fill="#FFFFFF" d="M11.212,52.329l0.178-0.223c0.504-0.764,0.861-1.332,1.069-1.703c0.208-0.371,0.375-0.761,0.501-1.169
		c0.186-0.563,0.278-1.15,0.278-1.759c0-0.624-0.076-1.091-0.229-1.403c-0.151-0.312-0.432-0.567-0.84-0.768
		c-0.52,0.749-0.779,1.699-0.779,2.85c0,0.445,0.07,0.902,0.211,1.369c0.06,0.171,0.089,0.286,0.089,0.346
		c0,0.215-0.115,0.322-0.345,0.322c-0.208,0-0.49-0.087-0.846-0.261c-0.356-0.175-0.627-0.354-0.813-0.54
		c-0.208-0.223-0.378-0.513-0.512-0.869c-0.134-0.355-0.201-0.734-0.201-1.135c0-0.564,0.117-1.103,0.351-1.614
		c0.234-0.513,0.563-0.958,0.985-1.336c0.423-0.378,0.926-0.673,1.509-0.885c0.583-0.211,1.2-0.317,1.854-0.317
		c0.652,0,1.248,0.143,1.785,0.428c0.539,0.286,0.967,0.679,1.287,1.18c0.318,0.5,0.479,1.044,0.479,1.63
		c0,0.438-0.084,0.904-0.252,1.401s-0.432,1.052-0.793,1.663c-0.361,0.612-0.824,1.285-1.389,2.021
		c-0.564,0.734-1.221,1.524-1.971,2.371l-0.223,0.267l-0.189,0.212c0.312,0.093,0.74,0.139,1.281,0.139
		c0.543,0,1.088-0.029,1.635-0.089c0.545-0.06,0.975-0.138,1.287-0.234c0.209-0.059,0.346-0.089,0.412-0.089
		c0.074,0,0.111,0.022,0.111,0.067c0,0.274-0.176,0.701-0.529,1.28c-0.352,0.578-0.721,1.058-1.107,1.436
		c-0.4,0.379-0.881,0.655-1.441,0.829c-0.561,0.175-1.252,0.262-2.076,0.262c-1.054,0-1.959-0.145-2.716-0.434
		c-0.757-0.29-1.136-0.639-1.136-1.047c0-0.282,0.382-0.846,1.147-1.692c0.542-0.615,1.035-1.228,1.48-1.837
		c0.03-0.044,0.062-0.089,0.095-0.134c0.034-0.044,0.063-0.087,0.089-0.128c0.026-0.04,0.061-0.098,0.105-0.172L11.212,52.329z"/>
</g>
</svg>
