<?xml version="1.0" encoding="utf-8"?>
<!-- Generator: Adobe Illustrator 16.0.0, SVG Export Plug-In . SVG Version: 6.00 Build 0)  -->
<!DOCTYPE svg PUBLIC "-//W3C//DTD SVG 1.1//EN" "http://www.w3.org/Graphics/SVG/1.1/DTD/svg11.dtd">
<svg version="1.1" id="Layer_1" xmlns="http://www.w3.org/2000/svg" xmlns:xlink="http://www.w3.org/1999/xlink" x="0px" y="0px"
	 width="25px" height="90px" viewBox="0 0 25 90" enable-background="new 0 0 25 90" xml:space="preserve">
<rect id="backgroundrect" fill="none" width="25" height="90"/>
<title>Layer 1</title>
<path id="svg_1" fill="#FFBD86" d="M25.296,89.519H0l0-70.368c0-2.923,0.861-5.783,2.476-8.22l5.623-8.487
	c2.158-3.257,6.94-3.257,9.098,0l5.623,8.486c1.614,2.438,2.476,5.296,2.476,8.221V89.519z"/>
<path id="svg_2" fill="#ED2224" d="M20.172,16.274c-0.934,0.944-2.457,0.944-3.391,0l-1.91-1.933
	c-1.223-1.238-3.223-1.238-4.447,0.001l-1.91,1.932c-0.933,0.943-2.457,0.944-3.39,0l-3.613-3.657
	c-0.99,2.027-1.511,4.261-1.511,6.534l0,70.367h25.296V19.151c0-2.273-0.521-4.507-1.511-6.533L20.172,16.274z"/>
<path id="svg_3" fill="#394049" d="M6.819,89.518h11.656l0.001-72.536c-0.615,0-1.229-0.236-1.695-0.708l-1.91-1.932
	c-1.225-1.238-3.224-1.238-4.448,0l-1.909,1.932c-0.466,0.472-1.081,0.708-1.695,0.708L6.819,89.518z"/>
<path id="svg_4" fill="#ED2224" d="M20.156,6.908l-2.959-4.464c-2.158-3.258-6.94-3.258-9.098,0L5.141,6.908
	c2.064,1.11,4.671,1.774,7.507,1.774C15.484,8.683,18.092,8.018,20.156,6.908z"/>
<g>
	<path fill="#FFFFFF" d="M10.328,56.803h0.067c0.245,0,0.551-0.112,0.918-0.339s0.729-0.525,1.085-0.896
		c0.46-0.475,0.826-0.981,1.095-1.52c0.271-0.538,0.408-1.041,0.408-1.509c0-1.017-0.539-1.633-1.615-1.848
		c-0.208-0.03-0.356-0.076-0.445-0.14c-0.089-0.063-0.134-0.161-0.134-0.295c0-0.148,0.178-0.375,0.535-0.679
		c0.535-0.468,0.952-0.979,1.251-1.531c0.301-0.553,0.451-1.107,0.451-1.664c0-0.594-0.121-0.891-0.367-0.891
		c-0.199,0-0.449,0.157-0.746,0.473s-0.58,0.719-0.851,1.208c-0.271,0.49-0.473,0.973-0.607,1.447
		c-0.044,0.163-0.089,0.27-0.133,0.317c-0.044,0.049-0.108,0.072-0.189,0.072c-0.215,0-0.482-0.167-0.801-0.501
		c-0.453-0.482-0.679-0.972-0.679-1.47c0-0.571,0.232-1.139,0.696-1.703c0.464-0.564,1.067-1.021,1.809-1.369
		c0.743-0.349,1.502-0.523,2.281-0.523c0.631,0,1.207,0.123,1.727,0.368c0.52,0.245,0.924,0.584,1.213,1.019
		s0.434,0.922,0.434,1.464c0,0.986-0.426,1.777-1.279,2.371c-0.445,0.305-0.998,0.594-1.658,0.868v0.045
		c1.045,0.06,1.832,0.293,2.359,0.701s0.791,0.979,0.791,1.714c0,0.342-0.08,0.719-0.24,1.131c-0.16,0.411-0.387,0.835-0.68,1.269
		c-0.293,0.435-0.643,0.867-1.051,1.297c-0.891,0.943-1.859,1.68-2.906,2.21c-1.046,0.531-2.052,0.796-3.017,0.796
		c-0.92,0-1.687-0.293-2.299-0.879c-0.612-0.587-0.918-1.321-0.918-2.204c0-0.602,0.206-1.203,0.618-1.804
		c0.412-0.602,0.944-1.093,1.598-1.476c0.653-0.382,1.306-0.573,1.959-0.573c0.274,0,0.412,0.101,0.412,0.301
		c0,0.082-0.115,0.219-0.345,0.412c-0.022,0.021-0.046,0.046-0.072,0.072c-0.026,0.026-0.054,0.054-0.083,0.083
		c-0.29,0.334-0.514,0.75-0.674,1.247s-0.239,1.017-0.239,1.559C10.005,55.968,10.113,56.425,10.328,56.803z"/>
</g>
</svg>
