<?xml version="1.0" encoding="utf-8"?>
<!-- Generator: Adobe Illustrator 16.0.0, SVG Export Plug-In . SVG Version: 6.00 Build 0)  -->
<!DOCTYPE svg PUBLIC "-//W3C//DTD SVG 1.1//EN" "http://www.w3.org/Graphics/SVG/1.1/DTD/svg11.dtd">
<svg version="1.1" id="Layer_1" xmlns="http://www.w3.org/2000/svg" xmlns:xlink="http://www.w3.org/1999/xlink" x="0px" y="0px"
	 width="25px" height="90px" viewBox="0 0 25 90" enable-background="new 0 0 25 90" xml:space="preserve">
<rect id="backgroundrect" fill="none" width="25" height="90"/>
<title>Layer 1</title>
<path id="svg_1" fill="#FFBD86" d="M25.296,89.519H0l0-70.368c0-2.923,0.861-5.783,2.476-8.22l5.623-8.487
	c2.158-3.257,6.94-3.257,9.098,0l5.623,8.486c1.614,2.438,2.476,5.296,2.476,8.221V89.519z"/>
<path id="svg_2" fill="#019653" d="M20.172,16.274c-0.934,0.944-2.457,0.944-3.391,0l-1.91-1.933
	c-1.223-1.238-3.223-1.238-4.447,0.001l-1.91,1.932c-0.933,0.943-2.457,0.944-3.39,0l-3.613-3.657
	c-0.99,2.027-1.511,4.261-1.511,6.534l0,70.367h25.296V19.151c0-2.273-0.521-4.507-1.511-6.533L20.172,16.274z"/>
<path id="svg_3" fill="#394049" d="M6.819,89.518h11.656l0.001-72.536c-0.615,0-1.229-0.236-1.695-0.708l-1.91-1.932
	c-1.225-1.238-3.224-1.238-4.448,0l-1.909,1.932c-0.466,0.472-1.081,0.708-1.695,0.708L6.819,89.518z"/>
<path id="svg_4" fill="#019653" d="M20.156,6.908l-2.959-4.464c-2.158-3.258-6.94-3.258-9.098,0L5.141,6.908
	c2.064,1.11,4.671,1.774,7.507,1.774C15.484,8.683,18.092,8.018,20.156,6.908z"/>
<g>
	<path fill="#FFFFFF" d="M12.159,46.593l0.223-0.546c-0.111,0.03-0.286,0.097-0.523,0.201c-0.512,0.215-0.839,0.322-0.98,0.322
		c-0.134,0-0.243-0.072-0.329-0.217c-0.085-0.145-0.128-0.332-0.128-0.563c0-0.192,0.048-0.423,0.145-0.69
		c0.096-0.267,0.2-0.448,0.312-0.545c0.193-0.148,1.039-0.571,2.538-1.27l0.334-0.145c0.068-0.044,0.176-0.097,0.324-0.156
		c0.986-0.482,1.617-0.724,1.893-0.724c0.244,0,0.436,0.07,0.572,0.211c0.139,0.141,0.205,0.341,0.203,0.601
		c0,0.557-0.26,1.54-0.779,2.95c-0.117,0.342-0.213,0.611-0.283,0.808c-0.07,0.197-0.172,0.488-0.307,0.874
		c-0.037,0.141-0.076,0.286-0.121,0.435c-0.26,0.868-0.449,1.521-0.568,1.959c-0.014,0.052-0.064,0.229-0.15,0.528
		c-0.084,0.301-0.146,0.518-0.184,0.651s-0.078,0.271-0.121,0.412c-0.498,1.899-0.912,3.117-1.247,3.651
		c-0.111,0.171-0.241,0.323-0.39,0.457c-0.319,0.245-0.596,0.435-0.829,0.567c-0.234,0.134-0.457,0.229-0.668,0.284
		s-0.451,0.084-0.718,0.084c-0.386,0-0.729-0.113-1.029-0.34c-0.301-0.227-0.451-0.484-0.451-0.773c0-0.053,0.015-0.138,0.044-0.257
		C9.817,52.761,10.89,49.836,12.159,46.593z"/>
</g>
</svg>
