<?xml version="1.0" encoding="utf-8"?>
<!-- Generator: Adobe Illustrator 16.0.0, SVG Export Plug-In . SVG Version: 6.00 Build 0)  -->
<!DOCTYPE svg PUBLIC "-//W3C//DTD SVG 1.1//EN" "http://www.w3.org/Graphics/SVG/1.1/DTD/svg11.dtd">
<svg version="1.1" id="Layer_1" xmlns="http://www.w3.org/2000/svg" xmlns:xlink="http://www.w3.org/1999/xlink" x="0px" y="0px"
	 width="25px" height="90px" viewBox="0 0 25 90" enable-background="new 0 0 25 90" xml:space="preserve">
<rect id="backgroundrect" fill="none" width="25" height="90"/>
<title>Layer 1</title>
<path id="svg_1" fill="#FFBD86" d="M25.296,89.52H0V19.151c0-2.923,0.861-5.783,2.476-8.22l5.623-8.487
	c2.158-3.257,6.94-3.257,9.098,0l5.623,8.486c1.613,2.438,2.476,5.296,2.476,8.221V89.52z"/>
<path id="svg_2" fill="#FCFCFC" d="M20.172,16.274c-0.934,0.944-2.457,0.944-3.391,0l-1.91-1.933
	c-1.223-1.238-3.223-1.238-4.447,0.001l-1.91,1.932c-0.933,0.943-2.457,0.944-3.39,0L1.51,12.617C0.52,14.644,0,16.878,0,19.151
	v70.367h25.296V19.151c0-2.273-0.521-4.507-1.512-6.533L20.172,16.274z"/>
<path id="svg_3" fill="#394049" d="M6.82,89.518h11.657V16.982c-0.613,0-1.229-0.236-1.694-0.708l-1.909-1.932
	c-1.225-1.238-3.225-1.238-4.448,0l-1.909,1.932c-0.467,0.472-1.081,0.708-1.695,0.708L6.82,89.518L6.82,89.518z"/>
<path id="svg_4" fill="#FCFCFC" d="M20.156,6.908l-2.959-4.464c-2.158-3.258-6.94-3.258-9.098,0L5.141,6.908
	c2.064,1.11,4.671,1.774,7.507,1.774C15.484,8.683,18.092,8.018,20.156,6.908z"/>
<g>
	<path d="M6.697,48.968l0.162-0.2c0.458-0.694,0.782-1.211,0.971-1.548c0.188-0.337,0.341-0.692,0.456-1.063
		c0.168-0.514,0.253-1.045,0.253-1.599c0-0.566-0.07-0.991-0.208-1.274c-0.138-0.284-0.393-0.516-0.763-0.698
		c-0.472,0.681-0.708,1.544-0.708,2.589c0,0.404,0.064,0.818,0.192,1.244c0.054,0.154,0.081,0.26,0.081,0.313
		c0,0.196-0.105,0.293-0.314,0.293c-0.189,0-0.445-0.079-0.769-0.235c-0.324-0.159-0.57-0.322-0.739-0.491
		c-0.189-0.203-0.344-0.466-0.465-0.789c-0.121-0.324-0.182-0.668-0.182-1.032c0-0.512,0.105-1.001,0.318-1.467
		c0.212-0.465,0.51-0.87,0.895-1.213c0.384-0.344,0.841-0.612,1.371-0.804c0.529-0.192,1.09-0.288,1.684-0.288
		s1.135,0.129,1.624,0.389c0.489,0.259,0.878,0.616,1.168,1.071s0.435,0.949,0.435,1.481c0,0.397-0.076,0.821-0.229,1.273
		c-0.152,0.453-0.393,0.955-0.721,1.511c-0.329,0.558-0.749,1.168-1.261,1.836c-0.513,0.668-1.109,1.385-1.791,2.154l-0.203,0.242
		l-0.172,0.191c0.284,0.084,0.672,0.126,1.165,0.126c0.493,0,0.988-0.026,1.484-0.079c0.497-0.056,0.887-0.126,1.17-0.214
		c0.189-0.053,0.314-0.079,0.375-0.079c0.068,0,0.102,0.02,0.102,0.06c0,0.249-0.16,0.637-0.48,1.163
		c-0.32,0.525-0.656,0.962-1.006,1.306c-0.364,0.344-0.801,0.595-1.31,0.751c-0.509,0.159-1.138,0.238-1.886,0.238
		c-0.958,0-1.78-0.13-2.468-0.395c-0.688-0.263-1.032-0.579-1.032-0.95c0-0.256,0.347-0.77,1.042-1.536
		c0.492-0.56,0.941-1.118,1.345-1.669c0.027-0.042,0.056-0.081,0.086-0.121c0.03-0.042,0.058-0.079,0.081-0.117
		c0.023-0.037,0.056-0.09,0.096-0.156L6.697,48.968z"/>
	<path d="M15.98,48.968l0.164-0.2c0.458-0.694,0.782-1.211,0.97-1.548c0.189-0.337,0.342-0.692,0.456-1.063
		c0.168-0.514,0.251-1.045,0.251-1.599c0-0.566-0.068-0.991-0.207-1.274c-0.137-0.284-0.393-0.516-0.763-0.698
		c-0.472,0.681-0.707,1.544-0.707,2.589c0,0.404,0.063,0.818,0.191,1.244c0.053,0.154,0.081,0.26,0.081,0.313
		c0,0.196-0.105,0.293-0.314,0.293c-0.188,0-0.443-0.079-0.768-0.235c-0.324-0.159-0.571-0.322-0.738-0.491
		c-0.189-0.203-0.344-0.466-0.465-0.789c-0.122-0.324-0.184-0.668-0.184-1.032c0-0.512,0.106-1.001,0.32-1.467
		c0.211-0.465,0.509-0.87,0.895-1.213c0.384-0.344,0.84-0.612,1.369-0.804s1.091-0.288,1.684-0.288c0.594,0,1.136,0.129,1.625,0.389
		c0.487,0.259,0.877,0.616,1.168,1.071c0.289,0.455,0.435,0.949,0.435,1.481c0,0.397-0.077,0.821-0.229,1.273
		c-0.151,0.453-0.393,0.955-0.721,1.511c-0.328,0.558-0.747,1.168-1.261,1.836c-0.512,0.668-1.108,1.385-1.79,2.154l-0.203,0.242
		l-0.172,0.191c0.284,0.084,0.673,0.126,1.166,0.126c0.492,0,0.985-0.026,1.484-0.079c0.495-0.056,0.886-0.126,1.168-0.214
		c0.189-0.053,0.315-0.079,0.375-0.079c0.068,0,0.101,0.02,0.101,0.06c0,0.249-0.158,0.637-0.48,1.163
		c-0.319,0.525-0.654,0.962-1.005,1.306c-0.363,0.344-0.8,0.595-1.31,0.751c-0.509,0.159-1.14,0.238-1.887,0.238
		c-0.957,0-1.781-0.13-2.469-0.395c-0.686-0.263-1.029-0.579-1.029-0.95c0-0.256,0.346-0.77,1.04-1.536
		c0.492-0.56,0.941-1.118,1.345-1.669c0.026-0.042,0.056-0.081,0.086-0.121c0.031-0.042,0.058-0.079,0.082-0.117
		c0.023-0.037,0.055-0.09,0.097-0.156L15.98,48.968z"/>
</g>
</svg>
