<?xml version="1.0" encoding="utf-8"?>
<!-- Generator: Adobe Illustrator 16.0.0, SVG Export Plug-In . SVG Version: 6.00 Build 0)  -->
<!DOCTYPE svg PUBLIC "-//W3C//DTD SVG 1.1//EN" "http://www.w3.org/Graphics/SVG/1.1/DTD/svg11.dtd">
<svg version="1.1" id="Layer_1" xmlns="http://www.w3.org/2000/svg" xmlns:xlink="http://www.w3.org/1999/xlink" x="0px" y="0px"
	 width="25px" height="90px" viewBox="0 0 25 90" enable-background="new 0 0 25 90" xml:space="preserve">
<rect id="backgroundrect" fill="none" width="25" height="90"/>
<title>Layer 1</title>
<path id="svg_1" fill="#FFBD86" d="M25.296,89.519H0l0-70.368c0-2.923,0.861-5.783,2.476-8.22l5.623-8.487
	c2.158-3.257,6.94-3.257,9.098,0l5.623,8.486c1.614,2.438,2.476,5.296,2.476,8.221V89.519z"/>
<path id="svg_2" fill="#A09F9F" d="M20.172,16.274c-0.934,0.944-2.457,0.944-3.391,0l-1.91-1.933
	c-1.223-1.238-3.223-1.238-4.447,0.001l-1.91,1.932c-0.933,0.943-2.457,0.944-3.39,0l-3.614-3.657
	c-0.99,2.027-1.51,4.261-1.51,6.534l0,70.367h25.296V19.151c0-2.273-0.521-4.507-1.512-6.533L20.172,16.274z"/>
<path id="svg_3" fill="#394049" d="M6.82,89.518h11.657V16.982c-0.614,0-1.229-0.236-1.695-0.708l-1.909-1.932
	c-1.225-1.238-3.225-1.238-4.448,0l-1.909,1.932c-0.467,0.472-1.081,0.708-1.695,0.708V89.518z"/>
<path id="svg_4" fill="#A09F9F" d="M20.156,6.908l-2.959-4.464c-2.158-3.258-6.94-3.258-9.098,0L5.141,6.908
	c2.064,1.11,4.671,1.774,7.507,1.774C15.484,8.683,18.092,8.018,20.156,6.908z"/>
<g>
	<path fill="#FFFFFF" d="M6.57,48.043l0.223-0.547c-0.111,0.031-0.286,0.098-0.523,0.201c-0.512,0.215-0.839,0.322-0.98,0.322
		c-0.134,0-0.243-0.072-0.329-0.217c-0.085-0.145-0.128-0.332-0.128-0.563c0-0.191,0.048-0.422,0.145-0.689
		c0.096-0.268,0.2-0.449,0.312-0.545c0.193-0.148,1.039-0.572,2.539-1.27l0.334-0.145c0.066-0.044,0.174-0.097,0.323-0.156
		c0.987-0.482,1.618-0.724,1.893-0.724c0.245,0,0.436,0.07,0.573,0.211c0.137,0.141,0.205,0.341,0.203,0.601
		c0,0.557-0.26,1.541-0.779,2.951c-0.119,0.342-0.213,0.611-0.284,0.807c-0.071,0.197-0.173,0.488-0.306,0.875
		c-0.037,0.141-0.078,0.285-0.123,0.434c-0.259,0.869-0.449,1.521-0.567,1.959c-0.015,0.053-0.065,0.229-0.15,0.529
		c-0.085,0.301-0.146,0.518-0.184,0.65C8.724,52.863,8.684,53,8.639,53.141c-0.497,1.9-0.912,3.117-1.246,3.652
		c-0.111,0.17-0.241,0.322-0.39,0.457c-0.319,0.244-0.596,0.434-0.829,0.566c-0.234,0.135-0.457,0.229-0.668,0.285
		c-0.211,0.055-0.451,0.084-0.718,0.084c-0.386,0-0.729-0.113-1.029-0.34c-0.301-0.227-0.451-0.484-0.451-0.773
		c0-0.053,0.015-0.139,0.044-0.258C4.228,54.211,5.301,51.285,6.57,48.043z"/>
	<path fill="#FFFFFF" d="M17.059,46.518l-0.824,1.459l0.045,0.043c0.525-0.223,0.994-0.381,1.402-0.479
		c0.408-0.096,0.809-0.145,1.201-0.145c1.018,0,1.809,0.24,2.373,0.719c0.563,0.479,0.846,1.152,0.846,2.02
		c0,0.432-0.063,0.887-0.184,1.365c-0.123,0.479-0.305,0.961-0.547,1.447c-0.24,0.486-0.529,0.963-0.867,1.43
		c-0.338,0.469-0.756,0.953-1.252,1.459c-0.729,0.734-1.457,1.311-2.189,1.725c-0.73,0.416-1.385,0.625-1.965,0.625
		c-0.422,0-0.838-0.084-1.246-0.252c-0.408-0.166-0.768-0.402-1.081-0.707c-0.549-0.549-0.824-1.324-0.824-2.326
		c0-1.336,0.382-2.383,1.146-3.139c0.379-0.387,0.822-0.703,1.332-0.953c0.508-0.248,0.951-0.373,1.33-0.373
		c0.4,0,0.602,0.111,0.602,0.334v0.033c-0.32,0.379-0.559,0.701-0.719,0.963c-0.16,0.264-0.324,0.619-0.496,1.064
		c-0.289,0.742-0.434,1.607-0.434,2.594c0,0.764,0.152,1.146,0.457,1.146c0.393,0,0.818-0.23,1.279-0.689
		c0.504-0.527,0.943-1.182,1.314-1.961s0.557-1.439,0.557-1.98c0-0.758-0.158-1.316-0.475-1.676
		c-0.314-0.359-0.816-0.541-1.508-0.541c-0.387,0-0.906,0.072-1.559,0.213c-0.355,0.059-0.545,0.088-0.568,0.088
		c-0.215,0-0.395-0.072-0.539-0.217s-0.217-0.332-0.217-0.563c0-0.191,0.1-0.594,0.301-1.201c0.318-1.025,0.652-1.953,1.002-2.784
		l0.066-0.155c0.037-0.074,0.1-0.212,0.189-0.413c0.215-0.527,0.406-0.857,0.572-0.991c0.168-0.134,0.471-0.201,0.908-0.201
		c1.402,0,2.461,0.015,3.172,0.045c0.164,0,0.305,0.007,0.424,0.022h0.145c0.557,0.03,0.936,0.078,1.137,0.145
		c0.199,0.066,0.299,0.17,0.299,0.312c0,0.126-0.082,0.317-0.25,0.573c-0.166,0.256-0.373,0.5-0.617,0.729
		c-0.416,0.417-0.846,0.737-1.291,0.963s-0.885,0.34-1.314,0.34c-0.186,0-0.479-0.023-0.879-0.066
		c-0.119-0.031-0.182-0.045-0.189-0.045H17.059z"/>
</g>
</svg>
