<?xml version="1.0" encoding="utf-8"?>
<!-- Generator: Adobe Illustrator 16.0.0, SVG Export Plug-In . SVG Version: 6.00 Build 0)  -->
<!DOCTYPE svg PUBLIC "-//W3C//DTD SVG 1.1//EN" "http://www.w3.org/Graphics/SVG/1.1/DTD/svg11.dtd">
<svg version="1.1" id="Layer_1" xmlns="http://www.w3.org/2000/svg" xmlns:xlink="http://www.w3.org/1999/xlink" x="0px" y="0px"
	 width="25px" height="90px" viewBox="0 0 25 90" enable-background="new 0 0 25 90" xml:space="preserve">
<rect id="backgroundrect" fill="none" width="25" height="90"/>
<title>Layer 1</title>
<path id="svg_1" fill="#FFBD86" d="M25.296,89.519H0l0-70.368c0-2.923,0.861-5.783,2.476-8.22l5.623-8.487
	c2.158-3.257,6.94-3.257,9.098,0l5.623,8.486c1.614,2.438,2.476,5.296,2.476,8.221V89.519z"/>
<path id="svg_2" fill="#C6946B" d="M20.172,16.274c-0.934,0.944-2.457,0.944-3.391,0l-1.91-1.933
	c-1.223-1.238-3.223-1.238-4.447,0.001l-1.91,1.932c-0.933,0.943-2.457,0.944-3.39,0l-3.614-3.657
	c-0.99,2.027-1.51,4.261-1.51,6.534l0,70.367h25.296V19.151c0-2.273-0.521-4.507-1.512-6.533L20.172,16.274z"/>
<path id="svg_3" fill="#394049" d="M6.82,89.518h11.657V16.982c-0.614,0-1.229-0.236-1.695-0.708l-1.909-1.932
	c-1.225-1.238-3.225-1.238-4.448,0l-1.909,1.932c-0.467,0.472-1.081,0.708-1.695,0.708V89.518z"/>
<path id="svg_4" fill="#C6946B" d="M20.156,6.908l-2.959-4.464c-2.158-3.258-6.94-3.258-9.098,0L5.141,6.908
	c2.064,1.11,4.671,1.774,7.507,1.774C15.484,8.683,18.092,8.018,20.156,6.908z"/>
<g>
	<path fill="#FFFFFF" d="M6.108,48.293l0.223-0.547c-0.111,0.031-0.286,0.098-0.523,0.201c-0.512,0.215-0.839,0.322-0.98,0.322
		c-0.134,0-0.243-0.072-0.329-0.217c-0.085-0.145-0.128-0.332-0.128-0.563c0-0.191,0.048-0.422,0.145-0.689
		c0.096-0.268,0.2-0.449,0.312-0.545c0.193-0.148,1.039-0.572,2.539-1.27L7.7,44.841c0.066-0.044,0.174-0.097,0.323-0.156
		c0.987-0.482,1.618-0.724,1.893-0.724c0.245,0,0.436,0.07,0.573,0.211c0.137,0.141,0.205,0.341,0.203,0.601
		c0,0.557-0.26,1.541-0.779,2.951c-0.119,0.342-0.213,0.611-0.284,0.807c-0.071,0.197-0.173,0.488-0.306,0.875
		c-0.037,0.141-0.078,0.285-0.123,0.434c-0.259,0.869-0.449,1.521-0.567,1.959c-0.015,0.053-0.065,0.229-0.15,0.529
		c-0.085,0.301-0.146,0.518-0.184,0.65c-0.037,0.135-0.078,0.271-0.123,0.412c-0.497,1.9-0.912,3.117-1.246,3.652
		c-0.111,0.17-0.241,0.322-0.39,0.457c-0.319,0.244-0.596,0.434-0.829,0.566c-0.234,0.135-0.457,0.229-0.668,0.285
		c-0.211,0.055-0.451,0.084-0.718,0.084c-0.386,0-0.729-0.113-1.029-0.34c-0.301-0.227-0.451-0.484-0.451-0.773
		c0-0.053,0.015-0.139,0.044-0.258C3.766,54.461,4.839,51.535,6.108,48.293z"/>
	<path fill="#FFFFFF" d="M14.938,56.953h0.066c0.244,0,0.551-0.111,0.918-0.338s0.73-0.525,1.086-0.896
		c0.461-0.475,0.826-0.982,1.096-1.52c0.271-0.539,0.408-1.041,0.408-1.51c0-1.016-0.539-1.633-1.615-1.848
		c-0.207-0.029-0.355-0.076-0.445-0.139s-0.133-0.162-0.133-0.295c0-0.148,0.178-0.375,0.533-0.68
		c0.535-0.467,0.953-0.979,1.252-1.531c0.301-0.553,0.451-1.107,0.451-1.664c0-0.594-0.121-0.891-0.367-0.891
		c-0.199,0-0.449,0.158-0.746,0.473c-0.297,0.316-0.58,0.719-0.852,1.209s-0.473,0.973-0.605,1.447
		c-0.045,0.162-0.09,0.27-0.135,0.316c-0.045,0.049-0.107,0.072-0.189,0.072c-0.215,0-0.482-0.166-0.801-0.5
		c-0.453-0.482-0.68-0.973-0.68-1.471c0-0.57,0.232-1.139,0.695-1.703c0.465-0.564,1.068-1.021,1.811-1.369s1.502-0.523,2.281-0.523
		c0.631,0,1.207,0.123,1.727,0.368c0.52,0.245,0.924,0.584,1.213,1.019s0.434,0.922,0.434,1.465c0,0.986-0.426,1.777-1.279,2.371
		c-0.445,0.305-0.998,0.594-1.658,0.867v0.045c1.045,0.061,1.832,0.293,2.359,0.701s0.791,0.98,0.791,1.715
		c0,0.342-0.08,0.719-0.24,1.131c-0.16,0.41-0.387,0.834-0.68,1.268c-0.293,0.436-0.643,0.867-1.051,1.297
		c-0.891,0.943-1.859,1.68-2.906,2.211s-2.053,0.795-3.018,0.795c-0.92,0-1.687-0.293-2.299-0.879s-0.918-1.32-0.918-2.203
		c0-0.602,0.206-1.203,0.618-1.805c0.412-0.602,0.945-1.092,1.598-1.475c0.654-0.383,1.307-0.574,1.959-0.574
		c0.275,0,0.412,0.102,0.412,0.301c0,0.082-0.115,0.219-0.344,0.412c-0.023,0.021-0.047,0.047-0.072,0.072
		c-0.027,0.027-0.055,0.055-0.084,0.084c-0.289,0.334-0.514,0.75-0.674,1.246c-0.16,0.498-0.24,1.018-0.24,1.559
		C14.613,56.119,14.723,56.576,14.938,56.953z"/>
</g>
</svg>
