<?xml version="1.0" encoding="utf-8"?>
<!-- Generator: Adobe Illustrator 16.0.0, SVG Export Plug-In . SVG Version: 6.00 Build 0)  -->
<!DOCTYPE svg PUBLIC "-//W3C//DTD SVG 1.1//EN" "http://www.w3.org/Graphics/SVG/1.1/DTD/svg11.dtd">
<svg version="1.1" id="Layer_1" xmlns="http://www.w3.org/2000/svg" xmlns:xlink="http://www.w3.org/1999/xlink" x="0px" y="0px"
	 width="25px" height="90px" viewBox="0 0 25 90" enable-background="new 0 0 25 90" xml:space="preserve">
<rect id="backgroundrect" fill="none" width="25" height="90"/>
<title>Layer 1</title>
<path id="svg_1" fill="#FFBD86" d="M25.296,89.519H0l0-70.368c0-2.923,0.861-5.783,2.476-8.22l5.623-8.487
	c2.158-3.257,6.94-3.257,9.098,0l5.623,8.486c1.614,2.438,2.476,5.296,2.476,8.221V89.519z"/>
<path id="svg_2" fill="#F89520" d="M20.172,16.274c-0.934,0.944-2.457,0.944-3.391,0l-1.91-1.933
	c-1.223-1.238-3.223-1.238-4.447,0.001l-1.91,1.932c-0.933,0.943-2.457,0.944-3.39,0l-3.613-3.657
	c-0.99,2.027-1.511,4.261-1.511,6.534l0,70.367h25.296V19.151c0-2.273-0.521-4.507-1.511-6.533L20.172,16.274z"/>
<path id="svg_3" fill="#394049" d="M6.819,89.518h11.656l0.001-72.536c-0.615,0-1.229-0.236-1.695-0.708l-1.91-1.932
	c-1.225-1.238-3.224-1.238-4.448,0l-1.909,1.932c-0.466,0.472-1.081,0.708-1.695,0.708L6.819,89.518z"/>
<path id="svg_4" fill="#F89520" d="M20.156,6.908l-2.959-4.464c-2.158-3.258-6.94-3.258-9.098,0L5.141,6.908
	c2.064,1.11,4.671,1.774,7.507,1.774C15.484,8.683,18.092,8.018,20.156,6.908z"/>
<g>
	<path fill="#FFFFFF" d="M12.29,45.935l-0.824,1.459l0.044,0.044c0.527-0.223,0.995-0.382,1.403-0.479s0.809-0.145,1.202-0.145
		c1.018,0,1.809,0.239,2.373,0.718c0.563,0.479,0.846,1.152,0.846,2.021c0,0.431-0.063,0.886-0.184,1.364
		c-0.123,0.479-0.305,0.961-0.547,1.447c-0.24,0.486-0.529,0.963-0.867,1.431s-0.756,0.953-1.252,1.458
		c-0.729,0.735-1.457,1.311-2.189,1.726c-0.731,0.416-1.386,0.624-1.965,0.624c-0.423,0-0.839-0.084-1.247-0.251
		s-0.768-0.402-1.08-0.707C7.454,56.096,7.18,55.32,7.18,54.318c0-1.336,0.382-2.383,1.146-3.14
		c0.379-0.386,0.822-0.703,1.331-0.952s0.952-0.373,1.331-0.373c0.401,0,0.601,0.111,0.601,0.334v0.033
		c-0.319,0.379-0.559,0.7-0.718,0.963c-0.16,0.264-0.325,0.618-0.495,1.063c-0.29,0.742-0.434,1.607-0.434,2.594
		c0,0.765,0.152,1.147,0.456,1.147c0.394,0,0.82-0.23,1.28-0.69c0.505-0.527,0.943-1.181,1.314-1.96
		c0.372-0.779,0.557-1.439,0.557-1.981c0-0.757-0.158-1.315-0.475-1.676c-0.315-0.359-0.818-0.54-1.508-0.54
		c-0.386,0-0.905,0.071-1.559,0.212c-0.356,0.06-0.545,0.089-0.567,0.089c-0.216,0-0.396-0.072-0.54-0.217
		c-0.145-0.145-0.217-0.332-0.217-0.563c0-0.192,0.1-0.594,0.301-1.202c0.319-1.024,0.653-1.952,1.002-2.783l0.067-0.155
		c0.037-0.074,0.1-0.212,0.189-0.413c0.215-0.527,0.406-0.857,0.573-0.991c0.167-0.134,0.47-0.201,0.908-0.201
		c1.403,0,2.461,0.015,3.172,0.045c0.164,0,0.305,0.007,0.424,0.022h0.145c0.557,0.03,0.936,0.078,1.137,0.145
		c0.199,0.066,0.299,0.17,0.299,0.312c0,0.126-0.082,0.317-0.25,0.573c-0.166,0.256-0.373,0.5-0.617,0.729
		c-0.416,0.416-0.846,0.737-1.291,0.963c-0.445,0.227-0.885,0.34-1.314,0.34c-0.186,0-0.479-0.022-0.879-0.066
		c-0.119-0.03-0.183-0.045-0.19-0.045H12.29z"/>
</g>
</svg>
