<?xml version="1.0" encoding="utf-8"?>
<!-- Generator: Adobe Illustrator 16.0.0, SVG Export Plug-In . SVG Version: 6.00 Build 0)  -->
<!DOCTYPE svg PUBLIC "-//W3C//DTD SVG 1.1//EN" "http://www.w3.org/Graphics/SVG/1.1/DTD/svg11.dtd">
<svg version="1.1" id="Layer_1" xmlns="http://www.w3.org/2000/svg" xmlns:xlink="http://www.w3.org/1999/xlink" x="0px" y="0px"
	 width="25px" height="90px" viewBox="0 0 25 90" enable-background="new 0 0 25 90" xml:space="preserve">
<rect id="backgroundrect" fill="none" width="25" height="90"/>
<title>Layer 1</title>
<path id="svg_1" fill="#FFBD86" d="M25.296,89.519H0l0-70.368c0-2.923,0.861-5.783,2.476-8.22l5.623-8.487
	c2.158-3.257,6.94-3.257,9.098,0l5.623,8.486c1.614,2.438,2.476,5.296,2.476,8.221V89.519z"/>
<path id="svg_2" fill="#AF7A4A" d="M20.172,16.274c-0.934,0.944-2.457,0.944-3.391,0l-1.91-1.933
	c-1.223-1.238-3.223-1.238-4.447,0.001l-1.91,1.932c-0.933,0.943-2.457,0.944-3.39,0l-3.614-3.657
	c-0.99,2.027-1.51,4.261-1.51,6.534l0,70.367h25.296V19.151c0-2.273-0.521-4.507-1.512-6.533L20.172,16.274z"/>
<path id="svg_3" fill="#394049" d="M6.82,89.518h11.657V16.982c-0.614,0-1.229-0.236-1.695-0.708l-1.909-1.932
	c-1.225-1.238-3.225-1.238-4.448,0l-1.909,1.932c-0.467,0.472-1.081,0.708-1.695,0.708V89.518z"/>
<path id="svg_4" fill="#AF7A4A" d="M20.156,6.908l-2.959-4.464c-2.158-3.258-6.94-3.258-9.098,0L5.141,6.908
	c2.064,1.11,4.671,1.774,7.507,1.774C15.484,8.683,18.092,8.018,20.156,6.908z"/>
<g>
	<path fill="#FFFFFF" d="M7.048,47.543l0.223-0.547c-0.111,0.031-0.286,0.098-0.523,0.201c-0.512,0.215-0.839,0.322-0.98,0.322
		c-0.134,0-0.243-0.072-0.329-0.217c-0.085-0.145-0.128-0.332-0.128-0.563c0-0.191,0.048-0.422,0.145-0.689
		c0.096-0.268,0.2-0.449,0.312-0.545c0.193-0.149,1.039-0.572,2.539-1.27l0.334-0.145c0.066-0.044,0.174-0.097,0.323-0.156
		c0.987-0.482,1.618-0.724,1.893-0.724c0.245,0,0.436,0.07,0.573,0.211c0.137,0.141,0.205,0.341,0.203,0.601
		c0,0.557-0.26,1.541-0.779,2.951c-0.119,0.342-0.213,0.611-0.284,0.807c-0.071,0.197-0.173,0.488-0.306,0.875
		c-0.037,0.141-0.078,0.285-0.123,0.434c-0.259,0.869-0.449,1.521-0.567,1.959c-0.015,0.053-0.065,0.229-0.15,0.529
		c-0.085,0.301-0.146,0.518-0.184,0.65c-0.037,0.135-0.078,0.271-0.123,0.412c-0.497,1.9-0.912,3.117-1.246,3.652
		c-0.111,0.17-0.241,0.322-0.39,0.457c-0.319,0.244-0.596,0.434-0.829,0.566c-0.234,0.135-0.457,0.229-0.668,0.285
		c-0.211,0.055-0.451,0.084-0.718,0.084c-0.386,0-0.729-0.113-1.029-0.34c-0.301-0.227-0.451-0.484-0.451-0.773
		c0-0.053,0.015-0.139,0.044-0.258C4.707,53.711,5.779,50.785,7.048,47.543z"/>
	<path fill="#FFFFFF" d="M15.488,52.029l0.178-0.223c0.504-0.764,0.861-1.332,1.068-1.703c0.209-0.371,0.375-0.762,0.502-1.17
		c0.186-0.563,0.277-1.15,0.277-1.758c0-0.625-0.076-1.092-0.229-1.404c-0.152-0.311-0.432-0.567-0.84-0.767
		c-0.52,0.75-0.779,1.699-0.779,2.849c0,0.445,0.07,0.902,0.211,1.369c0.061,0.172,0.09,0.287,0.09,0.346
		c0,0.215-0.115,0.322-0.346,0.322c-0.207,0-0.49-0.086-0.846-0.26c-0.355-0.176-0.627-0.355-0.813-0.541
		c-0.209-0.223-0.379-0.512-0.512-0.869c-0.135-0.355-0.201-0.734-0.201-1.135c0-0.564,0.117-1.102,0.35-1.614
		c0.234-0.513,0.563-0.958,0.986-1.336s0.926-0.673,1.508-0.885c0.584-0.211,1.201-0.317,1.855-0.317
		c0.652,0,1.248,0.143,1.785,0.428c0.539,0.286,0.967,0.679,1.287,1.18c0.318,0.5,0.479,1.044,0.479,1.63
		c0,0.438-0.084,0.904-0.252,1.4c-0.168,0.498-0.432,1.053-0.793,1.664s-0.824,1.285-1.389,2.02s-1.221,1.525-1.971,2.371
		l-0.223,0.268l-0.189,0.211c0.313,0.094,0.74,0.139,1.281,0.139c0.543,0,1.088-0.029,1.635-0.088
		c0.545-0.061,0.975-0.139,1.287-0.234c0.209-0.059,0.346-0.09,0.412-0.09c0.074,0,0.111,0.023,0.111,0.068
		c0,0.273-0.176,0.701-0.529,1.279c-0.352,0.578-0.721,1.059-1.107,1.436c-0.4,0.379-0.881,0.656-1.441,0.83
		s-1.252,0.262-2.076,0.262c-1.055,0-1.959-0.145-2.717-0.434c-0.757-0.291-1.136-0.639-1.136-1.047
		c0-0.283,0.382-0.846,1.147-1.693c0.541-0.615,1.035-1.227,1.48-1.836c0.029-0.045,0.061-0.09,0.096-0.135
		c0.033-0.043,0.063-0.086,0.088-0.127s0.061-0.098,0.105-0.172L15.488,52.029z"/>
</g>
</svg>
