<?xml version="1.0" encoding="utf-8"?>
<!-- Generator: Adobe Illustrator 16.0.0, SVG Export Plug-In . SVG Version: 6.00 Build 0)  -->
<!DOCTYPE svg PUBLIC "-//W3C//DTD SVG 1.1//EN" "http://www.w3.org/Graphics/SVG/1.1/DTD/svg11.dtd">
<svg version="1.1" id="Layer_1" xmlns="http://www.w3.org/2000/svg" xmlns:xlink="http://www.w3.org/1999/xlink" x="0px" y="0px"
	 width="25px" height="90px" viewBox="0 0 25 90" enable-background="new 0 0 25 90" xml:space="preserve">
<rect id="backgroundrect" fill="none" width="25" height="90"/>
<title>Layer 1</title>
<path id="svg_1" fill="#FFBD86" d="M25.296,89.519H0l0-70.368c0-2.923,0.861-5.783,2.476-8.22l5.623-8.487
	c2.158-3.257,6.94-3.257,9.098,0l5.623,8.486c1.614,2.438,2.476,5.296,2.476,8.221V89.519z"/>
<path id="svg_2" fill="#FCEE23" d="M20.172,16.274c-0.934,0.944-2.457,0.944-3.391,0l-1.91-1.933
	c-1.223-1.238-3.223-1.238-4.447,0.001l-1.91,1.932c-0.933,0.943-2.457,0.944-3.39,0l-3.613-3.657
	c-0.99,2.027-1.511,4.261-1.511,6.534l0,70.367h25.296V19.151c0-2.273-0.521-4.507-1.511-6.533L20.172,16.274z"/>
<path id="svg_3" fill="#394049" d="M6.82,89.518h11.656V16.982c-0.613,0-1.229-0.236-1.695-0.708l-1.909-1.932
	c-1.225-1.238-3.224-1.238-4.448,0l-1.909,1.932c-0.467,0.472-1.081,0.708-1.695,0.708L6.82,89.518z"/>
<path id="svg_4" fill="#FCEE23" d="M20.156,6.908l-2.959-4.464c-2.158-3.258-6.94-3.258-9.098,0L5.141,6.908
	c2.064,1.11,4.671,1.774,7.507,1.774C15.484,8.683,18.092,8.018,20.156,6.908z"/>
<g>
	<path fill="#FFFFFF" d="M6.108,47.293l0.223-0.547c-0.111,0.031-0.286,0.098-0.523,0.201c-0.512,0.215-0.839,0.322-0.98,0.322
		c-0.134,0-0.243-0.072-0.329-0.217c-0.085-0.145-0.128-0.332-0.128-0.563c0-0.191,0.048-0.422,0.145-0.689
		c0.096-0.268,0.2-0.449,0.312-0.545c0.193-0.148,1.039-0.571,2.539-1.27L7.7,43.841c0.066-0.044,0.174-0.097,0.323-0.156
		c0.987-0.482,1.618-0.724,1.893-0.724c0.245,0,0.436,0.07,0.573,0.211c0.137,0.141,0.205,0.341,0.203,0.601
		c0,0.557-0.26,1.54-0.779,2.951c-0.119,0.342-0.213,0.611-0.284,0.807c-0.071,0.197-0.173,0.488-0.306,0.875
		c-0.037,0.141-0.078,0.285-0.123,0.434c-0.259,0.869-0.449,1.521-0.567,1.959c-0.015,0.053-0.065,0.229-0.15,0.529
		c-0.085,0.301-0.146,0.518-0.184,0.65c-0.037,0.135-0.078,0.271-0.123,0.412c-0.497,1.9-0.912,3.117-1.246,3.652
		c-0.111,0.17-0.241,0.322-0.39,0.457c-0.319,0.244-0.596,0.434-0.829,0.566c-0.234,0.135-0.457,0.229-0.668,0.285
		c-0.211,0.055-0.451,0.084-0.718,0.084c-0.386,0-0.729-0.113-1.029-0.34c-0.301-0.227-0.451-0.484-0.451-0.773
		c0-0.053,0.015-0.139,0.044-0.258C3.766,53.461,4.839,50.535,6.108,47.293z"/>
	<path fill="#FFFFFF" d="M20.248,43.073h0.111c0.4,0,0.785,0.182,1.152,0.545s0.658,0.85,0.873,1.458
		c0.215,0.609,0.322,1.248,0.322,1.916c0,0.676-0.096,1.426-0.289,2.254s-0.451,1.623-0.773,2.389
		c-0.322,0.764-0.713,1.506-1.168,2.227c-0.457,0.719-0.93,1.316-1.42,1.793c-1.158,1.172-2.342,1.758-3.553,1.758
		c-0.809,0-1.521-0.201-2.137-0.607c-0.617-0.404-1.091-0.979-1.425-1.725s-0.501-1.602-0.501-2.566
		c0-1.662,0.347-3.256,1.041-4.781c0.694-1.525,1.612-2.759,2.756-3.702c1.143-0.942,2.318-1.414,3.529-1.414
		C19.354,42.617,19.848,42.769,20.248,43.073z M19.246,43.596l0.199-0.111l-0.043-0.044c-0.477,0.007-0.965,0.247-1.465,0.718
		c-0.502,0.472-0.951,1.078-1.354,1.82c-0.4,0.742-0.727,1.582-0.979,2.516c-0.252,0.936-0.379,1.818-0.379,2.65
		c0,0.602,0.105,1.219,0.316,1.854c0.213,0.635,0.48,1.164,0.803,1.586c0.322,0.424,0.633,0.635,0.93,0.635
		c0.23,0,0.471-0.154,0.723-0.461c0.252-0.309,0.482-0.744,0.691-1.309c0.215-0.541,0.4-1.109,0.557-1.703s0.273-1.18,0.355-1.76
		c0.082-0.578,0.123-1.105,0.123-1.58c0-0.75-0.121-1.465-0.361-2.145c-0.242-0.678-0.557-1.181-0.941-1.507
		c-0.074-0.052-0.111-0.104-0.111-0.156C18.311,44.427,18.623,44.094,19.246,43.596z"/>
</g>
</svg>
