<?xml version="1.0" encoding="utf-8"?>
<!-- Generator: Adobe Illustrator 16.0.0, SVG Export Plug-In . SVG Version: 6.00 Build 0)  -->
<!DOCTYPE svg PUBLIC "-//W3C//DTD SVG 1.1//EN" "http://www.w3.org/Graphics/SVG/1.1/DTD/svg11.dtd">
<svg version="1.1" id="Layer_1" xmlns="http://www.w3.org/2000/svg" xmlns:xlink="http://www.w3.org/1999/xlink" x="0px" y="0px"
	 width="25px" height="90px" viewBox="0 0 25 90" enable-background="new 0 0 25 90" xml:space="preserve">
<rect id="backgroundrect" fill="none" width="25" height="90"/>
<title>Layer 1</title>
<path id="svg_1" fill="#FFBD86" d="M25.296,89.519H0l0-70.368c0-2.923,0.861-5.783,2.476-8.22l5.623-8.487
	c2.158-3.257,6.94-3.257,9.098,0l5.623,8.486c1.614,2.438,2.476,5.296,2.476,8.221V89.519z"/>
<path id="svg_2" fill="#ABE1FA" d="M20.172,16.274c-0.934,0.944-2.457,0.944-3.391,0l-1.91-1.933
	c-1.223-1.238-3.223-1.238-4.447,0.001l-1.91,1.932c-0.933,0.943-2.457,0.944-3.39,0l-3.613-3.657
	c-0.99,2.027-1.511,4.261-1.511,6.534l0,70.367h25.296V19.151c0-2.273-0.521-4.507-1.511-6.533L20.172,16.274z"/>
<path id="svg_3" fill="#394049" d="M6.82,89.518h11.656V16.982c-0.613,0-1.229-0.236-1.695-0.708l-1.909-1.932
	c-1.225-1.238-3.224-1.238-4.448,0l-1.909,1.932c-0.467,0.472-1.081,0.708-1.695,0.708L6.82,89.518z"/>
<path id="svg_4" fill="#ABE1FA" d="M20.156,6.908l-2.959-4.464c-2.158-3.258-6.94-3.258-9.098,0L5.141,6.908
	c2.064,1.11,4.671,1.774,7.507,1.774C15.484,8.683,18.092,8.018,20.156,6.908z"/>
<g>
	<path fill="#FFFFFF" d="M13.195,50.289v0.055l-0.045-0.055c-0.64,0.422-1.172,0.715-1.599,0.879s-0.874,0.244-1.341,0.244
		c-0.78,0-1.416-0.271-1.91-0.818c-0.494-0.545-0.74-1.252-0.74-2.121c0-0.971,0.304-1.92,0.913-2.844
		c0.608-0.924,1.403-1.675,2.382-2.254c0.979-0.579,1.963-0.864,2.951-0.857c1.084,0,2.02,0.386,2.805,1.158
		c0.898,0.898,1.348,2.124,1.348,3.674c0,1.113-0.277,2.26-0.834,3.439s-1.293,2.26-2.205,3.24c-0.912,0.979-1.926,1.768-3.04,2.365
		s-2.19,0.896-3.229,0.896c-0.237,0-0.406-0.025-0.506-0.078c-0.1-0.051-0.15-0.148-0.15-0.289c0-0.074,0.039-0.146,0.117-0.217
		c0.078-0.07,0.198-0.143,0.362-0.217c0.616-0.268,1.223-0.705,1.82-1.314c0.597-0.609,1.15-1.338,1.659-2.188
		C12.461,52.139,12.875,51.238,13.195,50.289z M13.439,49.676c0.297-0.713,0.523-1.424,0.68-2.133
		c0.154-0.707,0.232-1.381,0.232-2.02c0-0.564-0.086-1.013-0.262-1.347c-0.174-0.334-0.406-0.501-0.695-0.501
		c-0.119,0-0.271,0.054-0.457,0.161c-0.186,0.108-0.353,0.24-0.501,0.396c-0.394,0.408-0.704,0.883-0.93,1.424
		c-0.227,0.543-0.34,1.07-0.34,1.582c0,0.623,0.21,1.162,0.629,1.613C12.216,49.305,12.763,49.58,13.439,49.676z"/>
</g>
</svg>
