<?xml version="1.0" encoding="utf-8"?>
<!-- Generator: Adobe Illustrator 16.0.0, SVG Export Plug-In . SVG Version: 6.00 Build 0)  -->
<!DOCTYPE svg PUBLIC "-//W3C//DTD SVG 1.1//EN" "http://www.w3.org/Graphics/SVG/1.1/DTD/svg11.dtd">
<svg version="1.1" id="Layer_1" xmlns="http://www.w3.org/2000/svg" xmlns:xlink="http://www.w3.org/1999/xlink" x="0px" y="0px"
	 width="25px" height="90px" viewBox="0 0 25 90" enable-background="new 0 0 25 90" xml:space="preserve">
<rect id="backgroundrect" fill="none" width="25" height="90"/>
<title>Layer 1</title>
<path id="svg_1" fill="#FFBD86" d="M25.296,89.519H0l0-70.368c0-2.923,0.861-5.783,2.476-8.22l5.623-8.487
	c2.158-3.257,6.94-3.257,9.098,0l5.623,8.486c1.614,2.438,2.476,5.296,2.476,8.221V89.519z"/>
<path id="svg_2" fill="#DEDFE0" d="M20.172,16.274c-0.934,0.944-2.457,0.944-3.391,0l-1.91-1.933
	c-1.223-1.238-3.223-1.238-4.447,0.001l-1.91,1.932c-0.933,0.943-2.457,0.944-3.39,0l-3.614-3.657
	c-0.99,2.027-1.51,4.261-1.51,6.534l0,70.367h25.296V19.151c0-2.273-0.521-4.507-1.512-6.533L20.172,16.274z"/>
<path id="svg_3" fill="#394049" d="M6.82,89.518h11.657V16.982c-0.614,0-1.229-0.236-1.695-0.708l-1.909-1.932
	c-1.225-1.238-3.225-1.238-4.448,0l-1.909,1.932c-0.467,0.472-1.081,0.708-1.695,0.708V89.518z"/>
<path id="svg_4" fill="#DEDFE0" d="M20.156,6.908l-2.959-4.464c-2.158-3.258-6.94-3.258-9.098,0L5.141,6.908
	c2.064,1.11,4.671,1.774,7.507,1.774C15.484,8.683,18.092,8.018,20.156,6.908z"/>
<g>
	<path fill="#FFFFFF" d="M6.347,47.043l0.223-0.547c-0.111,0.031-0.286,0.098-0.523,0.201c-0.512,0.215-0.839,0.322-0.98,0.322
		c-0.134,0-0.243-0.072-0.329-0.217C4.653,46.658,4.61,46.471,4.61,46.24c0-0.191,0.048-0.422,0.145-0.689
		c0.096-0.267,0.2-0.449,0.312-0.545c0.193-0.148,1.039-0.571,2.539-1.27l0.334-0.145c0.066-0.044,0.174-0.097,0.323-0.156
		c0.987-0.482,1.618-0.724,1.893-0.724c0.245,0,0.436,0.07,0.573,0.211c0.137,0.141,0.205,0.341,0.203,0.601
		c0,0.557-0.26,1.54-0.779,2.951c-0.119,0.342-0.213,0.611-0.284,0.807c-0.071,0.197-0.173,0.488-0.306,0.875
		c-0.037,0.141-0.078,0.285-0.123,0.434c-0.259,0.869-0.449,1.521-0.567,1.959c-0.015,0.053-0.065,0.229-0.15,0.529
		c-0.085,0.301-0.146,0.518-0.184,0.65C8.501,51.863,8.461,52,8.416,52.141c-0.497,1.9-0.912,3.117-1.246,3.652
		c-0.111,0.17-0.241,0.322-0.39,0.457c-0.319,0.244-0.596,0.434-0.829,0.566c-0.234,0.135-0.457,0.229-0.668,0.285
		c-0.211,0.055-0.451,0.084-0.718,0.084c-0.386,0-0.729-0.113-1.029-0.34c-0.301-0.227-0.451-0.484-0.451-0.773
		c0-0.053,0.015-0.139,0.044-0.258C4.005,53.211,5.078,50.285,6.347,47.043z"/>
	<path fill="#FFFFFF" d="M17.926,46.496l-0.678,0.791l0.043,0.045c0.994-0.652,1.846-0.98,2.551-0.98c0.533,0,1.01,0.131,1.43,0.391
		s0.746,0.613,0.98,1.063c0.232,0.449,0.35,0.963,0.35,1.543c0,0.697-0.115,1.418-0.344,2.164c-0.23,0.746-0.557,1.467-0.98,2.16
		c-0.424,0.695-0.916,1.313-1.48,1.854c-0.506,0.49-1.129,0.879-1.871,1.164s-1.469,0.428-2.182,0.428
		c-1.373,0-2.42-0.291-3.14-0.873c-0.72-0.582-1.08-1.432-1.08-2.545c0-0.986,0.319-2.207,0.957-3.662
		c0.64-1.455,1.626-3.207,2.962-5.254c0.527-0.839,0.961-1.44,1.303-1.804c0.17-0.186,0.33-0.315,0.479-0.39
		s0.383-0.134,0.701-0.178c0.557-0.089,1.121-0.134,1.693-0.134c0.867,0,1.303,0.234,1.303,0.702c0,0.237-0.275,0.601-0.824,1.091
		c-0.32,0.268-0.836,0.831-1.549,1.692L17.926,46.496z M16.68,48.5c-0.26,0-0.527,0.152-0.803,0.457
		c-0.273,0.305-0.498,0.693-0.672,1.164c-0.176,0.471-0.262,0.934-0.262,1.385c0,0.609,0.115,1.178,0.35,1.705
		c0.234,0.525,0.557,0.947,0.969,1.264c0.412,0.314,0.84,0.473,1.285,0.473c0.238,0,0.428-0.066,0.568-0.201
		c0.238-0.273,0.432-0.719,0.584-1.336c0.152-0.615,0.229-1.271,0.229-1.971c0-0.615-0.09-1.145-0.271-1.586
		c-0.184-0.441-0.439-0.777-0.77-1.008S17.154,48.5,16.68,48.5z"/>
</g>
</svg>
