<?xml version="1.0" encoding="utf-8"?>
<!-- Generator: Adobe Illustrator 16.0.0, SVG Export Plug-In . SVG Version: 6.00 Build 0)  -->
<!DOCTYPE svg PUBLIC "-//W3C//DTD SVG 1.1//EN" "http://www.w3.org/Graphics/SVG/1.1/DTD/svg11.dtd">
<svg version="1.1" id="Layer_1" xmlns="http://www.w3.org/2000/svg" xmlns:xlink="http://www.w3.org/1999/xlink" x="0px" y="0px"
	 width="25px" height="90px" viewBox="0 0 25 90" enable-background="new 0 0 25 90" xml:space="preserve">
<rect id="backgroundrect" fill="none" width="25" height="90"/>
<title>Layer 1</title>
<path id="svg_1" fill="#FFBD86" d="M25.296,89.519H0l0-70.368c0-2.923,0.861-5.783,2.476-8.22l5.623-8.487
	c2.158-3.257,6.94-3.257,9.098,0l5.623,8.486c1.614,2.438,2.476,5.296,2.476,8.221V89.519z"/>
<path id="svg_2" fill="#F15A22" d="M20.172,16.274c-0.934,0.944-2.457,0.944-3.391,0l-1.91-1.933
	c-1.223-1.238-3.223-1.238-4.447,0.001l-1.91,1.932c-0.933,0.943-2.457,0.944-3.39,0l-3.613-3.657
	c-0.99,2.027-1.511,4.261-1.511,6.534l0,70.367h25.296V19.151c0-2.273-0.521-4.507-1.511-6.533L20.172,16.274z"/>
<path id="svg_3" fill="#394049" d="M6.819,89.518h11.656l0.001-72.536c-0.615,0-1.229-0.236-1.695-0.708l-1.91-1.932
	c-1.225-1.238-3.224-1.238-4.448,0l-1.909,1.932c-0.466,0.472-1.081,0.708-1.695,0.708L6.819,89.518z"/>
<path id="svg_4" fill="#F15A22" d="M20.156,6.908l-2.959-4.464c-2.158-3.258-6.94-3.258-9.098,0L5.141,6.908
	c2.064,1.11,4.671,1.774,7.507,1.774C15.484,8.683,18.092,8.018,20.156,6.908z"/>
<g>
	<path fill="#FFFFFF" d="M12.451,52.112l-0.757,0.044c-1.092,0.074-1.768,0.111-2.028,0.111c-0.453,0-0.808-0.023-1.064-0.072
		c-0.256-0.048-0.427-0.134-0.513-0.256s-0.128-0.303-0.128-0.54c0-0.186,0.054-0.449,0.161-0.79
		c0.108-0.342,0.317-0.906,0.629-1.692c0.252-0.616,0.441-1.103,0.567-1.459c0.394-1.023,0.705-1.763,0.936-2.215
		c0.074-0.142,0.139-0.258,0.195-0.351s0.121-0.202,0.195-0.329c0.245-0.386,0.542-0.69,0.891-0.913
		c0.794-0.534,1.547-0.802,2.26-0.802c0.564,0,0.846,0.138,0.846,0.412c0,0.364-0.709,1.551-2.126,3.563
		c-0.69,0.979-1.292,1.889-1.803,2.728l2.605-0.134c0.186-0.616,0.432-1.123,0.74-1.52c0.309-0.397,0.697-0.692,1.166-0.886
		c0.467-0.192,1.01-0.289,1.627-0.289c0.318,0,0.543,0.035,0.674,0.106c0.131,0.07,0.195,0.188,0.195,0.352
		c0,0.148-0.057,0.404-0.168,0.768c-0.111,0.364-0.258,0.794-0.443,1.291l-0.09,0.222c0.148-0.015,0.246-0.023,0.293-0.027
		c0.049-0.004,0.109-0.01,0.184-0.017c0.066-0.008,0.123-0.013,0.172-0.017c0.047-0.004,0.102-0.006,0.16-0.006
		c0.17,0,0.254,0.045,0.254,0.134c0,0.029-0.006,0.052-0.021,0.066c-0.133,0.297-0.318,0.618-0.555,0.963
		c-0.236,0.346-0.455,0.618-0.654,0.818c-0.156,0.186-0.359,0.315-0.611,0.39c-0.162,0.535-0.467,1.561-0.912,3.075
		c-0.016,0.066-0.031,0.156-0.051,0.267c-0.018,0.111-0.031,0.189-0.039,0.234c-0.111,0.615-0.256,1.005-0.434,1.168
		c-0.588,0.349-1.104,0.605-1.551,0.772c-0.445,0.167-0.88,0.251-1.303,0.251c-0.305,0-0.576-0.074-0.814-0.223
		s-0.357-0.323-0.357-0.523c0-0.193,0.078-0.544,0.234-1.053c0.156-0.508,0.383-1.131,0.681-1.87
		C11.99,53.127,12.243,52.543,12.451,52.112z"/>
</g>
</svg>
