<?xml version="1.0" encoding="utf-8"?>
<!-- Generator: Adobe Illustrator 16.0.0, SVG Export Plug-In . SVG Version: 6.00 Build 0)  -->
<!DOCTYPE svg PUBLIC "-//W3C//DTD SVG 1.1//EN" "http://www.w3.org/Graphics/SVG/1.1/DTD/svg11.dtd">
<svg version="1.1" id="Layer_1" xmlns="http://www.w3.org/2000/svg" xmlns:xlink="http://www.w3.org/1999/xlink" x="0px" y="0px"
	 width="25px" height="90px" viewBox="0 0 25 90" enable-background="new 0 0 25 90" xml:space="preserve">
<rect id="backgroundrect" fill="none" width="25" height="90"/>
<title>Layer 1</title>
<path id="svg_1" fill="#FFBD86" d="M25.296,89.519H0l0-70.368c0-2.923,0.861-5.783,2.476-8.22l5.623-8.487
	c2.158-3.257,6.94-3.257,9.098,0l5.623,8.486c1.614,2.438,2.476,5.296,2.476,8.221V89.519z"/>
<path id="svg_2" fill="#2F2D2C" d="M20.172,16.274c-0.934,0.944-2.457,0.944-3.391,0l-1.91-1.933
	c-1.223-1.238-3.223-1.238-4.447,0.001l-1.91,1.932c-0.933,0.943-2.457,0.944-3.39,0l-3.614-3.657
	c-0.99,2.027-1.51,4.261-1.51,6.534l0,70.367h25.296V19.151c0-2.273-0.521-4.507-1.512-6.533L20.172,16.274z"/>
<path id="svg_3" fill="#394049" d="M6.82,89.518h11.657V16.982c-0.614,0-1.229-0.236-1.695-0.708l-1.909-1.932
	c-1.225-1.238-3.225-1.238-4.448,0l-1.909,1.932c-0.467,0.472-1.081,0.708-1.695,0.708V89.518z"/>
<path id="svg_4" fill="#2F2D2C" d="M20.156,6.908l-2.959-4.464c-2.158-3.258-6.94-3.258-9.098,0L5.141,6.908
	c2.064,1.11,4.671,1.774,7.507,1.774C15.484,8.683,18.092,8.018,20.156,6.908z"/>
<g>
	<path fill="#FFFFFF" d="M6.837,47.293l0.223-0.547c-0.111,0.031-0.286,0.098-0.523,0.201c-0.512,0.215-0.839,0.322-0.98,0.322
		c-0.134,0-0.243-0.072-0.329-0.217C5.143,46.908,5.1,46.721,5.1,46.49c0-0.191,0.048-0.422,0.145-0.689
		c0.096-0.268,0.2-0.449,0.312-0.545c0.193-0.148,1.039-0.571,2.539-1.27l0.334-0.145c0.066-0.044,0.174-0.097,0.323-0.156
		c0.987-0.482,1.618-0.724,1.893-0.724c0.245,0,0.436,0.07,0.573,0.211c0.137,0.141,0.205,0.341,0.203,0.601
		c0,0.557-0.26,1.54-0.779,2.951c-0.119,0.342-0.213,0.611-0.284,0.807c-0.071,0.197-0.173,0.488-0.306,0.875
		c-0.037,0.141-0.078,0.285-0.123,0.434c-0.259,0.869-0.449,1.521-0.567,1.959c-0.015,0.053-0.065,0.229-0.15,0.529
		c-0.085,0.301-0.146,0.518-0.184,0.65c-0.037,0.135-0.078,0.271-0.123,0.412c-0.497,1.9-0.912,3.117-1.246,3.652
		c-0.111,0.17-0.241,0.322-0.39,0.457c-0.319,0.244-0.596,0.434-0.829,0.566c-0.234,0.135-0.457,0.229-0.668,0.285
		c-0.211,0.055-0.451,0.084-0.718,0.084c-0.386,0-0.729-0.113-1.029-0.34c-0.301-0.227-0.451-0.484-0.451-0.773
		c0-0.053,0.015-0.139,0.044-0.258C4.495,53.461,5.568,50.535,6.837,47.293z"/>
	<path fill="#FFFFFF" d="M15.99,49.273l2.068-4.286c-0.066-0.015-0.152-0.022-0.256-0.022c-0.4,0-1.168,0.197-2.305,0.591
		c-0.586,0.207-1.041,0.354-1.363,0.439c-0.322,0.084-0.596,0.127-0.818,0.127c-0.416,0-0.624-0.158-0.624-0.479
		c0-0.267,0.108-0.625,0.323-1.074s0.467-0.852,0.756-1.208c0.193-0.245,0.371-0.408,0.535-0.49
		c0.162-0.082,0.408-0.123,0.734-0.123c0.141,0,0.256,0.008,0.344,0.022l2.504,0.044c1.684,0.044,2.848,0.204,3.494,0.478
		c0.236,0.119,0.355,0.293,0.355,0.522c0,0.208-0.137,0.597-0.412,1.169l-1.988,4.266h0.213h0.551h0.348
		c0.381,0,0.572,0.045,0.572,0.133c0,0.164-0.084,0.395-0.252,0.695s-0.344,0.539-0.529,0.717c-0.439,0.461-1.133,0.793-2.076,1.002
		l-1.498,3.676c-0.029,0.088-0.063,0.182-0.1,0.277c-0.111,0.299-0.23,0.518-0.355,0.658c-0.334,0.289-0.768,0.525-1.297,0.707
		c-0.531,0.182-1.057,0.273-1.576,0.273c-0.341,0-0.61-0.063-0.807-0.189c-0.196-0.127-0.294-0.289-0.294-0.49
		c0-0.23,0.246-0.779,0.737-1.648c0.022-0.037,0.042-0.068,0.055-0.094c0.016-0.025,0.035-0.061,0.057-0.105l1.463-2.65h-0.135
		c-0.088,0.016-0.219,0.023-0.391,0.023c-0.643,0-0.963-0.242-0.963-0.725c0-0.156,0.059-0.393,0.178-0.713
		c0.303-0.682,0.555-1.117,0.754-1.303c0.104-0.104,0.408-0.154,0.91-0.154C15.221,49.342,15.584,49.318,15.99,49.273z"/>
</g>
</svg>
