<?xml version="1.0" encoding="utf-8"?>
<!-- Generator: Adobe Illustrator 16.0.0, SVG Export Plug-In . SVG Version: 6.00 Build 0)  -->
<!DOCTYPE svg PUBLIC "-//W3C//DTD SVG 1.1//EN" "http://www.w3.org/Graphics/SVG/1.1/DTD/svg11.dtd">
<svg version="1.1" id="Layer_1" xmlns="http://www.w3.org/2000/svg" xmlns:xlink="http://www.w3.org/1999/xlink" x="0px" y="0px"
	 width="25px" height="90px" viewBox="0 0 25 90" enable-background="new 0 0 25 90" xml:space="preserve">
<rect id="backgroundrect" fill="none" width="25" height="90"/>
<title>Layer 1</title>
<path id="svg_1" fill="#FFBD86" d="M25.296,89.519H0l0-70.368c0-2.923,0.861-5.783,2.476-8.22l5.623-8.487
	c2.158-3.257,6.94-3.257,9.098,0l5.623,8.486c1.614,2.438,2.476,5.296,2.476,8.221V89.519z"/>
<path id="svg_2" fill="#4D4D4D" d="M20.172,16.274c-0.934,0.944-2.457,0.944-3.391,0l-1.91-1.933
	c-1.223-1.238-3.223-1.238-4.447,0.001l-1.91,1.932c-0.933,0.943-2.457,0.944-3.39,0l-3.614-3.657
	c-0.99,2.027-1.51,4.261-1.51,6.534l0,70.367h25.296V19.151c0-2.273-0.521-4.507-1.512-6.533L20.172,16.274z"/>
<path id="svg_3" fill="#394049" d="M6.82,89.518h11.657V16.982c-0.614,0-1.229-0.236-1.695-0.708l-1.909-1.932
	c-1.225-1.238-3.225-1.238-4.448,0l-1.909,1.932c-0.467,0.472-1.081,0.708-1.695,0.708V89.518z"/>
<path id="svg_4" fill="#4D4D4D" d="M20.156,6.908l-2.959-4.464c-2.158-3.258-6.94-3.258-9.098,0L5.141,6.908
	c2.064,1.11,4.671,1.774,7.507,1.774C15.484,8.683,18.092,8.018,20.156,6.908z"/>
<g>
	<path fill="#FFFFFF" d="M6.57,47.793l0.223-0.547c-0.111,0.031-0.286,0.098-0.523,0.201c-0.512,0.215-0.839,0.322-0.98,0.322
		c-0.134,0-0.243-0.072-0.329-0.217c-0.085-0.145-0.128-0.332-0.128-0.563c0-0.191,0.048-0.422,0.145-0.689
		c0.096-0.268,0.2-0.449,0.312-0.545c0.193-0.148,1.039-0.572,2.539-1.27l0.334-0.145c0.066-0.044,0.174-0.097,0.323-0.156
		c0.987-0.482,1.618-0.724,1.893-0.724c0.245,0,0.436,0.07,0.573,0.211c0.137,0.141,0.205,0.341,0.203,0.601
		c0,0.557-0.26,1.541-0.779,2.951c-0.119,0.342-0.213,0.611-0.284,0.807c-0.071,0.197-0.173,0.488-0.306,0.875
		c-0.037,0.141-0.078,0.285-0.123,0.434c-0.259,0.869-0.449,1.521-0.567,1.959c-0.015,0.053-0.065,0.229-0.15,0.529
		c-0.085,0.301-0.146,0.518-0.184,0.65c-0.037,0.135-0.078,0.271-0.123,0.412c-0.497,1.9-0.912,3.117-1.246,3.652
		c-0.111,0.17-0.241,0.322-0.39,0.457c-0.319,0.244-0.596,0.434-0.829,0.566c-0.234,0.135-0.457,0.229-0.668,0.285
		c-0.211,0.055-0.451,0.084-0.718,0.084c-0.386,0-0.729-0.113-1.029-0.34c-0.301-0.227-0.451-0.484-0.451-0.773
		c0-0.053,0.015-0.139,0.044-0.258C4.228,53.961,5.301,51.035,6.57,47.793z"/>
	<path fill="#FFFFFF" d="M16.561,52.514l-0.758,0.043c-1.092,0.074-1.768,0.111-2.027,0.111c-0.453,0-0.809-0.023-1.065-0.072
		c-0.256-0.047-0.427-0.133-0.513-0.256c-0.085-0.121-0.128-0.303-0.128-0.539c0-0.186,0.054-0.449,0.161-0.791
		c0.108-0.342,0.317-0.906,0.629-1.691c0.253-0.617,0.442-1.104,0.567-1.459c0.395-1.023,0.705-1.764,0.936-2.215
		c0.074-0.143,0.139-0.258,0.195-0.351c0.055-0.093,0.121-0.202,0.195-0.329c0.244-0.386,0.541-0.69,0.891-0.913
		c0.793-0.534,1.547-0.802,2.26-0.802c0.564,0,0.846,0.138,0.846,0.412c0,0.364-0.709,1.551-2.127,3.563
		c-0.689,0.98-1.291,1.889-1.803,2.729l2.605-0.135c0.186-0.615,0.432-1.123,0.74-1.52s0.697-0.691,1.166-0.885
		c0.467-0.193,1.01-0.289,1.627-0.289c0.318,0,0.543,0.035,0.674,0.105s0.195,0.188,0.195,0.352c0,0.148-0.057,0.404-0.168,0.768
		c-0.111,0.365-0.258,0.795-0.443,1.291l-0.09,0.223c0.148-0.016,0.246-0.023,0.293-0.027c0.049-0.004,0.109-0.01,0.184-0.018
		c0.066-0.008,0.123-0.012,0.172-0.016c0.047-0.004,0.102-0.006,0.16-0.006c0.17,0,0.254,0.045,0.254,0.133
		c0,0.029-0.006,0.053-0.021,0.066c-0.133,0.297-0.318,0.619-0.555,0.963c-0.236,0.346-0.455,0.619-0.654,0.818
		c-0.156,0.186-0.359,0.316-0.611,0.391c-0.162,0.535-0.467,1.561-0.912,3.074c-0.016,0.066-0.031,0.156-0.051,0.268
		c-0.018,0.111-0.031,0.189-0.039,0.234c-0.111,0.615-0.256,1.004-0.434,1.168c-0.588,0.348-1.104,0.605-1.551,0.771
		c-0.445,0.168-0.881,0.252-1.305,0.252c-0.305,0-0.574-0.074-0.813-0.223s-0.357-0.324-0.357-0.523
		c0-0.193,0.078-0.545,0.234-1.053s0.383-1.131,0.68-1.871C16.1,53.527,16.352,52.943,16.561,52.514z"/>
</g>
</svg>
