<?xml version="1.0" encoding="utf-8"?>
<!-- Generator: Adobe Illustrator 16.0.0, SVG Export Plug-In . SVG Version: 6.00 Build 0)  -->
<!DOCTYPE svg PUBLIC "-//W3C//DTD SVG 1.1//EN" "http://www.w3.org/Graphics/SVG/1.1/DTD/svg11.dtd">
<svg version="1.1" id="Layer_1" xmlns="http://www.w3.org/2000/svg" xmlns:xlink="http://www.w3.org/1999/xlink" x="0px" y="0px"
	 width="25px" height="90px" viewBox="0 0 25 90" enable-background="new 0 0 25 90" xml:space="preserve">
<rect id="backgroundrect" fill="none" width="25" height="90"/>
<title>Layer 1</title>
<path id="svg_1" fill="#FFBD86" d="M25.296,89.519H0l0-70.368c0-2.923,0.861-5.783,2.476-8.22l5.623-8.487
	c2.158-3.257,6.94-3.257,9.098,0l5.623,8.486c1.614,2.438,2.476,5.296,2.476,8.221V89.519z"/>
<path id="svg_2" fill="#4598D3" d="M20.172,16.274c-0.934,0.944-2.457,0.944-3.391,0l-1.91-1.933
	c-1.223-1.238-3.223-1.238-4.447,0.001l-1.91,1.932c-0.933,0.943-2.457,0.944-3.39,0l-3.613-3.657
	c-0.99,2.027-1.511,4.261-1.511,6.534l0,70.367h25.296V19.151c0-2.273-0.521-4.507-1.511-6.533L20.172,16.274z"/>
<path id="svg_3" fill="#394049" d="M6.82,89.518h11.656V16.982c-0.613,0-1.229-0.236-1.695-0.708l-1.909-1.932
	c-1.225-1.238-3.224-1.238-4.448,0l-1.909,1.932c-0.467,0.472-1.081,0.708-1.695,0.708L6.82,89.518z"/>
<path id="svg_4" fill="#4598D3" d="M20.156,6.908l-2.959-4.464c-2.158-3.258-6.94-3.258-9.098,0L5.141,6.908
	c2.064,1.11,4.671,1.774,7.507,1.774C15.484,8.683,18.092,8.018,20.156,6.908z"/>
<g>
	<path fill="#FFFFFF" d="M10.738,50.179l0.846-0.579c-0.779-0.698-1.343-1.344-1.692-1.938c-0.349-0.595-0.523-1.203-0.523-1.826
		c0-0.52,0.119-1.018,0.356-1.492c0.237-0.475,0.571-0.896,1.002-1.264c0.43-0.367,0.93-0.653,1.497-0.857
		c0.568-0.204,1.16-0.306,1.775-0.306c0.943,0,1.414,0.16,1.414,0.479c0,0.104-0.115,0.167-0.346,0.189
		c-0.459,0.082-0.83,0.316-1.113,0.702c-0.215,0.282-0.402,0.642-0.563,1.081c-0.158,0.438-0.238,0.824-0.238,1.158
		c-0.002,0.772,0.301,1.381,0.912,1.825c0.416-0.438,0.744-0.897,0.986-1.381c0.24-0.482,0.361-0.936,0.361-1.358
		c0-0.408-0.115-0.742-0.346-1.002c-0.059-0.06-0.088-0.108-0.088-0.146c0-0.118,0.129-0.259,0.389-0.422
		c0.395-0.26,0.799-0.39,1.213-0.39c0.275,0,0.531,0.069,0.77,0.206c0.236,0.138,0.418,0.331,0.545,0.579
		c0.127,0.249,0.189,0.533,0.189,0.852c0,0.676-0.205,1.32-0.613,1.933c-0.408,0.613-1.117,1.339-2.127,2.178
		c0.609,0.6,1.055,1.171,1.338,1.712c0.281,0.542,0.422,1.088,0.422,1.637c0,0.608-0.162,1.214-0.488,1.814
		c-0.328,0.602-0.768,1.146-1.32,1.631c-0.553,0.486-1.17,0.873-1.854,1.158c-0.683,0.286-1.354,0.429-2.015,0.429
		c-1.054,0-1.908-0.264-2.561-0.79c-0.653-0.527-0.979-1.214-0.979-2.06c0-0.705,0.198-1.317,0.595-1.837
		S9.632,50.936,10.738,50.179z M12.865,50.578c-0.467,0.408-0.831,0.905-1.091,1.492c-0.26,0.586-0.39,1.198-0.39,1.837
		c0,0.489,0.059,0.872,0.178,1.146c0.119,0.274,0.286,0.412,0.501,0.412c0.082,0,0.186-0.031,0.312-0.095s0.219-0.124,0.278-0.184
		c0.319-0.319,0.601-0.742,0.847-1.27c0.244-0.526,0.367-0.976,0.367-1.347c0-0.468-0.09-0.874-0.268-1.219
		C13.422,51.007,13.176,50.749,12.865,50.578z"/>
</g>
</svg>
