<?xml version="1.0" encoding="utf-8"?>
<!-- Generator: Adobe Illustrator 16.0.0, SVG Export Plug-In . SVG Version: 6.00 Build 0)  -->
<!DOCTYPE svg PUBLIC "-//W3C//DTD SVG 1.1//EN" "http://www.w3.org/Graphics/SVG/1.1/DTD/svg11.dtd">
<svg version="1.1" id="Layer_1" xmlns="http://www.w3.org/2000/svg" xmlns:xlink="http://www.w3.org/1999/xlink" x="0px" y="0px"
	 width="25px" height="90px" viewBox="0 0 25 90" enable-background="new 0 0 25 90" xml:space="preserve">
<rect id="backgroundrect" fill="none" width="25" height="90"/>
<title>Layer 1</title>
<path id="svg_1" fill="#FFBD86" d="M25.296,89.519H0l0-70.368c0-2.923,0.861-5.783,2.476-8.22l5.623-8.487
	c2.158-3.257,6.94-3.257,9.098,0l5.623,8.486c1.614,2.438,2.476,5.296,2.476,8.221V89.519z"/>
<path id="svg_2" fill="#0D73BB" d="M20.172,16.274c-0.934,0.944-2.457,0.944-3.391,0l-1.91-1.933
	c-1.223-1.238-3.223-1.238-4.447,0.001l-1.91,1.932c-0.933,0.943-2.457,0.944-3.39,0l-3.613-3.657
	c-0.99,2.027-1.511,4.261-1.511,6.534l0,70.367h25.296V19.151c0-2.273-0.521-4.507-1.511-6.533L20.172,16.274z"/>
<path id="svg_3" fill="#394049" d="M6.82,89.518h11.656V16.982c-0.613,0-1.229-0.236-1.695-0.708l-1.909-1.932
	c-1.224-1.238-3.224-1.238-4.448,0l-1.909,1.932c-0.467,0.472-1.081,0.708-1.695,0.708L6.82,89.518z"/>
<path id="svg_4" fill="#0D73BB" d="M20.156,6.908l-2.959-4.464c-2.158-3.258-6.94-3.258-9.098,0L5.141,6.908
	c2.064,1.11,4.671,1.774,7.507,1.774C15.484,8.683,18.092,8.018,20.156,6.908z"/>
<g>
	<path fill="#FFFFFF" d="M11.4,50.608l2.069-4.286c-0.066-0.015-0.152-0.022-0.256-0.022c-0.402,0-1.169,0.197-2.305,0.591
		c-0.586,0.207-1.041,0.354-1.364,0.439s-0.596,0.128-0.818,0.128c-0.416,0-0.624-0.159-0.624-0.479
		c0-0.268,0.108-0.625,0.323-1.074c0.215-0.449,0.467-0.852,0.757-1.208c0.192-0.245,0.371-0.408,0.534-0.49
		c0.164-0.082,0.408-0.123,0.734-0.123c0.141,0,0.256,0.008,0.345,0.022l2.504,0.044c1.684,0.044,2.848,0.204,3.492,0.478
		c0.238,0.119,0.357,0.293,0.357,0.522c0,0.208-0.139,0.597-0.414,1.169l-1.986,4.266h0.213h0.549h0.348
		c0.381,0,0.572,0.045,0.572,0.134c0,0.163-0.084,0.395-0.252,0.695c-0.166,0.3-0.344,0.539-0.529,0.717
		c-0.439,0.46-1.131,0.793-2.076,1.001l-1.498,3.676c-0.03,0.089-0.063,0.183-0.1,0.278c-0.111,0.298-0.229,0.517-0.356,0.657
		c-0.334,0.29-0.766,0.525-1.296,0.708c-0.531,0.182-1.056,0.272-1.575,0.272c-0.341,0-0.61-0.063-0.807-0.189
		c-0.196-0.126-0.294-0.289-0.294-0.489c0-0.23,0.246-0.779,0.737-1.648c0.022-0.037,0.041-0.068,0.056-0.095
		c0.015-0.025,0.034-0.061,0.056-0.105l1.463-2.649H9.824c-0.09,0.015-0.22,0.022-0.392,0.022c-0.642,0-0.962-0.241-0.962-0.724
		c0-0.156,0.059-0.394,0.178-0.713c0.303-0.683,0.555-1.117,0.754-1.303c0.104-0.104,0.407-0.155,0.91-0.155
		C10.63,50.676,10.993,50.653,11.4,50.608z"/>
</g>
</svg>
