<?xml version="1.0" encoding="utf-8"?>
<!-- Generator: Adobe Illustrator 16.0.0, SVG Export Plug-In . SVG Version: 6.00 Build 0)  -->
<!DOCTYPE svg PUBLIC "-//W3C//DTD SVG 1.1//EN" "http://www.w3.org/Graphics/SVG/1.1/DTD/svg11.dtd">
<svg version="1.1" id="Layer_1" xmlns="http://www.w3.org/2000/svg" xmlns:xlink="http://www.w3.org/1999/xlink" x="0px" y="0px"
	 width="25px" height="90px" viewBox="0 0 25 90" enable-background="new 0 0 25 90" xml:space="preserve">
<rect id="backgroundrect" fill="none" width="25" height="90"/>
<title>Layer 1</title>
<path id="svg_1" fill="#FFBD86" d="M25.296,89.519H0l0-70.368c0-2.923,0.861-5.783,2.476-8.22l5.623-8.487
	c2.158-3.257,6.94-3.257,9.098,0l5.623,8.486c1.614,2.438,2.476,5.296,2.476,8.221V89.519z"/>
<path id="svg_2" fill="#FFC0FF" d="M20.172,16.274c-0.934,0.944-2.457,0.944-3.391,0l-1.91-1.933
	c-1.223-1.238-3.223-1.238-4.447,0.001l-1.91,1.932c-0.933,0.943-2.457,0.944-3.39,0l-3.614-3.657
	c-0.99,2.027-1.51,4.261-1.51,6.534l0,70.367h25.296V19.151c0-2.273-0.521-4.507-1.512-6.533L20.172,16.274z"/>
<path id="svg_3" fill="#394049" d="M6.82,89.518h11.657V16.982c-0.614,0-1.229-0.236-1.695-0.708l-1.909-1.932
	c-1.225-1.238-3.225-1.238-4.448,0l-1.909,1.932c-0.467,0.472-1.081,0.708-1.695,0.708V89.518z"/>
<path id="svg_4" fill="#FFC0FF" d="M20.156,6.908l-2.959-4.464c-2.158-3.258-6.94-3.258-9.098,0L5.141,6.908
	c2.064,1.11,4.671,1.774,7.507,1.774C15.484,8.683,18.092,8.018,20.156,6.908z"/>
<g>
	<path fill="#FFFFFF" d="M5.013,52.246l0.178-0.223c0.504-0.764,0.861-1.332,1.069-1.703c0.208-0.371,0.375-0.761,0.501-1.169
		c0.186-0.563,0.278-1.15,0.278-1.759c0-0.624-0.076-1.091-0.229-1.403c-0.152-0.312-0.432-0.567-0.84-0.768
		c-0.52,0.749-0.779,1.699-0.779,2.85c0,0.445,0.07,0.902,0.211,1.369c0.06,0.171,0.089,0.286,0.089,0.346
		c0,0.215-0.115,0.322-0.345,0.322c-0.208,0-0.49-0.087-0.846-0.261c-0.356-0.175-0.627-0.354-0.813-0.54
		c-0.208-0.223-0.378-0.513-0.512-0.869c-0.134-0.355-0.201-0.734-0.201-1.135c0-0.564,0.117-1.103,0.351-1.614
		c0.234-0.513,0.563-0.958,0.985-1.336c0.423-0.378,0.926-0.673,1.509-0.885c0.583-0.211,1.2-0.317,1.854-0.317
		c0.653,0,1.249,0.143,1.787,0.428c0.538,0.286,0.966,0.679,1.286,1.18c0.319,0.5,0.479,1.044,0.479,1.63
		c0,0.438-0.083,0.904-0.251,1.401c-0.167,0.497-0.432,1.052-0.793,1.663c-0.361,0.612-0.824,1.285-1.388,2.021
		c-0.564,0.734-1.221,1.524-1.971,2.371l-0.223,0.267l-0.189,0.212c0.312,0.093,0.739,0.139,1.282,0.139
		c0.542,0,1.087-0.029,1.633-0.089c0.546-0.06,0.975-0.138,1.288-0.234c0.208-0.059,0.345-0.089,0.413-0.089
		c0.074,0,0.111,0.022,0.111,0.067c0,0.274-0.176,0.701-0.529,1.28c-0.353,0.578-0.722,1.058-1.108,1.436
		c-0.4,0.379-0.881,0.655-1.441,0.829c-0.561,0.175-1.252,0.262-2.077,0.262c-1.054,0-1.959-0.145-2.716-0.434
		c-0.757-0.29-1.136-0.639-1.136-1.047c0-0.282,0.382-0.846,1.147-1.692c0.542-0.615,1.035-1.228,1.48-1.837
		c0.03-0.044,0.062-0.089,0.095-0.134c0.034-0.044,0.063-0.087,0.089-0.128c0.026-0.04,0.061-0.098,0.105-0.172L5.013,52.246z"/>
	<path fill="#FFFFFF" d="M20.934,43.541h0.111c0.4,0,0.785,0.182,1.152,0.545s0.658,0.85,0.875,1.458
		c0.215,0.609,0.322,1.247,0.322,1.915c0,0.676-0.096,1.427-0.289,2.255c-0.193,0.827-0.451,1.623-0.773,2.388
		c-0.324,0.765-0.713,1.507-1.17,2.227s-0.93,1.317-1.42,1.793c-1.156,1.173-2.342,1.759-3.551,1.759
		c-0.809,0-1.521-0.202-2.137-0.607c-0.617-0.404-1.092-0.979-1.426-1.726c-0.334-0.745-0.501-1.601-0.501-2.565
		c0-1.663,0.347-3.257,1.041-4.782c0.695-1.525,1.613-2.759,2.756-3.702c1.143-0.942,2.32-1.414,3.529-1.414
		C20.039,43.084,20.533,43.236,20.934,43.541z M19.932,44.063l0.201-0.111l-0.045-0.044c-0.475,0.007-0.963,0.247-1.465,0.718
		c-0.5,0.472-0.951,1.078-1.352,1.82s-0.729,1.581-0.98,2.516c-0.252,0.936-0.379,1.818-0.379,2.649c0,0.602,0.107,1.22,0.318,1.854
		c0.211,0.634,0.479,1.163,0.801,1.586c0.324,0.423,0.633,0.635,0.93,0.635c0.23,0,0.473-0.154,0.725-0.462s0.482-0.744,0.689-1.309
		c0.215-0.541,0.4-1.109,0.557-1.703s0.275-1.18,0.357-1.759c0.08-0.579,0.121-1.106,0.121-1.581c0-0.75-0.119-1.464-0.361-2.144
		c-0.24-0.679-0.555-1.182-0.941-1.508c-0.074-0.052-0.111-0.104-0.111-0.156C18.996,44.895,19.309,44.561,19.932,44.063z"/>
</g>
</svg>
