<svg width="66" height="82" viewBox="0 0 66 82" fill="none" xmlns="http://www.w3.org/2000/svg">
<path d="M8.81238 22.9246H4.72424C2.823 22.9246 1.28125 21.3828 1.28125 19.481V17.4137C1.28125 15.5125 2.823 13.9707 4.72424 13.9707H8.81238V22.9246Z" fill="#6A829A" stroke="black" stroke-width="2"/>
<path d="M8.81238 41.0001H4.72424C2.823 41.0001 1.28125 39.4584 1.28125 37.5571V31.4939C1.28125 29.592 2.823 28.0503 4.72424 28.0503H8.81238V41.0001Z" fill="#6A829A" stroke="black" stroke-width="2"/>
<path d="M44.9611 81H14.2683C9.60828 81 5.8302 77.2219 5.8302 72.5613V9.43872C5.82959 4.77808 9.60828 1 14.2683 1H56.4131C61.0737 1 64.8518 4.77808 64.8518 9.43872V61.1093C64.8518 72.095 55.9462 81 44.9611 81Z" fill="#A7B6C5" stroke="black" stroke-width="2"/>
<path d="M49.7456 41.0001H20.9364C17.9615 41.0001 15.55 38.5886 15.55 35.6144V15.853C15.55 12.8782 17.9615 10.4673 20.9364 10.4673H49.7456C52.7198 10.4673 55.1313 12.8782 55.1313 15.853V35.6144C55.1313 38.5886 52.7198 41.0001 49.7456 41.0001Z" fill="#B9ECC2" stroke="black" stroke-width="2"/>
<path d="M28.2539 52.3413H24.9879V49.0747C24.9879 47.3102 23.5566 45.8789 21.7921 45.8789C20.027 45.8789 18.5963 47.3102 18.5963 49.0747V52.3413H15.3297C13.5646 52.3413 12.1339 53.772 12.1339 55.5371C12.1339 57.3016 13.5646 58.7329 15.3297 58.7329H18.5963V61.9989C18.5963 63.764 20.027 65.1947 21.7921 65.1947C23.5566 65.1947 24.9879 63.764 24.9879 61.9989V58.7329H28.2539C30.0184 58.7329 31.4497 57.3016 31.4497 55.5371C31.4497 53.772 30.019 52.3413 28.2539 52.3413Z" fill="#516980" stroke="black" stroke-width="2"/>
<path d="M46.0261 55.5375C46.0261 57.8153 44.1792 59.6622 41.9008 59.6622C39.6229 59.6622 37.776 57.8153 37.776 55.5375C37.776 53.259 39.6229 51.4121 41.9008 51.4121C44.1792 51.4121 46.0261 53.259 46.0261 55.5375Z" fill="#C2EAFB" stroke="black" stroke-width="2"/>
<path d="M58.448 55.5375C58.448 57.8153 56.6017 59.6622 54.3232 59.6622C52.0454 59.6622 50.1985 57.8153 50.1985 55.5375C50.1985 53.259 52.0454 51.4121 54.3232 51.4121C56.6017 51.4121 58.448 53.259 58.448 55.5375Z" fill="#FFBFC7" stroke="black" stroke-width="2"/>
<path d="M32.8743 71.962L29.6565 75.1798C28.7019 76.1344 27.1541 76.1344 26.1995 75.1798C25.2449 74.2252 25.2449 72.6774 26.1995 71.7228L29.4172 68.505C30.3718 67.5504 31.9197 67.5504 32.8743 68.505C33.8289 69.4596 33.8289 71.0074 32.8743 71.962Z" fill="#FFFCDC" stroke="black" stroke-width="2"/>
<path d="M44.4819 71.962L41.2648 75.1798C40.3102 76.1344 38.7623 76.1344 37.8077 75.1798C36.8531 74.2252 36.8531 72.6774 37.8077 71.7228L41.0249 68.505C41.9801 67.5504 43.5273 67.5504 44.4819 68.505C45.4365 69.4596 45.4365 71.0074 44.4819 71.962Z" fill="#FFFCDC" stroke="black" stroke-width="2"/>
<path d="M26.3563 26.8431C26.3563 25.382 24.8689 24.1973 23.0336 24.1973C21.1989 24.1973 19.7114 25.382 19.7114 26.8431C19.7114 28.3043 21.1989 29.489 23.0336 29.489C24.8689 29.489 26.3563 28.3043 26.3563 26.8431Z" fill="#FFB3C2"/>
<path d="M50.9706 26.8431C50.9706 25.382 49.4832 24.1973 47.6478 24.1973C45.8131 24.1973 44.3257 25.382 44.3257 26.8431C44.3257 28.3043 45.8131 29.489 47.6478 29.489C49.4832 29.489 50.9706 28.3043 50.9706 26.8431Z" fill="#FFB3C2"/>
<path d="M45.2894 26.3969C44.6223 26.3969 44.0822 25.8567 44.0822 25.1896V23.1858C44.0822 22.5187 44.6223 21.9785 45.2894 21.9785C45.9565 21.9785 46.4967 22.5187 46.4967 23.1858V25.1896C46.4967 25.8567 45.9565 26.3969 45.2894 26.3969Z" fill="black"/>
<path d="M25.392 26.3969C24.7249 26.3969 24.1847 25.8567 24.1847 25.1896V23.1858C24.1847 22.5187 24.7249 21.9785 25.392 21.9785C26.0591 21.9785 26.5992 22.5187 26.5992 23.1858V25.1896C26.5992 25.8567 26.0591 26.3969 25.392 26.3969Z" fill="black"/>
<path d="M36.1651 23.9835C35.8948 24.3808 35.5005 24.4284 35.3406 24.4284C35.1806 24.4284 34.7796 24.3851 34.516 23.9835C34.1498 23.4262 33.4015 23.2712 32.8442 23.6374C32.287 24.0036 32.1319 24.7519 32.4981 25.3092C33.1286 26.2699 34.1913 26.843 35.3406 26.843C36.4899 26.843 37.5525 26.2699 38.183 25.3092C38.5492 24.7519 38.3942 24.0036 37.8369 23.6374C37.6324 23.5032 36.7291 23.1559 36.1651 23.9835Z" fill="black"/>
</svg>
