<svg width="83" height="82" viewBox="0 0 83 82" fill="none" xmlns="http://www.w3.org/2000/svg">
<path d="M70.2986 80.0427H11.7013C5.79125 80.0427 1 75.2514 1 69.3408V67.6721C1 64.2725 3.75573 61.5161 7.15538 61.5161H74.8445C78.2441 61.5161 80.9998 64.2725 80.9998 67.6721V69.3408C80.9998 75.2514 76.2086 80.0427 70.2986 80.0427Z" fill="#F7EF87" stroke="black" stroke-width="2"/>
<path d="M76.1844 31.1866H5.81589C2.35155 31.1866 0.0230586 27.6355 1.40428 24.4581C5.01939 16.142 11.7235 9.55574 20.103 6.08895C33.4843 0.553683 48.5154 0.553683 61.8973 6.08895C70.2762 9.55513 76.9809 16.142 80.596 24.4581C81.9772 27.6349 79.6488 31.1866 76.1844 31.1866Z" fill="#F7EF87" stroke="black" stroke-width="2"/>
<path d="M73.677 48.3701H8.323C5.38354 48.3701 3.00073 50.7529 3.00073 53.6918V56.1948C3.00073 59.1343 5.38354 61.5171 8.323 61.5171H73.677C76.6165 61.5171 78.9993 59.1343 78.9993 56.1948V53.6918C78.9993 50.7523 76.6165 48.3701 73.677 48.3701Z" fill="#E1B89A" stroke="black" stroke-width="2"/>
<path d="M8.323 48.3698C5.38354 48.3698 3.00073 50.7526 3.00073 53.6914V56.1945C3.00073 59.1339 5.38354 61.5167 8.323 61.5167H42.8231C39.4692 58.512 39.2965 52.4823 41.509 48.3691H8.323V48.3698Z" fill="#D2996F" stroke="black" stroke-width="2"/>
<path d="M55.8445 57.8315C55.1975 57.8315 54.6726 57.3066 54.6726 56.6597C54.6726 56.3594 54.4285 56.1152 54.1282 56.1152C53.8279 56.1152 53.5837 56.3594 53.5837 56.6597C53.5837 57.3066 53.0588 57.8315 52.4119 57.8315C51.7643 57.8315 51.24 57.3066 51.24 56.6597C51.24 55.0673 52.5358 53.7715 54.1282 53.7715C55.7206 53.7715 57.0164 55.0673 57.0164 56.6597C57.0164 57.3073 56.4915 57.8315 55.8445 57.8315Z" fill="#D2996F" stroke="black" stroke-width="0.999998"/>
<path d="M34.2284 58.6895C32.636 58.6895 31.3402 57.3937 31.3402 55.8013C31.3402 54.2089 32.636 52.9131 34.2284 52.9131C34.8754 52.9131 35.4003 53.4374 35.4003 54.085C35.4003 54.7319 34.8754 55.2568 34.2284 55.2568C33.9281 55.2568 33.684 55.501 33.684 55.8013C33.684 56.1016 33.9281 56.3457 34.2284 56.3457C34.8754 56.3457 35.4003 56.8706 35.4003 57.5176C35.4003 58.1652 34.8754 58.6895 34.2284 58.6895Z" fill="#E1B89A" stroke="black" stroke-width="0.999998"/>
<path d="M13.5633 57.2238C12.8242 57.2238 12.0844 56.9419 11.5211 56.3791C10.395 55.253 10.395 53.4207 11.5211 52.294C11.9789 51.8369 12.721 51.8369 13.1782 52.294C13.636 52.7518 13.636 53.494 13.1782 53.9518C12.9664 54.1635 12.9664 54.5096 13.1782 54.722C13.3174 54.8606 13.4791 54.8813 13.5633 54.8813C13.6476 54.8813 13.8099 54.8606 13.9485 54.722C14.4062 54.2643 15.1484 54.2643 15.6056 54.722C16.0633 55.1798 16.0633 55.9214 15.6056 56.3791C15.0428 56.9419 14.3031 57.2238 13.5633 57.2238Z" fill="#E1B89A" stroke="black" stroke-width="0.999998"/>
<path d="M68.7913 57.078C68.4917 57.078 68.1914 56.9632 67.9631 56.7343C67.5053 56.2766 67.5053 55.535 67.9631 55.0772C68.1755 54.8648 68.1755 54.5194 67.9631 54.307C67.7507 54.0946 67.4052 54.0946 67.1928 54.307C66.7351 54.7647 65.9929 54.7647 65.5351 54.307C65.0773 53.8492 65.078 53.107 65.5351 52.6493C66.6612 51.5232 68.4941 51.5232 69.6202 52.6493C70.7463 53.776 70.7463 55.6082 69.6202 56.7343C69.3913 56.9632 69.0916 57.078 68.7913 57.078Z" fill="#D2996F" stroke="black" stroke-width="0.999998"/>
<path d="M72.6467 31.187H9.35327C7.65039 31.187 6.26978 32.5676 6.26978 34.2705V36.6948C6.26978 38.3977 7.65039 39.7783 9.35327 39.7783H72.6467C74.3496 39.7783 75.7302 38.3977 75.7302 36.6948V34.2705C75.7302 32.5676 74.3496 31.187 72.6467 31.187Z" fill="#6FCE91" stroke="black" stroke-width="2"/>
<path d="M39.7616 31.187H9.35327C7.65039 31.187 6.26978 32.5676 6.26978 34.2705V36.6948C6.26978 38.3977 7.65039 39.7783 9.35327 39.7783H39.7616C37.7798 38.604 37.8433 32.8618 39.7616 31.187Z" fill="#3CB767" stroke="black" stroke-width="2"/>
<path d="M7.1554 61.5166C3.75574 61.5166 1 64.2723 1 67.672V69.3413C1 75.2513 5.79126 80.0426 11.7013 80.0426H50.8413C46.5579 77.0189 43.0203 66.6899 46.6219 61.5166H7.1554Z" fill="#EFD176" stroke="black" stroke-width="2"/>
<path d="M73.2632 39.7783H8.73682C6.88623 39.7783 5.38599 41.2786 5.38599 43.1292V45.0188C5.38599 46.87 6.88623 48.3696 8.73682 48.3696H73.2632C75.1138 48.3696 76.614 46.87 76.614 45.0188V43.1292C76.614 41.2786 75.1138 39.7783 73.2632 39.7783Z" fill="#EDA1AB" stroke="black" stroke-width="2"/>
<path d="M42.499 39.7783H8.73682C6.88623 39.7783 5.38599 41.2786 5.38599 43.1292V45.0188C5.38599 46.87 6.88623 48.3696 8.73682 48.3696H43.5702C41.7855 46.295 41.3424 42.3943 42.499 39.7783Z" fill="#E26E7E" stroke="black" stroke-width="2"/>
<path d="M36.9447 39.7783L28.7935 52.1508C27.4666 54.1643 24.5125 54.1643 23.1862 52.1508L15.0349 39.7783H36.9447Z" fill="#F7EF87" stroke="black" stroke-width="2"/>
<path d="M23.0154 12.8267C22.3684 12.8267 21.8435 12.3024 21.8435 11.6548V10.3169C21.8435 9.66931 22.3684 9.14502 23.0154 9.14502C23.663 9.14502 24.1873 9.66931 24.1873 10.3169V11.6548C24.1873 12.3024 23.663 12.8267 23.0154 12.8267Z" fill="#D2996F" stroke="black" stroke-width="0.999998"/>
<path d="M41 13.8741C40.353 13.8741 39.8281 13.3499 39.8281 12.7023V11.3638C39.8281 10.7168 40.353 10.1919 41 10.1919C41.647 10.1919 42.1719 10.7168 42.1719 11.3638V12.7023C42.1719 13.3499 41.647 13.8741 41 13.8741Z" fill="#D2996F" stroke="black" stroke-width="0.999998"/>
<path d="M12.0986 23.0586C11.4517 23.0586 10.9268 22.5343 10.9268 21.8867V20.5488C10.9268 19.9012 11.4517 19.377 12.0986 19.377C12.7456 19.377 13.2705 19.9012 13.2705 20.5488V21.8867C13.2705 22.5343 12.7456 23.0586 12.0986 23.0586Z" fill="#D2996F" stroke="black" stroke-width="0.999998"/>
<path d="M58.9846 12.8267C58.337 12.8267 57.8127 12.3024 57.8127 11.6548V10.3169C57.8127 9.66931 58.337 9.14502 58.9846 9.14502C59.6316 9.14502 60.1565 9.66931 60.1565 10.3169V11.6548C60.1565 12.3024 59.6316 12.8267 58.9846 12.8267Z" fill="#D2996F" stroke="black" stroke-width="0.999998"/>
<path d="M69.9014 23.0586C69.2544 23.0586 68.7295 22.5343 68.7295 21.8867V20.5488C68.7295 19.9012 69.2544 19.377 69.9014 19.377C70.5483 19.377 71.0732 19.9012 71.0732 20.5488V21.8867C71.0732 22.5343 70.5483 23.0586 69.9014 23.0586Z" fill="#D2996F" stroke="black" stroke-width="0.999998"/>
<path d="M30.9216 23.0836C30.9216 20.4921 28.2831 18.3906 25.0281 18.3906C21.7737 18.3906 19.1351 20.4921 19.1351 23.0836C19.1351 25.6758 21.7737 27.7766 25.0281 27.7766C28.2831 27.7766 30.9216 25.6758 30.9216 23.0836Z" fill="#EDA1AB"/>
<path d="M62.8649 23.0836C62.8649 20.4921 60.2263 18.3906 56.9719 18.3906C53.7169 18.3906 51.0784 20.4921 51.0784 23.0836C51.0784 25.6758 53.7169 27.7766 56.9719 27.7766C60.2263 27.7766 62.8649 25.6758 62.8649 23.0836Z" fill="#EDA1AB"/>
<path d="M31.2677 19.1489C30.6207 19.1489 30.0958 18.6246 30.0958 17.9771C30.0958 17.0762 29.3634 16.3438 28.4631 16.3438C27.5623 16.3438 26.8298 17.0762 26.8298 17.9771C26.8298 18.6246 26.3049 19.1489 25.658 19.1489C25.011 19.1489 24.4861 18.6246 24.4861 17.9771C24.4861 15.7841 26.2701 14 28.4631 14C30.6555 14 32.4396 15.7841 32.4396 17.9771C32.4396 18.6246 31.9153 19.1489 31.2677 19.1489Z" fill="black"/>
<path d="M56.342 19.1489C55.6951 19.1489 55.1702 18.6246 55.1702 17.9771C55.1702 17.0762 54.4377 16.3438 53.5369 16.3438C52.6366 16.3438 51.9042 17.0762 51.9042 17.9771C51.9042 18.6246 51.3793 19.1489 50.7323 19.1489C50.0847 19.1489 49.5604 18.6246 49.5604 17.9771C49.5604 15.7841 51.3445 14 53.5369 14C55.7299 14 57.5139 15.7841 57.5139 17.9771C57.5139 18.6246 56.9896 19.1489 56.342 19.1489Z" fill="black"/>
<path d="M40.9998 23.7832C39.5209 23.7832 38.1141 23.1423 37.1412 22.0254C36.7158 21.5371 36.7664 20.7973 37.2547 20.3719C37.743 19.9465 38.4827 19.9978 38.9081 20.4855C39.4361 21.0915 40.1984 21.4394 40.9998 21.4394C41.8012 21.4394 42.5635 21.0915 43.0921 20.4855C43.5169 19.9978 44.2573 19.9471 44.7456 20.3719C45.2332 20.7973 45.2839 21.5371 44.8591 22.0254C43.8856 23.1423 42.4787 23.7832 40.9998 23.7832Z" fill="black"/>
</svg>
