<svg width="79" height="82" viewBox="0 0 79 82" fill="none" xmlns="http://www.w3.org/2000/svg">
<path d="M22.0963 60.9688V73.7355C22.0963 77.7473 25.3489 80.9999 29.3607 80.9999H63.7754V60.9688H22.0963Z" fill="white" stroke="black" stroke-width="2"/>
<path d="M63.7748 34.158V11.7544H35.4679L24.6732 27.7175C23.3646 29.653 22.5303 31.8594 22.2257 34.158H63.7748Z" fill="white" stroke="black" stroke-width="2"/>
<path d="M77.017 34.158C76.713 31.8594 75.8787 29.653 74.5701 27.7175L63.7748 11.7544L52.9801 27.7175C51.6715 29.653 50.8372 31.86 50.5326 34.158H77.017Z" fill="white" stroke="black" stroke-width="2"/>
<path d="M50.4032 60.9688V80.9999H69.8826C73.8944 80.9999 77.147 77.7473 77.147 73.7355V60.9688H50.4032Z" fill="white" stroke="black" stroke-width="2"/>
<path d="M63.7748 62.5789V32.5483H22.5291C22.252 33.6964 22.0963 34.8787 22.0963 36.0725V62.5789H63.7748Z" fill="white" stroke="black" stroke-width="2"/>
<path d="M76.7136 32.5485C76.2925 30.8334 75.5698 29.1964 74.5701 27.7175L63.7748 11.7544V32.5479H76.7136V32.5485Z" fill="white" stroke="black" stroke-width="2"/>
<path d="M35.4679 11.7544V5.47632C35.4679 3.00439 37.4723 1 39.9442 1H59.2985C61.771 1 63.7748 3.00439 63.7748 5.47632V11.7544H35.4679Z" fill="white" stroke="black" stroke-width="2"/>
<path d="M1.05786 54.4205L3.39307 75.8726C3.71045 78.79 6.17383 81.0001 9.1084 81.0001H17.9097C20.8442 81.0001 23.3076 78.79 23.6256 75.8726L25.9602 54.4205C26.2452 51.8021 24.1938 49.5151 21.5596 49.5151H5.4585C2.82422 49.5151 0.77283 51.8021 1.05786 54.4205Z" fill="white" stroke="black" stroke-width="2"/>
<path d="M50.4032 36.1287V62.5789H77.147V36.1287C77.147 34.9153 77.0005 33.7141 76.7136 32.5483H50.8359C50.5497 33.7141 50.4032 34.9153 50.4032 36.1287Z" fill="white" stroke="black" stroke-width="2"/>
<path d="M16.5892 77.5246C18.6436 77.5246 20.3685 75.9773 20.5906 73.9351L21.2645 67.7443C21.4463 66.0713 20.4112 64.5076 18.7999 64.0212C17.5456 63.6421 15.8165 63.0275 13.5087 62.0302C10.4631 60.713 8.42571 61.3979 7.15679 62.394C6.00932 63.2942 5.42583 64.7365 5.5833 66.1867L6.42681 73.9351C6.64897 75.9773 8.37383 77.5246 10.4283 77.5246H16.5892Z" fill="white" stroke="black" stroke-width="2"/>
<path d="M43.6039 47.1591C42.9368 47.1591 42.3966 46.6189 42.3966 45.9524V43.948C42.3966 43.2815 42.9368 42.7407 43.6039 42.7407C44.2704 42.7407 44.8105 43.2815 44.8105 43.948V45.9524C44.8105 46.6189 44.2704 47.1591 43.6039 47.1591Z" fill="black"/>
<path d="M28.342 47.1591C27.6749 47.1591 27.1348 46.6189 27.1348 45.9524V43.948C27.1348 43.2815 27.6749 42.7407 28.342 42.7407C29.0085 42.7407 29.5493 43.2815 29.5493 43.948V45.9524C29.5493 46.6189 29.0085 47.1591 28.342 47.1591Z" fill="black"/>
<path d="M36.7975 44.7457C36.5271 45.143 36.1328 45.1907 35.9729 45.1907C35.813 45.1907 35.412 45.1473 35.1483 44.7457C34.7821 44.1885 34.0332 44.0334 33.4766 44.3996C32.9193 44.7658 32.7643 45.5141 33.1299 46.0714C33.761 47.0321 34.8236 47.6052 35.9729 47.6052C37.1222 47.6052 38.1842 47.0321 38.8153 46.0714C39.1815 45.5141 39.0265 44.7658 38.4693 44.3996C38.2648 44.2654 37.3615 43.9181 36.7975 44.7457Z" fill="black"/>
</svg>
