<svg width="70" height="82" viewBox="0 0 70 82" fill="none" xmlns="http://www.w3.org/2000/svg">
<path d="M58.9008 44.1421H68.1586C68.2739 44.7268 68.3331 45.3311 68.3331 45.9481V50.4739H58.9008L57.0093 47.308L58.9008 44.1421Z" fill="#FFE675" stroke="black" stroke-width="2"/>
<path d="M63.6169 53.5576L68.3331 56.6417V59.511C68.3331 62.116 66.2219 64.2272 63.6169 64.2272C61.0126 64.2272 58.9014 62.1154 58.9014 59.511V56.6417L63.6169 53.5576Z" fill="#FFE675" stroke="black" stroke-width="2"/>
<path d="M23.5669 65.5093L18.7622 67.4862V75.7644H28.371V67.4862L23.5669 65.5093Z" fill="#FF6881" stroke="black" stroke-width="2"/>
<path d="M46.3287 65.5093L51.1334 67.4862V75.7644H41.5247V67.4862L46.3287 65.5093Z" fill="#FF6881" stroke="black" stroke-width="2"/>
<path d="M28.371 60.3805V67.4862H18.7622V60.3805L23.5669 57.9238L28.371 60.3805Z" fill="#FFE675" stroke="black" stroke-width="2"/>
<path d="M23.5663 73.2012C20.2563 73.2012 17.5732 75.8849 17.5732 79.1948C17.5732 80.1921 18.3813 81.0002 19.3787 81.0002H27.7545C28.7518 81.0002 29.5599 80.1921 29.5599 79.1948C29.5599 75.8849 26.8762 73.2012 23.5663 73.2012Z" fill="#91DAFF" stroke="black" stroke-width="2"/>
<path d="M41.5247 60.3805V67.4862H51.1334V60.3805L46.3287 57.9238L41.5247 60.3805Z" fill="#FFE675" stroke="black" stroke-width="2"/>
<path d="M46.3293 73.2012C49.6399 73.2012 52.323 75.8849 52.323 79.1948C52.323 80.1921 51.5143 81.0002 50.5176 81.0002H42.1417C41.1444 81.0002 40.3357 80.1921 40.3357 79.1948C40.3357 75.8849 43.0194 73.2012 46.3293 73.2012Z" fill="#91DAFF" stroke="black" stroke-width="2"/>
<path d="M58.9008 36.5137C63.4918 36.5137 67.3169 39.7955 68.1586 44.1418H58.9008L56.4752 40.3278L58.9008 36.5137Z" fill="#FF6881" stroke="black" stroke-width="2"/>
<path d="M58.9008 50.4736H68.3331V56.6412H58.9008L56.048 53.5571L58.9008 50.4736Z" fill="#FF6881" stroke="black" stroke-width="2"/>
<path d="M10.9949 44.1421H1.73706C1.6217 44.7268 1.5625 45.3311 1.5625 45.9481V50.4739H10.9949L12.8864 47.308L10.9949 44.1421Z" fill="#FFE675" stroke="black" stroke-width="2"/>
<path d="M6.27869 53.5576L1.5625 56.6417V59.511C1.5625 62.116 3.67432 64.2272 6.27869 64.2272C8.88367 64.2272 10.9949 62.1154 10.9949 59.511V56.6417L6.27869 53.5576Z" fill="#FFE675" stroke="black" stroke-width="2"/>
<path d="M10.9949 36.5137C6.40381 36.5137 2.57874 39.7955 1.73706 44.1418H10.9949L13.421 40.3278L10.9949 36.5137Z" fill="#FF6881" stroke="black" stroke-width="2"/>
<path d="M10.9949 50.4736H1.5625V56.6412H10.9949L13.8483 53.5571L10.9949 50.4736Z" fill="#FF6881" stroke="black" stroke-width="2"/>
<path d="M11.1615 12.0918C9.81323 12.0918 8.72009 13.1843 8.72009 14.5332V22.8975C8.72009 24.2457 9.81323 25.3389 11.1615 25.3389H16.1987V12.0918H11.1615Z" fill="#FF6881" stroke="black" stroke-width="2"/>
<path d="M58.7347 12.0918C60.083 12.0918 61.1761 13.1843 61.1761 14.5332V22.8975C61.1761 24.2457 60.083 25.3389 58.7347 25.3389H53.6975V12.0918H58.7347Z" fill="#FF6881" stroke="black" stroke-width="2"/>
<path d="M51.4771 1H18.4186C16.3074 1 14.5959 2.71143 14.5959 4.82263V36.1294H55.3003V4.82263C55.2997 2.71143 53.5883 1 51.4771 1Z" fill="#FFE675" stroke="black" stroke-width="2"/>
<path d="M23.2477 1H18.4186C16.3074 1 14.5959 2.71143 14.5959 4.82263V36.1294H19.425V4.82263C19.425 2.71143 21.1365 1 23.2477 1Z" fill="#FFB258" stroke="black" stroke-width="2"/>
<path d="M23.9709 18.1974C23.3038 18.1974 22.7637 17.6566 22.7637 16.9901V14.3625C22.7637 13.6954 23.3038 13.1553 23.9709 13.1553C24.6375 13.1553 25.1782 13.6954 25.1782 14.3625V16.9901C25.1782 17.6566 24.6375 18.1974 23.9709 18.1974Z" fill="black"/>
<path d="M45.9253 18.1974C45.2582 18.1974 44.718 17.6566 44.718 16.9901V14.3625C44.718 13.6954 45.2582 13.1553 45.9253 13.1553C46.5918 13.1553 47.1326 13.6954 47.1326 14.3625V16.9901C47.1326 17.6566 46.5918 18.1974 45.9253 18.1974Z" fill="black"/>
<path d="M30.5664 18.8755H29.0314C27.453 18.8755 26.1743 20.1554 26.1743 21.7344C26.1743 22.5242 26.4929 23.2371 27.0105 23.7546C27.5281 24.271 28.2428 24.5914 29.0314 24.5914H30.5664L33.0518 21.7332L30.5664 18.8755Z" fill="#91DAFF" stroke="black" stroke-width="2"/>
<path d="M39.3292 18.8755H34.9481L33.0518 21.7332L34.9481 24.5914H39.3292L41.5253 21.7332L39.3292 18.8755Z" fill="#91DAFF" stroke="black" stroke-width="2"/>
<path d="M43.7219 21.7344C43.7219 23.3127 42.4426 24.5914 40.8643 24.5914H39.3292V18.8755H40.8643C41.6528 18.8755 42.3676 19.1959 42.8851 19.7135C43.4027 20.2292 43.7219 20.944 43.7219 21.7344Z" fill="#ECECEE" stroke="black" stroke-width="2"/>
<path d="M30.5664 18.8755H34.9481V24.5914H30.5664V18.8755Z" fill="#ECECEE" stroke="black" stroke-width="2"/>
<path d="M41.5247 60.3805V64.4052H51.1334V60.3805L46.3287 57.9238L41.5247 60.3805Z" fill="#FFB258" stroke="black" stroke-width="2"/>
<path d="M18.7622 60.3805V64.4052H28.371V60.3805L23.5669 57.9238L18.7622 60.3805Z" fill="#FFB258" stroke="black" stroke-width="2"/>
<path d="M55.3107 32.9243H14.5856C12.6025 32.9243 10.9955 34.5314 10.9955 36.5144V56.7909C10.9955 58.7733 12.6025 60.381 14.5856 60.381H55.3107C57.2931 60.381 58.9008 58.7733 58.9008 56.7909V36.5144C58.9008 34.5314 57.2931 32.9243 55.3107 32.9243Z" fill="#91DAFF" stroke="black" stroke-width="2"/>
<path d="M15.824 56.7909V36.5144C15.824 34.5314 17.4316 32.9243 19.4141 32.9243H14.5856C12.6025 32.9243 10.9955 34.5314 10.9955 36.5144V56.7909C10.9955 58.7733 12.6025 60.3804 14.5856 60.3804H19.4141C17.4316 60.381 15.824 58.7733 15.824 56.7909Z" fill="#73BBDF" stroke="black" stroke-width="2"/>
<path d="M40.6927 46.6522C40.6927 48.7622 38.9819 50.473 36.8719 50.473C34.762 50.473 33.0518 48.7622 33.0518 46.6522C33.0518 44.5422 34.762 42.832 36.8719 42.832C38.9819 42.832 40.6927 44.5422 40.6927 46.6522Z" fill="#FDFD94" stroke="black" stroke-width="2"/>
<path d="M53.0896 46.6522C53.0896 48.7622 51.3788 50.473 49.2688 50.473C47.1594 50.473 45.4486 48.7622 45.4486 46.6522C45.4486 44.5422 47.1594 42.832 49.2688 42.832C51.3788 42.832 53.0896 44.5422 53.0896 46.6522Z" fill="#FDFD94" stroke="black" stroke-width="2"/>
<path d="M26.3208 42.832H18.5272C17.5769 42.832 16.8066 43.6023 16.8066 44.5526V48.7524C16.8066 49.7028 17.5769 50.473 18.5272 50.473H26.3208C27.2711 50.473 28.0414 49.7028 28.0414 48.7524V44.5526C28.0414 43.6023 27.2711 42.832 26.3208 42.832Z" fill="#ECECEE" stroke="black" stroke-width="2"/>
</svg>
