<?xml version="1.0" encoding="utf-8"?>
<!-- Generator: Adobe Illustrator 16.0.0, SVG Export Plug-In . SVG Version: 6.00 Build 0)  -->
<!DOCTYPE svg PUBLIC "-//W3C//DTD SVG 1.1//EN" "http://www.w3.org/Graphics/SVG/1.1/DTD/svg11.dtd">
<svg version="1.1" id="Layer_1" xmlns="http://www.w3.org/2000/svg" xmlns:xlink="http://www.w3.org/1999/xlink" x="0px" y="0px"
	 width="26px" height="102px" viewBox="0 0 26 102" enable-background="new 0 0 26 102" xml:space="preserve">
<rect id="backgroundrect" fill="none" width="26" height="102"/>
<title>Layer 1</title>
<path id="svg_1" fill="#ABE1FA" d="M16.419,32.593c0,0,12.765-5.057,8.495-15.551c-2.596-6.375-4.396-10.495-4.237-13.921
	c0.107-2.318-2.343-3.873-4.37-2.744C10.362,3.689,2.775,9.295,1.175,16.784c-2.687,12.588,6.076,15.411,6.076,15.411L16.419,32.593
	z"/>
<path id="svg_2" fill="#ABE1FA" fill-opacity="0.96" d="M7.251,32.194l9.167,0.398c0,0,5.989-2.372,8.391-7.24
	c-3.246-3.46-9.098-7.352-17.07-3.222c-2.452,1.27-4.503,2.688-6.22,4.148C3.302,30.922,7.251,32.194,7.251,32.194z"/>
<path id="svg_3" fill="#FFAA75" d="M7.912,99.604c1.652,3.149,6.167,3.149,7.818,0c3.441-6.566,7.912-18.104,7.912-33.752
	c0-17.374-2.756-28.543-4.504-33.884c-0.724-2.208-2.779-3.703-5.104-3.703H9.607c-2.324,0-4.381,1.495-5.104,3.703
	C2.755,37.308,0,48.479,0,65.852C0,81.5,4.469,93.037,7.912,99.604z"/>
<path id="svg_4" fill="#FF8C42" d="M19.766,90.109c2.142-6.351,3.877-14.506,3.877-24.258c0-17.375-2.754-28.543-4.502-33.884
	c-0.725-2.209-2.781-3.704-5.104-3.704H9.608c-2.324,0-4.381,1.495-5.104,3.703c-0.579,1.765-1.266,4.168-1.929,7.222
	c5.229,0.713,9.763,4.361,11.489,9.578C20.416,67.967,19.766,90.078,19.766,90.109z"/>
<path id="svg_5" fill="#F9EE80" d="M23.271,55.138c-0.811-11.354-2.775-19.021-4.133-23.168c-0.724-2.208-2.779-3.704-5.104-3.704
	H9.607c-2.323,0-4.381,1.494-5.104,3.703C3.145,36.117,1.18,43.783,0.37,55.138c3.6-0.868,7.449-1.341,11.451-1.341
	C15.822,53.797,19.672,54.27,23.271,55.138z"/>
<path id="svg_6" fill="#EEDB00" d="M15.598,53.939c2.652,0.198,5.223,0.605,7.674,1.197c-0.81-11.354-2.774-19.021-4.133-23.168
	c-0.723-2.208-2.779-3.704-5.104-3.704H9.607c-2.323,0-4.381,1.494-5.104,3.703c-0.578,1.765-1.267,4.17-1.928,7.223
	c5.229,0.713,9.763,4.361,11.489,9.578C14.629,50.475,15.139,52.204,15.598,53.939z"/>
<path id="svg_7" fill="#ABE1FA" fill-opacity="0.96" d="M16.307,0.376C10.362,3.689,2.775,9.295,1.176,16.783
	c-0.239,1.116-0.386,2.156-0.459,3.123c0,0,5.472-4.792,11.751-3.869c6.279,0.922,10.187-4.608,10.187-4.608
	c-1.307-3.394-2.084-6.01-1.979-8.309C20.784,0.802,18.334-0.752,16.307,0.376z"/>
<g>
	<path fill="#FFFFFF" d="M7.077,51.771l0.183-0.447c-0.091,0.024-0.235,0.08-0.43,0.165c-0.42,0.177-0.688,0.265-0.804,0.265
		c-0.11,0-0.2-0.061-0.27-0.178c-0.07-0.119-0.105-0.273-0.105-0.462c0-0.159,0.04-0.348,0.119-0.567
		c0.079-0.219,0.165-0.369,0.256-0.448c0.158-0.122,0.853-0.469,2.084-1.042l0.274-0.119c0.055-0.037,0.144-0.08,0.265-0.128
		c0.811-0.396,1.329-0.594,1.554-0.594c0.201,0,0.358,0.058,0.471,0.173c0.112,0.116,0.168,0.28,0.167,0.493
		c0,0.457-0.213,1.264-0.639,2.422c-0.098,0.28-0.175,0.501-0.233,0.663c-0.058,0.161-0.142,0.4-0.251,0.719
		c-0.031,0.114-0.064,0.233-0.101,0.355c-0.213,0.713-0.369,1.249-0.466,1.607c-0.012,0.043-0.054,0.188-0.124,0.435
		c-0.07,0.247-0.12,0.426-0.151,0.535c-0.03,0.108-0.064,0.223-0.101,0.338c-0.408,1.56-0.749,2.56-1.023,2.998
		c-0.091,0.141-0.198,0.266-0.32,0.375c-0.262,0.201-0.489,0.356-0.681,0.467c-0.192,0.109-0.375,0.187-0.548,0.231
		c-0.174,0.047-0.37,0.068-0.589,0.068c-0.317,0-0.599-0.093-0.845-0.277c-0.247-0.187-0.37-0.397-0.37-0.637
		c0-0.041,0.012-0.111,0.037-0.209C5.154,56.836,6.035,54.436,7.077,51.771z"/>
	<path fill="#FFFFFF" d="M18.686,48.308h0.092c0.328,0,0.645,0.149,0.945,0.448c0.303,0.299,0.541,0.698,0.719,1.197
		c0.176,0.5,0.264,1.024,0.264,1.572c0,0.555-0.078,1.172-0.236,1.851c-0.158,0.681-0.371,1.333-0.635,1.961
		c-0.266,0.628-0.586,1.237-0.961,1.828s-0.764,1.082-1.166,1.472c-0.949,0.963-1.922,1.444-2.914,1.444
		c-0.666,0-1.25-0.166-1.756-0.498c-0.506-0.332-0.896-0.806-1.17-1.417c-0.274-0.612-0.411-1.314-0.411-2.107
		c0-1.363,0.285-2.673,0.854-3.926c0.57-1.252,1.323-2.265,2.262-3.039c0.939-0.774,1.904-1.161,2.898-1.161
		C17.95,47.933,18.355,48.058,18.686,48.308z M17.861,48.738l0.164-0.092l-0.034-0.036c-0.392,0.006-0.791,0.203-1.203,0.589
		c-0.41,0.387-0.781,0.885-1.108,1.495c-0.33,0.609-0.599,1.298-0.806,2.066s-0.312,1.492-0.312,2.176c0,0.493,0.086,1,0.261,1.521
		c0.174,0.521,0.393,0.955,0.657,1.302c0.267,0.349,0.521,0.521,0.765,0.521c0.188,0,0.387-0.128,0.594-0.38s0.396-0.61,0.565-1.073
		c0.177-0.445,0.328-0.911,0.457-1.398c0.13-0.487,0.226-0.969,0.293-1.444c0.066-0.476,0.101-0.907,0.101-1.297
		c0-0.615-0.101-1.203-0.297-1.761c-0.196-0.558-0.455-0.97-0.771-1.239c-0.063-0.042-0.092-0.085-0.092-0.128
		C17.096,49.42,17.352,49.146,17.861,48.738z"/>
</g>
</svg>
