<?xml version="1.0" encoding="utf-8"?>
<!-- Generator: Adobe Illustrator 16.0.0, SVG Export Plug-In . SVG Version: 6.00 Build 0)  -->
<!DOCTYPE svg PUBLIC "-//W3C//DTD SVG 1.1//EN" "http://www.w3.org/Graphics/SVG/1.1/DTD/svg11.dtd">
<svg version="1.1" id="Layer_1" xmlns="http://www.w3.org/2000/svg" xmlns:xlink="http://www.w3.org/1999/xlink" x="0px" y="0px"
	 width="26px" height="102px" viewBox="0 0 26 102" enable-background="new 0 0 26 102" xml:space="preserve">
<rect id="backgroundrect" fill="none" width="26" height="102"/>
<title>Layer 1</title>
<path id="svg_1" fill="#2F2D2C" d="M16.419,32.593c0,0,12.765-5.057,8.495-15.551c-2.595-6.375-4.396-10.495-4.237-13.921
	c0.108-2.318-2.343-3.873-4.37-2.744C10.362,3.689,2.775,9.295,1.175,16.784c-2.687,12.588,6.076,15.411,6.076,15.411L16.419,32.593
	z"/>
<path id="svg_2" fill="#2F2D2C" d="M7.251,32.194l9.167,0.398c0,0,5.989-2.372,8.391-7.24C21.562,21.892,15.711,18,7.739,22.13
	c-2.452,1.27-4.503,2.688-6.22,4.148C3.302,30.922,7.251,32.194,7.251,32.194z"/>
<path id="svg_3" fill="#FFAA75" d="M7.912,99.604c1.652,3.149,6.167,3.149,7.818,0c3.442-6.567,7.912-18.104,7.912-33.753
	c0-17.373-2.756-28.543-4.503-33.883c-0.724-2.208-2.78-3.703-5.104-3.703l-4.428,0c-2.324,0-4.381,1.495-5.104,3.703
	C2.755,37.308,0,48.479,0,65.852C0,81.5,4.469,93.037,7.912,99.604z"/>
<path id="svg_4" fill="#FF8C42" d="M19.766,90.11c2.141-6.351,3.877-14.507,3.877-24.259c0-17.374-2.755-28.543-4.503-33.883
	c-0.724-2.209-2.78-3.704-5.104-3.704l-4.427,0c-2.324,0-4.381,1.495-5.104,3.703c-0.579,1.765-1.266,4.168-1.928,7.222
	c5.229,0.713,9.763,4.361,11.489,9.578C20.416,67.967,19.766,90.078,19.766,90.11z"/>
<path id="svg_5" fill="#F9EE80" d="M23.271,55.138c-0.81-11.355-2.775-19.021-4.133-23.168c-0.723-2.208-2.779-3.704-5.104-3.704
	H9.607c-2.323,0-4.381,1.494-5.104,3.703c-1.358,4.148-3.323,11.814-4.133,23.169c3.6-0.868,7.449-1.341,11.451-1.341
	C15.822,53.797,19.672,54.269,23.271,55.138z"/>
<path id="svg_6" fill="#EEDB00" d="M15.598,53.939c2.652,0.199,5.222,0.606,7.674,1.198c-0.81-11.355-2.775-19.021-4.133-23.168
	c-0.723-2.208-2.779-3.704-5.104-3.704H9.607c-2.323,0-4.381,1.494-5.104,3.703c-0.578,1.765-1.267,4.17-1.928,7.223
	c5.229,0.713,9.763,4.361,11.489,9.578C14.629,50.475,15.138,52.204,15.598,53.939z"/>
<path id="svg_7" fill="#2F2D2C" d="M16.307,0.376C10.362,3.689,2.775,9.295,1.176,16.783c-0.239,1.116-0.386,2.156-0.458,3.123
	c0,0,5.472-4.792,11.751-3.869c6.28,0.922,10.186-4.608,10.186-4.608c-1.307-3.394-2.084-6.01-1.978-8.309
	C20.785,0.802,18.334-0.752,16.307,0.376z"/>
<g>
	<path fill="#FFFFFF" d="M7.076,52.745l0.176-0.431c-0.088,0.023-0.226,0.076-0.413,0.158c-0.404,0.17-0.662,0.255-0.773,0.255
		c-0.105,0-0.192-0.058-0.259-0.171c-0.067-0.115-0.101-0.263-0.101-0.444c0-0.152,0.038-0.334,0.114-0.545s0.158-0.354,0.246-0.431
		c0.152-0.117,0.82-0.451,2.004-1.002l0.264-0.114c0.053-0.035,0.138-0.076,0.255-0.123c0.779-0.381,1.277-0.571,1.494-0.571
		c0.193,0,0.344,0.056,0.453,0.167s0.162,0.27,0.161,0.474c0,0.439-0.205,1.216-0.615,2.33c-0.094,0.27-0.168,0.482-0.224,0.637
		c-0.056,0.156-0.136,0.386-0.242,0.69c-0.029,0.111-0.062,0.226-0.096,0.343c-0.205,0.686-0.354,1.201-0.448,1.547
		c-0.012,0.041-0.051,0.18-0.119,0.417s-0.116,0.409-0.145,0.515s-0.062,0.214-0.097,0.325c-0.393,1.5-0.72,2.461-0.984,2.883
		c-0.088,0.135-0.19,0.255-0.308,0.36c-0.252,0.193-0.47,0.343-0.654,0.448c-0.185,0.105-0.36,0.181-0.527,0.224
		c-0.167,0.045-0.356,0.066-0.567,0.066c-0.305,0-0.576-0.089-0.813-0.268C4.619,60.306,4.5,60.102,4.5,59.873
		c0-0.041,0.012-0.108,0.035-0.202C5.227,57.614,6.074,55.306,7.076,52.745z"/>
	<path fill="#FFFFFF" d="M14.303,54.31l1.633-3.384c-0.053-0.012-0.121-0.018-0.203-0.018c-0.316,0-0.922,0.155-1.818,0.466
		c-0.463,0.164-0.822,0.28-1.077,0.347c-0.255,0.068-0.47,0.102-0.646,0.102c-0.328,0-0.492-0.126-0.492-0.378
		c0-0.211,0.085-0.494,0.255-0.848c0.169-0.354,0.369-0.672,0.597-0.954c0.152-0.193,0.292-0.322,0.421-0.387
		s0.322-0.097,0.581-0.097c0.111,0,0.201,0.006,0.271,0.018l1.977,0.035c1.33,0.035,2.248,0.161,2.758,0.377
		c0.188,0.094,0.281,0.231,0.281,0.413c0,0.164-0.109,0.471-0.326,0.922l-1.568,3.368h0.168h0.434h0.275
		c0.301,0,0.451,0.035,0.451,0.105c0,0.129-0.066,0.312-0.199,0.548c-0.131,0.238-0.271,0.426-0.418,0.566
		c-0.346,0.363-0.893,0.627-1.639,0.79l-1.183,2.902c-0.023,0.07-0.05,0.144-0.079,0.22c-0.088,0.234-0.182,0.408-0.281,0.52
		c-0.264,0.229-0.604,0.414-1.023,0.559c-0.419,0.144-0.833,0.215-1.244,0.215c-0.269,0-0.481-0.05-0.637-0.149
		s-0.233-0.229-0.233-0.387c0-0.182,0.194-0.615,0.582-1.301c0.018-0.029,0.032-0.054,0.044-0.075
		c0.012-0.02,0.026-0.048,0.044-0.083l1.155-2.092h-0.106c-0.071,0.012-0.174,0.018-0.31,0.018c-0.506,0-0.76-0.19-0.76-0.571
		c0-0.123,0.047-0.311,0.14-0.563c0.24-0.539,0.438-0.882,0.596-1.028c0.082-0.082,0.321-0.123,0.718-0.123
		C13.694,54.362,13.98,54.345,14.303,54.31z"/>
</g>
</svg>
