<?xml version="1.0" encoding="utf-8"?>
<!-- Generator: Adobe Illustrator 16.0.0, SVG Export Plug-In . SVG Version: 6.00 Build 0)  -->
<!DOCTYPE svg PUBLIC "-//W3C//DTD SVG 1.1//EN" "http://www.w3.org/Graphics/SVG/1.1/DTD/svg11.dtd">
<svg version="1.1" id="Layer_1" xmlns="http://www.w3.org/2000/svg" xmlns:xlink="http://www.w3.org/1999/xlink" x="0px" y="0px"
	 width="26px" height="102px" viewBox="0 0 26 102" enable-background="new 0 0 26 102" xml:space="preserve">
<rect id="backgroundrect" fill="none" width="26" height="102"/>
<title>Layer 1</title>
<path id="svg_1" fill="#ED2224" d="M16.419,32.593c0,0,12.765-5.057,8.495-15.551c-2.595-6.375-4.396-10.495-4.237-13.921
	c0.107-2.318-2.343-3.873-4.37-2.744C10.362,3.689,2.775,9.295,1.175,16.784c-2.687,12.588,6.076,15.411,6.076,15.411L16.419,32.593
	z"/>
<path id="svg_2" fill="#ED2224" d="M7.251,32.194l9.167,0.398c0,0,5.989-2.372,8.391-7.24C21.562,21.892,15.711,18,7.739,22.13
	c-2.452,1.27-4.503,2.688-6.22,4.148C3.302,30.922,7.251,32.194,7.251,32.194z"/>
<path id="svg_3" fill="#FFAA75" d="M7.912,99.604c1.652,3.15,6.167,3.15,7.818-0.001c3.442-6.566,7.912-18.104,7.912-33.752
	c0-17.373-2.756-28.543-4.503-33.883c-0.724-2.208-2.78-3.703-5.104-3.703l-4.428,0c-2.324,0-4.381,1.495-5.104,3.703
	C2.755,37.308,0,48.479,0,65.852C0,81.5,4.469,93.037,7.912,99.604z"/>
<path id="svg_4" fill="#FF8C42" d="M19.766,90.11c2.141-6.351,3.877-14.507,3.877-24.259c0-17.374-2.755-28.543-4.503-33.883
	c-0.724-2.209-2.78-3.704-5.104-3.704l-4.428,0c-2.324,0-4.381,1.495-5.104,3.703c-0.579,1.765-1.266,4.168-1.929,7.222
	c5.229,0.713,9.763,4.361,11.489,9.578C20.416,67.967,19.766,90.078,19.766,90.11z"/>
<path id="svg_5" fill="#F9EE80" d="M23.271,55.138c-0.81-11.355-2.775-19.021-4.133-23.168c-0.723-2.208-2.779-3.704-5.104-3.704
	H9.607c-2.323,0-4.381,1.494-5.104,3.703c-1.358,4.148-3.323,11.814-4.133,23.169c3.6-0.868,7.449-1.341,11.451-1.341
	C15.822,53.797,19.672,54.269,23.271,55.138z"/>
<path id="svg_6" fill="#EEDB00" d="M15.598,53.939c2.652,0.199,5.222,0.606,7.674,1.198c-0.81-11.355-2.775-19.021-4.133-23.168
	c-0.723-2.208-2.779-3.704-5.104-3.704H9.607c-2.323,0-4.381,1.494-5.104,3.703c-0.578,1.765-1.267,4.17-1.928,7.223
	c5.229,0.713,9.763,4.361,11.489,9.578C14.629,50.475,15.138,52.204,15.598,53.939z"/>
<path id="svg_7" fill="#ED2224" d="M16.307,0.376C10.362,3.689,2.775,9.295,1.176,16.783c-0.239,1.116-0.386,2.156-0.459,3.123
	c0,0,5.472-4.792,11.751-3.869c6.279,0.922,10.186-4.608,10.186-4.608c-1.307-3.394-2.084-6.01-1.978-8.309
	C20.784,0.802,18.334-0.752,16.307,0.376z"/>
<g enable-background="new    ">
	<path fill="#FFFFFF" d="M10.423,57.034h0.053c0.193,0,0.435-0.089,0.725-0.269c0.29-0.178,0.576-0.414,0.857-0.707
		c0.363-0.375,0.652-0.774,0.866-1.199s0.321-0.822,0.321-1.191c0-0.803-0.425-1.289-1.274-1.459
		c-0.164-0.023-0.281-0.06-0.352-0.109s-0.105-0.128-0.105-0.233c0-0.117,0.141-0.296,0.422-0.536
		c0.422-0.369,0.751-0.771,0.989-1.209c0.237-0.436,0.356-0.874,0.356-1.313c0-0.469-0.097-0.703-0.29-0.703
		c-0.158,0-0.354,0.125-0.589,0.374s-0.458,0.566-0.672,0.953s-0.374,0.768-0.479,1.143c-0.035,0.129-0.07,0.213-0.105,0.25
		c-0.035,0.039-0.085,0.058-0.149,0.058c-0.17,0-0.381-0.132-0.633-0.396c-0.357-0.381-0.536-0.768-0.536-1.16
		c0-0.451,0.183-0.899,0.549-1.345s0.842-0.806,1.428-1.081s1.187-0.413,1.802-0.413c0.498,0,0.951,0.097,1.361,0.29
		s0.73,0.461,0.959,0.805c0.229,0.342,0.342,0.728,0.342,1.155c0,0.779-0.336,1.403-1.01,1.872c-0.352,0.24-0.789,0.469-1.311,0.686
		v0.035c0.826,0.047,1.447,0.231,1.863,0.554s0.625,0.773,0.625,1.354c0,0.27-0.063,0.567-0.189,0.892
		c-0.126,0.326-0.305,0.66-0.536,1.002c-0.231,0.344-0.509,0.685-0.831,1.024c-0.703,0.744-1.467,1.326-2.293,1.745
		c-0.826,0.418-1.62,0.628-2.382,0.628c-0.727,0-1.332-0.231-1.815-0.694s-0.725-1.043-0.725-1.74c0-0.475,0.163-0.949,0.488-1.424
		s0.746-0.862,1.261-1.164s1.031-0.453,1.547-0.453c0.217,0,0.325,0.079,0.325,0.237c0,0.064-0.091,0.173-0.272,0.325
		c-0.018,0.018-0.037,0.037-0.057,0.057c-0.021,0.021-0.042,0.043-0.066,0.066c-0.229,0.264-0.406,0.592-0.532,0.984
		s-0.189,0.803-0.189,1.23C10.168,56.375,10.253,56.735,10.423,57.034z"/>
</g>
</svg>
