<?xml version="1.0" encoding="utf-8"?>
<!-- Generator: Adobe Illustrator 16.0.0, SVG Export Plug-In . SVG Version: 6.00 Build 0)  -->
<!DOCTYPE svg PUBLIC "-//W3C//DTD SVG 1.1//EN" "http://www.w3.org/Graphics/SVG/1.1/DTD/svg11.dtd">
<svg version="1.1" id="Layer_1" xmlns="http://www.w3.org/2000/svg" xmlns:xlink="http://www.w3.org/1999/xlink" x="0px" y="0px"
	 width="26px" height="102px" viewBox="0 0 26 102" enable-background="new 0 0 26 102" xml:space="preserve">
<rect id="backgroundrect" fill="none" width="26" height="102"/>
<title>Layer 1</title>
<path id="svg_1" fill="#4598D3" d="M16.419,32.593c0,0,12.765-5.057,8.495-15.551c-2.595-6.375-4.396-10.495-4.236-13.921
	c0.107-2.318-2.344-3.873-4.371-2.744C10.362,3.689,2.775,9.295,1.175,16.784c-2.687,12.588,6.076,15.411,6.076,15.411
	L16.419,32.593z"/>
<path id="svg_2" fill="#4598D3" d="M7.251,32.194l9.168,0.398c0,0,5.988-2.372,8.39-7.24C21.563,21.892,15.711,18,7.739,22.13
	c-2.452,1.27-4.503,2.688-6.22,4.148C3.302,30.922,7.251,32.194,7.251,32.194z"/>
<path id="svg_3" fill="#FFAA75" d="M7.912,99.604c1.652,3.149,6.167,3.149,7.818,0c3.442-6.567,7.912-18.104,7.912-33.753
	c0-17.373-2.756-28.543-4.503-33.883c-0.724-2.208-2.78-3.703-5.104-3.703l-4.428,0c-2.324,0-4.381,1.495-5.104,3.703
	C2.755,37.308,0,48.479,0,65.852C0,81.5,4.47,93.037,7.912,99.604z"/>
<path id="svg_4" fill="#FF8C42" d="M19.766,90.11c2.141-6.351,3.877-14.507,3.877-24.259c0-17.374-2.755-28.543-4.503-33.883
	c-0.724-2.209-2.78-3.704-5.104-3.704l-4.427,0c-2.324,0-4.381,1.495-5.104,3.703c-0.579,1.765-1.266,4.168-1.928,7.222
	c5.229,0.713,9.763,4.361,11.489,9.578C20.417,67.967,19.766,90.078,19.766,90.11z"/>
<path id="svg_5" fill="#F9EE80" d="M23.271,55.138c-0.81-11.355-2.774-19.021-4.133-23.168c-0.723-2.208-2.779-3.704-5.104-3.704
	H9.607c-2.324,0-4.381,1.494-5.104,3.703c-1.358,4.148-3.323,11.814-4.133,23.169c3.6-0.868,7.449-1.341,11.451-1.341
	C15.822,53.797,19.672,54.269,23.271,55.138z"/>
<path id="svg_6" fill="#EEDB00" d="M15.598,53.939c2.652,0.199,5.222,0.606,7.674,1.198c-0.81-11.355-2.774-19.021-4.133-23.168
	c-0.723-2.208-2.779-3.704-5.104-3.704H9.607c-2.324,0-4.381,1.494-5.104,3.703c-0.578,1.765-1.267,4.17-1.928,7.223
	c5.229,0.713,9.763,4.361,11.489,9.578C14.629,50.475,15.138,52.204,15.598,53.939z"/>
<path id="svg_7" fill="#4598D3" d="M16.307,0.376C10.362,3.689,2.775,9.295,1.176,16.783c-0.238,1.116-0.386,2.156-0.458,3.123
	c0,0,5.472-4.792,11.751-3.869c6.28,0.922,10.186-4.608,10.186-4.608c-1.307-3.394-2.084-6.01-1.978-8.309
	C20.785,0.802,18.334-0.752,16.307,0.376z"/>
<g>
	<path fill="#FFFFFF" d="M9.958,56.189l0.694-0.476c-0.639-0.573-1.103-1.104-1.389-1.591s-0.429-0.987-0.429-1.5
		c0-0.426,0.097-0.834,0.292-1.224c0.195-0.39,0.469-0.736,0.822-1.038c0.354-0.302,0.764-0.536,1.229-0.704
		c0.466-0.167,0.952-0.251,1.458-0.251c0.773,0,1.16,0.131,1.16,0.393c0,0.085-0.094,0.137-0.283,0.155
		c-0.377,0.067-0.682,0.259-0.914,0.576c-0.177,0.232-0.331,0.528-0.461,0.887c-0.131,0.359-0.197,0.677-0.197,0.951
		c-0.001,0.635,0.248,1.134,0.749,1.499c0.342-0.36,0.611-0.737,0.81-1.134s0.297-0.769,0.297-1.116
		c0-0.335-0.094-0.609-0.283-0.822c-0.049-0.049-0.072-0.088-0.072-0.119c0-0.097,0.105-0.213,0.319-0.347
		c0.323-0.213,0.655-0.32,0.996-0.32c0.226,0,0.436,0.057,0.631,0.169s0.345,0.271,0.448,0.476s0.155,0.437,0.155,0.699
		c0,0.555-0.168,1.083-0.503,1.586c-0.335,0.504-0.918,1.1-1.747,1.788c0.501,0.492,0.866,0.961,1.099,1.406
		c0.231,0.444,0.347,0.893,0.347,1.344c0,0.499-0.134,0.996-0.401,1.489c-0.269,0.494-0.63,0.94-1.084,1.339
		c-0.453,0.399-0.961,0.717-1.521,0.951s-1.112,0.352-1.654,0.352c-0.865,0-1.566-0.216-2.103-0.648s-0.804-0.996-0.804-1.691
		c0-0.578,0.163-1.081,0.489-1.508C8.434,57.335,9.05,56.811,9.958,56.189z M11.705,56.518c-0.384,0.335-0.683,0.743-0.896,1.225
		s-0.32,0.984-0.32,1.508c0,0.402,0.049,0.717,0.146,0.941c0.098,0.226,0.235,0.339,0.412,0.339c0.067,0,0.152-0.026,0.256-0.078
		s0.18-0.102,0.229-0.15c0.262-0.262,0.494-0.609,0.695-1.042c0.201-0.433,0.301-0.802,0.301-1.106c0-0.384-0.073-0.717-0.219-1.001
		C12.161,56.869,11.96,56.657,11.705,56.518z"/>
</g>
</svg>
