<?xml version="1.0" encoding="utf-8"?>
<!-- Generator: Adobe Illustrator 16.0.0, SVG Export Plug-In . SVG Version: 6.00 Build 0)  -->
<!DOCTYPE svg PUBLIC "-//W3C//DTD SVG 1.1//EN" "http://www.w3.org/Graphics/SVG/1.1/DTD/svg11.dtd">
<svg version="1.1" id="Layer_1" xmlns="http://www.w3.org/2000/svg" xmlns:xlink="http://www.w3.org/1999/xlink" x="0px" y="0px"
	 width="26px" height="102px" viewBox="0 0 26 102" enable-background="new 0 0 26 102" xml:space="preserve">
<rect id="backgroundrect" fill="none" width="26" height="102"/>
<title>Layer 1</title>
<path id="svg_1" fill="#C6946B" d="M16.419,32.593c0,0,12.765-5.057,8.495-15.551c-2.595-6.375-4.396-10.495-4.237-13.921
	c0.108-2.318-2.343-3.873-4.37-2.744C10.362,3.689,2.775,9.295,1.175,16.784c-2.687,12.588,6.076,15.411,6.076,15.411L16.419,32.593
	z"/>
<path id="svg_2" fill="#C6946B" d="M7.251,32.194l9.167,0.398c0,0,5.989-2.372,8.391-7.24C21.562,21.892,15.711,18,7.739,22.13
	c-2.452,1.27-4.503,2.688-6.22,4.148C3.302,30.922,7.251,32.194,7.251,32.194z"/>
<path id="svg_3" fill="#FFAA75" d="M7.912,99.604c1.652,3.149,6.167,3.149,7.818,0c3.442-6.567,7.912-18.104,7.912-33.753
	c0-17.373-2.756-28.543-4.503-33.883c-0.724-2.208-2.78-3.703-5.104-3.703l-4.428,0c-2.324,0-4.381,1.495-5.104,3.703
	C2.755,37.308,0,48.479,0,65.852C0,81.5,4.469,93.037,7.912,99.604z"/>
<path id="svg_4" fill="#FF8C42" d="M19.766,90.11c2.141-6.351,3.877-14.507,3.877-24.259c0-17.374-2.755-28.543-4.503-33.883
	c-0.724-2.209-2.78-3.704-5.104-3.704l-4.427,0c-2.324,0-4.381,1.495-5.104,3.703c-0.579,1.765-1.266,4.168-1.928,7.222
	c5.229,0.713,9.763,4.361,11.489,9.578C20.416,67.967,19.766,90.078,19.766,90.11z"/>
<path id="svg_5" fill="#F9EE80" d="M23.271,55.138c-0.81-11.355-2.775-19.021-4.133-23.168c-0.723-2.208-2.779-3.704-5.104-3.704
	H9.607c-2.323,0-4.381,1.494-5.104,3.703c-1.358,4.148-3.323,11.814-4.133,23.169c3.6-0.868,7.449-1.341,11.451-1.341
	C15.822,53.797,19.672,54.269,23.271,55.138z"/>
<path id="svg_6" fill="#EEDB00" d="M15.598,53.939c2.652,0.199,5.222,0.606,7.674,1.198c-0.81-11.355-2.775-19.021-4.133-23.168
	c-0.723-2.208-2.779-3.704-5.104-3.704H9.607c-2.323,0-4.381,1.494-5.104,3.703c-0.578,1.765-1.267,4.17-1.928,7.223
	c5.229,0.713,9.763,4.361,11.489,9.578C14.629,50.475,15.138,52.204,15.598,53.939z"/>
<path id="svg_7" fill="#C6946B" d="M16.307,0.376C10.362,3.689,2.775,9.295,1.176,16.783c-0.239,1.116-0.386,2.156-0.458,3.123
	c0,0,5.472-4.792,11.751-3.869c6.28,0.922,10.186-4.608,10.186-4.608c-1.307-3.394-2.084-6.01-1.978-8.309
	C20.785,0.802,18.334-0.752,16.307,0.376z"/>
<g>
	<path fill="#FFFFFF" d="M5.856,51.772l0.183-0.448c-0.091,0.024-0.235,0.08-0.43,0.165c-0.42,0.177-0.688,0.265-0.804,0.265
		c-0.11,0-0.2-0.06-0.27-0.178c-0.07-0.119-0.105-0.273-0.105-0.462c0-0.159,0.04-0.348,0.119-0.567
		c0.079-0.219,0.165-0.369,0.256-0.448c0.158-0.122,0.853-0.469,2.084-1.042l0.274-0.119c0.055-0.037,0.144-0.08,0.265-0.128
		c0.811-0.396,1.329-0.594,1.554-0.594c0.201,0,0.358,0.058,0.471,0.173c0.112,0.116,0.168,0.28,0.167,0.493
		c0,0.457-0.213,1.264-0.639,2.422c-0.098,0.28-0.175,0.501-0.233,0.663c-0.058,0.161-0.142,0.4-0.251,0.718
		c-0.031,0.115-0.064,0.234-0.101,0.356c-0.213,0.713-0.369,1.249-0.466,1.608c-0.012,0.043-0.054,0.188-0.124,0.434
		c-0.07,0.247-0.12,0.426-0.151,0.535c-0.03,0.109-0.064,0.223-0.101,0.338c-0.408,1.56-0.749,2.56-1.023,2.998
		c-0.091,0.141-0.198,0.266-0.32,0.375c-0.262,0.201-0.489,0.356-0.681,0.467c-0.192,0.109-0.375,0.187-0.548,0.232
		c-0.174,0.046-0.37,0.068-0.589,0.068c-0.317,0-0.599-0.093-0.845-0.278c-0.247-0.186-0.37-0.397-0.37-0.636
		c0-0.042,0.012-0.112,0.037-0.21C3.934,56.836,4.814,54.436,5.856,51.772z"/>
	<path fill="#FFFFFF" d="M13.104,58.884h0.055c0.201,0,0.453-0.093,0.754-0.279c0.301-0.186,0.6-0.431,0.891-0.735
		c0.379-0.391,0.678-0.806,0.9-1.248c0.223-0.441,0.334-0.854,0.334-1.238c0-0.835-0.441-1.341-1.324-1.518
		c-0.172-0.024-0.293-0.063-0.367-0.114c-0.072-0.052-0.109-0.133-0.109-0.242c0-0.122,0.146-0.308,0.439-0.558
		c0.438-0.384,0.781-0.803,1.027-1.257c0.248-0.454,0.371-0.909,0.371-1.366c0-0.487-0.102-0.731-0.303-0.731
		c-0.164,0-0.367,0.13-0.611,0.389s-0.477,0.589-0.699,0.992s-0.389,0.798-0.498,1.188c-0.037,0.135-0.074,0.221-0.109,0.261
		c-0.037,0.04-0.09,0.06-0.156,0.06c-0.176,0-0.396-0.138-0.658-0.411c-0.372-0.396-0.557-0.798-0.557-1.207
		c0-0.469,0.19-0.935,0.571-1.398c0.381-0.463,0.877-0.838,1.486-1.124c0.609-0.287,1.232-0.43,1.873-0.43
		c0.518,0,0.99,0.101,1.416,0.302c0.428,0.201,0.76,0.479,0.996,0.836c0.238,0.357,0.357,0.757,0.357,1.202
		c0,0.811-0.35,1.46-1.051,1.947c-0.365,0.25-0.82,0.487-1.361,0.713v0.036c0.857,0.049,1.504,0.241,1.938,0.576
		c0.432,0.335,0.648,0.804,0.648,1.407c0,0.28-0.066,0.59-0.197,0.928c-0.131,0.339-0.316,0.686-0.557,1.042
		s-0.529,0.712-0.863,1.065c-0.732,0.773-1.527,1.378-2.387,1.814c-0.859,0.436-1.686,0.653-2.477,0.653
		c-0.756,0-1.385-0.241-1.888-0.723s-0.754-1.084-0.754-1.81c0-0.493,0.169-0.987,0.507-1.48c0.338-0.494,0.775-0.897,1.312-1.211
		c0.536-0.314,1.073-0.471,1.608-0.471c0.227,0,0.34,0.082,0.34,0.246c0,0.067-0.096,0.18-0.285,0.339
		c-0.018,0.018-0.037,0.038-0.059,0.06c-0.021,0.021-0.045,0.044-0.068,0.068c-0.238,0.274-0.422,0.615-0.553,1.023
		s-0.197,0.835-0.197,1.279C12.839,58.198,12.927,58.572,13.104,58.884z"/>
</g>
</svg>
