<?xml version="1.0" encoding="utf-8"?>
<!-- Generator: Adobe Illustrator 16.0.0, SVG Export Plug-In . SVG Version: 6.00 Build 0)  -->
<!DOCTYPE svg PUBLIC "-//W3C//DTD SVG 1.1//EN" "http://www.w3.org/Graphics/SVG/1.1/DTD/svg11.dtd">
<svg version="1.1" id="Layer_1" xmlns="http://www.w3.org/2000/svg" xmlns:xlink="http://www.w3.org/1999/xlink" x="0px" y="0px"
	 width="26px" height="102px" viewBox="0 0 26 102" enable-background="new 0 0 26 102" xml:space="preserve">
<rect id="backgroundrect" fill="none" width="26" height="102"/>
<title>Layer 1</title>
<path id="svg_1" fill="#DEDFE0" d="M16.419,32.593c0,0,12.765-5.057,8.495-15.551c-2.595-6.375-4.396-10.495-4.237-13.921
	c0.108-2.318-2.343-3.873-4.37-2.744C10.362,3.689,2.775,9.295,1.175,16.784c-2.687,12.588,6.076,15.411,6.076,15.411L16.419,32.593
	z"/>
<path id="svg_2" fill="#DEDFE0" d="M7.251,32.194l9.167,0.398c0,0,5.989-2.372,8.391-7.24C21.562,21.892,15.711,18,7.739,22.13
	c-2.452,1.27-4.503,2.688-6.22,4.148C3.302,30.922,7.251,32.194,7.251,32.194z"/>
<path id="svg_3" fill="#FFAA75" d="M7.912,99.604c1.652,3.149,6.167,3.149,7.818,0c3.442-6.567,7.912-18.104,7.912-33.753
	c0-17.373-2.756-28.543-4.503-33.883c-0.724-2.208-2.78-3.703-5.104-3.703l-4.428,0c-2.324,0-4.381,1.495-5.104,3.703
	C2.755,37.308,0,48.479,0,65.852C0,81.5,4.469,93.037,7.912,99.604z"/>
<path id="svg_4" fill="#FF8C42" d="M19.766,90.11c2.141-6.351,3.877-14.507,3.877-24.259c0-17.374-2.755-28.543-4.503-33.883
	c-0.724-2.209-2.78-3.704-5.104-3.704l-4.427,0c-2.324,0-4.381,1.495-5.104,3.703c-0.579,1.765-1.266,4.168-1.928,7.222
	c5.229,0.713,9.763,4.361,11.489,9.578C20.416,67.967,19.766,90.078,19.766,90.11z"/>
<path id="svg_5" fill="#F9EE80" d="M23.271,55.138c-0.81-11.355-2.775-19.021-4.133-23.168c-0.723-2.208-2.779-3.704-5.104-3.704
	H9.607c-2.323,0-4.381,1.494-5.104,3.703c-1.358,4.148-3.323,11.814-4.133,23.169c3.6-0.868,7.449-1.341,11.451-1.341
	C15.822,53.797,19.672,54.269,23.271,55.138z"/>
<path id="svg_6" fill="#EEDB00" d="M15.598,53.939c2.652,0.199,5.222,0.606,7.674,1.198c-0.81-11.355-2.775-19.021-4.133-23.168
	c-0.723-2.208-2.779-3.704-5.104-3.704H9.607c-2.323,0-4.381,1.494-5.104,3.703c-0.578,1.765-1.267,4.17-1.928,7.223
	c5.229,0.713,9.763,4.361,11.489,9.578C14.629,50.475,15.138,52.204,15.598,53.939z"/>
<path id="svg_7" fill="#DEDFE0" d="M16.307,0.376C10.362,3.689,2.775,9.295,1.176,16.783c-0.239,1.116-0.386,2.156-0.458,3.123
	c0,0,5.472-4.792,11.751-3.869c6.28,0.922,10.186-4.608,10.186-4.608c-1.307-3.394-2.084-6.01-1.978-8.309
	C20.785,0.802,18.334-0.752,16.307,0.376z"/>
<g>
	<path fill="#FFFFFF" d="M6.711,52.412l0.176-0.431c-0.088,0.023-0.226,0.076-0.413,0.158c-0.404,0.17-0.662,0.255-0.773,0.255
		c-0.105,0-0.192-0.057-0.259-0.172c-0.067-0.113-0.101-0.262-0.101-0.443c0-0.152,0.038-0.334,0.114-0.545s0.158-0.354,0.246-0.431
		c0.152-0.117,0.82-0.451,2.004-1.002l0.264-0.114c0.053-0.035,0.138-0.076,0.255-0.123c0.779-0.381,1.277-0.571,1.494-0.571
		c0.193,0,0.344,0.056,0.453,0.167s0.162,0.27,0.161,0.474c0,0.439-0.205,1.216-0.615,2.329c-0.094,0.271-0.168,0.482-0.224,0.639
		c-0.056,0.154-0.136,0.385-0.242,0.689c-0.029,0.111-0.062,0.226-0.096,0.343c-0.205,0.686-0.354,1.201-0.448,1.547
		c-0.012,0.041-0.051,0.18-0.119,0.417s-0.116,0.409-0.145,0.515s-0.062,0.214-0.097,0.325c-0.393,1.5-0.72,2.461-0.984,2.883
		c-0.088,0.135-0.19,0.255-0.308,0.36c-0.252,0.193-0.47,0.343-0.654,0.448c-0.185,0.105-0.36,0.181-0.527,0.224
		c-0.167,0.045-0.356,0.066-0.567,0.066c-0.305,0-0.576-0.089-0.813-0.268c-0.237-0.179-0.356-0.383-0.356-0.611
		c0-0.041,0.012-0.108,0.035-0.202C4.863,57.281,5.709,54.973,6.711,52.412z"/>
	<path fill="#FFFFFF" d="M15.852,51.981l-0.535,0.624l0.035,0.035c0.785-0.516,1.455-0.773,2.012-0.773
		c0.422,0,0.799,0.103,1.129,0.308c0.332,0.205,0.59,0.485,0.773,0.839c0.186,0.355,0.277,0.761,0.277,1.218
		c0,0.551-0.09,1.121-0.271,1.709c-0.182,0.59-0.439,1.158-0.773,1.705c-0.334,0.549-0.725,1.036-1.17,1.464
		c-0.398,0.387-0.891,0.693-1.477,0.919s-1.16,0.338-1.723,0.338c-1.083,0-1.91-0.229-2.478-0.689s-0.853-1.13-0.853-2.009
		c0-0.779,0.252-1.743,0.756-2.892s1.283-2.531,2.338-4.148c0.416-0.662,0.758-1.137,1.027-1.424
		c0.135-0.146,0.262-0.249,0.379-0.308s0.301-0.105,0.553-0.141c0.439-0.07,0.885-0.105,1.336-0.105
		c0.686,0,1.029,0.185,1.029,0.554c0,0.188-0.217,0.475-0.65,0.861c-0.252,0.211-0.66,0.656-1.223,1.336L15.852,51.981z
		 M14.867,53.563c-0.205,0-0.416,0.12-0.633,0.36s-0.394,0.547-0.531,0.919c-0.138,0.371-0.207,0.736-0.207,1.094
		c0,0.48,0.092,0.929,0.277,1.345s0.439,0.749,0.765,0.997c0.325,0.25,0.663,0.374,1.015,0.374c0.188,0,0.338-0.053,0.449-0.158
		c0.188-0.217,0.34-0.568,0.461-1.055c0.119-0.486,0.18-1.005,0.18-1.556c0-0.486-0.072-0.904-0.215-1.252
		c-0.145-0.349-0.346-0.614-0.607-0.796C15.561,53.654,15.242,53.563,14.867,53.563z"/>
</g>
</svg>
