<?xml version="1.0" encoding="utf-8"?>
<!-- Generator: Adobe Illustrator 16.0.0, SVG Export Plug-In . SVG Version: 6.00 Build 0)  -->
<!DOCTYPE svg PUBLIC "-//W3C//DTD SVG 1.1//EN" "http://www.w3.org/Graphics/SVG/1.1/DTD/svg11.dtd">
<svg version="1.1" id="Layer_1" xmlns="http://www.w3.org/2000/svg" xmlns:xlink="http://www.w3.org/1999/xlink" x="0px" y="0px"
	 width="26px" height="102px" viewBox="0 0 26 102" enable-background="new 0 0 26 102" xml:space="preserve">
<rect id="backgroundrect" fill="none" width="26" height="102"/>
<title>Layer 1</title>
<path id="svg_1" fill="#231F20" d="M16.419,32.593c0,0,12.765-5.057,8.495-15.551c-2.595-6.375-4.396-10.495-4.237-13.921
	c0.108-2.318-2.343-3.873-4.37-2.744C10.362,3.689,2.775,9.295,1.175,16.784c-2.687,12.588,6.076,15.411,6.076,15.411L16.419,32.593
	z"/>
<path id="svg_2" fill="#231F20" d="M7.251,32.194l9.167,0.398c0,0,5.989-2.372,8.391-7.24C21.562,21.892,15.711,18,7.739,22.13
	c-2.452,1.27-4.503,2.688-6.22,4.148C3.302,30.922,7.251,32.194,7.251,32.194z"/>
<path id="svg_3" fill="#FFAA75" d="M7.912,99.604c1.652,3.149,6.167,3.149,7.818,0c3.442-6.567,7.912-18.104,7.912-33.753
	c0-17.373-2.756-28.543-4.503-33.883c-0.724-2.208-2.78-3.703-5.104-3.703l-4.428,0c-2.324,0-4.381,1.495-5.104,3.703
	C2.755,37.308,0,48.479,0,65.852C0,81.5,4.469,93.037,7.912,99.604z"/>
<path id="svg_4" fill="#FF8C42" d="M19.766,90.11c2.141-6.351,3.877-14.507,3.877-24.259c0-17.374-2.755-28.543-4.503-33.883
	c-0.724-2.209-2.78-3.704-5.104-3.704l-4.427,0c-2.324,0-4.381,1.495-5.104,3.703c-0.579,1.765-1.266,4.168-1.928,7.222
	c5.229,0.713,9.763,4.361,11.489,9.578C20.416,67.967,19.766,90.078,19.766,90.11z"/>
<path id="svg_5" fill="#F9EE80" d="M23.271,55.138c-0.81-11.355-2.775-19.021-4.133-23.168c-0.723-2.208-2.779-3.704-5.104-3.704
	H9.607c-2.323,0-4.381,1.494-5.104,3.703c-1.358,4.148-3.323,11.814-4.133,23.169c3.6-0.868,7.449-1.341,11.451-1.341
	C15.822,53.797,19.672,54.269,23.271,55.138z"/>
<path id="svg_6" fill="#EEDB00" d="M15.598,53.939c2.652,0.199,5.222,0.606,7.674,1.198c-0.81-11.355-2.775-19.021-4.133-23.168
	c-0.723-2.208-2.779-3.704-5.104-3.704H9.607c-2.323,0-4.381,1.494-5.104,3.703c-0.578,1.765-1.267,4.17-1.928,7.223
	c5.229,0.713,9.763,4.361,11.489,9.578C14.629,50.475,15.138,52.204,15.598,53.939z"/>
<path id="svg_7" fill="#231F20" d="M16.307,0.376C10.362,3.689,2.775,9.295,1.176,16.783c-0.239,1.116-0.386,2.156-0.458,3.123
	c0,0,5.472-4.792,11.751-3.869c6.28,0.922,10.186-4.608,10.186-4.608c-1.307-3.394-2.084-6.01-1.978-8.309
	C20.785,0.802,18.334-0.752,16.307,0.376z"/>
<g>
	<path fill="#FFFFFF" d="M7.365,53.168l0.176-0.431c-0.088,0.023-0.226,0.076-0.413,0.158c-0.404,0.17-0.662,0.255-0.773,0.255
		c-0.105,0-0.192-0.057-0.259-0.172c-0.067-0.113-0.101-0.262-0.101-0.443c0-0.152,0.038-0.334,0.114-0.545s0.158-0.354,0.246-0.431
		c0.152-0.117,0.82-0.451,2.004-1.002l0.264-0.114c0.053-0.035,0.138-0.076,0.255-0.123c0.779-0.381,1.277-0.571,1.494-0.571
		c0.193,0,0.344,0.056,0.453,0.167s0.162,0.27,0.161,0.474c0,0.439-0.205,1.215-0.615,2.329c-0.094,0.271-0.168,0.482-0.224,0.639
		c-0.056,0.154-0.136,0.385-0.242,0.689c-0.029,0.111-0.062,0.226-0.096,0.343c-0.205,0.686-0.354,1.201-0.448,1.547
		c-0.012,0.041-0.051,0.18-0.119,0.417s-0.116,0.409-0.145,0.515s-0.062,0.214-0.097,0.325c-0.393,1.5-0.72,2.461-0.984,2.883
		c-0.088,0.135-0.19,0.255-0.308,0.36c-0.252,0.193-0.47,0.343-0.654,0.448c-0.185,0.105-0.36,0.181-0.527,0.224
		c-0.167,0.045-0.356,0.066-0.567,0.066c-0.305,0-0.576-0.089-0.813-0.268c-0.237-0.179-0.356-0.383-0.356-0.611
		c0-0.041,0.012-0.108,0.035-0.202C5.516,58.037,6.363,55.729,7.365,53.168z"/>
	<path fill="#FFFFFF" d="M13.877,56.104l0.668-0.457c-0.615-0.552-1.061-1.062-1.335-1.53c-0.275-0.469-0.413-0.949-0.413-1.441
		c0-0.41,0.094-0.803,0.281-1.178s0.452-0.708,0.792-0.998s0.733-0.516,1.182-0.677c0.447-0.161,0.916-0.242,1.402-0.242
		c0.744,0,1.115,0.126,1.115,0.378c0,0.082-0.09,0.132-0.271,0.149c-0.363,0.064-0.656,0.249-0.879,0.554
		c-0.17,0.223-0.318,0.507-0.445,0.853c-0.125,0.346-0.188,0.651-0.188,0.915c-0.002,0.609,0.238,1.09,0.719,1.44
		c0.328-0.346,0.588-0.709,0.779-1.09c0.189-0.381,0.285-0.739,0.285-1.073c0-0.322-0.09-0.585-0.271-0.791
		c-0.047-0.047-0.07-0.085-0.07-0.115c0-0.094,0.102-0.205,0.307-0.334c0.311-0.205,0.631-0.308,0.959-0.308
		c0.217,0,0.418,0.054,0.605,0.163s0.332,0.261,0.432,0.458c0.1,0.196,0.148,0.42,0.148,0.672c0,0.534-0.16,1.042-0.482,1.526
		c-0.322,0.483-0.883,1.057-1.68,1.719c0.48,0.473,0.832,0.924,1.055,1.352s0.334,0.858,0.334,1.292c0,0.48-0.129,0.958-0.387,1.433
		s-0.605,0.904-1.041,1.288c-0.438,0.384-0.924,0.688-1.463,0.914c-0.539,0.225-1.07,0.338-1.592,0.338
		c-0.832,0-1.505-0.208-2.021-0.624s-0.773-0.958-0.773-1.626c0-0.557,0.157-1.04,0.47-1.449
		C12.411,57.206,13.004,56.702,13.877,56.104z M15.557,56.42c-0.369,0.322-0.656,0.715-0.861,1.178s-0.309,0.946-0.309,1.45
		c0,0.387,0.047,0.688,0.141,0.905s0.227,0.325,0.396,0.325c0.064,0,0.146-0.024,0.246-0.074s0.172-0.099,0.219-0.146
		c0.252-0.252,0.475-0.586,0.668-1.002s0.291-0.771,0.291-1.063c0-0.369-0.07-0.689-0.211-0.962S15.803,56.555,15.557,56.42z"/>
</g>
</svg>
