<?xml version="1.0" encoding="utf-8"?>
<!-- Generator: Adobe Illustrator 16.0.0, SVG Export Plug-In . SVG Version: 6.00 Build 0)  -->
<!DOCTYPE svg PUBLIC "-//W3C//DTD SVG 1.1//EN" "http://www.w3.org/Graphics/SVG/1.1/DTD/svg11.dtd">
<svg version="1.1" id="Layer_1" xmlns="http://www.w3.org/2000/svg" xmlns:xlink="http://www.w3.org/1999/xlink" x="0px" y="0px"
	 width="26px" height="102px" viewBox="0 0 26 102" enable-background="new 0 0 26 102" xml:space="preserve">
<rect id="backgroundrect" fill="none" width="26" height="102"/>
<title>Layer 1</title>
<path id="svg_1" fill="#AF7A4A" d="M16.419,32.593c0,0,12.765-5.057,8.495-15.551c-2.595-6.375-4.396-10.495-4.237-13.921
	c0.108-2.318-2.343-3.873-4.37-2.744C10.362,3.689,2.775,9.295,1.175,16.784c-2.687,12.588,6.076,15.411,6.076,15.411L16.419,32.593
	z"/>
<path id="svg_2" fill="#AF7A4A" d="M7.251,32.194l9.167,0.398c0,0,5.989-2.372,8.391-7.24C21.562,21.892,15.711,18,7.739,22.13
	c-2.452,1.27-4.503,2.688-6.22,4.148C3.302,30.922,7.251,32.194,7.251,32.194z"/>
<path id="svg_3" fill="#FFAA75" d="M7.912,99.604c1.652,3.149,6.167,3.149,7.818,0c3.442-6.567,7.912-18.104,7.912-33.753
	c0-17.373-2.756-28.543-4.503-33.883c-0.724-2.208-2.78-3.703-5.104-3.703l-4.428,0c-2.324,0-4.381,1.495-5.104,3.703
	C2.755,37.308,0,48.479,0,65.852C0,81.5,4.469,93.037,7.912,99.604z"/>
<path id="svg_4" fill="#FF8C42" d="M19.766,90.11c2.141-6.351,3.877-14.507,3.877-24.259c0-17.374-2.755-28.543-4.503-33.883
	c-0.724-2.209-2.78-3.704-5.104-3.704l-4.427,0c-2.324,0-4.381,1.495-5.104,3.703c-0.579,1.765-1.266,4.168-1.928,7.222
	c5.229,0.713,9.763,4.361,11.489,9.578C20.416,67.967,19.766,90.078,19.766,90.11z"/>
<path id="svg_5" fill="#F9EE80" d="M23.271,55.138c-0.81-11.355-2.775-19.021-4.133-23.168c-0.723-2.208-2.779-3.704-5.104-3.704
	H9.607c-2.323,0-4.381,1.494-5.104,3.703c-1.358,4.148-3.323,11.814-4.133,23.169c3.6-0.868,7.449-1.341,11.451-1.341
	C15.822,53.797,19.672,54.269,23.271,55.138z"/>
<path id="svg_6" fill="#EEDB00" d="M15.598,53.939c2.652,0.199,5.222,0.606,7.674,1.198c-0.81-11.355-2.775-19.021-4.133-23.168
	c-0.723-2.208-2.779-3.704-5.104-3.704H9.607c-2.323,0-4.381,1.494-5.104,3.703c-0.578,1.765-1.267,4.17-1.928,7.223
	c5.229,0.713,9.763,4.361,11.489,9.578C14.629,50.475,15.138,52.204,15.598,53.939z"/>
<path id="svg_7" fill="#AF7A4A" d="M16.307,0.376C10.362,3.689,2.775,9.295,1.176,16.783c-0.239,1.116-0.386,2.156-0.458,3.123
	c0,0,5.472-4.792,11.751-3.869c6.28,0.922,10.186-4.608,10.186-4.608c-1.307-3.394-2.084-6.01-1.978-8.309
	C20.785,0.802,18.334-0.752,16.307,0.376z"/>
<g>
	<path fill="#FFFFFF" d="M7.462,51.772l0.183-0.448c-0.091,0.024-0.235,0.08-0.43,0.165c-0.42,0.177-0.688,0.265-0.804,0.265
		c-0.11,0-0.2-0.06-0.27-0.178c-0.07-0.119-0.105-0.273-0.105-0.462c0-0.159,0.04-0.348,0.119-0.567
		c0.079-0.219,0.165-0.369,0.256-0.448c0.158-0.122,0.853-0.469,2.084-1.042l0.274-0.119c0.055-0.037,0.144-0.08,0.265-0.128
		c0.811-0.396,1.329-0.594,1.554-0.594c0.201,0,0.358,0.058,0.471,0.173c0.112,0.116,0.168,0.28,0.167,0.493
		c0,0.457-0.213,1.264-0.639,2.422c-0.098,0.28-0.175,0.501-0.233,0.663c-0.058,0.161-0.142,0.4-0.251,0.718
		c-0.031,0.115-0.064,0.234-0.101,0.356c-0.213,0.713-0.369,1.249-0.466,1.608c-0.012,0.043-0.054,0.188-0.124,0.434
		c-0.07,0.247-0.12,0.426-0.151,0.535c-0.03,0.109-0.064,0.223-0.101,0.338c-0.408,1.56-0.749,2.56-1.023,2.998
		c-0.091,0.141-0.198,0.266-0.32,0.375c-0.262,0.201-0.489,0.356-0.681,0.467c-0.192,0.109-0.375,0.187-0.548,0.232
		c-0.174,0.046-0.37,0.068-0.589,0.068c-0.317,0-0.599-0.093-0.845-0.278c-0.247-0.186-0.37-0.397-0.37-0.636
		c0-0.042,0.012-0.112,0.037-0.21C5.539,56.836,6.42,54.436,7.462,51.772z"/>
	<path fill="#FFFFFF" d="M14.391,55.456l0.145-0.183c0.416-0.628,0.707-1.094,0.879-1.399c0.17-0.304,0.307-0.624,0.41-0.959
		c0.152-0.463,0.229-0.944,0.229-1.444c0-0.512-0.063-0.896-0.188-1.152s-0.354-0.466-0.689-0.631
		c-0.426,0.616-0.641,1.396-0.641,2.34c0,0.365,0.059,0.74,0.174,1.124c0.049,0.141,0.074,0.234,0.074,0.283
		c0,0.177-0.096,0.266-0.283,0.266c-0.171,0-0.402-0.072-0.695-0.215c-0.293-0.144-0.515-0.291-0.667-0.443
		c-0.171-0.183-0.311-0.421-0.42-0.713c-0.11-0.293-0.165-0.604-0.165-0.933c0-0.463,0.096-0.905,0.288-1.325
		c0.192-0.42,0.462-0.786,0.809-1.097c0.347-0.311,0.761-0.553,1.239-0.727c0.479-0.173,0.984-0.26,1.521-0.26
		c0.535,0,1.025,0.117,1.467,0.352s0.793,0.557,1.055,0.968c0.264,0.411,0.395,0.857,0.395,1.338c0,0.359-0.07,0.743-0.207,1.15
		c-0.139,0.408-0.355,0.863-0.652,1.366c-0.295,0.502-0.676,1.055-1.139,1.658s-1.002,1.252-1.619,1.946l-0.182,0.22l-0.156,0.174
		c0.256,0.075,0.607,0.113,1.053,0.113s0.893-0.024,1.342-0.073c0.447-0.048,0.801-0.112,1.057-0.191
		c0.17-0.049,0.283-0.073,0.338-0.073c0.063,0,0.092,0.019,0.092,0.055c0,0.226-0.145,0.576-0.434,1.052
		c-0.289,0.475-0.592,0.868-0.91,1.179c-0.328,0.311-0.723,0.538-1.184,0.681c-0.459,0.144-1.027,0.215-1.703,0.215
		c-0.866,0-1.61-0.119-2.231-0.356c-0.622-0.237-0.933-0.523-0.933-0.859c0-0.231,0.314-0.694,0.941-1.389
		c0.445-0.506,0.85-1.009,1.216-1.509c0.023-0.036,0.05-0.073,0.077-0.109s0.052-0.071,0.073-0.105
		c0.021-0.033,0.051-0.08,0.087-0.142L14.391,55.456z"/>
</g>
</svg>
