<?xml version="1.0" encoding="utf-8"?>
<!-- Generator: Adobe Illustrator 16.0.0, SVG Export Plug-In . SVG Version: 6.00 Build 0)  -->
<!DOCTYPE svg PUBLIC "-//W3C//DTD SVG 1.1//EN" "http://www.w3.org/Graphics/SVG/1.1/DTD/svg11.dtd">
<svg version="1.1" id="Layer_1" xmlns="http://www.w3.org/2000/svg" xmlns:xlink="http://www.w3.org/1999/xlink" x="0px" y="0px"
	 width="26px" height="102px" viewBox="0 0 26 102" enable-background="new 0 0 26 102" xml:space="preserve">
<rect id="backgroundrect" fill="none" width="26" height="102"/>
<title>Layer 1</title>
<path id="svg_1" fill="#FCFCFC" d="M16.419,32.593c0,0,12.765-5.057,8.495-15.551c-2.596-6.375-4.396-10.495-4.237-13.921
	c0.108-2.318-2.343-3.873-4.37-2.744C10.362,3.689,2.775,9.295,1.175,16.784c-2.687,12.588,6.076,15.411,6.076,15.411L16.419,32.593
	z"/>
<path id="svg_2" fill="#FCFCFC" d="M7.251,32.194l9.167,0.398c0,0,5.989-2.372,8.391-7.24c-3.246-3.46-9.098-7.352-17.07-3.222
	c-2.452,1.27-4.503,2.688-6.22,4.148C3.302,30.922,7.251,32.194,7.251,32.194z"/>
<path id="svg_3" fill="#FFAA75" d="M7.912,99.604c1.652,3.149,6.167,3.149,7.818,0c3.441-6.566,7.912-18.104,7.912-33.752
	c0-17.374-2.756-28.543-4.504-33.884c-0.724-2.208-2.779-3.703-5.104-3.703H9.607c-2.324,0-4.381,1.495-5.104,3.703
	C2.755,37.308,0,48.479,0,65.852C0,81.5,4.469,93.037,7.912,99.604z"/>
<path id="svg_4" fill="#FF8C42" d="M19.766,90.109c2.142-6.351,3.877-14.506,3.877-24.258c0-17.375-2.754-28.543-4.502-33.884
	c-0.725-2.209-2.781-3.704-5.104-3.704H9.609c-2.324,0-4.381,1.495-5.104,3.703c-0.579,1.765-1.266,4.168-1.928,7.222
	c5.229,0.713,9.763,4.361,11.489,9.578C20.416,67.967,19.766,90.078,19.766,90.109z"/>
<path id="svg_5" fill="#F9EE80" d="M23.271,55.138c-0.811-11.354-2.775-19.021-4.133-23.168c-0.724-2.208-2.779-3.704-5.104-3.704
	H9.607c-2.323,0-4.381,1.494-5.104,3.703C3.145,36.117,1.18,43.783,0.37,55.138c3.6-0.868,7.449-1.341,11.451-1.341
	C15.822,53.797,19.672,54.27,23.271,55.138z"/>
<path id="svg_6" fill="#EEDB00" d="M15.598,53.939c2.652,0.198,5.223,0.605,7.674,1.197c-0.81-11.354-2.774-19.021-4.133-23.168
	c-0.723-2.208-2.779-3.704-5.104-3.704H9.607c-2.323,0-4.381,1.494-5.104,3.703c-0.578,1.765-1.267,4.17-1.928,7.223
	c5.229,0.713,9.763,4.361,11.489,9.578C14.629,50.475,15.139,52.204,15.598,53.939z"/>
<path id="svg_7" fill="#FCFCFC" d="M16.307,0.376C10.362,3.689,2.775,9.295,1.176,16.783c-0.239,1.116-0.386,2.156-0.458,3.123
	c0,0,5.472-4.792,11.751-3.869c6.28,0.922,10.186-4.608,10.186-4.608c-1.307-3.394-2.084-6.01-1.978-8.309
	C20.785,0.802,18.334-0.752,16.307,0.376z"/>
<g enable-background="new    ">
	<path d="M6.653,55.904l0.141-0.176c0.398-0.604,0.68-1.052,0.844-1.345s0.296-0.601,0.396-0.923c0.146-0.445,0.22-0.908,0.22-1.389
		c0-0.492-0.06-0.861-0.18-1.107s-0.341-0.448-0.664-0.606c-0.41,0.592-0.615,1.342-0.615,2.25c0,0.352,0.056,0.712,0.167,1.081
		c0.047,0.135,0.07,0.226,0.07,0.272c0,0.17-0.091,0.255-0.272,0.255c-0.164,0-0.387-0.068-0.668-0.207
		c-0.281-0.137-0.495-0.279-0.642-0.426c-0.164-0.176-0.299-0.404-0.404-0.686s-0.158-0.58-0.158-0.896
		c0-0.445,0.092-0.87,0.277-1.274s0.444-0.756,0.778-1.055s0.731-0.532,1.191-0.698c0.46-0.168,0.948-0.251,1.463-0.251
		s0.986,0.112,1.411,0.338s0.763,0.536,1.015,0.932c0.252,0.395,0.378,0.824,0.378,1.286c0,0.346-0.066,0.715-0.199,1.107
		c-0.132,0.392-0.341,0.83-0.626,1.313c-0.286,0.483-0.651,1.015-1.096,1.595s-0.964,1.204-1.556,1.872l-0.176,0.211l-0.149,0.167
		c0.247,0.073,0.584,0.109,1.012,0.109s0.858-0.023,1.29-0.07c0.431-0.047,0.77-0.108,1.017-0.185
		c0.164-0.047,0.272-0.07,0.326-0.07c0.059,0,0.088,0.018,0.088,0.053c0,0.217-0.139,0.554-0.417,1.011s-0.57,0.835-0.875,1.134
		c-0.316,0.299-0.696,0.518-1.138,0.654c-0.442,0.139-0.989,0.207-1.639,0.207c-0.832,0-1.547-0.114-2.145-0.343
		s-0.896-0.504-0.896-0.826c0-0.223,0.302-0.668,0.905-1.336c0.428-0.486,0.817-0.97,1.169-1.45c0.023-0.035,0.048-0.07,0.075-0.105
		s0.05-0.068,0.07-0.102c0.021-0.031,0.048-0.077,0.083-0.136L6.653,55.904z"/>
	<path d="M14.722,55.904l0.141-0.176c0.398-0.604,0.68-1.052,0.844-1.345s0.296-0.601,0.396-0.923
		c0.146-0.445,0.22-0.908,0.22-1.389c0-0.492-0.06-0.861-0.181-1.107c-0.119-0.246-0.341-0.448-0.663-0.606
		c-0.41,0.592-0.615,1.342-0.615,2.25c0,0.352,0.056,0.712,0.167,1.081c0.047,0.135,0.07,0.226,0.07,0.272
		c0,0.17-0.091,0.255-0.272,0.255c-0.164,0-0.387-0.068-0.668-0.207c-0.281-0.137-0.495-0.279-0.642-0.426
		c-0.164-0.176-0.299-0.404-0.404-0.686s-0.158-0.58-0.158-0.896c0-0.445,0.092-0.87,0.277-1.274s0.444-0.756,0.778-1.055
		s0.73-0.532,1.191-0.698c0.459-0.168,0.947-0.251,1.463-0.251s0.986,0.112,1.41,0.338c0.426,0.226,0.764,0.536,1.016,0.932
		c0.252,0.395,0.378,0.824,0.378,1.286c0,0.346-0.066,0.715-0.198,1.107c-0.133,0.392-0.342,0.83-0.627,1.313
		c-0.285,0.483-0.65,1.015-1.096,1.595s-0.964,1.204-1.557,1.872l-0.176,0.211l-0.148,0.167c0.246,0.073,0.584,0.109,1.012,0.109
		s0.857-0.023,1.289-0.07s0.771-0.108,1.018-0.185c0.164-0.047,0.271-0.07,0.325-0.07c0.059,0,0.088,0.018,0.088,0.053
		c0,0.217-0.14,0.554-0.417,1.011c-0.279,0.457-0.57,0.835-0.875,1.134c-0.316,0.299-0.695,0.518-1.139,0.654
		c-0.441,0.139-0.988,0.207-1.639,0.207c-0.832,0-1.547-0.114-2.145-0.343s-0.896-0.504-0.896-0.826
		c0-0.223,0.302-0.668,0.905-1.336c0.428-0.486,0.817-0.97,1.169-1.45c0.023-0.035,0.049-0.07,0.074-0.105
		c0.027-0.035,0.051-0.068,0.07-0.102c0.021-0.031,0.049-0.077,0.084-0.136L14.722,55.904z"/>
</g>
</svg>
