<?xml version="1.0" encoding="utf-8"?>
<!-- Generator: Adobe Illustrator 16.0.0, SVG Export Plug-In . SVG Version: 6.00 Build 0)  -->
<!DOCTYPE svg PUBLIC "-//W3C//DTD SVG 1.1//EN" "http://www.w3.org/Graphics/SVG/1.1/DTD/svg11.dtd">
<svg version="1.1" id="Layer_1" xmlns="http://www.w3.org/2000/svg" xmlns:xlink="http://www.w3.org/1999/xlink" x="0px" y="0px"
	 width="26px" height="102px" viewBox="0 0 26 102" enable-background="new 0 0 26 102" xml:space="preserve">
<rect id="backgroundrect" fill="none" width="26" height="102"/>
<title>Layer 1</title>
<path id="svg_1" fill="#4D4D4D" d="M16.419,32.593c0,0,12.765-5.057,8.495-15.551c-2.595-6.375-4.396-10.495-4.237-13.921
	c0.108-2.318-2.343-3.873-4.37-2.744C10.362,3.689,2.775,9.295,1.175,16.784c-2.687,12.588,6.076,15.411,6.076,15.411L16.419,32.593
	z"/>
<path id="svg_2" fill="#4D4D4D" d="M7.251,32.194l9.167,0.398c0,0,5.989-2.372,8.391-7.24C21.562,21.892,15.711,18,7.739,22.13
	c-2.452,1.27-4.503,2.688-6.22,4.148C3.302,30.922,7.251,32.194,7.251,32.194z"/>
<path id="svg_3" fill="#FFAA75" d="M7.912,99.604c1.652,3.149,6.167,3.149,7.818,0c3.442-6.567,7.912-18.104,7.912-33.753
	c0-17.373-2.756-28.543-4.503-33.883c-0.724-2.208-2.78-3.703-5.104-3.703l-4.428,0c-2.324,0-4.381,1.495-5.104,3.703
	C2.755,37.308,0,48.479,0,65.852C0,81.5,4.469,93.037,7.912,99.604z"/>
<path id="svg_4" fill="#FF8C42" d="M19.766,90.11c2.141-6.351,3.877-14.507,3.877-24.259c0-17.374-2.755-28.543-4.503-33.883
	c-0.724-2.209-2.78-3.704-5.104-3.704l-4.427,0c-2.324,0-4.381,1.495-5.104,3.703c-0.579,1.765-1.266,4.168-1.928,7.222
	c5.229,0.713,9.763,4.361,11.489,9.578C20.416,67.967,19.766,90.078,19.766,90.11z"/>
<path id="svg_5" fill="#F9EE80" d="M23.271,55.138c-0.81-11.355-2.775-19.021-4.133-23.168c-0.723-2.208-2.779-3.704-5.104-3.704
	H9.607c-2.323,0-4.381,1.494-5.104,3.703c-1.358,4.148-3.323,11.814-4.133,23.169c3.6-0.868,7.449-1.341,11.451-1.341
	C15.822,53.797,19.672,54.269,23.271,55.138z"/>
<path id="svg_6" fill="#EEDB00" d="M15.598,53.939c2.652,0.199,5.222,0.606,7.674,1.198c-0.81-11.355-2.775-19.021-4.133-23.168
	c-0.723-2.208-2.779-3.704-5.104-3.704H9.607c-2.323,0-4.381,1.494-5.104,3.703c-0.578,1.765-1.267,4.17-1.928,7.223
	c5.229,0.713,9.763,4.361,11.489,9.578C14.629,50.475,15.138,52.204,15.598,53.939z"/>
<path id="svg_7" fill="#4D4D4D" d="M16.307,0.376C10.362,3.689,2.775,9.295,1.176,16.783c-0.239,1.116-0.386,2.156-0.458,3.123
	c0,0,5.472-4.792,11.751-3.869c6.28,0.922,10.186-4.608,10.186-4.608c-1.307-3.394-2.084-6.01-1.978-8.309
	C20.785,0.802,18.334-0.752,16.307,0.376z"/>
<g>
	<path fill="#FFFFFF" d="M7.051,51.772l0.183-0.448c-0.091,0.024-0.235,0.08-0.43,0.165C6.384,51.666,6.116,51.754,6,51.754
		c-0.11,0-0.2-0.06-0.27-0.178c-0.07-0.119-0.105-0.273-0.105-0.462c0-0.159,0.04-0.348,0.119-0.567
		C5.823,50.328,5.909,50.179,6,50.1c0.158-0.122,0.853-0.469,2.084-1.042l0.274-0.119c0.055-0.037,0.144-0.08,0.265-0.128
		c0.811-0.396,1.329-0.594,1.554-0.594c0.201,0,0.358,0.058,0.471,0.173c0.112,0.116,0.168,0.28,0.167,0.493
		c0,0.457-0.213,1.264-0.639,2.422c-0.098,0.28-0.175,0.501-0.233,0.663c-0.058,0.161-0.142,0.4-0.251,0.718
		c-0.031,0.115-0.064,0.234-0.101,0.356c-0.213,0.713-0.369,1.249-0.466,1.608c-0.012,0.043-0.054,0.188-0.124,0.434
		c-0.07,0.247-0.12,0.426-0.151,0.535c-0.03,0.109-0.064,0.223-0.101,0.338c-0.408,1.56-0.749,2.56-1.023,2.998
		c-0.091,0.141-0.198,0.266-0.32,0.375c-0.262,0.201-0.489,0.356-0.681,0.467c-0.192,0.109-0.375,0.187-0.548,0.232
		c-0.174,0.046-0.37,0.068-0.589,0.068c-0.317,0-0.599-0.093-0.845-0.278c-0.247-0.186-0.37-0.397-0.37-0.636
		c0-0.042,0.012-0.112,0.037-0.21C5.128,56.836,6.009,54.436,7.051,51.772z"/>
	<path fill="#FFFFFF" d="M15.252,55.647l-0.621,0.037c-0.896,0.061-1.452,0.091-1.665,0.091c-0.372,0-0.664-0.02-0.874-0.06
		c-0.21-0.039-0.351-0.109-0.42-0.21c-0.07-0.101-0.105-0.248-0.105-0.443c0-0.152,0.044-0.368,0.133-0.648s0.26-0.743,0.517-1.39
		c0.207-0.506,0.362-0.905,0.466-1.197c0.323-0.841,0.579-1.447,0.768-1.819c0.061-0.116,0.114-0.212,0.16-0.288
		c0.045-0.076,0.099-0.166,0.16-0.27c0.2-0.317,0.444-0.567,0.73-0.75c0.652-0.439,1.271-0.658,1.855-0.658
		c0.463,0,0.695,0.113,0.695,0.338c0,0.298-0.582,1.273-1.746,2.925c-0.566,0.804-1.061,1.55-1.48,2.24l2.139-0.11
		c0.152-0.506,0.354-0.921,0.608-1.247c0.253-0.326,0.571-0.568,0.956-0.727c0.385-0.158,0.83-0.238,1.336-0.238
		c0.263,0,0.447,0.029,0.554,0.087c0.107,0.058,0.16,0.154,0.16,0.289c0,0.122-0.046,0.332-0.137,0.631
		c-0.092,0.298-0.213,0.651-0.365,1.06l-0.073,0.183c0.121-0.013,0.201-0.021,0.241-0.023c0.039-0.003,0.089-0.007,0.149-0.014
		c0.055-0.006,0.102-0.011,0.141-0.014c0.04-0.003,0.084-0.004,0.133-0.004c0.139,0,0.209,0.036,0.209,0.109
		c0,0.024-0.007,0.043-0.019,0.055c-0.109,0.244-0.261,0.507-0.456,0.791c-0.194,0.283-0.373,0.507-0.537,0.672
		c-0.128,0.152-0.295,0.259-0.501,0.319c-0.134,0.439-0.384,1.28-0.749,2.524c-0.013,0.055-0.026,0.128-0.042,0.22
		c-0.015,0.091-0.025,0.155-0.031,0.191c-0.092,0.506-0.211,0.825-0.357,0.959c-0.481,0.286-0.906,0.498-1.272,0.635
		s-0.723,0.205-1.07,0.205c-0.25,0-0.473-0.061-0.668-0.183s-0.293-0.265-0.293-0.43c0-0.158,0.064-0.446,0.192-0.863
		s0.314-0.93,0.559-1.536C14.874,56.481,15.081,56.001,15.252,55.647z"/>
</g>
</svg>
