<?xml version="1.0" encoding="utf-8"?>
<!-- Generator: Adobe Illustrator 16.0.0, SVG Export Plug-In . SVG Version: 6.00 Build 0)  -->
<!DOCTYPE svg PUBLIC "-//W3C//DTD SVG 1.1//EN" "http://www.w3.org/Graphics/SVG/1.1/DTD/svg11.dtd">
<svg version="1.1" id="Layer_1" xmlns="http://www.w3.org/2000/svg" xmlns:xlink="http://www.w3.org/1999/xlink" x="0px" y="0px"
	 width="26px" height="102px" viewBox="0 0 26 102" enable-background="new 0 0 26 102" xml:space="preserve">
<rect id="backgroundrect" fill="none" width="26" height="102"/>
<g>
	<title>Layer 1</title>
	<path id="svg_1" fill="#FF3D44" d="M16.419,32.593c0,0,12.765-5.057,8.495-15.551c-2.595-6.375-4.396-10.496-4.236-13.921
		c0.107-2.318-2.344-3.873-4.371-2.744C10.362,3.689,2.775,9.295,1.175,16.784c-2.687,12.588,6.076,15.411,6.076,15.411
		L16.419,32.593z"/>
	<path id="svg_2" fill="#ED1C24" d="M7.251,32.194l9.168,0.398c0,0,5.988-2.372,8.39-7.239C21.563,21.892,15.711,18,7.739,22.129
		c-2.452,1.271-4.503,2.688-6.22,4.148C3.302,30.922,7.251,32.194,7.251,32.194z"/>
	<path id="svg_3" fill="#FFAA75" d="M7.912,99.604c1.652,3.15,6.167,3.15,7.818,0c3.442-6.566,7.912-18.104,7.912-33.752
		c0-17.373-2.756-28.543-4.503-33.883c-0.724-2.208-2.78-3.703-5.104-3.703l-4.428,0c-2.324,0-4.381,1.495-5.104,3.703
		C2.755,37.308,0,48.479,0,65.852C0,81.5,4.47,93.037,7.912,99.604z"/>
	<path id="svg_4" fill="#FF8C42" d="M19.766,90.11c2.141-6.351,3.877-14.507,3.877-24.259c0-17.374-2.755-28.543-4.503-33.883
		c-0.724-2.209-2.78-3.704-5.104-3.704l-4.427,0c-2.324,0-4.381,1.495-5.104,3.703c-0.579,1.765-1.266,4.168-1.928,7.222
		c5.229,0.713,9.763,4.361,11.489,9.578C20.417,67.967,19.766,90.078,19.766,90.11z"/>
	<path id="svg_5" fill="#F9EE80" d="M23.271,55.138c-0.81-11.355-2.774-19.021-4.133-23.168c-0.723-2.208-2.779-3.704-5.104-3.703
		l-4.428,0c-2.324,0-4.381,1.494-5.104,3.703c-1.358,4.148-3.323,11.814-4.133,23.169c3.6-0.868,7.449-1.341,11.451-1.341
		C15.822,53.797,19.672,54.269,23.271,55.138z"/>
	<path id="svg_6" fill="#EEDB00" d="M15.598,53.939c2.652,0.199,5.222,0.606,7.674,1.198c-0.81-11.355-2.774-19.021-4.133-23.168
		c-0.723-2.208-2.779-3.704-5.104-3.703l-4.428,0c-2.324,0-4.381,1.494-5.104,3.703c-0.578,1.765-1.267,4.17-1.928,7.223
		c5.229,0.713,9.763,4.361,11.489,9.578C14.629,50.475,15.138,52.204,15.598,53.939z"/>
	<path id="svg_7" fill="#ED1C24" d="M16.307,0.376C10.362,3.689,2.775,9.295,1.176,16.783c-0.238,1.116-0.386,2.156-0.458,3.123
		c0,0,5.472-4.792,11.751-3.869c6.28,0.922,10.186-4.608,10.186-4.608c-1.307-3.395-2.084-6.011-1.978-8.309
		C20.785,0.802,18.334-0.752,16.307,0.376z"/>
</g>
<g>
	<path fill="#FFFFFF" d="M9.75,55.474l0.891-0.609c-0.82-0.735-1.413-1.415-1.78-2.04S8.31,51.559,8.31,50.902
		c0-0.547,0.125-1.07,0.375-1.57s0.602-0.943,1.055-1.33s0.979-0.688,1.576-0.902s1.221-0.322,1.869-0.322
		c0.993,0,1.489,0.168,1.489,0.504c0,0.109-0.121,0.176-0.363,0.199c-0.484,0.086-0.875,0.333-1.172,0.739
		c-0.227,0.297-0.424,0.676-0.592,1.138c-0.168,0.461-0.252,0.868-0.252,1.219c-0.002,0.813,0.318,1.453,0.96,1.922
		c0.437-0.461,0.783-0.946,1.039-1.454c0.254-0.508,0.381-0.984,0.381-1.43c0-0.43-0.121-0.781-0.363-1.055
		c-0.063-0.063-0.094-0.113-0.094-0.153c0-0.125,0.137-0.273,0.41-0.445c0.414-0.273,0.84-0.41,1.277-0.41
		c0.289,0,0.559,0.072,0.809,0.217c0.25,0.145,0.441,0.348,0.574,0.61c0.133,0.262,0.199,0.561,0.199,0.896
		c0,0.711-0.215,1.389-0.645,2.034c-0.432,0.645-1.178,1.409-2.24,2.292c0.641,0.632,1.111,1.232,1.408,1.803
		s0.445,1.145,0.445,1.723c0,0.641-0.172,1.277-0.516,1.91s-0.807,1.205-1.389,1.717s-1.233,0.918-1.952,1.219
		s-1.426,0.451-2.121,0.451c-1.109,0-2.008-0.277-2.695-0.832s-1.031-1.277-1.031-2.168c0-0.742,0.209-1.387,0.627-1.933
		C7.796,56.942,8.587,56.271,9.75,55.474z M11.99,55.895c-0.492,0.43-0.875,0.953-1.148,1.57s-0.41,1.262-0.41,1.934
		c0,0.516,0.063,0.918,0.188,1.207s0.301,0.434,0.527,0.434c0.086,0,0.195-0.033,0.328-0.1s0.23-0.131,0.293-0.193
		c0.336-0.336,0.633-0.781,0.891-1.336s0.387-1.027,0.387-1.418c0-0.492-0.094-0.92-0.281-1.283S12.318,56.074,11.99,55.895z"/>
</g>
</svg>
