<?xml version="1.0" encoding="utf-8"?>
<!-- Generator: Adobe Illustrator 16.0.0, SVG Export Plug-In . SVG Version: 6.00 Build 0)  -->
<!DOCTYPE svg PUBLIC "-//W3C//DTD SVG 1.1//EN" "http://www.w3.org/Graphics/SVG/1.1/DTD/svg11.dtd">
<svg version="1.1" id="Layer_1" xmlns="http://www.w3.org/2000/svg" xmlns:xlink="http://www.w3.org/1999/xlink" x="0px" y="0px"
	 width="26px" height="102px" viewBox="0 0 26 102" enable-background="new 0 0 26 102" xml:space="preserve">
<rect id="backgroundrect" fill="none" width="26" height="102"/>
<g>
	<title>Layer 1</title>
	<path id="svg_1" fill="#7E82FF" d="M16.419,32.593c0,0,12.765-5.057,8.495-15.551c-2.595-6.375-4.396-10.496-4.237-13.921
		c0.107-2.318-2.343-3.873-4.37-2.744C10.362,3.689,2.775,9.295,1.175,16.784c-2.687,12.588,6.076,15.411,6.076,15.411
		L16.419,32.593z"/>
	<path id="svg_2" fill="#656AFF" d="M7.251,32.194l9.167,0.398c0,0,5.989-2.372,8.391-7.239C21.562,21.892,15.711,18,7.739,22.129
		c-2.452,1.271-4.503,2.688-6.22,4.148C3.302,30.922,7.251,32.194,7.251,32.194z"/>
	<path id="svg_3" fill="#FFAA75" d="M7.912,99.604c1.652,3.15,6.167,3.15,7.818-0.001c3.442-6.566,7.912-18.104,7.912-33.752
		c0-17.373-2.756-28.543-4.503-33.883c-0.724-2.208-2.78-3.703-5.104-3.703l-4.428,0c-2.324,0-4.381,1.495-5.104,3.703
		C2.755,37.308,0,48.479,0,65.852C0,81.5,4.469,93.037,7.912,99.604z"/>
	<path id="svg_4" fill="#FF8C42" d="M19.766,90.11c2.141-6.351,3.877-14.507,3.877-24.259c0-17.374-2.755-28.543-4.503-33.883
		c-0.724-2.209-2.78-3.704-5.104-3.704l-4.428,0c-2.324,0-4.381,1.495-5.104,3.703c-0.579,1.765-1.266,4.168-1.929,7.222
		c5.229,0.713,9.763,4.361,11.489,9.578C20.416,67.967,19.766,90.078,19.766,90.11z"/>
	<path id="svg_5" fill="#F9EE80" d="M23.271,55.138c-0.81-11.355-2.775-19.021-4.133-23.168c-0.723-2.208-2.779-3.704-5.104-3.703
		l-4.428,0c-2.323,0-4.381,1.494-5.104,3.703c-1.358,4.148-3.323,11.814-4.133,23.169c3.6-0.868,7.449-1.341,11.451-1.341
		C15.822,53.797,19.672,54.269,23.271,55.138z"/>
	<path id="svg_6" fill="#EEDB00" d="M15.598,53.939c2.652,0.199,5.222,0.606,7.674,1.198c-0.81-11.355-2.775-19.021-4.133-23.168
		c-0.723-2.208-2.779-3.704-5.104-3.703l-4.428,0c-2.323,0-4.381,1.494-5.104,3.703c-0.578,1.765-1.267,4.17-1.928,7.223
		c5.229,0.713,9.763,4.361,11.489,9.578C14.629,50.475,15.138,52.204,15.598,53.939z"/>
	<path id="svg_7" fill="#656AFF" d="M16.307,0.376C10.362,3.689,2.775,9.295,1.176,16.783c-0.239,1.116-0.386,2.156-0.459,3.123
		c0,0,5.472-4.792,11.751-3.869c6.279,0.922,10.186-4.608,10.186-4.608c-1.307-3.395-2.084-6.011-1.978-8.309
		C20.784,0.802,18.334-0.752,16.307,0.376z"/>
</g>
<g>
	<path fill="#FFFFFF" d="M11.25,56.86l-0.798,0.047c-1.149,0.078-1.861,0.117-2.135,0.117c-0.477,0-0.85-0.025-1.12-0.076
		c-0.27-0.051-0.449-0.141-0.539-0.27S6.523,56.36,6.523,56.11c0-0.195,0.057-0.473,0.17-0.832s0.334-0.953,0.662-1.781
		c0.266-0.648,0.465-1.16,0.598-1.535c0.414-1.078,0.742-1.855,0.984-2.332c0.078-0.148,0.146-0.271,0.205-0.369
		s0.127-0.213,0.205-0.346c0.258-0.406,0.57-0.727,0.938-0.961c0.836-0.563,1.629-0.844,2.379-0.844
		c0.594,0,0.891,0.145,0.891,0.434c0,0.383-0.746,1.633-2.238,3.75c-0.727,1.031-1.359,1.988-1.898,2.871l2.742-0.141
		c0.195-0.648,0.455-1.182,0.78-1.6c0.324-0.418,0.733-0.729,1.226-0.932c0.493-0.203,1.064-0.305,1.713-0.305
		c0.337,0,0.573,0.037,0.71,0.112c0.138,0.074,0.206,0.198,0.206,0.37c0,0.157-0.059,0.427-0.176,0.809
		c-0.117,0.383-0.273,0.836-0.469,1.358l-0.094,0.234c0.155-0.016,0.259-0.025,0.309-0.029c0.051-0.004,0.115-0.01,0.192-0.018
		c0.07-0.008,0.13-0.014,0.181-0.018s0.107-0.006,0.17-0.006c0.178,0,0.268,0.047,0.268,0.141c0,0.031-0.008,0.055-0.023,0.07
		c-0.141,0.313-0.335,0.65-0.584,1.014s-0.479,0.65-0.689,0.861c-0.163,0.195-0.377,0.332-0.643,0.41
		c-0.172,0.563-0.491,1.642-0.96,3.237c-0.016,0.07-0.033,0.164-0.053,0.28c-0.021,0.117-0.034,0.199-0.041,0.246
		c-0.118,0.647-0.271,1.058-0.458,1.229c-0.618,0.367-1.162,0.639-1.631,0.813c-0.47,0.176-0.928,0.264-1.373,0.264
		c-0.321,0-0.606-0.078-0.856-0.234c-0.251-0.156-0.376-0.34-0.376-0.551c0-0.203,0.082-0.572,0.246-1.107
		c0.165-0.535,0.403-1.191,0.717-1.969C10.764,57.929,11.03,57.313,11.25,56.86z"/>
</g>
</svg>
