<?xml version="1.0" encoding="utf-8"?>
<!-- Generator: Adobe Illustrator 16.0.0, SVG Export Plug-In . SVG Version: 6.00 Build 0)  -->
<!DOCTYPE svg PUBLIC "-//W3C//DTD SVG 1.1//EN" "http://www.w3.org/Graphics/SVG/1.1/DTD/svg11.dtd">
<svg version="1.1" id="Layer_1" xmlns="http://www.w3.org/2000/svg" xmlns:xlink="http://www.w3.org/1999/xlink" x="0px" y="0px"
	 width="26px" height="102px" viewBox="0 0 26 102" enable-background="new 0 0 26 102" xml:space="preserve">
<rect id="backgroundrect" fill="none" width="26" height="102"/>
<g>
	<title>Layer 1</title>
	<path id="svg_1" fill="#FFF645" d="M16.419,32.593c0,0,12.765-5.057,8.495-15.551c-2.595-6.375-4.396-10.496-4.237-13.921
		c0.108-2.318-2.343-3.873-4.37-2.744C10.362,3.689,2.775,9.295,1.175,16.784c-2.687,12.588,6.076,15.411,6.076,15.411
		L16.419,32.593z"/>
	<path id="svg_2" fill="#FFF200" d="M7.251,32.194l9.167,0.398c0,0,5.989-2.372,8.391-7.239C21.562,21.892,15.711,18,7.739,22.129
		c-2.452,1.271-4.503,2.688-6.22,4.148C3.302,30.922,7.251,32.194,7.251,32.194z"/>
	<path id="svg_3" fill="#FFAA75" d="M7.912,99.604c1.652,3.15,6.167,3.15,7.818,0c3.442-6.566,7.912-18.104,7.912-33.752
		c0-17.373-2.756-28.543-4.503-33.883c-0.724-2.208-2.78-3.703-5.104-3.703l-4.428,0c-2.324,0-4.381,1.495-5.104,3.703
		C2.755,37.308,0,48.479,0,65.852C0,81.5,4.469,93.037,7.912,99.604z"/>
	<path id="svg_4" fill="#FF8C42" d="M19.766,90.11c2.141-6.351,3.877-14.507,3.877-24.259c0-17.374-2.755-28.543-4.503-33.883
		c-0.724-2.209-2.78-3.704-5.104-3.704l-4.427,0c-2.324,0-4.381,1.495-5.104,3.703c-0.579,1.765-1.266,4.168-1.928,7.222
		c5.229,0.713,9.763,4.361,11.489,9.578C20.416,67.967,19.766,90.078,19.766,90.11z"/>
	<path id="svg_5" fill="#F9EE80" d="M23.271,55.138c-0.81-11.355-2.775-19.021-4.133-23.168c-0.723-2.208-2.779-3.704-5.104-3.703
		l-4.428,0c-2.323,0-4.381,1.494-5.104,3.703c-1.358,4.148-3.323,11.814-4.133,23.169c3.6-0.868,7.449-1.341,11.451-1.341
		C15.822,53.797,19.672,54.269,23.271,55.138z"/>
	<path id="svg_6" fill="#EEDB00" d="M15.598,53.939c2.652,0.199,5.222,0.606,7.674,1.198c-0.81-11.355-2.775-19.021-4.133-23.168
		c-0.723-2.208-2.779-3.704-5.104-3.703l-4.428,0c-2.323,0-4.381,1.494-5.104,3.703c-0.578,1.765-1.267,4.17-1.928,7.223
		c5.229,0.713,9.763,4.361,11.489,9.578C14.629,50.475,15.138,52.204,15.598,53.939z"/>
	<path id="svg_7" fill="#FFF200" d="M16.307,0.376C10.362,3.689,2.775,9.295,1.176,16.783c-0.239,1.116-0.386,2.156-0.458,3.123
		c0,0,5.472-4.792,11.751-3.869c6.28,0.922,10.186-4.608,10.186-4.608c-1.307-3.395-2.084-6.011-1.978-8.309
		C20.785,0.802,18.334-0.752,16.307,0.376z"/>
</g>
<g>
	<path fill="#FFFFFF" d="M7.299,52.549l0.176-0.43c-0.088,0.023-0.226,0.076-0.413,0.158c-0.404,0.17-0.662,0.254-0.773,0.254
		c-0.105,0-0.192-0.057-0.259-0.171c-0.068-0.114-0.102-0.263-0.102-0.444c0-0.152,0.038-0.334,0.114-0.544
		c0.076-0.211,0.158-0.354,0.246-0.431c0.152-0.117,0.82-0.451,2.004-1.002l0.264-0.114c0.053-0.035,0.138-0.076,0.255-0.123
		c0.779-0.381,1.277-0.571,1.494-0.571c0.193,0,0.344,0.056,0.453,0.167c0.107,0.111,0.161,0.27,0.16,0.474
		c0,0.439-0.205,1.216-0.615,2.329c-0.094,0.271-0.169,0.482-0.224,0.638c-0.056,0.155-0.137,0.385-0.242,0.689
		c-0.029,0.111-0.062,0.227-0.097,0.344c-0.205,0.686-0.354,1.201-0.448,1.547c-0.012,0.041-0.051,0.18-0.118,0.417
		s-0.115,0.408-0.145,0.514s-0.062,0.214-0.097,0.325c-0.393,1.5-0.721,2.461-0.984,2.883c-0.088,0.135-0.19,0.256-0.308,0.361
		c-0.252,0.193-0.47,0.342-0.654,0.447s-0.36,0.181-0.527,0.225s-0.355,0.066-0.566,0.066c-0.305,0-0.576-0.09-0.813-0.269
		s-0.355-0.382-0.355-0.61c0-0.041,0.012-0.109,0.035-0.203C5.45,57.418,6.297,55.109,7.299,52.549z"/>
	<path fill="#FFFFFF" d="M13.961,56.092l0.141-0.176c0.398-0.604,0.68-1.053,0.844-1.346s0.296-0.6,0.396-0.922
		c0.146-0.445,0.22-0.908,0.22-1.389c0-0.492-0.061-0.862-0.18-1.108c-0.121-0.246-0.342-0.448-0.664-0.606
		c-0.41,0.592-0.615,1.341-0.615,2.25c0,0.352,0.056,0.713,0.167,1.082c0.047,0.135,0.07,0.225,0.07,0.271
		c0,0.17-0.091,0.256-0.272,0.256c-0.164,0-0.387-0.069-0.668-0.207s-0.495-0.279-0.642-0.426c-0.164-0.176-0.299-0.404-0.404-0.686
		s-0.158-0.58-0.158-0.896c0-0.445,0.093-0.871,0.276-1.275c0.186-0.404,0.444-0.756,0.778-1.055s0.73-0.532,1.19-0.699
		s0.948-0.25,1.464-0.25s0.985,0.113,1.411,0.338c0.424,0.226,0.763,0.536,1.015,0.931c0.252,0.396,0.378,0.824,0.378,1.287
		c0,0.346-0.066,0.715-0.198,1.106c-0.133,0.393-0.342,0.83-0.627,1.313c-0.285,0.482-0.65,1.014-1.096,1.594
		s-0.964,1.205-1.556,1.873l-0.176,0.211l-0.149,0.166c0.246,0.073,0.583,0.109,1.012,0.109s0.858-0.023,1.289-0.07
		c0.432-0.047,0.771-0.107,1.017-0.184c0.165-0.047,0.273-0.07,0.326-0.07c0.059,0,0.088,0.018,0.088,0.053
		c0,0.217-0.14,0.553-0.418,1.01s-0.569,0.836-0.874,1.135c-0.316,0.299-0.696,0.517-1.138,0.654
		c-0.443,0.138-0.989,0.207-1.64,0.207c-0.832,0-1.547-0.115-2.145-0.344s-0.896-0.504-0.896-0.826c0-0.223,0.302-0.668,0.905-1.336
		c0.428-0.486,0.817-0.969,1.169-1.449c0.023-0.035,0.048-0.07,0.075-0.105c0.025-0.035,0.049-0.069,0.07-0.102
		c0.02-0.032,0.048-0.078,0.083-0.137L13.961,56.092z"/>
</g>
</svg>
