<?xml version="1.0" encoding="utf-8"?>
<!-- Generator: Adobe Illustrator 16.0.0, SVG Export Plug-In . SVG Version: 6.00 Build 0)  -->
<!DOCTYPE svg PUBLIC "-//W3C//DTD SVG 1.1//EN" "http://www.w3.org/Graphics/SVG/1.1/DTD/svg11.dtd">
<svg version="1.1" id="Layer_1" xmlns="http://www.w3.org/2000/svg" xmlns:xlink="http://www.w3.org/1999/xlink" x="0px" y="0px"
	 width="26px" height="102px" viewBox="0 0 26 102" enable-background="new 0 0 26 102" xml:space="preserve">
<rect id="backgroundrect" fill="none" width="26" height="102"/>
<g>
	<title>Layer 1</title>
	<path id="svg_1" fill="#F9744B" d="M16.419,32.593c0,0,12.765-5.057,8.495-15.551c-2.595-6.375-4.396-10.496-4.237-13.921
		c0.107-2.318-2.343-3.873-4.37-2.744C10.362,3.689,2.775,9.295,1.175,16.784c-2.687,12.588,6.076,15.411,6.076,15.411
		L16.419,32.593z"/>
	<path id="svg_2" fill="#F1592A" fill-opacity="0.96" d="M7.251,32.194l9.167,0.398c0,0,5.989-2.372,8.391-7.239
		C21.562,21.892,15.711,18,7.739,22.129c-2.452,1.271-4.503,2.688-6.22,4.148C3.302,30.922,7.251,32.194,7.251,32.194z"/>
	<path id="svg_3" fill="#FFAA75" d="M7.912,99.604c1.652,3.15,6.167,3.15,7.818,0c3.442-6.566,7.912-18.104,7.912-33.752
		c0-17.373-2.756-28.543-4.503-33.883c-0.724-2.208-2.78-3.703-5.104-3.703l-4.428,0c-2.324,0-4.381,1.495-5.104,3.703
		C2.755,37.308,0,48.479,0,65.852C0,81.5,4.469,93.037,7.912,99.604z"/>
	<path id="svg_4" fill="#FF8C42" d="M19.766,90.11c2.141-6.351,3.877-14.507,3.877-24.259c0-17.374-2.755-28.543-4.503-33.883
		c-0.724-2.209-2.78-3.704-5.104-3.704l-4.428,0c-2.324,0-4.381,1.495-5.104,3.703c-0.579,1.765-1.266,4.168-1.929,7.222
		c5.229,0.713,9.763,4.361,11.489,9.578C20.416,67.967,19.766,90.078,19.766,90.11z"/>
	<path id="svg_5" fill="#F9EE80" d="M23.271,55.138c-0.81-11.355-2.775-19.021-4.133-23.168c-0.723-2.208-2.779-3.704-5.104-3.703
		l-4.428,0c-2.323,0-4.381,1.494-5.104,3.703c-1.358,4.148-3.323,11.814-4.133,23.169c3.6-0.868,7.449-1.341,11.451-1.341
		C15.822,53.797,19.672,54.269,23.271,55.138z"/>
	<path id="svg_6" fill="#EEDB00" d="M15.598,53.939c2.652,0.199,5.222,0.606,7.674,1.198c-0.81-11.355-2.775-19.021-4.133-23.168
		c-0.723-2.208-2.779-3.704-5.104-3.703l-4.428,0c-2.323,0-4.381,1.494-5.104,3.703c-0.578,1.765-1.267,4.17-1.928,7.223
		c5.229,0.713,9.763,4.361,11.489,9.578C14.629,50.475,15.138,52.204,15.598,53.939z"/>
	<path id="svg_7" fill="#F1592A" fill-opacity="0.96" d="M16.307,0.376C10.362,3.689,2.775,9.295,1.176,16.783
		c-0.239,1.116-0.386,2.156-0.459,3.123c0,0,5.472-4.792,11.751-3.869c6.279,0.922,10.186-4.608,10.186-4.608
		c-1.307-3.395-2.084-6.011-1.978-8.309C20.784,0.802,18.334-0.752,16.307,0.376z"/>
</g>
<g>
	<path fill="#FFFFFF" d="M13.082,55.137v0.059l-0.047-0.059c-0.672,0.445-1.232,0.754-1.682,0.926s-0.92,0.258-1.412,0.258
		c-0.82,0-1.49-0.287-2.01-0.861s-0.779-1.318-0.779-2.232c0-1.023,0.32-2.021,0.961-2.994s1.477-1.764,2.508-2.373
		s2.066-0.91,3.105-0.902c1.141,0,2.125,0.406,2.953,1.219c0.945,0.945,1.418,2.234,1.418,3.867c0,1.172-0.293,2.379-0.879,3.621
		s-1.359,2.379-2.32,3.41s-2.027,1.861-3.199,2.49s-2.305,0.943-3.398,0.943c-0.25,0-0.428-0.027-0.533-0.082
		s-0.158-0.156-0.158-0.305c0-0.078,0.041-0.154,0.123-0.229s0.209-0.15,0.381-0.229c0.648-0.281,1.287-0.742,1.916-1.383
		s1.211-1.408,1.746-2.303S12.746,56.137,13.082,55.137z M13.34,54.492c0.313-0.75,0.551-1.498,0.715-2.244s0.246-1.455,0.246-2.127
		c0-0.594-0.092-1.066-0.275-1.418s-0.428-0.527-0.732-0.527c-0.125,0-0.285,0.057-0.48,0.17s-0.371,0.252-0.527,0.416
		c-0.414,0.43-0.74,0.93-0.979,1.5s-0.357,1.125-0.357,1.664c0,0.656,0.221,1.223,0.662,1.699S12.629,54.391,13.34,54.492z"/>
</g>
</svg>
