<?xml version="1.0" encoding="utf-8"?>
<!-- Generator: Adobe Illustrator 16.0.0, SVG Export Plug-In . SVG Version: 6.00 Build 0)  -->
<!DOCTYPE svg PUBLIC "-//W3C//DTD SVG 1.1//EN" "http://www.w3.org/Graphics/SVG/1.1/DTD/svg11.dtd">
<svg version="1.1" id="Layer_1" xmlns="http://www.w3.org/2000/svg" xmlns:xlink="http://www.w3.org/1999/xlink" x="0px" y="0px"
	 width="26px" height="102px" viewBox="0 0 26 102" enable-background="new 0 0 26 102" xml:space="preserve">
<rect id="backgroundrect" fill="none" width="26" height="102"/>
<g>
	<title>Layer 1</title>
	<path id="svg_1" fill="#FFAC42" d="M16.419,32.593c0,0,12.765-5.057,8.495-15.551c-2.595-6.375-4.396-10.496-4.237-13.921
		c0.107-2.318-2.343-3.873-4.37-2.744C10.362,3.689,2.775,9.295,1.175,16.784c-2.687,12.588,6.076,15.411,6.076,15.411
		L16.419,32.593z"/>
	<path id="svg_2" fill="#F8981E" d="M7.251,32.194l9.167,0.398c0,0,5.989-2.372,8.391-7.239C21.562,21.892,15.711,18,7.739,22.129
		c-2.452,1.271-4.503,2.688-6.22,4.148C3.302,30.922,7.251,32.194,7.251,32.194z"/>
	<path id="svg_3" fill="#FFAA75" d="M7.912,99.604c1.652,3.15,6.167,3.15,7.818,0c3.442-6.566,7.912-18.104,7.912-33.752
		c0-17.373-2.756-28.543-4.503-33.883c-0.724-2.208-2.78-3.703-5.104-3.703l-4.428,0c-2.324,0-4.381,1.495-5.104,3.703
		C2.755,37.308,0,48.479,0,65.852C0,81.5,4.469,93.037,7.912,99.604z"/>
	<path id="svg_4" fill="#FF8C42" d="M19.766,90.11c2.141-6.351,3.877-14.507,3.877-24.259c0-17.374-2.755-28.543-4.503-33.883
		c-0.724-2.209-2.78-3.704-5.104-3.704l-4.428,0c-2.324,0-4.381,1.495-5.104,3.703c-0.579,1.765-1.266,4.168-1.929,7.222
		c5.229,0.713,9.763,4.361,11.489,9.578C20.416,67.967,19.766,90.078,19.766,90.11z"/>
	<path id="svg_5" fill="#F9EE80" d="M23.271,55.138c-0.81-11.355-2.775-19.021-4.133-23.168c-0.723-2.208-2.779-3.704-5.104-3.703
		l-4.428,0c-2.323,0-4.381,1.494-5.104,3.703c-1.358,4.148-3.323,11.814-4.133,23.169c3.6-0.868,7.449-1.341,11.451-1.341
		C15.822,53.797,19.672,54.269,23.271,55.138z"/>
	<path id="svg_6" fill="#EEDB00" d="M15.598,53.939c2.652,0.199,5.222,0.606,7.674,1.198c-0.81-11.355-2.775-19.021-4.133-23.168
		c-0.723-2.208-2.779-3.704-5.104-3.703l-4.428,0c-2.323,0-4.381,1.494-5.104,3.703c-0.578,1.765-1.267,4.17-1.928,7.223
		c5.229,0.713,9.763,4.361,11.489,9.578C14.629,50.475,15.138,52.204,15.598,53.939z"/>
	<path id="svg_7" fill="#F8981E" d="M16.307,0.376C10.362,3.689,2.775,9.295,1.176,16.783c-0.239,1.116-0.386,2.156-0.459,3.123
		c0,0,5.472-4.792,11.751-3.869c6.279,0.922,10.186-4.608,10.186-4.608c-1.307-3.395-2.084-6.011-1.978-8.309
		C20.784,0.802,18.334-0.752,16.307,0.376z"/>
</g>
<g>
	<path fill="#FFFFFF" d="M6.632,53.216l0.176-0.431c-0.088,0.023-0.226,0.076-0.413,0.158c-0.404,0.17-0.662,0.255-0.773,0.255
		c-0.105,0-0.192-0.058-0.259-0.171c-0.068-0.115-0.102-0.263-0.102-0.444c0-0.152,0.038-0.334,0.114-0.545s0.158-0.354,0.246-0.431
		c0.152-0.117,0.82-0.451,2.004-1.002l0.264-0.114c0.053-0.035,0.138-0.076,0.255-0.123c0.779-0.381,1.277-0.571,1.494-0.571
		c0.193,0,0.344,0.056,0.453,0.167c0.107,0.111,0.161,0.27,0.16,0.474c0,0.439-0.205,1.216-0.615,2.33
		c-0.094,0.27-0.169,0.482-0.224,0.637c-0.056,0.156-0.137,0.386-0.242,0.69c-0.029,0.111-0.062,0.226-0.097,0.343
		c-0.205,0.686-0.354,1.201-0.448,1.547c-0.012,0.041-0.051,0.18-0.118,0.418c-0.067,0.236-0.115,0.408-0.145,0.514
		S8.301,57.13,8.266,57.24c-0.393,1.5-0.721,2.461-0.984,2.883c-0.088,0.136-0.19,0.256-0.308,0.361
		c-0.252,0.193-0.47,0.343-0.654,0.448s-0.36,0.181-0.527,0.224c-0.167,0.045-0.355,0.066-0.566,0.066
		c-0.305,0-0.576-0.09-0.813-0.268c-0.237-0.18-0.355-0.383-0.355-0.611c0-0.041,0.012-0.108,0.035-0.202
		C4.784,58.085,5.63,55.776,6.632,53.216z"/>
	<path fill="#FFFFFF" d="M17.795,49.885h0.088c0.316,0,0.619,0.144,0.91,0.431c0.289,0.287,0.52,0.671,0.689,1.151
		s0.254,0.984,0.254,1.512c0,0.533-0.076,1.127-0.229,1.779c-0.152,0.654-0.355,1.282-0.609,1.886
		c-0.256,0.604-0.563,1.189-0.924,1.758c-0.359,0.568-0.734,1.04-1.121,1.415c-0.914,0.926-1.848,1.389-2.803,1.389
		c-0.639,0-1.202-0.16-1.688-0.479c-0.486-0.32-0.861-0.773-1.125-1.363c-0.264-0.588-0.396-1.264-0.396-2.025
		c0-1.313,0.273-2.57,0.821-3.775c0.548-1.203,1.273-2.178,2.176-2.922c0.902-0.744,1.83-1.116,2.785-1.116
		C17.088,49.524,17.479,49.645,17.795,49.885z M17.004,50.298l0.158-0.088l-0.035-0.035c-0.375,0.006-0.76,0.195-1.156,0.567
		c-0.395,0.372-0.752,0.851-1.068,1.437s-0.574,1.248-0.773,1.986s-0.299,1.436-0.299,2.092c0,0.475,0.084,0.962,0.252,1.464
		c0.166,0.5,0.377,0.918,0.633,1.252c0.254,0.334,0.498,0.501,0.732,0.501c0.182,0,0.373-0.122,0.572-0.364
		c0.199-0.244,0.381-0.588,0.545-1.033c0.17-0.428,0.316-0.876,0.439-1.345s0.217-0.932,0.281-1.389s0.096-0.873,0.096-1.248
		c0-0.592-0.096-1.155-0.285-1.692c-0.191-0.535-0.438-0.933-0.742-1.19c-0.059-0.041-0.088-0.082-0.088-0.123
		C16.266,50.954,16.512,50.69,17.004,50.298z"/>
</g>
</svg>
