<?xml version="1.0" encoding="utf-8"?>
<!-- Generator: Adobe Illustrator 16.0.0, SVG Export Plug-In . SVG Version: 6.00 Build 0)  -->
<!DOCTYPE svg PUBLIC "-//W3C//DTD SVG 1.1//EN" "http://www.w3.org/Graphics/SVG/1.1/DTD/svg11.dtd">
<svg version="1.1" id="Layer_1" xmlns="http://www.w3.org/2000/svg" xmlns:xlink="http://www.w3.org/1999/xlink" x="0px" y="0px"
	 width="26px" height="102px" viewBox="0 0 26 102" enable-background="new 0 0 26 102" xml:space="preserve">
<rect id="backgroundrect" fill="none" width="26" height="102"/>
<g>
	<title>Layer 1</title>
	<path id="svg_1" fill="#8DCF36" d="M16.419,32.593c0,0,12.765-5.057,8.495-15.551c-2.595-6.375-4.396-10.496-4.237-13.921
		c0.107-2.318-2.343-3.873-4.37-2.744C10.362,3.689,2.775,9.295,1.175,16.784c-2.687,12.588,6.076,15.411,6.076,15.411
		L16.419,32.593z"/>
	<path id="svg_2" fill="#7FC325" d="M7.251,32.194l9.167,0.398c0,0,5.989-2.372,8.391-7.239C21.563,21.892,15.711,18,7.739,22.129
		c-2.452,1.271-4.503,2.688-6.22,4.148C3.302,30.922,7.251,32.194,7.251,32.194z"/>
	<path id="svg_3" fill="#FFAA75" d="M7.912,99.604c1.652,3.15,6.167,3.15,7.818-0.001c3.442-6.566,7.912-18.104,7.912-33.752
		c0-17.373-2.756-28.543-4.503-33.883c-0.724-2.208-2.78-3.703-5.104-3.703l-4.428,0c-2.324,0-4.381,1.495-5.104,3.703
		C2.755,37.308,0,48.479,0,65.852C0,81.5,4.47,93.037,7.912,99.604z"/>
	<path id="svg_4" fill="#FF8C42" d="M19.766,90.11c2.141-6.351,3.877-14.507,3.877-24.259c0-17.374-2.755-28.543-4.503-33.883
		c-0.724-2.209-2.78-3.704-5.104-3.704l-4.427,0c-2.324,0-4.381,1.495-5.104,3.703c-0.579,1.765-1.266,4.168-1.928,7.222
		c5.229,0.713,9.763,4.361,11.489,9.578C20.417,67.967,19.766,90.078,19.766,90.11z"/>
	<path id="svg_5" fill="#F9EE80" d="M23.271,55.138c-0.81-11.355-2.775-19.021-4.133-23.168c-0.723-2.208-2.779-3.704-5.104-3.703
		l-4.428,0c-2.323,0-4.381,1.494-5.104,3.703c-1.358,4.148-3.323,11.814-4.133,23.169c3.6-0.868,7.449-1.341,11.451-1.341
		C15.822,53.797,19.672,54.269,23.271,55.138z"/>
	<path id="svg_6" fill="#EEDB00" d="M15.598,53.939c2.652,0.199,5.222,0.606,7.674,1.198c-0.81-11.355-2.775-19.021-4.133-23.168
		c-0.723-2.208-2.779-3.704-5.104-3.703l-4.428,0c-2.323,0-4.381,1.494-5.104,3.703c-0.578,1.765-1.267,4.17-1.928,7.223
		c5.229,0.713,9.763,4.361,11.489,9.578C14.629,50.475,15.138,52.204,15.598,53.939z"/>
	<path id="svg_7" fill="#7FC325" d="M16.307,0.376C10.362,3.689,2.775,9.295,1.176,16.783c-0.239,1.116-0.386,2.156-0.458,3.123
		c0,0,5.472-4.792,11.751-3.869c6.28,0.922,10.186-4.608,10.186-4.608c-1.307-3.395-2.084-6.011-1.978-8.309
		C20.784,0.802,18.334-0.752,16.307,0.376z"/>
</g>
<g>
	<path fill="#FFFFFF" d="M11.234,53.559l0.234-0.574c-0.117,0.031-0.301,0.102-0.551,0.211c-0.539,0.227-0.883,0.34-1.031,0.34
		c-0.141,0-0.256-0.076-0.346-0.229s-0.135-0.35-0.135-0.592c0-0.203,0.051-0.445,0.152-0.727s0.211-0.473,0.328-0.574
		c0.203-0.156,1.094-0.602,2.672-1.336l0.352-0.152c0.07-0.047,0.184-0.102,0.34-0.164C14.289,49.254,14.953,49,15.242,49
		c0.258,0,0.459,0.074,0.604,0.223c0.145,0.148,0.216,0.359,0.214,0.632c0,0.585-0.273,1.621-0.82,3.106
		c-0.125,0.359-0.225,0.643-0.299,0.85s-0.181,0.514-0.321,0.92c-0.04,0.148-0.082,0.301-0.129,0.457
		c-0.273,0.914-0.473,1.602-0.598,2.063c-0.016,0.055-0.068,0.24-0.158,0.557s-0.154,0.545-0.193,0.686s-0.082,0.285-0.129,0.434
		c-0.523,2-0.961,3.281-1.312,3.844c-0.117,0.18-0.254,0.34-0.41,0.48c-0.336,0.258-0.627,0.457-0.873,0.598s-0.48,0.24-0.703,0.299
		s-0.475,0.088-0.756,0.088c-0.405,0-0.767-0.119-1.083-0.357s-0.475-0.51-0.475-0.814c0-0.055,0.016-0.145,0.047-0.27
		C8.77,60.051,9.898,56.973,11.234,53.559z"/>
</g>
</svg>
