<?xml version="1.0" encoding="utf-8"?>
<!-- Generator: Adobe Illustrator 16.0.0, SVG Export Plug-In . SVG Version: 6.00 Build 0)  -->
<!DOCTYPE svg PUBLIC "-//W3C//DTD SVG 1.1//EN" "http://www.w3.org/Graphics/SVG/1.1/DTD/svg11.dtd">
<svg version="1.1" id="Layer_1" xmlns="http://www.w3.org/2000/svg" xmlns:xlink="http://www.w3.org/1999/xlink" x="0px" y="0px"
	 width="26px" height="102px" viewBox="0 0 26 102" enable-background="new 0 0 26 102" xml:space="preserve">
<rect id="backgroundrect" fill="none" width="26" height="102"/>
<g>
	<title>Layer 1</title>
	<path id="svg_1" fill="#AF2AAB" d="M16.419,32.593c0,0,12.765-5.057,8.495-15.551c-2.595-6.375-4.396-10.496-4.237-13.921
		c0.108-2.318-2.343-3.873-4.37-2.744C10.362,3.689,2.775,9.295,1.175,16.784c-2.687,12.588,6.076,15.411,6.076,15.411
		L16.419,32.593z"/>
	<path id="svg_2" fill="#971993" d="M7.251,32.194l9.167,0.398c0,0,5.989-2.372,8.391-7.239C21.562,21.892,15.711,18,7.739,22.129
		c-2.452,1.271-4.503,2.688-6.22,4.148C3.302,30.922,7.251,32.194,7.251,32.194z"/>
	<path id="svg_3" fill="#FFAA75" d="M7.912,99.604c1.652,3.15,6.167,3.15,7.818-0.001c3.442-6.566,7.912-18.104,7.912-33.752
		c0-17.373-2.756-28.543-4.503-33.883c-0.724-2.208-2.78-3.703-5.104-3.703l-4.428,0c-2.324,0-4.381,1.495-5.104,3.703
		C2.755,37.308,0,48.479,0,65.852C0,81.5,4.469,93.037,7.912,99.604z"/>
	<path id="svg_4" fill="#FF8C42" d="M19.766,90.11c2.141-6.351,3.877-14.507,3.877-24.259c0-17.374-2.755-28.543-4.503-33.883
		c-0.724-2.209-2.78-3.704-5.104-3.704l-4.427,0c-2.324,0-4.381,1.495-5.104,3.703c-0.579,1.765-1.266,4.168-1.928,7.222
		c5.229,0.713,9.763,4.361,11.489,9.578C20.416,67.967,19.766,90.078,19.766,90.11z"/>
	<path id="svg_5" fill="#F9EE80" d="M23.271,55.138c-0.81-11.355-2.775-19.021-4.133-23.168c-0.723-2.208-2.779-3.704-5.104-3.703
		l-4.428,0c-2.323,0-4.381,1.494-5.104,3.703c-1.358,4.148-3.323,11.814-4.133,23.169c3.6-0.868,7.449-1.341,11.451-1.341
		C15.822,53.797,19.672,54.269,23.271,55.138z"/>
	<path id="svg_6" fill="#EEDB00" d="M15.598,53.939c2.652,0.199,5.222,0.606,7.674,1.198c-0.81-11.355-2.775-19.021-4.133-23.168
		c-0.723-2.208-2.779-3.704-5.104-3.703l-4.428,0c-2.323,0-4.381,1.494-5.104,3.703c-0.578,1.765-1.267,4.17-1.928,7.223
		c5.229,0.713,9.763,4.361,11.489,9.578C14.629,50.475,15.138,52.204,15.598,53.939z"/>
	<path id="svg_7" fill="#971993" d="M16.307,0.376C10.362,3.689,2.775,9.295,1.176,16.783c-0.239,1.116-0.386,2.156-0.458,3.123
		c0,0,5.472-4.792,11.751-3.869c6.28,0.922,10.186-4.608,10.186-4.608c-1.307-3.395-2.084-6.011-1.978-8.309
		C20.785,0.802,18.334-0.752,16.307,0.376z"/>
</g>
<g>
	<path fill="#FFFFFF" d="M12.797,51.984l-0.715,0.832l0.047,0.047c1.047-0.688,1.941-1.031,2.684-1.031
		c0.563,0,1.064,0.137,1.506,0.41s0.785,0.646,1.031,1.119s0.369,1.014,0.369,1.623c0,0.734-0.121,1.494-0.363,2.279
		s-0.586,1.543-1.031,2.273s-0.965,1.381-1.559,1.951c-0.531,0.516-1.188,0.924-1.969,1.225s-1.547,0.451-2.297,0.451
		c-1.445,0-2.547-0.307-3.305-0.92s-1.137-1.506-1.137-2.678c0-1.039,0.336-2.324,1.008-3.855s1.711-3.375,3.117-5.531
		c0.555-0.883,1.012-1.516,1.371-1.898c0.18-0.195,0.348-0.332,0.504-0.41s0.402-0.141,0.738-0.188
		c0.586-0.094,1.18-0.141,1.781-0.141c0.914,0,1.371,0.246,1.371,0.738c0,0.25-0.289,0.633-0.867,1.148
		c-0.336,0.281-0.879,0.875-1.629,1.781L12.797,51.984z M11.484,54.094c-0.273,0-0.555,0.16-0.844,0.48s-0.525,0.729-0.709,1.225
		s-0.275,0.982-0.275,1.459c0,0.641,0.123,1.238,0.369,1.793s0.586,0.998,1.02,1.33s0.885,0.498,1.354,0.498
		c0.25,0,0.449-0.07,0.598-0.211c0.25-0.289,0.455-0.758,0.615-1.406s0.24-1.34,0.24-2.074c0-0.648-0.096-1.205-0.287-1.67
		s-0.461-0.818-0.809-1.061S11.984,54.094,11.484,54.094z"/>
</g>
</svg>
