<?xml version="1.0" encoding="utf-8"?>
<!-- Generator: Adobe Illustrator 16.0.0, SVG Export Plug-In . SVG Version: 6.00 Build 0)  -->
<!DOCTYPE svg PUBLIC "-//W3C//DTD SVG 1.1//EN" "http://www.w3.org/Graphics/SVG/1.1/DTD/svg11.dtd">
<svg version="1.1" id="Layer_1" xmlns="http://www.w3.org/2000/svg" xmlns:xlink="http://www.w3.org/1999/xlink" x="0px" y="0px"
	 width="26px" height="102px" viewBox="0 0 26 102" enable-background="new 0 0 26 102" xml:space="preserve">
<rect id="backgroundrect" fill="none" width="26" height="102"/>
<g>
	<title>Layer 1</title>
	<path id="svg_1" fill="#0D8B4F" d="M16.419,32.593c0,0,12.765-5.057,8.495-15.551c-2.595-6.375-4.396-10.496-4.236-13.921
		c0.107-2.318-2.344-3.873-4.371-2.744C10.362,3.689,2.775,9.295,1.175,16.784c-2.687,12.588,6.076,15.411,6.076,15.411
		L16.419,32.593z"/>
	<path id="svg_2" fill="#006C39" d="M7.251,32.194l9.168,0.398c0,0,5.988-2.372,8.39-7.239C21.563,21.892,15.711,18,7.739,22.129
		c-2.452,1.271-4.503,2.688-6.22,4.148C3.302,30.922,7.251,32.194,7.251,32.194z"/>
	<path id="svg_3" fill="#FFAA75" d="M7.912,99.604c1.652,3.15,6.167,3.15,7.818-0.001c3.442-6.566,7.912-18.104,7.912-33.752
		c0-17.373-2.756-28.543-4.503-33.883c-0.724-2.208-2.78-3.703-5.104-3.703l-4.428,0c-2.324,0-4.381,1.495-5.104,3.703
		C2.755,37.308,0,48.479,0,65.852C0,81.5,4.47,93.037,7.912,99.604z"/>
	<path id="svg_4" fill="#FF8C42" d="M19.766,90.11c2.141-6.351,3.877-14.507,3.877-24.259c0-17.374-2.755-28.543-4.503-33.883
		c-0.724-2.209-2.78-3.704-5.104-3.704l-4.427,0c-2.324,0-4.381,1.495-5.104,3.703c-0.579,1.765-1.266,4.168-1.928,7.222
		c5.229,0.713,9.763,4.361,11.489,9.578C20.417,67.967,19.766,90.078,19.766,90.11z"/>
	<path id="svg_5" fill="#F9EE80" d="M23.271,55.138c-0.81-11.355-2.774-19.021-4.133-23.168c-0.723-2.208-2.779-3.704-5.104-3.703
		l-4.428,0c-2.324,0-4.381,1.494-5.104,3.703c-1.358,4.148-3.323,11.814-4.133,23.169c3.6-0.868,7.449-1.341,11.451-1.341
		C15.822,53.797,19.672,54.269,23.271,55.138z"/>
	<path id="svg_6" fill="#EEDB00" d="M15.598,53.939c2.652,0.199,5.222,0.606,7.674,1.198c-0.81-11.355-2.774-19.021-4.133-23.168
		c-0.723-2.208-2.779-3.704-5.104-3.703l-4.428,0c-2.324,0-4.381,1.494-5.104,3.703c-0.578,1.765-1.267,4.17-1.928,7.223
		c5.229,0.713,9.763,4.361,11.489,9.578C14.629,50.475,15.138,52.204,15.598,53.939z"/>
	<path id="svg_7" fill="#006C39" d="M16.307,0.376C10.362,3.689,2.775,9.295,1.176,16.783c-0.238,1.116-0.386,2.156-0.458,3.123
		c0,0,5.472-4.792,11.751-3.869c6.28,0.922,10.186-4.608,10.186-4.608c-1.307-3.395-2.084-6.011-1.978-8.309
		C20.785,0.802,18.334-0.752,16.307,0.376z"/>
</g>
<g>
	<path fill="#FFFFFF" d="M10.284,58.781l0.188-0.234c0.531-0.805,0.906-1.402,1.125-1.793s0.395-0.801,0.527-1.23
		c0.195-0.594,0.293-1.211,0.293-1.852c0-0.656-0.08-1.148-0.24-1.477s-0.455-0.598-0.885-0.809c-0.547,0.789-0.82,1.789-0.82,3
		c0,0.469,0.074,0.949,0.223,1.441c0.063,0.18,0.094,0.301,0.094,0.363c0,0.227-0.121,0.34-0.363,0.34
		c-0.219,0-0.516-0.092-0.891-0.275s-0.66-0.373-0.855-0.568C8.46,55.453,8.28,55.148,8.14,54.773S7.929,54,7.929,53.578
		c0-0.594,0.123-1.16,0.369-1.699s0.592-1.008,1.037-1.406s0.975-0.709,1.588-0.932s1.264-0.334,1.951-0.334s1.314,0.15,1.881,0.451
		s1.018,0.714,1.354,1.241c0.336,0.526,0.504,1.099,0.504,1.716c0,0.461-0.088,0.952-0.265,1.476
		c-0.177,0.522-0.455,1.106-0.835,1.751c-0.381,0.645-0.868,1.353-1.462,2.126s-1.285,1.604-2.074,2.495l-0.234,0.281l-0.199,0.223
		c0.328,0.098,0.778,0.146,1.35,0.146c0.57,0,1.144-0.031,1.719-0.094s1.027-0.145,1.355-0.246c0.22-0.063,0.364-0.094,0.435-0.094
		c0.078,0,0.117,0.023,0.117,0.07c0,0.289-0.186,0.738-0.557,1.348s-0.76,1.113-1.166,1.512c-0.422,0.398-0.928,0.689-1.518,0.873
		s-1.318,0.275-2.186,0.275c-1.109,0-2.063-0.152-2.859-0.457s-1.195-0.672-1.195-1.102c0-0.297,0.402-0.891,1.207-1.781
		c0.57-0.648,1.09-1.293,1.559-1.934c0.031-0.047,0.064-0.094,0.1-0.141s0.066-0.092,0.094-0.135s0.064-0.104,0.111-0.182
		L10.284,58.781z"/>
</g>
</svg>
