<?xml version="1.0" encoding="utf-8"?>
<!-- Generator: Adobe Illustrator 16.0.0, SVG Export Plug-In . SVG Version: 6.00 Build 0)  -->
<!DOCTYPE svg PUBLIC "-//W3C//DTD SVG 1.1//EN" "http://www.w3.org/Graphics/SVG/1.1/DTD/svg11.dtd">
<svg version="1.1" id="Layer_1" xmlns="http://www.w3.org/2000/svg" xmlns:xlink="http://www.w3.org/1999/xlink" x="0px" y="0px"
	 width="26px" height="102px" viewBox="0 0 26 102" enable-background="new 0 0 26 102" xml:space="preserve">
<rect id="backgroundrect" fill="none" width="26" height="102"/>
<g>
	<title>Layer 1</title>
	<path id="svg_1" fill="#6E1FAA" d="M16.419,32.593c0,0,12.765-5.057,8.495-15.551c-2.595-6.375-4.396-10.496-4.237-13.921
		c0.107-2.318-2.343-3.873-4.37-2.744C10.362,3.689,2.775,9.295,1.175,16.784c-2.687,12.588,6.076,15.411,6.076,15.411
		L16.419,32.593z"/>
	<path id="svg_2" fill="#51008E" d="M7.251,32.194l9.167,0.398c0,0,5.989-2.372,8.391-7.239C21.562,21.892,15.711,18,7.739,22.129
		c-2.452,1.271-4.503,2.688-6.22,4.148C3.302,30.922,7.251,32.194,7.251,32.194z"/>
	<path id="svg_3" fill="#FFAA75" d="M7.912,99.604c1.652,3.15,6.167,3.15,7.818-0.001c3.442-6.566,7.912-18.104,7.912-33.752
		c0-17.373-2.756-28.543-4.503-33.883c-0.724-2.208-2.78-3.703-5.104-3.703l-4.428,0c-2.324,0-4.381,1.495-5.104,3.703
		C2.755,37.308,0,48.479,0,65.852C0,81.5,4.469,93.037,7.912,99.604z"/>
	<path id="svg_4" fill="#FF8C42" d="M19.766,90.11c2.141-6.351,3.877-14.507,3.877-24.259c0-17.374-2.755-28.543-4.503-33.883
		c-0.724-2.209-2.78-3.704-5.104-3.704l-4.428,0c-2.324,0-4.381,1.495-5.104,3.703c-0.579,1.765-1.266,4.168-1.929,7.222
		c5.229,0.713,9.763,4.361,11.489,9.578C20.416,67.967,19.766,90.078,19.766,90.11z"/>
	<path id="svg_5" fill="#F9EE80" d="M23.271,55.138c-0.81-11.355-2.775-19.021-4.133-23.168c-0.723-2.208-2.779-3.704-5.104-3.703
		l-4.428,0c-2.323,0-4.381,1.494-5.104,3.703c-1.358,4.148-3.323,11.814-4.133,23.169c3.6-0.868,7.449-1.341,11.451-1.341
		C15.822,53.797,19.672,54.269,23.271,55.138z"/>
	<path id="svg_6" fill="#EEDB00" d="M15.598,53.939c2.652,0.199,5.222,0.606,7.674,1.198c-0.81-11.355-2.775-19.021-4.133-23.168
		c-0.723-2.208-2.779-3.704-5.104-3.703l-4.428,0c-2.323,0-4.381,1.494-5.104,3.703c-0.578,1.765-1.267,4.17-1.928,7.223
		c5.229,0.713,9.763,4.361,11.489,9.578C14.629,50.475,15.138,52.204,15.598,53.939z"/>
	<path id="svg_7" fill="#51008E" d="M16.307,0.376C10.362,3.689,2.775,9.295,1.176,16.783c-0.239,1.116-0.386,2.156-0.459,3.123
		c0,0,5.472-4.792,11.751-3.869c6.279,0.922,10.186-4.608,10.186-4.608c-1.307-3.395-2.084-6.011-1.978-8.309
		C20.784,0.802,18.334-0.752,16.307,0.376z"/>
</g>
<g>
	<path fill="#FFFFFF" d="M12.398,50.203l-0.867,1.535l0.047,0.047c0.555-0.234,1.047-0.402,1.477-0.504s0.852-0.152,1.266-0.152
		c1.07,0,1.902,0.252,2.496,0.756s0.891,1.213,0.891,2.127c0,0.453-0.064,0.932-0.193,1.436s-0.32,1.012-0.574,1.523
		s-0.559,1.014-0.914,1.506s-0.795,1.004-1.318,1.535c-0.766,0.773-1.533,1.379-2.303,1.816s-1.459,0.656-2.068,0.656
		c-0.445,0-0.883-0.088-1.313-0.264s-0.809-0.424-1.137-0.744c-0.578-0.578-0.867-1.395-0.867-2.449
		c0-1.406,0.402-2.508,1.207-3.305c0.398-0.406,0.865-0.74,1.4-1.002s1.002-0.393,1.4-0.393c0.422,0,0.633,0.117,0.633,0.352v0.035
		c-0.336,0.398-0.588,0.736-0.756,1.014s-0.342,0.65-0.521,1.119c-0.305,0.781-0.457,1.691-0.457,2.73
		c0,0.805,0.16,1.207,0.48,1.207c0.414,0,0.863-0.242,1.348-0.727c0.531-0.555,0.992-1.242,1.383-2.063s0.586-1.516,0.586-2.086
		c0-0.797-0.166-1.385-0.498-1.764s-0.861-0.568-1.588-0.568c-0.406,0-0.953,0.074-1.641,0.223
		c-0.375,0.063-0.574,0.094-0.598,0.094c-0.227,0-0.416-0.076-0.568-0.229s-0.229-0.35-0.229-0.592c0-0.203,0.105-0.625,0.316-1.266
		c0.336-1.078,0.688-2.055,1.055-2.93l0.07-0.164c0.039-0.078,0.105-0.223,0.199-0.434c0.227-0.555,0.428-0.902,0.604-1.043
		s0.494-0.211,0.955-0.211c1.477,0,2.59,0.016,3.34,0.047c0.172,0,0.32,0.008,0.445,0.023h0.152
		c0.586,0.031,0.984,0.082,1.195,0.152s0.316,0.18,0.316,0.328c0,0.133-0.088,0.334-0.264,0.604s-0.393,0.525-0.65,0.768
		c-0.438,0.438-0.891,0.775-1.359,1.014s-0.93,0.357-1.383,0.357c-0.195,0-0.504-0.023-0.926-0.07
		c-0.125-0.031-0.191-0.047-0.199-0.047H12.398z"/>
</g>
</svg>
