<?xml version="1.0" encoding="utf-8"?>
<!-- Generator: Adobe Illustrator 16.0.0, SVG Export Plug-In . SVG Version: 6.00 Build 0)  -->
<!DOCTYPE svg PUBLIC "-//W3C//DTD SVG 1.1//EN" "http://www.w3.org/Graphics/SVG/1.1/DTD/svg11.dtd">
<svg version="1.1" id="Layer_1" xmlns="http://www.w3.org/2000/svg" xmlns:xlink="http://www.w3.org/1999/xlink" x="0px" y="0px"
	 width="26px" height="102px" viewBox="0 0 26 102" enable-background="new 0 0 26 102" xml:space="preserve">
<rect id="backgroundrect" fill="none" width="26" height="102"/>
<g>
	<title>Layer 1</title>
	<path id="svg_1" fill="#0FD7C9" d="M16.419,32.593c0,0,12.765-5.057,8.495-15.551c-2.595-6.375-4.396-10.496-4.237-13.921
		c0.107-2.318-2.343-3.873-4.37-2.744C10.362,3.689,2.775,9.295,1.175,16.784c-2.687,12.588,6.076,15.411,6.076,15.411
		L16.419,32.593z"/>
	<path id="svg_2" fill="#00C8BA" d="M7.251,32.194l9.167,0.398c0,0,5.989-2.372,8.391-7.239C21.562,21.892,15.711,18,7.739,22.129
		c-2.452,1.271-4.503,2.688-6.22,4.148C3.302,30.922,7.251,32.194,7.251,32.194z"/>
	<path id="svg_3" fill="#FFAA75" d="M7.912,99.604c1.652,3.15,6.167,3.15,7.818-0.001c3.442-6.566,7.912-18.104,7.912-33.752
		c0-17.373-2.756-28.543-4.503-33.883c-0.724-2.208-2.78-3.703-5.104-3.703l-4.428,0c-2.324,0-4.381,1.495-5.104,3.703
		C2.755,37.308,0,48.479,0,65.852C0,81.5,4.469,93.037,7.912,99.604z"/>
	<path id="svg_4" fill="#FF8C42" d="M19.766,90.11c2.141-6.351,3.877-14.507,3.877-24.259c0-17.374-2.755-28.543-4.503-33.883
		c-0.724-2.209-2.78-3.704-5.104-3.704l-4.428,0c-2.324,0-4.381,1.495-5.104,3.703c-0.579,1.765-1.266,4.168-1.929,7.222
		c5.229,0.713,9.763,4.361,11.489,9.578C20.416,67.967,19.766,90.078,19.766,90.11z"/>
	<path id="svg_5" fill="#F9EE80" d="M23.271,55.138c-0.81-11.355-2.775-19.021-4.133-23.168c-0.723-2.208-2.779-3.704-5.104-3.703
		l-4.428,0c-2.323,0-4.381,1.494-5.104,3.703c-1.358,4.148-3.323,11.814-4.133,23.169c3.6-0.868,7.449-1.341,11.451-1.341
		C15.822,53.797,19.672,54.269,23.271,55.138z"/>
	<path id="svg_6" fill="#EEDB00" d="M15.598,53.939c2.652,0.199,5.222,0.606,7.674,1.198c-0.81-11.355-2.775-19.021-4.133-23.168
		c-0.723-2.208-2.779-3.704-5.104-3.703l-4.428,0c-2.323,0-4.381,1.494-5.104,3.703c-0.578,1.765-1.267,4.17-1.928,7.223
		c5.229,0.713,9.763,4.361,11.489,9.578C14.629,50.475,15.138,52.204,15.598,53.939z"/>
	<path id="svg_7" fill="#00C8BA" d="M16.307,0.376C10.362,3.689,2.775,9.295,1.176,16.783c-0.239,1.116-0.386,2.156-0.459,3.123
		c0,0,5.472-4.792,11.751-3.869c6.279,0.922,10.186-4.608,10.186-4.608c-1.307-3.395-2.084-6.011-1.978-8.309
		C20.784,0.802,18.334-0.752,16.307,0.376z"/>
</g>
<g>
	<path fill="#FFFFFF" d="M9.361,62.676h0.07c0.258,0,0.58-0.119,0.967-0.357s0.768-0.553,1.143-0.943
		c0.484-0.5,0.869-1.033,1.154-1.6s0.428-1.096,0.428-1.588c0-1.07-0.566-1.719-1.699-1.945c-0.219-0.031-0.375-0.08-0.469-0.146
		s-0.141-0.17-0.141-0.311c0-0.156,0.188-0.395,0.563-0.715c0.563-0.492,1.002-1.029,1.318-1.611s0.475-1.166,0.475-1.752
		c0-0.625-0.129-0.938-0.387-0.938c-0.211,0-0.473,0.166-0.785,0.498s-0.611,0.756-0.896,1.271s-0.498,1.023-0.639,1.523
		c-0.047,0.172-0.094,0.283-0.141,0.334s-0.113,0.076-0.199,0.076c-0.227,0-0.508-0.176-0.844-0.527
		c-0.477-0.508-0.715-1.023-0.715-1.547c0-0.602,0.244-1.199,0.732-1.793s1.123-1.074,1.904-1.441s1.582-0.551,2.403-0.551
		c0.664,0,1.27,0.129,1.816,0.387s0.973,0.615,1.277,1.072s0.457,0.971,0.457,1.541c0,1.039-0.449,1.871-1.348,2.496
		c-0.469,0.32-1.051,0.625-1.746,0.914v0.047c1.102,0.063,1.93,0.309,2.484,0.738s0.832,1.031,0.832,1.805
		c0,0.359-0.084,0.756-0.252,1.189s-0.406,0.879-0.715,1.336s-0.678,0.912-1.107,1.365c-0.938,0.992-1.958,1.768-3.059,2.326
		s-2.16,0.838-3.176,0.838c-0.969,0-1.775-0.309-2.42-0.926s-0.967-1.391-0.967-2.32c0-0.633,0.217-1.266,0.65-1.898
		s0.994-1.15,1.682-1.553s1.375-0.604,2.063-0.604c0.289,0,0.434,0.105,0.434,0.316c0,0.086-0.121,0.23-0.363,0.434
		c-0.023,0.023-0.049,0.049-0.076,0.076s-0.057,0.057-0.088,0.088c-0.305,0.352-0.541,0.789-0.709,1.313s-0.252,1.07-0.252,1.641
		C9.021,61.797,9.134,62.277,9.361,62.676z"/>
</g>
</svg>
