<?xml version="1.0" encoding="utf-8"?>
<!-- Generator: Adobe Illustrator 16.0.0, SVG Export Plug-In . SVG Version: 6.00 Build 0)  -->
<!DOCTYPE svg PUBLIC "-//W3C//DTD SVG 1.1//EN" "http://www.w3.org/Graphics/SVG/1.1/DTD/svg11.dtd">
<svg version="1.1" id="Layer_1" xmlns="http://www.w3.org/2000/svg" xmlns:xlink="http://www.w3.org/1999/xlink" x="0px" y="0px"
	 width="26px" height="102px" viewBox="0 0 26 102" enable-background="new 0 0 26 102" xml:space="preserve">
<rect id="backgroundrect" fill="none" width="26" height="102"/>
<g>
	<title>Layer 1</title>
	<path id="svg_1" fill="#E02A64" d="M16.419,32.593c0,0,12.765-5.057,8.495-15.551c-2.595-6.375-4.396-10.496-4.237-13.921
		c0.107-2.318-2.343-3.873-4.37-2.744C10.362,3.689,2.775,9.295,1.175,16.784c-2.687,12.588,6.076,15.411,6.076,15.411
		L16.419,32.593z"/>
	<path id="svg_2" fill="#C3184E" d="M7.251,32.194l9.167,0.398c0,0,5.989-2.372,8.391-7.239C21.563,21.892,15.711,18,7.739,22.129
		c-2.452,1.271-4.503,2.688-6.22,4.148C3.302,30.922,7.251,32.194,7.251,32.194z"/>
	<path id="svg_3" fill="#FFAA75" d="M7.912,99.604c1.652,3.15,6.167,3.15,7.818,0c3.442-6.566,7.912-18.104,7.912-33.752
		c0-17.373-2.756-28.543-4.503-33.883c-0.724-2.208-2.78-3.703-5.104-3.703l-4.428,0c-2.324,0-4.381,1.495-5.104,3.703
		C2.755,37.308,0,48.479,0,65.852C0,81.5,4.47,93.037,7.912,99.604z"/>
	<path id="svg_4" fill="#FF8C42" d="M19.766,90.11c2.141-6.351,3.877-14.507,3.877-24.259c0-17.374-2.755-28.543-4.503-33.883
		c-0.724-2.209-2.78-3.704-5.104-3.704l-4.427,0c-2.324,0-4.381,1.495-5.104,3.703c-0.579,1.765-1.266,4.168-1.928,7.222
		c5.229,0.713,9.763,4.361,11.489,9.578C20.417,67.967,19.766,90.078,19.766,90.11z"/>
	<path id="svg_5" fill="#F9EE80" d="M23.271,55.138c-0.81-11.355-2.775-19.021-4.133-23.168c-0.723-2.208-2.779-3.704-5.104-3.703
		l-4.428,0c-2.323,0-4.381,1.494-5.104,3.703c-1.358,4.148-3.323,11.814-4.133,23.169c3.6-0.868,7.449-1.341,11.451-1.341
		C15.822,53.797,19.672,54.269,23.271,55.138z"/>
	<path id="svg_6" fill="#EEDB00" d="M15.598,53.939c2.652,0.199,5.222,0.606,7.674,1.198c-0.81-11.355-2.775-19.021-4.133-23.168
		c-0.723-2.208-2.779-3.704-5.104-3.703l-4.428,0c-2.323,0-4.381,1.494-5.104,3.703c-0.578,1.765-1.267,4.17-1.928,7.223
		c5.229,0.713,9.763,4.361,11.489,9.578C14.629,50.475,15.138,52.204,15.598,53.939z"/>
	<path id="svg_7" fill="#C3184E" d="M16.307,0.376C10.362,3.689,2.775,9.295,1.176,16.783c-0.239,1.116-0.386,2.156-0.458,3.123
		c0,0,5.472-4.792,11.751-3.869c6.28,0.922,10.186-4.608,10.186-4.608c-1.307-3.395-2.084-6.011-1.978-8.309
		C20.784,0.802,18.334-0.752,16.307,0.376z"/>
</g>
<g>
	<path fill="#FFFFFF" d="M11.744,52.645l2.178-4.512c-0.07-0.016-0.16-0.023-0.27-0.023c-0.422,0-1.23,0.207-2.426,0.621
		c-0.617,0.219-1.096,0.373-1.436,0.463s-0.627,0.135-0.861,0.135c-0.438,0-0.656-0.168-0.656-0.504c0-0.281,0.113-0.658,0.34-1.131
		s0.491-0.896,0.796-1.271c0.203-0.258,0.391-0.43,0.563-0.516s0.43-0.129,0.772-0.129c0.148,0,0.27,0.008,0.363,0.023l2.636,0.047
		c1.771,0.047,2.998,0.214,3.677,0.503c0.25,0.125,0.375,0.308,0.375,0.55c0,0.218-0.145,0.628-0.435,1.23l-2.092,4.491h0.224h0.579
		h0.366c0.4,0,0.602,0.047,0.602,0.141c0,0.172-0.088,0.415-0.265,0.731c-0.176,0.315-0.362,0.567-0.558,0.755
		c-0.462,0.483-1.19,0.835-2.186,1.053l-1.576,3.87c-0.031,0.094-0.066,0.191-0.105,0.293c-0.116,0.313-0.241,0.544-0.374,0.692
		c-0.352,0.305-0.807,0.553-1.365,0.744s-1.11,0.287-1.657,0.287c-0.359,0-0.643-0.066-0.85-0.199s-0.311-0.305-0.311-0.516
		c0-0.242,0.259-0.82,0.776-1.734c0.023-0.039,0.043-0.072,0.059-0.1s0.035-0.064,0.059-0.111l1.541-2.789h-0.142
		c-0.095,0.016-0.232,0.023-0.412,0.023c-0.676,0-1.014-0.254-1.014-0.762c0-0.164,0.063-0.414,0.187-0.75
		c0.319-0.719,0.585-1.176,0.795-1.371c0.109-0.109,0.429-0.164,0.958-0.164C10.935,52.715,11.316,52.691,11.744,52.645z"/>
</g>
</svg>
