<svg xmlns="http://www.w3.org/2000/svg" width="30" height="52" fill="none"><rect id="backgroundrect" width="100%" height="100%" x="0" y="0" fill="none" stroke="none" class="" style=""/>

<defs>
<clipPath id="clip0">
<rect width="48" height="48" fill="white" transform="rotate(-45 0,34) " y="34" x="0" id="svg_1"/>
</clipPath>
</defs>
<g class="currentLayer" style=""><title>Layer 1</title>








<g class=""><path d="M16.452600347900393,8.83334998512268 L16.45290034790039,3.584129985122681 C16.452600347900393,1.6049699851226809 14.847900347900392,0.0002599851226805505 12.86870034790039,-1.4877319376438436e-8 C10.88960034790039,0.0002599851226805505 9.28490034790039,1.6049699851226809 9.28460034790039,3.584129985122681 L9.28490034790039,8.83334998512268 C9.28490034790039,13.410549985122682 5.968000347900389,14.98934998512268 3.2995003479003913,15.518849985122682 C1.3820003479003908,15.89924998512268 0.0005003479003917732,17.579649985122682 0.0005003479003917732,19.53414998512268 L0.0007003479003913071,24.79684998512268 L25.73670034790039,24.79684998512268 L25.73700034790039,19.53414998512268 C25.73700034790039,17.579649985122682 24.35550034790039,15.89924998512268 22.43800034790039,15.518849985122682 C19.76950034790039,14.98934998512268 16.452600347900393,13.410549985122682 16.452600347900393,8.83334998512268 z" fill="#E7896E" id="svg_3" class=""/><path d="M3.2995003479003913,15.518849985122682 C1.3820003479003908,15.89924998512268 0.0005003479003917732,17.579649985122682 0.0005003479003917732,19.53414998512268 L0.0008003479003910741,24.79684998512268 L7.525900347900389,24.79684998512268 C7.657700347900391,23.23404998512268 8.123800347900392,21.71454998512268 8.89880034790039,20.34284998512268 C12.12660034790039,14.630149985122681 9.28490034790039,8.83334998512268 9.28490034790039,8.83334998512268 C9.28490034790039,13.410549985122682 5.968000347900389,14.98934998512268 3.2995003479003913,15.518849985122682 z" fill="#DD6642" id="svg_4" class=""/><path d="M21.544400347900392,47.12594998512268 L4.193700347900389,47.12594998512268 C1.8779003479003897,47.12564998512268 0.0008003479003910741,45.24854998512268 0.0006003479003915402,42.93274998512268 L0.0006003479003915402,26.442249985122682 L25.73760034790039,26.442249985122682 L25.73760034790039,42.93274998512268 C25.73740034790039,45.24854998512268 23.86000034790039,47.12594998512268 21.544400347900392,47.12594998512268 z" fill="#FFEAB7" id="svg_5" class=""/><path d="M0.0006003479003915402,42.93274998512268 C0.0008003479003910741,45.24854998512268 1.8779003479003897,47.12564998512268 4.193700347900389,47.12594998512268 L9.445500347900392,47.12564998512268 C7.2872003479003915,44.46854998512268 7.47830034790039,40.59364998512268 7.47830034790039,40.59364998512268 C7.47830034790039,40.59364998512268 7.486300347900389,31.81604998512268 7.4858003479003905,26.442249985122682 L0.0006003479003915402,26.442249985122682 L0.0006003479003915402,42.93274998512268 z" fill="#FAD989" id="svg_6" class=""/><path d="M0.0002003479003889197,20.83194998512268 L25.73670034790039,20.83194998512268 L25.73670034790039,30.347349985122683 L0.0002003479003889197,30.347349985122683 L0.0002003479003889197,20.83194998512268 z" fill="#A7B6C5" id="svg_7" class=""/><path d="M0.0011003479003903749,20.83234998512268 V30.347749985122682 H7.485300347900392 C7.48610034790039,28.67724998512268 7.486400347900389,27.05804998512268 7.4858003479003905,25.719749985122682 C7.485600347900391,24.020249985122682 7.881500347900392,22.347749985122682 8.639200347900392,20.83234998512268 H0.0011003479003903749 z" fill="#889CB0" id="svg_8" class=""/><path d="M25.73630034790039,40.13584998512268 C25.73630034790039,38.54274998512268 24.444900347900393,37.25134998512268 22.851800347900394,37.25134998512268 C22.851800347900394,37.25134998512268 20.153600347900394,37.40104998512268 19.967400347900387,40.10944998512268 V42.26284998512268 C19.967400347900387,43.44414998512268 19.00070034790039,44.44704998512268 17.819700347900394,44.42504998512268 C16.674600347900387,44.40384998512268 15.752700347900394,43.46854998512268 15.752700347900394,42.318249985122684 L15.75300034790039,36.74854998512268 C15.752700347900394,35.18474998512268 14.53640034790039,33.85244998512268 12.973400347900391,33.79694998512268 C11.33240034790039,33.73824998512268 9.983800347900392,35.05164998512268 9.983800347900392,36.679349985122684 L9.983800347900392,40.405149985122684 C9.983600347900392,41.58624998512268 9.017200347900392,42.58934998512268 7.836100347900391,42.56734998512268 C6.691000347900392,42.54564998512268 5.769200347900391,41.610849985122684 5.769200347900391,40.46054998512268 L5.769200347900391,38.14454998512268 C5.769200347900391,36.580449985122684 4.55310034790039,35.24844998512268 2.989800347900392,35.19274998512268 C1.3489003479003898,35.13444998512268 0.00030034790039223935,36.44734998512268 3.4790038938581347e-7,38.07534998512268 L0.00030034790039223935,42.93244998512268 C0.00030034790039223935,45.24854998512268 1.877400347900391,47.12564998512268 4.19340034790039,47.12564998512268 C4.19340034790039,47.12564998512268 16.49510034790039,47.123049985122684 20.53600034790039,47.11924998512268 C21.26910034790039,47.11844998512268 21.939800347900388,47.53634998512268 22.256300347900392,48.197749985122684 C22.71380034790039,49.15354998512268 23.279400347900392,50.008549985122684 23.774700347900392,50.50394998512268 C25.152100347900394,51.88124998512268 27.385000347900387,51.88104998512268 28.762100347900393,50.50394998512268 C30.139500347900388,49.12654998512268 30.139500347900388,46.89394998512268 28.762100347900393,45.51654998512268 C28.329700347900392,45.08414998512268 27.62270034790039,44.59784998512268 26.81400034790039,44.17704998512268 C26.132000347900387,43.82174998512268 25.72520034790039,43.03684998512268 25.737100347900387,42.267749985122684 L25.73630034790039,40.13584998512268 z" fill="#FF5F7F" id="svg_9" class=""/><path d="M5.770200347900392,40.46034998512268 L5.769900347900389,38.14454998512268 C5.769900347900389,36.58054998512268 4.553900347900392,35.24844998512268 2.99060034790039,35.19274998512268 C1.3497003479003915,35.13454998512268 0.001000347900390608,36.44744998512268 0.001000347900390608,38.07514998512268 L0.001000347900390608,42.932549985122684 C0.0013003479003899088,45.24834998512268 1.8784003479003921,47.12544998512268 4.1942003479003915,47.12574998512268 C4.1942003479003915,47.12574998512268 6.50120034790039,47.12494998512268 9.44500034790039,47.12444998512268 C8.277600347900389,45.68624998512268 7.797800347900392,43.89404998512268 7.6036003479003895,42.55004998512268 C6.569300347900391,42.41544998512268 5.7700003479003925,41.53114998512268 5.770200347900392,40.46034998512268 z" fill="#F6375D" id="svg_10" class=""/></g></g></svg>