<svg xmlns="http://www.w3.org/2000/svg" width="15" height="61" fill="none"><rect id="backgroundrect" width="100%" height="100%" x="0" y="0" fill="none" stroke="none" class="" style=""/>

<defs>
<clipPath id="clip0">
<rect width="48" height="48" fill="white" transform="rotate(-45 0,34) " y="34" x="0" id="svg_1"/>
</clipPath>
</defs>
<g class="currentLayer" style=""><title>Layer 1</title>







<g class=""><path d="M5.621167013549808,41.624080153274534 C5.621167013549808,41.624080153274534 -2.0378329864501943,44.65828015327454 0.5244670135498062,50.954580153274534 C2.0810670135498057,54.77958015327454 3.161667013549806,57.25178015327454 3.0663670135498045,59.30728015327453 C3.0018670135498056,60.698180153274535 4.472467013549803,61.63118015327454 5.688767013549807,60.95348015327454 C9.255267013549805,58.965980153274536 13.807567013549807,55.60278015327454 14.767267013549805,51.10948015327454 C16.379467013549807,43.55638015327454 11.121767013549807,41.86288015327454 11.121767013549807,41.86288015327454 L5.621167013549808,41.624080153274534 z" fill="#E7896E" id="svg_3" class=""/><path d="M11.122367013549805,41.862980153274535 L5.621767013549807,41.62428015327453 C5.621767013549807,41.62428015327453 2.0285670135498037,43.047480153274535 0.5877670135498043,45.967880153274535 C2.5358670135498045,48.04438015327454 6.046467013549808,50.379880153274534 10.829567013549806,47.901980153274536 C12.300667013549806,47.13988015327454 13.531367013549804,46.28928015327454 14.561467013549802,45.41298015327454 C13.491767013549804,42.62638015327454 11.122367013549805,41.862980153274535 11.122367013549805,41.862980153274535 z" fill="#DD6642" id="svg_4" class=""/><path d="M10.725067013549804,1.4175201532745358 C9.734067013549804,-0.47254984672546385 7.024967013549805,-0.47254984672546385 6.034167013549805,1.4177801532745367 C3.9687670135498045,5.357450153274536 1.2870670135498052,12.280180153274536 1.2870670135498052,21.668680153274536 C1.2870670135498052,32.093080153274535 2.9402670135498035,38.795180153274536 3.988767013549804,41.998680153274535 C4.422767013549805,43.32398015327453 5.6571670135498024,44.220680153274536 7.051367013549807,44.220680153274536 L9.707867013549802,44.220480153274536 C11.102367013549802,44.220680153274536 12.336467013549807,43.32368015327454 12.770267013549805,41.998680153274535 C13.819267013549805,38.795180153274536 15.472167013549807,32.09278015327454 15.472367013549807,21.668680153274536 C15.472367013549807,12.280180153274536 12.790667013549808,5.357450153274536 10.725067013549804,1.4175201532745358 z" fill="#FFAA75" id="svg_5" class=""/><path d="M3.613767013549804,7.113580153274537 C2.3290670135498033,10.923980153274536 1.2873670135498045,15.817380153274534 1.2873670135498045,21.668680153274536 C1.2873670135498045,32.09298015327454 2.9401670135498037,38.79488015327453 3.9889670135498037,41.99858015327454 C4.422967013549805,43.32388015327454 5.657367013549802,44.22058015327454 7.051567013549807,44.22058015327454 L9.708167013549804,44.22038015327453 C11.102567013549802,44.220680153274536 12.336767013549803,43.323580153274534 12.770467013549805,41.99858015327454 C13.117467013549806,40.93948015327454 13.529967013549808,39.497380153274534 13.927467013549801,37.66528015327454 C10.789767013549806,37.23728015327453 8.069767013549807,35.048580153274536 7.033967013549805,31.918380153274533 C3.222767013549806,20.399780153274538 3.6132670135498053,7.1327801532745365 3.613767013549804,7.113580153274537 z" fill="#FF8C42" id="svg_6" class=""/><path d="M1.5099670135498044,28.097480153274535 C1.9960670135498049,34.910680153274534 3.1750670135498034,39.510480153274536 3.9896670135498056,41.998480153274535 C4.423667013549803,43.323780153274534 5.657867013549804,44.22078015327454 7.052267013549802,44.220480153274536 L9.708867013549806,44.22078015327454 C11.103067013549804,44.22078015327454 12.337467013549805,43.32398015327453 12.771167013549807,41.99898015327454 C13.585867013549802,39.510480153274536 14.764867013549804,34.910680153274534 15.250867013549808,28.097480153274535 C13.090767013549808,28.61848015327454 10.781167013549805,28.901480153274534 8.380467013549804,28.901780153274537 C5.979667013549808,28.901480153274534 3.669867013549805,28.618780153274535 1.5099670135498044,28.097480153274535 z" fill="#F9EE80" id="svg_7" class=""/><path d="M6.114867013549805,28.816580153274536 C4.522867013549806,28.696880153274535 2.981567013549803,28.452480153274536 1.5099670135498044,28.097480153274535 C1.9960670135498049,34.910680153274534 3.1750670135498034,39.510480153274536 3.9896670135498056,41.998480153274535 C4.423667013549803,43.323780153274534 5.657867013549804,44.22078015327454 7.052267013549802,44.220480153274536 L9.708867013549806,44.22078015327454 C11.103067013549804,44.22078015327454 12.337467013549805,43.32398015327453 12.771167013549807,41.99898015327454 C13.117667013549806,40.93988015327454 13.530967013549805,39.496980153274535 13.927967013549804,37.66538015327453 C10.790767013549804,37.237380153274536 8.070267013549802,35.04868015327454 7.034667013549807,31.91878015327454 C6.695967013549804,30.894880153274535 6.390467013549802,29.857580153274533 6.114867013549805,28.816580153274536 z" fill="#EEDB00" id="svg_8" class=""/><path d="M5.688867013549803,60.95388015327454 C9.255567013549808,58.966180153274536 13.807967013549806,55.60288015327453 14.767367013549801,51.10988015327454 C14.910567013549802,50.43998015327453 14.999167013549808,49.81638015327454 15.042667013549803,49.235880153274536 C15.042667013549803,49.235880153274536 11.759367013549806,52.11098015327454 7.991967013549804,51.557580153274536 C4.2244670135498055,51.00418015327454 1.8806670135498038,54.322080153274534 1.8806670135498038,54.322080153274534 C2.664067013549804,56.35878015327454 3.130667013549804,57.92858015327454 3.0666670135498038,59.30748015327454 C3.002167013549805,60.69828015327454 4.472767013549806,61.63128015327453 5.688867013549803,60.95388015327454 z" fill="#81D9E7" id="svg_9" class=""/></g></g></svg>