<svg xmlns="http://www.w3.org/2000/svg" width="28" height="43" fill="none"><rect id="backgroundrect" width="100%" height="100%" x="0" y="0" fill="none" stroke="none" class="" style=""/>

<defs>
<clipPath id="clip0">
<rect width="48" height="48" fill="white" transform="rotate(-45 0,33.999900817871094) " y="33.999900817871094" x="0" id="svg_1"/>
</clipPath>
</defs>
<g class="currentLayer" style=""><title>Layer 1</title>
<path d="M25.323699185180665,42.95690036621094 L2.307399185180664,42.95690036621094 C1.0345991851806637,42.95690036621094 0.0004991851806650516,41.92270036621094 0.00039918518066528463,40.649900366210936 V2.3070003662109375 C0.00039918518066528463,1.0342003662109374 1.0345991851806637,0.00010036621093689746 2.307399185180664,3.662109371305178e-7 L25.323699185180665,3.662109371305178e-7 C26.596399185180665,3.662109371305178e-7 27.630599185180664,1.0342003662109374 27.630599185180664,2.3070003662109375 V40.649900366210936 C27.630599185180664,41.922600366210936 26.59649918518066,42.956800366210935 25.323699185180665,42.95690036621094 z" fill="#E2574C" id="svg_3" class=""/>
<path d="M27.630199185180665,40.64980036621094 L27.630199185180665,34.44500036621094 C27.36509918518066,34.338900366210936 0.29169918518066495,34.31240036621094 -8.148193373358481e-7,34.44500036621094 L-8.148193373358481e-7,40.64980036621094 C-8.148193373358481e-7,41.922600366210936 1.034099185180665,42.95670036621094 2.306999185180665,42.956800366210935 L25.323199185180663,42.956800366210935 C26.596099185180663,42.95670036621094 27.630199185180665,41.922600366210936 27.630199185180665,40.64980036621094 z" fill="#B5463D" id="svg_4" class=""/>
<path d="M2.307699185180663,0.00010036621093689746 C1.034899185180663,0.00010036621093689746 0.0007991851806643524,1.0343003662109371 0.0006991851806645855,2.3071003662109373 L0.0006991851806645855,19.17160036621094 L27.630899185180667,19.17160036621094 L27.630899185180667,2.3071003662109373 C27.630899185180667,1.034400366210937 26.596799185180664,0.0002003662109366644 25.32399918518066,0.00010036621093689746 L2.307699185180663,0.00010036621093689746 z" fill="#208DB2" id="svg_5" class=""/>
<path d="M27.621699185180667,37.96650036621094 V39.46630036621094 L0.021799185180665148,39.46640036621094 L0.02169918518066538,37.96660036621094 L27.621699185180667,37.96650036621094 z" fill="#DCBBB8" id="svg_6" class=""/>
</g></svg>