<svg xmlns="http://www.w3.org/2000/svg" width="23" height="62" fill="none"><rect id="backgroundrect" width="100%" height="100%" x="0" y="0" fill="none" stroke="none" class="" style=""/>

<defs>
<clipPath id="clip0">
<rect width="48" height="48" fill="white" transform="rotate(135 67.88179779052733,34.25490188598633) " y="34.25490188598633" x="67.88179779052734" id="svg_1"/>
</clipPath>
</defs>
<g class="currentLayer" style=""><title>Layer 1</title>








<g class=""><path d="M8.90610054321289,-5.187988261212695e-8 L13.600400543212892,-5.187988261212695e-8 C16.494900543212893,-5.187988261212695e-8 18.84180054321289,2.3468699481201174 18.84200054321289,5.241649948120116 L18.84200054321289,14.442149948120118 H3.664400543212892 V5.241649948120116 C3.664400543212892,2.3466099481201175 6.011100543212891,-5.187988261212695e-8 8.90610054321289,-5.187988261212695e-8 z" fill="#FFB3C2" id="svg_3" class=""/><path d="M3.664400543212892,7.219049948120118 L3.664400543212892,14.442149948120118 L18.84200054321289,14.442149948120118 L18.84200054321289,5.241649948120116 C18.84180054321289,2.3468699481201174 16.494900543212893,-5.187988261212695e-8 13.600400543212892,-5.187988261212695e-8 L12.702300543212893,-5.187988261212695e-8 C13.585100543212889,2.0827399481201176 12.26880054321289,4.6067199481201175 9.865500543212889,4.948799948120117 C5.39240054321289,5.586349948120118 3.664400543212892,7.219049948120118 3.664400543212892,7.219049948120118 z" fill="#FF899F" id="svg_4" class=""/><path d="M3.6647005432128914,8.294749948120117 H18.84220054321289 L18.84200054321289,50.51514994812012 C18.84200054321289,52.269349948120116 18.32530054321289,53.984849948120115 17.356600543212892,55.44714994812012 L13.982800543212889,60.53934994812012 C12.688000543212894,62.49394994812012 9.818600543212888,62.49364994812012 8.52380054321289,60.53914994812011 L5.150300543212889,55.44714994812012 C4.181500543212891,53.984849948120115 3.6647005432128914,52.269549948120115 3.6647005432128914,50.51494994812012 L3.6647005432128914,8.294749948120117 z" fill="#FFBD86" id="svg_5" class=""/><path d="M6.73990054321289,52.24074994812012 C7.299800543212889,51.67464994812012 8.21390054321289,51.67464994812012 8.77370054321289,52.24074994812012 L9.919800543212894,53.40024994812012 C10.654000543212888,54.143249948120115 11.853900543212887,54.143249948120115 12.588300543212888,53.40004994812012 L13.73390054321289,52.24094994812012 C14.293800543212889,51.674949948120116 15.208100543212893,51.67464994812012 15.76770054321289,52.24094994812012 L17.935900543212888,54.43504994812012 C18.52990054321289,53.219049948120116 18.84220054321289,51.87874994812012 18.84220054321289,50.515049948120115 L18.842500543212893,8.294649948120117 L3.664900543212891,8.294649948120117 L3.664900543212891,50.514849948120116 C3.664900543212891,51.878449948120114 3.9775005432128907,53.219049948120116 4.571200543212889,54.434749948120114 L6.73990054321289,52.24074994812012 z" fill="#F9EE80" id="svg_6" class=""/><path d="M14.750000543212892,8.294849948120117 L7.756300543212891,8.294849948120117 L7.756000543212892,51.81634994812012 C8.12450054321289,51.81654994812012 8.49330054321289,51.95794994812012 8.772900543212891,52.241249948120114 L9.918800543212889,53.400549948120116 C10.65340054321289,54.14354994812012 11.853400543212892,54.14354994812012 12.587800543212893,53.400349948120116 L13.733400543212888,52.241249948120114 C14.013300543212893,51.95824994812012 14.38180054321289,51.81654994812012 14.750300543212887,51.816849948120115 L14.750000543212892,8.294849948120117 z" fill="#394049" id="svg_7" class=""/><path d="M3.5458005432128914,8.294749948120117 L18.96060054321289,8.294749948120117 C20.91880054321289,8.294749948120117 22.50620054321289,9.882049948120118 22.50620054321289,11.840249948120118 C22.50640054321289,13.798649948120119 20.91880054321289,15.386349948120117 18.96040054321289,15.386049948120117 L3.545600543212892,15.386049948120117 C1.5874005432128904,15.386049948120117 5.432128915572321e-7,13.798649948120119 5.432128915572321e-7,11.840549948120117 C5.432128915572321e-7,9.882349948120117 1.5877005432128897,8.294749948120117 3.5458005432128914,8.294749948120117 z" fill="#A7B6C5" id="svg_8" class=""/><path d="M17.16330054321289,11.840549948120117 C17.16330054321289,13.798649948120119 15.575900543212889,15.386049948120117 13.617500543212891,15.386349948120117 L18.96040054321289,15.386049948120117 C20.91880054321289,15.386349948120117 22.50640054321289,13.798649948120119 22.50620054321289,11.840249948120118 C22.50620054321289,9.882049948120118 20.91880054321289,8.294749948120117 18.96060054321289,8.294749948120117 H13.617500543212891 C15.575600543212893,8.294749948120117 17.16300054321289,9.882049948120118 17.16330054321289,11.840549948120117 z" fill="#889CB0" id="svg_9" class=""/><path d="M6.748900543212891,57.860749948120116 L8.52370054321289,60.53934994812012 C9.818500543212892,62.493849948120115 12.68790054321289,62.49414994812011 13.98260054321289,60.53954994812011 L15.757500543212892,57.86044994812012 C14.51920054321289,57.194449948120116 12.955100543212893,56.795649948120115 11.253300543212887,56.795649948120115 C9.551500543212889,56.795649948120115 7.9874005432128925,57.194449948120116 6.748900543212891,57.860749948120116 z" fill="#394049" id="svg_10" class=""/></g></g></svg>