<?xml version="1.0" encoding="utf-8"?>
<!-- Generator: Adobe Illustrator 16.0.0, SVG Export Plug-In . SVG Version: 6.00 Build 0)  -->
<!DOCTYPE svg PUBLIC "-//W3C//DTD SVG 1.1//EN" "http://www.w3.org/Graphics/SVG/1.1/DTD/svg11.dtd">
<svg version="1.1" id="Layer_1" xmlns="http://www.w3.org/2000/svg" xmlns:xlink="http://www.w3.org/1999/xlink" x="0px" y="0px"
	 width="83px" height="83px" viewBox="0 0 83 83" enable-background="new 0 0 83 83" xml:space="preserve">
<path fill="#FFFFFF" stroke="#010101" stroke-width="0.15" stroke-miterlimit="10" d="M83.105,63.802H0.209V0.065h82.896V63.802z"/>
<path fill="#FFFFFF" stroke="#010101" stroke-width="0.15" stroke-miterlimit="10" d="M83.068,65.174
	c-0.979,1.063-2.381,1.729-3.94,1.729c-1.394,0-2.664-0.529-3.618-1.402c-0.539,0.209-1.129,0.32-1.742,0.32
	c-1.074,0-2.063-0.348-2.869-0.938c-1.037,0.7-2.287,1.108-3.633,1.108c-3.591,0-6.502-2.91-6.502-6.502
	c0-3.593,2.911-6.503,6.502-6.503c0.394,0,0.771,0.035,1.146,0.104c-0.001-0.033-0.003-0.066-0.003-0.104
	c0-2.961,2.397-5.359,5.358-5.359c2.114,0,3.941,1.227,4.814,3.004c0.499-0.381,1.123-0.607,1.8-0.607
	c1.188,0,2.216,0.699,2.688,1.711v13.44L83.068,65.174L83.068,65.174z"/>
<path fill="#FFFFFF" stroke="#010101" stroke-width="0.15" stroke-miterlimit="10" d="M39.359,53.729
	c0.56,0,1.106,0.057,1.638,0.146c-0.001-0.048-0.004-0.096-0.004-0.146c0-4.236,3.438-7.679,7.678-7.679
	c3.029,0,5.649,1.755,6.897,4.304c0.715-0.547,1.604-0.871,2.578-0.871c2.346,0,4.246,1.9,4.246,4.246c0,0.028,0,0.06,0,0.084
	c3.301,0.043,5.965,2.73,5.965,6.043c0,2.746-1.832,5.063-4.338,5.799c0.004,0.109,0.008,0.221,0.008,0.328
	c0,4.24-3.438,7.682-7.678,7.682c-1.998,0-3.815-0.768-5.185-2.018c-0.772,0.299-1.617,0.465-2.498,0.465
	c-1.538,0-2.958-0.5-4.104-1.346c-1.486,1.002-3.277,1.588-5.208,1.588c-5.143,0-9.312-4.17-9.312-9.313
	C30.047,57.896,34.216,53.729,39.359,53.729z"/>
<path fill="#FFFFFF" stroke="#010101" stroke-width="0.15" stroke-miterlimit="10" d="M0.056,63.802h83.049v19.16H0.056V63.802z"/>
<path fill="#FFFFFF" stroke="#010101" stroke-width="0.15" stroke-miterlimit="10" d="M62.648,20.431
	c-1.797,1.727-4.385,2.565-7.008,2.018c-4.222-0.881-6.92-5.011-6.039-9.229c0.549-2.622,2.354-4.659,4.652-5.612
	c0.484-0.202,0.896,0.41,0.527,0.781c-0.942,0.941-1.624,2.167-1.895,3.581c-0.683,3.605,1.635,7.146,5.211,7.965
	c1.403,0.321,2.799,0.188,4.039-0.299C62.633,19.441,63.027,20.066,62.648,20.431z"/>
<path fill="#FFFFFF" stroke="#010101" stroke-width="0.15" stroke-miterlimit="10" d="M75.075,20.621l0.411,0.836
	c0.06,0.118,0.173,0.2,0.304,0.219l0.921,0.134c0.33,0.048,0.461,0.452,0.223,0.684l-0.666,0.65
	c-0.096,0.092-0.139,0.225-0.115,0.355l0.156,0.918c0.06,0.328-0.287,0.578-0.582,0.422l-0.824-0.433
	c-0.113-0.063-0.256-0.063-0.373,0l-0.821,0.433c-0.294,0.155-0.64-0.095-0.582-0.422l0.158-0.918
	c0.021-0.13-0.021-0.263-0.115-0.355l-0.668-0.65c-0.233-0.232-0.104-0.636,0.226-0.684l0.924-0.134
	c0.129-0.019,0.242-0.101,0.301-0.219l0.412-0.836C74.503,20.323,74.93,20.323,75.075,20.621z"/>
<path fill="#FFFFFF" stroke="#010101" stroke-width="0.15" stroke-miterlimit="10" d="M38.383,16.447l0.035,0.931
	c0.005,0.132,0.074,0.253,0.187,0.324l0.786,0.499c0.281,0.179,0.235,0.601-0.076,0.715l-0.875,0.321
	c-0.124,0.045-0.217,0.149-0.25,0.276l-0.23,0.903c-0.083,0.322-0.499,0.41-0.705,0.148l-0.575-0.732
	c-0.082-0.104-0.209-0.161-0.34-0.152l-0.93,0.059c-0.332,0.021-0.543-0.347-0.358-0.623l0.519-0.774
	c0.073-0.109,0.088-0.248,0.04-0.371l-0.343-0.866c-0.123-0.309,0.163-0.625,0.482-0.534l0.896,0.254
	c0.127,0.037,0.264,0.008,0.365-0.076l0.718-0.595C37.982,15.941,38.371,16.114,38.383,16.447z"/>
<path fill="#FFFFFF" stroke="#010101" stroke-width="0.15" stroke-miterlimit="10" d="M64.911,7.468l0.444,0.353
	c0.063,0.05,0.146,0.065,0.224,0.042l0.542-0.167c0.193-0.06,0.371,0.129,0.301,0.318l-0.197,0.532
	c-0.024,0.076-0.018,0.16,0.028,0.226l0.327,0.464c0.115,0.166-0.01,0.393-0.21,0.384l-0.567-0.023
	c-0.08-0.003-0.156,0.033-0.205,0.097l-0.341,0.454c-0.12,0.162-0.376,0.113-0.431-0.081l-0.152-0.546
	c-0.021-0.078-0.08-0.14-0.156-0.166L63.98,9.171c-0.19-0.065-0.229-0.322-0.06-0.434l0.476-0.314c0.063-0.045,0.104-0.12,0.105-0.2
	l0.012-0.567C64.52,7.453,64.752,7.343,64.911,7.468z"/>
<path fill="#FFFFFF" stroke="#010101" stroke-width="0.15" stroke-miterlimit="10" d="M17.608,24.485H0.263V8.205h12.126
	c0.847,0,1.614,0.503,1.951,1.28l5.219,12.027C20.168,22.916,19.139,24.485,17.608,24.485z"/>
<path fill="#FFFFFF" stroke="#010101" stroke-width="0.15" stroke-miterlimit="10" d="M14.86,24.485v39.316H0.187V24.485H14.86z"/>
<path fill="#FFFFFF" stroke="#010101" stroke-width="0.15" stroke-miterlimit="10" d="M8.733,32.971v30.831H0.324
	c-0.046,0-0.092-0.002-0.138-0.007V31.557c0.045-0.005,0.091-0.007,0.138-0.007h6.988C8.097,31.55,8.733,32.186,8.733,32.971z"/>
<path fill="#FFFFFF" stroke="#010101" stroke-width="0.15" stroke-miterlimit="10" d="M6.429,45.68c0.573,0,1.037,0.465,1.037,1.036
	c0,0.573-0.464,1.036-1.037,1.036c-0.573,0-1.037-0.463-1.037-1.036C5.393,46.145,5.856,45.68,6.429,45.68z"/>
<path fill="#FFFFFF" stroke="#010101" stroke-width="0.15" stroke-miterlimit="10" d="M29.174,62.872
	c-0.291-0.229-0.342-0.651-0.113-0.942c0.227-0.289,0.651-0.344,0.943-0.115c0,0,3.369,1.272,4.295,2.016
	c0.867,0.688,2.727,3.496,2.727,3.496c1.617-4.271,3.115-3.692,3.548-3.184c0.497,0.586-0.193,2.299-1.951,3.787
	c-0.957,0.813-1.481,1.071-1.724,0.982c-0.043-0.01-0.086-0.025-0.126-0.059c0,0-2.457-3.293-3.415-4.047
	C32.409,64.061,29.174,62.872,29.174,62.872z"/>
<path fill="#FFFFFF" stroke="#010101" stroke-width="0.15" stroke-miterlimit="10" d="M20.66,43.962
	c-0.504,0.058-1.266,0.054-2.149-0.239c-2.001-0.666-3.675-2.435-4.977-5.257c-0.935-2.026-2.032-7.113-2.078-7.328l1.276-0.273
	c0.011,0.051,1.113,5.159,1.987,7.055c2.67,5.792,6.131,4.689,6.166,4.68l0.421,1.233C21.284,43.841,21.049,43.919,20.66,43.962"/>
<path fill="#FFFFFF" stroke="#010101" stroke-width="0.15" stroke-miterlimit="10" d="M20.66,43.962
	c-0.504,0.058-1.266,0.054-2.149-0.239c-2.001-0.666-3.675-2.435-4.977-5.257c-0.935-2.026-2.032-7.113-2.078-7.328l1.276-0.273
	c0.011,0.051,1.113,5.159,1.987,7.055c2.67,5.792,6.131,4.689,6.166,4.68l0.421,1.233C21.284,43.841,21.049,43.919,20.66,43.962z"/>
<path fill="#FFFFFF" d="M13.638,31.905c0.188,0.624-0.123,1.27-0.696,1.443c-0.573,0.173-1.19-0.192-1.379-0.816
	c-0.188-0.624,0.123-1.27,0.696-1.443C12.832,30.917,13.449,31.282,13.638,31.905"/>
<path fill="#F4F4F4" d="M13.712,33.366l-0.78,0.204c-0.217,0.057-0.442-0.075-0.499-0.292l0,0c-0.057-0.218,0.075-0.442,0.292-0.5
	l0.78-0.204c0.218-0.057,0.442,0.075,0.499,0.292C14.062,33.085,13.93,33.31,13.712,33.366"/>
<path fill="#FFFFFF" stroke="#010101" stroke-width="0.15" stroke-miterlimit="10" d="M13.666,33.366l-0.78,0.204
	c-0.217,0.057-0.442-0.075-0.499-0.292l0,0c-0.057-0.218,0.075-0.442,0.292-0.5l0.78-0.204c0.218-0.057,0.442,0.075,0.499,0.292
	C14.015,33.085,13.883,33.31,13.666,33.366z"/>
<path fill="#FFFFFF" stroke="#010101" stroke-width="0.15" stroke-miterlimit="10" d="M12.254,37.694L12.254,37.694
	c-0.581,0.063-1.109-0.359-1.173-0.94L9.002,17.976c-0.064-0.582,0.358-1.109,0.939-1.174c0.582-0.064,1.11,0.359,1.173,0.94
	l2.079,18.778C13.258,37.101,12.835,37.63,12.254,37.694"/>
<path fill="#FFFFFF" stroke="#010101" stroke-width="0.15" stroke-miterlimit="10" d="M12.254,37.694L12.254,37.694
	c-0.581,0.063-1.109-0.359-1.173-0.94L9.002,17.976c-0.064-0.582,0.358-1.109,0.939-1.174c0.582-0.064,1.11,0.359,1.173,0.94
	l2.079,18.778C13.258,37.101,12.835,37.63,12.254,37.694z"/>
<path fill="#FFFFFF" stroke="#010101" stroke-width="0.15" stroke-miterlimit="10" d="M18.124,33.347
	c6.512,2.177,11.64-1.288,11.64-1.288l3.295,29.771c0.11,0.998-0.61,1.898-1.61,2.01l-8.02,0.889c-1,0.109-1.899-0.607-2.01-1.606
	L18.124,33.347"/>
<path fill="#FFFFFF" stroke="#010101" stroke-width="0.15" stroke-miterlimit="10" d="M18.124,33.347l3.295,29.771
	c0.111,0.999,1.011,1.72,2.01,1.608l8.02-0.891c1-0.107,1.72-1.012,1.61-2.01l-3.295-29.771
	C29.763,32.059,24.636,35.523,18.124,33.347z"/>
<path fill="#FFFFFF" stroke="#010101" stroke-width="0.25" stroke-linecap="round" stroke-miterlimit="10" d="M28.442,37.139
	c0.04-0.271,0.132-0.54,0.283-0.79c0.199-0.329,0.473-0.584,0.787-0.758"/>
<path fill="#FFFFFF" stroke="#010101" stroke-width="0.25" stroke-linecap="round" stroke-miterlimit="10" d="M26.848,37.424
	c-0.186-0.202-0.415-0.37-0.681-0.49c-0.35-0.159-0.721-0.213-1.078-0.178"/>
<path fill="#FFFFFF" stroke="#010101" stroke-width="0.15" stroke-miterlimit="10" d="M29.399,28.767l0.364,3.292
	c0,0-5.127,3.465-11.64,1.288c-0.211-1.908-0.365-3.291-0.365-3.291c-0.292-2.642,1.671-5.065,4.489-5.714
	c-0.002-0.015-0.006-0.03-0.007-0.045c-0.052-0.474,0.29-0.901,0.763-0.954c0.475-0.052,0.902,0.29,0.954,0.764
	c0.003,0.023,0.003,0.046,0.004,0.07C26.768,24.276,29.113,26.184,29.399,28.767z"/>
<path fill="#FFFFFF" stroke="#010101" stroke-width="0.15" stroke-miterlimit="10" d="M31.959,33.479
	c0.25,0.353-0.053,0.835-0.483,0.787c-0.656-0.074-1.468-0.188-2.509,0.198c-1.484,0.551-2.927,1.483-4.644,1.673
	c-1.717,0.19-3.328-0.404-4.897-0.616c-1.101-0.15-1.869,0.14-2.492,0.355c-0.409,0.141-0.81-0.264-0.644-0.663
	c0.415-1.001,1.737-1.856,1.737-1.856l0.095-0.011c6.513,2.177,11.64-1.288,11.64-1.288l0.096-0.011
	C29.859,32.048,31.336,32.593,31.959,33.479"/>
<path fill="#FFFFFF" stroke="#010101" stroke-width="0.15" stroke-miterlimit="10" d="M31.959,33.479
	c-0.624-0.887-2.101-1.432-2.101-1.432l-0.096,0.011c0,0-5.127,3.465-11.64,1.288l-0.095,0.011c0,0-1.322,0.855-1.737,1.856
	c-0.166,0.399,0.235,0.804,0.644,0.663c0.623-0.215,1.391-0.505,2.492-0.355c1.569,0.212,3.18,0.807,4.897,0.616
	c1.717-0.19,3.16-1.122,4.644-1.673c1.042-0.386,1.854-0.271,2.509-0.198C31.906,34.314,32.209,33.832,31.959,33.479z"/>
<path fill="#F4F4F4" stroke="#010101" stroke-width="0.15" stroke-miterlimit="10" d="M13.673,32.479
	c0.393-0.571-0.131-1.514-0.723-1.59l-0.894-0.136c-0.295-0.041-0.57,0.167-0.611,0.462s0.167,0.57,0.462,0.61l0.94,0.169
	l-0.128,0.194l0.094,0.563L13.673,32.479z"/>
<path fill="#F4F4F4" d="M11.069,31.571h-0.542c-0.298,0-0.541-0.244-0.541-0.542c0-0.298,0.244-0.541,0.542-0.541h0.542
	c0.298,0,0.541,0.244,0.541,0.542C11.61,31.328,11.367,31.571,11.069,31.571"/>
<path fill="#FFFFFF" stroke="#010101" stroke-width="0.15" stroke-miterlimit="10" d="M11.069,31.571h-0.542
	c-0.298,0-0.541-0.244-0.541-0.542c0-0.298,0.244-0.541,0.542-0.541h0.542c0.298,0,0.541,0.244,0.541,0.542
	C11.61,31.328,11.367,31.571,11.069,31.571z"/>
<path fill="#F4F4F4" d="M11.067,33.736h-0.542c-0.297,0-0.541-0.244-0.541-0.542c0-0.297,0.244-0.541,0.542-0.541h0.542
	c0.298,0,0.542,0.243,0.541,0.541C11.609,33.493,11.365,33.736,11.067,33.736"/>
<path fill="#FFFFFF" stroke="#010101" stroke-width="0.15" stroke-miterlimit="10" d="M11.067,33.736h-0.542
	c-0.297,0-0.541-0.244-0.541-0.542c0-0.297,0.244-0.541,0.542-0.541h0.542c0.298,0,0.542,0.243,0.541,0.541
	C11.609,33.493,11.365,33.736,11.067,33.736z"/>
<path fill="#F4F4F4" d="M11.393,32.654h-0.867c-0.297,0-0.541-0.244-0.541-0.542c0-0.297,0.244-0.541,0.542-0.541h0.866
	c0.298,0,0.542,0.244,0.541,0.542C11.934,32.41,11.69,32.654,11.393,32.654"/>
<path fill="#FFFFFF" stroke="#010101" stroke-width="0.15" stroke-miterlimit="10" d="M11.393,32.654h-0.867
	c-0.297,0-0.541-0.244-0.541-0.542c0-0.297,0.244-0.541,0.542-0.541h0.866c0.298,0,0.542,0.244,0.541,0.542
	C11.934,32.41,11.69,32.654,11.393,32.654z"/>
<path fill="#FFFFFF" stroke="#010101" stroke-width="0.15" stroke-miterlimit="10" d="M29.804,37.163
	c0.968-0.239,1.982,0.503,2.266,1.656c0.284,1.153-0.27,2.28-1.237,2.519"/>
<path fill="#FFFFFF" stroke="#010101" stroke-width="0.15" stroke-miterlimit="10" d="M25.837,39.328
	c0.612,0.027,1.082,0.639,1.05,1.367c-0.031,0.728-0.552,1.297-1.164,1.272"/>
<path fill="#FFFFFF" d="M34.549,46.616c-0.759,0.181-1.734,0.254-3.124,0.269l-0.086-1.057c3.123-0.033,3.641-0.48,3.709-0.563
	c-0.024-0.092-0.246-0.603-2.167-1.658l0.52-0.941c2.102,1.159,2.908,2.016,2.695,2.859C35.968,46.039,35.479,46.395,34.549,46.616"
	/>
<path fill="#FFFFFF" stroke="#010101" stroke-width="0.15" stroke-miterlimit="10" d="M34.549,46.616
	c-0.759,0.181-1.734,0.254-3.124,0.269l-0.086-1.057c3.123-0.033,3.641-0.48,3.709-0.563c-0.024-0.092-0.246-0.603-2.167-1.658
	l0.52-0.941c2.102,1.159,2.908,2.016,2.695,2.859C35.968,46.039,35.479,46.395,34.549,46.616z"/>
<path fill="#BBBDBF" d="M28.146,38.346c-0.157-0.399,0.569-0.925,1.45-0.542c0.88,0.382,1.894,1.325,2.881,0.498
	c0,0-0.427,0.694-1.405,0.729c-0.489,0.018-0.81-0.499-1.601-0.507C29.088,38.52,28.396,38.977,28.146,38.346z"/>
<path fill="#BBBDBF" d="M27.771,38.436c-0.04-0.427-0.925-0.569-1.539,0.169c-0.614,0.738-1.094,2.037-2.348,1.743
	c0,0,0.693,0.427,1.583,0.017c0.445-0.204,0.498-0.808,1.201-1.173C27.008,39.015,27.833,39.112,27.771,38.436z"/>
<path fill="#FFFFFF" stroke="#010101" stroke-width="0.15" stroke-miterlimit="10" d="M24.144,63.221
	c0.19-0.318,0.602-0.423,0.921-0.229c0.316,0.188,0.423,0.603,0.233,0.92c0,0-0.52,3.618-1.138,4.644
	c-0.593,0.979-3.431,3.023-3.431,3.023c4.441,1.063,4.059,2.617,3.606,3.111c-0.518,0.567-2.304,0.104-4.004-1.453
	c-0.924-0.846-1.251-1.332-1.195-1.584c0.003-0.045,0.016-0.09,0.042-0.133c0,0,3.195-2.563,3.862-3.729
	C23.623,66.768,24.144,63.221,24.144,63.221z"/>
<path fill="#FFFFFF" stroke="#010101" stroke-width="0.15" stroke-miterlimit="10" d="M68.521,60.295
	c-0.414-0.342-4.074-3.365-4.81-4.611c-0.347-0.591-0.43-1.23-0.246-1.914c0.579-2.16,3.771-3.994,3.905-4.068l0.527,0.936
	l-0.264-0.468l0.264,0.468c-0.813,0.467-3.014,1.983-3.396,3.415c-0.104,0.396-0.063,0.757,0.138,1.095
	c0.537,0.914,3.477,3.432,4.563,4.32L68.521,60.295z"/>
<g>
	<path fill="#F4F4F4" stroke="#010101" stroke-width="0.15" stroke-miterlimit="10" d="M70.732,60.648l0.383,0.213
		c0.211,0.117,0.478,0.039,0.595-0.172c0.116-0.209,0.04-0.479-0.17-0.594l-0.383-0.216c-0.21-0.112-0.478-0.04-0.595,0.175
		C70.445,60.266,70.523,60.532,70.732,60.648"/>
	<path fill="#F4F4F4" stroke="#010101" stroke-width="0.15" stroke-miterlimit="10" d="M70.08,61.286l0.611,0.34
		c0.209,0.117,0.478,0.04,0.594-0.171c0.115-0.21,0.041-0.477-0.17-0.594l-0.611-0.34c-0.211-0.117-0.479-0.041-0.595,0.17
		C69.792,60.9,69.869,61.17,70.08,61.286z"/>
	<path fill="#F4F4F4" stroke="#010101" stroke-width="0.15" stroke-miterlimit="10" d="M69.893,59.977l0.73,0.25
		c0.225,0.086,0.479-0.021,0.564-0.25c0.086-0.225-0.024-0.479-0.248-0.563l-0.688-0.255c-0.444-0.183-1.188,0.278-1.135,0.838"/>
	<path fill="#F4F4F4" stroke="#010101" stroke-width="0.15" stroke-miterlimit="10" d="M68.895,59.357l-0.562,0.604
		c-0.157,0.169-0.146,0.438,0.022,0.594v0.002c0.17,0.151,0.436,0.146,0.593-0.023l0.561-0.606c0.155-0.17,0.146-0.435-0.024-0.593
		C69.314,59.18,69.049,59.188,68.895,59.357"/>
	<path fill="#F4F4F4" stroke="#010101" stroke-width="0.15" stroke-miterlimit="10" d="M68.729,60.59c0,0-0.076,1.1,1.313,1.514"/>
	<path fill="#F4F4F4" stroke="#010101" stroke-width="0.15" stroke-miterlimit="10" d="M69.884,62.178l0.384,0.213
		c0.209,0.116,0.479,0.041,0.594-0.17c0.115-0.211,0.039-0.478-0.17-0.595l-0.383-0.213c-0.209-0.116-0.479-0.04-0.594,0.17
		C69.598,61.794,69.674,62.063,69.884,62.178z"/>
</g>
<path fill="#FFFFFF" stroke="#010101" stroke-width="0.15" stroke-miterlimit="10" d="M60.995,63.839
	c-0.03-0.37,0.245-0.694,0.614-0.724c0.367-0.03,0.695,0.244,0.725,0.615c0,0,1.352,3.336,1.438,4.52
	c0.082,1.105-0.717,4.376-0.717,4.376c4.233-1.71,4.826-0.217,4.744,0.448c-0.094,0.762-1.818,1.417-4.105,1.136
	c-1.24-0.151-1.791-0.36-1.893-0.599c-0.021-0.037-0.039-0.08-0.042-0.131c0,0,0.753-4.039,0.655-5.254
	C62.316,67.021,60.995,63.839,60.995,63.839z"/>
<path fill="#FFFFFF" stroke="#010101" stroke-width="0.15" stroke-miterlimit="10" d="M68.789,37.911l1.75,0.931
	c2.527,1.344,3.486,4.484,2.143,7.012L61.697,66.503c-0.418,0.787-1.396,1.086-2.182,0.667l-8.059-4.284
	c-0.786-0.418-1.085-1.396-0.666-2.181l10.982-20.652C63.123,37.525,66.264,36.566,68.789,37.911z"/>
<path fill="#FFFFFF" stroke="#010101" stroke-width="0.15" stroke-linejoin="round" stroke-miterlimit="10" d="M69.277,37.672
	l1.187,0.63c2.042,1.086,4.263,4.188,2.36,7.283l0,0l-10.903-5.8C63.521,36.79,67.236,36.586,69.277,37.672z"/>
<path fill="#101010" stroke="#010101" stroke-width="0.15" stroke-miterlimit="10" d="M59.175,44.947l10.904,5.799l-4.962,9.327
	l-10.903-5.802L59.175,44.947z"/>
<path fill="#FFFFFF" stroke="#010101" stroke-width="0.15" stroke-miterlimit="10" d="M55.079,52.646l10.903,5.799l-0.865,1.628
	l-10.903-5.802L55.079,52.646z"/>
<path fill="#FFFFFF" stroke="#010101" stroke-width="0.15" stroke-miterlimit="10" d="M56.719,49.422l10.902,5.801l-0.864,1.625
	l-10.903-5.799L56.719,49.422z M57.49,47.823l10.902,5.799l0.862-1.625l-10.899-5.8L57.49,47.823z"/>
<path fill="#FFFFFF" stroke="#010101" stroke-width="0.15" stroke-miterlimit="10" d="M72.482,45.455l-10.406-5.536
	c-0.338-0.18-0.467-0.598-0.286-0.935l0.181-0.341c0.18-0.337,0.598-0.465,0.938-0.286l10.405,5.538
	c0.338,0.182,0.465,0.6,0.285,0.937l-0.182,0.341C73.238,45.506,72.82,45.635,72.482,45.455z"/>
<path fill="#101010" stroke="#010101" stroke-width="0.15" stroke-miterlimit="10" d="M71.396,48.193l1.1-2.068
	c0.08-0.198,0.148-0.4,0.207-0.604L62.041,39.85c-0.273,0.327-0.52,0.686-0.729,1.078l-0.763,1.427l7.534,4.008l1.409,0.336
	l0.604,0.807L71.396,48.193z"/>
<path fill="#FFFFFF" stroke="#010101" stroke-width="0.15" stroke-miterlimit="10" d="M55.499,61.93
	c0.371-0.013,0.681,0.278,0.692,0.649c0.012,0.368-0.28,0.681-0.65,0.692c0,0-3.33,1.512-4.523,1.539
	c-1.144,0.024-4.396-1.266-4.396-1.266c1.499,4.313-0.021,4.832-0.683,4.721c-0.758-0.134-1.326-1.891-0.935-4.156
	c0.216-1.235,0.448-1.772,0.69-1.86c0.037-0.021,0.082-0.035,0.135-0.036c0,0,3.883,1.311,5.227,1.245
	C52.229,63.398,55.499,61.93,55.499,61.93z"/>
<path fill="#FFFFFF" stroke="#010101" stroke-width="0.15" stroke-miterlimit="10" d="M61.921,39.786"/>
<path fill="#FFFFFF" stroke="#010101" stroke-width="0.15" stroke-miterlimit="10" d="M64.971,52.438
	c-2.539-3.918-4.809-5.256-7.816-3.533c-2.854,1.639-9.569,6.199-13.454-0.354c-3.286-5.546,3.86-14.638,12.94-9.227
	c6.416,3.822,9.854,13.348,9.854,13.348L64.971,52.438z"/>
<path fill="#FFFFFF" stroke="#010101" stroke-width="0.15" stroke-miterlimit="10" d="M64.137,54.947
	c-0.099-0.006-2.438-0.172-3.826-0.318c-2.802-0.296-0.311-5.843-0.25-6.027c0.09-0.281,0.396-0.437,0.676-0.346
	c0.281,0.092,0.438,0.395,0.351,0.678l0,0c-0.017,0.039-1.813,4.316-0.627,4.631c1.31,0.348,3.713,0.311,3.733,0.312
	C64.456,53.887,64.434,54.962,64.137,54.947z"/>
<g>
	<path fill="#F4F4F4" stroke="#010101" stroke-width="0.15" stroke-miterlimit="10" d="M64.383,53.543c0,0,0.006-1.251,1.362-1.268
		c0.694,0.147,0.319,0.629,0.319,0.629s0.776,0.063,0.764,0.518c-0.016,0.454,0.016,0.609-0.313,0.938
		c-0.33,0.33-1.031,0.597-1.472,0.5c-0.438-0.094-0.438-0.313-0.438-0.313L64.383,53.543z"/>
	<path fill="#F4F4F4" stroke="#010101" stroke-width="0.15" stroke-miterlimit="10" d="M65.195,52.885
		c0.234-0.35,1.541-0.166,1.541-0.166c0.229-0.021,0.438,0.164,0.438,0.402c-0.002,0.21-0.177,0.378-0.387,0.396L66.41,53.55"/>
	<path fill="#F4F4F4" stroke="#010101" stroke-width="0.15" stroke-miterlimit="10" d="M66.045,54.148l0.377-0.032
		c0.203-0.017,0.402,0.108,0.447,0.307c0.056,0.245-0.119,0.447-0.354,0.489c-0.574,0.104-1.539,0.422-2.328-0.154"/>
	<path fill="#F4F4F4" stroke="#010101" stroke-width="0.15" stroke-miterlimit="10" d="M65.953,53.434l0.814-0.065
		c0.219-0.021,0.414,0.146,0.435,0.36c0.021,0.221-0.146,0.414-0.363,0.438l-0.776,0.091"/>
	<path fill="#F4F4F4" stroke="#010101" stroke-width="0.15" stroke-miterlimit="10" d="M64.43,55.131L64.43,55.131
		c-0.181,0.044-0.363-0.068-0.406-0.25l-0.232-0.988c-0.044-0.182,0.064-0.363,0.25-0.406l0,0c0.184-0.043,0.361,0.068,0.404,0.25
		l0.236,0.988C64.725,54.906,64.611,55.088,64.43,55.131z"/>
</g>
<path fill="#F4F4F4" stroke="#010101" stroke-width="0.15" stroke-miterlimit="10" d="M70.541,47.045
	c-0.498-0.249-0.7-0.854-0.453-1.352c0.248-0.498,0.854-0.701,1.352-0.454c0.5,0.247,0.701,0.854,0.453,1.353
	S71.039,47.293,70.541,47.045z M69.07,45.171c0.248-0.498,0.045-1.104-0.452-1.353c-0.499-0.246-1.104-0.045-1.353,0.453
	c-0.25,0.498-0.045,1.104,0.449,1.353C68.218,45.872,68.822,45.67,69.07,45.171z"/>
<path fill="#010101" d="M68.251,45.212c-0.263-0.13-0.367-0.446-0.237-0.706c0.131-0.263,0.447-0.367,0.709-0.238
	c0.26,0.131,0.365,0.446,0.236,0.707C68.828,45.236,68.512,45.343,68.251,45.212z M68.907,44.777c0.04-0.079,0.007-0.18-0.074-0.219
	c-0.081-0.041-0.179-0.012-0.22,0.069c-0.039,0.081-0.008,0.183,0.074,0.224C68.768,44.891,68.867,44.859,68.907,44.777z"/>
<path fill="#EA6A6A" stroke="#010101" stroke-width="0.15" stroke-miterlimit="10" d="M68.938,47.125
	c0.35,0.172,0.414,0.741,0.148,1.271c-0.262,0.525-0.757,0.815-1.104,0.646c-0.346-0.172-0.412-0.741-0.148-1.271
	C68.1,47.242,68.593,46.952,68.938,47.125z"/>
<path fill="#010101" d="M71.073,46.633c-0.261-0.13-0.368-0.447-0.237-0.707c0.13-0.262,0.447-0.367,0.707-0.238
	c0.262,0.131,0.367,0.447,0.238,0.709C71.65,46.656,71.334,46.764,71.073,46.633z M71.729,46.199
	c0.041-0.081,0.008-0.18-0.069-0.221c-0.081-0.039-0.183-0.008-0.224,0.07c-0.041,0.081-0.008,0.184,0.073,0.223
	C71.59,46.313,71.689,46.279,71.729,46.199z"/>
<g>
	
		<path fill="#BCBCBC" stroke="#010101" stroke-width="0.15" stroke-linecap="round" stroke-linejoin="round" stroke-miterlimit="10" d="
		M27.826,30.333l0.511-0.522l-0.794-0.208l0.254-0.925l-0.324,0.075c0.07-0.19,0.13-0.449,0.072-0.696
		c-0.045-0.198-0.159-0.359-0.339-0.478c-0.225-0.149-0.467-0.194-0.717-0.137c-0.056,0.013-0.108,0.032-0.159,0.051l0,0
		c-0.564-0.291-1.011,0.211-1.011,0.211l0.029,0.013c-0.045,0.004-0.091,0.01-0.136,0.021c-0.251,0.058-0.447,0.206-0.585,0.438
		c-0.11,0.188-0.144,0.386-0.092,0.588c0.057,0.245,0.223,0.447,0.367,0.585l-0.458,0.105l0.635,0.72l-0.623,0.536l0.689,0.246
		l-0.28,0.811l0.756-0.189l0.16,0.857l0.577-0.593l0.555,0.66l0.209-0.837l0.778,0.28l-0.232-0.841l0.763-0.161L27.826,30.333z
		 M27.049,28.154c-0.029-0.104-0.079-0.198-0.15-0.279c-0.007-0.007-0.016-0.018-0.024-0.025c-0.035-0.037-0.076-0.072-0.122-0.104
		c0.031,0.001,0.062,0.004,0.093,0.01c0.217,0.039,0.359,0.185,0.397,0.408c0.005,0.025,0.007,0.051,0.009,0.079
		c0.001,0.027,0.002,0.055,0.001,0.083c-0.001,0.056-0.01,0.115-0.022,0.174c-0.007,0.031-0.014,0.06-0.021,0.092
		c-0.024,0.077-0.057,0.154-0.098,0.228l-0.006,0.012l-0.003,0.01l-0.122,0.028c0.006-0.014,0.009-0.024,0.015-0.038
		c0.016-0.047,0.031-0.095,0.042-0.142c0.012-0.044,0.02-0.089,0.027-0.13c0.001-0.009,0.003-0.019,0.003-0.028
		c0.001-0.019,0.004-0.038,0.006-0.055c0-0.01,0-0.019,0.001-0.029c0-0.019,0.002-0.037,0.002-0.057c-0.001-0.01,0-0.02,0-0.029
		c-0.002-0.028-0.003-0.058-0.006-0.086C27.068,28.231,27.06,28.19,27.049,28.154z M25.322,28.586l-0.001-0.003
		c0,0-0.003-0.012-0.004-0.015c-0.001-0.004-0.002-0.009-0.002-0.012l-0.001-0.01c-0.001-0.002-0.001-0.004-0.002-0.008
		c0-0.006-0.001-0.012,0-0.021c-0.001-0.005-0.002-0.01-0.001-0.015c0-0.006,0-0.016-0.001-0.021l0.001-0.015
		c0.001-0.004,0.001-0.009,0-0.014c0-0.003,0-0.015,0-0.015c0-0.005,0-0.008,0.002-0.015c0-0.002,0-0.005,0.002-0.007v-0.003
		c0-0.004,0.001-0.011,0.003-0.017c0-0.003,0-0.006,0.003-0.011c0-0.005,0.001-0.009,0.004-0.016
		c0.001-0.003,0.002-0.008,0.004-0.013c0.001-0.003,0.003-0.008,0.005-0.014c0.001-0.004,0.004-0.008,0.006-0.012
		c0-0.005,0.003-0.009,0.006-0.015c0.002-0.004,0.004-0.008,0.007-0.013c0.001-0.004,0.004-0.008,0.007-0.015
		c0.002-0.004,0.004-0.006,0.008-0.012c0.003-0.004,0.007-0.008,0.009-0.014v-0.001c0.002-0.004,0.005-0.007,0.007-0.009
		c0.003-0.005,0.007-0.009,0.014-0.014c0,0,0.005-0.009,0.009-0.012c0.004-0.003,0.008-0.008,0.015-0.014
		c0,0,0.008-0.009,0.009-0.011c0.005-0.003,0.012-0.009,0.018-0.014l0.008-0.01c0.01-0.007,0.019-0.015,0.03-0.023
		c0.031-0.023,0.067-0.038,0.107-0.047c0.032-0.008,0.069-0.013,0.111-0.012c0.026,0,0.053,0.001,0.08,0.003
		c0.017,0.039,0.032,0.076,0.044,0.113c0.013,0.038,0.024,0.076,0.032,0.108c0.029,0.132,0.087,0.516,0.126,0.778l-0.255,0.059
		c-0.003-0.007-0.008-0.013-0.011-0.019l-0.007-0.01l-0.011-0.009c-0.03-0.022-0.064-0.049-0.095-0.077
		c-0.007-0.005-0.014-0.01-0.02-0.016l-0.013-0.014c-0.007-0.005-0.014-0.011-0.018-0.017l-0.014-0.013
		c-0.005-0.005-0.012-0.013-0.017-0.019l-0.002-0.002c-0.025-0.025-0.046-0.051-0.067-0.078l-0.007-0.011
		c-0.004-0.005-0.008-0.01-0.012-0.015l-0.012-0.018c-0.003-0.005-0.006-0.012-0.012-0.02l-0.01-0.014
		c-0.002-0.005-0.006-0.012-0.01-0.018c-0.002-0.006-0.006-0.01-0.008-0.015c-0.003-0.006-0.006-0.011-0.009-0.017
		c-0.001-0.005-0.004-0.009-0.006-0.015c-0.003-0.005-0.005-0.012-0.009-0.018c-0.002-0.005-0.005-0.01-0.008-0.015
		c-0.001-0.004-0.004-0.011-0.007-0.018c-0.002-0.006-0.003-0.011-0.004-0.016c-0.003-0.005-0.004-0.01-0.007-0.016
		c-0.001-0.004-0.003-0.01-0.006-0.018c-0.001-0.005-0.002-0.009-0.004-0.013c-0.001-0.006-0.003-0.01-0.004-0.018l-0.001-0.002
		c-0.001-0.004-0.002-0.008-0.003-0.012C25.321,28.594,25.323,28.59,25.322,28.586z M25.267,29.253l-0.01-0.008
		c-0.256-0.184-0.421-0.441-0.429-0.674c-0.005-0.16,0.065-0.298,0.203-0.397c0.025-0.02,0.053-0.035,0.08-0.05
		c-0.096,0.172-0.122,0.354-0.077,0.54c0.057,0.239,0.223,0.438,0.361,0.569l-0.122,0.028L25.267,29.253z M26.385,29.005
		c-0.08-0.254-0.195-0.622-0.228-0.754c-0.007-0.033-0.014-0.071-0.019-0.111c-0.004-0.04-0.007-0.08-0.007-0.122
		c0.031-0.017,0.062-0.035,0.094-0.048c0.027-0.013,0.052-0.02,0.077-0.026c0.043-0.01,0.082-0.012,0.12-0.005
		c0.012,0.002,0.025,0.006,0.037,0.007l0.012,0.005c0.008,0.001,0.016,0.004,0.023,0.005c0.002,0.001,0.014,0.005,0.014,0.005
		c0.007,0.001,0.013,0.005,0.02,0.006c0.003,0,0.006,0.002,0.008,0.002l0.003,0.002c0.005,0.002,0.012,0.004,0.018,0.008
		c0.004,0.001,0.006,0.002,0.011,0.006c0.005,0.003,0.011,0.006,0.016,0.008c0.003,0.003,0.008,0.005,0.012,0.006
		c0.004,0.004,0.009,0.008,0.013,0.011c0.004,0.002,0.008,0.005,0.011,0.008c0.005,0.004,0.009,0.007,0.013,0.011
		c0.003,0.002,0.006,0.006,0.011,0.008c0.004,0.003,0.007,0.007,0.011,0.01c0.003,0.003,0.006,0.007,0.009,0.01
		c0.002,0.004,0.007,0.007,0.014,0.014c0,0.003,0.003,0.005,0.006,0.008c0.002,0.004,0.005,0.007,0.01,0.013
		c0,0,0.006,0.009,0.007,0.01c0.003,0.005,0.005,0.008,0.01,0.015c0,0,0.005,0.008,0.007,0.011c0.002,0.003,0.003,0.007,0.005,0.011
		l0.007,0.014c0.003,0.006,0.006,0.013,0.009,0.019c0.002,0.004,0.003,0.01,0.006,0.015c0.002,0.007,0.004,0.012,0.007,0.019
		c0.001,0.003,0.001,0.004,0.002,0.007l0.003,0.01c0.001,0.005,0.002,0.008,0.003,0.011c0.001,0.003,0.002,0.007,0.003,0.011
		l0.002,0.008c0.001,0.004,0.002,0.008,0.002,0.012c0.001,0.003,0.002,0.008,0.002,0.012l0.002,0.007
		c0.001,0.003,0.002,0.007,0.003,0.013c0.001,0.004,0.002,0.01,0.002,0.016c0.001,0.004,0.002,0.011,0.003,0.016
		c0.002,0.005,0.001,0.011,0.002,0.017c0.001,0.005,0.002,0.01,0.001,0.016c0.001,0.006,0.002,0.013,0.002,0.019
		c0,0.006,0,0.01,0,0.017s0,0.013,0,0.02c0,0.004,0.001,0.01,0,0.017c0.001,0.006,0,0.012,0,0.02
		c-0.001,0.004-0.001,0.008-0.002,0.016c0,0.007-0.001,0.015-0.002,0.021c0,0.004-0.002,0.021-0.002,0.021
		c0,0.006-0.001,0.013-0.003,0.02l-0.003,0.021c-0.001,0.005-0.002,0.011-0.003,0.019l-0.005,0.018c0,0.006-0.001,0.012-0.004,0.02
		l-0.002,0.001c-0.005,0.023-0.012,0.046-0.021,0.07v0.005c-0.003,0.007-0.005,0.016-0.008,0.024l-0.006,0.019
		c-0.002,0.006-0.006,0.014-0.008,0.021l-0.006,0.019c-0.004,0.007-0.007,0.016-0.011,0.025c-0.015,0.038-0.032,0.075-0.053,0.111
		l-0.005,0.012l-0.001,0.012c0,0.006-0.002,0.014-0.003,0.022L26.385,29.005L26.385,29.005z"/>
	
		<path fill="#BCBCBC" stroke="#010101" stroke-width="0.15" stroke-linecap="round" stroke-linejoin="round" stroke-miterlimit="10" d="
		M25.26,30.733c0.149,0.644,0.79,1.045,1.433,0.896c0.643-0.147,1.045-0.789,0.896-1.431c0-0.001-0.001-0.002-0.001-0.003
		c-0.147-0.644-0.789-1.044-1.432-0.896C25.512,29.447,25.112,30.088,25.26,30.733C25.26,30.732,25.26,30.733,25.26,30.733"/>
</g>
<path fill="#F4F4F4" d="M24.035,56.021c-0.109-0.021-0.219-0.045-0.331-0.063c-0.058-0.008-0.087-0.026-0.095-0.09
	c-0.073-0.534-0.151-1.063-0.224-1.603c-0.037-0.27-0.032-0.271,0.214-0.392c0.168-0.087,0.339-0.172,0.509-0.26
	c0.006-0.005,0.011-0.015,0.024-0.025c-0.068-0.044-0.132-0.083-0.197-0.131c-0.517-0.362-0.816-0.864-0.951-1.479
	c-0.09-0.408-0.059-0.813,0.032-1.215c0.012-0.054,0.024-0.088,0.081-0.095c0.089-0.007,0.098-0.063,0.094-0.138
	c-0.022-0.484-0.04-0.965-0.06-1.452c-0.002-0.054-0.027-0.117,0.073-0.12c0.066-0.003,0.036-0.066,0.034-0.104
	c-0.017-0.461-0.032-0.92-0.057-1.385c-0.006-0.104,0.025-0.134,0.124-0.125c0.118,0.01,0.235,0.01,0.369,0.012
	c-0.085-0.078-0.183-0.106-0.271-0.147c-0.058-0.03-0.082-0.063-0.073-0.126c0.084-0.598,0.167-1.195,0.248-1.796
	c0.008-0.06,0.043-0.074,0.092-0.08c0.699-0.132,1.396-0.263,2.094-0.394c0.685-0.129,1.371-0.256,2.054-0.394
	c0.077-0.017,0.091-0.01,0.086,0.073c-0.043,0.563-0.08,1.128-0.118,1.691c-0.005,0.09-0.02,0.18-0.017,0.27
	c0.003,0.087-0.019,0.129-0.117,0.135c-0.135,0.012-0.269,0.036-0.402,0.057c-0.041,0.008-0.084,0.014-0.096,0.065
	c-0.013,0.062,0.037,0.069,0.072,0.085c0.127,0.061,0.253,0.12,0.382,0.174c0.073,0.027,0.092,0.063,0.074,0.139
	c-0.058,0.246-0.105,0.498-0.16,0.742c-0.025,0.109-0.032,0.227-0.027,0.338c0.02,0.4,0.039,0.807,0.055,1.205
	c0.004,0.06,0.032,0.137-0.077,0.131c-0.045,0-0.035,0.043-0.034,0.07c0.01,0.252,0.019,0.506,0.032,0.76
	c0.004,0.053,0.025,0.103,0.04,0.146c0.256,0.715,0.273,1.419-0.068,2.115c-0.063,0.126,0.015,0.245,0.039,0.364
	c0.068,0.36,0.145,0.723,0.225,1.082c0.015,0.069-0.002,0.101-0.065,0.119c-0.133,0.057-0.264,0.113-0.393,0.178
	c-0.033,0.021-0.075,0.027-0.069,0.078c0.008,0.058,0.045,0.063,0.089,0.066c0.14,0.02,0.277,0.046,0.415,0.061
	c0.08,0.008,0.112,0.041,0.116,0.127c0.01,0.231,0.044,0.455,0.045,0.69c0,0.444,0.172,0.841,0.291,1.252
	c0.035,0.121,0.08,0.239,0.112,0.365c0.017,0.062,0.091,0.14-0.041,0.181c-0.033,0.018-0.011,0.062-0.004,0.075
	c0.053,0.166,0.113,0.33,0.152,0.498c0.019,0.08,0.091,0.058,0.125,0.108c0.322,0.457,0.572,0.959,0.617,1.525
	c0.078,0.979-0.409,1.854-1.294,2.262c-0.89,0.414-1.761,0.396-2.558-0.226c-0.594-0.459-0.884-1.095-0.937-1.836
	c-0.008-0.099-0.058-0.2,0.036-0.286c0.021-0.021-0.006-0.063-0.017-0.098c-0.141-0.457-0.282-0.913-0.424-1.377
	c-0.018-0.053-0.048-0.102,0.044-0.114c0.051-0.021,0.019-0.065,0.009-0.104c-0.133-0.428-0.268-0.873-0.408-1.301
	c-0.035-0.104-0.043-0.168,0.097-0.187c0.131-0.013,0.258-0.06,0.388-0.093C24.036,56.04,24.035,56.029,24.035,56.021z"/>
<path fill="#010101" d="M21.702,52.736c0.074,0.068,0.139-0.004,0.204-0.006c0.103,0.002,0.103-0.061,0.092-0.133
	c-0.004-0.033,0.005-0.061,0.044-0.063c0.044-0.002,0.05,0.028,0.048,0.056c-0.012,0.113,0.051,0.122,0.141,0.113
	c0.165-0.02,0.33-0.02,0.493-0.04c0.124-0.021,0.21,0.009,0.267,0.123c0.015,0.028,0.036,0.057,0.061,0.091
	c-0.052,0.032-0.107,0.023-0.16,0.029c-0.22,0.017-0.439,0.029-0.658,0.049c-0.047,0.006-0.112-0.018-0.116,0.072
	c0.001,0.051-0.053,0.033-0.063,0.008c-0.033-0.073-0.091-0.057-0.15-0.063c-0.178-0.01-0.285-0.137-0.271-0.312
	c0.005-0.048,0.021-0.089,0.059-0.122c0.036-0.025,0.075-0.033,0.119-0.007c0.036,0.017,0.055,0.051,0.05,0.094
	c-0.002,0.045-0.036,0.063-0.07,0.078C21.761,52.714,21.728,52.689,21.702,52.736z"/>
<path fill="#010101" d="M22.257,53.166c0.131-0.006,0.262-0.02,0.392-0.027c0.057-0.003,0.106-0.021,0.067-0.097
	c-0.012-0.019-0.026-0.048,0.005-0.063c0.026-0.012,0.048,0.004,0.066,0.025c0.061,0.072,0.078,0.159,0.053,0.249
	c-0.026,0.088-0.094,0.127-0.18,0.136c-0.235,0.021-0.472,0.033-0.708,0.057c-0.05,0.008-0.125-0.021-0.109,0.088
	c0.005,0.042-0.048,0.027-0.066-0.004c-0.042-0.07-0.091-0.15-0.053-0.236c0.033-0.081,0.112-0.089,0.191-0.1
	C22.031,53.186,22.143,53.177,22.257,53.166C22.257,53.168,22.257,53.168,22.257,53.166z"/>
<path fill="#010101" d="M22.531,52.375c-0.142,0.014-0.284,0.027-0.428,0.04c-0.045-0.004-0.082-0.022-0.106-0.06
	c-0.064-0.098-0.025-0.176,0.088-0.188c0.135-0.01,0.269-0.021,0.403-0.025c0.063-0.01,0.133-0.022,0.16,0.059
	c0.021,0.068-0.031,0.111-0.079,0.145C22.558,52.354,22.544,52.364,22.531,52.375z"/>
<path fill="#010101" d="M22.531,52.375c-0.001-0.042,0.025-0.068,0.055-0.094c0.026-0.021,0.061-0.034,0.038-0.079
	c-0.024-0.042-0.059-0.054-0.105-0.05c-0.148,0.011-0.294,0.021-0.444,0.031c-0.033,0.004-0.075-0.004-0.083,0.039
	c-0.008,0.043-0.014,0.086,0.03,0.114c0.031,0.019,0.064,0.042,0.081,0.075c-0.015,0.021-0.025,0.054-0.043,0.076
	c-0.037,0.045-0.066,0.031-0.074-0.02c-0.012-0.084-0.015-0.162-0.025-0.24c-0.008-0.063,0.037-0.063,0.079-0.066
	c0.171-0.014,0.339-0.021,0.506-0.038c0.059-0.005,0.148,0.006,0.088-0.104c-0.01-0.02-0.006-0.045,0.018-0.053
	c0.03-0.015,0.049,0.012,0.064,0.028c0.058,0.075,0.072,0.163,0.038,0.25C22.716,52.357,22.632,52.384,22.531,52.375z"/>
<path fill="#010101" d="M21.605,52.346c0.002-0.091,0.049-0.146,0.135-0.152c0.083-0.004,0.146,0.048,0.149,0.137
	c0.004,0.085-0.048,0.143-0.128,0.146C21.675,52.482,21.619,52.438,21.605,52.346z"/>
<path fill="#010101" d="M28.753,59.164c0.128,0.564,0.035,1.1-0.301,1.563c-0.534,0.727-1.281,1.004-2.153,0.86
	c-0.862-0.142-1.354-0.726-1.607-1.535c-0.044-0.141-0.053-0.278-0.071-0.428c-0.009-0.078,0.01-0.124,0.084-0.155
	c0.125-0.066,0.245-0.132,0.359-0.219c-0.096,0.021-0.195,0.039-0.289,0.072c-0.063,0.016-0.092-0.004-0.111-0.063
	c-0.123-0.397-0.249-0.801-0.375-1.198c-0.027-0.078,0-0.104,0.074-0.115c0.314-0.071,0.626-0.146,0.941-0.217
	c0.06-0.021,0.112-0.021,0.089-0.115c-0.02-0.079-0.057-0.09-0.131-0.066c-0.269,0.073-0.542,0.127-0.815,0.191
	c-0.086,0.027-0.134,0.014-0.163-0.088c-0.112-0.385-0.23-0.771-0.355-1.15c-0.029-0.092-0.008-0.105,0.08-0.129
	c0.487-0.11,0.973-0.225,1.459-0.342c0.028-0.01,0.06-0.01,0.083-0.041c-0.478-0.09-0.949-0.174-1.423-0.256
	c-0.238-0.043-0.235-0.041-0.267-0.279c-0.053-0.389-0.106-0.77-0.165-1.155c-0.014-0.087,0.011-0.13,0.088-0.166
	c0.375-0.179,0.749-0.372,1.119-0.563c-0.003-0.051-0.038-0.034-0.059-0.043c-0.881-0.201-1.485-0.879-1.59-1.775
	c-0.028-0.234-0.024-0.473,0.02-0.706c0.015-0.071,0.042-0.112,0.124-0.129c0.217-0.044,0.432-0.104,0.648-0.183
	c-0.141-0.002-0.283-0.015-0.427-0.012c-0.085-0.003-0.116-0.022-0.12-0.113c-0.011-0.414-0.029-0.83-0.047-1.244
	c-0.003-0.065,0.016-0.094,0.083-0.078c0.09,0.012,0.187-0.014,0.276,0.017c0.023,0.104-0.033,0.197-0.058,0.296
	c-0.014,0.235,0.041,0.473,0.027,0.705c-0.004,0.079,0.069,0.074,0.122,0.078c0.286,0.021,0.573,0.027,0.858,0.036
	c0.415,0.009,0.828,0.024,1.239,0.036c0.036-0.002,0.067,0.009,0.1,0.017c0.196,0.054,0.196,0.054,0.133,0.261
	c-0.014,0.035-0.056,0.063-0.031,0.106c0.119,0.354,0.141,0.701-0.037,1.044c-0.065,0.122-0.138,0.241-0.27,0.311
	c-0.303,0.088-0.603,0.139-0.903-0.019c-0.327-0.166-0.496-0.446-0.556-0.802c-0.019-0.114-0.021-0.232-0.027-0.354
	c-0.002-0.058-0.015-0.105-0.08-0.104c-0.23,0.018-0.453,0.05-0.64,0.193c-0.175,0.064-0.177,0.209-0.169,0.362
	c0.021,0.406,0.123,0.785,0.375,1.112c0.291,0.376,0.683,0.57,1.146,0.633c0.054,0.014,0.109,0.014,0.162,0.026
	c0.097,0.028,0.194-0.003,0.29,0.002c0.043,0.001,0.098-0.013,0.116,0.034c0.019,0.059-0.028,0.082-0.067,0.108
	c-0.162,0.097-0.333,0.179-0.504,0.263c-0.289,0.134-0.56,0.3-0.845,0.437c-0.086,0.042-0.125,0.119-0.141,0.212
	c-0.032,0.063-0.051,0.122-0.04,0.191c0.042,0.236,0.083,0.479,0.102,0.728c0.011,0.152,0.043,0.185,0.201,0.211
	c0.704,0.124,1.407,0.257,2.111,0.38c0.057,0.012,0.119,0.01,0.156,0.073c0.008,0.089-0.068,0.078-0.12,0.093
	c-0.568,0.144-1.139,0.276-1.711,0.396c-0.147,0.031-0.283,0.083-0.379,0.201c-0.076,0.039-0.08,0.104-0.058,0.175
	c0.052,0.166,0.108,0.328,0.157,0.493c0.027,0.1,0.075,0.131,0.167,0.1c0.244-0.055,0.486-0.109,0.73-0.163
	c0.168-0.032,0.208-0.018,0.254,0.146c0.039,0.144,0.087,0.279,0.082,0.435c-0.03,0.063-0.091,0.084-0.153,0.101
	c-0.136,0.029-0.267,0.078-0.405,0.095c-0.165,0.022-0.301,0.094-0.413,0.218c-0.072,0.029-0.071,0.082-0.051,0.152
	c0.05,0.168,0.095,0.334,0.155,0.5c0.046,0.13,0.062,0.139,0.196,0.104c0.707-0.156,1.407-0.334,2.112-0.488
	c0.067-0.021,0.133-0.033,0.202-0.033c0.164,0.021,0.181,0.094,0.068,0.264c-0.002,0.061,0.037,0.098,0.061,0.141
	c0.172,0.313,0.249,0.639,0.138,0.994c-0.022,0.068-0.044,0.137-0.099,0.188c-0.185,0.145-0.377,0.268-0.613,0.305
	c-0.099,0.018-0.199,0.021-0.26-0.086c0.046-0.044,0.11-0.042,0.167-0.055c0.396-0.104,0.581-0.385,0.524-0.789
	c-0.021-0.145-0.077-0.271-0.156-0.396c-0.049-0.072-0.114-0.104-0.204-0.085c-0.296,0.074-0.593,0.138-0.89,0.205
	c-0.082,0.024-0.106,0.073-0.109,0.147c-0.003,0.084,0.026,0.17-0.003,0.252c-0.061,0.041-0.065-0.014-0.076-0.053
	c-0.02-0.061-0.049-0.125-0.088-0.181c-0.054-0.076-0.124-0.097-0.207-0.051c-0.133,0.09-0.274,0.167-0.417,0.239
	c-0.096,0.043-0.134,0.146-0.198,0.224c-0.046,0.041-0.052,0.097-0.042,0.153c0.137,0.812,0.824,1.545,1.764,1.498
	c0.308-0.017,0.587-0.105,0.866-0.215c0.49-0.143,0.811-0.466,1.009-0.916c0.117-0.274,0.195-0.552,0.156-0.854
	C28.72,59.253,28.713,59.202,28.753,59.164z"/>
<path fill="#010101" d="M23.72,49.557c0.056-0.076,0.041-0.179,0.088-0.26c0.247,0.005,0.494,0.012,0.74,0.02
	c0.083,0.004,0.071-0.047,0.08-0.096c0.011-0.063-0.015-0.092-0.08-0.091c-0.283-0.008-0.568-0.024-0.85-0.024
	c-0.101-0.002-0.146-0.02-0.149-0.138c-0.007-0.401-0.026-0.803-0.047-1.2c-0.006-0.101,0.036-0.104,0.11-0.097
	c0.423,0.021,0.845,0.027,1.267,0.044c0.058,0.003,0.113,0,0.175-0.025c-0.167-0.078-0.337-0.168-0.505-0.25
	c-0.26-0.127-0.515-0.256-0.777-0.377c-0.09-0.041-0.122-0.082-0.106-0.188c0.068-0.426,0.125-0.854,0.18-1.281
	c0.009-0.072,0.034-0.104,0.111-0.117c1.172-0.223,2.343-0.442,3.516-0.67c0.082-0.016,0.11-0.006,0.103,0.09
	c-0.035,0.442-0.065,0.886-0.092,1.33c-0.003,0.074-0.03,0.106-0.109,0.113c-0.13,0.012-0.262,0.04-0.392,0.051
	c-0.079,0.008-0.099,0.043-0.105,0.11c-0.011,0.113-0.024,0.229-0.046,0.338c-0.019,0.093,0.012,0.144,0.097,0.173
	c0.115,0.041,0.221,0.104,0.336,0.147c0.065,0.026,0.093,0.06,0.072,0.135c-0.15,0.494-0.165,0.998-0.116,1.506
	c0.011,0.11,0.002,0.224,0.014,0.331c0.006,0.081-0.018,0.1-0.097,0.096c-0.359-0.017-0.719-0.021-1.077-0.039
	c-0.088-0.004-0.101,0.029-0.108,0.106c-0.006,0.097,0.058,0.075,0.108,0.076c0.315,0.011,0.632,0.024,0.949,0.026
	c0.095,0.004,0.121,0.035,0.123,0.127c0.007,0.303,0.032,0.604,0.031,0.898c-0.001,0.111,0.094,0.178,0.083,0.283
	c-0.136-0.004-0.263-0.057-0.391-0.1c-0.041-0.012-0.045-0.057-0.044-0.097c-0.005-0.06-0.015-0.112,0.019-0.163
	c0.104-0.023,0.137-0.084,0.134-0.191c-0.002-0.154-0.037-0.309-0.032-0.467c0.003-0.098-0.069-0.131-0.154-0.133
	c-0.239-0.012-0.479-0.023-0.719-0.027c-0.24-0.004-0.322-0.092-0.308-0.327c0.004-0.066,0.005-0.136,0.004-0.201
	c-0.003-0.063,0.012-0.118,0.076-0.146c0.276-0.021,0.553,0.006,0.83,0.013c0.088,0.003,0.18,0.011,0.221-0.099
	c0.112-0.063,0.145-0.151,0.139-0.281c-0.004-0.125,0.005-0.246-0.012-0.367c-0.032-0.243-0.008-0.479,0.063-0.715
	c0.037-0.131,0.016-0.176-0.104-0.236c-0.033-0.016-0.068-0.027-0.101-0.044c-0.25-0.126-0.282-0.181-0.232-0.447
	c0.035-0.182,0.022-0.376,0.1-0.549c0.051-0.067,0.128-0.067,0.202-0.069c0.106,0,0.193-0.031,0.249-0.127
	c0.102-0.051,0.133-0.141,0.138-0.24c0.008-0.148,0.022-0.301,0.027-0.455c0.006-0.172-0.033-0.199-0.201-0.17
	c-0.453,0.076-0.9,0.181-1.354,0.257c-0.453,0.077-0.901,0.183-1.353,0.256c-0.079,0.013-0.144,0.047-0.19,0.11
	c-0.129,0.06-0.155,0.168-0.171,0.295c-0.029,0.225-0.056,0.443-0.095,0.666c-0.021,0.108,0.015,0.173,0.116,0.221
	c0.582,0.283,1.162,0.57,1.742,0.854c0.042,0.021,0.086,0.041,0.121,0.067c0.022,0.021,0.043,0.045,0.006,0.074
	c-0.13,0.045-0.268,0.044-0.4,0.038c-0.456-0.016-0.912-0.034-1.367-0.049c-0.122-0.004-0.212,0.031-0.294,0.115
	c-0.089,0.021-0.111,0.084-0.103,0.172c0.016,0.155,0.024,0.314,0.018,0.479c-0.007,0.127,0.018,0.146,0.145,0.154
	c0.223,0.014,0.446,0.014,0.669,0.021c0.065,0.004,0.127,0.004,0.188,0.025c0.048,0.012,0.092,0.041,0.09,0.09
	c0.002,0.175,0.023,0.354-0.036,0.523c-0.036,0.049-0.086,0.041-0.138,0.049c-0.198,0.019-0.396-0.006-0.594-0.019
	c-0.115-0.007-0.208,0.013-0.278,0.106C23.818,49.592,23.766,49.604,23.72,49.557z"/>
<path fill="#010101" d="M26.849,50.52c-0.02,0.072,0.039,0.069,0.083,0.078c0.109,0.019,0.217,0.049,0.317,0.104
	c0.041,0.069,0.069,0.147,0.071,0.231c0.107,0.594,0.019,1.137-0.354,1.623c-0.047,0.059-0.056,0.103,0.025,0.133
	c0.071,0.031,0.097,0.104,0.139,0.158c0.066,0.191,0.086,0.396,0.135,0.592c0.034,0.145,0.058,0.291,0.094,0.436
	c0.019,0.076,0.005,0.12-0.076,0.152c-0.119,0.043-0.231,0.104-0.347,0.152c-0.068,0.025-0.093,0.063-0.08,0.131
	c0.025,0.129,0.042,0.258,0.056,0.395c0.004,0.063,0.049,0.078,0.101,0.087c0.129,0.01,0.26,0.045,0.389,0.056
	c0.089,0.008,0.114,0.051,0.113,0.127c-0.002,0.645,0.139,1.252,0.363,1.846c0.033,0.094,0.013,0.121-0.083,0.144
	c-0.34,0.069-0.677,0.151-1.016,0.231c-0.057,0.014-0.125,0.01-0.1,0.113c0.026,0.102,0.079,0.082,0.148,0.063
	c0.304-0.072,0.61-0.139,0.913-0.213c0.097-0.032,0.123,0.007,0.147,0.091c0.082,0.278,0.171,0.554,0.257,0.84
	c0.019,0.062,0.033,0.113,0.116,0.091c0.039-0.021,0.063,0.01,0.083,0.041c0.197,0.297,0.35,0.605,0.409,0.959
	c0.058,0.377-0.022,0.731-0.18,1.067c-0.148,0.325-0.391,0.563-0.687,0.746c-0.094,0.063-0.212,0.077-0.317,0.114
	c-0.003-0.063,0.055-0.074,0.094-0.104c0.201-0.12,0.368-0.278,0.521-0.457c0.483-0.548,0.527-1.16,0.269-1.821
	c-0.027-0.061-0.055-0.138-0.091-0.207c-0.051-0.098-0.128-0.137-0.232-0.113c-0.13,0.033-0.265,0.049-0.397,0.078
	c-0.079,0.02-0.117,0.072-0.171,0.117c-0.072,0.03-0.141,0.074-0.224,0.034c0.008-0.021,0.025-0.026,0.045-0.034
	c0.066-0.021,0.073-0.07,0.065-0.127c-0.01-0.063-0.071-0.043-0.108-0.043c0.006-0.063,0.053-0.065,0.093-0.074
	c0.099-0.024,0.193-0.06,0.293-0.078c0.053-0.01,0.092-0.028,0.116-0.082c0.109-0.098,0.119-0.211,0.065-0.34
	c-0.042-0.1-0.078-0.217-0.112-0.32c-0.031-0.102-0.091-0.137-0.192-0.113c-0.234,0.037-0.463,0.1-0.691,0.154
	c-0.076,0.021-0.148,0.029-0.225,0.013c-0.063-0.016-0.113-0.049-0.129-0.104c-0.031-0.139-0.08-0.267-0.106-0.406
	c-0.008-0.045-0.005-0.092,0.028-0.129c0.038-0.045,0.096-0.051,0.148-0.063c0.241-0.063,0.485-0.11,0.727-0.169
	c0.057-0.014,0.105-0.027,0.125-0.091c0.105-0.075,0.112-0.175,0.068-0.288c-0.052-0.143-0.088-0.298-0.134-0.434
	c-0.05-0.16-0.085-0.318-0.064-0.484c0.002-0.02,0.001-0.021,0.003-0.037c0.002-0.32-0.03-0.355-0.346-0.419
	c-0.205-0.034-0.255-0.086-0.293-0.293c-0.042-0.226-0.073-0.448-0.062-0.683c0.029-0.076,0.105-0.092,0.17-0.121
	c0.07-0.028,0.144-0.055,0.177-0.133c0.066-0.067,0.109-0.135,0.089-0.237c-0.031-0.165-0.073-0.327-0.102-0.492
	c-0.02-0.106-0.062-0.122-0.154-0.077c-0.554,0.288-1.114,0.568-1.672,0.853c-0.322,0.17-0.646,0.319-0.971,0.489
	c-0.049,0.025-0.1,0.07-0.164,0.032c-0.022-0.108,0.05-0.194,0.129-0.229c0.421-0.222,0.848-0.429,1.273-0.644
	c0.06-0.029,0.121-0.063,0.173-0.128c-0.141-0.034-0.272,0.041-0.401-0.003c0.067-0.068,0.16-0.053,0.241-0.059
	c0.455-0.018,0.832-0.205,1.154-0.518c0.074-0.074,0.117-0.177,0.206-0.238c0.14-0.092,0.208-0.231,0.265-0.377
	c0.154-0.381,0.17-0.773,0.086-1.17c-0.025-0.117-0.087-0.178-0.21-0.188c-0.108-0.007-0.218-0.013-0.328-0.028
	c-0.111-0.02-0.198,0.008-0.263,0.103c-0.063,0.034-0.126,0.014-0.19,0.007c-0.039-0.068,0.026-0.045,0.05-0.057
	c0.049-0.086,0.064-0.209,0.205-0.203c-0.02-0.02-0.034-0.045,0.002-0.063C26.559,50.464,26.706,50.456,26.849,50.52z"/>
<path fill="#010101" d="M27.128,52.848c-0.086-0.048-0.132-0.146-0.243-0.17c-0.049-0.008-0.021-0.063,0.004-0.092
	c0.202-0.214,0.3-0.479,0.385-0.755c0.059-0.185,0.035-0.374,0.056-0.562c0.014-0.107-0.009-0.226-0.014-0.336
	c0.137,0.51,0.11,1.006-0.117,1.482C27.134,52.559,27.085,52.691,27.128,52.848z"/>
<path fill="#010101" d="M21.824,54.904c0.008,0.146,0.063,0.281,0.02,0.435c-0.018,0.062,0.051,0.091,0.083,0.134
	c0.012,0.021,0.029,0.018,0.042-0.004c0.03-0.044,0.026-0.089,0.006-0.133c-0.013-0.035-0.02-0.07-0.03-0.104
	c0.075,0.099,0.169,0.095,0.271,0.086c0.181-0.021,0.362-0.029,0.543-0.045c0.055-0.002,0.11-0.021,0.146,0.053
	c0.013,0.02,0.036,0.043,0.063,0.021c0.026-0.024,0.014-0.049,0.013-0.066c-0.011-0.15-0.019-0.314-0.036-0.473
	c-0.035-0.313-0.293-0.504-0.633-0.479C21.996,54.357,21.805,54.59,21.824,54.904z M22.629,54.619
	c0.075,0.016,0.143,0.049,0.187,0.117c0.117,0.182,0.077,0.262-0.126,0.273c-0.096,0.01-0.194,0.02-0.292,0.023
	c-0.131,0.009-0.261,0.021-0.392,0.027c-0.064,0.019-0.088-0.012-0.093-0.078c-0.013-0.146,0.06-0.275,0.216-0.332
	C22.292,54.598,22.46,54.587,22.629,54.619z"/>
<path fill="#010101" d="M21.977,55.723c-0.135,0.235-0.089,0.531,0.113,0.721c0.19,0.177,0.491,0.201,0.702,0.059
	c0.071-0.049,0.143-0.17,0.195-0.156c0.074,0.018,0.129,0.121,0.212,0.213c-0.081-0.269-0.272-0.414-0.431-0.58
	c-0.021-0.02-0.063-0.017-0.103-0.02c-0.064-0.018-0.14,0.002-0.183-0.061c-0.083-0.121-0.133-0.123-0.213-0.004
	c-0.009-0.146-0.009-0.146,0.141-0.16c0.069-0.004,0.114-0.008,0.036-0.069c-0.021,0.019-0.044,0.024-0.068,0.026
	c-0.071,0.021-0.172-0.024-0.186,0.101c-0.009,0.073-0.077,0.146-0.036,0.231c0.024,0.047-0.014,0.063-0.041,0.072
	c-0.04,0.03-0.05,0.066-0.015,0.104c0.018,0.022,0.059,0.06,0.07,0.022c0.013-0.027,0.096-0.043,0.034-0.103
	c-0.015-0.017-0.038-0.028-0.009-0.052c0.01-0.008,0.023-0.012,0.035-0.008c0.025,0.013,0.055,0.027,0.046,0.057
	c-0.042,0.127,0.061,0.13,0.13,0.146c0.097,0.012,0.198,0.02,0.313,0.025c-0.032-0.063-0.077-0.061-0.12-0.059
	c-0.074-0.004-0.142-0.021-0.208-0.049c-0.052-0.021-0.047-0.063-0.03-0.104c0.025-0.058,0.057-0.015,0.082,0.007
	c0.118,0.063,0.246,0.104,0.377,0.146c0.103,0.025,0.092,0.064,0.031,0.14c-0.15,0.157-0.385,0.211-0.583,0.112
	c-0.202-0.092-0.316-0.307-0.284-0.528c0.032-0.229,0.189-0.373,0.428-0.42l0,0c0.318-0.039,0.575,0.188,0.57,0.51
	c-0.001,0.022-0.009,0.063-0.006,0.086c0.004,0.021,0.023,0.041,0.041,0.05c0.028,0.012,0.027-0.025,0.032-0.046
	c0.005-0.021,0.009-0.063,0.011-0.087c0.011-0.254-0.166-0.498-0.416-0.574C22.387,55.379,22.105,55.49,21.977,55.723z
	 M22.571,56.016c0.119-0.002,0.185,0.053,0.252,0.104C22.738,56.119,22.667,56.077,22.571,56.016z"/>
<path fill="#010101" d="M22.703,53.561c0.068,0.062,0.098,0.139,0.09,0.229c-0.011,0.104-0.135,0.21-0.257,0.195
	c-0.117-0.006-0.05-0.109-0.071-0.168c-0.01-0.021-0.005-0.053-0.008-0.073c-0.005-0.063-0.011-0.136-0.015-0.204
	c-0.003-0.043-0.022-0.063-0.066-0.055c-0.13,0.021-0.255,0.127-0.29,0.258c-0.056,0.195,0.039,0.4,0.224,0.486
	c0.195,0.074,0.42-0.013,0.527-0.188c0.099-0.172,0.06-0.438-0.083-0.557c-0.022-0.018-0.041-0.047-0.073-0.017
	C22.654,53.521,22.679,53.539,22.703,53.561z M22.328,54.001c-0.085-0.003-0.171-0.021-0.176-0.117
	c-0.005-0.099,0.079-0.12,0.156-0.136c0.118-0.021,0.058,0.081,0.084,0.128C22.374,53.918,22.441,54.003,22.328,54.001z"/>
<path fill="#F04848" d="M27.014,53.725c0.009,0.062-0.018,0.09-0.074,0.109c-0.088,0.039-0.175,0.081-0.262,0.123
	c-0.14,0.095-0.128,0.223-0.098,0.366c0.032,0.163,0.063,0.333,0.073,0.501c0.006,0.107,0.054,0.154,0.16,0.17
	c0.092,0.013,0.186,0.023,0.277,0.042c0.089,0.014,0.149,0.063,0.15,0.162c0.008,0.452,0.098,0.894,0.256,1.323
	c0.011,0.028,0.009,0.063,0.001,0.104c0.021,0.078-0.018,0.102-0.086,0.111c-0.307,0.072-0.617,0.129-0.917,0.218
	c-0.149,0.098-0.149,0.098-0.111,0.272c0.026,0.109,0.05,0.227,0.077,0.334c0.02,0.09,0.064,0.116,0.156,0.096
	c0.283-0.069,0.568-0.133,0.852-0.203c0.156-0.032,0.189-0.021,0.236,0.129c0.052,0.167,0.107,0.334,0.155,0.501
	c0.012,0.043,0.021,0.084,0.012,0.125c0.008,0.065-0.022,0.101-0.088,0.114c-0.147,0.029-0.292,0.074-0.44,0.104
	c-0.381,0.065-0.751,0.166-1.126,0.252c-0.412,0.094-0.825,0.188-1.236,0.283c-0.114,0.029-0.146-0.01-0.172-0.105
	c-0.051-0.186-0.107-0.36-0.171-0.549c-0.037-0.099-0.031-0.166,0.094-0.183c0.251-0.12,0.527-0.144,0.79-0.215
	c0.087-0.025,0.151-0.056,0.162-0.155c-0.035-0.156-0.072-0.316-0.104-0.479c-0.017-0.088-0.059-0.102-0.143-0.08
	c-0.283,0.07-0.568,0.131-0.851,0.201c-0.077,0.021-0.105-0.002-0.125-0.068c-0.06-0.205-0.121-0.405-0.192-0.604
	c-0.036-0.104-0.006-0.147,0.093-0.162c0.124-0.074,0.265-0.086,0.398-0.123c0.675-0.16,1.352-0.317,2.037-0.479
	c-0.077-0.021-0.16-0.015-0.219-0.071c-0.528-0.101-1.053-0.193-1.58-0.285c-0.253-0.047-0.507-0.097-0.762-0.133
	c-0.094-0.014-0.129-0.057-0.138-0.143c-0.04-0.295-0.079-0.589-0.125-0.883c-0.009-0.063,0.011-0.107,0.063-0.148
	c0.356-0.158,0.696-0.346,1.043-0.521c0.548-0.271,1.092-0.553,1.64-0.824c0.037-0.021,0.079-0.031,0.118-0.047
	c0.035,0.019,0.051,0.057,0.061,0.097c0.049,0.207,0.096,0.419,0.133,0.628C27.027,53.648,27.017,53.688,27.014,53.725z"/>
<path fill="#F04848" d="M26.849,50.52c-0.152-0.004-0.305-0.006-0.458-0.008c-0.094,0.045-0.188-0.027-0.281-0.01
	c-0.354-0.012-0.709-0.029-1.062-0.043c-0.406-0.016-0.81-0.027-1.216-0.038c-0.051-0.006-0.098-0.005-0.098-0.071
	c0.008-0.27-0.043-0.529-0.017-0.795c0.05-0.002,0.103-0.003,0.151-0.008c0.159-0.054,0.317-0.008,0.478-0.015
	c0.102-0.003,0.204-0.003,0.302,0.008c0.104,0.013,0.173-0.022,0.207-0.122c0.008-0.172,0.019-0.345,0.025-0.518
	c0.003-0.064-0.045-0.067-0.094-0.068c-0.295-0.009-0.59-0.025-0.884-0.027c-0.088-0.004-0.118-0.031-0.12-0.117
	c-0.004-0.222-0.012-0.438-0.026-0.652c-0.01-0.135,0.089-0.078,0.145-0.1c0.087-0.052,0.183-0.022,0.272-0.022
	c0.664,0.021,1.33,0.046,1.995,0.063c0.008,0.002,0.018-0.002,0.021-0.01c-0.064-0.051-0.162-0.055-0.206-0.139
	c-0.447-0.223-0.897-0.446-1.346-0.669c-0.205-0.103-0.408-0.204-0.615-0.302c-0.078-0.037-0.101-0.08-0.089-0.166
	c0.043-0.273,0.085-0.549,0.113-0.827c0.013-0.11,0.05-0.179,0.164-0.196c0.15-0.089,0.324-0.091,0.488-0.12
	c0.777-0.151,1.56-0.3,2.337-0.446c0.204-0.039,0.234-0.012,0.225,0.191c-0.01,0.169-0.023,0.337-0.038,0.506
	c-0.004,0.045-0.005,0.094-0.039,0.133c-0.002,0.103-0.059,0.131-0.154,0.137c-0.097,0.007-0.196,0.012-0.288,0.048
	c-0.097,0.05-0.125,0.133-0.138,0.233c-0.024,0.197-0.044,0.396-0.078,0.592c-0.017,0.104,0.017,0.162,0.111,0.199
	c0.101,0.037,0.195,0.074,0.29,0.129c0.072,0.037,0.097,0.096,0.08,0.17c-0.008,0.033-0.015,0.064-0.023,0.102
	c-0.071,0.271-0.102,0.55-0.061,0.833c0.02,0.131,0.01,0.261-0.019,0.392c0.015,0.125-0.048,0.146-0.157,0.137
	c-0.308-0.014-0.614-0.019-0.922-0.024c-0.107,0.022-0.152,0.093-0.15,0.201c0,0.11-0.003,0.229-0.008,0.339
	c-0.004,0.145,0.009,0.16,0.155,0.168c0.257,0.014,0.514,0.02,0.773,0.025c0.215,0.004,0.247,0.027,0.264,0.244
	c0.008,0.104,0.018,0.211,0.024,0.313c0.002,0.063,0.009,0.126-0.033,0.183C26.852,50.409,26.851,50.463,26.849,50.52z"/>
<path fill="#F04848" d="M28.193,60.564c-0.173,0.218-0.39,0.385-0.624,0.526c-0.241,0.104-0.487,0.194-0.753,0.216
	c-0.77,0.063-1.416-0.303-1.75-1c-0.083-0.175-0.146-0.346-0.178-0.539c-0.015-0.082,0.008-0.127,0.074-0.162
	c0.16-0.147,0.364-0.222,0.549-0.324c0.04-0.021,0.082-0.028,0.11,0.019c0.049,0.104,0.054,0.228,0.093,0.343
	c0.12,0.354,0.322,0.641,0.707,0.728c0.254,0.058,0.504,0.017,0.729-0.124c0.136-0.08,0.233-0.2,0.338-0.313
	c0.171-0.285,0.159-0.598,0.055-0.906c-0.05-0.144-0.133-0.271-0.208-0.404c0.074-0.021,0.148-0.037,0.223-0.057
	c0.165-0.098,0.355-0.098,0.536-0.131c0.064-0.015,0.108,0.043,0.137,0.096c0.311,0.574,0.412,1.166,0.125,1.775
	C28.314,60.404,28.242,60.479,28.193,60.564z"/>
<path fill="#F04848" d="M26.809,52.489c-0.375,0.532-0.892,0.776-1.535,0.78c-0.025,0-0.052,0.004-0.076,0.008
	c-0.258-0.029-0.511-0.07-0.746-0.189c-0.56-0.279-0.853-0.747-0.947-1.355c-0.019-0.125-0.017-0.252-0.025-0.377
	c-0.01-0.135,0.031-0.229,0.18-0.25c0.122-0.088,0.269-0.092,0.407-0.125c0.268-0.062,0.265-0.06,0.256,0.211
	c-0.007,0.207,0.017,0.406,0.096,0.6c0.202,0.488,0.681,0.643,1.147,0.507c0.113-0.028,0.223-0.081,0.324-0.144
	c0.252-0.196,0.352-0.469,0.363-0.772c0.005-0.19-0.029-0.389-0.098-0.569c0.054-0.062,0.124,0.004,0.183-0.021
	c0.207-0.045,0.411-0.017,0.616,0.021c0.055,0.011,0.077,0.063,0.09,0.119c0.105,0.463,0.119,0.922-0.087,1.36
	C26.919,52.361,26.866,52.427,26.809,52.489z"/>
<path fill="#F4F4F4" d="M25.998,51.253c0.043,0.562-0.319,0.929-0.817,0.854c-0.222-0.034-0.386-0.155-0.48-0.354
	c-0.15-0.315-0.117-0.633-0.002-0.95c0.018-0.047,0.054-0.046,0.091-0.046c0.334,0.011,0.668,0.021,1.003,0.032
	c0.053,0,0.073,0.031,0.094,0.068C25.956,50.984,25.991,51.128,25.998,51.253z"/>
<path fill="#F4F4F4" d="M25.943,59.46c-0.003-0.104-0.024-0.229-0.012-0.34c0.004-0.056,0.016-0.082,0.076-0.099
	c0.333-0.073,0.666-0.15,0.998-0.231c0.074-0.017,0.118-0.002,0.16,0.063c0.107,0.162,0.188,0.34,0.205,0.535
	c0.035,0.404-0.225,0.723-0.633,0.772c-0.033,0.002-0.066,0.006-0.1,0.009c-0.153,0.053-0.272-0.025-0.381-0.113
	c-0.181-0.139-0.271-0.334-0.326-0.555C25.927,59.489,25.934,59.475,25.943,59.46z"/>
<path fill="#010101" d="M25.891,52.15c-0.49,0.467-1.353,0.213-1.549-0.459c-0.058-0.203-0.08-0.414-0.044-0.625
	c0.019-0.104-0.019-0.104-0.095-0.088c-0.182,0.045-0.363,0.084-0.543,0.125c0.027-0.104,0.124-0.115,0.199-0.138
	c0.15-0.034,0.294-0.1,0.454-0.101c0.098-0.001,0.133,0.025,0.133,0.128c0.001,0.286,0.025,0.569,0.199,0.821
	c0.256,0.363,0.604,0.467,0.989,0.396C25.721,52.199,25.806,52.172,25.891,52.15z"/>
<path fill="#010101" d="M25.943,59.46c0.028,0.076,0.052,0.161,0.084,0.237c0.115,0.268,0.304,0.447,0.608,0.476
	c0.217,0.106,0.41,0.025,0.6-0.071c0.088-0.051,0.169-0.117,0.254-0.168c-0.063,0.151-0.166,0.254-0.307,0.33
	c-0.567,0.27-1.061-0.039-1.294-0.479c-0.065-0.124-0.114-0.262-0.142-0.391c-0.012-0.063-0.031-0.146-0.133-0.09
	c-0.045-0.025-0.08,0.008-0.114,0.028c-0.18,0.099-0.359,0.187-0.537,0.281c0.061-0.146,0.167-0.234,0.31-0.296
	c0.103-0.041,0.196-0.112,0.293-0.166c0.13-0.074,0.182-0.059,0.271,0.068C25.894,59.288,25.9,59.381,25.943,59.46z"/>
<path fill="#010101" d="M26.566,55.873c0.115,0.016,0.232,0.036,0.348,0.054c0,0.009,0.001,0.019,0.002,0.027
	c-0.172,0.034-0.343,0.08-0.514,0.121c-0.658,0.149-1.316,0.306-1.976,0.46c-0.024,0.007-0.051,0.003-0.076,0.008
	c0.085-0.191,0.275-0.195,0.436-0.232c0.537-0.119,1.077-0.229,1.608-0.375C26.453,55.923,26.538,55.971,26.566,55.873z"/>
<path fill="#010101" d="M25.677,57.749c0.046,0.099,0.032,0.149-0.088,0.177c-0.29,0.057-0.576,0.126-0.865,0.189
	c0.147-0.241,0.418-0.188,0.631-0.27C25.461,57.811,25.584,57.829,25.677,57.749z"/>
<path fill="#010101" d="M26.112,50.504c0.093-0.012,0.188-0.006,0.281,0.012c0.019,0.008,0.035,0.019,0.057,0.03
	c-0.091,0.036-0.191,0.062-0.19,0.188c0,0.006-0.036,0.011-0.053,0.018c-0.002-0.021-0.012-0.049-0.003-0.063
	C26.277,50.572,26.255,50.509,26.112,50.504z"/>
<path fill="#010101" d="M27.19,45.938c0.014-0.23,0.021-0.465,0.043-0.694c0.011-0.114-0.025-0.126-0.125-0.106
	c-0.918,0.18-1.836,0.354-2.753,0.524c-0.045,0.009-0.091,0.01-0.137,0.017c0.059-0.179,0.229-0.148,0.361-0.175
	c0.324-0.062,0.648-0.127,0.973-0.192c0.182-0.035,0.363-0.072,0.545-0.099c0.373-0.058,0.739-0.151,1.112-0.216
	c0.116-0.021,0.175,0.012,0.176,0.129c0.004,0.232-0.006,0.473-0.046,0.703C27.323,45.912,27.261,45.926,27.19,45.938z"/>
<path fill="#010101" d="M26.909,48.764c-0.032-0.438-0.078-0.878,0.063-1.305c0.028-0.086,0.013-0.135-0.075-0.169
	c-0.109-0.037-0.208-0.099-0.314-0.133c-0.085-0.031-0.109-0.079-0.095-0.165c0.039-0.246,0.075-0.493,0.1-0.741
	c0.012-0.106,0.059-0.149,0.161-0.135c-0.029,0.225-0.052,0.448-0.092,0.669c-0.023,0.125,0.034,0.193,0.131,0.247
	c0.075,0.04,0.152,0.073,0.229,0.104c0.098,0.046,0.144,0.118,0.107,0.233c-0.067,0.213-0.116,0.428-0.079,0.656
	c0.031,0.188,0.013,0.377,0.017,0.57C27.064,48.702,27.008,48.754,26.909,48.764z"/>
<path fill="#010101" d="M26.856,50.352c-0.011-0.186-0.029-0.369-0.029-0.557c0.002-0.122-0.052-0.143-0.159-0.146
	c-0.312-0.004-0.625-0.022-0.938-0.023c-0.09-0.001-0.108-0.035-0.103-0.113c0.007-0.154,0.013-0.314,0.017-0.47
	c0.002-0.181,0-0.181,0.187-0.164c-0.02,0.021-0.047,0.039-0.042,0.072c0.016,0.103,0,0.21,0,0.315c0,0.152,0.069,0.221,0.226,0.228
	c0.266,0.009,0.53,0.01,0.795,0.021c0.095,0.004,0.181,0.057,0.172,0.148c-0.022,0.189,0.036,0.375,0.025,0.563
	C27.002,50.337,26.976,50.367,26.856,50.352z"/>
<path fill="#010101" d="M25.991,47.833c0.11,0.051,0.221,0.103,0.332,0.151c-0.001,0.015-0.004,0.029-0.005,0.043
	c-0.803-0.029-1.606-0.062-2.412-0.09c0.061-0.106,0.145-0.129,0.271-0.129c0.358-0.004,0.713,0.033,1.07,0.033
	C25.497,47.846,25.743,47.87,25.991,47.833z"/>
<path fill="#010101" d="M24.86,49.425c0.011,0.165,0.011,0.171-0.143,0.163c-0.28-0.011-0.563,0.001-0.844-0.033
	c0.025-0.111,0.088-0.137,0.202-0.134C24.334,49.428,24.596,49.473,24.86,49.425z"/>
<path fill="#010101" d="M27.496,56.614c-0.173-0.429-0.285-0.88-0.281-1.36c0.001-0.129-0.035-0.186-0.174-0.195
	c-0.104,0-0.208-0.031-0.315-0.041c-0.066-0.009-0.094-0.033-0.104-0.103c-0.03-0.226-0.071-0.47-0.099-0.7
	c-0.023-0.211-0.063-0.18,0.155-0.255c0.011,0.242,0.033,0.487,0.081,0.735c0.022,0.113,0.082,0.188,0.209,0.197
	c0.004,0,0.008,0,0.012-0.002c0.368,0.033,0.454,0.145,0.41,0.508c-0.02,0.151,0.014,0.302,0.053,0.438
	c0.047,0.183,0.095,0.353,0.16,0.519C27.649,56.496,27.614,56.568,27.496,56.614z"/>
<path fill="#010101" d="M28.193,60.564c0.102-0.205,0.215-0.407,0.259-0.642c0.103-0.508-0.027-0.967-0.269-1.405
	c-0.032-0.062-0.072-0.061-0.127-0.043c-0.165,0.029-0.331,0.063-0.497,0.094c0.055-0.184,0.23-0.123,0.35-0.172
	c0.036-0.026,0.084-0.008,0.125-0.021c0.234-0.068,0.303-0.021,0.401,0.197c0.125,0.273,0.21,0.559,0.208,0.859
	C28.639,59.872,28.511,60.257,28.193,60.564z"/>
<path fill="#010101" d="M27.866,58.193c-0.09-0.209-0.143-0.435-0.207-0.639c-0.024-0.08-0.051-0.109-0.142-0.082
	c-0.313,0.084-0.635,0.146-0.949,0.226c-0.074,0.021-0.117,0.013-0.133-0.08c-0.03-0.162-0.061-0.332-0.114-0.49
	c-0.047-0.14,0.013-0.165,0.122-0.177c0.019,0.001,0.035,0,0.052-0.001c-0.04,0.102,0.024,0.188,0.039,0.268
	c0.009,0.063,0.034,0.104,0.043,0.144c0.038,0.178,0.113,0.223,0.284,0.172c0.259-0.075,0.519-0.135,0.784-0.178
	c0.085-0.021,0.14,0.019,0.165,0.095c0.065,0.181,0.128,0.353,0.184,0.536C28.021,58.098,27.917,58.132,27.866,58.193z"/>
<path fill="#010101" d="M26.809,52.489c0.291-0.483,0.327-1,0.203-1.539c-0.021-0.082-0.046-0.127-0.147-0.13
	c-0.176-0.002-0.353-0.024-0.527-0.036c0.037-0.113,0.111-0.144,0.227-0.124c0.128,0.023,0.26,0.029,0.389,0.033
	c0.128-0.002,0.204,0.07,0.226,0.185c0.067,0.349,0.092,0.701-0.022,1.047C27.085,52.139,27.025,52.361,26.809,52.489z"/>
<path fill="#010101" d="M27.014,53.725c-0.063-0.274-0.125-0.559-0.189-0.832c0.002-0.043,0.021-0.076,0.07-0.074
	c0.051,0.007,0.08,0.037,0.103,0.08c0.063,0.115,0.042,0.248,0.082,0.369c0.025,0.073,0.04,0.15,0.051,0.23
	C27.143,53.607,27.114,53.682,27.014,53.725z"/>
<path fill="#010101" d="M25.944,54.771c0.005,0.033,0.012,0.063,0.018,0.102c0.011,0.063-0.011,0.086-0.073,0.08
	c-0.344-0.037-0.688-0.07-1.033-0.105c-0.038-0.006-0.063-0.021-0.067-0.063c-0.005-0.042,0.003-0.075,0.047-0.092
	c0.052-0.02,0.104-0.035,0.155-0.057c0.023-0.019,0.047-0.011,0.069,0.01c0.167,0.054,0.343,0.039,0.513,0.064
	c0.057,0.014,0.118,0.016,0.176,0.029C25.811,54.761,25.888,54.721,25.944,54.771z"/>
<path fill="#010101" d="M25.047,54.662c-0.014-0.02-0.035-0.016-0.056-0.014c0.263-0.125,0.54-0.229,0.808-0.338
	c0.056-0.024,0.086-0.018,0.094,0.057c0.013,0.142,0.056,0.268,0.051,0.416c-0.066-0.01-0.136,0.035-0.2-0.006
	c0.005-0.021,0.024-0.049,0.026-0.067c0.004-0.084-0.005-0.183-0.066-0.233c-0.053-0.053-0.118,0.02-0.175,0.033
	c-0.115,0.039-0.22,0.107-0.335,0.149C25.147,54.658,25.101,54.689,25.047,54.662z"/>
<path fill="#010101" d="M25.875,46.648c-0.002,0.242-0.002,0.242-0.225,0.151c-0.266-0.104-0.533-0.213-0.797-0.321
	c-0.044-0.02-0.104-0.022-0.096-0.098c0.007-0.076,0.067-0.076,0.121-0.085c0.058-0.005,0.115-0.005,0.175-0.009
	c0.036,0.025-0.027,0.052,0,0.078c0.207,0.054,0.397,0.15,0.594,0.229C25.728,46.596,25.808,46.588,25.875,46.648z"/>
<path fill="#010101" d="M25.01,46.381c-0.035-0.003-0.061-0.014-0.019-0.044c0.021-0.019,0.058-0.01,0.063-0.049
	c0.27-0.028,0.54-0.062,0.812-0.091c0.067-0.01,0.08,0.023,0.072,0.08c-0.019,0.121-0.042,0.246-0.063,0.369
	c-0.077-0.004-0.153-0.03-0.233-0.014c-0.005-0.061,0.008-0.115,0.012-0.176c0.011-0.115-0.01-0.133-0.123-0.132
	C25.357,46.328,25.186,46.393,25.01,46.381z"/>
<path fill="#010101" d="M25.615,59.298c0.014-0.022-0.022-0.073,0.031-0.079c0.051,0.002,0.088,0.028,0.11,0.076
	c0.042,0.1,0.051,0.219,0.097,0.324c0.156,0.361,0.39,0.633,0.802,0.695c0.176,0.024,0.357,0.011,0.528-0.056
	c-0.376,0.282-0.921,0.229-1.237-0.126C25.735,59.896,25.631,59.613,25.615,59.298z"/>
<path fill="#EFEFF0" d="M25.047,54.662c0.201-0.079,0.401-0.17,0.601-0.262c0.065-0.026,0.097-0.025,0.114,0.056
	c0.014,0.065,0.031,0.146,0.054,0.221c0.019,0.063-0.009,0.097-0.071,0.097c-0.197-0.018-0.395-0.037-0.592-0.06
	C25.114,54.697,25.066,54.719,25.047,54.662z"/>
<path fill="#EBECED" d="M25.01,46.381c0.205-0.074,0.424-0.074,0.635-0.1c0.035-0.002,0.062,0.006,0.056,0.048
	c-0.012,0.104,0.01,0.212-0.057,0.307C25.437,46.54,25.227,46.447,25.01,46.381z"/>
<path fill="#010101" d="M27.198,53.395c0.155-0.023,0.312-0.055,0.467-0.078c0.044-0.006,0.091,0.004,0.136,0.009
	c0.009-0.001,0.022,0.018,0.029,0.002c0.04-0.019,0.08-0.028,0.12-0.063c-0.023-0.004-0.049-0.012-0.073-0.008
	c-0.058,0.002-0.115,0.006-0.169,0.014c-0.031,0.004-0.045-0.009-0.047-0.039c-0.004-0.133-0.011-0.266-0.022-0.394
	c-0.006-0.092,0.004-0.177,0.051-0.254c0.018-0.033,0.008-0.063-0.008-0.093c-0.066-0.123-0.094-0.258-0.091-0.393
	c0.001-0.146,0.031-0.279,0.108-0.396c0.071-0.111,0.176-0.188,0.309-0.225c0.038-0.012,0.077-0.021,0.117-0.026
	c-0.085-0.063-0.181-0.032-0.271-0.041c-0.055-0.011-0.109-0.015-0.165-0.017c-0.03-0.004-0.042-0.017-0.041-0.051
	c0.002-0.021,0.005-0.043,0.006-0.064c0.005-0.047-0.016-0.071-0.063-0.071c-0.078-0.002-0.155,0.009-0.231,0.006
	c-0.067-0.005-0.132-0.021-0.198-0.026c0.01-0.166,0.02-0.324,0.029-0.488c0.004-0.023,0.004-0.055,0.007-0.079
	c0.006-0.043,0.04-0.066,0.083-0.063c0.116,0.008,0.231,0.016,0.348,0.021c0.052,0.006,0.112-0.001,0.159,0.021
	c0.097,0.043,0.189-0.01,0.282,0.004c0.146,0.021,0.293,0.024,0.441,0.039c0.059,0.008,0.118,0.012,0.178,0.021
	c0.04,0.006,0.054-0.015,0.063-0.056c0.023-0.101-0.049-0.141-0.101-0.189c-0.007-0.012-0.042-0.001-0.056,0.011
	c-0.063,0.046-0.13,0.085-0.21,0.104c-0.142,0.039-0.358-0.025-0.454-0.146c-0.146-0.183-0.153-0.388-0.126-0.605
	c0.013-0.105,0.045-0.204,0.093-0.303c0.071-0.145,0.166-0.267,0.341-0.297c0.013-0.004,0.033-0.008,0.046-0.004
	c0.111,0.021,0.222,0.04,0.334,0.063c0.009,0.002,0.018,0.018,0.021,0.03s0,0.026,0,0.043c0.003,0.028,0.011,0.047,0.044,0.021
	c0.118-0.076,0.247-0.096,0.379-0.063c0.123,0.025,0.226,0.099,0.295,0.207c0.117,0.184,0.124,0.381,0.084,0.584
	c-0.03,0.156-0.098,0.299-0.203,0.426c-0.015,0.017-0.023,0.035-0.042,0.063c0.032,0.012,0.054,0.014,0.077,0.014
	c0.051,0.008,0.063,0.021,0.056,0.074c-0.014,0.094-0.021,0.184-0.032,0.274c-0.012,0.12-0.024,0.239-0.123,0.331
	c-0.034,0.025-0.07,0.053-0.103,0.09c0.039,0.002,0.079,0.007,0.117,0.001c0.068,0.004,0.075,0.015,0.066,0.085
	c-0.007,0.051-0.003,0.102-0.008,0.148c-0.004,0.084-0.004,0.176-0.017,0.262c-0.027,0.173-0.151,0.279-0.339,0.281
	c-0.191-0.002-0.384-0.012-0.576-0.014c-0.132,0.002-0.166,0.063-0.106,0.18c0.052,0.104,0.148,0.141,0.257,0.143
	c0.156-0.005,0.315-0.018,0.468-0.021c0.082,0,0.163,0,0.243-0.002c0.03,0.006,0.05,0.015,0.052,0.053
	c0.019,0.344,0.041,0.685,0.058,1.027c0.006,0.104-0.033,0.194-0.122,0.27c-0.003,0.003-0.008,0.008-0.011,0.016
	c-0.002,0.002-0.001,0.006-0.006,0.021c0.028,0,0.056,0.007,0.08,0.005c0.084-0.011,0.087-0.011,0.101,0.073
	c0.021,0.146,0.041,0.289,0.054,0.438c0.01,0.104-0.07,0.217-0.162,0.262c-0.118,0.049-0.244,0.061-0.365,0.09
	c-0.124,0.033-0.249,0.041-0.374,0.068c-0.067,0.016-0.082,0.061-0.039,0.11c0.067,0.08,0.156,0.104,0.254,0.085
	c0.22-0.035,0.438-0.096,0.656-0.137c0.038-0.014,0.087-0.025,0.112-0.021c0.025,0.017,0.024,0.067,0.032,0.103
	c0.031,0.145,0.063,0.274,0.094,0.426c0.012,0.061,0.001,0.063-0.057,0.07c-0.156,0.035-0.309,0.08-0.466,0.11
	c-0.117,0.034-0.235,0.063-0.354,0.091c-0.031,0.01-0.062,0.027-0.086,0.043c-0.012,0.008-0.013,0.043-0.004,0.061
	c0.028,0.058,0.082,0.09,0.141,0.1c0.081,0.018,0.16-0.003,0.237-0.021c0.073-0.024,0.143-0.045,0.219-0.069
	c0.124-0.03,0.249-0.071,0.378-0.104c0.071-0.021,0.071-0.015,0.089,0.06c0.018,0.065,0.045,0.14,0.066,0.215
	c0.026,0.085,0.047,0.175,0.068,0.263c0.006,0.021,0,0.047-0.03,0.059c-0.154,0.045-0.308,0.089-0.46,0.141
	c-0.129,0.042-0.26,0.084-0.389,0.133c-0.07,0.026-0.084,0.063-0.053,0.14c0.024,0.057,0.023,0.055-0.034,0.065
	c-0.145,0.049-0.289,0.101-0.433,0.15c-0.032,0.016-0.054,0.013-0.068-0.021c-0.02-0.05-0.037-0.1-0.052-0.143
	c-0.032-0.102-0.067-0.21-0.093-0.309c-0.009-0.041-0.002-0.088,0.004-0.127c0.009-0.062,0.004-0.104-0.035-0.145
	c-0.124-0.138-0.178-0.302-0.178-0.486c0-0.084,0.01-0.164,0.05-0.24c0.014-0.021,0.008-0.049-0.013-0.063
	c-0.1-0.097-0.166-0.215-0.199-0.341c-0.028-0.103-0.04-0.228-0.017-0.34c0.022-0.104,0.061-0.195,0.132-0.271
	c0.064-0.068,0.138-0.117,0.229-0.146c0.009-0.004,0.018-0.008,0.024-0.016c0.002-0.004,0.005-0.009,0.013-0.022
	c-0.033-0.002-0.061-0.011-0.088-0.007c-0.103,0.016-0.204,0.025-0.304,0.045c-0.071,0.016-0.085,0.01-0.094-0.059
	c-0.012-0.104-0.012-0.104-0.116-0.096c-0.125,0.018-0.251,0.028-0.378,0.039C27.229,53.797,27.214,53.596,27.198,53.395z
	 M28.386,56.044c-0.022,0.041-0.055,0.079-0.059,0.117c-0.004,0.058,0.008,0.116,0.021,0.172c0.018,0.071,0.047,0.144,0.066,0.216
	c0.013,0.061,0.021,0.065,0.076,0.059c0.07-0.023,0.141-0.047,0.209-0.078c0.022-0.01,0.039-0.022,0.025-0.059
	c-0.01-0.027-0.017-0.058-0.026-0.086c-0.008-0.021,0-0.037,0.021-0.044c0.071-0.024,0.141-0.049,0.211-0.071
	c0.229-0.074,0.462-0.146,0.693-0.223c0.033-0.008,0.044-0.025,0.034-0.058c-0.021-0.063-0.039-0.118-0.055-0.188
	c-0.031-0.111-0.051-0.121-0.166-0.091c-0.08,0.028-0.163,0.052-0.244,0.079c-0.082,0.027-0.167,0.046-0.248,0.08
	c-0.127,0.031-0.244,0.007-0.353-0.055c-0.071-0.039-0.103-0.108-0.124-0.182c-0.017-0.063,0-0.107,0.045-0.146
	c0.072-0.063,0.158-0.071,0.242-0.086c0.087-0.026,0.178-0.041,0.265-0.063c0.122-0.028,0.242-0.063,0.363-0.092
	c0.048-0.011,0.061-0.022,0.05-0.073c-0.017-0.084-0.036-0.164-0.055-0.248c-0.007-0.029-0.027-0.052-0.061-0.042
	c-0.079,0.027-0.164,0.032-0.244,0.054c-0.087,0.026-0.176,0.035-0.261,0.063c-0.123,0.039-0.239,0.042-0.359-0.012
	c-0.099-0.051-0.179-0.135-0.178-0.26c0-0.045,0.011-0.086,0.053-0.106c0.051-0.029,0.106-0.048,0.161-0.063
	c0.202-0.037,0.408-0.076,0.611-0.108c0.098-0.021,0.161-0.101,0.149-0.202c-0.011-0.102-0.03-0.189-0.045-0.296
	c-0.007-0.034-0.031-0.044-0.064-0.038c-0.041,0.01-0.084,0.02-0.127,0.025c-0.121,0.011-0.121,0.011-0.111,0.127
	c0.003,0.029-0.004,0.051-0.037,0.056c-0.155,0.021-0.309,0.042-0.46,0.063c-0.067,0.018-0.137,0.027-0.198,0.059
	c-0.057,0.025-0.115,0.063-0.159,0.098c-0.086,0.084-0.118,0.188-0.116,0.313c0.006,0.152,0.034,0.303,0.144,0.42
	c0.038,0.047,0.085,0.078,0.127,0.119c0.016,0.021,0.044,0.021,0.02,0.062c-0.057,0.063-0.085,0.129-0.097,0.21
	c-0.025,0.182,0.031,0.327,0.135,0.463C28.294,55.966,28.344,56.005,28.386,56.044z M28.479,52.912
	c0.212-0.012,0.391-0.016,0.57-0.021c0.037-0.004,0.06-0.023,0.06-0.064c-0.005-0.086-0.012-0.178-0.017-0.266
	c-0.003-0.031-0.016-0.047-0.049-0.045c-0.193,0.01-0.388,0.01-0.581,0.014c-0.038,0-0.073,0.007-0.108,0
	c-0.163-0.031-0.278-0.129-0.306-0.301c-0.013-0.074-0.027-0.151,0.037-0.215c0.057-0.055,0.131-0.061,0.205-0.059
	c0.034,0,0.068,0.01,0.103,0.006c0.124-0.001,0.25,0.002,0.375,0.002c0.049,0.002,0.099,0.001,0.148-0.002
	c0.086-0.008,0.146-0.051,0.16-0.138c0.021-0.111,0.023-0.233,0.032-0.345c0-0.018-0.026-0.039-0.041-0.041
	c-0.064-0.012-0.129-0.017-0.197-0.021c-0.072-0.005-0.083,0.007-0.087,0.08c-0.005,0.089-0.005,0.089-0.09,0.081
	c-0.008,0-0.017-0.001-0.022,0c-0.074-0.003-0.149-0.005-0.225-0.007c-0.12,0.003-0.237,0.002-0.357,0.006
	c-0.068-0.003-0.125,0.033-0.183,0.064c-0.132,0.082-0.183,0.213-0.196,0.354c-0.018,0.188,0.003,0.372,0.136,0.525
	c0.013,0.017,0.02,0.029-0.001,0.047c-0.09,0.062-0.098,0.156-0.101,0.25c-0.004,0.076,0.007,0.148,0.014,0.229
	c0.003,0.056,0.016,0.063,0.067,0.058c0.071-0.002,0.142-0.006,0.209-0.019c0.047-0.005,0.057-0.019,0.05-0.063
	c-0.004-0.021,0-0.037-0.005-0.063c-0.014-0.052,0.013-0.061,0.055-0.061C28.261,52.93,28.387,52.918,28.479,52.912z M29.323,49.82
	c0-0.16-0.098-0.336-0.224-0.396c-0.12-0.059-0.309-0.048-0.413,0.055c-0.088,0.088-0.151,0.193-0.212,0.297
	c-0.041,0.066-0.083,0.138-0.123,0.203c-0.02,0.028-0.056,0.045-0.083,0.026c-0.022-0.012-0.041-0.04-0.045-0.063
	c-0.013-0.069-0.002-0.146,0.031-0.217c0.021-0.039,0.05-0.051,0.091-0.039c0.053,0.015,0.077-0.002,0.086-0.056
	c0.008-0.044,0.015-0.086,0.022-0.126c0.009-0.044,0.018-0.085,0.024-0.128c0.006-0.026-0.003-0.048-0.04-0.05
	c-0.027,0-0.055-0.01-0.08-0.016c-0.118-0.031-0.217,0.002-0.291,0.103c-0.073,0.099-0.116,0.208-0.141,0.323
	c-0.022,0.111-0.033,0.226-0.011,0.341c0.031,0.163,0.108,0.282,0.279,0.325c0.126,0.031,0.229-0.012,0.32-0.09
	c0.099-0.084,0.153-0.201,0.223-0.313c0.048-0.069,0.098-0.146,0.15-0.215c0.021-0.028,0.079-0.067,0.101-0.04
	c0.023,0.027,0.023,0.104,0.021,0.137c-0.01,0.067-0.029,0.145-0.06,0.203c-0.038,0.074-0.104,0.132-0.176,0.186
	c-0.038,0.024-0.039,0.047-0.009,0.078c0.042,0.051,0.084,0.092,0.125,0.137c0.047,0.056,0.069,0.058,0.127,0.013
	c0.09-0.071,0.156-0.156,0.208-0.259C29.296,50.111,29.325,49.971,29.323,49.82z M28.035,50.729
	c-0.126,0.004-0.185,0.018-0.219,0.143c-0.026,0.091-0.029,0.191-0.042,0.283c-0.004,0.029-0.005,0.063,0,0.097
	c0.004,0.021,0.024,0.037,0.038,0.039c0.069,0.008,0.142,0.012,0.213,0.021c0.058,0.002,0.066-0.012,0.065-0.071
	c-0.001-0.107-0.001-0.107,0.107-0.104c0.01-0.001,0.019,0,0.026,0.001c0.12,0.013,0.239,0.023,0.362,0.035
	c0.108,0.003,0.219,0.017,0.328,0.021c0.152,0.01,0.221-0.063,0.231-0.193c0.007-0.085,0.018-0.168,0.03-0.252
	c0.004-0.036-0.005-0.051-0.043-0.057c-0.069-0.008-0.138-0.019-0.207-0.026c-0.042-0.007-0.062,0-0.07,0.041
	c-0.003,0.022-0.007,0.042-0.005,0.063c0.005,0.033-0.013,0.055-0.048,0.051c-0.064-0.01-0.124-0.016-0.187-0.022
	c-0.106-0.009-0.211-0.022-0.315-0.03C28.2,50.742,28.097,50.734,28.035,50.729z M28.367,53.357
	c0.001,0.008,0.002,0.021,0.002,0.021c-0.13,0.011-0.26,0.021-0.389,0.03c-0.099,0.009-0.161,0.057-0.161,0.156
	c-0.003,0.129,0.019,0.261,0.032,0.396c0.001,0.022,0.025,0.028,0.053,0.024c0.075-0.014,0.149-0.028,0.224-0.039
	c0.027-0.006,0.038-0.024,0.033-0.051c-0.004-0.021-0.008-0.059-0.011-0.082c-0.004-0.027,0.008-0.043,0.038-0.049
	c0.26-0.027,0.52-0.061,0.778-0.088c0.145-0.021,0.189-0.087,0.186-0.225c0-0.09-0.014-0.178-0.023-0.264
	c-0.004-0.037-0.02-0.06-0.057-0.053c-0.053-0.003-0.107,0-0.163,0.01c-0.101,0.006-0.104,0.014-0.094,0.112
	c0,0.005,0.001,0.011,0.002,0.021c0.003,0.022-0.012,0.043-0.04,0.046C28.637,53.337,28.5,53.35,28.367,53.357z M27.294,51.023
	c0,0.045,0.011,0.057,0.068,0.058c0.077,0.005,0.151,0.01,0.228,0.017c0.05,0.004,0.066-0.006,0.074-0.054
	c0.009-0.091,0.016-0.181,0.025-0.271c0.003-0.033-0.012-0.059-0.048-0.062c-0.079-0.007-0.157-0.014-0.235-0.022
	c-0.058-0.008-0.081,0.004-0.087,0.062C27.308,50.837,27.303,50.926,27.294,51.023z M27.489,53.475v0.002
	c-0.044,0.006-0.093,0.008-0.139,0.008c-0.027,0.008-0.043,0.021-0.04,0.052c0.008,0.101,0.017,0.192,0.026,0.294
	c0.002,0.025,0.017,0.046,0.047,0.042c0.089-0.011,0.178-0.021,0.268-0.03c0.039-0.006,0.055-0.027,0.051-0.068
	c-0.003-0.021-0.013-0.053-0.017-0.074c-0.009-0.063-0.014-0.123-0.02-0.188c-0.004-0.032-0.02-0.051-0.057-0.046
	C27.569,53.473,27.528,53.475,27.489,53.475z M28.624,51.453c0.038,0.005,0.05-0.01,0.049-0.047
	c0.001-0.021,0.003-0.049,0.005-0.072c0.004-0.036-0.013-0.053-0.051-0.053c-0.109-0.008-0.216-0.018-0.325-0.029
	c-0.067-0.003-0.083,0.01-0.082,0.079c0.001,0.024-0.001,0.054,0.005,0.081c0.002,0.011,0.024,0.033,0.036,0.033
	C28.383,51.45,28.502,51.451,28.624,51.453z M28.608,53.835c0-0.001-0.001-0.003-0.001-0.003c-0.083,0.012-0.168,0.023-0.252,0.04
	c-0.05,0.011-0.059,0.022-0.049,0.067c0.004,0.021,0.011,0.058,0.013,0.07c0.002,0.026,0.021,0.045,0.049,0.036
	c0.119-0.024,0.24-0.038,0.357-0.062c0.031-0.006,0.043-0.021,0.038-0.047c-0.008-0.043,0.016-0.096-0.037-0.121
	c-0.007-0.006-0.02-0.002-0.032-0.002C28.667,53.83,28.639,53.831,28.608,53.835z M28.448,53.04L28.448,53.04
	c-0.035,0.001-0.068,0.001-0.103,0.005c-0.147,0.012-0.125-0.003-0.116,0.139c0.003,0.037,0.02,0.053,0.054,0.049
	c0.093-0.01,0.187-0.017,0.277-0.024c0.136-0.009,0.118-0.001,0.117-0.128c-0.002-0.051-0.011-0.063-0.056-0.057
	C28.564,53.029,28.506,53.036,28.448,53.04z"/>
<path fill="#F4F4F4" d="M28.386,56.044c-0.042-0.039-0.091-0.078-0.131-0.126c-0.102-0.133-0.159-0.285-0.136-0.462
	c0.014-0.082,0.04-0.154,0.096-0.213c0.026-0.026-0.003-0.042-0.019-0.054c-0.042-0.041-0.089-0.078-0.127-0.121
	c-0.108-0.118-0.136-0.262-0.142-0.418c-0.003-0.125,0.03-0.232,0.116-0.317c0.043-0.042,0.1-0.071,0.158-0.103
	c0.062-0.023,0.133-0.031,0.198-0.051c0.152-0.029,0.306-0.047,0.461-0.063c0.033-0.015,0.04-0.025,0.038-0.062
	c-0.009-0.106-0.009-0.106,0.111-0.131c0.042-0.006,0.085-0.015,0.126-0.021c0.034-0.006,0.057,0.006,0.063,0.037
	c0.016,0.104,0.034,0.189,0.046,0.297c0.012,0.104-0.05,0.19-0.149,0.201c-0.203,0.037-0.408,0.073-0.611,0.107
	c-0.055,0.02-0.109,0.033-0.16,0.068c-0.042,0.019-0.051,0.063-0.053,0.107c-0.002,0.123,0.08,0.217,0.178,0.262
	c0.119,0.056,0.235,0.051,0.359,0.014c0.085-0.028,0.173-0.039,0.261-0.063c0.08-0.021,0.163-0.033,0.244-0.052
	c0.035-0.007,0.054,0.007,0.062,0.042c0.019,0.079,0.036,0.161,0.055,0.247c0.011,0.058,0,0.063-0.05,0.071
	c-0.121,0.029-0.241,0.066-0.363,0.091c-0.087,0.024-0.178,0.036-0.266,0.063c-0.082,0.025-0.169,0.035-0.241,0.082
	c-0.046,0.033-0.063,0.086-0.045,0.151c0.022,0.067,0.054,0.144,0.125,0.181c0.109,0.065,0.228,0.096,0.353,0.051
	c0.081-0.027,0.166-0.049,0.248-0.069c0.082-0.026,0.164-0.047,0.245-0.076c0.116-0.036,0.135-0.032,0.166,0.089
	c0.015,0.063,0.033,0.116,0.054,0.182c0.011,0.031-0.001,0.055-0.033,0.063c-0.23,0.074-0.463,0.146-0.693,0.224
	c-0.07,0.024-0.14,0.049-0.21,0.07c-0.021,0.012-0.031,0.027-0.021,0.047c0.01,0.022,0.016,0.062,0.026,0.088
	c0.01,0.024-0.001,0.053-0.024,0.062c-0.068,0.028-0.14,0.05-0.21,0.073c-0.054,0.018-0.063-0.006-0.076-0.053
	c-0.019-0.064-0.046-0.145-0.066-0.222c-0.014-0.057-0.027-0.108-0.021-0.172C28.331,56.123,28.363,56.085,28.386,56.044z"/>
<path fill="#F4F4F4" d="M28.479,52.912c-0.092,0.006-0.218,0.018-0.345,0.025c-0.042,0.002-0.068,0.008-0.054,0.059
	c0.004,0.02,0,0.04,0.004,0.061c0.007,0.053-0.002,0.063-0.049,0.07c-0.071,0.002-0.141,0.008-0.21,0.018
	c-0.052,0.002-0.065-0.011-0.068-0.058c-0.005-0.076-0.015-0.149-0.013-0.231c0.002-0.092,0.011-0.188,0.101-0.248
	c0.021-0.017,0.017-0.029,0.001-0.049c-0.132-0.154-0.153-0.338-0.136-0.522c0.014-0.146,0.063-0.271,0.196-0.354
	c0.057-0.033,0.115-0.065,0.184-0.063c0.12-0.002,0.236-0.003,0.357-0.005c0.073,0,0.147,0,0.225,0.004c0.006,0,0.014,0,0.021,0.001
	c0.084,0.005,0.084,0.005,0.09-0.081c0.006-0.065,0.017-0.079,0.088-0.078c0.067,0.006,0.132,0.011,0.197,0.021
	c0.015,0.002,0.041,0.024,0.04,0.041c-0.008,0.115-0.011,0.232-0.031,0.345c-0.013,0.085-0.075,0.127-0.16,0.137
	c-0.049,0.003-0.1,0.002-0.148,0.004c-0.124,0.002-0.25-0.002-0.374,0c-0.036-0.003-0.068-0.007-0.102-0.005
	c-0.075-0.007-0.149,0-0.206,0.057c-0.063,0.062-0.049,0.142-0.037,0.213c0.029,0.174,0.144,0.267,0.306,0.304
	c0.037,0.008,0.072,0.003,0.107,0c0.192-0.007,0.387-0.011,0.582-0.015c0.033,0,0.045,0.012,0.047,0.043
	c0.004,0.086,0.012,0.178,0.016,0.271c0.001,0.036-0.02,0.062-0.059,0.063C28.871,52.896,28.693,52.9,28.479,52.912z"/>
<path fill="#F4F4F4" d="M29.323,49.82c0.002,0.15-0.026,0.293-0.094,0.427c-0.054,0.103-0.123,0.187-0.21,0.26
	c-0.059,0.045-0.079,0.037-0.128-0.015c-0.04-0.047-0.083-0.092-0.125-0.137c-0.029-0.03-0.028-0.058,0.009-0.08
	c0.073-0.051,0.139-0.108,0.176-0.188c0.031-0.062,0.053-0.131,0.056-0.201c0.013-0.171-0.1-0.126-0.123-0.098
	c-0.051,0.069-0.103,0.144-0.148,0.217c-0.067,0.112-0.126,0.224-0.223,0.313c-0.091,0.082-0.194,0.123-0.319,0.086
	c-0.172-0.041-0.249-0.162-0.28-0.325c-0.021-0.115-0.011-0.228,0.011-0.341c0.024-0.114,0.067-0.229,0.142-0.321
	c0.074-0.099,0.173-0.134,0.291-0.101c0.027,0.009,0.053,0.012,0.08,0.013c0.035,0.002,0.045,0.019,0.04,0.052
	c-0.007,0.042-0.015,0.084-0.023,0.126c-0.007,0.042-0.013,0.085-0.021,0.127c-0.01,0.054-0.035,0.071-0.088,0.054
	c-0.042-0.012-0.071,0-0.092,0.041c-0.034,0.068-0.045,0.146-0.031,0.217c0.004,0.021,0.023,0.055,0.044,0.064
	c0.03,0.016,0.064,0.004,0.083-0.031c0.041-0.067,0.083-0.131,0.124-0.203c0.063-0.105,0.125-0.211,0.213-0.295
	c0.101-0.103,0.292-0.117,0.41-0.059C29.226,49.484,29.324,49.661,29.323,49.82z"/>
<path fill="#F4F4F4" d="M28.035,50.729c0.063,0.004,0.166,0.017,0.268,0.022c0.104,0.007,0.21,0.021,0.313,0.03
	c0.064,0.008,0.125,0.015,0.188,0.021c0.036,0.007,0.052-0.015,0.049-0.051c-0.002-0.021,0-0.042,0.005-0.062
	c0.008-0.041,0.026-0.049,0.07-0.041c0.067,0.011,0.136,0.021,0.208,0.023c0.037,0.008,0.045,0.021,0.042,0.059
	c-0.014,0.084-0.024,0.166-0.03,0.252c-0.009,0.131-0.078,0.205-0.231,0.189c-0.11-0.007-0.22-0.012-0.329-0.02
	c-0.122-0.01-0.24-0.018-0.361-0.033c-0.009,0-0.017-0.001-0.027-0.001c-0.108-0.002-0.108-0.002-0.108,0.104
	c0.002,0.063-0.009,0.068-0.066,0.068c-0.069-0.006-0.142-0.007-0.214-0.02c-0.013-0.002-0.032-0.022-0.036-0.039
	c-0.006-0.029-0.005-0.063,0-0.094c0.011-0.098,0.014-0.195,0.042-0.287C27.849,50.74,27.907,50.73,28.035,50.729z"/>
<path fill="#F4F4F4" d="M28.367,53.357c0.136-0.01,0.27-0.021,0.406-0.03c0.03-0.003,0.042-0.017,0.04-0.045
	c-0.001-0.007-0.001-0.011,0-0.017c-0.013-0.104-0.009-0.106,0.094-0.115c0.053-0.006,0.107-0.006,0.163-0.012
	c0.037-0.004,0.052,0.016,0.057,0.059c0.007,0.088,0.023,0.177,0.024,0.268c0.002,0.137-0.044,0.199-0.188,0.219
	c-0.258,0.041-0.516,0.063-0.777,0.09c-0.031,0.002-0.042,0.021-0.039,0.045c0.004,0.021,0.007,0.063,0.011,0.086
	c0.004,0.021-0.004,0.047-0.032,0.05c-0.075,0.019-0.148,0.03-0.224,0.039c-0.028,0.004-0.051-0.002-0.054-0.027
	c-0.014-0.137-0.035-0.267-0.032-0.396c0.001-0.104,0.063-0.151,0.163-0.159c0.128-0.013,0.258-0.021,0.387-0.029
	C28.368,53.372,28.368,53.365,28.367,53.357z"/>
<path fill="#F4F4F4" d="M27.294,51.023c0.009-0.101,0.013-0.188,0.022-0.274c0.007-0.06,0.031-0.069,0.089-0.06
	c0.077,0.006,0.156,0.019,0.233,0.021c0.037,0.007,0.05,0.022,0.047,0.058c-0.007,0.094-0.015,0.184-0.024,0.271
	c-0.007,0.049-0.023,0.059-0.074,0.053c-0.076-0.007-0.15-0.011-0.227-0.018C27.305,51.08,27.295,51.068,27.294,51.023z"/>
<path fill="#F4F4F4" d="M27.489,53.475c0.04,0,0.081-0.002,0.122-0.009c0.036-0.005,0.051,0.013,0.055,0.046
	c0.007,0.063,0.014,0.125,0.02,0.188c0.003,0.022,0.014,0.055,0.017,0.071c0.006,0.043-0.011,0.067-0.05,0.074
	c-0.089,0.01-0.178,0.02-0.267,0.028c-0.03,0.007-0.044-0.013-0.046-0.04c-0.01-0.1-0.018-0.195-0.028-0.293
	c-0.001-0.031,0.014-0.044,0.04-0.048c0.047-0.002,0.093-0.007,0.14-0.009C27.488,53.479,27.489,53.475,27.489,53.475z"/>
<path fill="#FFFFFF" stroke="#010101" stroke-width="0.15" stroke-miterlimit="10" d="M33.535,36.522l0.922-2.291l0.482,0.575
	l1.934-3.481l0.545,2.287l-2.494,2.58l-0.42-0.677L33.535,36.522z M38.061,39.934l-0.724-0.864l3.419,0.222l-1.949-2.385
	l-3.471,0.654l1.012,0.623l-2.614,0.623L38.061,39.934z"/>
<path fill="#FFFFFF" stroke="#010101" stroke-width="0.15" stroke-miterlimit="10" d="M30.406,39.328
	c-0.781,0.922-3.27,1.293-3.522,1.215"/>
<path fill="#FFFFFF" stroke="#010101" stroke-width="0.15" stroke-miterlimit="10" d="M29.261,41.473l-1.477-0.614l-0.028-0.783
	l1.466-0.283L29.261,41.473z"/>
<path fill="#F4F4F4" d="M33.182,43.797l-3.262,0.225l-0.414-3.454l1.331-0.318c1.918,0.097,2.34,1.875,2.34,1.875L33.182,43.797z"/>
<path fill="#FFFFFF" stroke="#010101" stroke-width="0.15" stroke-miterlimit="10" d="M33.177,42.125c0,0-0.422-1.778-2.34-1.875
	l-1.331,0.318l0.414,3.454l3.262-0.225L33.177,42.125z"/>
<path fill="#FFFFFF" stroke="#010101" stroke-width="0.15" stroke-miterlimit="10" d="M30.751,40.39
	c0.127,0.536-0.204,1.074-0.74,1.202c-0.536,0.128-1.074-0.203-1.202-0.74c-0.127-0.536,0.203-1.074,0.74-1.202
	C30.085,39.522,30.624,39.854,30.751,40.39"/>
<path fill="#FFFFFF" d="M32.861,44.135L32.861,44.135c0.202,0.063,0.418-0.051,0.481-0.253l0.409-1.319
	c0.063-0.201-0.051-0.418-0.253-0.479s-0.418,0.053-0.48,0.254l-0.409,1.321C32.545,43.855,32.659,44.072,32.861,44.135"/>
<path fill="#F4F4F4" stroke="#010101" stroke-width="0.15" stroke-miterlimit="10" d="M32.861,44.135L32.861,44.135
	c0.202,0.063,0.418-0.051,0.481-0.253l0.409-1.319c0.063-0.201-0.051-0.418-0.253-0.479s-0.418,0.053-0.48,0.254l-0.409,1.321
	C32.545,43.855,32.659,44.072,32.861,44.135z"/>
<path fill="#F4F4F4" d="M31.033,41.073l-1.523-0.069c-0.297,0-0.541,0.243-0.542,0.541c0,0.298,0.243,0.542,0.54,0.542l0.542,0.001"
	/>
<path fill="#FFFFFF" stroke="#010101" stroke-width="0.15" stroke-miterlimit="10" d="M31.033,41.073l-1.523-0.069
	c-0.297,0-0.541,0.243-0.542,0.541c0,0.298,0.243,0.542,0.54,0.542l0.542,0.001"/>
<path fill="#F4F4F4" d="M30.047,43.171l-0.541-0.001c-0.298,0-0.542,0.243-0.542,0.54c0,0.298,0.243,0.542,0.541,0.543l0.541,0.001
	c0,0,2.05-0.041,2.577-0.48"/>
<path fill="#FFFFFF" stroke="#010101" stroke-width="0.15" stroke-miterlimit="10" d="M30.047,43.171l-0.541-0.001
	c-0.298,0-0.542,0.243-0.542,0.54c0,0.298,0.243,0.542,0.541,0.543l0.541,0.001c0,0,2.05-0.041,2.577-0.48"/>
<path fill="#F4F4F4" d="M30.481,42.072l-1.54-0.008c-0.297,0-0.542,0.242-0.542,0.541c0,0.297,0.243,0.541,0.541,0.543l1.491,0.041"
	/>
<path fill="#FFFFFF" stroke="#010101" stroke-width="0.15" stroke-miterlimit="10" d="M30.481,42.072l-1.54-0.008
	c-0.297,0-0.542,0.242-0.542,0.541c0,0.297,0.243,0.541,0.541,0.543l1.491,0.041"/>
</svg>
