<?xml version="1.0" encoding="utf-8"?>
<!-- Generator: Adobe Illustrator 22.1.0, SVG Export Plug-In . SVG Version: 6.00 Build 0)  -->
<svg version="1.1" id="Layer_1" xmlns="http://www.w3.org/2000/svg" xmlns:xlink="http://www.w3.org/1999/xlink" x="0px" y="0px"
	 viewBox="0 0 501 581" style="enable-background:new 0 0 501 581;" xml:space="preserve">
<style type="text/css">
	.st0{fill:#FFFFFF;stroke:#000000;stroke-width:3;stroke-miterlimit:10;}
	.st1{fill:none;stroke:#000000;stroke-width:3;stroke-miterlimit:10;}
	.st2{fill:none;stroke:#000000;stroke-width:3;stroke-linejoin:round;stroke-miterlimit:10;}
	.st3{fill:none;stroke:#000000;stroke-width:3;stroke-linecap:round;stroke-miterlimit:10;}
</style>
<path class="st0" d="M341.5,459.9c0,0,1.4,6.6-2,7.9s-21.3,0-21.6,15.4c0,0,0.1,4.7,12.3,4.7c12.2,0,24.9-6.3,33-5.6
	c3.2,0.3,3.5-2.4,2.3-5.1c-1.2-2.8-2-10-4.4-19.7C361.2,457.6,350.4,459.5,341.5,459.9z"/>
<path class="st0" d="M402.3,451.2c0,0,3.9,5.5,1.3,8.1c-2.6,2.5-19.6,8.3-13.8,22.6c0,0,1.9,4.3,13.2-0.5
	c11.3-4.8,20.4-15.5,28.2-18.1c3.1-1,2.3-3.6,0.1-5.7s-5.8-8.4-11.8-16.4C419.5,441.3,409.3,447.3,402.3,451.2z"/>
<path class="st1" d="M241.3,236.3c0,0,105.5-47.8,126.6-60.7c0,0-3.1-2.3-13.3-2.7c0,0-1.8,0.4-4.3-4.1s-33.8-55.1-74.7-32.7
	c-44.9,24.5-25.4,73.6-21.3,83.2c0,0-11.2,12-13,15C239.5,237.2,241.3,236.3,241.3,236.3z"/>
<path class="st1" d="M351.3,289.4c-1.5,9.8-11.6,35.2-18,43.4c-6.4,8.2-25.1,23.2-32.5,26.4c0,0,0.6-5.7-2.7-8.8
	c0,0,21.3-15.1,28.6-24.6s13.7-32.3,14.1-35.4C341.9,280.6,353.5,275.3,351.3,289.4z"/>
<path class="st1" d="M316.5,330.6c-5.9,2.4-11.2,5.5-17.4,4.7c0,0,4.9,4.8,4.1,11.3l14-11.3L316.5,330.6z"/>
<path class="st1" d="M300.9,359.2c0,0-5.7,5.9-11.3,0c-5.7-5.9-6.1-19.4-16.8-18c-10.8,1.4-9.8,1.4-12.1-0.1c0,0-2.9,2.8-5.1,0.9
	c-1.7-1.5-0.6-3.4-0.6-3.4s-1.4-3.5,1.8-6.2c3.1-2.7,20.9-10,28.2-0.8c7.2,9.2,10.8,17.8,13.3,18.8
	C300.7,351.4,300.9,359.2,300.9,359.2z"/>
<path class="st2" d="M299.1,335.3c-2.2-2.1-7.5-0.3-11.3-3.7c-3.8-3.4-11.1-11.3-24.4-2.6l0,0c6.8-2.3,16.5-3.7,21.4,2.6
	c6.7,8.5,10.2,16.4,12.7,18.4l0.6,0.4l5.1-3.7C303.2,346.7,304.4,340.4,299.1,335.3z"/>
<path class="st3" d="M260.6,341.1c-2-2-0.7-4.5,2.9-6.1c3.5-1.6,14.1-3.1,18.4,1.6"/>
<path class="st3" d="M254.9,338.6c0,0,2.5-5.4,12.9-6.9c10.5-1.4,14,1.7,14,1.7"/>
<path class="st1" d="M268.3,140.6c-1.6,1.3-4-4.7,1.5-7.9c4.4-2.5,9.3-4.8,12.2,0.5C282,133.2,273.1,136.8,268.3,140.6z"/>
<path class="st1" d="M289.9,265.3c5.5,1.2,6.5,7.4,8.2,10c1.8,2.5,4.8,4.1,10,2.7c0,0-5-3.6-8.5-10.1c-4.1-7.6-9.9-9.8-13.4-9.8
	S283.7,264,289.9,265.3z"/>
<path class="st1" d="M407.7,391.5c0-31.7-7.3-90.7-14.7-109.1c-7.3-18.5-46.1-96.5-46.1-96.5l-78.6,37.6c0,0,8.3,16,17.9,34.7
	c3.5,0,9.3,2.3,13.4,9.8c3.6,6.6,8.5,10.1,8.5,10.1c-5.2,1.4-8.3-0.2-10-2.7s-2.7-8.8-8.2-10l0,0c7.3,14.3,14.8,29.2,19.5,39
	c3.9,8.2,6.3,19.4,7.9,31.1c3.8-3.3,7.3-6.7,9.5-9.6c7.2-9.6,13.7-32.3,14.1-35.4c1.2-9.8,12.7-15.1,10.6-1
	c-1.5,9.8-11.6,35.2-18,43.4c-3,3.9-8.8,9.3-14.8,14.2c1.7,19.6,1.6,38.2,2.6,43.6c1.8,9.7-0.6,17.3,14.1,17s59.3-6.2,66.6-7
	S407.7,391.5,407.7,391.5z"/>
<path class="st0" d="M326.8,432.9c0,12.2,16.2,28.4,16.2,28.4l13.1-2.3c0,0-5.3-5.7-14.4-17.9c-6.2-8.3-1.8-16.7,0-19.1
	c1.7-2.2,7.8-9.2,8.9-15.3c-5.3,0.5-10,0.9-13.5,1C334.7,411,326.8,422.6,326.8,432.9z"/>
<path class="st0" d="M395.1,433.8c-9-5.2-8.2-14.7-7.5-17.5c0.5-2.2,2.6-8.5,2.6-14c-3.5,0.4-7.6,0.9-11.9,1.5l-0.2,0.1
	c0,0-4.6,17.1,0.2,28.3c4.8,11.2,24.4,19,24.4,19l11.9-6.9C414.5,444.2,408.2,441.4,395.1,433.8z"/>
<path class="st1" d="M281.1,234.5c3.2,1.6,6.8,8.7,6.3,13.5s-4,1.2-5.4-0.7C280.7,245.3,273.1,230.6,281.1,234.5z"/>
<path class="st1" d="M435.7,175.5v13.3c0,0-1.4,8.3-10.8,8.3s-11.3-8.4-11.3-10.8s0-10.8,0-10.8H435.7z"/>
<path class="st1" d="M413.6,107.2V93.9c0,0,1.4-8.3,10.8-8.3s11.3,8.4,11.3,10.8s0,10.8,0,10.8H413.6z"/>
<path class="st1" d="M436.1,431.8h-22.9V445c3.6-2.1,6.3-3.7,6.3-3.7c2.1,2.8,3.9,5.3,5.4,7.6H436v-17.1H436.1z"/>
<path class="st0" d="M431.3,457.6c-1.4-1.4-3.5-4.5-6.4-8.8c-1.6-2.3-3.3-4.8-5.4-7.6c0,0-2.7,1.6-6.3,3.7c-3.4,2-7.5,4.4-10.9,6.3
	c0,0,3.9,5.5,1.3,8.1s-19.6,8.3-13.8,22.6c0,0,1.9,4.3,13.2-0.5c11.3-4.8,20.4-15.5,28.2-18.1C434.3,462.3,433.5,459.7,431.3,457.6z
	"/>
<path class="st1" d="M275,232.7c0-2.7,0-6.5,7.5-7.2c5.5-0.6,2.8,2.1,0.5,2C279.1,227.2,275,232.7,275,232.7z"/>
<path class="st1" d="M302.8,217.6c3.1,2.2,4,7.6,0,9.8"/>
<path class="st1" d="M316.1,220.5c-3.6,1.1-8.5-1.4-7.8-5.9"/>
<path class="st1" d="M308.2,230.7c-0.1-3.8,3.7-7.8,7.9-5.9"/>
<path class="st1" d="M429.4,196.4v235.4h-9V196.9c0,0,2.5,0.2,4.6,0.2C427.1,197.1,429.4,196.4,429.4,196.4z"/>
<path class="st1" d="M446.5,107.6l-4,67.9h-35.2l-4-68.3c0,0,13.8,0.1,22,0.1C433.5,107.2,446.5,107.6,446.5,107.6z"/>
<path class="st1" d="M501.4,448.9H425l5,7.2c0,0,3.7,2.3,3.2,4.9s-2.7,1.5-5.4,3.9c-2.8,2.4-16.2,13.6-24.8,16.5s-9.6,3.4-13.2,0.5
	s-1.8-12.6,5.4-17.1c7.2-4.5,11.1-6.1,8.3-11.4c0,0-0.2-1.4-5.8-4.5h-50.1L356,459l5.1-1.4l4.4,19.7c0,0,2.9,4.9-2.3,5.1
	c-5.2,0.3-8.8-0.2-21.8,4.2c-13,4.4-22.3,0.2-23.5-3.3s5.2-12.5,12.1-13.7s14.2-0.7,11.4-9.6l-8.5-11.1h-48.8l-6.6,8.7
	c0,0-54.3,12.1-60.5,17.6h-18.6c0,0-10.8,28.5-43.3,28.5S109,475.2,109,475.2H0.9V581h500.5V448.9z"/>
<path class="st1" d="M140.5,459.5"/>
<path class="st1" d="M130.3,454.4c0,0,0.2-23.6,23.6-23.6s23.6,23.6,23.6,23.6S176,478,153.9,478S130.3,454.4,130.3,454.4z"/>
<path class="st1" d="M153.9,405.1c0,0,49.3,1.9,49.3,49.3c0,34.4-28.2,49.3-47.9,49.3c-17.7,0-50.7-15.9-50.7-49.3
	C104.6,405.3,153.9,405.1,153.9,405.1z"/>
<path class="st1" d="M424.7,154.7c-3,0-8.4,2-8.4,8.4c0,7.7,7.4,8.4,7.9,8.4s9-0.9,9-8.4C433.1,156.6,427.7,154.7,424.7,154.7z"/>
<path class="st1" d="M424.7,134.3c-3,0-8.4,2-8.4,8.4c0,7.7,7.4,8.4,7.9,8.4s9-0.9,9-8.4C433.1,136.3,427.7,134.4,424.7,134.3z"/>
<path class="st1" d="M424.7,113.5c-3,0-8.4,2-8.4,8.4c0,7.7,7.4,8.4,7.9,8.4s9-0.9,9-8.4C433.1,115.5,427.7,113.6,424.7,113.5z"/>
<path d="M278.1,238.7c2.3,0.1,4,1.8,5,3.4c1,1.6,2.9,8.5,0.5,6.4L278.1,238.7z"/>
<path class="st1" d="M264,404.4c0,0-6.7,0.1-6.7,4.1s4.7,4.1,6.7,4.1s6.7-0.5,6.7-4.1S264,404.4,264,404.4z"/>
<path class="st1" d="M0,298.4h70.1l56.5,40.5l128.1,2.2c0,0,2.3,3.4,5.8,0c0,0,1.3,2,4.7,1s11.1-0.9,12.3-0.4l-6.8,47l15.3,8.9v35.8
	h3.9v7.9l-12.3,16.3c0,0-50,10.6-60.5,17.6h-18c0,0-12.4,28.5-41.8,28.5s-43-19.6-48.2-28.5H0.9L0,298.4z"/>
<path class="st2" d="M286,397.6l10.4-35.9c0,0-5.7,1.7-9.6-6.4s-5.4-13.1-9.3-13.5l-6.8,47L286,397.6z"/>
<path class="st1" d="M445,175.5"/>
</svg>
