<?xml version="1.0" encoding="utf-8"?>
<!-- Generator: Adobe Illustrator 16.0.0, SVG Export Plug-In . SVG Version: 6.00 Build 0)  -->
<!DOCTYPE svg PUBLIC "-//W3C//DTD SVG 1.1//EN" "http://www.w3.org/Graphics/SVG/1.1/DTD/svg11.dtd">
<svg version="1.1" id="Layer_1" xmlns="http://www.w3.org/2000/svg" xmlns:xlink="http://www.w3.org/1999/xlink" x="0px" y="0px"
	 width="83px" height="83px" viewBox="0 0 83 83" enable-background="new 0 0 83 83" xml:space="preserve">
<path fill="#FFFFFF" stroke="#101010" stroke-width="0.15" stroke-miterlimit="10" d="M0.055,0.033h82.927V83H0.055V0.033z
	 M82.907,45.955H64.923c-1.569,0-2.844-1.246-2.844-2.784v-43.1h20.828V45.955z M70.841,19.9h-5.073
	c-0.506,0-0.922-0.415-0.922-0.922v-5.073c0-0.507,0.416-0.922,0.922-0.922h5.073c0.509,0,0.923,0.415,0.923,0.922v5.073
	C71.764,19.486,71.35,19.9,70.841,19.9z M80.602,18.979v-5.073c0-0.507-0.416-0.922-0.922-0.922h-5.072
	c-0.508,0-0.924,0.415-0.924,0.922v5.073c0,0.507,0.416,0.922,0.924,0.922h5.072C80.186,19.9,80.602,19.486,80.602,18.979z
	 M71.764,9.525V4.453c0-0.508-0.414-0.922-0.923-0.922h-5.073c-0.506,0-0.922,0.415-0.922,0.922v5.073
	c0,0.506,0.416,0.922,0.922,0.922h5.073C71.35,10.447,71.764,10.032,71.764,9.525z M80.602,9.525V4.453
	c0-0.508-0.416-0.922-0.922-0.922h-5.072c-0.508,0-0.924,0.415-0.924,0.922v5.073c0,0.506,0.416,0.922,0.924,0.922h5.072
	C80.186,10.447,80.602,10.032,80.602,9.525z M71.764,28.432V23.36c0-0.507-0.414-0.922-0.923-0.922h-5.073
	c-0.506,0-0.922,0.415-0.922,0.922v5.072c0,0.507,0.416,0.922,0.922,0.922h5.073C71.35,29.354,71.764,28.939,71.764,28.432z
	 M80.602,28.432V23.36c0-0.507-0.416-0.922-0.922-0.922h-5.072c-0.508,0-0.924,0.415-0.924,0.922v5.072
	c0,0.507,0.416,0.922,0.924,0.922h5.072C80.186,29.354,80.602,28.939,80.602,28.432z"/>
<path fill="#FFFFFF" stroke="#010101" stroke-width="0.15" stroke-miterlimit="10" d="M83.021,55.092V83H0.055V55.255h21.482
	l3.708-6.918h30.64l3.773,6.61L83.021,55.092z"/>
<path fill="#FFFFFF" stroke="#101010" stroke-width="0.15" stroke-miterlimit="10" d="M37.429,29.972
	c-0.507,0-1.265-0.087-2.111-0.477c-1.917-0.882-3.388-2.825-4.372-5.776c-0.707-2.119-1.238-7.299-1.26-7.519l1.3-0.131
	c0.006,0.052,0.539,5.255,1.2,7.237c2.019,6.056,5.583,5.341,5.618,5.333l0.282,1.275C38.065,29.919,37.821,29.972,37.429,29.972z
	 M53.359,30.609c0.479-1.684,0.675-3.339,0.684-3.408l-1.299-0.151c-0.001,0.016-0.193,1.631-0.646,3.214
	c-0.594,2.077-1.269,2.817-1.701,2.817c-0.679,0-1.951-1.406-2.599-2.355l0,0l-1.081,0.734c0.333,0.489,2.072,2.928,3.68,2.928
	C51.666,34.388,52.635,33.152,53.359,30.609z"/>
<path fill="#FFFFFF" stroke="#101010" stroke-width="0.15" stroke-miterlimit="10" d="M23.169,22.869
	c0.112,0.375,0.173,0.771,0.173,1.182c0,2.377-2.013,4.304-4.497,4.304c-2.483,0-4.496-1.927-4.496-4.304
	c0-0.228,0.019-0.45,0.054-0.668c-0.783-0.993-1.284-2.511-1.284-4.212c0-2.992,1.548-5.418,3.458-5.418
	c1.018,0,1.932,0.688,2.565,1.784c0.301-0.061,0.612-0.093,0.932-0.093c2.483,0,4.496,1.927,4.496,4.304
	C24.572,20.977,24.033,22.084,23.169,22.869z"/>
<path fill="#FFFFFF" stroke="#101010" stroke-width="0.15" stroke-miterlimit="10" d="M14.734,24.666
	c0,2.037-1.651,3.689-3.688,3.689c-1.301,0-2.444-0.674-3.101-1.692c-0.404,0.291-0.899,0.462-1.434,0.462
	c-1.358,0-2.459-1.102-2.459-2.459c0-0.327,0.064-0.639,0.181-0.925c-1.551-0.047-2.794-1.318-2.794-2.88
	c0-1.592,1.29-2.883,2.882-2.883c0.561,0,1.083,0.161,1.525,0.438c0.521-1.721,2.118-2.973,4.009-2.973
	c2.313,0,4.188,1.875,4.188,4.189c0,0.81-0.23,1.565-0.628,2.207C14.221,22.515,14.734,23.53,14.734,24.666z"/>
<path fill="#FFFFFF" stroke="#101010" stroke-width="0.15" stroke-miterlimit="10" d="M20.459,24.847
	c-0.068,0.009-5.071,0.717-5.071,3.55V42.42c0,0.87-0.706,1.575-1.576,1.575s-1.576-0.705-1.576-1.575V16.98
	c0-0.87,0.706-1.576,1.576-1.576s1.576,0.706,1.576,1.576v6.324c0.312-0.188,0.644-0.364,0.999-0.525
	c1.815-0.828,3.618-1.051,3.694-1.061c0.863-0.104,1.648,0.513,1.752,1.376C21.936,23.958,21.321,24.741,20.459,24.847z"/>
<path fill="#FFFFFF" stroke="#101010" stroke-width="0.15" stroke-miterlimit="10" d="M22.036,13.675c0,2.419-1.961,4.38-4.381,4.38
	c-0.907,0-1.749-0.274-2.448-0.747c-0.541,0.397-1.209,0.633-1.933,0.633c-0.415,0-0.81-0.078-1.175-0.218
	c-0.642,0.588-1.498,0.947-2.438,0.947c-1.995,0-3.612-1.618-3.612-3.612c0-0.052,0.002-0.103,0.004-0.154
	c-1.179-0.347-2.041-1.436-2.041-2.728c0-1.558,1.253-2.822,2.806-2.843c0-0.013-0.001-0.025-0.001-0.039
	c0-1.104,0.895-1.999,1.998-1.999c0.457,0,0.877,0.153,1.213,0.411c0.588-1.199,1.82-2.024,3.245-2.024
	c1.995,0,3.612,1.618,3.612,3.612c0,0.023-0.001,0.046-0.002,0.069c0.25-0.044,0.508-0.069,0.771-0.069
	C20.075,9.294,22.036,11.256,22.036,13.675z M25.511,20.522c0.11-0.513,0.084-1.061-0.106-1.591
	c-0.542-1.514-2.21-2.301-3.724-1.758c-1.237,0.444-1.988,1.638-1.926,2.887c-0.354-0.077-0.734-0.06-1.1,0.072
	c-1.042,0.374-1.583,1.521-1.21,2.563c0.367,1.022,1.478,1.562,2.504,1.229c-0.009,0.214,0.022,0.433,0.099,0.647
	c0.318,0.889,1.297,1.351,2.187,1.032c0.35-0.125,0.634-0.354,0.83-0.638c0.668,0.512,1.574,0.684,2.426,0.379
	c1.333-0.478,2.026-1.946,1.548-3.28C26.772,21.32,26.198,20.776,25.511,20.522z"/>
<path fill="#F4F4F4" stroke="#101010" stroke-width="0.15" stroke-miterlimit="10" d="M43.963,71.65h-4.928
	c-0.774,0-1.382-0.256-1.352-0.565l0.848-8.539c0.018-0.187,0.513-0.334,1.1-0.334h3.735c0.588,0,1.082,0.147,1.101,0.334
	l0.848,8.539C45.346,71.395,44.736,71.65,43.963,71.65z M46.497,83l-0.763-7.682c-0.036-0.375-0.75-0.676-1.584-0.676h-5.304
	c-0.833,0-1.546,0.301-1.583,0.676L36.501,83H46.497z"/>
<path fill="#F4F4F4" d="M31.639,18.661l-0.798,0.116c-0.223,0.033-0.432-0.123-0.464-0.345C30.344,18.208,30.5,18,30.722,17.967
	l0.798-0.117c0.223-0.033,0.432,0.123,0.464,0.345C32.018,18.419,31.862,18.628,31.639,18.661"/>
<path fill="#FFFFFF" stroke="#010101" stroke-width="0.15" stroke-miterlimit="10" d="M31.639,18.661l-0.798,0.116
	c-0.223,0.033-0.432-0.123-0.464-0.345C30.344,18.208,30.5,18,30.722,17.967l0.798-0.117c0.223-0.033,0.432,0.123,0.464,0.345
	C32.018,18.419,31.862,18.628,31.639,18.661z"/>
<path fill="#FFFFFF" stroke="#101010" stroke-width="0.15" stroke-miterlimit="10" d="M29.758,22.81L29.758,22.81
	c-0.585,0-1.064-0.479-1.064-1.063V2.837c0-0.585,0.479-1.064,1.064-1.064c0.584,0,1.063,0.479,1.063,1.064v18.909
	C30.822,22.332,30.343,22.81,29.758,22.81z"/>
<path fill="#F4F4F4" d="M52.663,25.857c0-0.637,0.479-1.153,1.065-1.153c0.59,0,1.067,0.516,1.067,1.153
	c0,0.637-0.478,1.153-1.067,1.153C53.143,27.01,52.663,26.494,52.663,25.857"/>
<path fill="#F4F4F4" stroke="#000000" stroke-width="0.15" stroke-miterlimit="10" d="M53.73,24.704
	c0.589,0,1.066,0.516,1.066,1.153s-0.478,1.153-1.066,1.153c-0.59,0-1.067-0.516-1.067-1.153S53.141,24.704,53.73,24.704z"/>
<path fill="#F4F4F4" d="M53.6,26.455c0,0.269-0.22,0.489-0.488,0.489c-0.27,0-0.416-0.23-0.488-0.489
	c-0.342-1.212,0.398-4.504,0.398-4.504c0.047-0.265,0.304-0.443,0.567-0.396c0.265,0.047,0.442,0.302,0.396,0.567L53.6,25.165"/>
<path fill="#FFFFFF" stroke="#010101" stroke-width="0.15" stroke-miterlimit="10" d="M53.6,26.455c0,0.269-0.22,0.489-0.488,0.489
	c-0.27,0-0.416-0.23-0.488-0.489c-0.342-1.212,0.398-4.504,0.398-4.504c0.047-0.265,0.304-0.443,0.567-0.396
	c0.265,0.047,0.442,0.302,0.396,0.567L53.6,25.165"/>
<path fill="#F4F4F4" d="M53.1,25.591l0.262-1.589c0.084-0.255,0.363-0.395,0.619-0.31c0.254,0.085,0.395,0.363,0.31,0.619
	l-0.149,0.92"/>
<path fill="#FFFFFF" stroke="#101010" stroke-width="0.15" stroke-miterlimit="10" d="M53.777,62.134
	c0,1.847-5.401,3.343-12.065,3.343c-6.665,0-12.067-1.496-12.067-3.343v-3.036h24.132V62.134z"/>
<path fill="#FFFFFF" stroke="#101010" stroke-width="0.15" stroke-miterlimit="10" d="M53.777,59.061
	c0,1.846-5.401,3.342-12.065,3.342c-6.665,0-12.067-1.496-12.067-3.342c0-1.849,5.402-3.345,12.067-3.345
	C48.376,55.716,53.777,57.212,53.777,59.061z"/>
<path fill="#FFFFFF" stroke="#010101" stroke-width="0.15" stroke-miterlimit="10" d="M53.1,25.591l0.262-1.589
	c0.084-0.255,0.363-0.395,0.619-0.31c0.254,0.085,0.395,0.363,0.31,0.619l-0.149,0.92"/>
<path fill="#FFFFFF" stroke="#101010" stroke-width="0.15" stroke-miterlimit="10" d="M39.15,59.58
	c-0.004,0.05-0.019,0.094-0.041,0.132c-0.095,0.24-0.64,0.459-1.881,0.638c-2.283,0.325-4.022-0.298-4.131-1.059
	c-0.095-0.664,0.469-2.169,4.74-0.541l0.545-8.914c0.023-0.371,0.345-0.652,0.713-0.631c0.37,0.021,0.652,0.342,0.63,0.712
	L39.15,59.58z M44.616,59.58c0.004,0.05,0.019,0.094,0.04,0.132c0.096,0.24,0.641,0.459,1.882,0.638
	c2.282,0.325,4.022-0.298,4.132-1.059c0.094-0.664-0.47-2.169-4.738-0.541l-0.548-8.914c-0.022-0.371-0.345-0.652-0.712-0.631
	c-0.371,0.021-0.652,0.342-0.63,0.712L44.616,59.58z"/>
<path fill="#FFFFFF" stroke="#101010" stroke-width="0.15" stroke-miterlimit="10" d="M47.796,19.133v29.977
	c0,1.008-0.815,1.822-1.821,1.822h-8.077c-1.006,0-1.822-0.814-1.822-1.822V19.133C42.314,22.014,47.796,19.133,47.796,19.133z"/>
<path fill="#F4F4F4" stroke="#101010" stroke-width="0.15" stroke-miterlimit="10" d="M39.582,26.492
	c-0.557,0-1.009-0.452-1.009-1.009c0-0.558,0.452-1.008,1.009-1.008s1.008,0.451,1.008,1.008S40.139,26.492,39.582,26.492z
	 M45.202,25.483c0-0.558-0.452-1.008-1.009-1.008s-1.01,0.451-1.01,1.008s0.453,1.009,1.01,1.009S45.202,26.04,45.202,25.483z"/>
<path fill="#F04949" d="M44.238,28.386c-0.037,1.241-1.053,2.236-2.303,2.236c-1.25,0-2.266-0.995-2.302-2.236
	c0.729,0.222,1.501,0.341,2.302,0.341S43.51,28.608,44.238,28.386z"/>
<path fill="#FFFFFF" stroke="#010101" stroke-width="0.25" stroke-linecap="round" stroke-miterlimit="10" d="M38.423,23.103
	c0.253-0.107,0.532-0.166,0.824-0.166c0.384,0,0.745,0.103,1.055,0.282 M45.298,23.219c-0.312-0.18-0.671-0.282-1.057-0.282
	c-0.291,0-0.569,0.059-0.822,0.166"/>
<path fill="#BFBFBF" d="M42.225,27.337c-0.061-0.425,0.77-0.769,1.537-0.192c0.768,0.576,1.537,1.729,2.689,1.153
	c0,0-0.577,0.576-1.537,0.384c-0.479-0.096-0.673-0.672-1.439-0.865C43.102,27.724,42.32,28.01,42.225,27.337z M41.836,27.337
	c0.061-0.425-0.768-0.769-1.537-0.192c-0.769,0.576-1.538,1.729-2.69,1.153c0,0,0.576,0.576,1.537,0.384
	c0.48-0.096,0.673-0.672,1.441-0.865C40.961,27.724,41.741,28.01,41.836,27.337z"/>
<path fill="#FFFFFF" stroke="#101010" stroke-width="0.15" stroke-miterlimit="10" d="M47.796,15.818v3.315c0,0-5.481,2.881-11.72,0
	v-3.315c0-2.66,2.219-4.854,5.094-5.19c-0.001-0.015-0.002-0.03-0.002-0.045c0-0.478,0.387-0.865,0.865-0.865
	c0.479,0,0.863,0.387,0.863,0.865c0,0.024-0.002,0.047-0.004,0.07C45.675,11.061,47.796,13.218,47.796,15.818z M49.824,20.788
	c-0.523-0.951-1.932-1.655-1.932-1.655h-0.098c0,0-5.48,2.881-11.72,0h-0.097c0,0-1.409,0.704-1.932,1.655
	c-0.208,0.378,0.146,0.825,0.567,0.73c0.644-0.146,1.439-0.349,2.518-0.08c1.538,0.384,3.074,1.153,4.803,1.153
	s3.267-0.769,4.805-1.153c1.077-0.27,1.872-0.066,2.517,0.08C49.68,21.613,50.034,21.166,49.824,20.788z"/>
<path fill="#F4F4F4" d="M54.045,27.568l-1.47-0.135c-0.269-0.024-0.47-0.265-0.444-0.535c0.023-0.269,0.266-0.47,0.534-0.445
	l1.47,0.135c0.27,0.024,0.471,0.265,0.445,0.535S54.314,27.593,54.045,27.568"/>
<path fill="#FFFFFF" stroke="#010101" stroke-width="0.15" stroke-miterlimit="10" d="M54.045,27.568l-1.47-0.135
	c-0.269-0.024-0.47-0.265-0.444-0.535c0.023-0.269,0.266-0.47,0.534-0.445l1.47,0.135c0.27,0.024,0.471,0.265,0.445,0.535
	S54.314,27.593,54.045,27.568z"/>
<path fill="#F4F4F4" stroke="#000000" stroke-width="0.15" stroke-miterlimit="10" d="M30.821,17.952v-0.562l0.155-0.186
	l-0.917-0.271c-0.289-0.073-0.465-0.369-0.392-0.658c0.073-0.29,0.369-0.466,0.659-0.393l0.874,0.233
	c0.58,0.142,0.998,1.138,0.544,1.662L30.821,17.952z"/>
<path fill="#F4F4F4" d="M29.253,16.588l-0.539-0.06c-0.295-0.033-0.511-0.302-0.478-0.598c0.033-0.297,0.303-0.512,0.598-0.479
	l0.539,0.061c0.296,0.033,0.511,0.302,0.478,0.598C29.819,16.407,29.55,16.622,29.253,16.588"/>
<path fill="#FFFFFF" stroke="#010101" stroke-width="0.15" stroke-miterlimit="10" d="M29.253,16.588l-0.539-0.06
	c-0.295-0.033-0.511-0.302-0.478-0.598c0.033-0.297,0.303-0.512,0.598-0.479l0.539,0.061c0.296,0.033,0.511,0.302,0.478,0.598
	C29.819,16.407,29.55,16.622,29.253,16.588z"/>
<path fill="#F4F4F4" d="M29.013,18.742l-0.539-0.06c-0.296-0.033-0.511-0.302-0.479-0.599c0.033-0.296,0.303-0.511,0.599-0.479
	l0.539,0.06c0.296,0.034,0.512,0.302,0.479,0.599C29.579,18.56,29.31,18.775,29.013,18.742"/>
<path fill="#FFFFFF" stroke="#010101" stroke-width="0.15" stroke-miterlimit="10" d="M29.013,18.742l-0.539-0.06
	c-0.296-0.033-0.511-0.302-0.479-0.599c0.033-0.296,0.303-0.511,0.599-0.479l0.539,0.06c0.296,0.034,0.512,0.302,0.479,0.599
	C29.579,18.56,29.31,18.775,29.013,18.742z"/>
<path fill="#F4F4F4" d="M29.457,17.701l-0.862-0.096c-0.296-0.033-0.511-0.303-0.479-0.599c0.033-0.296,0.303-0.512,0.599-0.479
	l0.861,0.096c0.296,0.033,0.512,0.303,0.479,0.599C30.022,17.52,29.752,17.735,29.457,17.701"/>
<path fill="#FFFFFF" stroke="#010101" stroke-width="0.15" stroke-miterlimit="10" d="M29.457,17.701l-0.862-0.096
	c-0.296-0.033-0.511-0.303-0.479-0.599c0.033-0.296,0.303-0.512,0.599-0.479l0.861,0.096c0.296,0.033,0.512,0.303,0.479,0.599
	C30.022,17.52,29.752,17.735,29.457,17.701z"/>
<path fill="#FFFFFF" stroke="#101010" stroke-width="0.15" stroke-miterlimit="10" d="M82.907,51.813H54.238
	c-2.59,0-4.483-2.444-3.836-4.953c1.099-4.25,4.846-7.258,9.195-7.447c0.766-4.78,5.42-8.458,11.049-8.458
	c5.731,0,10.453,3.813,11.088,8.719c-0.004,0.007-0.008,0.016-0.01,0.023c0.402,0.101,0.797,0.227,1.183,0.375V51.813z"/>
<path fill="#3D3D3D" stroke="#010101" stroke-width="0.15" stroke-miterlimit="10" d="M58.723,47.061
	c2.57,0,4.653,2.084,4.653,4.654s-2.083,4.654-4.653,4.654s-4.654-2.084-4.654-4.654S56.152,47.061,58.723,47.061z"/>
<path fill="#FFFFFF" stroke="#101010" stroke-width="0.15" stroke-miterlimit="10" d="M63.863,52.87
	c-0.639,0-1.155-0.517-1.155-1.155c0-2.197-1.788-3.984-3.985-3.984c-2.199,0-3.986,1.787-3.986,3.984
	c0,0.639-0.518,1.155-1.155,1.155s-1.154-0.517-1.154-1.155c0-3.471,2.824-6.296,6.296-6.296c3.473,0,6.297,2.825,6.297,6.296
	C65.02,52.354,64.5,52.87,63.863,52.87z"/>
<path fill="#FFFFFF" stroke="#101010" stroke-width="0.15" stroke-miterlimit="10" d="M55.146,40.686
	c0.299,0.435,0.473,0.961,0.473,1.528c0,1.499-1.217,2.716-2.715,2.716c-0.567,0-1.096-0.176-1.53-0.474
	C52.271,42.867,53.583,41.568,55.146,40.686z M68.471,32.571c-3.182,0.732-5.645,3.03-6.269,5.905
	c-0.103,0.473,0.073,0.968,0.446,1.276c1.021,0.84,3.256,1.481,5.998,1.693c0.773,0.06,1.437-0.549,1.437-1.325v-6.252
	C70.083,33.021,69.297,32.381,68.471,32.571z M71.212,33.869v6.252c0,0.776,0.662,1.384,1.437,1.325
	c2.742-0.213,4.976-0.854,5.996-1.693c0.375-0.308,0.553-0.803,0.447-1.276c-0.623-2.875-3.086-5.173-6.268-5.905
	C71.998,32.381,71.212,33.021,71.212,33.869z"/>
<path fill="#FFFFFF" stroke="#101010" stroke-width="0.15" stroke-miterlimit="10" d="M0.017,56.84h26.931l-0.066-6.474
	c-0.014-1.374-0.994-2.55-2.343-2.81l-3.333-1.828l-3.659-8.811c-0.559-1.346-1.874-2.223-3.33-2.223h-14.2V56.84z"/>
<line fill="#FFFFFF" x1="4.187" y1="45.846" x2="4.187" y2="54.666"/>
<path fill="#FFFFFF" stroke="#010101" stroke-width="0.15" stroke-miterlimit="10" d="M4.187,45.846v8.82"/>
<path fill="#FFFFFF" stroke="#101010" stroke-width="0.15" stroke-miterlimit="10" d="M26.883,50.57
	c-0.087-0.027-0.179-0.043-0.274-0.043h-0.923c-0.507,0-0.922,0.416-0.922,0.924v1.997c0,0.508,0.415,0.923,0.922,0.923h0.923
	c0.109,0,0.214-0.021,0.312-0.057L26.883,50.57z"/>
<path fill="#FFFFFF" stroke="#101010" stroke-width="0.15" stroke-miterlimit="10" d="M82.907,58.795H63.283v-3.357
	c0-2.146,1.207-4.109,3.121-5.08c3.263-1.653,8.772-4.979,8.772-4.979l6.914-10.502c0.228-0.347,0.505-0.652,0.815-0.912
	L82.907,58.795L82.907,58.795z"/>
<path fill="#3D3D3D" stroke="#010101" stroke-width="0.15" stroke-miterlimit="10" d="M82.907,56.336
	c-0.898-1.33-2.419-2.202-4.144-2.202c-2.761,0-4.996,2.236-4.996,4.995c0,2.76,2.235,4.996,4.996,4.996
	c1.725,0,3.244-0.873,4.144-2.202V56.336z"/>
<path fill="#FFFFFF" stroke="#101010" stroke-width="0.15" stroke-miterlimit="10" d="M82.907,43.988h-2.419
	c-0.926,0-1.482-1.031-0.973-1.807l3.392-5.149V43.988z"/>
<path fill="#F4F4F4" d="M58.723,49.873c1.017,0,1.842,0.824,1.842,1.842s-0.825,1.842-1.842,1.842c-1.018,0-1.843-0.824-1.843-1.842
	S57.705,49.873,58.723,49.873z"/>
<path fill="#F4F4F4" d="M78.764,57.15c1.093,0,1.979,0.887,1.979,1.979c0,1.093-0.886,1.979-1.979,1.979
	c-1.092,0-1.978-0.886-1.978-1.979C76.786,58.037,77.672,57.15,78.764,57.15z"/>
<path fill="#FFFFFF" stroke="#101010" stroke-width="0.15" stroke-miterlimit="10" d="M2.287,36.496h-2.27V44.6h2.271
	c0.552,0,0.999-0.449,0.999-1v-6.104C3.286,36.943,2.839,36.496,2.287,36.496z"/>
<g>
	
		<path fill="#BCBCBC" stroke="#020202" stroke-width="0.15" stroke-linecap="round" stroke-linejoin="round" stroke-miterlimit="10" d="
		M43.67,17.038l0.614-0.393l-0.726-0.382l0.455-0.844h-0.332c0.111-0.169,0.229-0.406,0.229-0.661c0-0.203-0.073-0.385-0.225-0.542
		c-0.185-0.196-0.41-0.296-0.668-0.296c-0.057,0-0.11,0.007-0.164,0.013l0,0c-0.484-0.41-1.035-0.021-1.035-0.021l0.026,0.017
		c-0.045-0.005-0.092-0.01-0.137-0.01c-0.256,0.001-0.481,0.101-0.669,0.296c-0.148,0.159-0.228,0.343-0.222,0.552
		c0,0.251,0.116,0.485,0.225,0.653l-0.469-0.001l0.456,0.844l-0.728,0.381l0.615,0.396l-0.456,0.727l0.78-0.014l-0.038,0.872
		l0.695-0.448l0.392,0.768l0.393-0.769l0.696,0.449l-0.037-0.871l0.78,0.014L43.67,17.038z M43.404,14.74
		c-0.006-0.109-0.031-0.211-0.084-0.307c-0.004-0.008-0.01-0.02-0.018-0.029c-0.025-0.045-0.058-0.087-0.097-0.13
		c0.032,0.008,0.06,0.018,0.09,0.031c0.202,0.087,0.308,0.261,0.294,0.487c0.001,0.025-0.004,0.051-0.009,0.078
		c-0.005,0.027-0.011,0.054-0.019,0.082c-0.015,0.053-0.035,0.109-0.061,0.165c-0.014,0.029-0.027,0.055-0.042,0.084
		c-0.04,0.069-0.091,0.136-0.146,0.199l-0.01,0.011l-0.004,0.01l-0.127-0.001c0.01-0.013,0.016-0.021,0.023-0.032
		c0.025-0.042,0.053-0.085,0.072-0.13c0.022-0.041,0.041-0.083,0.057-0.121c0.003-0.008,0.008-0.018,0.01-0.025
		c0.005-0.019,0.014-0.037,0.018-0.053c0.004-0.01,0.006-0.019,0.008-0.027c0.006-0.02,0.012-0.035,0.018-0.056
		c0-0.009,0.004-0.02,0.004-0.028c0.006-0.027,0.012-0.057,0.014-0.086C43.406,14.819,43.408,14.778,43.404,14.74z M41.625,14.771
		l-0.001-0.004c0,0,0.001-0.012,0-0.016c0-0.004,0-0.008,0-0.012l0.003-0.01c-0.001-0.001-0.001-0.005,0-0.008
		c0.001-0.005,0.001-0.012,0.004-0.02c0-0.004,0-0.01,0.001-0.014c0.002-0.007,0.004-0.016,0.005-0.022l0.004-0.015
		c0.002-0.002,0.004-0.007,0.003-0.013c0.001-0.002,0.003-0.015,0.003-0.015c0.001-0.005,0.001-0.008,0.005-0.014
		c0-0.001,0.001-0.005,0.005-0.006l-0.001-0.001c0.001-0.004,0.004-0.012,0.008-0.016c0-0.003,0-0.005,0.005-0.012
		c0-0.004,0.003-0.008,0.007-0.013c0.004-0.004,0.004-0.008,0.006-0.013c0.002-0.003,0.007-0.007,0.009-0.012
		c0.002-0.003,0.006-0.008,0.008-0.01c0.002-0.004,0.006-0.009,0.01-0.014c0.003-0.004,0.005-0.006,0.01-0.012
		c0.002-0.002,0.007-0.005,0.009-0.012c0.003-0.003,0.007-0.006,0.012-0.008c0.004-0.005,0.009-0.008,0.012-0.013v-0.001
		c0.003-0.004,0.007-0.006,0.01-0.007c0.003-0.004,0.008-0.007,0.017-0.011c0,0,0.007-0.008,0.012-0.009
		c0.004-0.002,0.008-0.006,0.016-0.011c0,0,0.009-0.006,0.013-0.007c0.004-0.003,0.013-0.008,0.02-0.011l0.01-0.008
		c0.012-0.004,0.022-0.01,0.034-0.016c0.036-0.015,0.076-0.021,0.115-0.022c0.034,0,0.071,0.002,0.112,0.013
		c0.025,0.006,0.052,0.012,0.076,0.021c0.008,0.042,0.014,0.082,0.019,0.121c0.004,0.039,0.007,0.079,0.006,0.112
		c0,0.135-0.03,0.521-0.054,0.787l-0.261-0.002c-0.002-0.007-0.004-0.012-0.006-0.02l-0.004-0.011l-0.009-0.01
		c-0.024-0.03-0.051-0.063-0.076-0.098c-0.005-0.007-0.011-0.013-0.016-0.02l-0.009-0.017c-0.006-0.005-0.012-0.014-0.014-0.021
		l-0.011-0.016c-0.003-0.006-0.008-0.016-0.013-0.022l-0.001-0.003c-0.019-0.03-0.032-0.06-0.047-0.091l-0.004-0.013
		c-0.004-0.005-0.005-0.011-0.009-0.016l-0.007-0.021c-0.002-0.006-0.004-0.014-0.006-0.022L41.655,15
		c0-0.006-0.003-0.014-0.005-0.02c0-0.007-0.002-0.012-0.004-0.016c-0.001-0.006-0.004-0.013-0.004-0.02
		c-0.002-0.004-0.003-0.009-0.002-0.016c-0.002-0.005-0.003-0.012-0.007-0.02c0-0.005,0-0.011-0.004-0.016
		c0.001-0.004,0-0.012,0-0.02c-0.001-0.006-0.001-0.012-0.001-0.016c-0.002-0.006-0.001-0.011-0.003-0.018
		c0.001-0.004,0-0.011-0.001-0.019c0-0.005,0.001-0.009-0.001-0.014c0.001-0.005,0-0.011,0-0.019v-0.001
		c0.001-0.004,0-0.008,0.001-0.012C41.621,14.778,41.625,14.775,41.625,14.771z M41.421,15.407l-0.008-0.009
		c-0.208-0.237-0.312-0.523-0.265-0.752c0.03-0.157,0.128-0.277,0.286-0.342c0.03-0.013,0.06-0.022,0.09-0.031
		c-0.132,0.146-0.201,0.317-0.198,0.509c0.001,0.244,0.119,0.477,0.223,0.635h-0.125L41.421,15.407z M42.564,15.419
		c-0.02-0.266-0.049-0.65-0.049-0.787c-0.002-0.034,0-0.071,0.004-0.111c0.006-0.04,0.012-0.08,0.021-0.121
		c0.034-0.009,0.068-0.021,0.104-0.026c0.028-0.005,0.056-0.007,0.078-0.007c0.047,0,0.084,0.008,0.118,0.021
		c0.013,0.006,0.022,0.012,0.036,0.016l0.01,0.007c0.01,0.004,0.016,0.008,0.021,0.011c0.001,0,0.013,0.007,0.013,0.007
		c0.009,0.003,0.011,0.007,0.017,0.011c0.004,0.001,0.008,0.003,0.01,0.004l0.004,0.003c0.004,0.002,0.01,0.006,0.015,0.011
		c0.003,0.002,0.005,0.004,0.011,0.008c0.004,0.004,0.008,0.009,0.012,0.012s0.007,0.007,0.011,0.009
		c0.004,0.004,0.01,0.009,0.013,0.013c0.004,0.002,0.006,0.006,0.01,0.01c0.002,0.005,0.006,0.009,0.01,0.014
		c0.003,0.003,0.002,0.007,0.008,0.011c0.004,0.004,0.005,0.008,0.007,0.012c0.005,0.003,0.007,0.008,0.009,0.012
		s0.006,0.009,0.01,0.016c0,0.003,0.004,0.007,0.004,0.01s0.005,0.007,0.01,0.014c0,0,0.002,0.011,0.004,0.011
		c0.001,0.007,0.003,0.009,0.005,0.018c0,0,0.003,0.008,0.005,0.012c0.004,0.003,0.001,0.007,0.002,0.011l0.006,0.015
		c0,0.008,0,0.016,0.002,0.022c0.004,0.003,0.002,0.01,0.004,0.015c0,0.008,0.002,0.013,0.002,0.021c0,0.001,0,0.004,0,0.006
		l0.002,0.011c-0.002,0.005,0,0.009,0,0.012c0,0.004,0,0.008,0,0.012l0.002,0.008c-0.002,0.004,0,0.008-0.002,0.013
		c0,0.002,0,0.008-0.002,0.012l0.002,0.008c0,0.002,0,0.006,0,0.012c0,0.003-0.002,0.01-0.002,0.015c0,0.004-0.002,0.012,0,0.018
		c0,0.006-0.004,0.011-0.004,0.016c0,0.006,0,0.011,0,0.017c-0.002,0.007-0.002,0.013-0.004,0.019c0,0.007-0.004,0.01-0.004,0.016
		c-0.002,0.008-0.002,0.014-0.005,0.02c-0.001,0.003-0.002,0.011-0.003,0.018c-0.003,0.005-0.004,0.011-0.007,0.018
		c0,0.004,0,0.009-0.005,0.016c-0.002,0.006-0.003,0.014-0.008,0.021c0,0.004-0.004,0.02-0.004,0.02
		c-0.006,0.006-0.006,0.013-0.008,0.021l-0.011,0.019c0.001,0.006-0.004,0.01-0.006,0.017l-0.009,0.017
		c-0.002,0.006-0.004,0.013-0.008,0.019h-0.002c-0.012,0.022-0.023,0.043-0.039,0.063v0.005c-0.004,0.006-0.008,0.015-0.014,0.022
		l-0.01,0.018c-0.004,0.004-0.008,0.012-0.014,0.018l-0.01,0.018c-0.004,0.005-0.011,0.014-0.016,0.022
		c-0.023,0.034-0.049,0.064-0.079,0.095l-0.006,0.012l-0.006,0.011c0.001,0.006-0.003,0.014-0.006,0.022L42.564,15.419
		L42.564,15.419z"/>
	
		<path fill="#BCBCBC" stroke="#020202" stroke-width="0.15" stroke-linecap="round" stroke-linejoin="round" stroke-miterlimit="10" d="
		M41.08,16.848c-0.001,0.661,0.533,1.196,1.195,1.196c0.656,0.002,1.193-0.533,1.195-1.192c0-0.001-0.002-0.002-0.003-0.003
		c0.003-0.66-0.53-1.194-1.192-1.195C41.616,15.654,41.081,16.187,41.08,16.848C41.08,16.848,41.08,16.848,41.08,16.848"/>
</g>
<path fill="#F4F4F4" d="M39.297,42.979c-0.107-0.027-0.215-0.063-0.325-0.088c-0.057-0.013-0.084-0.035-0.087-0.097
	c-0.03-0.539-0.065-1.074-0.096-1.614c-0.015-0.272-0.009-0.272,0.246-0.373c0.174-0.073,0.351-0.145,0.527-0.218
	c0.006-0.004,0.013-0.014,0.026-0.023c-0.064-0.049-0.125-0.094-0.186-0.147c-0.486-0.403-0.744-0.926-0.829-1.551
	c-0.057-0.414,0.006-0.815,0.129-1.208c0.017-0.053,0.031-0.086,0.089-0.089c0.089,0,0.102-0.054,0.105-0.13
	c0.016-0.484,0.037-0.964,0.056-1.451c0.003-0.054-0.017-0.119,0.083-0.114c0.065,0.002,0.041-0.063,0.042-0.101
	c0.02-0.46,0.042-0.92,0.055-1.385c0.002-0.103,0.035-0.128,0.132-0.114c0.118,0.019,0.233,0.029,0.368,0.042
	c-0.079-0.084-0.174-0.122-0.259-0.169c-0.054-0.035-0.078-0.07-0.062-0.131c0.131-0.588,0.262-1.179,0.392-1.77
	c0.012-0.059,0.048-0.071,0.097-0.073c0.708-0.076,1.414-0.149,2.119-0.223c0.692-0.074,1.388-0.146,2.079-0.227
	c0.078-0.008,0.091-0.001,0.081,0.082c-0.088,0.557-0.171,1.117-0.255,1.677c-0.012,0.089-0.035,0.176-0.038,0.266
	c-0.007,0.087-0.029,0.127-0.128,0.125c-0.135,0-0.271,0.015-0.406,0.022c-0.041,0.006-0.084,0.007-0.1,0.06
	c-0.02,0.058,0.031,0.071,0.064,0.09c0.121,0.068,0.241,0.139,0.365,0.202c0.072,0.035,0.087,0.072,0.063,0.144
	c-0.078,0.241-0.146,0.488-0.221,0.727c-0.033,0.11-0.049,0.224-0.053,0.335c-0.014,0.403-0.025,0.807-0.043,1.205
	c0,0.061,0.021,0.139-0.088,0.125c-0.043-0.003-0.038,0.042-0.038,0.067c-0.011,0.252-0.021,0.506-0.029,0.76
	c-0.002,0.053,0.017,0.105,0.028,0.15c0.197,0.732,0.156,1.436-0.238,2.102c-0.072,0.121-0.005,0.246,0.01,0.368
	c0.039,0.366,0.086,0.73,0.137,1.097c0.01,0.07-0.012,0.099-0.073,0.113c-0.138,0.044-0.272,0.092-0.407,0.145
	c-0.033,0.018-0.076,0.021-0.074,0.073c0.004,0.057,0.039,0.065,0.084,0.074c0.137,0.029,0.271,0.067,0.407,0.093
	c0.079,0.013,0.108,0.049,0.104,0.134c-0.008,0.232,0.008,0.458-0.01,0.695c-0.035,0.441,0.104,0.85,0.189,1.271
	c0.023,0.123,0.059,0.245,0.082,0.373c0.013,0.063,0.079,0.146-0.057,0.175c-0.033,0.015-0.018,0.061-0.01,0.075
	c0.038,0.171,0.086,0.339,0.111,0.511c0.014,0.08,0.085,0.063,0.116,0.119c0.282,0.481,0.491,1.002,0.491,1.568
	c-0.002,0.982-0.559,1.816-1.474,2.15c-0.919,0.342-1.787,0.252-2.531-0.43c-0.556-0.506-0.793-1.162-0.786-1.906
	c-0.001-0.1-0.042-0.205,0.058-0.283c0.023-0.02,0-0.063-0.009-0.098c-0.104-0.467-0.207-0.933-0.312-1.406
	c-0.013-0.053-0.039-0.104,0.054-0.11c0.052-0.017,0.023-0.063,0.017-0.103c-0.098-0.438-0.197-0.895-0.302-1.332
	c-0.025-0.104-0.029-0.168,0.112-0.176c0.131-0.004,0.261-0.039,0.395-0.061C39.296,42.997,39.296,42.984,39.297,42.979z"/>
<path fill="#020202" d="M37.235,39.516c0.068,0.074,0.139,0.007,0.205,0.011c0.102,0.01,0.107-0.05,0.102-0.125
	c-0.001-0.033,0.009-0.059,0.049-0.059c0.044,0.002,0.047,0.033,0.043,0.059c-0.021,0.112,0.041,0.126,0.131,0.124
	c0.167-0.005,0.331,0.009,0.496,0c0.125-0.009,0.208,0.026,0.256,0.145c0.013,0.031,0.031,0.059,0.053,0.096
	c-0.054,0.027-0.108,0.015-0.161,0.016c-0.221,0-0.441-0.006-0.66-0.005c-0.047,0.003-0.11-0.024-0.121,0.065
	c-0.003,0.049-0.057,0.029-0.064,0.001c-0.028-0.076-0.086-0.063-0.146-0.073c-0.176-0.023-0.272-0.158-0.245-0.332
	c0.009-0.046,0.027-0.087,0.069-0.117c0.037-0.023,0.077-0.027,0.119,0.003c0.034,0.019,0.051,0.056,0.041,0.099
	c-0.005,0.044-0.04,0.059-0.075,0.072C37.297,39.498,37.267,39.472,37.235,39.516z"/>
<path fill="#020202" d="M37.754,39.989c0.132,0.005,0.264,0.001,0.393,0.004c0.057,0.001,0.107-0.013,0.075-0.091
	c-0.011-0.02-0.022-0.05,0.01-0.063c0.027-0.009,0.048,0.008,0.063,0.031c0.055,0.077,0.065,0.166,0.033,0.252
	c-0.032,0.085-0.104,0.119-0.19,0.12c-0.236,0.004-0.474-0.004-0.71,0.001c-0.05,0.001-0.123-0.031-0.115,0.077
	c0.001,0.042-0.051,0.025-0.065-0.007c-0.037-0.076-0.079-0.16-0.033-0.242c0.038-0.079,0.118-0.08,0.197-0.083
	C37.528,39.99,37.639,39.991,37.754,39.989C37.753,39.99,37.753,39.99,37.754,39.989z"/>
<path fill="#020202" d="M38.091,39.222c-0.143,0.003-0.285,0.004-0.429,0.006c-0.044-0.007-0.08-0.029-0.102-0.068
	c-0.056-0.1-0.01-0.177,0.102-0.178c0.137,0.001,0.27,0,0.404,0.005c0.063-0.002,0.135-0.011,0.155,0.072
	c0.015,0.07-0.04,0.109-0.092,0.138C38.12,39.204,38.105,39.213,38.091,39.222z"/>
<path fill="#020202" d="M38.091,39.222c0.002-0.042,0.031-0.065,0.062-0.089c0.027-0.02,0.063-0.029,0.044-0.075
	c-0.021-0.044-0.055-0.059-0.1-0.059c-0.15-0.001-0.296-0.001-0.446-0.004c-0.033,0.002-0.075-0.01-0.086,0.031
	c-0.011,0.042-0.021,0.085,0.02,0.119c0.03,0.02,0.061,0.047,0.076,0.082c-0.018,0.022-0.03,0.051-0.049,0.072
	c-0.041,0.042-0.069,0.028-0.073-0.023c-0.005-0.084-0.002-0.162-0.005-0.241c-0.002-0.065,0.042-0.061,0.083-0.062
	c0.172,0.002,0.34,0.004,0.508,0.003c0.06,0,0.147,0.018,0.096-0.095c-0.009-0.021-0.003-0.045,0.022-0.051
	c0.031-0.012,0.048,0.016,0.061,0.033c0.051,0.08,0.059,0.169,0.018,0.252C38.277,39.22,38.19,39.239,38.091,39.222z"/>
<path fill="#020202" d="M37.171,39.118c0.009-0.09,0.061-0.143,0.146-0.14c0.083,0.001,0.143,0.057,0.137,0.146
	c-0.003,0.084-0.059,0.137-0.138,0.135C37.229,39.261,37.177,39.211,37.171,39.118z"/>
<path fill="#020202" d="M43.745,46.491c0.083,0.573-0.054,1.098-0.425,1.532c-0.592,0.681-1.358,0.896-2.216,0.686
	c-0.847-0.212-1.29-0.833-1.479-1.661c-0.031-0.144-0.03-0.28-0.035-0.432c-0.004-0.078,0.019-0.122,0.096-0.148
	c0.13-0.056,0.254-0.11,0.375-0.188c-0.098,0.015-0.198,0.023-0.294,0.049c-0.064,0.012-0.091-0.012-0.105-0.07
	c-0.091-0.406-0.184-0.818-0.277-1.226c-0.021-0.081,0.008-0.105,0.083-0.109c0.318-0.047,0.635-0.096,0.956-0.141
	c0.06-0.015,0.113-0.011,0.097-0.106c-0.012-0.082-0.049-0.094-0.125-0.078c-0.274,0.051-0.55,0.084-0.828,0.127
	c-0.088,0.021-0.136,0-0.155-0.101c-0.081-0.394-0.167-0.787-0.26-1.177c-0.022-0.096,0-0.107,0.089-0.123
	c0.495-0.07,0.989-0.145,1.482-0.223c0.029-0.008,0.061-0.004,0.086-0.033c-0.469-0.129-0.933-0.25-1.398-0.37
	c-0.233-0.062-0.231-0.06-0.242-0.3c-0.022-0.393-0.045-0.775-0.073-1.167c-0.006-0.088,0.022-0.128,0.102-0.158
	c0.388-0.148,0.776-0.311,1.159-0.472c0.003-0.05-0.034-0.037-0.055-0.047c-0.861-0.273-1.408-0.995-1.442-1.899
	c-0.008-0.237,0.015-0.472,0.077-0.702c0.022-0.07,0.053-0.11,0.136-0.119c0.219-0.025,0.438-0.069,0.66-0.128
	c-0.142-0.013-0.28-0.037-0.424-0.045c-0.084-0.01-0.114-0.034-0.111-0.124c0.022-0.413,0.039-0.83,0.055-1.244
	c0.002-0.066,0.022-0.092,0.088-0.072c0.089,0.019,0.188,0.002,0.273,0.039c0.016,0.106-0.048,0.194-0.081,0.29
	c-0.034,0.234,0.003,0.474-0.031,0.706c-0.01,0.079,0.064,0.079,0.116,0.088c0.283,0.043,0.569,0.073,0.853,0.105
	c0.414,0.042,0.823,0.092,1.233,0.135c0.036,0.001,0.065,0.015,0.098,0.024c0.191,0.069,0.191,0.069,0.112,0.271
	c-0.017,0.034-0.061,0.059-0.04,0.104c0.09,0.363,0.084,0.71-0.122,1.038c-0.073,0.117-0.157,0.229-0.293,0.287
	c-0.309,0.063-0.613,0.089-0.898-0.089c-0.313-0.193-0.458-0.486-0.491-0.844c-0.009-0.117-0.001-0.235,0.003-0.355
	c0.001-0.058-0.007-0.107-0.072-0.11c-0.23-0.001-0.456,0.014-0.654,0.143c-0.178,0.051-0.193,0.195-0.197,0.349
	c-0.012,0.408,0.06,0.792,0.284,1.139c0.26,0.398,0.635,0.625,1.091,0.724c0.053,0.016,0.107,0.021,0.159,0.04
	c0.095,0.036,0.194,0.013,0.29,0.024c0.043,0.006,0.099-0.003,0.112,0.045c0.014,0.059-0.035,0.08-0.076,0.105
	c-0.169,0.082-0.346,0.149-0.522,0.219c-0.299,0.109-0.583,0.253-0.879,0.366c-0.088,0.035-0.134,0.108-0.157,0.2
	c-0.036,0.06-0.061,0.118-0.055,0.188c0.022,0.239,0.044,0.483,0.043,0.732c-0.002,0.152,0.028,0.188,0.183,0.228
	c0.691,0.18,1.381,0.368,2.074,0.548c0.056,0.016,0.118,0.02,0.149,0.087c0,0.089-0.074,0.072-0.127,0.081
	c-0.578,0.098-1.157,0.186-1.737,0.258c-0.148,0.021-0.29,0.059-0.395,0.17c-0.079,0.032-0.088,0.096-0.072,0.168
	c0.04,0.17,0.082,0.336,0.118,0.506c0.019,0.102,0.063,0.136,0.157,0.111c0.248-0.035,0.494-0.07,0.741-0.104
	c0.17-0.02,0.209,0,0.242,0.166c0.027,0.146,0.063,0.287,0.046,0.439c-0.036,0.061-0.098,0.076-0.161,0.088
	c-0.138,0.019-0.271,0.055-0.411,0.06c-0.167,0.011-0.308,0.069-0.429,0.185c-0.074,0.024-0.078,0.076-0.063,0.149
	c0.035,0.171,0.066,0.339,0.113,0.51c0.036,0.133,0.051,0.142,0.187,0.119c0.717-0.101,1.43-0.22,2.146-0.317
	c0.065-0.015,0.136-0.022,0.202-0.018c0.162,0.033,0.174,0.107,0.048,0.268c-0.007,0.062,0.028,0.102,0.05,0.146
	c0.146,0.327,0.196,0.657,0.059,1.004c-0.028,0.065-0.057,0.133-0.115,0.178c-0.195,0.129-0.396,0.235-0.635,0.253
	c-0.1,0.008-0.199,0.006-0.252-0.105c0.05-0.041,0.113-0.033,0.171-0.041c0.402-0.071,0.609-0.336,0.585-0.742
	c-0.01-0.146-0.055-0.277-0.123-0.41c-0.043-0.078-0.105-0.113-0.195-0.102c-0.302,0.051-0.603,0.088-0.904,0.134
	c-0.084,0.021-0.111,0.063-0.121,0.14c-0.009,0.084,0.012,0.172-0.022,0.251c-0.065,0.036-0.065-0.021-0.072-0.059
	c-0.015-0.063-0.039-0.13-0.074-0.188c-0.047-0.08-0.116-0.105-0.201-0.066c-0.142,0.078-0.287,0.145-0.436,0.205
	c-0.1,0.033-0.146,0.133-0.215,0.207c-0.05,0.037-0.06,0.09-0.055,0.148c0.072,0.819,0.698,1.605,1.638,1.637
	c0.308,0.01,0.594-0.06,0.88-0.146c0.5-0.1,0.848-0.395,1.08-0.83c0.139-0.266,0.236-0.533,0.223-0.838
	C43.707,46.577,43.702,46.525,43.745,46.491z"/>
<path fill="#020202" d="M39.503,36.509c0.061-0.071,0.056-0.174,0.109-0.251c0.245,0.024,0.491,0.051,0.735,0.079
	c0.083,0.009,0.074-0.041,0.087-0.089c0.017-0.064-0.007-0.092-0.072-0.097c-0.28-0.03-0.564-0.069-0.845-0.092
	c-0.1-0.01-0.145-0.031-0.138-0.149c0.025-0.4,0.04-0.802,0.05-1.201c0.001-0.1,0.044-0.1,0.117-0.087
	c0.42,0.055,0.841,0.095,1.259,0.146c0.058,0.008,0.114,0.008,0.178-0.011c-0.162-0.092-0.323-0.196-0.484-0.291
	c-0.249-0.147-0.492-0.297-0.744-0.439c-0.087-0.047-0.115-0.09-0.09-0.195c0.102-0.419,0.193-0.842,0.282-1.263
	c0.014-0.072,0.042-0.102,0.12-0.109c1.186-0.126,2.371-0.253,3.557-0.385c0.084-0.008,0.112,0.004,0.099,0.098
	c-0.07,0.439-0.137,0.877-0.199,1.319c-0.01,0.074-0.039,0.104-0.117,0.105c-0.133,0-0.266,0.019-0.396,0.019
	c-0.078,0-0.102,0.035-0.113,0.102c-0.02,0.113-0.043,0.226-0.073,0.333c-0.026,0.091,0.001,0.143,0.085,0.18
	c0.109,0.051,0.211,0.122,0.322,0.175c0.062,0.032,0.086,0.066,0.061,0.14c-0.189,0.48-0.245,0.981-0.236,1.491
	c0.002,0.111-0.018,0.222-0.014,0.331c-0.001,0.082-0.025,0.097-0.104,0.087c-0.356-0.044-0.717-0.079-1.071-0.126
	c-0.087-0.011-0.103,0.022-0.116,0.098c-0.013,0.095,0.053,0.08,0.102,0.085c0.313,0.036,0.628,0.076,0.944,0.104
	c0.095,0.012,0.118,0.044,0.111,0.137c-0.017,0.302-0.017,0.604-0.041,0.898c-0.011,0.111,0.079,0.184,0.06,0.29
	c-0.135-0.014-0.257-0.076-0.383-0.13c-0.039-0.014-0.039-0.059-0.033-0.099c-0.002-0.06-0.007-0.114,0.03-0.161
	c0.106-0.016,0.144-0.073,0.147-0.181c0.013-0.154-0.011-0.31,0.008-0.467c0.01-0.096-0.061-0.136-0.144-0.145
	c-0.237-0.03-0.475-0.063-0.714-0.085c-0.239-0.022-0.313-0.117-0.281-0.352c0.009-0.066,0.015-0.135,0.02-0.2
	c0.002-0.063,0.022-0.118,0.089-0.14c0.275,0,0.55,0.05,0.824,0.079c0.089,0.009,0.18,0.025,0.229-0.08
	c0.116-0.052,0.156-0.141,0.16-0.27c0.006-0.125,0.025-0.245,0.02-0.368c-0.012-0.245,0.031-0.478,0.121-0.706
	c0.045-0.127,0.027-0.174-0.086-0.246c-0.031-0.017-0.065-0.034-0.098-0.051c-0.238-0.145-0.268-0.201-0.195-0.464
	c0.051-0.179,0.053-0.374,0.145-0.54c0.057-0.063,0.133-0.057,0.208-0.053c0.104,0.008,0.192-0.016,0.258-0.106
	c0.104-0.042,0.144-0.129,0.157-0.229c0.021-0.148,0.046-0.298,0.063-0.452c0.02-0.17-0.018-0.202-0.188-0.185
	c-0.456,0.04-0.911,0.106-1.369,0.146c-0.458,0.041-0.913,0.108-1.37,0.146c-0.08,0.007-0.147,0.036-0.197,0.095
	c-0.135,0.048-0.168,0.156-0.195,0.281c-0.046,0.22-0.091,0.439-0.149,0.656c-0.03,0.107,0.001,0.173,0.098,0.229
	c0.557,0.33,1.112,0.663,1.668,0.992c0.041,0.023,0.082,0.047,0.115,0.078c0.02,0.023,0.04,0.048,0,0.074
	c-0.132,0.035-0.269,0.022-0.4,0.007c-0.453-0.052-0.906-0.109-1.359-0.158c-0.122-0.014-0.214,0.013-0.303,0.091
	c-0.089,0.015-0.117,0.073-0.117,0.162c0.005,0.157-0.001,0.317-0.02,0.48c-0.018,0.125,0.007,0.146,0.132,0.166
	c0.221,0.031,0.443,0.05,0.664,0.075c0.066,0.009,0.127,0.014,0.186,0.041c0.048,0.015,0.089,0.048,0.083,0.097
	c-0.013,0.174-0.007,0.355-0.079,0.52c-0.038,0.045-0.09,0.034-0.141,0.038c-0.2,0.002-0.394-0.038-0.591-0.066
	c-0.113-0.015-0.207-0.004-0.285,0.084C39.599,36.552,39.544,36.56,39.503,36.509z"/>
<path fill="#020202" d="M42.545,37.721c-0.025,0.07,0.034,0.072,0.075,0.084c0.106,0.025,0.212,0.066,0.31,0.127
	c0.034,0.075,0.057,0.155,0.051,0.24c0.06,0.6-0.072,1.134-0.482,1.588c-0.053,0.053-0.063,0.095,0.016,0.134
	c0.068,0.037,0.088,0.11,0.125,0.168c0.051,0.197,0.055,0.4,0.088,0.601c0.021,0.145,0.033,0.295,0.06,0.44
	c0.011,0.078-0.007,0.121-0.091,0.148c-0.12,0.033-0.237,0.085-0.357,0.123c-0.07,0.02-0.097,0.054-0.091,0.125
	c0.017,0.13,0.022,0.26,0.024,0.396c0,0.062,0.043,0.082,0.096,0.093c0.126,0.021,0.255,0.067,0.383,0.086
	c0.088,0.014,0.107,0.06,0.102,0.135c-0.054,0.645,0.039,1.26,0.215,1.869c0.023,0.096,0.002,0.122-0.096,0.136
	c-0.346,0.042-0.688,0.097-1.032,0.149c-0.057,0.009-0.125,0-0.109,0.104c0.018,0.103,0.072,0.089,0.143,0.075
	c0.309-0.049,0.619-0.091,0.927-0.141c0.099-0.023,0.121,0.018,0.14,0.103c0.06,0.284,0.125,0.565,0.188,0.858
	c0.014,0.062,0.021,0.115,0.106,0.099c0.041-0.019,0.063,0.017,0.081,0.049c0.171,0.313,0.299,0.632,0.329,0.987
	c0.026,0.381-0.08,0.729-0.267,1.051c-0.172,0.313-0.434,0.53-0.744,0.688c-0.1,0.055-0.219,0.06-0.324,0.089
	c0.001-0.064,0.061-0.069,0.102-0.097c0.211-0.104,0.389-0.248,0.559-0.414c0.523-0.508,0.617-1.113,0.412-1.793
	c-0.021-0.063-0.043-0.142-0.072-0.215c-0.043-0.102-0.118-0.146-0.223-0.131c-0.133,0.021-0.27,0.024-0.402,0.045
	c-0.08,0.012-0.122,0.063-0.18,0.104c-0.074,0.025-0.146,0.064-0.228,0.018c0.011-0.021,0.026-0.025,0.048-0.031
	c0.067-0.016,0.079-0.063,0.075-0.121c-0.004-0.063-0.067-0.049-0.104-0.053c0.014-0.063,0.061-0.06,0.1-0.064
	c0.104-0.02,0.197-0.045,0.298-0.055c0.056-0.006,0.095-0.022,0.123-0.072c0.117-0.088,0.135-0.2,0.093-0.334
	c-0.033-0.103-0.061-0.223-0.087-0.329c-0.021-0.103-0.079-0.144-0.182-0.13c-0.235,0.02-0.47,0.061-0.7,0.1
	c-0.079,0.016-0.15,0.02-0.226-0.006c-0.062-0.02-0.108-0.059-0.121-0.117c-0.02-0.138-0.058-0.27-0.072-0.413
	c-0.004-0.045,0.001-0.091,0.037-0.126c0.043-0.042,0.101-0.042,0.154-0.052c0.248-0.044,0.492-0.071,0.739-0.108
	c0.058-0.01,0.105-0.021,0.132-0.08c0.11-0.066,0.125-0.166,0.092-0.281c-0.041-0.146-0.064-0.305-0.1-0.443
	c-0.037-0.164-0.06-0.324-0.023-0.488c0.004-0.02,0.002-0.021,0.005-0.035c0.026-0.32,0-0.357-0.312-0.447
	c-0.201-0.051-0.248-0.105-0.269-0.314c-0.022-0.229-0.036-0.453-0.009-0.686c0.035-0.074,0.113-0.083,0.181-0.107
	c0.073-0.022,0.147-0.043,0.188-0.118c0.071-0.062,0.119-0.124,0.106-0.229c-0.017-0.167-0.047-0.332-0.063-0.498
	c-0.01-0.108-0.051-0.127-0.146-0.09c-0.575,0.243-1.155,0.478-1.734,0.715c-0.335,0.143-0.669,0.268-1.008,0.41
	c-0.051,0.021-0.105,0.062-0.167,0.02c-0.013-0.111,0.067-0.19,0.147-0.218c0.438-0.188,0.879-0.359,1.321-0.539
	c0.063-0.023,0.126-0.052,0.184-0.113c-0.139-0.045-0.275,0.019-0.4-0.035c0.074-0.063,0.164-0.04,0.246-0.039
	c0.456,0.019,0.846-0.138,1.189-0.422c0.08-0.068,0.133-0.166,0.228-0.223c0.146-0.079,0.226-0.213,0.294-0.353
	c0.184-0.367,0.231-0.758,0.18-1.159c-0.016-0.12-0.072-0.183-0.192-0.206c-0.108-0.015-0.218-0.03-0.326-0.055
	c-0.108-0.027-0.196-0.008-0.271,0.081c-0.065,0.03-0.127,0.002-0.189-0.009c-0.034-0.073,0.029-0.043,0.054-0.051
	c0.056-0.083,0.082-0.203,0.221-0.186c-0.02-0.021-0.029-0.047,0.008-0.064C42.26,37.641,42.407,37.646,42.545,37.721z"/>
<path fill="#020202" d="M42.637,40.064c-0.084-0.055-0.121-0.159-0.229-0.189c-0.05-0.012-0.017-0.064,0.012-0.092
	c0.218-0.196,0.338-0.452,0.444-0.721c0.072-0.18,0.063-0.37,0.101-0.555c0.022-0.106,0.009-0.224,0.015-0.335
	c0.095,0.519,0.026,1.012-0.236,1.469C42.664,39.776,42.605,39.904,42.637,40.064z"/>
<path fill="#020202" d="M37.183,41.687c-0.004,0.147,0.04,0.286-0.016,0.435c-0.022,0.06,0.043,0.095,0.071,0.14
	c0.011,0.021,0.028,0.02,0.042-0.001c0.034-0.04,0.035-0.085,0.018-0.131c-0.01-0.036-0.014-0.071-0.021-0.104
	c0.066,0.104,0.16,0.107,0.262,0.106c0.182-0.006,0.364,0.001,0.545-0.001c0.056,0.002,0.112-0.011,0.141,0.064
	c0.012,0.02,0.033,0.045,0.062,0.025c0.028-0.021,0.018-0.046,0.018-0.064c0.002-0.151,0.006-0.315,0.002-0.474
	c-0.009-0.315-0.251-0.526-0.592-0.529C37.398,41.156,37.188,41.372,37.183,41.687z M38.008,41.467
	c0.074,0.021,0.138,0.061,0.177,0.131c0.103,0.19,0.055,0.268-0.148,0.265c-0.096-0.001-0.194,0.001-0.292-0.001
	c-0.131-0.001-0.262,0-0.393-0.002c-0.066,0.012-0.087-0.02-0.086-0.085c-0.001-0.147,0.082-0.272,0.241-0.313
	C37.674,41.419,37.842,41.422,38.008,41.467z"/>
<path fill="#020202" d="M37.269,42.516c-0.153,0.224-0.13,0.521,0.055,0.728c0.174,0.188,0.473,0.239,0.695,0.112
	c0.075-0.043,0.157-0.157,0.206-0.142c0.072,0.021,0.12,0.132,0.195,0.229c-0.06-0.271-0.238-0.436-0.383-0.612
	c-0.02-0.021-0.062-0.021-0.101-0.026c-0.063-0.021-0.14-0.009-0.178-0.074c-0.074-0.127-0.123-0.133-0.212-0.02
	c0.002-0.148,0.002-0.148,0.153-0.148c0.068,0.002,0.113,0.002,0.041-0.067c-0.021,0.016-0.045,0.022-0.069,0.022
	c-0.073,0.014-0.169-0.041-0.194,0.084c-0.014,0.07-0.088,0.141-0.054,0.229c0.02,0.05-0.019,0.061-0.047,0.07
	c-0.042,0.024-0.056,0.061-0.024,0.103c0.017,0.022,0.055,0.063,0.068,0.026c0.016-0.024,0.099-0.033,0.042-0.096
	c-0.013-0.018-0.036-0.033-0.005-0.053c0.011-0.007,0.024-0.009,0.036-0.004c0.023,0.014,0.052,0.031,0.04,0.057
	c-0.05,0.125,0.052,0.137,0.12,0.155c0.095,0.021,0.195,0.036,0.309,0.054c-0.026-0.064-0.071-0.063-0.114-0.065
	c-0.074-0.011-0.141-0.034-0.205-0.065c-0.05-0.025-0.042-0.068-0.02-0.109c0.028-0.053,0.057-0.008,0.081,0.016
	c0.112,0.071,0.237,0.124,0.364,0.18c0.1,0.031,0.085,0.069,0.02,0.139c-0.163,0.146-0.401,0.179-0.592,0.065
	c-0.192-0.106-0.29-0.331-0.239-0.551c0.05-0.228,0.218-0.356,0.46-0.385l0,0c0.32-0.015,0.557,0.233,0.527,0.554
	c-0.003,0.025-0.015,0.064-0.013,0.086s0.02,0.043,0.037,0.051c0.026,0.014,0.028-0.021,0.035-0.041
	c0.008-0.021,0.015-0.063,0.019-0.086c0.031-0.252-0.125-0.51-0.368-0.606C37.705,42.206,37.416,42.293,37.269,42.516z
	 M37.837,42.854c0.119,0.008,0.18,0.067,0.243,0.123C37.996,42.971,37.929,42.924,37.837,42.854z"/>
<path fill="#020202" d="M38.167,40.418c0.063,0.064,0.087,0.144,0.071,0.232c-0.019,0.105-0.151,0.199-0.271,0.176
	c-0.117-0.016-0.042-0.115-0.058-0.172c-0.008-0.025-0.001-0.054-0.002-0.077c0-0.063,0-0.133,0.001-0.204
	c0.001-0.043-0.018-0.063-0.061-0.058c-0.132,0.009-0.265,0.106-0.31,0.232c-0.073,0.192,0.006,0.403,0.185,0.504
	c0.187,0.089,0.419,0.021,0.54-0.145c0.112-0.164,0.094-0.433-0.038-0.561c-0.021-0.019-0.037-0.05-0.071-0.022
	C38.122,40.375,38.145,40.395,38.167,40.418z M37.758,40.827c-0.085-0.01-0.168-0.034-0.166-0.132
	c0.002-0.098,0.088-0.112,0.167-0.122c0.119-0.012,0.05,0.086,0.073,0.134C37.81,40.748,37.871,40.838,37.758,40.827z"/>
<path fill="#F04949" d="M42.45,40.928c0.006,0.061-0.024,0.088-0.083,0.103c-0.092,0.033-0.18,0.068-0.271,0.103
	c-0.146,0.083-0.145,0.21-0.127,0.357c0.018,0.165,0.035,0.336,0.032,0.503c-0.002,0.109,0.042,0.16,0.146,0.183
	c0.09,0.021,0.186,0.039,0.273,0.063c0.088,0.021,0.145,0.076,0.137,0.175c-0.027,0.451,0.025,0.899,0.148,1.341
	c0.008,0.029,0.004,0.063-0.007,0.104c0.014,0.08-0.027,0.098-0.097,0.104c-0.313,0.047-0.625,0.077-0.931,0.144
	c-0.155,0.086-0.155,0.086-0.133,0.264c0.018,0.111,0.032,0.229,0.05,0.339c0.013,0.091,0.053,0.121,0.148,0.106
	c0.288-0.047,0.577-0.086,0.866-0.135c0.158-0.02,0.189-0.004,0.225,0.147c0.037,0.171,0.081,0.341,0.115,0.512
	c0.008,0.044,0.014,0.086,0.002,0.126c0.002,0.067-0.03,0.098-0.098,0.106c-0.148,0.018-0.298,0.052-0.447,0.067
	c-0.385,0.035-0.761,0.106-1.143,0.161c-0.418,0.06-0.836,0.12-1.255,0.183c-0.116,0.021-0.145-0.021-0.163-0.118
	c-0.036-0.189-0.078-0.37-0.125-0.562c-0.029-0.102-0.018-0.168,0.108-0.174c0.258-0.102,0.536-0.102,0.804-0.15
	c0.09-0.02,0.155-0.045,0.174-0.144c-0.022-0.157-0.047-0.319-0.064-0.483c-0.011-0.09-0.051-0.104-0.136-0.093
	c-0.288,0.048-0.577,0.087-0.865,0.134c-0.079,0.017-0.105-0.012-0.12-0.08c-0.043-0.209-0.088-0.412-0.142-0.616
	c-0.028-0.104,0.006-0.146,0.105-0.153c0.131-0.063,0.271-0.064,0.407-0.091c0.687-0.104,1.372-0.208,2.071-0.313
	c-0.076-0.024-0.16-0.024-0.213-0.09c-0.519-0.142-1.034-0.277-1.553-0.412c-0.248-0.065-0.498-0.135-0.748-0.191
	c-0.093-0.021-0.125-0.065-0.127-0.153c-0.015-0.296-0.031-0.593-0.054-0.888c-0.003-0.064,0.021-0.106,0.075-0.144
	c0.369-0.132,0.722-0.289,1.082-0.437c0.569-0.225,1.133-0.462,1.701-0.69c0.038-0.018,0.081-0.024,0.121-0.037
	c0.034,0.021,0.048,0.061,0.054,0.101c0.032,0.21,0.063,0.426,0.082,0.637C42.471,40.854,42.457,40.892,42.45,40.928z"/>
<path fill="#F04949" d="M42.545,37.721c-0.152-0.016-0.304-0.031-0.456-0.045c-0.097,0.038-0.186-0.042-0.279-0.032
	c-0.352-0.041-0.705-0.086-1.056-0.128c-0.403-0.049-0.804-0.093-1.208-0.136c-0.05-0.01-0.098-0.012-0.092-0.078
	c0.029-0.27-0.001-0.532,0.046-0.794c0.051,0.001,0.104,0.005,0.152,0.005c0.163-0.041,0.317,0.017,0.478,0.022
	c0.102,0.007,0.204,0.014,0.301,0.034c0.102,0.021,0.172-0.01,0.216-0.105c0.021-0.171,0.046-0.342,0.066-0.515
	c0.008-0.064-0.039-0.07-0.087-0.076c-0.293-0.032-0.587-0.072-0.879-0.098c-0.087-0.011-0.116-0.041-0.111-0.127
	c0.014-0.221,0.023-0.439,0.026-0.654c0.001-0.133,0.097-0.071,0.153-0.085c0.092-0.044,0.186-0.01,0.273-0.002
	c0.66,0.075,1.322,0.153,1.982,0.225c0.009,0.003,0.019,0,0.023-0.008c-0.062-0.055-0.158-0.067-0.196-0.155
	c-0.426-0.257-0.857-0.516-1.288-0.775c-0.196-0.119-0.391-0.235-0.589-0.351c-0.075-0.043-0.093-0.087-0.074-0.172
	c0.064-0.269,0.128-0.54,0.179-0.816c0.021-0.108,0.064-0.173,0.179-0.183c0.156-0.076,0.331-0.063,0.497-0.08
	c0.786-0.088,1.578-0.174,2.365-0.256c0.206-0.022,0.233,0.007,0.207,0.209c-0.021,0.167-0.049,0.334-0.076,0.501
	c-0.009,0.044-0.015,0.093-0.05,0.129c-0.012,0.1-0.07,0.125-0.165,0.123c-0.099-0.002-0.196-0.006-0.29,0.023
	c-0.102,0.042-0.136,0.122-0.156,0.223c-0.041,0.195-0.078,0.392-0.125,0.584c-0.027,0.099,0.002,0.164,0.094,0.207
	c0.097,0.045,0.188,0.089,0.276,0.152c0.07,0.043,0.091,0.102,0.066,0.176c-0.011,0.034-0.019,0.063-0.031,0.098
	c-0.092,0.267-0.146,0.54-0.127,0.825c0.009,0.132-0.013,0.261-0.05,0.388c0.005,0.125-0.059,0.142-0.168,0.123
	c-0.307-0.038-0.611-0.065-0.917-0.098c-0.109,0.013-0.159,0.079-0.166,0.188c-0.008,0.111-0.021,0.229-0.036,0.337
	c-0.015,0.144-0.004,0.161,0.142,0.181c0.256,0.034,0.51,0.061,0.768,0.087c0.214,0.021,0.244,0.048,0.242,0.264
	c0.002,0.106,0.002,0.212,0,0.317c-0.004,0.063-0.002,0.126-0.047,0.177C42.557,37.612,42.552,37.664,42.545,37.721z"/>
<path fill="#F04949" d="M43.075,47.841c-0.19,0.204-0.421,0.353-0.665,0.478c-0.248,0.086-0.501,0.154-0.768,0.152
	c-0.772,0-1.386-0.414-1.664-1.139c-0.069-0.18-0.118-0.354-0.133-0.553c-0.009-0.081,0.018-0.125,0.086-0.154
	c0.171-0.135,0.381-0.189,0.574-0.279c0.042-0.018,0.083-0.021,0.107,0.027c0.041,0.107,0.036,0.232,0.065,0.35
	c0.091,0.36,0.27,0.662,0.646,0.78c0.249,0.077,0.501,0.058,0.737-0.065c0.142-0.066,0.248-0.181,0.36-0.283
	c0.192-0.271,0.206-0.581,0.129-0.898c-0.039-0.146-0.11-0.281-0.175-0.42c0.075-0.016,0.148-0.025,0.229-0.038
	c0.17-0.082,0.359-0.067,0.543-0.087c0.065-0.009,0.104,0.051,0.129,0.105c0.264,0.598,0.315,1.195-0.02,1.779
	C43.209,47.691,43.13,47.76,43.075,47.841z"/>
<path fill="#F04949" d="M42.346,39.681c-0.417,0.5-0.951,0.702-1.593,0.654c-0.024-0.001-0.051,0-0.076,0.001
	c-0.255-0.05-0.503-0.111-0.729-0.248c-0.535-0.324-0.789-0.814-0.834-1.428c-0.009-0.126,0.003-0.252,0.005-0.377
	c0.002-0.135,0.05-0.229,0.2-0.235c0.128-0.078,0.276-0.07,0.416-0.092c0.271-0.04,0.269-0.038,0.237,0.23
	c-0.023,0.207-0.015,0.407,0.048,0.604c0.161,0.505,0.626,0.694,1.102,0.598c0.116-0.021,0.229-0.063,0.335-0.115
	c0.268-0.177,0.388-0.439,0.424-0.742c0.02-0.192,0.002-0.39-0.052-0.578c0.059-0.054,0.125,0.014,0.185-0.004
	c0.211-0.028,0.411,0.019,0.612,0.071c0.054,0.014,0.072,0.07,0.079,0.125c0.068,0.47,0.045,0.929-0.195,1.35
	C42.466,39.563,42.408,39.623,42.346,39.681z"/>
<path fill="#F4F4F4" d="M41.637,38.383c-0.002,0.564-0.392,0.9-0.882,0.786c-0.219-0.052-0.373-0.186-0.451-0.392
	c-0.124-0.328-0.064-0.641,0.076-0.948c0.021-0.045,0.057-0.041,0.094-0.039c0.332,0.038,0.664,0.074,0.997,0.113
	c0.053,0.004,0.07,0.037,0.088,0.076C41.617,38.113,41.64,38.258,41.637,38.383z"/>
<path fill="#F4F4F4" d="M40.922,46.561c0.004-0.105-0.006-0.23,0.016-0.34c0.008-0.058,0.022-0.08,0.083-0.094
	c0.338-0.045,0.676-0.098,1.014-0.15c0.074-0.01,0.115,0.008,0.154,0.076c0.093,0.17,0.16,0.354,0.16,0.551
	c0.002,0.407-0.283,0.703-0.693,0.721c-0.032,0.001-0.065,0.001-0.101,0.001c-0.156,0.038-0.268-0.05-0.369-0.146
	c-0.17-0.15-0.245-0.354-0.282-0.576C40.903,46.588,40.911,46.572,40.922,46.561z"/>
<path fill="#020202" d="M41.458,39.269c-0.527,0.427-1.365,0.104-1.508-0.582c-0.04-0.208-0.046-0.418,0.007-0.627
	c0.028-0.102-0.009-0.104-0.087-0.095c-0.184,0.031-0.369,0.056-0.551,0.082c0.036-0.1,0.133-0.104,0.209-0.119
	c0.152-0.024,0.3-0.076,0.46-0.063c0.098,0.006,0.131,0.038,0.123,0.137c-0.021,0.287-0.021,0.572,0.131,0.837
	c0.225,0.383,0.565,0.512,0.955,0.473C41.284,39.304,41.374,39.284,41.458,39.269z"/>
<path fill="#020202" d="M40.922,46.561c0.021,0.078,0.039,0.164,0.064,0.242c0.093,0.275,0.266,0.471,0.566,0.522
	c0.208,0.124,0.408,0.06,0.604-0.022c0.093-0.042,0.178-0.103,0.266-0.146c-0.072,0.146-0.186,0.239-0.332,0.304
	c-0.586,0.223-1.054-0.125-1.25-0.581c-0.056-0.129-0.094-0.271-0.111-0.399c-0.006-0.064-0.02-0.147-0.125-0.101
	c-0.042-0.028-0.08,0-0.115,0.021c-0.189,0.082-0.373,0.156-0.559,0.234c0.074-0.14,0.186-0.218,0.333-0.268
	c0.106-0.033,0.205-0.098,0.306-0.143c0.136-0.064,0.186-0.043,0.265,0.09C40.887,46.384,40.885,46.477,40.922,46.561z"/>
<path fill="#020202" d="M41.832,43.034c0.113,0.024,0.229,0.056,0.342,0.081c-0.001,0.009-0.001,0.019,0,0.027
	c-0.174,0.021-0.349,0.053-0.521,0.08c-0.668,0.096-1.336,0.197-2.008,0.299c-0.023,0.006-0.051-0.002-0.076,0.002
	c0.101-0.186,0.29-0.174,0.454-0.196c0.544-0.076,1.092-0.144,1.633-0.245C41.715,43.074,41.796,43.129,41.832,43.034z"/>
<path fill="#020202" d="M40.794,44.833c0.037,0.101,0.019,0.149-0.102,0.169c-0.294,0.033-0.583,0.079-0.877,0.119
	c0.165-0.229,0.432-0.155,0.65-0.219C40.573,44.877,40.695,44.904,40.794,44.833z"/>
<path fill="#020202" d="M41.81,37.646c0.096-0.004,0.189,0.01,0.28,0.035c0.02,0.009,0.033,0.02,0.055,0.035
	c-0.093,0.028-0.195,0.046-0.204,0.173c0,0.005-0.037,0.007-0.055,0.013c0.001-0.022-0.007-0.05,0.003-0.063
	C41.971,37.728,41.953,37.662,41.81,37.646z"/>
<path fill="#020202" d="M43.253,33.181c0.033-0.231,0.06-0.462,0.101-0.691c0.021-0.112-0.016-0.127-0.117-0.115
	c-0.93,0.103-1.859,0.202-2.785,0.301c-0.046,0.005-0.092,0.002-0.139,0.005c0.073-0.172,0.241-0.131,0.374-0.145
	c0.328-0.034,0.657-0.074,0.986-0.115c0.184-0.021,0.366-0.042,0.553-0.052c0.375-0.026,0.748-0.094,1.125-0.125
	c0.116-0.01,0.172,0.025,0.164,0.141c-0.016,0.235-0.045,0.47-0.104,0.699C43.389,33.167,43.326,33.176,43.253,33.181z"/>
<path fill="#020202" d="M42.746,35.975c0.002-0.44-0.008-0.881,0.168-1.295c0.034-0.083,0.023-0.133-0.063-0.174
	c-0.104-0.046-0.199-0.115-0.302-0.157c-0.082-0.039-0.103-0.088-0.082-0.172c0.06-0.243,0.113-0.486,0.159-0.731
	c0.021-0.105,0.07-0.145,0.172-0.122c-0.046,0.222-0.087,0.442-0.146,0.66c-0.032,0.122,0.019,0.195,0.111,0.256
	c0.07,0.047,0.145,0.085,0.221,0.122c0.093,0.054,0.134,0.13,0.088,0.241c-0.086,0.207-0.151,0.417-0.133,0.648
	c0.017,0.19-0.019,0.377-0.028,0.57C42.906,35.927,42.846,35.974,42.746,35.975z"/>
<path fill="#020202" d="M42.563,37.554c0.006-0.187,0.004-0.371,0.019-0.557c0.012-0.122-0.041-0.146-0.147-0.158
	c-0.311-0.029-0.621-0.076-0.932-0.101c-0.089-0.009-0.105-0.044-0.094-0.123c0.02-0.154,0.04-0.313,0.056-0.466
	c0.016-0.178,0.014-0.177,0.199-0.148c-0.021,0.021-0.05,0.036-0.048,0.069c0.007,0.103-0.016,0.209-0.025,0.316
	c-0.012,0.152,0.05,0.225,0.207,0.243c0.264,0.03,0.527,0.053,0.792,0.084c0.095,0.013,0.175,0.073,0.158,0.163
	c-0.037,0.188,0.005,0.377-0.021,0.563C42.713,37.551,42.684,37.579,42.563,37.554z"/>
<path fill="#020202" d="M41.906,34.974c0.105,0.059,0.212,0.12,0.318,0.178c-0.002,0.014-0.008,0.028-0.009,0.041
	c-0.798-0.093-1.598-0.188-2.398-0.283c0.07-0.102,0.155-0.117,0.281-0.106c0.358,0.025,0.71,0.093,1.064,0.121
	C41.412,34.947,41.656,34.991,41.906,34.974z"/>
<path fill="#020202" d="M40.649,36.47c-0.001,0.165-0.002,0.172-0.155,0.15c-0.279-0.033-0.562-0.044-0.838-0.101
	c0.034-0.109,0.098-0.129,0.212-0.117C40.126,36.43,40.384,36.496,40.649,36.47z"/>
<path fill="#020202" d="M42.699,43.848c-0.139-0.44-0.215-0.899-0.172-1.379c0.013-0.127-0.021-0.188-0.157-0.208
	c-0.103-0.009-0.205-0.047-0.31-0.065c-0.066-0.016-0.094-0.041-0.097-0.111c-0.013-0.226-0.033-0.473-0.043-0.706
	c-0.006-0.212-0.048-0.185,0.175-0.242c-0.009,0.243-0.007,0.489,0.021,0.74c0.014,0.114,0.066,0.192,0.191,0.213
	c0.004,0.001,0.01,0.001,0.012,0c0.365,0.063,0.441,0.181,0.369,0.538c-0.031,0.15-0.01,0.303,0.019,0.443
	c0.03,0.185,0.065,0.356,0.118,0.527C42.859,43.742,42.818,43.813,42.699,43.848z"/>
<path fill="#020202" d="M43.075,47.841c0.118-0.194,0.248-0.388,0.31-0.614c0.143-0.5,0.051-0.969-0.154-1.427
	c-0.027-0.062-0.066-0.063-0.123-0.052c-0.168,0.018-0.336,0.035-0.504,0.053c0.069-0.177,0.239-0.104,0.363-0.143
	c0.038-0.024,0.085-0.001,0.127-0.01c0.237-0.053,0.303,0.002,0.385,0.229c0.103,0.284,0.162,0.572,0.137,0.875
	C43.575,47.188,43.418,47.561,43.075,47.841z"/>
<path fill="#020202" d="M42.939,45.452c-0.072-0.216-0.108-0.444-0.154-0.654c-0.018-0.082-0.042-0.112-0.135-0.094
	c-0.318,0.06-0.646,0.096-0.964,0.149c-0.075,0.015-0.118,0.004-0.126-0.092c-0.018-0.162-0.034-0.336-0.076-0.498
	c-0.035-0.142,0.027-0.162,0.137-0.164c0.018,0.002,0.036,0.002,0.052,0.002c-0.049,0.099,0.008,0.188,0.018,0.271
	c0.003,0.063,0.025,0.106,0.031,0.146c0.023,0.18,0.094,0.229,0.27,0.192c0.264-0.054,0.527-0.091,0.795-0.112
	c0.087-0.014,0.139,0.027,0.158,0.106c0.05,0.185,0.098,0.36,0.14,0.55C43.104,45.368,42.997,45.395,42.939,45.452z"/>
<path fill="#020202" d="M42.346,39.681c0.329-0.458,0.407-0.97,0.326-1.518c-0.014-0.083-0.035-0.13-0.135-0.141
	c-0.176-0.017-0.352-0.053-0.523-0.079c0.047-0.11,0.123-0.133,0.235-0.105c0.127,0.034,0.259,0.051,0.386,0.064
	c0.129,0.009,0.198,0.087,0.211,0.204c0.039,0.353,0.035,0.705-0.104,1.041C42.648,39.354,42.57,39.571,42.346,39.681z"/>
<path fill="#020202" d="M42.45,40.928c-0.039-0.28-0.079-0.566-0.12-0.844c0.004-0.043,0.025-0.074,0.074-0.068
	c0.051,0.009,0.076,0.043,0.096,0.088c0.055,0.12,0.023,0.25,0.055,0.375c0.019,0.074,0.026,0.153,0.031,0.233
	C42.589,40.822,42.553,40.894,42.45,40.928z"/>
<path fill="#020202" d="M41.3,41.886c0.002,0.034,0.007,0.066,0.009,0.104c0.005,0.063-0.018,0.085-0.079,0.073
	c-0.34-0.063-0.68-0.125-1.022-0.188c-0.036-0.008-0.061-0.025-0.061-0.07c-0.002-0.042,0.009-0.074,0.054-0.085
	c0.054-0.016,0.106-0.029,0.159-0.044c0.023-0.016,0.047-0.006,0.068,0.016c0.162,0.065,0.337,0.066,0.506,0.105
	c0.056,0.02,0.116,0.026,0.172,0.043C41.168,41.865,41.249,41.831,41.3,41.886z"/>
<path fill="#020202" d="M40.415,41.705c-0.012-0.021-0.034-0.018-0.055-0.019c0.272-0.103,0.557-0.183,0.833-0.271
	c0.059-0.021,0.087-0.009,0.089,0.064c0.002,0.143,0.034,0.271,0.018,0.419c-0.065-0.016-0.137,0.024-0.199-0.022
	c0.007-0.021,0.027-0.047,0.032-0.065c0.011-0.083,0.01-0.181-0.047-0.237c-0.05-0.057-0.12,0.008-0.178,0.019
	c-0.117,0.03-0.228,0.089-0.346,0.123C40.514,41.709,40.467,41.736,40.415,41.705z"/>
<path fill="#020202" d="M41.885,33.785c-0.021,0.24-0.021,0.24-0.235,0.134c-0.258-0.127-0.515-0.255-0.769-0.387
	c-0.043-0.021-0.102-0.03-0.088-0.103c0.013-0.077,0.074-0.073,0.127-0.076c0.057,0,0.116,0.006,0.175,0.007
	c0.034,0.03-0.032,0.049-0.006,0.076c0.202,0.072,0.384,0.186,0.572,0.277C41.745,33.72,41.824,33.719,41.885,33.785z"/>
<path fill="#020202" d="M41.044,33.448c-0.034-0.006-0.059-0.019-0.016-0.046c0.023-0.017,0.059-0.005,0.068-0.042
	c0.271-0.007,0.542-0.019,0.816-0.026c0.068-0.003,0.076,0.03,0.064,0.085c-0.029,0.121-0.061,0.242-0.091,0.363
	c-0.078-0.011-0.15-0.042-0.231-0.03c-0.001-0.061,0.016-0.116,0.025-0.174c0.021-0.114,0.001-0.134-0.112-0.142
	C41.396,33.423,41.219,33.473,41.044,33.448z"/>
<path fill="#020202" d="M40.608,46.371c0.016-0.021-0.017-0.075,0.038-0.076c0.05,0.007,0.084,0.034,0.103,0.084
	c0.034,0.104,0.033,0.223,0.071,0.331c0.125,0.373,0.338,0.663,0.742,0.758c0.174,0.04,0.356,0.04,0.534-0.011
	c-0.4,0.251-0.938,0.152-1.225-0.225C40.678,46.979,40.598,46.688,40.608,46.371z"/>
<path fill="#F0EFF0" d="M40.415,41.705c0.208-0.062,0.413-0.137,0.621-0.212c0.065-0.021,0.099-0.018,0.108,0.063
	c0.009,0.067,0.018,0.148,0.037,0.226c0.013,0.064-0.018,0.095-0.079,0.09c-0.195-0.033-0.391-0.069-0.586-0.107
	C40.478,41.746,40.43,41.763,40.415,41.705z"/>
<path fill="#EBECEC" d="M41.044,33.448c0.21-0.058,0.429-0.041,0.641-0.048c0.035,0,0.061,0.011,0.053,0.052
	c-0.021,0.103-0.008,0.212-0.082,0.301C41.458,33.641,41.256,33.531,41.044,33.448z"/>
<path fill="#020202" d="M42.661,40.615c0.155-0.014,0.313-0.029,0.471-0.041c0.045-0.002,0.091,0.012,0.136,0.018
	c0.01,0,0.021,0.02,0.028,0.003c0.042-0.013,0.082-0.021,0.125-0.053c-0.022-0.005-0.049-0.015-0.071-0.013
	c-0.06-0.003-0.115-0.004-0.17,0c-0.033,0-0.043-0.012-0.043-0.043c0.006-0.133,0.01-0.264,0.01-0.393
	c0-0.092,0.018-0.176,0.068-0.249c0.021-0.032,0.016-0.063,0-0.093c-0.054-0.128-0.07-0.264-0.059-0.398
	c0.014-0.145,0.055-0.275,0.14-0.386c0.079-0.106,0.19-0.173,0.327-0.197c0.038-0.008,0.078-0.014,0.119-0.019
	c-0.08-0.07-0.18-0.046-0.27-0.063c-0.054-0.013-0.105-0.021-0.162-0.027c-0.028-0.006-0.041-0.021-0.035-0.054
	c0.002-0.02,0.007-0.043,0.011-0.063c0.008-0.047-0.009-0.074-0.058-0.078c-0.078-0.008-0.155-0.004-0.23-0.013
	c-0.066-0.011-0.129-0.032-0.196-0.045c0.024-0.163,0.048-0.32,0.07-0.484c0.006-0.023,0.008-0.054,0.013-0.078
	c0.01-0.043,0.045-0.064,0.09-0.058c0.112,0.019,0.227,0.035,0.344,0.049c0.052,0.01,0.111,0.009,0.156,0.034
	c0.094,0.049,0.188,0.006,0.281,0.025c0.145,0.032,0.29,0.049,0.436,0.075c0.06,0.013,0.117,0.021,0.178,0.034
	c0.038,0.009,0.055-0.01,0.066-0.05c0.03-0.097-0.039-0.143-0.086-0.198c-0.006-0.011-0.043-0.004-0.057,0.006
	c-0.064,0.042-0.137,0.075-0.218,0.087c-0.146,0.027-0.354-0.054-0.44-0.181c-0.131-0.195-0.123-0.399-0.076-0.615
	c0.021-0.105,0.061-0.201,0.117-0.294c0.081-0.139,0.188-0.251,0.361-0.268c0.014-0.003,0.033-0.005,0.048,0
	c0.108,0.029,0.218,0.058,0.328,0.088c0.008,0.003,0.017,0.019,0.019,0.034c0.002,0.013-0.002,0.027-0.004,0.042
	c0,0.03,0.006,0.048,0.041,0.026c0.125-0.065,0.256-0.074,0.385-0.032c0.119,0.038,0.217,0.116,0.276,0.23
	c0.103,0.192,0.095,0.39,0.035,0.589c-0.042,0.154-0.121,0.29-0.235,0.408c-0.016,0.015-0.025,0.032-0.048,0.061
	c0.032,0.012,0.054,0.015,0.076,0.017c0.051,0.013,0.062,0.03,0.051,0.081c-0.022,0.091-0.036,0.18-0.055,0.271
	c-0.021,0.12-0.043,0.24-0.149,0.32c-0.035,0.026-0.074,0.047-0.109,0.082c0.039,0.004,0.078,0.013,0.117,0.01
	c0.066,0.009,0.074,0.019,0.059,0.09c-0.012,0.049-0.01,0.099-0.02,0.149c-0.012,0.083-0.019,0.172-0.037,0.258
	c-0.043,0.168-0.174,0.267-0.361,0.254c-0.189-0.017-0.383-0.043-0.574-0.061c-0.13-0.008-0.171,0.047-0.119,0.171
	c0.045,0.107,0.137,0.151,0.245,0.161c0.155,0.008,0.313,0.009,0.468,0.019c0.082,0.006,0.164,0.012,0.241,0.017
	c0.031,0.008,0.05,0.016,0.048,0.055c-0.007,0.344-0.014,0.686-0.023,1.031c-0.002,0.104-0.049,0.191-0.143,0.256
	c-0.004,0.003-0.011,0.008-0.013,0.014c-0.003,0.001-0.003,0.005-0.008,0.022c0.026,0.002,0.055,0.011,0.079,0.012
	c0.084-0.002,0.086-0.001,0.095,0.083c0.009,0.147,0.019,0.291,0.019,0.438c0.002,0.104-0.088,0.208-0.183,0.245
	c-0.121,0.041-0.249,0.041-0.372,0.061c-0.125,0.023-0.25,0.021-0.377,0.04c-0.068,0.008-0.087,0.053-0.048,0.104
	c0.06,0.086,0.147,0.117,0.245,0.107c0.224-0.018,0.443-0.059,0.665-0.082c0.038-0.012,0.089-0.021,0.114-0.014
	c0.023,0.02,0.017,0.07,0.022,0.105c0.019,0.145,0.041,0.279,0.06,0.432c0.008,0.06-0.004,0.062-0.063,0.066
	c-0.157,0.021-0.314,0.055-0.473,0.071c-0.119,0.024-0.24,0.044-0.361,0.063c-0.03,0.006-0.063,0.022-0.088,0.035
	c-0.012,0.008-0.016,0.043-0.01,0.059c0.023,0.061,0.074,0.097,0.133,0.109c0.078,0.023,0.158,0.012,0.238-0.003
	c0.076-0.019,0.146-0.034,0.224-0.051c0.128-0.022,0.255-0.054,0.386-0.075c0.072-0.016,0.071-0.009,0.084,0.063
	c0.012,0.07,0.033,0.145,0.049,0.221c0.019,0.087,0.031,0.178,0.047,0.268c0.004,0.021-0.004,0.047-0.035,0.055
	c-0.155,0.033-0.313,0.063-0.469,0.103c-0.133,0.033-0.267,0.065-0.398,0.103c-0.072,0.021-0.09,0.058-0.063,0.135
	c0.02,0.058,0.019,0.056-0.039,0.063c-0.15,0.038-0.299,0.076-0.445,0.115c-0.033,0.014-0.055,0.01-0.065-0.025
	c-0.017-0.052-0.028-0.103-0.04-0.146c-0.023-0.104-0.05-0.214-0.066-0.313c-0.006-0.041,0.004-0.088,0.014-0.127
	c0.014-0.061,0.012-0.103-0.023-0.146c-0.111-0.147-0.152-0.315-0.139-0.502c0.007-0.083,0.023-0.162,0.068-0.234
	c0.017-0.021,0.013-0.047-0.008-0.062c-0.092-0.104-0.147-0.229-0.17-0.355c-0.021-0.104-0.021-0.23,0.01-0.341
	c0.029-0.102,0.076-0.19,0.152-0.26c0.069-0.063,0.147-0.106,0.241-0.128c0.009-0.003,0.021-0.006,0.024-0.014
	c0.002-0.003,0.006-0.006,0.016-0.021c-0.033-0.005-0.061-0.015-0.087-0.014c-0.104,0.006-0.206,0.01-0.308,0.021
	c-0.071,0.008-0.086,0-0.088-0.067c-0.006-0.105-0.004-0.104-0.109-0.104c-0.125,0.007-0.252,0.008-0.381,0.01
	C42.659,41.018,42.661,40.816,42.661,40.615z M43.633,43.352c-0.027,0.039-0.063,0.073-0.068,0.112
	c-0.01,0.058-0.002,0.116,0.006,0.172c0.014,0.072,0.035,0.147,0.049,0.222c0.008,0.062,0.018,0.066,0.072,0.063
	c0.072-0.021,0.145-0.035,0.213-0.062c0.021-0.008,0.043-0.021,0.029-0.057c-0.007-0.027-0.011-0.059-0.019-0.088
	c-0.007-0.021,0.004-0.037,0.024-0.042c0.072-0.019,0.144-0.036,0.215-0.054c0.236-0.055,0.475-0.109,0.709-0.167
	c0.035-0.005,0.047-0.021,0.039-0.054c-0.016-0.065-0.029-0.121-0.041-0.19c-0.021-0.116-0.039-0.127-0.156-0.104
	c-0.084,0.021-0.166,0.037-0.25,0.059c-0.084,0.023-0.17,0.033-0.254,0.061c-0.131,0.023-0.242-0.012-0.348-0.082
	c-0.068-0.043-0.094-0.117-0.108-0.189c-0.011-0.063,0.009-0.105,0.056-0.141c0.078-0.059,0.164-0.061,0.25-0.067
	c0.09-0.021,0.182-0.027,0.27-0.042c0.123-0.018,0.246-0.044,0.369-0.063c0.047-0.008,0.063-0.017,0.056-0.068
	c-0.011-0.086-0.022-0.166-0.034-0.252c-0.005-0.029-0.023-0.055-0.059-0.047c-0.082,0.02-0.166,0.02-0.248,0.033
	c-0.09,0.02-0.178,0.021-0.266,0.041c-0.125,0.028-0.24,0.021-0.355-0.041c-0.094-0.058-0.167-0.147-0.157-0.271
	c0.004-0.047,0.019-0.086,0.063-0.105c0.053-0.025,0.107-0.039,0.164-0.05c0.203-0.022,0.412-0.044,0.617-0.061
	c0.102-0.011,0.17-0.086,0.166-0.189c-0.005-0.102-0.017-0.192-0.021-0.299c-0.006-0.035-0.027-0.047-0.063-0.043
	c-0.041,0.006-0.086,0.012-0.129,0.017c-0.122-0.001-0.122-0.001-0.122,0.117c0.003,0.03-0.006,0.05-0.041,0.052
	c-0.153,0.009-0.31,0.017-0.462,0.027c-0.068,0.011-0.139,0.018-0.201,0.042c-0.061,0.021-0.121,0.052-0.168,0.085
	c-0.092,0.076-0.132,0.178-0.141,0.303c-0.006,0.153,0.01,0.301,0.109,0.43c0.035,0.049,0.078,0.084,0.117,0.129
	c0.014,0.021,0.043,0.025,0.016,0.062c-0.063,0.06-0.096,0.122-0.114,0.203c-0.04,0.177,0.004,0.327,0.099,0.472
	C43.546,43.266,43.593,43.309,43.633,43.352z M43.977,40.236c0.213,0.006,0.392,0.017,0.568,0.025c0.038,0,0.064-0.021,0.066-0.061
	c0.002-0.087,0.002-0.176,0.004-0.265c-0.001-0.032-0.012-0.048-0.045-0.048c-0.193-0.006-0.389-0.021-0.58-0.033
	c-0.038-0.002-0.072,0-0.108-0.009c-0.157-0.046-0.266-0.151-0.28-0.325c-0.006-0.075-0.015-0.155,0.056-0.21
	c0.062-0.05,0.135-0.051,0.209-0.042c0.032,0.002,0.065,0.015,0.102,0.014c0.124,0.008,0.249,0.021,0.374,0.032
	c0.049,0.006,0.1,0.01,0.147,0.011c0.086-0.001,0.149-0.04,0.171-0.124c0.031-0.11,0.043-0.232,0.061-0.342
	c0-0.016-0.022-0.041-0.037-0.045c-0.063-0.014-0.129-0.024-0.194-0.037c-0.072-0.01-0.083,0-0.095,0.073
	c-0.012,0.088-0.012,0.088-0.096,0.074c-0.008-0.001-0.02-0.003-0.021-0.002c-0.072-0.009-0.148-0.018-0.225-0.025
	c-0.121-0.007-0.236-0.017-0.355-0.022c-0.066-0.009-0.127,0.022-0.188,0.049c-0.14,0.071-0.198,0.197-0.225,0.336
	c-0.031,0.186-0.026,0.372,0.093,0.535c0.014,0.018,0.02,0.033-0.004,0.046c-0.094,0.053-0.109,0.148-0.121,0.241
	c-0.009,0.076-0.004,0.15-0.004,0.232c-0.001,0.053,0.01,0.062,0.063,0.061c0.071,0.004,0.143,0.006,0.209,0
	c0.049-0.002,0.06-0.012,0.057-0.06c-0.002-0.02,0.002-0.037,0-0.063c-0.012-0.052,0.017-0.056,0.061-0.053
	C43.759,40.237,43.885,40.235,43.977,40.236z M45.066,37.223c0.014-0.16-0.071-0.343-0.189-0.413
	c-0.118-0.068-0.307-0.074-0.419,0.021c-0.093,0.081-0.164,0.181-0.233,0.279c-0.047,0.063-0.095,0.128-0.139,0.193
	c-0.023,0.026-0.061,0.04-0.085,0.019c-0.021-0.013-0.039-0.043-0.04-0.066c-0.008-0.073,0.01-0.148,0.048-0.214
	c0.025-0.037,0.056-0.047,0.095-0.032c0.051,0.017,0.076,0.005,0.09-0.048c0.013-0.043,0.021-0.084,0.031-0.124
	c0.012-0.043,0.024-0.084,0.035-0.125c0.006-0.026,0-0.048-0.035-0.053c-0.027-0.002-0.056-0.014-0.078-0.022
	c-0.117-0.041-0.217-0.016-0.299,0.079c-0.082,0.092-0.134,0.198-0.168,0.311c-0.031,0.11-0.051,0.223-0.037,0.339
	c0.019,0.165,0.084,0.29,0.252,0.347c0.123,0.042,0.229,0.007,0.326-0.064c0.104-0.076,0.168-0.188,0.247-0.293
	c0.054-0.067,0.109-0.137,0.167-0.202c0.023-0.026,0.083-0.062,0.104-0.031c0.021,0.03,0.015,0.103,0.01,0.137
	c-0.016,0.067-0.04,0.14-0.076,0.197c-0.043,0.072-0.113,0.124-0.189,0.169c-0.039,0.024-0.043,0.045-0.016,0.078
	c0.037,0.054,0.077,0.098,0.115,0.146c0.041,0.061,0.063,0.063,0.125,0.024c0.095-0.064,0.167-0.144,0.227-0.242
	C45.016,37.511,45.059,37.374,45.066,37.223z M43.71,38.024c-0.125-0.006-0.187,0-0.229,0.124c-0.033,0.087-0.045,0.189-0.064,0.28
	c-0.006,0.03-0.009,0.063-0.008,0.095c0.002,0.019,0.021,0.039,0.035,0.042c0.068,0.014,0.141,0.022,0.211,0.039
	c0.058,0.006,0.064-0.006,0.07-0.066c0.008-0.108,0.008-0.108,0.114-0.096c0.011,0,0.019,0.001,0.024,0.003
	c0.119,0.02,0.236,0.042,0.359,0.063c0.107,0.013,0.217,0.033,0.324,0.045c0.15,0.022,0.227-0.045,0.246-0.174
	c0.014-0.084,0.032-0.166,0.05-0.249c0.009-0.035,0-0.05-0.038-0.06c-0.066-0.013-0.136-0.028-0.203-0.042
	c-0.041-0.01-0.063-0.006-0.074,0.035c-0.002,0.023-0.01,0.042-0.01,0.063c0.002,0.035-0.018,0.054-0.053,0.047
	c-0.063-0.014-0.122-0.024-0.186-0.038c-0.104-0.018-0.207-0.04-0.312-0.055C43.874,38.051,43.771,38.035,43.71,38.024z
	 M43.829,40.671c0.002,0.008,0,0.021,0,0.021c-0.131,0-0.261-0.001-0.39-0.001c-0.101,0-0.168,0.042-0.174,0.143
	c-0.013,0.127-0.002,0.261,0,0.396c-0.002,0.022,0.022,0.031,0.051,0.028c0.076-0.007,0.15-0.016,0.227-0.021
	c0.025-0.003,0.041-0.021,0.038-0.047c-0.003-0.021-0.004-0.058-0.004-0.083c-0.004-0.027,0.01-0.042,0.04-0.046
	c0.263-0.005,0.523-0.017,0.781-0.022c0.147-0.01,0.195-0.072,0.205-0.21c0.008-0.087,0-0.176-0.002-0.262
	c-0.002-0.038-0.016-0.062-0.052-0.058c-0.055-0.007-0.108-0.008-0.165-0.002c-0.101-0.003-0.104,0.002-0.103,0.103
	c-0.001,0.004,0,0.011,0.001,0.022c0,0.023-0.016,0.042-0.043,0.041C44.102,40.673,43.962,40.674,43.829,40.671z M42.947,38.26
	c-0.004,0.043,0.006,0.056,0.063,0.062c0.078,0.011,0.151,0.022,0.229,0.035c0.05,0.008,0.064,0,0.076-0.047
	c0.017-0.09,0.031-0.179,0.047-0.267c0.006-0.033-0.008-0.058-0.043-0.064c-0.077-0.013-0.154-0.025-0.231-0.042
	c-0.058-0.013-0.081-0.003-0.091,0.054C42.977,38.075,42.964,38.162,42.947,38.26z M42.941,40.718l0.002,0.002
	c-0.043,0.002-0.094,0-0.139-0.004c-0.027,0.005-0.046,0.018-0.045,0.048c0.002,0.1,0.002,0.194,0.004,0.294
	c0,0.027,0.014,0.047,0.043,0.045c0.09-0.001,0.178-0.004,0.27-0.008c0.037-0.003,0.057-0.024,0.058-0.065
	c-0.002-0.023-0.01-0.054-0.012-0.076c-0.004-0.063-0.004-0.123-0.004-0.19c-0.003-0.031-0.019-0.052-0.056-0.049
	C43.023,40.722,42.982,40.721,42.941,40.718z M44.238,38.794c0.037,0.007,0.051-0.006,0.052-0.042
	c0.004-0.021,0.008-0.05,0.011-0.072c0.008-0.035-0.008-0.053-0.046-0.057c-0.106-0.016-0.213-0.035-0.321-0.055
	c-0.066-0.008-0.084,0.002-0.086,0.072c-0.002,0.024-0.008,0.052-0.004,0.081c0.002,0.011,0.021,0.035,0.034,0.036
	C43.998,38.771,44.118,38.783,44.238,38.794z M44.029,41.167c0.002-0.002,0-0.003,0-0.003c-0.084,0.004-0.168,0.009-0.254,0.019
	c-0.051,0.008-0.062,0.018-0.055,0.063c0.002,0.023,0.006,0.058,0.006,0.074c0,0.025,0.019,0.043,0.047,0.04
	c0.119-0.018,0.242-0.02,0.361-0.031c0.03-0.003,0.045-0.021,0.041-0.043c-0.005-0.043,0.023-0.095-0.027-0.124
	c-0.006-0.006-0.02-0.003-0.032-0.005C44.09,41.167,44.063,41.165,44.029,41.167z M43.936,40.363L43.936,40.363
	c-0.035-0.003-0.067-0.006-0.104-0.005c-0.146,0-0.124-0.012-0.127,0.129c0.001,0.038,0.016,0.055,0.05,0.054
	c0.095-0.002,0.188-0.002,0.278-0.004c0.137,0.001,0.117,0.008,0.127-0.118c0.001-0.049-0.006-0.061-0.053-0.059
	C44.052,40.361,43.992,40.362,43.936,40.363z"/>
<path fill="#F4F4F4" d="M43.633,43.352c-0.04-0.043-0.086-0.086-0.123-0.137c-0.09-0.14-0.134-0.297-0.097-0.471
	c0.021-0.081,0.052-0.151,0.112-0.205c0.027-0.023,0-0.041-0.017-0.055c-0.038-0.045-0.081-0.086-0.116-0.133
	c-0.098-0.125-0.113-0.271-0.107-0.427c0.008-0.126,0.051-0.23,0.142-0.308c0.048-0.038,0.106-0.063,0.167-0.089
	c0.063-0.02,0.135-0.021,0.2-0.036c0.155-0.017,0.31-0.021,0.465-0.025c0.034-0.012,0.043-0.021,0.043-0.058
	c0-0.107,0-0.107,0.122-0.121c0.041-0.002,0.084-0.008,0.126-0.012c0.035-0.003,0.058,0.01,0.062,0.042
	c0.008,0.105,0.02,0.193,0.021,0.3c0.003,0.105-0.065,0.187-0.163,0.189c-0.205,0.021-0.414,0.04-0.617,0.058
	c-0.058,0.015-0.113,0.024-0.166,0.054c-0.043,0.016-0.056,0.06-0.062,0.106c-0.013,0.121,0.062,0.221,0.153,0.272
	c0.117,0.063,0.231,0.068,0.359,0.042c0.086-0.021,0.174-0.025,0.264-0.043c0.082-0.015,0.166-0.02,0.246-0.029
	c0.037-0.006,0.056,0.008,0.061,0.047c0.014,0.08,0.023,0.162,0.034,0.25c0.007,0.059-0.005,0.063-0.056,0.066
	c-0.123,0.02-0.246,0.049-0.369,0.061c-0.088,0.021-0.18,0.022-0.271,0.041c-0.083,0.021-0.171,0.021-0.246,0.063
	c-0.049,0.03-0.069,0.08-0.059,0.147c0.018,0.068,0.044,0.146,0.11,0.188c0.104,0.076,0.219,0.113,0.349,0.08
	c0.083-0.021,0.171-0.036,0.253-0.05c0.084-0.021,0.168-0.033,0.25-0.058c0.119-0.026,0.137-0.021,0.158,0.103
	c0.011,0.063,0.022,0.118,0.039,0.187c0.01,0.03-0.006,0.053-0.039,0.06c-0.233,0.056-0.471,0.108-0.709,0.165
	c-0.07,0.021-0.143,0.037-0.213,0.055c-0.021,0.01-0.033,0.026-0.024,0.044c0.008,0.024,0.011,0.063,0.019,0.091
	c0.008,0.025-0.004,0.053-0.029,0.06c-0.069,0.022-0.143,0.038-0.215,0.057c-0.053,0.013-0.063-0.013-0.07-0.059
	c-0.014-0.067-0.034-0.146-0.047-0.226c-0.012-0.059-0.02-0.111-0.01-0.173C43.57,43.425,43.604,43.391,43.633,43.352z"/>
<path fill="#F4F4F4" d="M43.977,40.236c-0.092-0.001-0.218,0-0.348-0.002c-0.04-0.001-0.066,0.002-0.057,0.055
	c0.003,0.02-0.004,0.04-0.002,0.061c0.004,0.054-0.006,0.064-0.055,0.066c-0.07-0.004-0.141-0.004-0.211,0
	c-0.051-0.002-0.063-0.016-0.063-0.063c0.002-0.077-0.002-0.15,0.006-0.231c0.01-0.092,0.027-0.188,0.122-0.239
	c0.021-0.015,0.019-0.03,0.003-0.049c-0.118-0.165-0.124-0.349-0.094-0.534c0.027-0.143,0.086-0.266,0.226-0.337
	c0.06-0.028,0.121-0.058,0.188-0.049c0.119,0.007,0.236,0.017,0.356,0.024c0.072,0.006,0.146,0.012,0.224,0.022
	c0.006,0.001,0.015,0.001,0.021,0.004c0.082,0.01,0.082,0.01,0.098-0.074c0.01-0.066,0.021-0.078,0.092-0.071
	c0.065,0.011,0.132,0.021,0.195,0.037c0.016,0.004,0.038,0.029,0.035,0.044c-0.017,0.115-0.027,0.232-0.058,0.34
	c-0.021,0.084-0.085,0.121-0.171,0.124c-0.049-0.001-0.102-0.007-0.146-0.008c-0.125-0.008-0.249-0.022-0.374-0.03
	c-0.034-0.007-0.067-0.013-0.101-0.014c-0.075-0.012-0.148-0.011-0.211,0.04c-0.067,0.055-0.061,0.136-0.053,0.21
	c0.015,0.175,0.121,0.275,0.278,0.326c0.036,0.011,0.072,0.009,0.106,0.008c0.19,0.01,0.387,0.021,0.582,0.033
	c0.033,0.002,0.043,0.015,0.043,0.047c-0.004,0.086-0.002,0.178-0.006,0.271c-0.002,0.037-0.025,0.059-0.064,0.06
	C44.369,40.253,44.189,40.243,43.977,40.236z"/>
<path fill="#F4F4F4" d="M45.066,37.223c-0.01,0.15-0.051,0.289-0.129,0.417c-0.062,0.098-0.138,0.176-0.229,0.242
	c-0.063,0.04-0.084,0.031-0.129-0.025c-0.034-0.05-0.073-0.098-0.113-0.146c-0.025-0.032-0.021-0.058,0.016-0.079
	c0.078-0.045,0.148-0.097,0.191-0.173c0.035-0.057,0.063-0.126,0.072-0.196c0.025-0.17-0.092-0.134-0.115-0.107
	c-0.056,0.065-0.113,0.133-0.164,0.204c-0.076,0.106-0.146,0.211-0.246,0.293c-0.1,0.075-0.205,0.107-0.328,0.061
	c-0.166-0.055-0.232-0.182-0.252-0.347c-0.012-0.116,0.006-0.227,0.039-0.339c0.032-0.111,0.084-0.222,0.168-0.308
	c0.079-0.093,0.184-0.12,0.297-0.078c0.025,0.012,0.053,0.017,0.078,0.02c0.035,0.005,0.045,0.021,0.036,0.055
	c-0.01,0.041-0.021,0.082-0.032,0.124c-0.012,0.04-0.021,0.083-0.031,0.125c-0.016,0.052-0.041,0.067-0.092,0.045
	c-0.041-0.015-0.069-0.005-0.097,0.034c-0.039,0.066-0.056,0.14-0.048,0.214c0.003,0.021,0.02,0.054,0.039,0.067
	c0.027,0.019,0.063,0.01,0.084-0.023c0.048-0.066,0.095-0.124,0.141-0.192c0.072-0.103,0.144-0.2,0.237-0.277
	c0.106-0.094,0.3-0.094,0.413-0.026C44.998,36.881,45.081,37.065,45.066,37.223z"/>
<path fill="#F4F4F4" d="M43.71,38.024c0.063,0.009,0.164,0.028,0.265,0.044c0.104,0.015,0.209,0.037,0.312,0.055
	c0.063,0.014,0.123,0.026,0.187,0.037c0.033,0.01,0.051-0.011,0.053-0.047c0-0.02,0.004-0.042,0.009-0.061
	c0.013-0.041,0.03-0.046,0.073-0.036c0.065,0.017,0.135,0.032,0.207,0.043c0.035,0.009,0.043,0.025,0.035,0.06
	c-0.021,0.082-0.035,0.163-0.049,0.248c-0.021,0.13-0.095,0.199-0.246,0.172c-0.109-0.016-0.218-0.029-0.326-0.044
	c-0.121-0.02-0.237-0.036-0.357-0.063c-0.01-0.001-0.018-0.004-0.027-0.003c-0.107-0.011-0.107-0.011-0.113,0.095
	c-0.004,0.062-0.016,0.068-0.074,0.063c-0.065-0.011-0.141-0.019-0.211-0.035c-0.014-0.003-0.03-0.026-0.031-0.042
	c-0.004-0.031,0.001-0.062,0.006-0.094c0.021-0.095,0.032-0.192,0.066-0.282C43.523,38.021,43.583,38.017,43.71,38.024z"/>
<path fill="#F4F4F4" d="M43.829,40.671c0.136,0.002,0.271,0.001,0.407,0.003c0.029,0,0.041-0.013,0.043-0.042
	c0-0.007,0-0.011,0.002-0.017c-0.006-0.105,0-0.106,0.103-0.107c0.054-0.001,0.107,0.002,0.164,0.001
	c0.037,0.001,0.052,0.02,0.052,0.063c0,0.089,0.01,0.179,0.002,0.269c-0.009,0.137-0.06,0.195-0.203,0.204
	c-0.262,0.02-0.521,0.02-0.783,0.026c-0.031,0-0.041,0.017-0.041,0.042c0.002,0.02,0.002,0.063,0.004,0.087
	c0.002,0.019-0.008,0.043-0.036,0.044c-0.077,0.01-0.149,0.021-0.228,0.021c-0.026,0.002-0.049-0.005-0.051-0.032
	c-0.002-0.137-0.015-0.269,0-0.396c0.008-0.104,0.074-0.146,0.176-0.147c0.129,0,0.258,0,0.388,0.003
	C43.829,40.687,43.831,40.68,43.829,40.671z"/>
<path fill="#F4F4F4" d="M42.947,38.26c0.016-0.099,0.029-0.187,0.045-0.272c0.012-0.059,0.037-0.066,0.092-0.052
	c0.077,0.012,0.154,0.031,0.23,0.041c0.037,0.01,0.049,0.027,0.043,0.06c-0.016,0.093-0.03,0.182-0.047,0.27
	c-0.011,0.048-0.025,0.055-0.078,0.046c-0.072-0.013-0.146-0.023-0.226-0.036C42.953,38.316,42.945,38.304,42.947,38.26z"/>
<path fill="#F4F4F4" d="M42.941,40.718c0.043,0.003,0.084,0.006,0.125,0.001c0.037-0.002,0.05,0.016,0.052,0.049
	c0.002,0.062,0.003,0.126,0.004,0.187c0.002,0.026,0.011,0.057,0.013,0.075c0.004,0.043-0.018,0.066-0.058,0.07
	c-0.089,0.002-0.179,0.003-0.267,0.007c-0.031,0.003-0.045-0.017-0.045-0.044c-0.002-0.1-0.002-0.197-0.002-0.295
	c0-0.03,0.016-0.041,0.043-0.043c0.047,0.002,0.094,0.001,0.141,0.003C42.943,40.722,42.941,40.718,42.941,40.718z"/>
<path fill="#FFFFFF" stroke="#101010" stroke-width="0.15" stroke-miterlimit="10" d="M61.785,59.313v-2.355
	c0-0.334,0.271-0.605,0.605-0.605h7.604c0.332,0,0.604,0.271,0.604,0.605v2.355c0,0.334-0.271,0.604-0.604,0.604h-7.604
	C62.059,59.918,61.785,59.646,61.785,59.313z"/>
<path fill="#FFFFFF" stroke="#101010" stroke-width="0.15" stroke-miterlimit="10" d="M66.404,50.357
	c0.205-0.104,0.418-0.215,0.638-0.33c0.978,0.382,1.668,1.33,1.668,2.441c0,1.448-1.175,2.623-2.622,2.623
	c-1.109,0-2.056-0.689-2.438-1.662C64.143,52.12,65.111,51.014,66.404,50.357z"/>
<line fill="#FFFFFF" x1="75.693" y1="46.279" x2="75.693" y2="51.525"/>
<path fill="#FFFFFF" stroke="#010101" stroke-width="0.15" stroke-miterlimit="10" d="M75.693,46.279v5.246"/>
<path fill="#3D3D3D" stroke="#010101" stroke-width="0.15" stroke-miterlimit="10" d="M12.943,53.303
	c2.368,0,4.287,1.92,4.287,4.287s-1.919,4.287-4.287,4.287s-4.287-1.92-4.287-4.287S10.575,53.303,12.943,53.303z"/>
<path fill="#F4F4F4" d="M12.942,55.893c0.938,0,1.697,0.76,1.697,1.697s-0.76,1.697-1.697,1.697c-0.937,0-1.697-0.76-1.697-1.697
	S12.005,55.893,12.942,55.893z"/>
<path fill="#FFFFFF" stroke="#101010" stroke-width="0.15" stroke-miterlimit="10" d="M8.207,58.652
	c0.588,0,1.064-0.476,1.064-1.063c0-2.023,1.647-3.672,3.672-3.672c2.024,0,3.671,1.646,3.671,3.672
	c0,0.588,0.476,1.063,1.064,1.063c0.588,0,1.064-0.476,1.064-1.063c0-3.197-2.602-5.8-5.8-5.8c-3.199,0-5.8,2.603-5.8,5.8
	C7.143,58.178,7.619,58.652,8.207,58.652z"/>
<path fill="#FFFFFF" stroke="#101010" stroke-width="0.15" stroke-miterlimit="10" d="M4.727,37.495c0-0.552,0.447-1,1-1h8.489
	c0.732,0,1.387,0.437,1.667,1.114l2.329,5.606c0.273,0.658-0.21,1.383-0.923,1.383H5.726c-0.552,0-1-0.447-1-0.998L4.727,37.495
	L4.727,37.495z"/>
<path fill="#FFFFFF" stroke="#101010" stroke-width="0.15" stroke-miterlimit="10" d="M22.288,58.268h5.044
	c0.333,0,0.605-0.272,0.605-0.604v-1.851c0-0.334-0.272-0.605-0.605-0.605h-5.044c-0.333,0-0.605,0.271-0.605,0.605v1.851
	C21.683,57.994,21.955,58.268,22.288,58.268z"/>
<path fill="#FFFFFF" stroke="#101010" stroke-width="0.15" stroke-miterlimit="10" d="M-0.004,65.883h10.856
	c2.891,0,4.854,2.938,3.747,5.608L9.826,83h-9.831L-0.004,65.883L-0.004,65.883z M0.047,83h3.955l3.928-9.475
	c0.447-1.076-0.345-2.265-1.513-2.265h-6.37V83z M6.21,65.883l-2.905,5.379 M6.21,65.883l-2.905,5.379 M14.144,72.587H8.025
	 M14.144,72.587H8.025 M11.084,79.965H5.26 M11.084,79.965H5.26"/>
<path fill="#FFFFFF" stroke="#101010" stroke-width="0.15" stroke-miterlimit="10" d="M68.404,71.491
	c-1.106-2.671,0.855-5.608,3.748-5.608h10.869V83h-9.845L68.404,71.491z M79.002,83h4.02V71.262h-6.436
	c-1.167,0-1.959,1.188-1.512,2.266L79.002,83z M79.698,71.262l-2.905-5.379 M79.698,71.262l-2.905-5.379 M68.859,72.587h6.119
	 M68.859,72.587h6.119 M71.919,79.965h5.824 M71.919,79.965h5.824"/>
<path fill="#FFFFFF" stroke="#101010" stroke-width="0.15" stroke-miterlimit="10" d="M82.907,58.057
	c-0.479-1.843-2.155-3.205-4.144-3.205c-2.359,0-4.279,1.918-4.279,4.277c0,0.686-0.557,1.241-1.239,1.241
	c-0.687,0-1.241-0.556-1.241-1.241c0-3.729,3.032-6.76,6.76-6.76c1.561,0,2.998,0.531,4.145,1.423L82.907,58.057L82.907,58.057z"/>
<path fill="#010101" d="M44.723,25.483c0,0.292-0.236,0.528-0.527,0.528c-0.293,0-0.529-0.236-0.529-0.528s0.236-0.528,0.529-0.528
	C44.484,24.955,44.723,25.191,44.723,25.483 M40.11,25.483c0,0.292-0.237,0.528-0.528,0.528s-0.529-0.236-0.529-0.528
	s0.238-0.528,0.529-0.528S40.11,25.191,40.11,25.483"/>
<path fill="#F4F4F4" d="M44.588,25.329c0-0.09-0.072-0.164-0.163-0.164s-0.165,0.074-0.165,0.164s0.074,0.164,0.165,0.164
	S44.588,25.419,44.588,25.329 M39.977,25.329c0-0.09-0.073-0.164-0.164-0.164s-0.164,0.074-0.164,0.164s0.073,0.164,0.164,0.164
	C39.903,25.493,39.977,25.419,39.977,25.329"/>
</svg>
