<?xml version="1.0" encoding="utf-8"?>
<!-- Generator: Adobe Illustrator 16.0.0, SVG Export Plug-In . SVG Version: 6.00 Build 0)  -->
<!DOCTYPE svg PUBLIC "-//W3C//DTD SVG 1.1//EN" "http://www.w3.org/Graphics/SVG/1.1/DTD/svg11.dtd">
<svg version="1.1" id="Layer_1" xmlns="http://www.w3.org/2000/svg" xmlns:xlink="http://www.w3.org/1999/xlink" x="0px" y="0px"
	 width="83px" height="83px" viewBox="0 0 83 83" enable-background="new 0 0 83 83" xml:space="preserve">
<path fill="#FFFFFF" stroke="#010101" stroke-width="0.15" stroke-miterlimit="10" d="M0.033,0h82.924v83H0.033V0z M0.033,0h82.924
	v83H0.033V0z"/>
<path fill="#FFFFFF" stroke="#010101" stroke-width="0.15" stroke-miterlimit="10" d="M18.832,64.154
	c-0.027-0.443,0.312-0.826,0.755-0.854c0.441-0.026,0.827,0.313,0.854,0.757l0.655,10.688c5.121-1.95,5.796-0.146,5.682,0.648
	c-0.13,0.912-2.216,1.658-4.953,1.27c-1.489-0.214-2.142-0.477-2.256-0.766c-0.026-0.045-0.044-0.099-0.048-0.158L18.832,64.154z
	 M13.656,64.154c0.027-0.443-0.311-0.826-0.755-0.854c-0.441-0.026-0.827,0.313-0.854,0.757l-0.654,10.688
	c-5.121-1.95-5.796-0.146-5.682,0.648c0.13,0.912,2.216,1.658,4.953,1.27c1.489-0.214,2.142-0.477,2.256-0.766
	c0.026-0.045,0.044-0.099,0.048-0.158L13.656,64.154z"/>
<path fill="#FFFFFF" stroke="#010101" stroke-width="0.15" stroke-miterlimit="10" d="M0,0h82.924v62.688H0V0z"/>
<path fill="#FFFFFF" stroke="#010101" stroke-width="0.15" stroke-miterlimit="10" d="M59.637,51.436V15.965
	c0-1.101-0.893-1.994-1.994-1.994H0V53.43h57.643C58.744,53.43,59.637,52.536,59.637,51.436z"/>
<path fill="#FFFFFF" stroke="#010101" stroke-width="0.15" stroke-miterlimit="10" d="M61.945,14.344v38.711
	c0,1.479-1.199,2.68-2.678,2.68H0.004v-2.307h57.643c1.104,0,1.994-0.893,1.994-1.994v-35.47c0-1.101-0.893-1.994-1.994-1.994H0.004
	v-2.306h59.264C60.746,11.665,61.945,12.864,61.945,14.344z"/>
<path fill="#FFFFFF" stroke="#010101" stroke-width="0.15" stroke-miterlimit="10" d="M62.01,74.309h-0.686
	c-0.402,0-0.737-0.435-0.771-1l-0.216-3.717h2.656l-0.214,3.717C62.746,73.874,62.411,74.309,62.01,74.309z"/>
<path fill="#FFFFFF" stroke="#010101" stroke-width="0.15" stroke-miterlimit="10" d="M82.979,69.503H56.064
	c-1.883,0-3.407-1.524-3.407-3.405V55.611c0-1.635,1.151-3,2.688-3.33h27.633v2.228H56.064c-0.608,0-1.104,0.495-1.104,1.103v10.486
	c0,0.605,0.493,1.103,1.104,1.103h26.914V69.503L82.979,69.503z"/>
<path fill="#FFFFFF" stroke="#010101" stroke-width="0.15" stroke-miterlimit="10" d="M82.966,54.509v12.689H56.064
	c-0.608,0-1.104-0.495-1.104-1.103V55.611c0-0.607,0.493-1.104,1.104-1.104L82.966,54.509L82.966,54.509z"/>
<path fill="#FFFFFF" stroke="#010101" stroke-width="0.15" stroke-miterlimit="10" d="M60.551,65.748h-2.553
	c-0.377,0-0.684-0.307-0.684-0.684v-8.316c0-0.379,0.307-0.684,0.684-0.684h2.553c0.379,0,0.684,0.305,0.684,0.684v8.316
	C61.232,65.441,60.93,65.748,60.551,65.748z M65.742,65.064v-8.316c0-0.379-0.305-0.684-0.684-0.684h-2.554
	c-0.377,0-0.685,0.305-0.685,0.684v8.316c0,0.377,0.308,0.684,0.685,0.684h2.554C65.438,65.748,65.742,65.441,65.742,65.064z
	 M70.252,65.064v-8.316c0-0.379-0.307-0.684-0.686-0.684h-2.551c-0.379,0-0.686,0.305-0.686,0.684v8.316
	c0,0.377,0.307,0.684,0.686,0.684h2.551C69.945,65.748,70.252,65.441,70.252,65.064z M74.762,65.064v-8.316
	c0-0.379-0.308-0.684-0.686-0.684h-2.553c-0.377,0-0.685,0.305-0.685,0.684v8.316c0,0.377,0.308,0.684,0.685,0.684h2.553
	C74.454,65.748,74.762,65.441,74.762,65.064z M79.27,65.064v-8.316c0-0.379-0.307-0.684-0.684-0.684h-2.554
	c-0.378,0-0.683,0.305-0.683,0.684v8.316c0,0.377,0.305,0.684,0.683,0.684h2.554C78.963,65.748,79.27,65.441,79.27,65.064z
	 M82.979,56.064h-2.438c-0.378,0-0.684,0.305-0.684,0.684v8.316c0,0.377,0.306,0.684,0.684,0.684h2.438V56.064z"/>
<path fill="#FFFFFF" stroke="#010101" stroke-width="0.15" stroke-miterlimit="10" d="M55.99,30.727l-5.213,5.211h-7.369
	l-5.211-5.211v-7.37l5.211-5.211h7.369l5.213,5.211V30.727L55.99,30.727z"/>
<path fill="#FFFFFF" stroke="#010101" stroke-width="0.15" stroke-miterlimit="10" d="M25.684,45.445
	c-0.211,0-0.425-0.045-0.637-0.131c-1.715-0.713-3.008-4.472-3.25-5.216l1.315-0.427c0.521,1.603,1.63,4.019,2.465,4.364
	c0.098,0.041,0.141,0.027,0.186,0.004c1.134-0.573,2.683-3.447,3.393-5.123l1.273,0.539c-0.208,0.492-2.09,4.83-4.041,5.818
	C26.164,45.387,25.925,45.445,25.684,45.445z M8.05,51.477c-0.049-0.031-1.202-0.77-1.354-2.287
	c-0.174-1.739,1.038-3.898,3.505-6.238l-1.005-1.06c-2.862,2.714-4.191,5.232-3.95,7.478c0.241,2.238,1.969,3.313,2.042,3.354
	L8.05,51.477z"/>
<path fill="#FFFFFF" stroke="#010101" stroke-width="0.15" stroke-miterlimit="10" d="M23.207,27.246v35.941
	c0,1.207-0.978,2.186-2.185,2.186h-9.683c-1.207,0-2.185-0.979-2.185-2.186V27.246C9.155,27.246,15.728,30.702,23.207,27.246z"/>
<path fill="#F4F4F4" stroke="#010101" stroke-width="0.15" stroke-miterlimit="10" d="M17.793,34.86
	c0-0.668,0.542-1.209,1.209-1.209s1.209,0.541,1.209,1.209s-0.542,1.21-1.209,1.21S17.793,35.528,17.793,34.86z M13.474,36.07
	c0.668,0,1.209-0.542,1.209-1.21s-0.542-1.209-1.209-1.209s-1.209,0.541-1.209,1.209S12.806,36.07,13.474,36.07z"/>
<path fill="#ED5A5A" d="M16.181,38.75c0.96,0,1.887-0.144,2.76-0.409c-0.044,1.488-1.261,2.681-2.76,2.681s-2.715-1.193-2.76-2.681
	C14.294,38.606,15.221,38.75,16.181,38.75z"/>
<path fill="#FFFFFF" stroke="#010101" stroke-width="0.25" stroke-linecap="round" stroke-miterlimit="10" d="M18.14,32.146
	c0.372-0.216,0.805-0.339,1.266-0.339c0.35,0,0.683,0.071,0.986,0.199 M14.403,32.007c-0.303-0.128-0.637-0.199-0.986-0.199
	c-0.461,0-0.894,0.123-1.266,0.339"/>
<path fill="#BCBCBC" d="M15.835,37.083c0.073-0.51-0.921-0.921-1.843-0.23c-0.921,0.691-1.843,2.074-3.225,1.383
	c0,0,0.691,0.691,1.843,0.46c0.576-0.115,0.807-0.806,1.728-1.037C14.785,37.547,15.72,37.89,15.835,37.083z"/>
<path fill="#BCBCBC" d="M16.3,37.083c-0.073-0.51,0.922-0.921,1.843-0.23s1.843,2.074,3.225,1.383c0,0-0.691,0.691-1.843,0.46
	c-0.576-0.115-0.806-0.806-1.728-1.037C17.35,37.547,16.415,37.89,16.3,37.083z"/>
<path fill="#FFFFFF" stroke="#010101" stroke-width="0.15" stroke-miterlimit="10" d="M15.033,17.08
	c-0.002-0.028-0.004-0.057-0.004-0.085c0-0.572,0.464-1.037,1.037-1.037c0.572,0,1.036,0.464,1.036,1.037
	c0,0.019-0.001,0.037-0.002,0.056c3.446,0.402,6.107,3.033,6.107,6.222c0,0,0,1.67,0,3.974c-7.479,3.456-14.052,0-14.052,0v-3.974
	C9.155,20.155,11.699,17.569,15.033,17.08z M7.403,30.105c0.772-0.174,1.725-0.418,3.019-0.095c1.843,0.461,3.686,1.382,5.759,1.382
	c2.074,0,3.917-0.921,5.759-1.382c1.294-0.324,2.247-0.079,3.019,0.095c0.506,0.115,0.931-0.421,0.681-0.875
	c-0.628-1.14-2.317-1.984-2.317-1.984h-0.115c-7.479,3.456-14.052,0-14.052,0H9.039c0,0-1.689,0.845-2.316,1.984
	C6.472,29.685,6.897,30.22,7.403,30.105z"/>
<path fill="#F3F3F3" stroke="#010101" stroke-width="0.15" stroke-miterlimit="10" d="M28.686,39.983l0.942,0.625
	c0.188,0.125,0.443,0.073,0.567-0.114l0.09-0.136c0.125-0.188,0.073-0.443-0.114-0.567l-0.941-0.625
	c-0.188-0.125-0.443-0.073-0.567,0.114l-0.09,0.136C28.447,39.604,28.499,39.859,28.686,39.983z"/>
<path fill="#FFFFFF" stroke="#010101" stroke-width="0.15" stroke-miterlimit="10" d="M27.97,43.984L37.83,23.1
	c0.25-0.529,0.887-0.758,1.416-0.508l0.383,0.181c0.529,0.25,0.757,0.887,0.508,1.416l-9.861,20.883
	c-0.25,0.529-0.887,0.759-1.416,0.507l-0.382-0.181C27.949,45.148,27.72,44.514,27.97,43.984z"/>
<path fill="#F3F3F3" stroke="#010101" stroke-width="0.15" stroke-miterlimit="10" d="M29.974,39.66l0.39-0.744l0.987,0.05
	c0.351,0.068,0.694-0.163,0.762-0.514l0,0c0.068-0.351-0.162-0.693-0.513-0.762l-1.068-0.194c-0.701-0.144-1.664,0.722-1.44,1.523
	L29.974,39.66z"/>
<path fill="#F3F3F3" stroke="#010101" stroke-width="0.15" stroke-miterlimit="10" d="M32.299,38.968l0.818,0.28
	c0.282,0.097,0.592-0.055,0.688-0.337l0.07-0.204c0.097-0.282-0.055-0.592-0.337-0.688l-0.818-0.28
	c-0.282-0.097-0.592,0.055-0.688,0.337l-0.07,0.204C31.866,38.562,32.017,38.871,32.299,38.968z"/>
<path fill="#F3F3F3" stroke="#010101" stroke-width="0.15" stroke-miterlimit="10" d="M31.457,41.426l0.819,0.281
	c0.282,0.097,0.591-0.055,0.688-0.337l0.069-0.204c0.097-0.282-0.055-0.591-0.337-0.688l-0.818-0.281
	c-0.282-0.096-0.592,0.055-0.688,0.337l-0.07,0.204C31.023,41.02,31.175,41.33,31.457,41.426z"/>
<path fill="#F3F3F3" stroke="#010101" stroke-width="0.15" stroke-miterlimit="10" d="M31.509,40.071l1.187,0.407
	c0.282,0.097,0.592-0.055,0.688-0.337l0.07-0.204c0.097-0.282-0.055-0.591-0.337-0.688l-1.188-0.407
	c-0.281-0.097-0.591,0.055-0.688,0.337l-0.07,0.204C31.076,39.665,31.228,39.974,31.509,40.071z"/>
<path fill="#FFFFFF" stroke="#010101" stroke-width="0.15" stroke-miterlimit="10" d="M41.984,28.806
	c-0.167-0.038-0.323-0.092-0.469-0.163c-0.041-0.02-0.081-0.041-0.119-0.063c-0.159-0.09-0.211-0.293-0.12-0.45l0.001-0.002
	c0.088-0.151,0.28-0.209,0.434-0.126c0.112,0.061,0.234,0.108,0.366,0.145c0.13,0.035,0.264,0.054,0.397,0.059
	c0.238,0.008,0.426-0.028,0.558-0.106c0.126-0.075,0.188-0.181,0.19-0.321v-0.002c0.002-0.097-0.023-0.175-0.078-0.233
	c-0.057-0.058-0.127-0.101-0.215-0.129c-0.091-0.028-0.203-0.055-0.343-0.079c-0.007-0.001-0.011-0.002-0.015-0.003
	c-0.006,0-0.012,0-0.016-0.002l-0.056-0.008c-0.244-0.043-0.446-0.094-0.608-0.155c-0.161-0.061-0.296-0.164-0.406-0.312
	c-0.11-0.148-0.163-0.354-0.159-0.622V26.23c0.004-0.237,0.06-0.439,0.168-0.605s0.264-0.292,0.467-0.377
	c0.204-0.085,0.448-0.125,0.732-0.121c0.133,0.002,0.267,0.019,0.402,0.051c0.137,0.033,0.271,0.078,0.398,0.138
	c0.025,0.012,0.053,0.025,0.08,0.038c0.165,0.083,0.232,0.283,0.146,0.447c-0.08,0.156-0.271,0.223-0.43,0.146
	c-0.057-0.027-0.111-0.051-0.17-0.073c-0.152-0.056-0.299-0.085-0.439-0.087c-0.213-0.003-0.377,0.029-0.494,0.097
	c-0.115,0.068-0.176,0.165-0.178,0.291v0.002c-0.002,0.105,0.026,0.19,0.086,0.252c0.061,0.063,0.133,0.108,0.223,0.139
	c0.089,0.03,0.215,0.063,0.375,0.097c0.007,0.002,0.014,0.003,0.021,0.004s0.015,0.002,0.021,0.004
	c0.012,0.002,0.021,0.004,0.031,0.007c0.008,0.002,0.019,0.005,0.026,0.006c0.229,0.049,0.424,0.107,0.578,0.174
	c0.153,0.067,0.282,0.173,0.387,0.319c0.103,0.146,0.149,0.342,0.146,0.591v0.005c-0.004,0.233-0.062,0.433-0.174,0.597
	c-0.11,0.165-0.271,0.29-0.482,0.374s-0.463,0.124-0.757,0.119C42.322,28.863,42.15,28.843,41.984,28.806z M46.438,25.224
	l-2.03-0.032c-0.183-0.003-0.331,0.142-0.333,0.323v0.009c-0.006,0.181,0.142,0.331,0.32,0.333l0.67,0.011l-0.041,2.672
	c-0.002,0.182,0.144,0.331,0.324,0.333h0.033c0.182,0.003,0.33-0.142,0.334-0.323l0.042-2.672l0.67,0.01
	c0.183,0.003,0.33-0.142,0.335-0.323v-0.009C46.764,25.376,46.619,25.227,46.438,25.224z M48.273,28.957
	c0.265,0.005,0.5-0.048,0.705-0.156c0.203-0.109,0.36-0.265,0.478-0.467c0.112-0.202,0.173-0.438,0.177-0.707l0.018-1.039
	c0.004-0.269-0.049-0.506-0.155-0.712s-0.263-0.366-0.462-0.481c-0.201-0.115-0.436-0.174-0.699-0.179
	c-0.268-0.004-0.501,0.048-0.705,0.156c-0.204,0.109-0.361,0.265-0.479,0.467c-0.113,0.203-0.174,0.438-0.178,0.708l-0.018,1.039
	c-0.004,0.269,0.048,0.506,0.154,0.712s0.263,0.366,0.464,0.481C47.773,28.893,48.008,28.953,48.273,28.957z M48.283,28.266
	c-0.124-0.001-0.232-0.03-0.326-0.084c-0.094-0.054-0.165-0.13-0.215-0.229c-0.049-0.098-0.073-0.211-0.071-0.339l0.017-1.074
	c0.002-0.127,0.029-0.24,0.084-0.336c0.054-0.097,0.125-0.171,0.223-0.222c0.095-0.052,0.204-0.076,0.326-0.074
	c0.125,0.002,0.234,0.03,0.328,0.084c0.094,0.055,0.164,0.13,0.213,0.229c0.052,0.099,0.074,0.211,0.072,0.339l-0.018,1.074
	c-0.002,0.128-0.029,0.24-0.081,0.337c-0.053,0.097-0.128,0.17-0.222,0.222C48.518,28.243,48.408,28.268,48.283,28.266z
	 M52.955,26.45c-0.004,0.224-0.057,0.419-0.153,0.586c-0.099,0.167-0.235,0.296-0.411,0.386c-0.175,0.09-0.377,0.133-0.604,0.129
	l-0.78-0.013l-0.019,1.094c-0.002,0.181-0.15,0.326-0.331,0.323h-0.035c-0.181-0.003-0.326-0.152-0.322-0.333l0.048-3.009
	c0.002-0.181,0.15-0.326,0.332-0.323l0.246,0.004l0.896,0.014c0.229,0.004,0.429,0.053,0.603,0.149
	c0.173,0.096,0.304,0.229,0.397,0.401C52.913,26.029,52.959,26.227,52.955,26.45z M52.189,26.197
	c-0.032-0.07-0.08-0.125-0.145-0.164c-0.063-0.039-0.136-0.059-0.22-0.06l-0.798-0.012l-0.014,0.912l0.797,0.013
	c0.082,0.001,0.154-0.017,0.217-0.054c0.066-0.037,0.115-0.089,0.152-0.158c0.034-0.069,0.055-0.147,0.055-0.236
	C52.238,26.348,52.225,26.268,52.189,26.197z"/>
<g>
	
		<path fill="#BCBCBC" stroke="#020202" stroke-width="0.15" stroke-linecap="round" stroke-linejoin="round" stroke-miterlimit="10" d="
		M17.586,24.122l0.614-0.393l-0.726-0.382l0.455-0.844h-0.332c0.112-0.169,0.229-0.406,0.229-0.661c0-0.203-0.073-0.385-0.224-0.542
		c-0.185-0.196-0.411-0.296-0.668-0.296c-0.057,0-0.111,0.007-0.165,0.013l0,0c-0.484-0.41-1.033-0.021-1.033-0.021l0.025,0.017
		c-0.045-0.005-0.092-0.01-0.137-0.01c-0.256,0.001-0.48,0.101-0.67,0.296c-0.147,0.159-0.227,0.343-0.221,0.552
		c-0.001,0.251,0.115,0.485,0.225,0.653l-0.469-0.001l0.455,0.844l-0.728,0.381l0.614,0.396l-0.455,0.727l0.779-0.014l-0.037,0.872
		l0.695-0.448l0.392,0.768l0.392-0.769l0.697,0.449l-0.037-0.871l0.78,0.014L17.586,24.122z M17.322,21.824
		c-0.006-0.109-0.032-0.211-0.084-0.307c-0.005-0.008-0.011-0.02-0.018-0.029c-0.025-0.045-0.058-0.087-0.097-0.13
		c0.032,0.008,0.06,0.018,0.09,0.031c0.202,0.087,0.308,0.261,0.294,0.487c0.001,0.025-0.004,0.051-0.009,0.078
		c-0.005,0.027-0.011,0.054-0.018,0.082c-0.015,0.053-0.035,0.109-0.061,0.165c-0.014,0.029-0.028,0.055-0.042,0.084
		c-0.04,0.069-0.091,0.136-0.146,0.199l-0.009,0.011l-0.004,0.01l-0.127-0.001c0.01-0.013,0.015-0.021,0.023-0.032
		c0.026-0.042,0.053-0.085,0.073-0.13c0.022-0.041,0.04-0.083,0.056-0.121c0.003-0.008,0.008-0.018,0.01-0.025
		c0.005-0.019,0.013-0.037,0.018-0.053c0.003-0.01,0.005-0.019,0.008-0.027c0.005-0.02,0.011-0.035,0.017-0.056
		c0-0.009,0.004-0.02,0.004-0.028c0.005-0.027,0.012-0.057,0.014-0.086C17.323,21.903,17.325,21.861,17.322,21.824z M15.542,21.854
		l-0.001-0.004c0,0,0.001-0.012-0.001-0.016c0-0.004,0-0.008,0-0.012l0.004-0.01c-0.002-0.001-0.002-0.005,0-0.008
		c0-0.005,0.001-0.012,0.004-0.02c0-0.004,0-0.01,0.001-0.014c0.003-0.007,0.005-0.016,0.005-0.022l0.004-0.015
		c0.002-0.002,0.004-0.007,0.004-0.013c0-0.002,0.002-0.015,0.002-0.015c0.002-0.005,0.002-0.008,0.006-0.014
		c0-0.001,0-0.005,0.005-0.006l-0.001-0.001c0.001-0.004,0.004-0.012,0.008-0.016c0.001-0.003,0.001-0.005,0.006-0.012
		c0-0.004,0.002-0.008,0.006-0.013c0.004-0.004,0.004-0.008,0.007-0.013c0.003-0.003,0.007-0.007,0.009-0.012
		c0.002-0.003,0.006-0.008,0.008-0.01c0.002-0.004,0.006-0.009,0.01-0.014c0.003-0.004,0.005-0.006,0.01-0.012
		c0.002-0.002,0.008-0.005,0.01-0.012c0.003-0.003,0.006-0.006,0.012-0.008c0.004-0.005,0.008-0.008,0.012-0.013v-0.001
		c0.002-0.004,0.006-0.006,0.01-0.007c0.002-0.004,0.008-0.007,0.016-0.011c0,0,0.008-0.008,0.013-0.009
		c0.004-0.002,0.009-0.006,0.017-0.011c0,0,0.009-0.006,0.012-0.007c0.005-0.003,0.014-0.008,0.021-0.011l0.01-0.008
		c0.012-0.004,0.022-0.01,0.034-0.016c0.035-0.015,0.075-0.021,0.115-0.022c0.033,0,0.07,0.002,0.111,0.013
		c0.025,0.006,0.052,0.012,0.076,0.021c0.009,0.042,0.014,0.082,0.019,0.121c0.004,0.039,0.007,0.079,0.006,0.112
		c0,0.135-0.031,0.521-0.054,0.787l-0.262-0.002c-0.002-0.007-0.004-0.012-0.006-0.02l-0.004-0.011l-0.009-0.01
		c-0.024-0.03-0.052-0.063-0.075-0.098c-0.006-0.007-0.012-0.013-0.016-0.02l-0.01-0.017c-0.006-0.005-0.012-0.014-0.014-0.02
		l-0.011-0.016c-0.003-0.006-0.009-0.016-0.013-0.022l-0.001-0.003c-0.019-0.03-0.032-0.06-0.048-0.091l-0.004-0.013
		c-0.004-0.005-0.006-0.011-0.01-0.016l-0.006-0.021c-0.002-0.006-0.004-0.014-0.007-0.022l-0.008-0.016
		c0-0.006-0.003-0.014-0.005-0.02c0-0.007-0.002-0.012-0.004-0.016c-0.002-0.006-0.005-0.013-0.005-0.02
		c-0.002-0.004-0.003-0.009-0.003-0.016c-0.002-0.005-0.002-0.012-0.006-0.02c0-0.005-0.001-0.011-0.005-0.016
		c0.001-0.004-0.001-0.012-0.001-0.02c-0.001-0.006-0.001-0.012-0.001-0.016c-0.003-0.006-0.001-0.011-0.003-0.018
		c0.001-0.004-0.001-0.011-0.002-0.019c0-0.005,0.001-0.009-0.001-0.014c0.001-0.005-0.001-0.011-0.001-0.019v-0.001
		c0.001-0.004,0-0.008,0.002-0.012C15.538,21.862,15.542,21.859,15.542,21.854z M15.337,22.491l-0.009-0.009
		c-0.207-0.237-0.311-0.523-0.264-0.752c0.029-0.157,0.128-0.277,0.285-0.342c0.031-0.013,0.061-0.022,0.091-0.031
		c-0.132,0.146-0.2,0.317-0.198,0.509c0.002,0.244,0.119,0.477,0.224,0.635h-0.125L15.337,22.491z M16.482,22.502
		c-0.02-0.266-0.05-0.65-0.05-0.787c-0.001-0.034,0-0.071,0.005-0.111s0.011-0.08,0.021-0.121c0.034-0.009,0.068-0.021,0.103-0.026
		c0.029-0.005,0.056-0.007,0.079-0.007c0.047,0,0.084,0.008,0.118,0.021c0.013,0.006,0.023,0.012,0.036,0.016l0.009,0.007
		c0.01,0.004,0.016,0.008,0.022,0.011c0.001,0,0.013,0.007,0.013,0.007c0.008,0.003,0.011,0.007,0.017,0.011
		c0.004,0.001,0.007,0.003,0.009,0.004l0.004,0.003c0.004,0.002,0.01,0.006,0.015,0.011c0.003,0.002,0.005,0.004,0.011,0.008
		c0.003,0.004,0.007,0.009,0.012,0.012c0.003,0.003,0.006,0.007,0.01,0.009c0.004,0.004,0.01,0.009,0.013,0.013
		c0.003,0.002,0.005,0.006,0.009,0.01c0.003,0.005,0.006,0.009,0.01,0.014c0.003,0.003,0.002,0.007,0.008,0.011
		c0.004,0.004,0.005,0.008,0.007,0.012c0.005,0.003,0.007,0.008,0.008,0.012c0.002,0.004,0.006,0.009,0.011,0.016
		c0,0.003,0.003,0.007,0.003,0.01c0.001,0.003,0.005,0.007,0.01,0.014c0,0,0.002,0.011,0.004,0.011
		c0.001,0.007,0.003,0.009,0.005,0.018c0,0,0.003,0.008,0.005,0.012c0.003,0.003,0.001,0.007,0.002,0.011l0.005,0.015
		c0.001,0.008,0.001,0.016,0.003,0.022c0.003,0.003,0.002,0.01,0.004,0.015c0,0.008,0.002,0.013,0.001,0.021
		c0,0.001,0.001,0.004,0.001,0.006l0.001,0.011c-0.001,0.005,0.001,0.009,0.001,0.012c0,0.004,0,0.008,0,0.012l0.001,0.008
		c-0.001,0.004,0,0.008-0.001,0.013c-0.001,0.002,0,0.008-0.002,0.012l0.001,0.008c0,0.002,0,0.006,0,0.012
		c0,0.003-0.002,0.01-0.001,0.015c0,0.004-0.002,0.012-0.001,0.018c0,0.006-0.003,0.011-0.004,0.016
		c0.001,0.006,0.001,0.011,0,0.017c-0.002,0.007-0.002,0.013-0.004,0.019c0,0.007-0.003,0.01-0.003,0.016
		c-0.002,0.008-0.002,0.014-0.005,0.02c-0.001,0.003-0.002,0.011-0.003,0.018c-0.003,0.005-0.004,0.011-0.007,0.018
		c0,0.004,0,0.009-0.005,0.016c-0.002,0.006-0.003,0.014-0.008,0.021c0,0.004-0.004,0.02-0.004,0.02
		c-0.005,0.006-0.005,0.013-0.008,0.021l-0.01,0.019c0.001,0.006-0.004,0.01-0.006,0.017l-0.009,0.017
		c-0.002,0.006-0.003,0.013-0.008,0.019h-0.002c-0.011,0.022-0.023,0.043-0.039,0.063v0.005c-0.003,0.006-0.007,0.015-0.013,0.022
		l-0.01,0.018c-0.004,0.004-0.008,0.012-0.013,0.018l-0.01,0.018c-0.005,0.005-0.011,0.014-0.016,0.022
		c-0.023,0.034-0.049,0.064-0.079,0.095l-0.006,0.012l-0.006,0.011c0.001,0.006-0.003,0.014-0.006,0.022L16.482,22.502
		L16.482,22.502z"/>
	
		<path fill="#BCBCBC" stroke="#020202" stroke-width="0.15" stroke-linecap="round" stroke-linejoin="round" stroke-miterlimit="10" d="
		M14.997,23.932c-0.002,0.661,0.532,1.196,1.194,1.196c0.657,0.002,1.194-0.533,1.195-1.192c0-0.001-0.001-0.002-0.002-0.003
		c0.003-0.66-0.531-1.194-1.192-1.195C15.532,22.738,14.997,23.271,14.997,23.932L14.997,23.932"/>
</g>
<path fill="#F4F4F4" d="M13.932,55.891c-0.107-0.026-0.215-0.063-0.325-0.088c-0.057-0.013-0.084-0.035-0.087-0.097
	c-0.03-0.539-0.065-1.074-0.096-1.614c-0.015-0.271-0.009-0.271,0.246-0.373c0.174-0.072,0.351-0.145,0.527-0.218
	c0.006-0.004,0.013-0.015,0.026-0.022c-0.064-0.051-0.125-0.095-0.186-0.146c-0.486-0.4-0.744-0.928-0.829-1.553
	c-0.057-0.412,0.006-0.813,0.129-1.205c0.017-0.055,0.031-0.088,0.089-0.092c0.089,0.002,0.102-0.053,0.105-0.129
	c0.016-0.482,0.037-0.965,0.056-1.451c0.003-0.055-0.017-0.117,0.083-0.113c0.065,0.002,0.041-0.063,0.042-0.102
	c0.02-0.461,0.042-0.92,0.055-1.386c0.002-0.103,0.035-0.128,0.132-0.114c0.118,0.021,0.233,0.029,0.368,0.041
	c-0.079-0.084-0.174-0.121-0.259-0.168c-0.054-0.035-0.078-0.068-0.062-0.131c0.131-0.589,0.262-1.18,0.392-1.771
	c0.012-0.06,0.048-0.071,0.097-0.073c0.707-0.075,1.414-0.148,2.119-0.223c0.693-0.074,1.388-0.146,2.079-0.229
	c0.078-0.008,0.091,0,0.081,0.082c-0.088,0.559-0.171,1.117-0.255,1.68c-0.012,0.088-0.035,0.176-0.038,0.266
	c-0.006,0.087-0.029,0.127-0.128,0.124c-0.135-0.001-0.272,0.015-0.406,0.022c-0.041,0.006-0.084,0.006-0.1,0.061
	c-0.019,0.057,0.031,0.07,0.065,0.09c0.121,0.068,0.241,0.139,0.365,0.201c0.072,0.035,0.087,0.072,0.063,0.145
	c-0.078,0.241-0.146,0.488-0.221,0.729c-0.033,0.109-0.049,0.225-0.053,0.336c-0.013,0.4-0.025,0.807-0.043,1.204
	c0,0.061,0.022,0.14-0.088,0.122c-0.043-0.002-0.038,0.043-0.038,0.068c-0.011,0.252-0.021,0.506-0.029,0.76
	c-0.002,0.055,0.017,0.105,0.028,0.15c0.197,0.73,0.157,1.436-0.238,2.102c-0.073,0.121-0.005,0.246,0.01,0.367
	c0.038,0.365,0.085,0.73,0.136,1.1c0.01,0.068-0.011,0.098-0.073,0.111c-0.138,0.045-0.272,0.092-0.407,0.146
	c-0.034,0.02-0.076,0.021-0.075,0.07c0.004,0.06,0.04,0.066,0.085,0.074c0.137,0.029,0.271,0.068,0.407,0.096
	c0.079,0.014,0.108,0.049,0.105,0.135c-0.008,0.23,0.007,0.457-0.01,0.693c-0.035,0.441,0.104,0.851,0.189,1.271
	c0.024,0.123,0.059,0.245,0.082,0.373c0.013,0.063,0.079,0.146-0.056,0.176c-0.034,0.014-0.018,0.061-0.011,0.074
	c0.039,0.171,0.087,0.339,0.112,0.512c0.013,0.08,0.085,0.063,0.116,0.117c0.283,0.482,0.491,1.002,0.491,1.569
	c-0.001,0.981-0.558,1.815-1.473,2.149c-0.92,0.342-1.787,0.252-2.531-0.43c-0.555-0.506-0.792-1.163-0.785-1.906
	c-0.001-0.1-0.042-0.205,0.058-0.283c0.023-0.02,0-0.063-0.009-0.098c-0.104-0.467-0.207-0.933-0.312-1.406
	c-0.013-0.054-0.039-0.104,0.054-0.109c0.052-0.018,0.023-0.063,0.017-0.104c-0.098-0.438-0.197-0.895-0.302-1.332
	c-0.025-0.104-0.029-0.168,0.112-0.177c0.131-0.003,0.261-0.038,0.395-0.06C13.932,55.909,13.932,55.896,13.932,55.891z"/>
<path fill="#020202" d="M11.871,52.428c0.068,0.074,0.139,0.008,0.205,0.012c0.102,0.012,0.107-0.051,0.102-0.125
	c-0.001-0.032,0.009-0.06,0.049-0.06c0.044,0.002,0.047,0.033,0.043,0.06c-0.021,0.111,0.041,0.125,0.131,0.123
	c0.167-0.004,0.331,0.011,0.496,0c0.125-0.008,0.208,0.026,0.256,0.146c0.013,0.031,0.031,0.061,0.053,0.098
	c-0.054,0.025-0.108,0.016-0.161,0.016c-0.221,0-0.441-0.006-0.66-0.004c-0.047,0.002-0.11-0.025-0.121,0.063
	c-0.003,0.051-0.057,0.029-0.064,0.001c-0.028-0.073-0.086-0.063-0.146-0.071c-0.176-0.023-0.272-0.158-0.245-0.332
	c0.009-0.045,0.027-0.086,0.069-0.117c0.037-0.022,0.077-0.026,0.119,0.004c0.034,0.019,0.051,0.055,0.041,0.098
	c-0.005,0.045-0.04,0.059-0.075,0.072C11.933,52.41,11.902,52.384,11.871,52.428z"/>
<path fill="#020202" d="M12.389,52.9c0.132,0.006,0.264,0.002,0.393,0.004c0.057,0.002,0.107-0.012,0.075-0.09
	c-0.011-0.021-0.022-0.051,0.01-0.063c0.027-0.01,0.048,0.008,0.063,0.03c0.055,0.076,0.065,0.164,0.033,0.253
	c-0.032,0.084-0.104,0.118-0.19,0.118c-0.236,0.005-0.474-0.004-0.71,0.002c-0.05,0-0.123-0.031-0.115,0.076
	c0.001,0.041-0.051,0.023-0.065-0.008c-0.037-0.074-0.079-0.16-0.033-0.242c0.038-0.078,0.118-0.078,0.197-0.082
	C12.163,52.902,12.274,52.902,12.389,52.9C12.389,52.902,12.389,52.902,12.389,52.9z"/>
<path fill="#020202" d="M12.727,52.135c-0.143,0.002-0.285,0.004-0.429,0.006c-0.044-0.008-0.08-0.029-0.102-0.066
	c-0.056-0.102-0.01-0.18,0.102-0.18c0.137,0.002,0.27,0,0.404,0.004c0.063-0.002,0.135-0.01,0.155,0.072
	c0.015,0.07-0.04,0.109-0.092,0.139C12.755,52.115,12.74,52.125,12.727,52.135z"/>
<path fill="#020202" d="M12.727,52.135c0.002-0.042,0.031-0.066,0.062-0.09c0.027-0.02,0.063-0.029,0.044-0.074
	c-0.021-0.045-0.055-0.06-0.1-0.059c-0.15-0.002-0.296-0.002-0.446-0.005c-0.033,0.002-0.075-0.011-0.086,0.03
	c-0.011,0.043-0.021,0.086,0.02,0.119c0.03,0.02,0.061,0.047,0.076,0.082c-0.018,0.021-0.03,0.051-0.049,0.07
	c-0.041,0.041-0.069,0.027-0.073-0.021c-0.005-0.084-0.002-0.162-0.005-0.242c-0.002-0.064,0.042-0.062,0.083-0.063
	c0.172,0.002,0.34,0.006,0.508,0.003c0.06,0,0.147,0.021,0.096-0.095c-0.009-0.021-0.003-0.046,0.022-0.053
	c0.031-0.012,0.048,0.017,0.061,0.033c0.051,0.08,0.059,0.168,0.018,0.252C12.912,52.132,12.826,52.15,12.727,52.135z"/>
<path fill="#020202" d="M11.806,52.029c0.009-0.09,0.061-0.145,0.146-0.139c0.083,0.002,0.143,0.057,0.137,0.146
	c-0.003,0.085-0.059,0.137-0.138,0.136C11.865,52.174,11.812,52.123,11.806,52.029z"/>
<path fill="#020202" d="M18.38,59.402c0.083,0.574-0.053,1.099-0.425,1.533c-0.591,0.681-1.357,0.896-2.216,0.686
	c-0.847-0.212-1.29-0.833-1.479-1.661c-0.031-0.144-0.03-0.28-0.035-0.433c-0.004-0.077,0.019-0.121,0.096-0.147
	c0.13-0.056,0.254-0.11,0.375-0.188c-0.098,0.016-0.198,0.023-0.294,0.05c-0.064,0.012-0.091-0.013-0.105-0.07
	c-0.091-0.405-0.184-0.817-0.277-1.228c-0.021-0.079,0.008-0.104,0.083-0.107c0.318-0.047,0.635-0.096,0.955-0.143
	c0.061-0.014,0.113-0.01,0.098-0.104c-0.012-0.082-0.049-0.094-0.125-0.077c-0.273,0.051-0.55,0.082-0.828,0.127
	c-0.088,0.021-0.136,0-0.155-0.102c-0.081-0.395-0.167-0.787-0.26-1.178c-0.022-0.096,0-0.106,0.089-0.123
	c0.495-0.069,0.988-0.146,1.482-0.223c0.028-0.008,0.061-0.005,0.086-0.033c-0.469-0.129-0.933-0.25-1.398-0.371
	c-0.233-0.062-0.231-0.06-0.242-0.299c-0.022-0.393-0.045-0.774-0.073-1.166c-0.006-0.088,0.022-0.129,0.102-0.158
	c0.388-0.146,0.776-0.311,1.159-0.473c0.004-0.05-0.033-0.035-0.055-0.047c-0.861-0.271-1.408-0.994-1.441-1.898
	c-0.008-0.235,0.015-0.471,0.077-0.699c0.022-0.07,0.053-0.111,0.136-0.119c0.219-0.023,0.438-0.068,0.66-0.129
	c-0.142-0.014-0.28-0.037-0.424-0.045c-0.084-0.012-0.114-0.033-0.111-0.123c0.022-0.414,0.039-0.83,0.055-1.244
	c0.002-0.064,0.022-0.092,0.088-0.072c0.089,0.02,0.188,0.004,0.273,0.039c0.016,0.104-0.048,0.193-0.081,0.289
	c-0.034,0.234,0.003,0.477-0.031,0.705c-0.01,0.08,0.064,0.08,0.116,0.088c0.283,0.044,0.57,0.074,0.853,0.104
	c0.414,0.043,0.823,0.095,1.232,0.138c0.037,0.001,0.065,0.017,0.098,0.022c0.191,0.068,0.191,0.068,0.112,0.271
	c-0.017,0.034-0.062,0.061-0.04,0.104c0.091,0.362,0.084,0.711-0.121,1.037c-0.073,0.117-0.157,0.229-0.293,0.287
	c-0.31,0.063-0.613,0.09-0.898-0.09c-0.314-0.193-0.459-0.486-0.491-0.844c-0.009-0.117-0.001-0.236,0.003-0.355
	c0.002-0.059-0.008-0.105-0.072-0.108c-0.23-0.003-0.456,0.015-0.654,0.143c-0.178,0.054-0.193,0.194-0.197,0.351
	c-0.012,0.408,0.06,0.793,0.284,1.139c0.26,0.398,0.635,0.625,1.09,0.725c0.053,0.016,0.107,0.021,0.16,0.039
	c0.095,0.035,0.193,0.014,0.289,0.023c0.043,0.006,0.099-0.004,0.112,0.045c0.015,0.061-0.034,0.08-0.075,0.105
	c-0.17,0.082-0.347,0.147-0.522,0.219c-0.3,0.107-0.583,0.252-0.879,0.365c-0.088,0.034-0.134,0.107-0.157,0.199
	c-0.036,0.061-0.061,0.117-0.055,0.188c0.022,0.237,0.044,0.483,0.043,0.731c-0.002,0.152,0.028,0.188,0.183,0.229
	c0.691,0.18,1.381,0.367,2.074,0.548c0.056,0.017,0.118,0.021,0.149,0.087c0,0.089-0.074,0.07-0.127,0.081
	c-0.578,0.099-1.158,0.187-1.737,0.257c-0.148,0.021-0.29,0.061-0.395,0.17c-0.079,0.033-0.088,0.098-0.072,0.169
	c0.04,0.171,0.082,0.337,0.118,0.507c0.019,0.102,0.063,0.135,0.157,0.11c0.248-0.035,0.493-0.069,0.741-0.104
	c0.17-0.02,0.209,0,0.242,0.166c0.027,0.146,0.063,0.287,0.047,0.439c-0.037,0.061-0.099,0.076-0.162,0.087
	c-0.138,0.019-0.271,0.056-0.41,0.06c-0.166,0.013-0.308,0.07-0.429,0.187c-0.074,0.022-0.078,0.076-0.063,0.147
	c0.035,0.173,0.066,0.341,0.113,0.512c0.036,0.133,0.051,0.143,0.187,0.119c0.717-0.102,1.43-0.221,2.146-0.318
	c0.066-0.014,0.136-0.021,0.203-0.018c0.161,0.033,0.173,0.107,0.047,0.269c-0.007,0.062,0.029,0.103,0.05,0.146
	c0.146,0.328,0.196,0.658,0.058,1.004c-0.028,0.066-0.056,0.134-0.115,0.179c-0.195,0.129-0.396,0.235-0.636,0.253
	c-0.1,0.008-0.199,0.006-0.252-0.105c0.051-0.041,0.113-0.032,0.172-0.041c0.402-0.07,0.609-0.336,0.586-0.741
	c-0.011-0.146-0.055-0.277-0.124-0.41c-0.043-0.078-0.105-0.114-0.195-0.103c-0.302,0.051-0.603,0.088-0.904,0.133
	c-0.085,0.021-0.11,0.064-0.121,0.142c-0.009,0.084,0.013,0.171-0.022,0.251c-0.064,0.036-0.064-0.021-0.072-0.061
	c-0.015-0.063-0.038-0.129-0.073-0.188c-0.048-0.08-0.116-0.105-0.201-0.066c-0.142,0.078-0.287,0.146-0.437,0.205
	c-0.1,0.033-0.145,0.133-0.215,0.207c-0.05,0.037-0.06,0.09-0.055,0.148c0.072,0.818,0.697,1.605,1.639,1.637
	c0.307,0.01,0.594-0.06,0.88-0.146c0.5-0.1,0.847-0.396,1.08-0.83c0.139-0.266,0.237-0.533,0.223-0.838
	C18.342,59.489,18.337,59.438,18.38,59.402z"/>
<path fill="#020202" d="M14.139,49.421c0.061-0.071,0.056-0.175,0.109-0.251c0.245,0.023,0.491,0.051,0.735,0.078
	c0.082,0.01,0.074-0.041,0.087-0.089c0.017-0.063-0.007-0.093-0.071-0.097c-0.28-0.031-0.564-0.07-0.845-0.095
	c-0.1-0.01-0.145-0.03-0.138-0.147c0.025-0.4,0.04-0.803,0.05-1.201c0.001-0.1,0.044-0.1,0.117-0.086
	c0.42,0.055,0.841,0.095,1.26,0.146c0.058,0.008,0.113,0.008,0.178-0.013c-0.162-0.092-0.323-0.194-0.484-0.291
	c-0.249-0.146-0.492-0.297-0.744-0.438c-0.087-0.047-0.115-0.09-0.09-0.194c0.102-0.419,0.193-0.845,0.282-1.265
	c0.014-0.07,0.042-0.102,0.12-0.107c1.186-0.126,2.371-0.252,3.557-0.387c0.084-0.008,0.112,0.007,0.098,0.1
	c-0.07,0.438-0.136,0.877-0.198,1.318c-0.011,0.074-0.039,0.104-0.118,0.104c-0.132,0-0.266,0.021-0.396,0.021
	c-0.079,0-0.102,0.035-0.113,0.103c-0.02,0.112-0.043,0.226-0.074,0.332c-0.026,0.093,0.001,0.144,0.085,0.181
	c0.11,0.051,0.211,0.121,0.322,0.176c0.062,0.031,0.087,0.065,0.061,0.142c-0.189,0.479-0.245,0.979-0.237,1.49
	c0.003,0.11-0.017,0.223-0.013,0.329c-0.001,0.082-0.025,0.099-0.103,0.089c-0.357-0.044-0.717-0.078-1.072-0.125
	c-0.087-0.013-0.103,0.021-0.116,0.098c-0.014,0.097,0.053,0.08,0.102,0.085c0.313,0.036,0.628,0.076,0.944,0.104
	c0.094,0.014,0.118,0.045,0.111,0.138c-0.016,0.302-0.016,0.604-0.041,0.897c-0.01,0.11,0.08,0.185,0.06,0.289
	c-0.135-0.015-0.257-0.076-0.383-0.131c-0.039-0.014-0.039-0.059-0.033-0.1c-0.002-0.059-0.007-0.113,0.03-0.16
	c0.106-0.018,0.144-0.074,0.148-0.182c0.012-0.154-0.011-0.311,0.007-0.467c0.01-0.098-0.06-0.138-0.143-0.146
	c-0.238-0.029-0.475-0.063-0.715-0.086c-0.238-0.021-0.313-0.117-0.28-0.354c0.009-0.064,0.015-0.135,0.02-0.197
	c0.003-0.063,0.022-0.118,0.089-0.143c0.275,0,0.55,0.051,0.824,0.078c0.089,0.01,0.18,0.025,0.229-0.078
	c0.116-0.053,0.156-0.143,0.16-0.271c0.006-0.125,0.026-0.244,0.02-0.367c-0.013-0.244,0.03-0.479,0.12-0.706
	c0.046-0.127,0.028-0.175-0.086-0.245c-0.031-0.018-0.065-0.032-0.097-0.052c-0.238-0.146-0.267-0.2-0.195-0.464
	c0.05-0.181,0.053-0.375,0.144-0.54c0.057-0.063,0.133-0.059,0.208-0.055c0.104,0.01,0.193-0.017,0.258-0.104
	c0.105-0.042,0.144-0.13,0.157-0.229c0.021-0.147,0.046-0.299,0.063-0.453c0.019-0.17-0.018-0.2-0.188-0.184
	c-0.456,0.038-0.911,0.104-1.369,0.146s-0.913,0.107-1.37,0.146c-0.08,0.008-0.146,0.034-0.197,0.096
	c-0.135,0.049-0.168,0.156-0.195,0.281c-0.045,0.219-0.091,0.438-0.148,0.654c-0.03,0.105,0.002,0.173,0.098,0.229
	c0.557,0.328,1.112,0.662,1.668,0.992c0.041,0.021,0.082,0.047,0.115,0.076c0.02,0.023,0.039,0.049,0,0.074
	c-0.133,0.035-0.27,0.021-0.4,0.008c-0.453-0.053-0.906-0.109-1.359-0.158c-0.122-0.014-0.214,0.014-0.303,0.092
	c-0.089,0.016-0.117,0.072-0.117,0.16c0.005,0.158-0.001,0.317-0.02,0.48c-0.018,0.126,0.007,0.146,0.132,0.166
	c0.222,0.031,0.442,0.05,0.664,0.074c0.065,0.01,0.127,0.015,0.186,0.041c0.048,0.016,0.089,0.049,0.083,0.098
	c-0.012,0.174-0.006,0.354-0.078,0.52c-0.038,0.045-0.09,0.033-0.141,0.037c-0.2,0.002-0.395-0.037-0.592-0.064
	c-0.113-0.016-0.207-0.004-0.285,0.085C14.234,49.465,14.18,49.473,14.139,49.421z"/>
<path fill="#020202" d="M17.18,50.633c-0.026,0.07,0.034,0.072,0.075,0.085c0.107,0.024,0.212,0.065,0.309,0.128
	c0.035,0.074,0.058,0.154,0.052,0.238c0.059,0.6-0.073,1.135-0.483,1.589c-0.052,0.054-0.063,0.095,0.015,0.134
	c0.069,0.037,0.088,0.11,0.125,0.17c0.051,0.195,0.055,0.399,0.089,0.602c0.021,0.146,0.033,0.295,0.059,0.439
	c0.011,0.076-0.007,0.119-0.09,0.146c-0.121,0.033-0.238,0.086-0.358,0.123c-0.07,0.021-0.097,0.055-0.091,0.125
	c0.016,0.13,0.022,0.26,0.025,0.396c0,0.063,0.042,0.082,0.095,0.094c0.126,0.021,0.255,0.064,0.383,0.086
	c0.088,0.014,0.108,0.06,0.102,0.135c-0.054,0.645,0.038,1.26,0.215,1.869c0.023,0.096,0.001,0.121-0.096,0.136
	c-0.346,0.042-0.688,0.097-1.031,0.149c-0.058,0.009-0.125,0-0.109,0.104c0.018,0.104,0.072,0.09,0.143,0.075
	c0.31-0.049,0.619-0.091,0.928-0.142c0.099-0.022,0.121,0.019,0.14,0.104c0.059,0.284,0.125,0.564,0.188,0.857
	c0.014,0.063,0.022,0.115,0.107,0.1c0.041-0.02,0.063,0.018,0.081,0.049c0.171,0.313,0.299,0.633,0.329,0.987
	c0.027,0.381-0.08,0.729-0.266,1.051c-0.173,0.313-0.434,0.53-0.745,0.688c-0.099,0.055-0.218,0.06-0.324,0.088
	c0.001-0.063,0.061-0.068,0.102-0.096c0.211-0.104,0.389-0.248,0.558-0.414c0.524-0.508,0.617-1.113,0.413-1.793
	c-0.021-0.063-0.044-0.143-0.073-0.215c-0.043-0.103-0.118-0.146-0.223-0.132c-0.132,0.021-0.269,0.022-0.402,0.045
	c-0.08,0.013-0.122,0.063-0.18,0.104c-0.074,0.025-0.146,0.063-0.227,0.018c0.011-0.021,0.027-0.025,0.048-0.031
	c0.067-0.016,0.079-0.063,0.075-0.121c-0.004-0.063-0.067-0.049-0.104-0.053c0.013-0.063,0.06-0.06,0.099-0.064
	c0.103-0.02,0.197-0.045,0.298-0.055c0.055-0.006,0.095-0.021,0.123-0.072c0.117-0.088,0.135-0.199,0.093-0.334
	c-0.034-0.103-0.061-0.223-0.087-0.33c-0.021-0.103-0.079-0.143-0.182-0.129c-0.235,0.021-0.469,0.062-0.7,0.101
	c-0.078,0.017-0.15,0.021-0.227-0.006c-0.061-0.021-0.107-0.06-0.12-0.117c-0.02-0.14-0.058-0.271-0.071-0.413
	c-0.004-0.045,0-0.091,0.036-0.126c0.043-0.042,0.101-0.042,0.153-0.052c0.247-0.044,0.492-0.071,0.739-0.109
	c0.057-0.009,0.105-0.02,0.131-0.078c0.111-0.066,0.126-0.166,0.092-0.281c-0.04-0.146-0.064-0.307-0.099-0.443
	c-0.037-0.164-0.06-0.324-0.024-0.488c0.004-0.02,0.002-0.021,0.005-0.035c0.027-0.319,0-0.356-0.311-0.447
	c-0.202-0.051-0.248-0.104-0.269-0.313c-0.023-0.229-0.036-0.452-0.008-0.687c0.035-0.073,0.113-0.081,0.18-0.106
	c0.073-0.021,0.148-0.043,0.188-0.116c0.072-0.063,0.12-0.125,0.107-0.229c-0.016-0.166-0.047-0.331-0.063-0.498
	c-0.01-0.106-0.051-0.127-0.146-0.091c-0.575,0.244-1.155,0.479-1.734,0.716c-0.335,0.144-0.669,0.269-1.008,0.409
	c-0.051,0.021-0.105,0.063-0.167,0.021c-0.013-0.11,0.067-0.188,0.147-0.219c0.438-0.188,0.879-0.358,1.321-0.539
	c0.063-0.022,0.125-0.052,0.184-0.112c-0.139-0.046-0.275,0.021-0.4-0.035c0.073-0.063,0.163-0.039,0.245-0.039
	c0.456,0.021,0.846-0.138,1.19-0.422c0.08-0.067,0.132-0.166,0.227-0.224c0.146-0.078,0.225-0.213,0.294-0.353
	c0.184-0.367,0.231-0.758,0.18-1.16c-0.016-0.118-0.073-0.184-0.193-0.204c-0.108-0.017-0.217-0.03-0.326-0.056
	c-0.108-0.026-0.197-0.008-0.27,0.08c-0.065,0.028-0.128,0.002-0.19-0.01c-0.033-0.072,0.029-0.044,0.055-0.052
	c0.055-0.082,0.082-0.202,0.221-0.187c-0.019-0.021-0.029-0.047,0.008-0.063C16.895,50.553,17.042,50.559,17.18,50.633z"/>
<path fill="#020202" d="M17.271,52.977c-0.083-0.055-0.121-0.158-0.229-0.188c-0.049-0.014-0.017-0.063,0.012-0.094
	c0.218-0.194,0.338-0.45,0.444-0.721c0.073-0.18,0.064-0.369,0.101-0.555c0.022-0.105,0.009-0.225,0.015-0.336
	c0.094,0.52,0.026,1.012-0.237,1.469C17.299,52.688,17.241,52.816,17.271,52.977z"/>
<path fill="#020202" d="M11.818,54.6c-0.004,0.146,0.04,0.285-0.016,0.436c-0.022,0.061,0.043,0.095,0.071,0.14
	c0.011,0.021,0.028,0.021,0.042-0.001c0.034-0.04,0.035-0.085,0.018-0.131c-0.01-0.036-0.014-0.07-0.021-0.104
	c0.066,0.104,0.16,0.106,0.262,0.105c0.182-0.006,0.364,0.001,0.545-0.001c0.056,0.002,0.112-0.011,0.141,0.063
	c0.012,0.021,0.033,0.045,0.062,0.025c0.028-0.021,0.018-0.046,0.018-0.064c0.002-0.15,0.006-0.314,0.002-0.475
	c-0.009-0.314-0.251-0.525-0.592-0.529C12.034,54.068,11.824,54.284,11.818,54.6z M12.644,54.379
	c0.074,0.021,0.138,0.061,0.177,0.132c0.103,0.19,0.055,0.269-0.148,0.265c-0.096,0-0.194,0.002-0.292,0
	c-0.131-0.002-0.262,0-0.393-0.002c-0.066,0.014-0.087-0.02-0.086-0.086c-0.001-0.146,0.082-0.271,0.241-0.313
	C12.31,54.331,12.478,54.334,12.644,54.379z"/>
<path fill="#020202" d="M11.904,55.427c-0.153,0.224-0.13,0.521,0.055,0.728c0.174,0.189,0.473,0.24,0.695,0.113
	c0.075-0.043,0.157-0.158,0.206-0.142c0.072,0.021,0.12,0.131,0.195,0.229c-0.06-0.271-0.238-0.437-0.383-0.612
	c-0.02-0.021-0.062-0.021-0.101-0.027c-0.063-0.021-0.14-0.008-0.178-0.073c-0.074-0.127-0.123-0.133-0.212-0.02
	c0.002-0.148,0.002-0.148,0.153-0.148c0.068,0.002,0.113,0.002,0.041-0.066c-0.021,0.016-0.045,0.021-0.069,0.021
	c-0.073,0.014-0.169-0.041-0.194,0.084c-0.014,0.07-0.088,0.141-0.054,0.229c0.02,0.05-0.019,0.06-0.047,0.069
	c-0.042,0.024-0.056,0.062-0.024,0.104c0.017,0.021,0.055,0.063,0.068,0.025c0.016-0.023,0.099-0.032,0.042-0.096
	c-0.013-0.018-0.036-0.033-0.005-0.053c0.011-0.007,0.024-0.009,0.036-0.004c0.023,0.013,0.052,0.031,0.04,0.057
	c-0.05,0.125,0.052,0.137,0.12,0.155c0.095,0.021,0.195,0.036,0.309,0.054c-0.026-0.063-0.071-0.063-0.114-0.064
	c-0.074-0.012-0.141-0.034-0.205-0.065c-0.05-0.024-0.042-0.067-0.02-0.108c0.028-0.053,0.057-0.008,0.081,0.016
	c0.112,0.07,0.237,0.124,0.364,0.179c0.1,0.032,0.085,0.07,0.02,0.14c-0.163,0.146-0.401,0.18-0.592,0.065
	c-0.192-0.106-0.29-0.331-0.239-0.551c0.05-0.228,0.218-0.356,0.46-0.386l0,0c0.32-0.014,0.557,0.234,0.527,0.555
	c-0.003,0.025-0.015,0.064-0.013,0.086c0.002,0.021,0.02,0.043,0.037,0.051c0.026,0.014,0.028-0.021,0.035-0.041
	c0.008-0.021,0.015-0.063,0.019-0.086c0.031-0.252-0.125-0.51-0.368-0.607C12.34,55.118,12.051,55.205,11.904,55.427z
	 M12.473,55.768c0.119,0.008,0.18,0.066,0.243,0.121C12.631,55.883,12.564,55.836,12.473,55.768z"/>
<path fill="#020202" d="M12.802,53.33c0.063,0.064,0.087,0.145,0.071,0.232c-0.019,0.104-0.151,0.197-0.271,0.177
	c-0.117-0.017-0.042-0.115-0.058-0.173c-0.008-0.024-0.001-0.053-0.002-0.076c0-0.063,0-0.133,0.001-0.204
	c0.001-0.044-0.018-0.063-0.061-0.058c-0.132,0.008-0.265,0.104-0.31,0.229c-0.073,0.19,0.006,0.401,0.185,0.505
	c0.187,0.089,0.419,0.021,0.54-0.146c0.112-0.164,0.094-0.434-0.038-0.562c-0.021-0.019-0.037-0.05-0.071-0.022
	C12.757,53.287,12.78,53.307,12.802,53.33z M12.393,53.739c-0.085-0.011-0.168-0.034-0.166-0.132c0.002-0.1,0.088-0.113,0.167-0.123
	c0.119-0.012,0.05,0.086,0.073,0.135C12.445,53.66,12.506,53.75,12.393,53.739z"/>
<path fill="#F04949" d="M17.085,53.84c0.006,0.063-0.024,0.088-0.083,0.104c-0.091,0.033-0.18,0.068-0.271,0.104
	c-0.146,0.083-0.146,0.21-0.127,0.356c0.019,0.164,0.035,0.337,0.032,0.504c-0.002,0.107,0.042,0.158,0.146,0.184
	c0.09,0.021,0.185,0.039,0.273,0.063c0.088,0.021,0.144,0.076,0.137,0.176c-0.028,0.449,0.025,0.898,0.148,1.341
	c0.008,0.029,0.004,0.063-0.007,0.104c0.014,0.08-0.027,0.098-0.096,0.104c-0.313,0.047-0.625,0.077-0.932,0.145
	c-0.154,0.086-0.154,0.086-0.133,0.264c0.018,0.111,0.033,0.229,0.051,0.339c0.013,0.091,0.053,0.121,0.148,0.106
	c0.287-0.047,0.575-0.086,0.864-0.135c0.159-0.021,0.19-0.005,0.225,0.146c0.038,0.171,0.081,0.341,0.115,0.512
	c0.008,0.044,0.014,0.086,0.002,0.126c0.002,0.067-0.03,0.099-0.098,0.104c-0.148,0.02-0.297,0.054-0.447,0.068
	c-0.385,0.035-0.761,0.106-1.142,0.161c-0.419,0.06-0.837,0.12-1.256,0.183c-0.115,0.021-0.144-0.021-0.163-0.119
	c-0.036-0.188-0.078-0.368-0.125-0.561c-0.029-0.102-0.018-0.168,0.108-0.174c0.258-0.102,0.536-0.102,0.804-0.15
	c0.09-0.02,0.155-0.045,0.175-0.144c-0.023-0.157-0.048-0.319-0.064-0.483c-0.011-0.09-0.051-0.104-0.137-0.093
	c-0.287,0.048-0.576,0.086-0.865,0.134c-0.079,0.018-0.105-0.012-0.12-0.08c-0.043-0.209-0.088-0.412-0.142-0.617
	c-0.028-0.104,0.006-0.146,0.105-0.151c0.131-0.063,0.271-0.063,0.407-0.091c0.687-0.104,1.373-0.208,2.07-0.313
	c-0.074-0.025-0.158-0.025-0.213-0.091c-0.518-0.142-1.033-0.276-1.553-0.411c-0.248-0.066-0.497-0.136-0.747-0.191
	c-0.093-0.021-0.125-0.065-0.127-0.153c-0.015-0.297-0.031-0.593-0.054-0.888c-0.003-0.063,0.021-0.106,0.075-0.146
	c0.369-0.132,0.722-0.288,1.082-0.438c0.568-0.225,1.133-0.461,1.701-0.688c0.038-0.018,0.081-0.022,0.121-0.036
	c0.034,0.021,0.047,0.063,0.054,0.102c0.032,0.211,0.063,0.427,0.081,0.638C17.105,53.766,17.092,53.805,17.085,53.84z"/>
<path fill="#F04949" d="M17.18,50.633c-0.152-0.016-0.304-0.029-0.456-0.045c-0.097,0.037-0.187-0.041-0.279-0.031
	c-0.352-0.041-0.704-0.086-1.056-0.129c-0.402-0.049-0.804-0.093-1.208-0.137c-0.05-0.01-0.098-0.012-0.092-0.078
	c0.029-0.27-0.001-0.531,0.046-0.794c0.051,0.001,0.104,0.005,0.152,0.005c0.163-0.041,0.317,0.018,0.477,0.021
	c0.103,0.008,0.205,0.016,0.301,0.035c0.102,0.02,0.173-0.01,0.217-0.105c0.021-0.172,0.047-0.342,0.066-0.516
	c0.008-0.063-0.039-0.069-0.088-0.075c-0.293-0.032-0.588-0.072-0.879-0.099c-0.087-0.012-0.116-0.039-0.111-0.127
	c0.014-0.222,0.023-0.438,0.026-0.654c0.001-0.133,0.097-0.07,0.153-0.084c0.092-0.045,0.186-0.012,0.273-0.002
	c0.659,0.074,1.321,0.152,1.983,0.225c0.008,0.003,0.018,0,0.023-0.008c-0.062-0.055-0.158-0.066-0.196-0.154
	c-0.426-0.258-0.857-0.517-1.288-0.775c-0.195-0.119-0.391-0.233-0.588-0.352c-0.076-0.043-0.093-0.086-0.075-0.172
	c0.065-0.27,0.127-0.539,0.179-0.814c0.021-0.107,0.063-0.174,0.179-0.184c0.156-0.076,0.33-0.063,0.497-0.08
	c0.786-0.088,1.578-0.174,2.365-0.256c0.206-0.023,0.234,0.006,0.207,0.209c-0.021,0.166-0.049,0.334-0.076,0.501
	c-0.009,0.044-0.015,0.093-0.05,0.13c-0.011,0.1-0.07,0.125-0.165,0.123c-0.098-0.003-0.197-0.007-0.29,0.021
	c-0.102,0.043-0.136,0.123-0.156,0.225c-0.041,0.193-0.078,0.391-0.126,0.584c-0.026,0.1,0.003,0.163,0.095,0.207
	c0.096,0.045,0.187,0.089,0.276,0.15c0.07,0.043,0.091,0.103,0.066,0.177c-0.01,0.034-0.019,0.063-0.031,0.098
	c-0.092,0.267-0.145,0.54-0.127,0.825c0.009,0.133-0.012,0.261-0.05,0.389c0.005,0.125-0.059,0.141-0.168,0.121
	c-0.307-0.037-0.611-0.064-0.917-0.098c-0.108,0.014-0.159,0.08-0.166,0.188c-0.008,0.111-0.021,0.229-0.036,0.338
	c-0.015,0.146-0.004,0.16,0.143,0.183c0.256,0.032,0.511,0.062,0.768,0.087c0.214,0.021,0.244,0.048,0.243,0.264
	c0.001,0.106,0.002,0.215-0.001,0.317c-0.004,0.063-0.001,0.126-0.046,0.177C17.191,50.523,17.187,50.576,17.18,50.633z"/>
<path fill="#F04949" d="M17.71,60.753c-0.19,0.204-0.421,0.353-0.665,0.478c-0.248,0.086-0.501,0.154-0.768,0.151
	c-0.772,0.001-1.387-0.413-1.664-1.138c-0.069-0.18-0.118-0.354-0.133-0.553c-0.009-0.082,0.018-0.125,0.086-0.154
	c0.172-0.135,0.381-0.189,0.574-0.279c0.041-0.018,0.083-0.021,0.107,0.027c0.041,0.107,0.035,0.232,0.064,0.35
	c0.092,0.36,0.27,0.662,0.646,0.78c0.248,0.077,0.501,0.058,0.737-0.065c0.142-0.065,0.248-0.181,0.361-0.283
	c0.193-0.271,0.206-0.582,0.129-0.897c-0.039-0.146-0.111-0.28-0.175-0.42c0.075-0.017,0.149-0.024,0.228-0.038
	c0.17-0.082,0.36-0.066,0.544-0.087c0.065-0.009,0.104,0.051,0.128,0.104c0.264,0.599,0.316,1.195-0.019,1.779
	C17.844,60.604,17.765,60.672,17.71,60.753z"/>
<path fill="#F04949" d="M16.98,52.593c-0.415,0.501-0.95,0.702-1.592,0.654c-0.024-0.001-0.051,0-0.076,0.001
	c-0.255-0.049-0.503-0.109-0.729-0.248c-0.535-0.323-0.789-0.813-0.834-1.428c-0.009-0.127,0.003-0.252,0.005-0.377
	c0.002-0.135,0.05-0.229,0.2-0.234c0.128-0.078,0.276-0.07,0.416-0.092c0.271-0.041,0.269-0.039,0.237,0.229
	c-0.023,0.207-0.015,0.407,0.048,0.604c0.161,0.505,0.626,0.694,1.102,0.598c0.116-0.021,0.229-0.063,0.335-0.114
	c0.268-0.178,0.389-0.438,0.424-0.742c0.02-0.191,0.002-0.391-0.052-0.576c0.06-0.057,0.124,0.014,0.184-0.006
	c0.211-0.026,0.412,0.021,0.613,0.07c0.053,0.014,0.072,0.07,0.079,0.125c0.068,0.471,0.045,0.93-0.195,1.353
	C17.101,52.475,17.043,52.535,16.98,52.593z"/>
<path fill="#F4F4F4" d="M16.272,51.295c-0.002,0.564-0.392,0.9-0.883,0.786c-0.219-0.052-0.372-0.187-0.451-0.392
	c-0.123-0.328-0.064-0.643,0.076-0.947c0.021-0.047,0.057-0.041,0.094-0.039c0.332,0.038,0.664,0.074,0.998,0.113
	c0.053,0.004,0.069,0.037,0.088,0.076C16.252,51.025,16.276,51.17,16.272,51.295z"/>
<path fill="#F4F4F4" d="M15.557,59.473c0.004-0.104-0.006-0.229,0.016-0.341c0.008-0.057,0.021-0.08,0.083-0.093
	c0.338-0.045,0.676-0.098,1.014-0.15c0.075-0.01,0.116,0.008,0.154,0.076c0.093,0.17,0.16,0.354,0.161,0.551
	c0.001,0.407-0.283,0.702-0.694,0.721c-0.032,0-0.065,0-0.101,0c-0.156,0.039-0.268-0.049-0.369-0.146
	c-0.17-0.149-0.244-0.354-0.281-0.575C15.538,59.5,15.545,59.484,15.557,59.473z"/>
<path fill="#020202" d="M16.093,52.182c-0.526,0.426-1.365,0.104-1.508-0.582c-0.04-0.207-0.046-0.418,0.007-0.627
	c0.028-0.103-0.009-0.104-0.087-0.096c-0.184,0.031-0.369,0.055-0.551,0.081c0.036-0.101,0.133-0.104,0.209-0.119
	c0.152-0.024,0.3-0.075,0.46-0.063c0.098,0.008,0.131,0.039,0.123,0.14c-0.021,0.286-0.021,0.569,0.131,0.837
	c0.225,0.383,0.565,0.514,0.955,0.475C15.919,52.216,16.008,52.195,16.093,52.182z"/>
<path fill="#020202" d="M15.557,59.473c0.021,0.077,0.039,0.163,0.064,0.242c0.094,0.275,0.266,0.471,0.566,0.521
	c0.208,0.125,0.408,0.061,0.604-0.021c0.093-0.042,0.178-0.104,0.266-0.146c-0.073,0.146-0.185,0.24-0.332,0.306
	c-0.586,0.224-1.054-0.125-1.249-0.581c-0.057-0.129-0.095-0.271-0.111-0.398c-0.006-0.064-0.02-0.147-0.125-0.102
	c-0.043-0.027-0.08,0-0.115,0.021c-0.189,0.082-0.373,0.154-0.56,0.233c0.073-0.14,0.187-0.218,0.333-0.269
	c0.105-0.032,0.205-0.098,0.306-0.143c0.136-0.063,0.186-0.044,0.265,0.09C15.522,59.296,15.52,59.389,15.557,59.473z"/>
<path fill="#020202" d="M16.467,55.945c0.113,0.025,0.228,0.057,0.342,0.082c-0.001,0.009-0.001,0.019,0,0.027
	c-0.174,0.021-0.35,0.053-0.521,0.078c-0.668,0.098-1.336,0.198-2.008,0.301c-0.023,0.006-0.051-0.002-0.076,0.002
	c0.101-0.187,0.29-0.176,0.453-0.196c0.545-0.076,1.092-0.144,1.633-0.245C16.35,55.986,16.432,56.041,16.467,55.945z"/>
<path fill="#020202" d="M15.43,57.745c0.036,0.101,0.019,0.149-0.103,0.169c-0.294,0.033-0.583,0.079-0.877,0.119
	c0.165-0.229,0.432-0.155,0.65-0.219C15.208,57.789,15.331,57.816,15.43,57.745z"/>
<path fill="#020202" d="M16.445,50.559c0.096-0.004,0.189,0.01,0.28,0.033c0.019,0.01,0.033,0.02,0.055,0.035
	c-0.093,0.027-0.195,0.047-0.204,0.174c-0.001,0.006-0.036,0.008-0.056,0.012c0.002-0.021-0.006-0.049,0.004-0.063
	C16.606,50.641,16.588,50.574,16.445,50.559z"/>
<path fill="#020202" d="M17.888,46.094c0.033-0.229,0.059-0.463,0.1-0.691c0.021-0.109-0.015-0.127-0.116-0.113
	c-0.93,0.104-1.859,0.201-2.785,0.301c-0.047,0.006-0.092,0.002-0.139,0.006c0.072-0.174,0.24-0.132,0.373-0.146
	c0.328-0.033,0.656-0.073,0.986-0.115c0.184-0.021,0.366-0.041,0.552-0.052c0.376-0.026,0.748-0.095,1.125-0.128
	c0.117-0.01,0.173,0.025,0.165,0.144c-0.016,0.235-0.045,0.472-0.104,0.698C18.023,46.079,17.961,46.088,17.888,46.094z"/>
<path fill="#020202" d="M17.381,48.887c0.002-0.438-0.007-0.881,0.168-1.295c0.034-0.082,0.023-0.133-0.063-0.174
	c-0.104-0.046-0.198-0.115-0.301-0.157c-0.082-0.038-0.103-0.088-0.082-0.173c0.059-0.242,0.113-0.486,0.159-0.73
	c0.021-0.104,0.07-0.145,0.172-0.121c-0.046,0.223-0.087,0.441-0.146,0.66c-0.033,0.121,0.018,0.194,0.11,0.256
	c0.071,0.049,0.145,0.087,0.221,0.121c0.093,0.057,0.134,0.131,0.088,0.242c-0.085,0.205-0.151,0.416-0.133,0.646
	c0.017,0.189-0.018,0.377-0.028,0.57C17.542,48.839,17.48,48.887,17.381,48.887z"/>
<path fill="#020202" d="M17.199,50.466c0.006-0.187,0.003-0.37,0.018-0.558c0.012-0.121-0.041-0.146-0.147-0.158
	c-0.311-0.029-0.621-0.075-0.932-0.1c-0.09-0.01-0.105-0.045-0.094-0.123c0.02-0.154,0.039-0.314,0.055-0.467
	c0.016-0.18,0.014-0.179,0.199-0.148c-0.021,0.021-0.051,0.036-0.048,0.068c0.007,0.104-0.017,0.209-0.024,0.315
	c-0.013,0.151,0.049,0.228,0.207,0.243c0.264,0.027,0.526,0.053,0.791,0.084c0.094,0.014,0.174,0.07,0.158,0.162
	c-0.037,0.188,0.005,0.378-0.021,0.563C17.348,50.463,17.319,50.491,17.199,50.466z"/>
<path fill="#020202" d="M16.542,47.887c0.106,0.059,0.212,0.119,0.318,0.178c-0.002,0.016-0.007,0.027-0.008,0.041
	c-0.799-0.094-1.598-0.188-2.398-0.281c0.07-0.104,0.155-0.117,0.281-0.106c0.357,0.025,0.709,0.095,1.063,0.121
	C16.047,47.859,16.292,47.902,16.542,47.887z"/>
<path fill="#020202" d="M15.285,49.382c-0.001,0.165-0.002,0.173-0.155,0.15c-0.278-0.032-0.562-0.044-0.838-0.101
	c0.034-0.109,0.098-0.132,0.212-0.117C14.761,49.342,15.019,49.408,15.285,49.382z"/>
<path fill="#020202" d="M17.334,56.76c-0.139-0.441-0.214-0.9-0.171-1.379c0.012-0.127-0.021-0.188-0.158-0.208
	c-0.103-0.009-0.205-0.047-0.31-0.065c-0.066-0.016-0.093-0.041-0.096-0.11c-0.014-0.228-0.033-0.474-0.043-0.706
	c-0.006-0.212-0.049-0.186,0.175-0.241c-0.009,0.243-0.007,0.489,0.021,0.74c0.014,0.112,0.066,0.192,0.191,0.213
	c0.005,0.001,0.011,0.001,0.013,0c0.364,0.063,0.441,0.183,0.369,0.538c-0.032,0.15-0.011,0.302,0.018,0.441
	c0.031,0.187,0.065,0.357,0.118,0.528C17.496,56.654,17.454,56.725,17.334,56.76z"/>
<path fill="#020202" d="M17.71,60.753c0.118-0.194,0.248-0.388,0.31-0.614c0.143-0.5,0.051-0.969-0.154-1.427
	c-0.028-0.062-0.067-0.063-0.123-0.052c-0.169,0.017-0.336,0.035-0.504,0.053c0.069-0.177,0.239-0.104,0.363-0.143
	c0.038-0.024,0.085-0.002,0.127-0.01c0.237-0.054,0.303,0.002,0.384,0.229c0.103,0.284,0.163,0.572,0.137,0.875
	C18.21,60.1,18.053,60.473,17.71,60.753z"/>
<path fill="#020202" d="M17.575,58.364c-0.072-0.216-0.108-0.444-0.154-0.654c-0.018-0.082-0.042-0.112-0.135-0.094
	c-0.318,0.06-0.646,0.096-0.964,0.149c-0.075,0.014-0.118,0.004-0.126-0.093c-0.018-0.163-0.034-0.336-0.076-0.498
	c-0.034-0.142,0.027-0.161,0.138-0.165c0.019,0.004,0.036,0.004,0.052,0.004c-0.049,0.098,0.009,0.188,0.018,0.271
	c0.004,0.063,0.025,0.106,0.031,0.146c0.023,0.18,0.094,0.229,0.27,0.192c0.264-0.054,0.528-0.091,0.795-0.112
	c0.087-0.014,0.139,0.027,0.158,0.106c0.05,0.184,0.098,0.36,0.14,0.55C17.738,58.279,17.632,58.307,17.575,58.364z"/>
<path fill="#020202" d="M16.98,52.593c0.33-0.458,0.408-0.97,0.327-1.518c-0.014-0.083-0.035-0.13-0.135-0.142
	c-0.175-0.019-0.351-0.055-0.523-0.078c0.046-0.11,0.123-0.133,0.235-0.105c0.127,0.034,0.259,0.051,0.386,0.064
	c0.128,0.009,0.198,0.086,0.211,0.203c0.039,0.354,0.035,0.705-0.105,1.041C17.285,52.266,17.207,52.482,16.98,52.593z"/>
<path fill="#020202" d="M17.085,53.84c-0.039-0.279-0.079-0.566-0.12-0.844c0.004-0.043,0.026-0.074,0.074-0.068
	c0.051,0.01,0.077,0.043,0.096,0.088c0.054,0.12,0.023,0.252,0.054,0.377c0.019,0.073,0.027,0.152,0.032,0.232
	C17.224,53.734,17.188,53.807,17.085,53.84z"/>
<path fill="#020202" d="M15.936,54.798c0.002,0.034,0.006,0.065,0.009,0.103c0.005,0.063-0.018,0.086-0.079,0.074
	c-0.34-0.063-0.68-0.125-1.021-0.188c-0.037-0.008-0.061-0.025-0.061-0.069c-0.002-0.042,0.009-0.073,0.054-0.086
	c0.054-0.016,0.106-0.028,0.159-0.044c0.023-0.018,0.047-0.007,0.068,0.016c0.161,0.065,0.337,0.065,0.506,0.104
	c0.056,0.021,0.116,0.026,0.172,0.044C15.803,54.777,15.884,54.743,15.936,54.798z"/>
<path fill="#020202" d="M15.049,54.617c-0.012-0.021-0.033-0.02-0.055-0.02c0.272-0.104,0.558-0.184,0.833-0.271
	c0.059-0.021,0.087-0.01,0.089,0.063c0.002,0.145,0.034,0.271,0.018,0.42c-0.065-0.016-0.137,0.023-0.199-0.021
	c0.008-0.021,0.027-0.047,0.032-0.063c0.011-0.084,0.011-0.184-0.047-0.238c-0.05-0.059-0.12,0.008-0.179,0.02
	c-0.116,0.029-0.227,0.09-0.346,0.122C15.149,54.621,15.102,54.648,15.049,54.617z"/>
<path fill="#020202" d="M16.52,46.697c-0.02,0.24-0.02,0.24-0.234,0.133c-0.258-0.127-0.516-0.254-0.77-0.387
	c-0.043-0.021-0.102-0.029-0.088-0.104c0.013-0.075,0.074-0.071,0.127-0.073c0.057,0,0.115,0.006,0.176,0.006
	c0.033,0.028-0.032,0.049-0.007,0.076c0.202,0.07,0.384,0.186,0.572,0.275C16.379,46.632,16.459,46.631,16.52,46.697z"/>
<path fill="#020202" d="M15.68,46.359c-0.035-0.006-0.059-0.02-0.016-0.045c0.022-0.02,0.059-0.006,0.068-0.043
	c0.27-0.008,0.541-0.021,0.816-0.026c0.067-0.003,0.076,0.03,0.063,0.085c-0.028,0.121-0.061,0.242-0.091,0.363
	c-0.078-0.01-0.15-0.041-0.231-0.029c-0.001-0.061,0.017-0.117,0.025-0.175c0.021-0.114,0.001-0.134-0.112-0.142
	C16.031,46.336,15.854,46.385,15.68,46.359z"/>
<path fill="#020202" d="M15.243,59.283c0.016-0.021-0.017-0.075,0.038-0.076c0.05,0.007,0.085,0.034,0.103,0.084
	c0.033,0.104,0.033,0.223,0.071,0.331c0.126,0.373,0.338,0.663,0.741,0.758c0.174,0.04,0.356,0.04,0.533-0.011
	c-0.398,0.251-0.938,0.152-1.225-0.225C15.313,59.891,15.233,59.6,15.243,59.283z"/>
<path fill="#F0EFF0" d="M15.049,54.617c0.209-0.063,0.414-0.137,0.621-0.213c0.066-0.021,0.1-0.02,0.109,0.063
	c0.008,0.066,0.018,0.148,0.037,0.227c0.012,0.063-0.019,0.096-0.08,0.09c-0.194-0.033-0.391-0.068-0.586-0.106
	C15.113,54.658,15.065,54.676,15.049,54.617z"/>
<path fill="#EBECEC" d="M15.68,46.359c0.21-0.06,0.429-0.041,0.641-0.047c0.035,0,0.061,0.01,0.053,0.052
	c-0.021,0.103-0.008,0.212-0.081,0.302C16.092,46.553,15.891,46.443,15.68,46.359z"/>
<path fill="#020202" d="M17.296,53.527c0.156-0.014,0.314-0.029,0.471-0.041c0.045-0.002,0.091,0.012,0.136,0.018
	c0.01,0,0.021,0.02,0.028,0.004c0.042-0.013,0.082-0.021,0.125-0.053c-0.022-0.006-0.049-0.016-0.072-0.014
	c-0.059-0.004-0.114-0.004-0.169,0c-0.033,0-0.044-0.012-0.044-0.043c0.007-0.133,0.01-0.266,0.01-0.395
	c0-0.093,0.018-0.176,0.069-0.25c0.022-0.029,0.016-0.063,0-0.092c-0.054-0.129-0.071-0.266-0.059-0.396
	c0.014-0.146,0.055-0.275,0.14-0.389c0.079-0.104,0.191-0.172,0.327-0.195c0.038-0.01,0.078-0.016,0.119-0.021
	c-0.08-0.069-0.179-0.046-0.269-0.063c-0.054-0.013-0.106-0.021-0.162-0.027c-0.029-0.006-0.041-0.021-0.036-0.053
	c0.003-0.021,0.007-0.043,0.011-0.063c0.008-0.047-0.009-0.074-0.058-0.078c-0.077-0.008-0.155-0.004-0.23-0.013
	c-0.066-0.012-0.129-0.032-0.196-0.047c0.024-0.162,0.047-0.318,0.07-0.481c0.006-0.022,0.008-0.056,0.013-0.078
	c0.009-0.043,0.045-0.063,0.089-0.059c0.113,0.02,0.227,0.034,0.344,0.05c0.052,0.011,0.112,0.009,0.157,0.034
	c0.093,0.049,0.188,0.006,0.281,0.024c0.144,0.03,0.29,0.049,0.436,0.073c0.059,0.015,0.116,0.021,0.177,0.035
	c0.038,0.009,0.055-0.011,0.066-0.051c0.031-0.097-0.038-0.144-0.085-0.197c-0.006-0.011-0.043-0.004-0.057,0.006
	c-0.065,0.041-0.137,0.074-0.218,0.087c-0.145,0.027-0.354-0.054-0.44-0.181c-0.131-0.194-0.123-0.399-0.077-0.615
	c0.022-0.104,0.061-0.2,0.118-0.295c0.081-0.139,0.187-0.25,0.361-0.269c0.014-0.002,0.034-0.006,0.048,0
	c0.109,0.029,0.218,0.06,0.328,0.089c0.008,0.003,0.017,0.019,0.018,0.032c0.002,0.015-0.001,0.026-0.003,0.043
	c0,0.028,0.006,0.049,0.041,0.024c0.125-0.063,0.255-0.073,0.384-0.03c0.12,0.037,0.218,0.114,0.277,0.229
	c0.102,0.193,0.094,0.391,0.035,0.59c-0.042,0.154-0.121,0.289-0.235,0.408c-0.016,0.015-0.026,0.031-0.048,0.061
	c0.032,0.012,0.053,0.018,0.076,0.019c0.051,0.013,0.062,0.028,0.051,0.079c-0.022,0.093-0.037,0.182-0.055,0.271
	c-0.021,0.12-0.043,0.239-0.149,0.32c-0.036,0.025-0.074,0.048-0.109,0.082c0.039,0.004,0.077,0.013,0.117,0.011
	c0.066,0.009,0.073,0.019,0.058,0.091c-0.011,0.049-0.01,0.098-0.02,0.147c-0.011,0.083-0.018,0.172-0.037,0.259
	c-0.042,0.169-0.174,0.268-0.361,0.254c-0.189-0.018-0.383-0.043-0.574-0.061c-0.13-0.008-0.171,0.048-0.119,0.171
	c0.044,0.106,0.137,0.149,0.245,0.161c0.155,0.008,0.314,0.009,0.468,0.019c0.081,0.007,0.164,0.013,0.241,0.019
	c0.031,0.008,0.049,0.017,0.048,0.056c-0.007,0.344-0.014,0.687-0.024,1.03c-0.002,0.104-0.049,0.189-0.143,0.257
	c-0.003,0.004-0.01,0.008-0.012,0.014c-0.003,0.001-0.003,0.005-0.008,0.021c0.027,0.002,0.055,0.013,0.079,0.013
	c0.084-0.002,0.086-0.001,0.095,0.084c0.009,0.146,0.018,0.291,0.018,0.438c0.002,0.104-0.087,0.209-0.182,0.246
	c-0.121,0.041-0.249,0.041-0.372,0.062c-0.125,0.022-0.25,0.021-0.377,0.04c-0.068,0.008-0.087,0.053-0.048,0.104
	c0.06,0.088,0.147,0.117,0.245,0.107c0.224-0.02,0.444-0.061,0.665-0.082c0.038-0.012,0.089-0.021,0.114-0.014
	c0.024,0.02,0.017,0.068,0.023,0.104c0.019,0.146,0.041,0.278,0.06,0.431c0.008,0.062-0.004,0.063-0.063,0.067
	c-0.157,0.022-0.315,0.056-0.473,0.071c-0.119,0.025-0.24,0.044-0.361,0.063c-0.03,0.008-0.063,0.023-0.088,0.036
	c-0.012,0.007-0.016,0.043-0.009,0.06c0.023,0.061,0.074,0.097,0.132,0.108c0.079,0.022,0.159,0.011,0.238-0.003
	c0.076-0.02,0.146-0.034,0.224-0.051c0.128-0.021,0.255-0.053,0.386-0.075c0.072-0.017,0.071-0.009,0.084,0.063
	c0.012,0.067,0.033,0.144,0.048,0.22c0.019,0.087,0.032,0.178,0.047,0.268c0.005,0.021-0.003,0.046-0.034,0.054
	c-0.156,0.033-0.314,0.064-0.47,0.104c-0.132,0.033-0.266,0.063-0.398,0.103c-0.072,0.021-0.089,0.059-0.063,0.135
	c0.02,0.059,0.019,0.057-0.039,0.063c-0.15,0.038-0.298,0.076-0.444,0.115c-0.034,0.014-0.055,0.009-0.066-0.025
	c-0.017-0.052-0.028-0.103-0.04-0.146c-0.023-0.104-0.05-0.215-0.067-0.313c-0.006-0.041,0.005-0.089,0.014-0.127
	c0.014-0.061,0.012-0.103-0.023-0.146c-0.112-0.146-0.153-0.316-0.139-0.502c0.007-0.083,0.023-0.162,0.068-0.234
	c0.017-0.021,0.013-0.047-0.007-0.063c-0.092-0.104-0.148-0.229-0.171-0.354c-0.02-0.104-0.021-0.229,0.01-0.341
	c0.03-0.104,0.076-0.188,0.153-0.261c0.069-0.063,0.147-0.105,0.241-0.129c0.009-0.004,0.02-0.006,0.024-0.014
	c0.003-0.004,0.006-0.007,0.016-0.021c-0.033-0.007-0.06-0.017-0.087-0.015c-0.104,0.006-0.206,0.01-0.308,0.021
	c-0.071,0.009-0.085,0.001-0.088-0.065c-0.005-0.104-0.004-0.104-0.109-0.104c-0.125,0.008-0.252,0.008-0.38,0.01
	C17.294,53.93,17.296,53.729,17.296,53.527z M18.268,56.264c-0.028,0.039-0.062,0.073-0.069,0.112
	c-0.009,0.058-0.001,0.116,0.006,0.172c0.014,0.072,0.036,0.147,0.049,0.222c0.008,0.063,0.017,0.066,0.072,0.063
	c0.072-0.021,0.145-0.035,0.214-0.062c0.021-0.008,0.042-0.021,0.029-0.058c-0.007-0.026-0.011-0.06-0.019-0.088
	c-0.007-0.021,0.004-0.037,0.024-0.042c0.073-0.02,0.144-0.036,0.216-0.055c0.235-0.055,0.474-0.108,0.709-0.166
	c0.034-0.006,0.046-0.021,0.039-0.055c-0.016-0.064-0.03-0.121-0.042-0.189c-0.021-0.116-0.039-0.127-0.156-0.104
	c-0.084,0.021-0.166,0.035-0.25,0.059s-0.17,0.033-0.254,0.061c-0.13,0.023-0.242-0.012-0.348-0.082
	c-0.068-0.043-0.093-0.117-0.108-0.188c-0.011-0.063,0.009-0.106,0.056-0.142c0.078-0.059,0.164-0.061,0.25-0.068
	c0.089-0.02,0.181-0.025,0.269-0.04c0.123-0.019,0.247-0.046,0.37-0.063c0.047-0.007,0.063-0.016,0.055-0.066
	c-0.011-0.086-0.022-0.166-0.034-0.252c-0.005-0.029-0.023-0.056-0.058-0.047c-0.082,0.02-0.166,0.02-0.248,0.032
	c-0.09,0.021-0.178,0.021-0.266,0.04c-0.126,0.029-0.24,0.021-0.356-0.041c-0.094-0.057-0.167-0.146-0.157-0.271
	c0.004-0.049,0.018-0.086,0.063-0.104c0.053-0.023,0.108-0.039,0.165-0.051c0.203-0.021,0.412-0.044,0.617-0.063
	c0.101-0.011,0.169-0.086,0.165-0.188s-0.016-0.191-0.021-0.299c-0.006-0.034-0.027-0.047-0.062-0.044
	c-0.042,0.007-0.086,0.012-0.129,0.018c-0.122-0.002-0.122-0.002-0.122,0.116c0.003,0.029-0.006,0.05-0.041,0.052
	c-0.154,0.011-0.31,0.019-0.462,0.027c-0.069,0.012-0.139,0.019-0.202,0.041c-0.06,0.021-0.12,0.053-0.167,0.086
	c-0.092,0.076-0.132,0.178-0.141,0.303c-0.006,0.152,0.01,0.302,0.109,0.431c0.035,0.049,0.079,0.084,0.117,0.129
	c0.015,0.021,0.043,0.024,0.016,0.063c-0.063,0.061-0.096,0.122-0.114,0.203c-0.04,0.177,0.004,0.327,0.098,0.473
	C18.181,56.178,18.228,56.221,18.268,56.264z M18.612,53.148c0.213,0.006,0.391,0.017,0.568,0.023
	c0.038-0.001,0.064-0.021,0.066-0.063c0.002-0.088,0.003-0.176,0.004-0.266c-0.001-0.031-0.011-0.049-0.045-0.049
	c-0.193-0.006-0.389-0.021-0.58-0.033c-0.038-0.002-0.072,0-0.108-0.008c-0.158-0.047-0.266-0.15-0.28-0.324
	c-0.007-0.076-0.015-0.156,0.055-0.211c0.062-0.051,0.135-0.051,0.209-0.043c0.033,0.002,0.066,0.016,0.102,0.016
	c0.124,0.01,0.249,0.021,0.374,0.031c0.049,0.006,0.099,0.01,0.147,0.01c0.086,0,0.15-0.039,0.171-0.123
	c0.031-0.108,0.043-0.23,0.06-0.342c0.001-0.017-0.022-0.041-0.037-0.045c-0.063-0.015-0.129-0.022-0.194-0.037
	c-0.072-0.011-0.083,0-0.094,0.072c-0.012,0.088-0.012,0.088-0.096,0.074c-0.008-0.001-0.019-0.003-0.022-0.002
	c-0.072-0.01-0.148-0.018-0.224-0.025c-0.121-0.006-0.236-0.017-0.356-0.021c-0.066-0.011-0.127,0.021-0.188,0.049
	c-0.14,0.069-0.199,0.196-0.225,0.336c-0.031,0.187-0.026,0.371,0.093,0.535c0.013,0.019,0.019,0.032-0.004,0.047
	c-0.094,0.054-0.11,0.147-0.121,0.24c-0.009,0.075-0.004,0.149-0.004,0.231c-0.001,0.053,0.01,0.063,0.063,0.062
	c0.071,0.004,0.142,0.006,0.209,0c0.048-0.002,0.059-0.013,0.056-0.06c-0.002-0.021,0.002-0.037,0-0.063
	c-0.011-0.052,0.017-0.056,0.06-0.054C18.394,53.148,18.52,53.146,18.612,53.148z M19.703,50.135c0.013-0.16-0.072-0.342-0.19-0.412
	c-0.118-0.068-0.306-0.074-0.419,0.021c-0.093,0.081-0.164,0.181-0.234,0.279c-0.046,0.063-0.094,0.127-0.138,0.19
	c-0.023,0.026-0.06,0.04-0.085,0.021c-0.021-0.014-0.039-0.043-0.04-0.065c-0.008-0.073,0.009-0.147,0.048-0.214
	c0.025-0.037,0.055-0.048,0.095-0.032c0.051,0.019,0.076,0.005,0.09-0.049c0.012-0.043,0.021-0.084,0.031-0.123
	c0.012-0.043,0.024-0.084,0.035-0.125c0.006-0.026,0-0.049-0.036-0.054c-0.027-0.002-0.055-0.014-0.078-0.022
	c-0.116-0.04-0.217-0.016-0.299,0.079c-0.081,0.092-0.133,0.198-0.167,0.313c-0.031,0.108-0.051,0.224-0.038,0.338
	c0.019,0.164,0.084,0.289,0.252,0.349c0.123,0.041,0.229,0.006,0.327-0.063c0.104-0.076,0.167-0.188,0.247-0.293
	c0.053-0.065,0.109-0.138,0.167-0.201c0.023-0.025,0.083-0.063,0.103-0.03c0.021,0.028,0.015,0.103,0.01,0.137
	c-0.015,0.066-0.04,0.14-0.076,0.197c-0.043,0.071-0.113,0.124-0.189,0.169c-0.039,0.023-0.043,0.045-0.016,0.077
	c0.037,0.055,0.077,0.099,0.115,0.146c0.041,0.063,0.063,0.063,0.125,0.023c0.095-0.064,0.167-0.145,0.227-0.242
	C19.651,50.423,19.693,50.285,19.703,50.135z M18.345,50.938c-0.125-0.006-0.187,0-0.229,0.123
	c-0.034,0.088-0.045,0.188-0.065,0.279c-0.006,0.029-0.009,0.063-0.008,0.096c0.002,0.02,0.021,0.039,0.035,0.041
	c0.069,0.016,0.141,0.021,0.211,0.039c0.058,0.006,0.065-0.007,0.07-0.065c0.008-0.108,0.008-0.108,0.115-0.097
	c0.011,0,0.019,0,0.025,0.002c0.119,0.021,0.236,0.043,0.358,0.064c0.108,0.012,0.218,0.033,0.325,0.045
	c0.15,0.021,0.226-0.045,0.246-0.174c0.013-0.084,0.032-0.166,0.05-0.25c0.008-0.034,0-0.05-0.038-0.059
	c-0.067-0.016-0.136-0.028-0.204-0.043c-0.041-0.01-0.063-0.006-0.073,0.035c-0.003,0.021-0.01,0.041-0.01,0.063
	c0.001,0.035-0.018,0.054-0.053,0.047c-0.063-0.014-0.122-0.023-0.185-0.037c-0.104-0.018-0.208-0.04-0.312-0.056
	C18.509,50.963,18.407,50.947,18.345,50.938z M18.464,53.584c0.002,0.008,0,0.021,0,0.021c-0.131,0-0.26-0.002-0.39-0.002
	c-0.1,0-0.167,0.043-0.174,0.144c-0.012,0.127-0.002,0.262,0.001,0.396c-0.002,0.022,0.022,0.031,0.051,0.028
	c0.075-0.007,0.15-0.017,0.226-0.021c0.026-0.004,0.041-0.021,0.038-0.047c-0.003-0.021-0.004-0.061-0.004-0.084
	c-0.004-0.027,0.01-0.041,0.04-0.045c0.263-0.008,0.523-0.02,0.782-0.022c0.147-0.011,0.195-0.072,0.205-0.21
	c0.007-0.088,0-0.176-0.003-0.262c-0.001-0.039-0.015-0.063-0.051-0.061c-0.055-0.007-0.108-0.008-0.165-0.002
	c-0.101-0.003-0.104,0.002-0.103,0.104c-0.001,0.004,0,0.012,0.001,0.021c0,0.021-0.016,0.041-0.043,0.041
	C18.736,53.586,18.597,53.586,18.464,53.584z M17.583,51.172c-0.004,0.043,0.006,0.057,0.063,0.063
	c0.078,0.013,0.151,0.021,0.228,0.035c0.05,0.008,0.065,0,0.077-0.049c0.016-0.09,0.03-0.178,0.047-0.267
	c0.005-0.033-0.008-0.058-0.043-0.063c-0.078-0.014-0.155-0.023-0.232-0.043c-0.058-0.013-0.081-0.002-0.091,0.055
	C17.612,50.986,17.599,51.074,17.583,51.172z M17.578,53.63l0.002,0.002c-0.044,0.002-0.094,0.001-0.14-0.004
	c-0.027,0.005-0.045,0.019-0.044,0.048c0.001,0.1,0.002,0.194,0.003,0.295c0,0.027,0.014,0.047,0.044,0.045
	c0.09,0,0.178-0.004,0.269-0.008c0.038-0.004,0.057-0.025,0.058-0.066c-0.002-0.021-0.01-0.053-0.012-0.074
	c-0.004-0.063-0.004-0.123-0.004-0.189c-0.003-0.029-0.018-0.053-0.055-0.05C17.659,53.635,17.618,53.633,17.578,53.63z
	 M18.874,51.707c0.038,0.007,0.051-0.007,0.052-0.043c0.004-0.021,0.008-0.05,0.011-0.072c0.008-0.035-0.008-0.053-0.046-0.057
	c-0.107-0.016-0.213-0.035-0.321-0.055c-0.067-0.008-0.084,0.002-0.087,0.07c-0.002,0.023-0.007,0.053-0.003,0.08
	c0.001,0.014,0.021,0.035,0.034,0.037C18.633,51.684,18.753,51.695,18.874,51.707z M18.666,54.08c0.001-0.002,0-0.004,0-0.004
	c-0.085,0.004-0.169,0.01-0.254,0.02c-0.052,0.008-0.062,0.02-0.055,0.063c0.002,0.022,0.006,0.058,0.006,0.073
	c0,0.023,0.018,0.043,0.047,0.041c0.119-0.02,0.242-0.021,0.361-0.031c0.03-0.004,0.044-0.021,0.041-0.044
	c-0.005-0.044,0.023-0.095-0.027-0.124c-0.007-0.006-0.02-0.004-0.033-0.006C18.725,54.078,18.698,54.077,18.666,54.08z
	 M18.57,53.275L18.57,53.275c-0.034-0.004-0.067-0.008-0.103-0.006c-0.147,0-0.124-0.014-0.127,0.129
	c0.001,0.039,0.016,0.056,0.05,0.055c0.094-0.003,0.188-0.002,0.278-0.004c0.137,0.001,0.118,0.008,0.127-0.119
	c0.001-0.049-0.006-0.061-0.052-0.059C18.687,53.273,18.627,53.273,18.57,53.275z"/>
<path fill="#F4F4F4" d="M18.268,56.264c-0.04-0.043-0.086-0.087-0.123-0.137c-0.09-0.141-0.134-0.297-0.097-0.471
	c0.02-0.081,0.052-0.151,0.112-0.205c0.028-0.024,0-0.041-0.016-0.055c-0.038-0.045-0.081-0.086-0.117-0.133
	c-0.097-0.125-0.113-0.271-0.107-0.428c0.008-0.127,0.051-0.229,0.142-0.309c0.048-0.037,0.106-0.063,0.167-0.09
	c0.063-0.02,0.135-0.021,0.2-0.035c0.155-0.018,0.31-0.021,0.465-0.023c0.034-0.012,0.043-0.021,0.043-0.059
	c0-0.106,0-0.106,0.122-0.12c0.041-0.003,0.084-0.009,0.126-0.013c0.035-0.004,0.057,0.012,0.061,0.041
	c0.008,0.105,0.02,0.193,0.021,0.303c0.003,0.104-0.065,0.186-0.163,0.188c-0.205,0.021-0.415,0.039-0.618,0.057
	c-0.057,0.018-0.112,0.025-0.166,0.057c-0.043,0.018-0.055,0.063-0.061,0.105c-0.013,0.121,0.062,0.222,0.154,0.272
	c0.116,0.063,0.231,0.067,0.358,0.042c0.086-0.021,0.175-0.025,0.265-0.043c0.081-0.016,0.165-0.02,0.246-0.029
	c0.037-0.006,0.055,0.008,0.06,0.047c0.014,0.08,0.023,0.162,0.034,0.25c0.007,0.06-0.005,0.063-0.055,0.066
	c-0.123,0.02-0.246,0.048-0.369,0.061c-0.089,0.021-0.181,0.022-0.271,0.041c-0.083,0.021-0.171,0.021-0.246,0.063
	c-0.049,0.03-0.07,0.08-0.059,0.147c0.018,0.067,0.044,0.146,0.111,0.188c0.104,0.076,0.219,0.113,0.348,0.08
	c0.083-0.021,0.171-0.036,0.253-0.05c0.084-0.021,0.168-0.033,0.25-0.058c0.119-0.026,0.137-0.021,0.158,0.103
	c0.011,0.063,0.023,0.118,0.04,0.187c0.009,0.03-0.006,0.053-0.039,0.061c-0.234,0.056-0.472,0.107-0.709,0.164
	c-0.071,0.021-0.143,0.037-0.214,0.056c-0.021,0.011-0.033,0.024-0.024,0.044c0.008,0.023,0.011,0.063,0.018,0.092
	c0.009,0.024-0.003,0.053-0.028,0.059c-0.07,0.022-0.144,0.039-0.216,0.058c-0.053,0.013-0.062-0.013-0.07-0.06
	c-0.014-0.066-0.034-0.146-0.047-0.227c-0.011-0.058-0.019-0.109-0.009-0.172C18.207,56.337,18.24,56.303,18.268,56.264z"/>
<path fill="#F4F4F4" d="M18.612,53.148c-0.092-0.002-0.218,0-0.348-0.002c-0.04-0.002-0.066,0.002-0.057,0.055
	c0.003,0.02-0.003,0.039-0.002,0.061c0.004,0.053-0.006,0.063-0.054,0.066c-0.071-0.004-0.141-0.004-0.211,0
	c-0.051-0.002-0.064-0.016-0.063-0.063c0.002-0.078-0.002-0.15,0.006-0.232c0.01-0.092,0.027-0.188,0.122-0.238
	c0.021-0.016,0.018-0.031,0.003-0.049c-0.118-0.165-0.124-0.35-0.093-0.534c0.026-0.144,0.085-0.267,0.225-0.337
	c0.059-0.027,0.121-0.059,0.188-0.049c0.12,0.007,0.236,0.016,0.357,0.023c0.072,0.006,0.146,0.012,0.224,0.021
	c0.006,0.002,0.014,0.002,0.021,0.004c0.082,0.011,0.082,0.011,0.097-0.074c0.011-0.065,0.022-0.077,0.093-0.069
	c0.065,0.013,0.131,0.021,0.194,0.037c0.016,0.004,0.039,0.028,0.036,0.043c-0.017,0.114-0.028,0.231-0.058,0.34
	c-0.021,0.084-0.085,0.121-0.17,0.125c-0.049-0.002-0.102-0.008-0.147-0.008c-0.125-0.01-0.249-0.021-0.374-0.031
	c-0.035-0.006-0.067-0.012-0.101-0.014c-0.075-0.013-0.148-0.011-0.21,0.039c-0.068,0.057-0.061,0.137-0.054,0.211
	c0.015,0.176,0.121,0.274,0.279,0.325c0.036,0.011,0.072,0.009,0.106,0.009c0.191,0.01,0.387,0.021,0.583,0.032
	c0.032,0.002,0.042,0.017,0.042,0.048c-0.003,0.086-0.002,0.178-0.006,0.271c-0.002,0.035-0.025,0.059-0.064,0.06
	C19.004,53.166,18.826,53.154,18.612,53.148z"/>
<path fill="#F4F4F4" d="M19.703,50.135c-0.01,0.15-0.051,0.289-0.129,0.418c-0.062,0.098-0.138,0.176-0.229,0.242
	c-0.063,0.04-0.084,0.031-0.129-0.025c-0.034-0.049-0.073-0.098-0.113-0.146c-0.026-0.031-0.021-0.058,0.016-0.078
	c0.077-0.045,0.148-0.098,0.191-0.173c0.035-0.059,0.063-0.126,0.072-0.196c0.025-0.17-0.091-0.133-0.115-0.106
	c-0.056,0.065-0.114,0.136-0.164,0.205c-0.076,0.104-0.146,0.211-0.247,0.293c-0.099,0.074-0.205,0.106-0.327,0.062
	c-0.167-0.055-0.233-0.185-0.253-0.348c-0.011-0.116,0.007-0.228,0.039-0.341c0.033-0.109,0.085-0.221,0.168-0.308
	c0.08-0.094,0.184-0.12,0.297-0.077c0.026,0.012,0.053,0.018,0.079,0.021c0.035,0.005,0.044,0.021,0.036,0.055
	c-0.01,0.041-0.021,0.082-0.033,0.125c-0.011,0.039-0.021,0.082-0.031,0.125c-0.015,0.052-0.04,0.066-0.092,0.045
	c-0.04-0.016-0.069-0.005-0.096,0.033c-0.039,0.065-0.056,0.142-0.048,0.215c0.003,0.021,0.019,0.056,0.039,0.066
	c0.028,0.019,0.063,0.01,0.084-0.023c0.048-0.065,0.095-0.124,0.141-0.19c0.072-0.104,0.143-0.2,0.237-0.276
	c0.107-0.095,0.3-0.095,0.413-0.026C19.633,49.793,19.716,49.977,19.703,50.135z"/>
<path fill="#F4F4F4" d="M18.345,50.938c0.063,0.008,0.164,0.027,0.265,0.043c0.104,0.017,0.208,0.037,0.311,0.057
	c0.063,0.014,0.123,0.023,0.186,0.037c0.034,0.01,0.052-0.014,0.053-0.049c0-0.021,0.004-0.043,0.009-0.062
	c0.013-0.04,0.031-0.046,0.074-0.036c0.065,0.018,0.134,0.032,0.206,0.043c0.035,0.01,0.043,0.025,0.036,0.063
	c-0.021,0.082-0.036,0.16-0.049,0.246c-0.021,0.132-0.095,0.199-0.247,0.174c-0.108-0.018-0.217-0.029-0.326-0.044
	c-0.12-0.021-0.237-0.036-0.357-0.063c-0.01-0.002-0.017-0.005-0.027-0.004c-0.107-0.011-0.107-0.011-0.114,0.096
	c-0.004,0.063-0.015,0.067-0.074,0.063c-0.065-0.012-0.141-0.021-0.21-0.035c-0.014-0.004-0.031-0.026-0.032-0.043
	c-0.004-0.03,0.001-0.063,0.006-0.094c0.021-0.095,0.032-0.19,0.067-0.282C18.16,50.934,18.218,50.93,18.345,50.938z"/>
<path fill="#F4F4F4" d="M18.464,53.584c0.136,0.002,0.271,0,0.408,0.002c0.029,0,0.041-0.012,0.042-0.041
	c0.001-0.008,0-0.011,0.002-0.018c-0.006-0.104,0-0.105,0.103-0.106c0.053-0.001,0.107,0.003,0.164,0.001
	c0.037,0.002,0.051,0.02,0.052,0.063c0,0.092,0.009,0.182,0.002,0.271c-0.009,0.139-0.06,0.195-0.204,0.203
	c-0.262,0.021-0.52,0.021-0.783,0.025c-0.031,0-0.041,0.018-0.041,0.041c0.002,0.021,0.002,0.063,0.004,0.09
	c0.002,0.019-0.008,0.043-0.036,0.043c-0.077,0.011-0.149,0.021-0.228,0.021c-0.026,0.002-0.049-0.007-0.051-0.031
	c-0.002-0.139-0.014-0.271,0-0.396c0.009-0.104,0.075-0.146,0.176-0.146c0.129,0,0.258,0,0.388,0.004
	C18.464,53.6,18.466,53.592,18.464,53.584z"/>
<path fill="#F4F4F4" d="M17.583,51.172c0.016-0.099,0.029-0.188,0.045-0.271c0.012-0.06,0.037-0.065,0.092-0.053
	c0.077,0.012,0.154,0.03,0.231,0.041c0.036,0.01,0.048,0.026,0.042,0.061c-0.015,0.093-0.03,0.182-0.046,0.27
	c-0.011,0.051-0.026,0.057-0.078,0.049c-0.073-0.016-0.147-0.023-0.226-0.035C17.588,51.229,17.581,51.216,17.583,51.172z"/>
<path fill="#F4F4F4" d="M17.578,53.63c0.042,0.003,0.083,0.006,0.125,0.001c0.036-0.002,0.049,0.018,0.051,0.051
	c0.002,0.063,0.003,0.125,0.004,0.188c0.002,0.025,0.011,0.058,0.013,0.074c0.003,0.043-0.018,0.066-0.058,0.07
	c-0.089,0.002-0.179,0.004-0.266,0.008c-0.032,0.002-0.045-0.018-0.045-0.045c-0.002-0.1-0.002-0.197-0.003-0.295
	c0-0.031,0.017-0.041,0.043-0.045c0.047,0.002,0.094,0.002,0.141,0.004C17.58,53.634,17.578,53.63,17.578,53.63z"/>
<g>
	<path fill="#F4F4F4" d="M8.84,51.884h0.413c0,0,0.257,0.479,1,0.442c0.509,0.531,0,1.611,0,1.611L9.79,54.491l-1.998-0.882
		L8.84,51.884z"/>
	<g>
		<path fill="#F4F4F4" stroke="#010101" stroke-width="0.15" stroke-linecap="round" stroke-miterlimit="10" d="M9.144,51.566
			c0.018,0.086,0.468,0.713,1.375,0.593c0.253-0.033,0.484,0.144,0.518,0.396c0.034,0.252-0.143,0.483-0.396,0.519
			c-0.149,0.021-0.29,0.104-0.419,0.104"/>
	</g>
	<g>
		<path fill="#F4F4F4" stroke="#010101" stroke-width="0.15" stroke-linecap="round" stroke-miterlimit="10" d="M10.101,53.854
			c0.254-0.004,0.465,0.198,0.47,0.453c0.004,0.254-0.198,0.465-0.453,0.469c-0.024,0.002-0.048,0.002-0.072,0.002
			c-1.562,0-2.23-1.127-2.253-1.168"/>
		<path fill="#F4F4F4" stroke="#010101" stroke-width="0.15" stroke-miterlimit="10" d="M8.702,53.328"/>
		<g>
			<path fill="#F4F4F4" stroke="#010101" stroke-width="0.15" stroke-miterlimit="10" d="M8.056,51.416l-0.793,1.393
				c-0.133,0.234-0.051,0.535,0.184,0.67l0.17,0.099c0.235,0.134,0.537,0.052,0.671-0.187L9.081,52
				c0.134-0.234,0.051-0.538-0.184-0.672l-0.17-0.098C8.492,51.1,8.189,51.182,8.056,51.416z"/>
		</g>
	</g>
	<g>
		<path fill="#F4F4F4" stroke="#010101" stroke-width="0.15" stroke-linecap="round" stroke-miterlimit="10" d="M9.456,52.827
			c0.307,0.206,0.755,0.394,1.326,0.317c0.253-0.033,0.484,0.145,0.518,0.396c0.034,0.252-0.144,0.481-0.396,0.519
			c-0.133,0.018-0.262,0.024-0.386,0.024c-0.63,0-1.138-0.211-1.515-0.454"/>
	</g>
</g>
<g>
	
		<path fill="#BCBCBC" stroke="#020202" stroke-width="0.15" stroke-linecap="round" stroke-linejoin="round" stroke-miterlimit="10" d="
		M76.777,35.423l1.936-1.232l-2.279-1.207l1.437-2.651l-1.043-0.003c0.354-0.532,0.721-1.276,0.722-2.078
		c0.002-0.637-0.229-1.212-0.697-1.705c-0.58-0.619-1.291-0.933-2.103-0.935c-0.179-0.002-0.351,0.021-0.521,0.041l0,0
		c-1.521-1.293-3.248-0.074-3.248-0.074l0.08,0.054c-0.144-0.016-0.289-0.031-0.432-0.033c-0.806,0.001-1.512,0.313-2.107,0.927
		c-0.465,0.5-0.715,1.077-0.697,1.736c-0.006,0.79,0.359,1.527,0.701,2.056l-1.475-0.005l1.428,2.658l-2.291,1.193l1.931,1.248
		l-1.437,2.284l2.451-0.04L69.012,40.4l2.188-1.404l1.227,2.418l1.236-2.416l2.19,1.417l-0.111-2.74l2.455,0.049L76.777,35.423z
		 M75.959,28.194c-0.018-0.342-0.1-0.664-0.264-0.965c-0.014-0.025-0.031-0.063-0.053-0.091c-0.08-0.142-0.184-0.275-0.306-0.41
		c0.103,0.027,0.188,0.058,0.282,0.1c0.635,0.276,0.966,0.823,0.921,1.534c0.004,0.078-0.013,0.161-0.026,0.246
		c-0.017,0.086-0.033,0.17-0.057,0.258c-0.047,0.167-0.111,0.344-0.189,0.519c-0.045,0.09-0.092,0.172-0.135,0.264
		c-0.126,0.217-0.283,0.427-0.462,0.625l-0.026,0.033l-0.013,0.031l-0.399-0.003c0.031-0.04,0.047-0.064,0.074-0.101
		c0.084-0.133,0.166-0.269,0.23-0.408c0.068-0.129,0.126-0.26,0.175-0.381c0.011-0.024,0.024-0.055,0.031-0.078
		c0.016-0.058,0.04-0.117,0.055-0.167c0.013-0.031,0.019-0.058,0.026-0.086c0.015-0.063,0.031-0.11,0.052-0.176
		c0-0.029,0.015-0.063,0.015-0.089c0.016-0.084,0.034-0.178,0.043-0.271C75.962,28.442,75.969,28.312,75.959,28.194z M70.359,28.28
		l-0.002-0.012c0,0,0.002-0.039-0.004-0.049c0-0.014,0-0.026,0-0.038l0.013-0.031c-0.007-0.004-0.007-0.015,0-0.026
		c0-0.015,0.002-0.038,0.012-0.063c0.001-0.014,0.001-0.032,0.004-0.044c0.009-0.022,0.017-0.05,0.017-0.068l0.013-0.047
		c0.008-0.007,0.013-0.022,0.013-0.04c0-0.007,0.008-0.047,0.008-0.047c0.006-0.015,0.006-0.024,0.019-0.044
		c0.001-0.005,0.001-0.016,0.016-0.02l-0.003-0.005c0.004-0.014,0.014-0.038,0.023-0.05c0.005-0.011,0.005-0.017,0.021-0.039
		c0-0.014,0.007-0.024,0.019-0.04c0.014-0.014,0.014-0.024,0.021-0.04c0.012-0.009,0.021-0.023,0.028-0.038
		c0.006-0.011,0.019-0.025,0.022-0.032c0.006-0.015,0.021-0.028,0.03-0.043c0.011-0.014,0.017-0.02,0.031-0.037
		c0.006-0.008,0.024-0.017,0.03-0.039c0.01-0.009,0.02-0.018,0.037-0.026c0.012-0.015,0.022-0.024,0.037-0.04v-0.003
		c0.006-0.012,0.018-0.019,0.028-0.023c0.007-0.013,0.022-0.023,0.051-0.033c0,0,0.024-0.025,0.039-0.029
		c0.013-0.006,0.028-0.02,0.054-0.035c0,0,0.026-0.019,0.037-0.021c0.014-0.009,0.043-0.024,0.063-0.034l0.029-0.024
		c0.037-0.014,0.07-0.03,0.107-0.049c0.11-0.047,0.236-0.067,0.362-0.068c0.104,0,0.222,0.006,0.351,0.042
		c0.08,0.018,0.162,0.038,0.238,0.067c0.027,0.13,0.044,0.256,0.059,0.38c0.012,0.123,0.021,0.249,0.02,0.352
		c0,0.426-0.104,1.64-0.174,2.474l-0.822-0.007c-0.007-0.021-0.014-0.039-0.02-0.063l-0.014-0.034l-0.027-0.032
		c-0.076-0.094-0.162-0.2-0.233-0.308c-0.021-0.021-0.038-0.042-0.052-0.063l-0.028-0.053c-0.021-0.017-0.036-0.044-0.044-0.063
		l-0.032-0.05c-0.01-0.019-0.026-0.051-0.04-0.069l-0.003-0.011c-0.06-0.093-0.103-0.188-0.149-0.286l-0.014-0.04
		c-0.012-0.017-0.018-0.035-0.029-0.051l-0.02-0.067c-0.008-0.019-0.014-0.043-0.021-0.069L70.453,29
		c0-0.018-0.01-0.043-0.016-0.061c0-0.022-0.006-0.037-0.014-0.051c-0.006-0.02-0.016-0.042-0.015-0.063
		c-0.009-0.014-0.011-0.029-0.011-0.049c-0.006-0.017-0.006-0.039-0.019-0.062c-0.001-0.015-0.003-0.034-0.016-0.049
		c0.003-0.014-0.003-0.037-0.003-0.063c-0.004-0.019-0.004-0.037-0.004-0.049c-0.008-0.019-0.002-0.035-0.008-0.055
		c0.002-0.015-0.004-0.036-0.009-0.061c0-0.015,0.005-0.029-0.003-0.043c0.003-0.017-0.003-0.035-0.003-0.06V28.33
		c0.004-0.014,0-0.026,0.008-0.039C70.348,28.303,70.359,28.293,70.359,28.28z M69.715,30.281l-0.027-0.03
		c-0.649-0.746-0.975-1.648-0.826-2.368c0.096-0.494,0.404-0.872,0.898-1.074c0.1-0.041,0.191-0.068,0.287-0.096
		c-0.417,0.46-0.632,0.997-0.628,1.599c0.005,0.768,0.372,1.501,0.701,2l-0.396,0.001L69.715,30.281z M73.314,30.323
		c-0.063-0.836-0.154-2.044-0.153-2.474c-0.003-0.106,0.001-0.225,0.017-0.351s0.035-0.251,0.065-0.379
		c0.106-0.029,0.215-0.064,0.321-0.083c0.094-0.017,0.177-0.021,0.25-0.023c0.146,0.002,0.265,0.025,0.371,0.067
		c0.041,0.019,0.071,0.039,0.112,0.05l0.028,0.023c0.029,0.013,0.048,0.026,0.068,0.035c0.004,0.001,0.041,0.023,0.041,0.023
		c0.023,0.01,0.031,0.023,0.053,0.034c0.013,0.003,0.021,0.011,0.025,0.013l0.012,0.01c0.016,0.006,0.031,0.019,0.049,0.034
		c0.009,0.006,0.015,0.014,0.033,0.026c0.009,0.013,0.021,0.028,0.035,0.037c0.01,0.009,0.021,0.023,0.03,0.029
		c0.013,0.012,0.031,0.027,0.04,0.042c0.01,0.007,0.016,0.02,0.027,0.031c0.01,0.015,0.02,0.027,0.031,0.042
		c0.008,0.011,0.006,0.022,0.022,0.034c0.013,0.014,0.017,0.026,0.021,0.037c0.018,0.011,0.021,0.024,0.024,0.039
		c0.005,0.012,0.019,0.028,0.034,0.051c0,0.009,0.008,0.021,0.01,0.032c0.002,0.011,0.014,0.021,0.029,0.044
		c0,0,0.007,0.035,0.012,0.034c0.004,0.021,0.01,0.029,0.016,0.055c0,0,0.011,0.026,0.018,0.039
		c0.009,0.011,0.004,0.023,0.006,0.035l0.018,0.046c0.002,0.026,0.002,0.051,0.009,0.07c0.009,0.009,0.006,0.031,0.013,0.048
		c0,0.024,0.005,0.042,0.003,0.066c-0.001,0.005,0.003,0.013,0.003,0.019l0.004,0.033c-0.004,0.016,0.002,0.028,0.002,0.037
		c0,0.014,0,0.024,0,0.037l0.004,0.025c-0.004,0.014-0.002,0.026-0.004,0.04c-0.004,0.008,0,0.025-0.007,0.037l0.003,0.026
		c0,0.008,0,0.019,0.002,0.039c-0.002,0.011-0.008,0.032-0.005,0.047c0,0.014-0.006,0.038-0.003,0.056
		c0,0.018-0.011,0.034-0.013,0.05c0.003,0.02,0.003,0.034,0,0.052c-0.007,0.023-0.007,0.042-0.013,0.059
		c0,0.021-0.011,0.033-0.011,0.051c-0.006,0.025-0.007,0.042-0.017,0.063c-0.003,0.01-0.006,0.033-0.01,0.055
		c-0.008,0.015-0.014,0.034-0.021,0.055c0.001,0.014,0,0.028-0.017,0.049c-0.006,0.021-0.01,0.044-0.023,0.064
		c0,0.012-0.012,0.062-0.012,0.062c-0.018,0.02-0.018,0.042-0.023,0.064l-0.031,0.058c0.002,0.019-0.013,0.031-0.02,0.053
		l-0.027,0.052c-0.007,0.019-0.011,0.041-0.022,0.059l-0.007,0.001c-0.034,0.069-0.073,0.137-0.125,0.198v0.02
		c-0.008,0.02-0.021,0.048-0.038,0.069l-0.031,0.057c-0.013,0.012-0.024,0.037-0.04,0.055l-0.029,0.057
		c-0.017,0.017-0.035,0.043-0.052,0.07c-0.073,0.106-0.153,0.203-0.248,0.298l-0.019,0.037l-0.021,0.034
		c0.003,0.019-0.01,0.043-0.02,0.069L73.314,30.323L73.314,30.323z"/>
	
		<path fill="#BCBCBC" stroke="#020202" stroke-width="0.15" stroke-linecap="round" stroke-linejoin="round" stroke-miterlimit="10" d="
		M68.634,34.81c-0.01,2.078,1.667,3.765,3.75,3.77c2.066,0.011,3.761-1.67,3.767-3.744c0-0.003-0.002-0.006-0.006-0.01
		c0.015-2.077-1.664-3.76-3.744-3.767c-2.075-0.005-3.762,1.668-3.77,3.747C68.634,34.81,68.634,34.81,68.634,34.81"/>
</g>
<path fill="#010101" d="M12.84,34.86c0-0.35,0.284-0.633,0.634-0.633s0.633,0.284,0.633,0.633c0,0.35-0.284,0.634-0.633,0.634
	C13.124,35.494,12.84,35.21,12.84,34.86z M19.003,35.494c0.35,0,0.634-0.284,0.634-0.634s-0.284-0.633-0.634-0.633
	s-0.634,0.284-0.634,0.633C18.369,35.21,18.653,35.494,19.003,35.494z"/>
<path fill="#F4F4F4" d="M13.198,34.872c0.108,0,0.196-0.088,0.196-0.196c0-0.108-0.088-0.196-0.196-0.196
	c-0.108,0-0.196,0.088-0.196,0.196C13.002,34.784,13.089,34.872,13.198,34.872z M18.727,34.872c0.108,0,0.196-0.088,0.196-0.196
	c0-0.108-0.088-0.196-0.196-0.196c-0.109,0-0.197,0.088-0.197,0.196C18.53,34.784,18.618,34.872,18.727,34.872z"/>
</svg>
