<?xml version="1.0" encoding="utf-8"?>
<!-- Generator: Adobe Illustrator 16.0.0, SVG Export Plug-In . SVG Version: 6.00 Build 0)  -->
<!DOCTYPE svg PUBLIC "-//W3C//DTD SVG 1.1//EN" "http://www.w3.org/Graphics/SVG/1.1/DTD/svg11.dtd">
<svg version="1.1" id="Layer_1" xmlns="http://www.w3.org/2000/svg" xmlns:xlink="http://www.w3.org/1999/xlink" x="0px" y="0px"
	 width="83px" height="83px" viewBox="0 0 83 83" enable-background="new 0 0 83 83" xml:space="preserve">
<path fill="#FFFFFF" stroke="#010101" stroke-width="0.15" stroke-miterlimit="10" d="M0.029-0.024h83.083v83.122H0.029V-0.024z"/>
<path fill="#FFFFFF" stroke="#010101" stroke-width="0.15" stroke-miterlimit="10" d="M15.652,33.205
	c-0.139,0.009-0.275,0.008-0.41-0.001c0.018,0.108,0.03,0.218,0.037,0.33c0.111,1.81-1.266,3.368-3.076,3.479
	c-1.066,0.065-2.044-0.386-2.692-1.138c-0.488,0.354-1.079,0.58-1.725,0.62c-0.518,0.031-1.014-0.059-1.462-0.245
	c-0.422,0.24-0.904,0.391-1.421,0.422c-1.484,0.092-2.798-0.818-3.285-2.146c-0.346,0.225-0.752,0.367-1.193,0.395
	c-0.139,0.008-0.275,0.005-0.409-0.01v-4.904c0.035-0.003,0.07-0.007,0.106-0.009c0.505-0.031,0.984,0.093,1.391,0.329
	c0.22-1.505,1.469-2.702,3.048-2.8c0.855-0.052,1.654,0.228,2.271,0.729c0.176-0.715,0.799-1.264,1.572-1.311
	c0.646-0.04,1.232,0.281,1.559,0.79c0.27-0.125,0.567-0.203,0.882-0.223c0.703-0.043,1.354,0.213,1.832,0.658
	c0.545-0.859,1.479-1.454,2.573-1.521c1.81-0.111,3.368,1.266,3.479,3.076S17.462,33.094,15.652,33.205z"/>
<path fill="#FFFFFF" stroke="#010101" stroke-width="0.15" stroke-miterlimit="10" d="M83.126,43.324
	c-0.45,0.127-0.925,0.191-1.416,0.184c-2.696-0.045-4.849-2.267-4.802-4.966c0.013-0.799,0.22-1.549,0.57-2.209
	c-0.516,0.176-1.064,0.268-1.641,0.258c-1.173-0.02-2.238-0.457-3.063-1.167c-0.407,0.357-0.944,0.569-1.529,0.56
	c-0.596-0.01-1.133-0.248-1.529-0.629c-0.445,0.226-0.951,0.35-1.486,0.34c-1.345-0.022-2.479-0.874-2.928-2.059
	c-0.685,0.354-1.464,0.547-2.287,0.532l0.162-9.646c1.354,0.022,2.568,0.603,3.43,1.516c0.844-1.492,2.453-2.489,4.287-2.458
	c0.696,0.012,1.356,0.172,1.951,0.448c0.744-1.757,2.497-2.977,4.522-2.942c1.139,0.02,2.176,0.432,2.989,1.104
	c0.771-0.603,1.728-0.976,2.769-1.019V43.324L83.126,43.324z"/>
<path fill="#FFFFFF" stroke="#010101" stroke-width="0.15" stroke-miterlimit="10" d="M61.855,34.829
	c-1.469,0.058-2.795-0.612-3.641-1.686c-0.574,0.657-1.41,1.087-2.355,1.123c-0.422,0.017-0.828-0.048-1.207-0.178
	c-0.368,0.723-1.105,1.229-1.977,1.264c-1.037,0.04-1.941-0.609-2.271-1.539c-0.756,0.751-1.784,1.231-2.934,1.275
	c-2.121,0.082-3.949-1.349-4.445-3.329c-0.51,0.371-1.133,0.601-1.813,0.627c-1.826,0.07-3.363-1.353-3.434-3.179
	c-0.07-1.826,1.353-3.363,3.179-3.434c0.593-0.023,1.152,0.112,1.646,0.366c0.472-1.838,2.104-3.229,4.099-3.306
	c0.694-0.027,1.356,0.109,1.952,0.373c0.574-0.309,1.226-0.496,1.921-0.522c0.868-0.034,1.687,0.188,2.386,0.596
	c0.764-1.09,2.01-1.823,3.439-1.879c2.433-0.094,4.479,1.802,4.574,4.233c0.006,0.149,0.004,0.298-0.008,0.444
	c0.182-0.029,0.361-0.049,0.549-0.056c2.433-0.095,4.479,1.801,4.57,4.232C66.182,32.685,64.288,34.735,61.855,34.829z"/>
<path fill="#FFFFFF" stroke="#010101" stroke-width="0.15" stroke-miterlimit="10" d="M51.253,33.792
	c-0.04,2.394-2.013,4.3-4.405,4.26c-1.217-0.021-2.308-0.541-3.08-1.361c-0.756,1.341-2.204,2.235-3.851,2.208
	c-0.626-0.011-1.219-0.154-1.753-0.403c-0.669,1.58-2.244,2.673-4.063,2.644c-1.022-0.018-1.954-0.389-2.685-0.992
	c-0.755,0.592-1.709,0.938-2.742,0.92c-2.393-0.041-4.3-2.012-4.26-4.406c0.027-1.613,0.933-3.004,2.253-3.729
	c-0.049-0.274-0.074-0.558-0.069-0.847c0.04-2.394,2.013-4.3,4.405-4.26c0.59,0.01,1.15,0.138,1.659,0.359
	c0.765-0.624,1.745-0.992,2.81-0.975c1.054,0.019,2.013,0.411,2.753,1.049c0.367-0.321,0.849-0.512,1.374-0.503
	c0.534,0.009,1.017,0.223,1.374,0.565c0.401-0.203,0.855-0.314,1.335-0.306c1.207,0.02,2.227,0.785,2.629,1.849
	c0.612-0.316,1.313-0.49,2.055-0.479C49.387,29.427,51.293,31.399,51.253,33.792z"/>
<path fill="#FFFFFF" stroke="#010101" stroke-width="0.15" stroke-miterlimit="10" d="M0.029,34.217L83.15,48.689v34.443
	l-33.93-0.035L0.029,54.342V34.217z"/>
<path fill="#FFFFFF" stroke="#010101" stroke-width="0.15" stroke-miterlimit="10" d="M41.855,34.243
	c-0.066-0.006-0.133-0.022-0.196-0.052l-12.058-6.105c-0.301-0.137-0.434-0.492-0.296-0.793c0.138-0.301,0.493-0.434,0.793-0.297
	l12.056,6.105c0.302,0.137,0.435,0.492,0.298,0.793C42.346,34.132,42.102,34.265,41.855,34.243z"/>
<path fill="#FFFFFF" stroke="#010101" stroke-width="0.15" stroke-miterlimit="10" d="M83.126,74.625l-13.901,4.164
	c-1.519,0.455-3.15,0.285-4.545-0.469L25.962,57.332c0,0-2.079-9.908,4.731-12.16c0,0,4.551-13.502,23.774-14.979
	c13.711-1.054,23.182,3.936,28.658,10.541L83.126,74.625L83.126,74.625z"/>
<path fill="#FFFFFF" stroke="#010101" stroke-width="0.15" stroke-miterlimit="10" d="M69.07,66.436
	c2.615,0,4.734,2.119,4.734,4.734c0,2.613-2.119,4.734-4.734,4.734c-2.614,0-4.733-2.121-4.733-4.734
	C64.337,68.555,66.456,66.436,69.07,66.436z"/>
<path fill="#282828" stroke="#010101" stroke-width="0.15" stroke-miterlimit="10" d="M58.846,75.871
	c-0.216,0.936-0.896,1.73-1.846,2.158c-1.238,0.559-3.475,1.563-3.617,1.492c-1.998-0.979-2.009-6.724-2.009-10.414
	c0-3.691,0.205-4.402,2.375-3.789c2.926,0.826,5.47,3.346,5.47,7.037C59.262,73.678,59.059,74.941,58.846,75.871z M40.28,62.725
	c0-3.252-2.206-5.473-4.744-6.199c-1.881-0.539-2.06,0.086-2.06,3.341c0,3.252,0.01,8.309,1.743,9.17
	c0.125,0.063,2.063-0.82,3.137-1.313c0.822-0.377,1.414-1.076,1.6-1.902C40.141,65,40.318,63.889,40.28,62.725z"/>
<path fill="#282828" stroke="#010101" stroke-width="0.15" stroke-miterlimit="10" d="M52.045,79.338
	c-1.998-0.979-3.618-4.764-3.618-8.457c0-3.691,1.62-5.891,3.618-4.912c1.998,0.977,3.618,4.764,3.618,8.455
	C55.663,78.117,54.043,80.316,52.045,79.338z M37.197,64.545c0-3.252-1.405-6.586-3.137-7.447c-1.733-0.861-3.138,1.076-3.138,4.326
	c0,3.252,1.405,6.588,3.138,7.449C35.792,69.734,37.197,67.797,37.197,64.545z"/>
<path fill="#FFFFFF" stroke="#010101" stroke-width="0.15" stroke-miterlimit="10" d="M56.29,76.045
	c-0.712-0.225-1.146-0.959-1.146-1.875c0-3.156-1.394-6.406-3.102-7.242c-1.708-0.838-3.102,1.051-3.102,4.207
	c0,0.918-0.399,1.463-0.896,1.221c-0.496-0.239-0.37-1.211-0.37-2.127c0-4.983,3.678-7.063,6.783-6.084
	c3.803,1.195,5.229,6.64,5.04,10.127C59.4,76.141,57.287,76.525,56.29,76.045z M40.526,64.41c0.163-3.072-1.076-7.865-4.372-8.92
	c-2.696-0.861-5.882,0.967-5.882,5.359c0,0.807-0.109,1.657,0.321,1.873c0.43,0.215,0.779-0.271,0.779-1.074
	c0-2.779,1.206-4.443,2.688-3.707c1.481,0.738,2.687,3.6,2.687,6.381c0,0.807,0.377,1.453,0.994,1.65
	C38.605,66.396,40.438,66.057,40.526,64.41z"/>
<path fill="#FFFFFF" stroke="#010101" stroke-width="0.15" stroke-miterlimit="10" d="M75.046,73.527c0,0,2.666-4.582-2.961-9.529
	c-5.629-4.949-7.854-6.756-7.854-6.756"/>
<path fill="#FFFFFF" stroke="#010101" stroke-width="0.15" stroke-miterlimit="10" d="M24.724,57.746v-2.818
	c0-0.613,0.63-1.023,1.191-0.777l1.862,0.822c0.308,0.135,0.506,0.439,0.506,0.775v2.82c0,0.613-0.63,1.021-1.191,0.772
	l-1.862-0.817C24.922,58.387,24.724,58.084,24.724,57.746z"/>
<path fill="#FFFFFF" stroke="#010101" stroke-width="0.15" stroke-miterlimit="10" d="M15.841,42.381
	c0.068-0.388,0.439-0.648,0.829-0.58c0.387,0.066,0.65,0.438,0.582,0.828l-6.721,8.855c4.825-0.629,5.037,1.065,4.774,1.729
	c-0.3,0.765-2.256,0.978-4.539,0.074c-1.242-0.492-1.751-0.854-1.791-1.125C8.962,52.12,8.957,52.07,8.966,52.02L15.841,42.381z"/>
<path fill="#FFFFFF" stroke="#010101" stroke-width="0.15" stroke-miterlimit="10" d="M23.09,12.573L9.783,41.583
	c-0.447,0.972-0.02,2.125,0.955,2.571l7.815,3.585c0.974,0.446,2.126,0.02,2.572-0.955l13.307-29.008
	C34.432,17.775,27.847,18.131,23.09,12.573z"/>
<path fill="#FFFFFF" stroke="#010101" stroke-width="0.25" stroke-linecap="round" stroke-miterlimit="10" d="M30.44,21.694
	c0.185-0.227,0.417-0.421,0.691-0.566c0.362-0.191,0.752-0.274,1.134-0.261"/>
<path fill="#FFFFFF" stroke="#010101" stroke-width="0.25" stroke-linecap="round" stroke-miterlimit="10" d="M28.827,21.08
	c-0.06-0.286-0.176-0.565-0.353-0.82c-0.233-0.337-0.542-0.591-0.887-0.754"/>
<path fill="#FFFFFF" stroke="#010101" stroke-width="0.15" stroke-miterlimit="10" d="M33.451,7.394
	c0.012-0.021,0.024-0.044,0.035-0.066c0.212-0.463,0.009-1.009-0.453-1.221c-0.462-0.212-1.008-0.01-1.22,0.453
	c-0.007,0.015-0.012,0.03-0.018,0.045c-2.931-0.951-6.053,0.188-7.233,2.761c0,0-0.619,1.349-1.471,3.208
	c4.757,5.558,11.342,5.202,11.342,5.202l1.471-3.207C37.057,12.052,35.961,9.023,33.451,7.394z"/>
<path fill="#FFFFFF" stroke="#010101" stroke-width="0.15" stroke-miterlimit="10" d="M35.66,20.277
	c-0.084-1.151-1.135-2.459-1.135-2.459l-0.093-0.043c0,0-6.584,0.355-11.342-5.202l-0.093-0.043c0,0-1.676,0.057-2.604,0.743
	c-0.37,0.274-0.226,0.863,0.225,0.959c0.688,0.145,1.547,0.301,2.472,1.041c1.317,1.054,2.463,2.48,4.137,3.248
	s3.502,0.706,5.16,1.017c1.164,0.218,1.842,0.768,2.401,1.194C35.153,21.012,35.694,20.737,35.66,20.277z"/>
<path fill="#FFFFFF" stroke="#010101" stroke-width="0.25" stroke-miterlimit="10" d="M29.414,24.493
	c-1.841,0.066-2.181-0.936-2.181-0.936"/>
<path fill="#FFFFFF" d="M29.508,22.635c0.075-0.451,1.027-0.533,1.622,0.299c0.595,0.832,1.005,2.249,2.36,2.034
	c0,0-0.77,0.4-1.684-0.104c-0.457-0.252-0.466-0.898-1.185-1.341C30.273,23.31,29.39,23.349,29.508,22.635"/>
<path fill="#B7B7B7" d="M29.508,22.635c0.075-0.451,1.027-0.533,1.622,0.299c0.595,0.832,1.005,2.249,2.36,2.034
	c0,0-0.77,0.4-1.684-0.104c-0.457-0.252-0.466-0.898-1.185-1.341C30.273,23.31,29.39,23.349,29.508,22.635z"/>
<path fill="#FFFFFF" d="M29.115,22.511c0.198-0.412-0.533-1.027-1.499-0.689c-0.966,0.338-2.116,1.262-3.101,0.306
	c0,0,0.4,0.771,1.437,0.885c0.519,0.057,0.899-0.467,1.741-0.415C28.102,22.622,28.802,23.162,29.115,22.511"/>
<path fill="#B7B7B7" d="M29.115,22.511c0.198-0.412-0.533-1.027-1.499-0.689c-0.966,0.338-2.116,1.262-3.101,0.306
	c0,0,0.4,0.771,1.437,0.885c0.519,0.057,0.899-0.467,1.741-0.415C28.102,22.622,28.802,23.162,29.115,22.511z"/>
<path fill="#FFFFFF" stroke="#010101" stroke-width="0.15" stroke-miterlimit="10" d="M16.225,44.711L16.225,44.711
	c0.325-0.184,0.737-0.088,0.947,0.221l3.219,4.73c0.324,0.477,0.377,1.088,0.142,1.611l-3.053,6.795
	c4.825-0.631,5.037,1.063,4.774,1.729c-0.301,0.763-2.256,0.978-4.539,0.072c-1.242-0.49-1.751-0.854-1.792-1.125
	c-0.013-0.045-0.018-0.097-0.008-0.146l3.22-7.041c0.248-0.541,0.186-1.173-0.16-1.656l-2.978-4.151
	C15.749,45.406,15.855,44.922,16.225,44.711z"/>
<path fill="#FFFFFF" stroke="#010101" stroke-width="0.15" stroke-miterlimit="10" d="M22.077,21.348
	c-0.282,0.444-0.871,0.576-1.315,0.295c-0.445-0.282-0.577-0.871-0.295-1.315c0.282-0.444,1.941-1.282,1.941-1.282
	S22.358,20.903,22.077,21.348z"/>
<path fill="#FFFFFF" stroke="#010101" stroke-width="0.15" stroke-miterlimit="10" d="M23.81,20.158
	c-0.151,0.237-0.466,0.308-0.703,0.157c-0.238-0.15-0.309-0.466-0.158-0.703c0.15-0.238,1.038-0.687,1.038-0.687
	S23.961,19.92,23.81,20.158z"/>
<path fill="#FFFFFF" stroke="#010101" stroke-width="0.15" stroke-miterlimit="10" d="M36.845,37.241L23.259,26.433
	c-0.259-0.206-0.303-0.582-0.097-0.842c0.206-0.259,0.582-0.303,0.841-0.097l13.585,10.809
	C37.848,36.508,36.955,37.328,36.845,37.241z"/>
<path fill="#F4F4F4" stroke="#010101" stroke-width="0.15" stroke-miterlimit="10" d="M38.896,35.125
	c-0.539,0.762-1.897,2.603-2.592,2.431c-0.847-0.21-0.521-0.847-0.521-0.847l1.351-1.065l0,0c0.375-0.398,0.763-0.786,1.163-1.16
	c0.178-0.166,0.456-0.156,0.621,0.021C39.083,34.682,38.986,34.998,38.896,35.125z"/>
<path fill="#F4F4F4" stroke="#010101" stroke-width="0.15" stroke-miterlimit="10" d="M35.41,36.201l0.967-0.944
	c0.154-0.149,0.4-0.146,0.55,0.007l0.02,0.021c0.15,0.154,0.147,0.4-0.007,0.551l-0.967,0.943c-0.154,0.15-0.4,0.147-0.55-0.007
	l-0.02-0.021C35.253,36.598,35.256,36.352,35.41,36.201z"/>
<path fill="#FFFFFF" stroke="#010101" stroke-width="0.15" stroke-miterlimit="10" d="M74.547,15.462v9.915
	c0,1.645-1.333,2.977-2.977,2.977H57.122l-1.515,3.554l-1.578-3.554h-3.071c-1.644,0-2.978-1.332-2.978-2.977v-9.915
	c0-1.644,1.334-2.977,2.978-2.977H71.57C73.214,12.485,74.547,13.818,74.547,15.462z"/>
<path fill="#FFFFFF" stroke="#010101" stroke-width="0.15" stroke-miterlimit="10" d="M11.746,9.857
	c1.503-0.3,2.964,0.677,3.263,2.18c0.299,1.504-0.677,2.965-2.18,3.264c-0.563,0.112-1.121,0.045-1.613-0.162
	c-0.287,0.314-0.673,0.543-1.123,0.633c-0.257,0.051-0.513,0.052-0.757,0.01c-0.326,0.444-0.813,0.773-1.397,0.89
	c-1.24,0.246-2.444-0.559-2.69-1.798c-0.006-0.032-0.012-0.064-0.017-0.097c-0.775-0.069-1.445-0.641-1.604-1.442
	c-0.193-0.969,0.43-1.909,1.392-2.113c-0.001-0.008-0.003-0.017-0.005-0.024C4.879,10.512,5.324,9.845,6.01,9.71
	c0.283-0.057,0.563-0.014,0.804,0.104c0.217-0.817,0.88-1.482,1.765-1.658c1.24-0.247,2.444,0.559,2.69,1.798
	c0.003,0.015,0.005,0.028,0.008,0.043C11.426,9.937,11.583,9.89,11.746,9.857"/>
<path fill="#FFFFFF" stroke="#010101" stroke-width="0.15" stroke-miterlimit="10" d="M0.04,72.219
	c1.459-1.254,3.436-1.887,5.486-1.568c1.063,0.164,2.029,0.566,2.854,1.146c0.961-0.301,2.004-0.393,3.067-0.229
	c1.328,0.207,2.505,0.783,3.445,1.608c1.48-1.428,3.587-2.172,5.777-1.831c3.717,0.575,6.264,4.057,5.687,7.774
	c-0.036,0.229-0.083,0.453-0.139,0.674c0.28,0.008,0.563,0.031,0.847,0.076c2.081,0.321,3.795,1.555,4.8,3.229H0.04V72.219z"/>
<path fill="#FFFFFF" stroke="#010101" stroke-width="0.15" stroke-miterlimit="10" d="M83.126,78.125
	c-3.146,0.92-6.315,1.828-8.758,2.525c-2.854,0.813-5.894,0.729-8.703-0.23l-1.774-0.609c-1.382-0.473-2.31-1.771-2.31-3.229
	c0-2.379,2.371-4.039,4.601-3.209c1.271,0.471,2.502,0.869,3.256,0.961c1.215,0.146,7.5-1.065,13.688-2.664V78.125L83.126,78.125z"
	/>
<path fill="#FFFFFF" stroke="#010101" stroke-width="0.15" stroke-miterlimit="10" d="M41.307,48.648l-6.52-2.515
	c-0.757-0.288-1.065-1.198-0.636-1.889c1.342-2.154,4.412-6.218,8.908-7.103c0.896-0.176,1.688,0.591,1.535,1.488l-1.545,9.022
	C42.911,48.463,42.07,48.941,41.307,48.648z M44.077,48.6c-0.104,0.607,0.235,1.205,0.812,1.428l9.989,3.849
	c0.911,0.354,1.869-0.396,1.751-1.362c-0.509-4.189-2.393-13.326-9.195-15.182c-0.006-0.002-0.011-0.003-0.015-0.004
	c-0.726-0.197-1.46,0.284-1.586,1.024L44.077,48.6z M83.126,44.846c-2.085-3.332-6.065-7.004-13.3-6.011
	c-12.42,1.705-10.838,11.044-9.694,14.741c0.267,0.863,1.147,1.377,2.029,1.182l20.965-4.646V44.846L83.126,44.846z"/>
<path fill="#FFFFFF" stroke="#010101" stroke-width="0.15" stroke-miterlimit="10" d="M59.098-0.005
	c0.006,0.154,0.002,0.312-0.017,0.471c-0.097,0.859-0.526,1.599-1.147,2.104c0.215,0.442,0.313,0.949,0.254,1.475
	c-0.164,1.481-1.498,2.551-2.979,2.386C54.55,6.359,53.975,6.054,53.55,5.61c-0.387,0.329-0.901,0.505-1.446,0.444
	c-0.291-0.032-0.561-0.128-0.793-0.272c-0.646,0.571-1.521,0.878-2.442,0.775c-1.735-0.192-2.986-1.755-2.795-3.49
	c0.017-0.134,0.038-0.264,0.069-0.392C46.119,2.674,46.1,2.672,46.08,2.67c-0.994-0.11-1.71-1.005-1.602-1.999
	c0.025-0.245,0.103-0.473,0.215-0.676H59.098z"/>
<path fill="#939393" stroke="#010101" stroke-width="0.15" stroke-miterlimit="10" d="M52.045,75.299
	c-0.791-0.387-1.434-1.887-1.434-3.348s0.643-2.332,1.434-1.945c0.791,0.389,1.434,1.887,1.434,3.348
	C53.479,74.816,52.836,75.686,52.045,75.299z M35.301,63.604c0-1.287-0.556-2.604-1.242-2.949c-0.686-0.342-1.242,0.429-1.242,1.716
	c0,1.284,0.556,2.604,1.242,2.946C34.745,65.656,35.301,64.891,35.301,63.604z"/>
<path fill="#F4F4F4" stroke="#010101" stroke-width="0.15" stroke-miterlimit="10" d="M54.727,18.314v1.21
	c0,0.215,0.176,0.389,0.393,0.389h1.146c0.217,0,0.391-0.174,0.391-0.389v-1.21c0-0.215,0.175-0.389,0.39-0.389h0.39
	c0.215,0,0.39,0.174,0.39,0.389v4.395c0,0.216-0.175,0.39-0.39,0.39h-0.39c-0.215,0-0.39-0.174-0.39-0.39v-1.386
	c0-0.215-0.174-0.389-0.391-0.389h-1.146c-0.217,0-0.393,0.174-0.393,0.389v1.386c0,0.216-0.175,0.39-0.39,0.39h-0.396
	c-0.215,0-0.393-0.174-0.393-0.39v-4.395c0-0.215,0.178-0.389,0.393-0.389h0.396C54.552,17.926,54.727,18.1,54.727,18.314z
	 M61.919,20.521v-0.173c0-0.215-0.175-0.39-0.39-0.39h-1.125c-0.215,0-0.391-0.174-0.391-0.389v-0.296
	c0-0.215,0.176-0.39,0.391-0.39h1.24c0.215,0,0.39-0.174,0.39-0.39v-0.181c0-0.215-0.175-0.389-0.39-0.389h-2.416
	c-0.215,0-0.391,0.174-0.391,0.389v4.395c0,0.216,0.176,0.39,0.391,0.39h2.521c0.215,0,0.392-0.174,0.392-0.39v-0.181
	c0-0.215-0.177-0.389-0.392-0.389H60.4c-0.215,0-0.389-0.175-0.389-0.39v-0.449c0-0.215,0.174-0.39,0.389-0.39h1.125
	C61.744,20.911,61.919,20.737,61.919,20.521z M62.939,18.314v4.395c0,0.216,0.174,0.39,0.39,0.39h2.452
	c0.216,0,0.39-0.174,0.39-0.39v-0.203c0-0.215-0.174-0.39-0.39-0.39h-1.278c-0.215,0-0.39-0.174-0.39-0.39v-3.412
	c0-0.215-0.174-0.389-0.391-0.389h-0.396C63.113,17.926,62.939,18.1,62.939,18.314z M66.861,22.709c0,0.216,0.175,0.39,0.39,0.39
	h0.38c0.217,0,0.391-0.174,0.391-0.39v-1.048c0-0.216,0.178-0.39,0.395-0.39h0.006c0.689,0,1.282-0.168,1.684-0.545
	c0.308-0.291,0.477-0.721,0.477-1.228s-0.223-0.937-0.553-1.197c-0.346-0.276-0.859-0.415-1.582-0.415
	c-0.512,0-0.916,0.023-1.236,0.06c-0.195,0.022-0.344,0.189-0.344,0.387v4.376H66.861z M68.021,19.161
	c0-0.211,0.166-0.383,0.375-0.39c0.035-0.001,0.067-0.002,0.105-0.002c0.583,0,0.913,0.284,0.913,0.76
	c0,0.53-0.383,0.845-1.005,0.845h-0.006c-0.217,0-0.389-0.176-0.389-0.39v-0.823H68.021z"/>
<g>
	
		<path fill="#BCBCBC" stroke="#010101" stroke-width="0.15" stroke-linecap="round" stroke-linejoin="round" stroke-miterlimit="10" d="
		M33.286,14.81l0.693-0.229l-0.61-0.55l0.651-0.705l-0.322-0.083c0.15-0.136,0.322-0.338,0.384-0.585
		c0.051-0.197,0.024-0.391-0.082-0.58c-0.132-0.236-0.326-0.388-0.574-0.452c-0.055-0.013-0.11-0.021-0.164-0.027l0,0
		c-0.368-0.519-0.996-0.278-0.996-0.278l0.021,0.024c-0.042-0.016-0.085-0.032-0.13-0.043c-0.25-0.063-0.491-0.022-0.721,0.12
		c-0.184,0.117-0.306,0.276-0.352,0.48c-0.062,0.243-0.008,0.499,0.057,0.688l-0.456-0.117l0.234,0.931l-0.8,0.189l0.498,0.535
		l-0.621,0.592l0.759,0.18l-0.252,0.835l0.784-0.262l0.19,0.841l0.57-0.647l0.563,0.607l0.18-0.854l0.752,0.208L33.286,14.81z
		 M33.598,12.517c0.021-0.106,0.022-0.211-0.005-0.317c-0.002-0.008-0.006-0.023-0.01-0.033c-0.014-0.049-0.035-0.1-0.061-0.149
		c0.027,0.016,0.053,0.032,0.078,0.051c0.174,0.135,0.234,0.33,0.165,0.546c-0.007,0.024-0.018,0.048-0.029,0.074
		c-0.012,0.024-0.023,0.05-0.037,0.075c-0.026,0.049-0.061,0.097-0.1,0.144c-0.02,0.025-0.04,0.047-0.061,0.072
		c-0.057,0.058-0.122,0.11-0.192,0.157l-0.011,0.008l-0.006,0.008l-0.123-0.032c0.012-0.01,0.02-0.017,0.032-0.026
		c0.035-0.035,0.071-0.07,0.103-0.107c0.03-0.034,0.059-0.07,0.083-0.104c0.005-0.007,0.012-0.015,0.016-0.022
		c0.009-0.017,0.021-0.032,0.031-0.047c0.004-0.009,0.009-0.017,0.014-0.025c0.009-0.017,0.019-0.032,0.028-0.05
		c0.003-0.009,0.009-0.018,0.013-0.026c0.011-0.026,0.024-0.053,0.033-0.08C33.58,12.595,33.592,12.554,33.598,12.517z
		 M31.866,12.107v-0.003c0,0,0.004-0.012,0.004-0.015c0.001-0.004,0.002-0.009,0.003-0.012l0.005-0.009c0-0.002,0-0.004,0.002-0.008
		c0.002-0.005,0.004-0.012,0.01-0.019c0-0.004,0.002-0.009,0.005-0.014c0.003-0.005,0.007-0.014,0.01-0.019l0.007-0.014
		c0.003-0.002,0.006-0.006,0.006-0.012c0.001-0.002,0.007-0.014,0.007-0.014c0.002-0.004,0.004-0.007,0.009-0.013
		c0-0.001,0.002-0.004,0.005-0.005l0.001-0.002c0.002-0.003,0.006-0.009,0.011-0.013c0.001-0.003,0.002-0.005,0.007-0.009
		c0.002-0.004,0.005-0.007,0.011-0.011c0.003-0.002,0.006-0.007,0.01-0.01c0.002-0.002,0.007-0.006,0.011-0.01
		c0.002-0.003,0.007-0.005,0.01-0.007c0.002-0.004,0.007-0.007,0.012-0.011c0.004-0.002,0.007-0.005,0.013-0.008
		c0.001-0.003,0.007-0.005,0.012-0.01c0.003-0.002,0.007-0.003,0.014-0.006c0.004-0.002,0.009-0.004,0.014-0.008v-0.001
		c0.004-0.003,0.008-0.004,0.01-0.005c0.005-0.003,0.01-0.005,0.02-0.006c0,0,0.008-0.006,0.014-0.007
		c0.005,0,0.011-0.003,0.019-0.005c0,0,0.011-0.004,0.014-0.005c0.005-0.001,0.015-0.003,0.022-0.005l0.012-0.005
		c0.012-0.001,0.024-0.004,0.036-0.007c0.039-0.006,0.078-0.002,0.117,0.007c0.032,0.008,0.068,0.021,0.104,0.041
		c0.022,0.012,0.046,0.025,0.069,0.04c-0.003,0.042-0.007,0.082-0.012,0.121c-0.007,0.04-0.014,0.079-0.021,0.11
		c-0.035,0.131-0.16,0.499-0.247,0.749l-0.252-0.065c0-0.008-0.001-0.015-0.001-0.022l-0.001-0.012l-0.005-0.013
		c-0.017-0.034-0.035-0.074-0.05-0.113c-0.002-0.007-0.007-0.015-0.01-0.023L31.899,12.6c-0.004-0.007-0.008-0.016-0.009-0.023
		l-0.006-0.018c-0.001-0.007-0.004-0.018-0.007-0.025v-0.003c-0.01-0.033-0.016-0.066-0.023-0.1v-0.013
		c-0.002-0.007-0.003-0.013-0.004-0.019l-0.002-0.021c0-0.006,0-0.013-0.001-0.023l-0.002-0.017c0-0.005,0-0.013,0-0.02
		c0.001-0.007,0-0.012,0-0.017c0-0.007-0.001-0.014,0-0.02c0.001-0.005,0-0.01,0.002-0.016c-0.001-0.006,0-0.013-0.001-0.021
		c0-0.005,0.001-0.011,0-0.017c0.002-0.004,0.001-0.012,0.003-0.019c0-0.006,0.001-0.012,0.003-0.016c0-0.006,0-0.011,0.001-0.018
		c0.001-0.004,0.002-0.01,0.003-0.018c0.001-0.005,0.003-0.009,0.003-0.014c0.001-0.005,0.002-0.011,0.004-0.018v-0.002
		c0.002-0.004,0.002-0.008,0.004-0.012C31.861,12.113,31.865,12.111,31.866,12.107z M31.511,12.674l-0.006-0.012
		c-0.143-0.281-0.171-0.585-0.07-0.795c0.069-0.145,0.194-0.235,0.362-0.259c0.033-0.006,0.063-0.007,0.095-0.008
		c-0.164,0.109-0.272,0.258-0.317,0.444c-0.06,0.238-0.003,0.491,0.059,0.67l-0.121-0.03L31.511,12.674z M32.617,12.968
		c0.046-0.263,0.113-0.643,0.145-0.774c0.009-0.033,0.02-0.069,0.034-0.107c0.014-0.038,0.029-0.075,0.049-0.112
		c0.036,0,0.071-0.002,0.105,0.001c0.03,0.001,0.056,0.006,0.08,0.012c0.044,0.012,0.078,0.027,0.109,0.05
		c0.01,0.008,0.02,0.017,0.03,0.023l0.007,0.01c0.007,0.005,0.013,0.011,0.019,0.016c0.001,0.001,0.01,0.01,0.01,0.01
		c0.006,0.005,0.01,0.011,0.015,0.015c0.003,0.001,0.005,0.005,0.007,0.005l0.001,0.004c0.003,0.003,0.009,0.009,0.012,0.015
		c0.003,0.003,0.004,0.005,0.008,0.011c0.003,0.004,0.006,0.01,0.01,0.014c0,0.004,0.004,0.009,0.007,0.011
		c0.001,0.005,0.005,0.011,0.007,0.016c0.002,0.004,0.004,0.008,0.006,0.012c0.002,0.005,0.005,0.01,0.006,0.015
		c0.003,0.004,0.002,0.009,0.007,0.013c0.002,0.004,0.002,0.009,0.004,0.013c0.002,0.004,0.003,0.01,0.004,0.014
		c0,0.004,0.003,0.009,0.005,0.018c-0.001,0.003,0.001,0.007,0.002,0.01c0,0.004,0.002,0.008,0.003,0.016
		c0,0,0.001,0.011,0.002,0.012c0,0.006,0,0.009,0.002,0.018c0,0,0,0.009,0.001,0.013c0.001,0.004,0,0.008,0,0.012v0.016
		c-0.001,0.007-0.001,0.015-0.001,0.021c0,0.005-0.001,0.011-0.001,0.017c-0.001,0.007-0.002,0.013-0.003,0.021
		c0,0.003,0,0.004-0.001,0.006l-0.002,0.011c-0.001,0.005-0.001,0.008-0.002,0.011c0,0.003-0.002,0.007-0.002,0.012l-0.001,0.008
		c-0.002,0.003-0.002,0.008-0.004,0.012c-0.001,0.003-0.002,0.008-0.004,0.012l-0.002,0.007c-0.001,0.002-0.001,0.007-0.003,0.012
		c0,0.004-0.003,0.01-0.006,0.015c0,0.005-0.003,0.011-0.004,0.016c-0.001,0.006-0.005,0.01-0.006,0.016
		c-0.001,0.005-0.002,0.01-0.006,0.015c-0.002,0.006-0.005,0.013-0.007,0.018c-0.002,0.006-0.005,0.009-0.008,0.015
		c-0.003,0.007-0.005,0.012-0.009,0.018c-0.002,0.003-0.004,0.01-0.007,0.016c-0.002,0.005-0.006,0.01-0.01,0.017
		c-0.002,0.003-0.004,0.007-0.009,0.014c-0.003,0.006-0.007,0.012-0.012,0.017c-0.002,0.003-0.012,0.018-0.012,0.018
		c-0.002,0.005-0.006,0.011-0.011,0.017l-0.013,0.017c-0.003,0.004-0.007,0.009-0.01,0.016l-0.014,0.013
		c-0.002,0.006-0.005,0.011-0.012,0.016H33.13c-0.015,0.019-0.032,0.036-0.052,0.053l-0.002,0.004
		c-0.004,0.005-0.01,0.013-0.018,0.018l-0.014,0.014c-0.005,0.004-0.012,0.01-0.017,0.015l-0.014,0.014
		c-0.006,0.004-0.013,0.011-0.021,0.018c-0.03,0.027-0.063,0.052-0.099,0.074l-0.008,0.009l-0.008,0.01
		c-0.003,0.006-0.008,0.012-0.012,0.019L32.617,12.968L32.617,12.968z"/>
	
		<path fill="#BCBCBC" stroke="#010101" stroke-width="0.15" stroke-linecap="round" stroke-linejoin="round" stroke-miterlimit="10" d="
		M30.823,13.985c-0.163,0.64,0.222,1.291,0.861,1.455c0.638,0.165,1.291-0.221,1.453-0.859c0.001-0.001,0-0.002,0.001-0.004
		c0.166-0.639-0.221-1.29-0.859-1.454c-0.641-0.165-1.291,0.22-1.456,0.86C30.823,13.984,30.823,13.985,30.823,13.985"/>
</g>
<path fill="#F4F4F4" d="M15.369,36.789c-0.089-0.067-0.175-0.139-0.268-0.204c-0.048-0.033-0.065-0.064-0.044-0.123
	c0.176-0.51,0.346-1.019,0.521-1.53c0.089-0.257,0.094-0.255,0.369-0.253c0.189-0.001,0.379-0.001,0.57-0.002
	c0.007-0.001,0.017-0.008,0.033-0.012c-0.041-0.07-0.08-0.134-0.116-0.206c-0.298-0.557-0.339-1.139-0.182-1.75
	c0.104-0.405,0.314-0.752,0.576-1.07c0.035-0.043,0.061-0.067,0.116-0.048c0.082,0.034,0.116-0.012,0.146-0.081
	c0.198-0.442,0.398-0.879,0.601-1.323c0.022-0.049,0.029-0.117,0.12-0.074c0.06,0.027,0.062-0.043,0.077-0.077
	c0.192-0.419,0.386-0.836,0.574-1.262c0.041-0.095,0.081-0.106,0.166-0.056c0.101,0.062,0.206,0.115,0.324,0.177
	c-0.041-0.107-0.115-0.178-0.176-0.254c-0.037-0.052-0.044-0.093-0.008-0.145c0.344-0.495,0.688-0.991,1.032-1.491
	c0.034-0.05,0.072-0.047,0.118-0.03c0.684,0.198,1.365,0.396,2.046,0.593c0.67,0.194,1.339,0.39,2.01,0.577
	c0.075,0.021,0.085,0.032,0.044,0.104c-0.292,0.482-0.58,0.97-0.869,1.458c-0.045,0.078-0.099,0.149-0.136,0.231
	c-0.038,0.079-0.076,0.106-0.166,0.067c-0.125-0.052-0.257-0.089-0.384-0.132c-0.041-0.011-0.081-0.026-0.116,0.017
	c-0.039,0.047,0.002,0.079,0.026,0.109c0.087,0.109,0.171,0.221,0.262,0.325c0.053,0.06,0.053,0.101,0.004,0.158
	c-0.163,0.193-0.318,0.397-0.478,0.59c-0.072,0.088-0.13,0.188-0.176,0.29c-0.163,0.369-0.329,0.738-0.495,1.101
	c-0.022,0.055-0.033,0.136-0.128,0.082c-0.04-0.021-0.051,0.022-0.062,0.047c-0.104,0.229-0.211,0.46-0.314,0.692
	c-0.021,0.049-0.024,0.103-0.03,0.149c-0.094,0.753-0.396,1.389-1.015,1.857c-0.114,0.083-0.098,0.225-0.13,0.343
	c-0.103,0.353-0.197,0.709-0.288,1.067c-0.018,0.07-0.047,0.088-0.111,0.077c-0.145-0.011-0.288-0.018-0.432-0.019
	c-0.039,0.003-0.079-0.009-0.097,0.039c-0.019,0.054,0.012,0.076,0.05,0.101c0.116,0.08,0.226,0.166,0.343,0.24
	c0.068,0.042,0.082,0.087,0.046,0.166c-0.095,0.212-0.166,0.426-0.271,0.638c-0.2,0.396-0.225,0.827-0.305,1.249
	c-0.024,0.124-0.038,0.25-0.065,0.376c-0.012,0.062,0.019,0.165-0.118,0.142c-0.037,0-0.038,0.049-0.038,0.066
	c-0.028,0.172-0.048,0.346-0.089,0.513c-0.02,0.08,0.055,0.091,0.063,0.153c0.081,0.554,0.077,1.114-0.138,1.64
	c-0.373,0.91-1.202,1.471-2.176,1.437c-0.98-0.031-1.75-0.44-2.181-1.354c-0.324-0.679-0.295-1.376-0.008-2.062
	c0.037-0.092,0.039-0.206,0.161-0.241c0.029-0.01,0.023-0.059,0.029-0.094c0.08-0.472,0.16-0.942,0.242-1.42
	c0.008-0.055,0.003-0.111,0.092-0.082c0.054,0.004,0.046-0.051,0.055-0.089c0.075-0.443,0.155-0.901,0.223-1.346
	c0.016-0.107,0.038-0.169,0.17-0.122c0.123,0.048,0.256,0.064,0.388,0.094C15.361,36.806,15.365,36.796,15.369,36.789z"/>
<path fill="#010101" d="M14.768,32.805c0.035,0.094,0.125,0.059,0.185,0.087c0.09,0.048,0.118-0.006,0.142-0.077
	c0.012-0.031,0.031-0.05,0.067-0.036c0.04,0.018,0.031,0.049,0.018,0.071c-0.062,0.096-0.01,0.132,0.075,0.165
	c0.156,0.059,0.303,0.132,0.459,0.187c0.119,0.038,0.183,0.103,0.182,0.23c0,0.033,0.007,0.067,0.013,0.108
	c-0.061,0.005-0.106-0.026-0.155-0.046c-0.205-0.084-0.406-0.171-0.609-0.253c-0.044-0.016-0.093-0.065-0.137,0.013
	c-0.021,0.045-0.063,0.005-0.06-0.022c0.003-0.081-0.056-0.091-0.107-0.123c-0.154-0.088-0.192-0.249-0.101-0.399
	c0.025-0.04,0.058-0.07,0.108-0.082c0.043-0.008,0.081,0.004,0.109,0.047c0.024,0.031,0.026,0.07,0.001,0.106
	c-0.022,0.039-0.06,0.04-0.097,0.039C14.832,32.812,14.813,32.775,14.768,32.805z"/>
<path fill="#010101" d="M15.069,33.438c0.12,0.054,0.243,0.101,0.362,0.152c0.053,0.023,0.104,0.029,0.104-0.056
	c-0.002-0.022-0.002-0.055,0.033-0.054c0.029,0.001,0.042,0.025,0.048,0.052c0.021,0.092-0.002,0.178-0.065,0.246
	c-0.062,0.067-0.141,0.071-0.221,0.04c-0.22-0.087-0.437-0.184-0.658-0.269c-0.047-0.017-0.102-0.075-0.136,0.027
	c-0.015,0.04-0.056,0.004-0.058-0.031c-0.006-0.084-0.013-0.177,0.061-0.236c0.065-0.058,0.139-0.029,0.214-0.001
	C14.859,33.354,14.962,33.396,15.069,33.438C15.068,33.44,15.068,33.44,15.069,33.438z"/>
<path fill="#010101" d="M15.671,32.856c-0.133-0.052-0.266-0.104-0.399-0.157c-0.039-0.024-0.063-0.057-0.068-0.102
	c-0.014-0.114,0.058-0.167,0.162-0.126c0.125,0.053,0.25,0.102,0.372,0.158c0.06,0.021,0.129,0.04,0.117,0.125
	c-0.013,0.07-0.078,0.085-0.137,0.093C15.705,32.849,15.687,32.853,15.671,32.856z"/>
<path fill="#010101" d="M15.671,32.856c0.018-0.038,0.054-0.049,0.091-0.059c0.032-0.008,0.069-0.003,0.07-0.054
	c-0.003-0.048-0.029-0.075-0.071-0.091c-0.138-0.058-0.273-0.113-0.411-0.173c-0.032-0.011-0.065-0.037-0.092-0.002
	c-0.027,0.035-0.051,0.071-0.026,0.117c0.021,0.029,0.039,0.066,0.039,0.104c-0.024,0.014-0.047,0.037-0.072,0.048
	c-0.054,0.023-0.075,0-0.059-0.049c0.027-0.081,0.059-0.152,0.086-0.226c0.022-0.062,0.062-0.041,0.101-0.025
	c0.158,0.067,0.313,0.132,0.469,0.194c0.056,0.022,0.129,0.072,0.125-0.052c0-0.022,0.015-0.043,0.04-0.039
	c0.033,0,0.039,0.033,0.044,0.054c0.017,0.094-0.009,0.178-0.079,0.24C15.844,32.924,15.757,32.909,15.671,32.856z"/>
<path fill="#010101" d="M14.858,32.413c0.043-0.08,0.111-0.11,0.189-0.075c0.076,0.034,0.11,0.107,0.072,0.187
	c-0.035,0.078-0.106,0.104-0.179,0.074C14.858,32.566,14.829,32.5,14.858,32.413z"/>
<path fill="#010101" d="M18.162,41.722c-0.14,0.562-0.464,0.997-0.973,1.258c-0.804,0.405-1.596,0.317-2.31-0.203
	c-0.705-0.517-0.88-1.257-0.742-2.094c0.025-0.145,0.079-0.272,0.13-0.414c0.026-0.074,0.064-0.106,0.145-0.101
	c0.142-0.003,0.278-0.007,0.419-0.033c-0.096-0.024-0.192-0.053-0.291-0.066c-0.064-0.015-0.08-0.045-0.071-0.106
	c0.07-0.411,0.139-0.827,0.206-1.239c0.011-0.083,0.048-0.094,0.118-0.07c0.313,0.077,0.624,0.151,0.938,0.231
	c0.062,0.009,0.109,0.032,0.131-0.063c0.019-0.08-0.01-0.105-0.086-0.119c-0.273-0.056-0.541-0.13-0.814-0.195
	c-0.089-0.015-0.126-0.05-0.106-0.152c0.073-0.394,0.143-0.79,0.203-1.188c0.015-0.095,0.04-0.099,0.129-0.079
	c0.484,0.121,0.97,0.239,1.456,0.354c0.03,0.004,0.058,0.018,0.093,0c-0.386-0.295-0.769-0.583-1.155-0.87
	c-0.192-0.145-0.191-0.143-0.111-0.37c0.128-0.37,0.251-0.734,0.373-1.106c0.027-0.084,0.069-0.111,0.154-0.108
	c0.415,0.01,0.836,0.006,1.251,0.002c0.021-0.046-0.017-0.048-0.033-0.065c-0.695-0.578-0.929-1.454-0.618-2.302
	c0.082-0.223,0.192-0.432,0.336-0.622c0.047-0.057,0.09-0.082,0.17-0.059c0.213,0.059,0.433,0.101,0.66,0.13
	c-0.125-0.065-0.246-0.139-0.375-0.203c-0.075-0.04-0.093-0.074-0.056-0.155c0.177-0.375,0.349-0.754,0.52-1.132
	c0.027-0.061,0.056-0.077,0.109-0.033c0.075,0.051,0.173,0.073,0.238,0.139c-0.025,0.103-0.118,0.161-0.184,0.237
	c-0.12,0.204-0.177,0.44-0.295,0.642c-0.04,0.069,0.029,0.098,0.074,0.125c0.246,0.147,0.499,0.283,0.749,0.419
	c0.367,0.195,0.728,0.396,1.09,0.591c0.033,0.015,0.056,0.038,0.083,0.06c0.15,0.135,0.15,0.135,0.001,0.292
	c-0.029,0.025-0.079,0.031-0.076,0.082c-0.053,0.37-0.191,0.689-0.504,0.915c-0.113,0.08-0.232,0.153-0.38,0.155
	c-0.311-0.059-0.601-0.149-0.798-0.423c-0.217-0.296-0.241-0.623-0.134-0.966c0.034-0.111,0.086-0.218,0.136-0.329
	c0.024-0.052,0.034-0.102-0.025-0.128c-0.213-0.089-0.427-0.16-0.659-0.115c-0.185-0.02-0.252,0.106-0.314,0.248
	c-0.165,0.372-0.244,0.756-0.167,1.162c0.09,0.467,0.352,0.818,0.737,1.082c0.042,0.036,0.091,0.06,0.133,0.097
	c0.073,0.07,0.174,0.086,0.258,0.132c0.038,0.021,0.092,0.034,0.087,0.083c-0.009,0.06-0.062,0.061-0.109,0.068
	c-0.188,0.012-0.377,0.008-0.567,0.006c-0.318-0.012-0.635,0.014-0.952,0.007c-0.095-0.001-0.165,0.05-0.221,0.126
	c-0.056,0.041-0.101,0.086-0.123,0.153c-0.069,0.23-0.142,0.464-0.236,0.695c-0.059,0.141-0.044,0.184,0.084,0.279
	c0.571,0.428,1.14,0.862,1.712,1.29c0.046,0.036,0.102,0.063,0.106,0.137c-0.033,0.083-0.095,0.039-0.148,0.027
	c-0.572-0.129-1.142-0.266-1.706-0.418c-0.145-0.037-0.29-0.054-0.429,0.009c-0.085,0-0.118,0.057-0.131,0.129
	c-0.028,0.172-0.051,0.342-0.082,0.512c-0.021,0.1,0.008,0.149,0.104,0.163c0.243,0.062,0.484,0.121,0.726,0.184
	c0.165,0.046,0.194,0.078,0.161,0.245c-0.029,0.145-0.048,0.289-0.123,0.424c-0.056,0.044-0.12,0.034-0.182,0.02
	c-0.135-0.034-0.273-0.051-0.404-0.099c-0.157-0.053-0.311-0.052-0.466,0.008c-0.078-0.005-0.101,0.041-0.114,0.114
	c-0.032,0.172-0.067,0.34-0.088,0.516c-0.017,0.136-0.006,0.151,0.128,0.181c0.702,0.177,1.407,0.337,2.106,0.516
	c0.067,0.013,0.133,0.03,0.194,0.061c0.137,0.092,0.12,0.166-0.058,0.266c-0.029,0.053-0.011,0.104-0.009,0.152
	c0.012,0.357-0.065,0.684-0.325,0.951c-0.051,0.051-0.102,0.102-0.174,0.123c-0.229,0.044-0.456,0.067-0.684-0.007
	c-0.095-0.03-0.187-0.07-0.193-0.193c0.062-0.019,0.118,0.012,0.174,0.028c0.4,0.084,0.691-0.082,0.823-0.468
	c0.046-0.139,0.053-0.276,0.04-0.426c-0.01-0.088-0.054-0.146-0.143-0.167c-0.298-0.068-0.591-0.146-0.887-0.219
	c-0.085-0.013-0.127,0.018-0.165,0.084c-0.04,0.074-0.053,0.164-0.115,0.224c-0.074,0.009-0.053-0.043-0.044-0.082
	c0.009-0.063,0.013-0.133,0.003-0.201c-0.014-0.093-0.068-0.143-0.162-0.139c-0.16,0.02-0.32,0.025-0.481,0.025
	c-0.105-0.005-0.185,0.069-0.277,0.11c-0.061,0.016-0.091,0.063-0.107,0.118c-0.243,0.787,0.039,1.751,0.899,2.134
	c0.281,0.125,0.572,0.17,0.87,0.197c0.501,0.096,0.933-0.047,1.313-0.361c0.229-0.192,0.421-0.403,0.523-0.691
	C18.093,41.787,18.109,41.738,18.162,41.722z"/>
<path fill="#010101" d="M18.004,30.877c0.083-0.043,0.117-0.141,0.195-0.192c0.218,0.115,0.435,0.233,0.651,0.351
	c0.072,0.041,0.084-0.01,0.114-0.049c0.039-0.053,0.028-0.089-0.03-0.117c-0.249-0.134-0.496-0.278-0.747-0.405
	c-0.089-0.047-0.122-0.083-0.071-0.19c0.175-0.361,0.339-0.728,0.5-1.092c0.04-0.093,0.079-0.077,0.141-0.037
	c0.369,0.209,0.742,0.406,1.111,0.611c0.051,0.029,0.101,0.051,0.168,0.057c-0.115-0.146-0.226-0.302-0.339-0.451
	c-0.174-0.23-0.344-0.46-0.523-0.687c-0.062-0.077-0.071-0.128-0.009-0.216c0.253-0.349,0.497-0.707,0.738-1.063
	c0.042-0.061,0.078-0.078,0.153-0.055c1.146,0.331,2.291,0.661,3.439,0.988c0.08,0.024,0.101,0.045,0.052,0.127
	c-0.231,0.379-0.457,0.76-0.682,1.146c-0.037,0.065-0.075,0.082-0.149,0.053c-0.121-0.049-0.252-0.083-0.373-0.133
	c-0.073-0.028-0.107-0.006-0.144,0.052c-0.061,0.096-0.125,0.193-0.193,0.281c-0.059,0.073-0.054,0.133,0.01,0.198
	c0.083,0.089,0.15,0.193,0.233,0.284c0.045,0.054,0.055,0.095,0.003,0.153c-0.356,0.374-0.598,0.816-0.783,1.292
	c-0.039,0.104-0.099,0.199-0.137,0.301c-0.031,0.076-0.061,0.08-0.128,0.042c-0.313-0.176-0.633-0.344-0.944-0.521
	c-0.077-0.043-0.104-0.019-0.145,0.047c-0.048,0.083,0.019,0.094,0.062,0.116c0.277,0.152,0.553,0.308,0.835,0.453
	c0.083,0.047,0.092,0.086,0.052,0.169c-0.129,0.273-0.243,0.552-0.377,0.817c-0.051,0.099,0.004,0.2-0.054,0.29
	c-0.12-0.064-0.209-0.168-0.305-0.265c-0.031-0.029-0.015-0.07,0.005-0.105c0.021-0.056,0.037-0.108,0.09-0.138
	c0.104,0.025,0.16-0.013,0.206-0.111c0.068-0.139,0.106-0.292,0.183-0.431c0.045-0.085-0.004-0.148-0.078-0.188
	c-0.209-0.118-0.417-0.238-0.629-0.349c-0.212-0.112-0.246-0.227-0.127-0.432c0.034-0.057,0.065-0.118,0.094-0.178
	c0.025-0.057,0.064-0.1,0.134-0.096c0.255,0.105,0.49,0.254,0.735,0.385c0.077,0.042,0.156,0.091,0.241,0.012
	c0.128-0.004,0.198-0.071,0.25-0.188c0.053-0.113,0.117-0.218,0.156-0.333c0.082-0.231,0.209-0.432,0.378-0.609
	c0.091-0.1,0.093-0.149,0.014-0.259c-0.023-0.028-0.048-0.056-0.07-0.084c-0.167-0.225-0.171-0.288-0.005-0.503
	c0.112-0.147,0.189-0.326,0.336-0.445c0.076-0.038,0.144-0.003,0.211,0.028c0.095,0.048,0.187,0.059,0.28,0
	c0.113,0.001,0.182-0.065,0.231-0.152c0.074-0.13,0.155-0.258,0.229-0.395c0.083-0.15,0.061-0.193-0.103-0.242
	c-0.438-0.136-0.884-0.246-1.323-0.382c-0.439-0.135-0.886-0.243-1.323-0.382c-0.076-0.024-0.149-0.023-0.219,0.014
	c-0.142-0.006-0.214,0.081-0.286,0.186c-0.126,0.187-0.25,0.372-0.385,0.552c-0.068,0.088-0.064,0.16,0.004,0.248
	c0.391,0.516,0.779,1.034,1.169,1.548c0.029,0.038,0.058,0.076,0.077,0.116c0.01,0.029,0.018,0.06-0.028,0.069
	c-0.136-0.019-0.259-0.082-0.375-0.145c-0.4-0.22-0.798-0.443-1.198-0.66c-0.107-0.059-0.203-0.068-0.314-0.03
	c-0.089-0.02-0.137,0.024-0.17,0.106c-0.056,0.147-0.121,0.292-0.2,0.437c-0.063,0.11-0.049,0.138,0.06,0.204
	c0.193,0.112,0.392,0.212,0.587,0.32c0.057,0.033,0.112,0.061,0.157,0.107c0.038,0.032,0.063,0.078,0.04,0.121
	c-0.077,0.157-0.14,0.327-0.269,0.452c-0.053,0.028-0.095-0.002-0.145-0.019c-0.185-0.074-0.35-0.184-0.523-0.284
	c-0.099-0.058-0.19-0.083-0.295-0.03C18.075,30.953,18.023,30.939,18.004,30.877z"/>
<path fill="#010101" d="M20.362,33.148c-0.051,0.055,0.003,0.08,0.038,0.107c0.09,0.064,0.172,0.141,0.237,0.234
	c0.004,0.082-0.006,0.165-0.042,0.241c-0.172,0.578-0.496,1.023-1.048,1.289c-0.067,0.029-0.095,0.064-0.037,0.13
	c0.049,0.06,0.04,0.135,0.052,0.204c-0.028,0.201-0.101,0.391-0.146,0.589c-0.035,0.143-0.08,0.286-0.112,0.43
	c-0.018,0.076-0.051,0.109-0.138,0.103c-0.126-0.015-0.254-0.011-0.379-0.021c-0.072-0.008-0.11,0.012-0.131,0.081
	c-0.035,0.126-0.078,0.25-0.126,0.376c-0.024,0.058,0.008,0.092,0.052,0.123c0.11,0.067,0.211,0.157,0.322,0.224
	c0.076,0.047,0.079,0.096,0.044,0.164c-0.292,0.575-0.441,1.18-0.509,1.811c-0.013,0.099-0.043,0.114-0.139,0.09
	c-0.334-0.091-0.672-0.17-1.011-0.251c-0.057-0.013-0.116-0.047-0.14,0.056c-0.023,0.102,0.033,0.108,0.104,0.123
	c0.304,0.072,0.607,0.151,0.911,0.222c0.101,0.015,0.106,0.062,0.09,0.147c-0.053,0.286-0.097,0.572-0.149,0.866
	c-0.011,0.063-0.022,0.115,0.063,0.132c0.044,0,0.052,0.039,0.055,0.075c0.042,0.354,0.04,0.698-0.067,1.04
	c-0.118,0.363-0.35,0.644-0.643,0.873c-0.279,0.225-0.603,0.326-0.95,0.355c-0.112,0.014-0.224-0.027-0.333-0.041
	c0.025-0.059,0.082-0.041,0.13-0.051c0.234-0.016,0.454-0.082,0.672-0.172c0.678-0.271,0.993-0.798,1.061-1.505
	c0.003-0.066,0.012-0.148,0.012-0.226c-0.001-0.11-0.053-0.18-0.156-0.206c-0.131-0.029-0.258-0.078-0.389-0.109
	c-0.079-0.021-0.137,0.012-0.206,0.027c-0.078-0.006-0.159,0.002-0.215-0.07c0.017-0.015,0.034-0.013,0.056-0.01
	c0.069,0.011,0.097-0.03,0.116-0.084c0.02-0.06-0.044-0.07-0.077-0.088c0.035-0.054,0.078-0.034,0.116-0.024
	c0.101,0.021,0.199,0.034,0.296,0.063c0.052,0.015,0.096,0.015,0.141-0.021c0.142-0.038,0.201-0.135,0.211-0.274
	c0.007-0.108,0.028-0.229,0.045-0.338c0.018-0.103-0.02-0.161-0.121-0.188c-0.225-0.072-0.457-0.122-0.686-0.173
	c-0.077-0.016-0.146-0.039-0.207-0.091c-0.049-0.041-0.078-0.094-0.067-0.153c0.034-0.136,0.048-0.272,0.089-0.41
	c0.013-0.044,0.036-0.084,0.083-0.103c0.055-0.022,0.109-0.001,0.161,0.01c0.244,0.052,0.482,0.12,0.725,0.177
	c0.058,0.014,0.106,0.023,0.153-0.025c0.128-0.02,0.179-0.105,0.191-0.226c0.018-0.151,0.056-0.306,0.076-0.447
	c0.028-0.166,0.067-0.323,0.162-0.461c0.011-0.017,0.01-0.02,0.019-0.032c0.146-0.285,0.134-0.331-0.12-0.53
	c-0.167-0.124-0.189-0.192-0.129-0.394c0.064-0.221,0.138-0.433,0.252-0.638c0.061-0.055,0.136-0.034,0.207-0.031
	c0.076,0.006,0.154,0.016,0.218-0.039c0.09-0.03,0.158-0.07,0.187-0.172c0.047-0.161,0.082-0.325,0.13-0.485
	c0.031-0.104,0-0.137-0.102-0.138c-0.624,0.008-1.25,0.005-1.876,0.006c-0.364,0.006-0.721-0.005-1.088-0.001
	c-0.055,0-0.121,0.018-0.161-0.045c0.03-0.106,0.133-0.15,0.219-0.146c0.476-0.007,0.95,0.001,1.426,0.001
	c0.067,0.001,0.136-0.001,0.213-0.036c-0.111-0.095-0.262-0.086-0.357-0.184c0.091-0.03,0.166,0.025,0.242,0.057
	c0.414,0.19,0.835,0.192,1.262,0.059c0.1-0.034,0.184-0.104,0.292-0.121c0.167-0.019,0.29-0.113,0.407-0.216
	c0.309-0.271,0.5-0.614,0.604-1.005c0.03-0.116,0.001-0.197-0.103-0.264c-0.093-0.055-0.188-0.109-0.28-0.174
	c-0.09-0.066-0.18-0.082-0.28-0.027c-0.072,0.003-0.119-0.046-0.172-0.081c-0.004-0.08,0.043-0.028,0.069-0.026
	c0.083-0.055,0.152-0.157,0.275-0.089c-0.009-0.026-0.01-0.055,0.031-0.057C20.127,32.967,20.263,33.026,20.362,33.148z"/>
<path fill="#010101" d="M19.561,35.352c-0.055-0.082-0.051-0.192-0.141-0.262c-0.04-0.029,0.009-0.065,0.045-0.08
	c0.277-0.1,0.484-0.292,0.684-0.5c0.136-0.138,0.2-0.318,0.304-0.476c0.061-0.09,0.092-0.204,0.139-0.306
	c-0.108,0.517-0.356,0.947-0.774,1.272C19.696,35.096,19.593,35.192,19.561,35.352z"/>
<path fill="#010101" d="M13.899,34.795c-0.06,0.135-0.071,0.279-0.179,0.396c-0.043,0.047,0.004,0.104,0.014,0.157
	c0.002,0.023,0.019,0.027,0.039,0.016c0.047-0.026,0.064-0.067,0.065-0.116c0.004-0.037,0.014-0.071,0.021-0.105
	c0.021,0.122,0.107,0.16,0.203,0.199c0.17,0.064,0.336,0.137,0.505,0.205c0.05,0.023,0.107,0.032,0.106,0.112
	c0.003,0.024,0.014,0.055,0.047,0.048c0.035-0.01,0.034-0.035,0.042-0.053c0.059-0.139,0.125-0.289,0.182-0.438
	c0.11-0.294-0.034-0.582-0.349-0.712C14.299,34.384,14.023,34.505,13.899,34.795z M14.746,34.903
	c0.06,0.048,0.105,0.108,0.114,0.189c0.023,0.215-0.05,0.268-0.237,0.188c-0.089-0.036-0.181-0.071-0.271-0.11
	c-0.121-0.051-0.242-0.101-0.363-0.151c-0.065-0.014-0.073-0.05-0.048-0.111c0.055-0.137,0.178-0.221,0.342-0.199
	C14.455,34.732,14.61,34.798,14.746,34.903z"/>
<path fill="#010101" d="M13.666,35.594c-0.227,0.149-0.318,0.435-0.224,0.694c0.09,0.242,0.348,0.401,0.602,0.367
	c0.085-0.011,0.205-0.087,0.244-0.053c0.059,0.048,0.061,0.167,0.094,0.285c0.048-0.274-0.056-0.492-0.124-0.712
	c-0.01-0.025-0.049-0.041-0.083-0.062c-0.05-0.042-0.125-0.061-0.137-0.134c-0.02-0.146-0.063-0.17-0.188-0.1
	c0.058-0.136,0.058-0.136,0.198-0.08c0.063,0.027,0.104,0.044,0.063-0.048c-0.026,0.006-0.05,0.004-0.073-0.005
	c-0.073-0.015-0.142-0.101-0.211,0.004c-0.04,0.062-0.135,0.097-0.137,0.192c0,0.052-0.04,0.048-0.069,0.046
	c-0.049,0.009-0.075,0.037-0.061,0.086c0.006,0.028,0.026,0.08,0.053,0.052c0.024-0.019,0.104,0.005,0.076-0.075
	c-0.006-0.02-0.021-0.042,0.015-0.048c0.012-0.002,0.025,0,0.035,0.009c0.017,0.021,0.037,0.049,0.016,0.069
	c-0.094,0.095-0.003,0.144,0.052,0.188c0.081,0.054,0.167,0.106,0.267,0.166c0-0.07-0.042-0.087-0.081-0.104
	c-0.064-0.037-0.117-0.084-0.165-0.138c-0.036-0.043-0.013-0.079,0.022-0.108c0.047-0.039,0.056,0.014,0.07,0.043
	c0.076,0.109,0.172,0.205,0.27,0.303c0.08,0.069,0.053,0.099-0.034,0.137c-0.206,0.074-0.439,0.015-0.573-0.161
	c-0.138-0.173-0.144-0.416-0.014-0.601c0.131-0.191,0.336-0.248,0.571-0.182l0,0c0.301,0.109,0.427,0.427,0.279,0.712
	c-0.013,0.021-0.038,0.054-0.044,0.074s0.001,0.046,0.015,0.061c0.019,0.023,0.035-0.011,0.047-0.025
	c0.015-0.017,0.039-0.054,0.05-0.072c0.124-0.222,0.077-0.52-0.111-0.702C14.187,35.472,13.886,35.444,13.666,35.594z
	 M14.064,36.123c0.107,0.052,0.142,0.131,0.18,0.205C14.167,36.291,14.123,36.222,14.064,36.123z"/>
<path fill="#010101" d="M15.29,33.992c0.034,0.084,0.026,0.166-0.022,0.243c-0.057,0.089-0.215,0.127-0.318,0.061
	c-0.102-0.058,0.005-0.122,0.012-0.182c0.002-0.025,0.02-0.049,0.027-0.071c0.024-0.059,0.05-0.125,0.078-0.189
	c0.018-0.04,0.008-0.064-0.035-0.077c-0.125-0.041-0.285-0.002-0.375,0.098c-0.14,0.15-0.146,0.376-0.02,0.537
	c0.14,0.154,0.38,0.178,0.555,0.069c0.166-0.109,0.251-0.364,0.177-0.533c-0.012-0.024-0.016-0.061-0.058-0.046
	C15.264,33.935,15.278,33.962,15.29,33.992z M14.756,34.216c-0.075-0.041-0.143-0.095-0.104-0.184
	c0.039-0.09,0.124-0.072,0.201-0.05c0.114,0.034,0.015,0.098,0.017,0.152C14.835,34.163,14.856,34.269,14.756,34.216z"/>
<path fill="#F04848" d="M19.063,36.083c-0.018,0.058-0.056,0.072-0.116,0.064c-0.096-0.004-0.192-0.006-0.289-0.008
	c-0.167,0.022-0.214,0.141-0.252,0.283c-0.045,0.16-0.094,0.325-0.161,0.479c-0.042,0.099-0.021,0.163,0.066,0.224
	c0.076,0.053,0.156,0.105,0.229,0.163c0.074,0.053,0.104,0.124,0.061,0.212c-0.197,0.407-0.316,0.841-0.369,1.296
	c-0.004,0.032-0.021,0.061-0.046,0.094c-0.017,0.079-0.062,0.081-0.127,0.062c-0.307-0.074-0.608-0.165-0.916-0.22
	c-0.176,0.02-0.176,0.02-0.223,0.194c-0.026,0.11-0.057,0.224-0.082,0.333c-0.022,0.089,0.004,0.133,0.097,0.155
	c0.283,0.065,0.565,0.138,0.852,0.203c0.154,0.042,0.178,0.067,0.153,0.222c-0.029,0.172-0.056,0.346-0.087,0.517
	c-0.009,0.044-0.02,0.084-0.046,0.117c-0.023,0.063-0.064,0.079-0.13,0.062c-0.144-0.039-0.294-0.064-0.44-0.105
	c-0.37-0.114-0.745-0.191-1.119-0.283c-0.41-0.102-0.82-0.205-1.231-0.305c-0.115-0.025-0.125-0.075-0.106-0.172
	c0.038-0.188,0.068-0.372,0.096-0.566c0.012-0.105,0.047-0.162,0.166-0.121c0.277,0.005,0.535,0.109,0.801,0.164
	c0.09,0.017,0.16,0.019,0.215-0.065c0.039-0.155,0.078-0.315,0.124-0.474c0.024-0.086-0.007-0.116-0.091-0.136
	c-0.285-0.065-0.566-0.139-0.851-0.204c-0.08-0.014-0.093-0.049-0.081-0.118c0.039-0.21,0.075-0.417,0.102-0.625
	c0.013-0.108,0.061-0.134,0.155-0.103c0.145-0.009,0.276,0.043,0.411,0.07c0.675,0.163,1.35,0.326,2.034,0.493
	c-0.059-0.053-0.137-0.084-0.162-0.164c-0.427-0.327-0.853-0.647-1.282-0.967c-0.205-0.156-0.41-0.313-0.62-0.462
	c-0.079-0.053-0.091-0.107-0.061-0.188c0.098-0.281,0.196-0.561,0.286-0.843c0.021-0.061,0.06-0.091,0.124-0.104
	c0.391,0.018,0.777,0.005,1.166,0.005c0.611,0.006,1.224-0.001,1.835,0.003c0.042-0.001,0.085,0.008,0.126,0.012
	c0.023,0.032,0.021,0.073,0.012,0.113c-0.05,0.207-0.104,0.417-0.165,0.621C19.109,36.021,19.083,36.051,19.063,36.083z"/>
<path fill="#F04848" d="M20.362,33.148c-0.134-0.072-0.271-0.143-0.406-0.214c-0.104-0.002-0.155-0.109-0.247-0.136
	c-0.311-0.17-0.62-0.346-0.928-0.517c-0.354-0.197-0.71-0.39-1.068-0.583c-0.042-0.028-0.085-0.048-0.055-0.107
	c0.129-0.237,0.201-0.492,0.343-0.717c0.046,0.021,0.093,0.044,0.138,0.061c0.167,0.024,0.287,0.136,0.433,0.202
	c0.093,0.044,0.184,0.09,0.267,0.144c0.086,0.058,0.164,0.058,0.24-0.016c0.084-0.149,0.172-0.299,0.255-0.451
	c0.032-0.056-0.01-0.081-0.053-0.104c-0.259-0.141-0.516-0.289-0.776-0.423c-0.077-0.043-0.092-0.081-0.055-0.159
	c0.096-0.2,0.188-0.399,0.271-0.596c0.051-0.123,0.116-0.029,0.173-0.022c0.102-0.007,0.175,0.061,0.254,0.101
	c0.583,0.319,1.167,0.641,1.751,0.958c0.006,0.005,0.017,0.006,0.023,0.001c-0.035-0.074-0.12-0.122-0.122-0.217
	c-0.298-0.4-0.599-0.802-0.899-1.204c-0.137-0.184-0.272-0.366-0.413-0.547c-0.053-0.068-0.054-0.117-0.003-0.188
	c0.162-0.225,0.322-0.452,0.473-0.688c0.061-0.093,0.125-0.137,0.235-0.101c0.173-0.012,0.331,0.065,0.49,0.113
	c0.761,0.215,1.527,0.436,2.287,0.656c0.199,0.057,0.214,0.095,0.114,0.272c-0.085,0.146-0.173,0.29-0.261,0.435
	c-0.024,0.038-0.047,0.081-0.095,0.101c-0.047,0.089-0.112,0.09-0.199,0.052c-0.089-0.04-0.18-0.08-0.278-0.089
	c-0.109,0-0.171,0.062-0.229,0.148c-0.111,0.165-0.219,0.333-0.337,0.493c-0.062,0.083-0.058,0.152,0.01,0.228
	c0.072,0.078,0.14,0.154,0.2,0.246c0.048,0.065,0.045,0.127-0.005,0.188c-0.022,0.026-0.042,0.051-0.065,0.079
	c-0.187,0.212-0.339,0.445-0.43,0.716c-0.042,0.125-0.109,0.237-0.193,0.339c-0.042,0.119-0.108,0.109-0.201,0.051
	c-0.27-0.151-0.541-0.292-0.812-0.438c-0.106-0.028-0.177,0.013-0.225,0.112c-0.05,0.099-0.106,0.204-0.16,0.299
	c-0.068,0.127-0.064,0.147,0.062,0.22c0.224,0.128,0.451,0.25,0.679,0.371c0.19,0.101,0.208,0.136,0.125,0.337
	c-0.04,0.098-0.079,0.197-0.121,0.292c-0.027,0.058-0.049,0.117-0.11,0.147C20.414,33.05,20.389,33.098,20.362,33.148z"/>
<path fill="#F04848" d="M17.031,42.719c-0.253,0.117-0.522,0.168-0.796,0.189c-0.262-0.014-0.521-0.045-0.768-0.148
	c-0.716-0.291-1.128-0.907-1.111-1.681c0.003-0.192,0.024-0.373,0.085-0.561c0.023-0.081,0.064-0.11,0.138-0.112
	c0.209-0.06,0.424-0.032,0.637-0.042c0.044-0.001,0.085,0.011,0.089,0.066c-0.003,0.115-0.055,0.228-0.072,0.348
	c-0.052,0.369,0,0.715,0.304,0.967c0.201,0.166,0.442,0.242,0.707,0.218c0.157-0.01,0.298-0.073,0.443-0.126
	c0.281-0.178,0.41-0.461,0.458-0.784c0.02-0.15,0.004-0.302-0.003-0.456c0.076,0.015,0.148,0.033,0.225,0.051
	c0.19-0.012,0.36,0.074,0.537,0.125c0.064,0.017,0.078,0.087,0.079,0.147c0.019,0.653-0.158,1.227-0.689,1.641
	C17.211,42.631,17.113,42.664,17.031,42.719z"/>
<path fill="#F04848" d="M19.437,34.887c-0.575,0.306-1.146,0.291-1.722,0.004c-0.021-0.011-0.047-0.02-0.07-0.027
	c-0.218-0.143-0.424-0.293-0.581-0.505c-0.374-0.501-0.424-1.051-0.234-1.637c0.04-0.12,0.099-0.232,0.148-0.347
	c0.052-0.125,0.132-0.192,0.273-0.142c0.148-0.023,0.282,0.04,0.419,0.072c0.267,0.066,0.264,0.066,0.134,0.304
	c-0.1,0.182-0.168,0.37-0.184,0.577c-0.041,0.529,0.318,0.879,0.795,0.97c0.115,0.024,0.235,0.028,0.354,0.02
	c0.314-0.063,0.525-0.26,0.672-0.528c0.091-0.169,0.15-0.359,0.17-0.554c0.076-0.028,0.11,0.06,0.172,0.066
	c0.205,0.053,0.374,0.172,0.541,0.296c0.044,0.034,0.04,0.092,0.026,0.147c-0.116,0.46-0.31,0.876-0.691,1.176
	C19.593,34.823,19.517,34.857,19.437,34.887z"/>
<path fill="#F4F4F4" d="M19.271,33.418c-0.215,0.521-0.703,0.685-1.114,0.395c-0.183-0.131-0.275-0.313-0.269-0.533
	c0.008-0.35,0.181-0.618,0.427-0.849c0.037-0.034,0.069-0.017,0.102,0c0.293,0.16,0.587,0.32,0.88,0.481
	c0.047,0.023,0.051,0.061,0.053,0.103C19.355,33.16,19.322,33.304,19.271,33.418z"/>
<path fill="#F4F4F4" d="M15.521,40.719c0.044-0.095,0.082-0.216,0.143-0.309c0.029-0.048,0.051-0.066,0.112-0.054
	c0.33,0.085,0.662,0.166,0.995,0.244c0.074,0.019,0.106,0.051,0.114,0.129c0.022,0.192,0.015,0.388-0.059,0.57
	c-0.153,0.378-0.527,0.543-0.915,0.405c-0.029-0.013-0.061-0.024-0.093-0.037c-0.159-0.023-0.23-0.146-0.288-0.274
	c-0.1-0.204-0.092-0.42-0.042-0.641C15.493,40.737,15.505,40.727,15.521,40.719z"/>
<path fill="#010101" d="M18.771,34.171c-0.648,0.196-1.303-0.42-1.175-1.108c0.04-0.207,0.115-0.405,0.243-0.578
	c0.064-0.084,0.03-0.1-0.045-0.121c-0.182-0.042-0.362-0.089-0.541-0.133c0.071-0.079,0.163-0.047,0.239-0.031
	c0.149,0.035,0.306,0.043,0.45,0.115c0.088,0.043,0.106,0.084,0.061,0.174c-0.128,0.257-0.235,0.521-0.194,0.825
	c0.064,0.44,0.33,0.688,0.705,0.799C18.597,34.138,18.686,34.152,18.771,34.171z"/>
<path fill="#010101" d="M15.521,40.719c-0.01,0.08-0.026,0.167-0.032,0.25c-0.018,0.291,0.069,0.536,0.328,0.698
	c0.146,0.193,0.354,0.208,0.567,0.207c0.102-0.005,0.204-0.028,0.302-0.035c-0.124,0.106-0.262,0.152-0.423,0.156
	c-0.626-0.017-0.929-0.514-0.938-1.011c-0.002-0.14,0.015-0.285,0.048-0.412c0.018-0.061,0.038-0.143-0.078-0.14
	c-0.029-0.043-0.075-0.029-0.115-0.025c-0.206,0.005-0.404,0.004-0.606,0.009c0.121-0.103,0.255-0.134,0.409-0.124
	c0.111,0.01,0.227-0.013,0.336-0.016c0.151-0.008,0.189,0.03,0.211,0.184C15.555,40.543,15.518,40.628,15.521,40.719z"/>
<path fill="#010101" d="M17.695,37.798c0.096,0.066,0.19,0.137,0.286,0.205c-0.004,0.008-0.008,0.017-0.011,0.025
	c-0.169-0.047-0.342-0.083-0.513-0.124c-0.655-0.164-1.313-0.321-1.972-0.481c-0.024-0.004-0.046-0.021-0.071-0.027
	c0.163-0.132,0.334-0.05,0.494-0.011c0.533,0.136,1.065,0.281,1.605,0.391C17.571,37.792,17.625,37.873,17.695,37.798z"/>
<path fill="#010101" d="M16.055,39.071c-0.004,0.109-0.039,0.148-0.158,0.118c-0.285-0.081-0.57-0.147-0.857-0.221
	c0.24-0.149,0.458,0.02,0.685,0.044C15.834,39.029,15.936,39.101,16.055,39.071z"/>
<path fill="#010101" d="M19.71,32.801c0.089,0.032,0.17,0.08,0.246,0.138c0.014,0.016,0.024,0.031,0.038,0.053
	c-0.097-0.009-0.199-0.031-0.255,0.083c-0.002,0.005-0.036-0.006-0.055-0.008c0.008-0.02,0.012-0.049,0.026-0.057
	C19.828,32.937,19.836,32.87,19.71,32.801z"/>
<path fill="#010101" d="M22.732,29.212c0.118-0.201,0.229-0.405,0.353-0.602c0.062-0.097,0.035-0.124-0.063-0.151
	c-0.899-0.255-1.797-0.515-2.693-0.773c-0.044-0.012-0.086-0.033-0.13-0.047c0.134-0.132,0.273-0.031,0.401,0.007
	c0.315,0.092,0.635,0.179,0.956,0.265c0.179,0.051,0.356,0.099,0.531,0.16c0.358,0.119,0.728,0.196,1.089,0.309
	c0.113,0.035,0.151,0.089,0.099,0.194c-0.103,0.211-0.218,0.417-0.358,0.607C22.863,29.25,22.802,29.234,22.732,29.212z"/>
<path fill="#010101" d="M21.207,31.608c0.169-0.406,0.327-0.819,0.646-1.136c0.063-0.064,0.071-0.115,0.008-0.185
	c-0.08-0.082-0.14-0.181-0.22-0.26c-0.062-0.066-0.061-0.12-0.01-0.19c0.146-0.202,0.289-0.407,0.423-0.617
	c0.059-0.09,0.12-0.107,0.205-0.047c-0.126,0.188-0.248,0.376-0.383,0.555c-0.078,0.101-0.057,0.188,0.005,0.28
	c0.049,0.07,0.102,0.134,0.158,0.196c0.066,0.085,0.075,0.17-0.01,0.256c-0.156,0.16-0.296,0.33-0.366,0.55
	c-0.057,0.182-0.158,0.342-0.242,0.517C21.374,31.623,21.3,31.644,21.207,31.608z"/>
<path fill="#010101" d="M20.443,33c0.075-0.17,0.142-0.342,0.226-0.509c0.057-0.108,0.018-0.151-0.076-0.203
	c-0.277-0.145-0.547-0.304-0.825-0.445c-0.08-0.042-0.081-0.081-0.041-0.149c0.076-0.135,0.155-0.275,0.228-0.41
	c0.082-0.159,0.081-0.16,0.24-0.063c-0.028,0.011-0.06,0.014-0.07,0.045c-0.033,0.099-0.095,0.188-0.144,0.283
	c-0.068,0.136-0.039,0.228,0.101,0.304c0.233,0.127,0.468,0.248,0.7,0.377c0.082,0.046,0.136,0.132,0.086,0.211
	c-0.106,0.16-0.138,0.351-0.232,0.514C20.581,33.054,20.544,33.069,20.443,33z"/>
<path fill="#010101" d="M20.808,30.363c0.076,0.095,0.151,0.191,0.228,0.285c-0.007,0.013-0.018,0.024-0.023,0.036
	c-0.704-0.388-1.407-0.778-2.112-1.168c0.102-0.068,0.187-0.05,0.299,0.007c0.322,0.158,0.622,0.354,0.939,0.514
	C20.361,30.151,20.57,30.284,20.808,30.363z"/>
<path fill="#010101" d="M19.08,31.273c-0.064,0.152-0.066,0.158-0.201,0.081c-0.245-0.136-0.502-0.253-0.738-0.41
	c0.073-0.088,0.14-0.083,0.241-0.028C18.609,31.039,18.823,31.197,19.08,31.273z"/>
<path fill="#010101" d="M18.19,38.879c0.039-0.46,0.143-0.914,0.363-1.341c0.059-0.115,0.052-0.182-0.067-0.252
	c-0.093-0.047-0.172-0.122-0.262-0.179c-0.056-0.038-0.07-0.072-0.047-0.139c0.075-0.215,0.148-0.451,0.228-0.669
	c0.074-0.199,0.024-0.189,0.252-0.158c-0.099,0.221-0.19,0.45-0.259,0.693c-0.031,0.111-0.012,0.205,0.098,0.27
	c0.004,0.002,0.008,0.004,0.012,0.004c0.312,0.197,0.339,0.333,0.137,0.638c-0.087,0.127-0.124,0.275-0.152,0.417
	c-0.04,0.183-0.074,0.356-0.09,0.534C18.379,38.842,18.315,38.891,18.19,38.879z"/>
<path fill="#010101" d="M17.031,42.719c0.183-0.137,0.375-0.266,0.52-0.453c0.32-0.408,0.412-0.875,0.395-1.376
	c-0.003-0.068-0.038-0.084-0.094-0.095c-0.162-0.047-0.324-0.094-0.487-0.141c0.131-0.138,0.261-0.006,0.391,0.005
	c0.044-0.007,0.079,0.031,0.121,0.039c0.24,0.042,0.28,0.118,0.269,0.357c-0.013,0.302-0.065,0.593-0.204,0.862
	C17.74,42.303,17.454,42.588,17.031,42.719z"/>
<path fill="#010101" d="M17.808,40.456c0.013-0.228,0.067-0.451,0.104-0.664c0.014-0.083,0.003-0.121-0.089-0.137
	c-0.318-0.066-0.634-0.156-0.949-0.227c-0.075-0.015-0.11-0.042-0.083-0.131c0.045-0.159,0.095-0.324,0.119-0.49
	c0.021-0.146,0.086-0.141,0.189-0.102c0.016,0.009,0.031,0.016,0.046,0.022c-0.082,0.072-0.063,0.179-0.085,0.256
	c-0.021,0.061-0.017,0.109-0.026,0.147c-0.045,0.174,0,0.248,0.177,0.28c0.265,0.05,0.523,0.115,0.778,0.196
	c0.086,0.021,0.118,0.079,0.106,0.158c-0.024,0.19-0.046,0.372-0.079,0.563C17.99,40.44,17.881,40.423,17.808,40.456z"/>
<path fill="#010101" d="M19.437,34.887c0.478-0.3,0.744-0.744,0.875-1.282c0.019-0.083,0.016-0.134-0.072-0.182
	c-0.156-0.081-0.304-0.181-0.454-0.27c0.084-0.084,0.164-0.078,0.258-0.008c0.104,0.079,0.22,0.144,0.333,0.205
	c0.115,0.056,0.15,0.155,0.118,0.267c-0.097,0.342-0.234,0.667-0.491,0.925C19.842,34.699,19.688,34.871,19.437,34.887z"/>
<path fill="#010101" d="M19.063,36.083c0.069-0.275,0.14-0.555,0.207-0.828c0.021-0.038,0.053-0.059,0.095-0.035
	c0.043,0.027,0.055,0.069,0.056,0.118c0.004,0.131-0.074,0.241-0.093,0.367c-0.01,0.077-0.032,0.152-0.059,0.229
	C19.231,36.036,19.171,36.089,19.063,36.083z"/>
<path fill="#010101" d="M17.635,36.534c-0.01,0.032-0.018,0.063-0.029,0.099c-0.019,0.061-0.048,0.072-0.101,0.038
	c-0.29-0.188-0.582-0.373-0.875-0.56c-0.031-0.022-0.046-0.047-0.03-0.087c0.015-0.04,0.037-0.066,0.082-0.059
	c0.056,0.006,0.109,0.014,0.165,0.02c0.028-0.006,0.046,0.012,0.057,0.04c0.125,0.121,0.288,0.189,0.429,0.289
	c0.044,0.038,0.098,0.067,0.144,0.105C17.522,36.464,17.609,36.464,17.635,36.534z"/>
<path fill="#010101" d="M16.885,36.032c-0.003-0.024-0.024-0.03-0.043-0.038c0.291,0.007,0.584,0.041,0.873,0.063
	c0.062,0.003,0.084,0.025,0.058,0.093c-0.052,0.132-0.07,0.264-0.142,0.394c-0.054-0.038-0.136-0.029-0.175-0.095
	c0.014-0.017,0.043-0.033,0.053-0.048c0.041-0.073,0.079-0.165,0.047-0.238c-0.024-0.071-0.114-0.038-0.171-0.049
	c-0.12-0.017-0.245-0.004-0.367-0.018C16.975,36.074,16.921,36.081,16.885,36.032z"/>
<path fill="#010101" d="M21.238,29.253c-0.111,0.215-0.111,0.215-0.27,0.036c-0.19-0.215-0.38-0.431-0.565-0.648
	c-0.032-0.036-0.083-0.067-0.043-0.129c0.041-0.067,0.095-0.04,0.146-0.021c0.054,0.021,0.105,0.048,0.16,0.071
	c0.02,0.041-0.048,0.034-0.035,0.069c0.161,0.142,0.286,0.315,0.427,0.472C21.131,29.14,21.207,29.169,21.238,29.253z"/>
<path fill="#010101" d="M20.587,28.625c-0.03-0.019-0.048-0.04,0.003-0.048c0.027-0.007,0.056,0.018,0.079-0.015
	c0.253,0.096,0.509,0.188,0.766,0.285c0.064,0.022,0.06,0.057,0.027,0.104c-0.071,0.1-0.147,0.201-0.222,0.301
	c-0.067-0.038-0.123-0.096-0.202-0.115c0.022-0.057,0.06-0.101,0.09-0.151c0.062-0.098,0.051-0.123-0.051-0.173
	C20.921,28.734,20.738,28.714,20.587,28.625z"/>
<path fill="#010101" d="M15.301,40.426c0.022-0.014,0.013-0.075,0.064-0.057c0.044,0.025,0.065,0.065,0.063,0.118
	c-0.007,0.108-0.053,0.218-0.059,0.333c-0.024,0.392,0.063,0.74,0.401,0.981c0.146,0.103,0.314,0.17,0.497,0.191
	c-0.464,0.082-0.926-0.213-1.048-0.671C15.137,41.014,15.173,40.714,15.301,40.426z"/>
<path fill="#EFEFF0" d="M16.885,36.032c0.215,0.02,0.435,0.029,0.655,0.038c0.069,0.005,0.098,0.021,0.076,0.101
	c-0.018,0.065-0.038,0.144-0.051,0.222c-0.012,0.065-0.052,0.082-0.107,0.054c-0.168-0.104-0.336-0.211-0.502-0.32
	C16.928,36.093,16.876,36.091,16.885,36.032z"/>
<path fill="#EBECED" d="M20.587,28.625c0.216,0.026,0.412,0.125,0.611,0.197c0.032,0.014,0.053,0.033,0.029,0.068
	c-0.058,0.088-0.087,0.193-0.189,0.248C20.896,28.959,20.75,28.781,20.587,28.625z"/>
<path fill="#010101" d="M19.376,35.871c0.15,0.047,0.303,0.092,0.452,0.141c0.042,0.014,0.08,0.044,0.118,0.067
	c0.009,0.004,0.012,0.026,0.025,0.015c0.043,0.003,0.084,0.011,0.136-0.002c-0.02-0.013-0.04-0.032-0.062-0.039
	c-0.053-0.025-0.105-0.047-0.157-0.065c-0.03-0.011-0.037-0.027-0.024-0.056c0.056-0.12,0.109-0.241,0.157-0.36
	c0.036-0.084,0.083-0.156,0.16-0.204c0.032-0.021,0.037-0.054,0.035-0.086c-0.003-0.139,0.032-0.271,0.096-0.391
	c0.066-0.129,0.154-0.235,0.275-0.305c0.113-0.068,0.241-0.088,0.376-0.06c0.039,0.007,0.078,0.017,0.117,0.027
	c-0.047-0.095-0.147-0.11-0.224-0.159c-0.045-0.033-0.091-0.061-0.14-0.087c-0.025-0.017-0.031-0.034-0.014-0.064
	c0.011-0.017,0.023-0.036,0.035-0.055c0.025-0.04,0.019-0.072-0.024-0.094c-0.068-0.037-0.143-0.063-0.209-0.1
	c-0.057-0.034-0.107-0.077-0.164-0.114c0.084-0.144,0.164-0.28,0.247-0.422c0.014-0.019,0.028-0.047,0.042-0.067
	c0.024-0.036,0.065-0.042,0.103-0.02c0.099,0.06,0.198,0.119,0.3,0.176c0.044,0.029,0.101,0.05,0.133,0.09
	c0.067,0.082,0.172,0.077,0.25,0.13c0.121,0.083,0.25,0.155,0.376,0.234c0.049,0.033,0.1,0.063,0.15,0.097
	c0.032,0.023,0.054,0.012,0.081-0.021c0.066-0.078,0.02-0.146-0.005-0.216c0-0.012-0.036-0.019-0.054-0.015
	c-0.077,0.013-0.155,0.017-0.235-0.002c-0.144-0.029-0.308-0.184-0.339-0.334c-0.048-0.229,0.037-0.416,0.161-0.598
	c0.06-0.089,0.132-0.163,0.22-0.228c0.127-0.097,0.268-0.162,0.437-0.111c0.014,0.002,0.033,0.008,0.043,0.018
	c0.09,0.068,0.18,0.136,0.271,0.206c0.007,0.006,0.008,0.023,0.005,0.038c-0.004,0.013-0.012,0.024-0.019,0.038
	c-0.012,0.027-0.013,0.046,0.028,0.04c0.14-0.015,0.264,0.027,0.367,0.114c0.097,0.08,0.158,0.19,0.17,0.318
	c0.021,0.217-0.061,0.396-0.188,0.559c-0.098,0.128-0.222,0.223-0.374,0.289c-0.02,0.008-0.036,0.021-0.066,0.039
	c0.024,0.022,0.043,0.035,0.063,0.044c0.042,0.03,0.046,0.05,0.017,0.093c-0.054,0.077-0.102,0.153-0.153,0.231
	c-0.065,0.102-0.131,0.204-0.259,0.24c-0.043,0.009-0.086,0.016-0.132,0.034c0.034,0.019,0.066,0.041,0.104,0.054
	c0.058,0.034,0.061,0.045,0.02,0.105c-0.029,0.042-0.047,0.088-0.075,0.131c-0.042,0.073-0.082,0.153-0.132,0.225
	c-0.102,0.142-0.262,0.183-0.431,0.099c-0.169-0.087-0.337-0.184-0.508-0.272c-0.118-0.057-0.175-0.021-0.175,0.113
	c0.001,0.115,0.07,0.191,0.166,0.241c0.142,0.066,0.289,0.128,0.426,0.194c0.073,0.037,0.146,0.074,0.218,0.108
	c0.024,0.019,0.039,0.034,0.023,0.069c-0.138,0.315-0.272,0.629-0.412,0.945c-0.042,0.096-0.117,0.159-0.229,0.184
	c-0.004,0.001-0.011,0.003-0.016,0.008c-0.002,0-0.004,0.003-0.016,0.018c0.024,0.012,0.047,0.031,0.069,0.041
	c0.079,0.03,0.081,0.031,0.056,0.112c-0.047,0.139-0.094,0.276-0.149,0.413c-0.038,0.097-0.16,0.16-0.262,0.159
	c-0.126-0.009-0.245-0.056-0.366-0.084c-0.125-0.026-0.24-0.075-0.365-0.105c-0.066-0.019-0.1,0.015-0.085,0.081
	c0.023,0.102,0.092,0.164,0.188,0.19c0.212,0.068,0.433,0.114,0.646,0.176c0.039,0.004,0.089,0.014,0.108,0.032
	c0.016,0.026-0.009,0.071-0.017,0.106c-0.038,0.141-0.067,0.273-0.108,0.42c-0.015,0.059-0.027,0.056-0.083,0.039
	c-0.155-0.039-0.313-0.068-0.465-0.112c-0.12-0.022-0.239-0.049-0.357-0.079c-0.031-0.005-0.067-0.003-0.096,0
	c-0.014,0.001-0.031,0.033-0.03,0.05c-0.001,0.064,0.033,0.117,0.082,0.153c0.064,0.05,0.143,0.069,0.221,0.086
	c0.077,0.011,0.147,0.024,0.227,0.037c0.126,0.028,0.256,0.048,0.385,0.078c0.072,0.013,0.069,0.019,0.053,0.091
	c-0.014,0.069-0.023,0.145-0.038,0.222c-0.016,0.087-0.037,0.177-0.057,0.265c-0.005,0.022-0.021,0.041-0.053,0.038
	c-0.157-0.029-0.314-0.059-0.474-0.082c-0.134-0.021-0.27-0.042-0.407-0.058c-0.075-0.007-0.104,0.019-0.11,0.101
	c-0.004,0.06-0.004,0.058-0.061,0.043c-0.151-0.021-0.303-0.042-0.454-0.061c-0.036,0-0.054-0.013-0.051-0.049
	c0.004-0.054,0.012-0.105,0.017-0.151c0.018-0.104,0.035-0.217,0.056-0.316c0.01-0.041,0.038-0.079,0.061-0.111
	c0.035-0.05,0.05-0.091,0.034-0.144c-0.049-0.179-0.023-0.35,0.061-0.517c0.038-0.074,0.083-0.141,0.152-0.191
	c0.022-0.014,0.029-0.04,0.017-0.061c-0.046-0.132-0.051-0.267-0.024-0.394c0.021-0.104,0.066-0.22,0.138-0.311
	c0.066-0.083,0.142-0.147,0.24-0.183c0.087-0.033,0.176-0.042,0.271-0.027c0.009,0,0.019,0.001,0.028-0.004
	c0.003-0.001,0.007-0.004,0.022-0.014c-0.029-0.017-0.051-0.037-0.077-0.045c-0.098-0.033-0.194-0.069-0.292-0.097
	c-0.07-0.02-0.08-0.031-0.057-0.096c0.037-0.099,0.036-0.097-0.062-0.136c-0.119-0.042-0.237-0.088-0.355-0.135
	C19.222,36.244,19.3,36.058,19.376,35.871z M19.242,38.772c-0.04,0.026-0.085,0.045-0.106,0.078
	c-0.029,0.05-0.045,0.107-0.059,0.163c-0.016,0.072-0.023,0.149-0.038,0.223c-0.016,0.06-0.011,0.068,0.042,0.086
	c0.074,0.009,0.146,0.021,0.222,0.024c0.023,0.001,0.046-0.004,0.049-0.041c0.003-0.029,0.011-0.06,0.016-0.089
	c0.001-0.023,0.017-0.033,0.038-0.03c0.075,0.01,0.147,0.02,0.22,0.032c0.238,0.037,0.479,0.078,0.719,0.114
	c0.033,0.008,0.051-0.003,0.057-0.036c0.01-0.065,0.019-0.123,0.034-0.191c0.023-0.115,0.01-0.133-0.107-0.156
	c-0.084-0.011-0.167-0.029-0.253-0.04c-0.086-0.011-0.169-0.034-0.258-0.041c-0.128-0.028-0.22-0.104-0.291-0.206
	c-0.046-0.067-0.042-0.145-0.029-0.218c0.013-0.062,0.048-0.096,0.105-0.109c0.093-0.024,0.174,0.007,0.255,0.032
	c0.089,0.016,0.177,0.043,0.266,0.063c0.121,0.029,0.245,0.053,0.365,0.082c0.047,0.013,0.065,0.008,0.078-0.043
	c0.023-0.083,0.042-0.162,0.063-0.246c0.007-0.029-0.001-0.059-0.035-0.065c-0.083-0.012-0.161-0.045-0.242-0.062
	c-0.09-0.016-0.172-0.048-0.261-0.064c-0.127-0.021-0.231-0.07-0.315-0.171c-0.065-0.089-0.099-0.2-0.043-0.312
	c0.021-0.04,0.049-0.071,0.097-0.072c0.059-0.003,0.116,0.005,0.172,0.016c0.196,0.058,0.398,0.116,0.595,0.178
	c0.096,0.027,0.188-0.017,0.224-0.113c0.035-0.095,0.059-0.184,0.093-0.284c0.009-0.034-0.008-0.054-0.04-0.063
	c-0.041-0.01-0.083-0.021-0.125-0.034c-0.112-0.046-0.112-0.046-0.156,0.063c-0.01,0.028-0.026,0.042-0.058,0.032
	c-0.147-0.05-0.294-0.102-0.438-0.149c-0.068-0.016-0.135-0.036-0.203-0.038c-0.063-0.002-0.13,0.003-0.186,0.016
	c-0.115,0.036-0.189,0.115-0.244,0.228c-0.063,0.139-0.106,0.284-0.061,0.439c0.013,0.059,0.041,0.109,0.059,0.164
	c0.005,0.025,0.03,0.039-0.009,0.063c-0.08,0.03-0.135,0.076-0.182,0.144c-0.104,0.149-0.12,0.306-0.089,0.474
	C19.195,38.66,19.222,38.718,19.242,38.772z M20.737,36.018c0.195,0.085,0.356,0.163,0.519,0.238
	c0.035,0.013,0.065,0.004,0.084-0.032c0.034-0.079,0.069-0.162,0.104-0.243c0.011-0.029,0.007-0.049-0.023-0.062
	c-0.177-0.079-0.352-0.167-0.525-0.25c-0.034-0.017-0.067-0.029-0.097-0.049c-0.13-0.103-0.189-0.24-0.137-0.406
	c0.022-0.072,0.046-0.149,0.13-0.175c0.076-0.023,0.145,0.005,0.209,0.041c0.031,0.015,0.056,0.039,0.089,0.051
	c0.112,0.056,0.223,0.114,0.334,0.171c0.042,0.024,0.088,0.046,0.133,0.065c0.08,0.032,0.154,0.021,0.205-0.051
	c0.069-0.09,0.126-0.198,0.184-0.293c0.007-0.014-0.005-0.046-0.018-0.055c-0.052-0.038-0.109-0.071-0.166-0.108
	c-0.063-0.037-0.077-0.031-0.114,0.032c-0.045,0.077-0.045,0.077-0.117,0.032c-0.007-0.003-0.016-0.009-0.02-0.01
	c-0.064-0.036-0.131-0.072-0.198-0.108c-0.108-0.051-0.212-0.105-0.321-0.156c-0.059-0.033-0.126-0.027-0.192-0.025
	c-0.155,0.014-0.26,0.107-0.334,0.227c-0.101,0.159-0.165,0.333-0.116,0.53c0.004,0.021,0.004,0.037-0.021,0.042
	c-0.108,0.014-0.158,0.095-0.203,0.177c-0.038,0.066-0.062,0.137-0.092,0.212c-0.021,0.05-0.014,0.062,0.035,0.08
	c0.064,0.031,0.129,0.059,0.194,0.08c0.044,0.017,0.058,0.011,0.073-0.034c0.006-0.02,0.017-0.033,0.024-0.058
	c0.01-0.053,0.038-0.046,0.075-0.027C20.535,35.936,20.652,35.982,20.737,36.018z M22.885,33.64
	c0.072-0.143,0.063-0.344-0.021-0.455c-0.082-0.107-0.254-0.183-0.394-0.138c-0.118,0.039-0.222,0.105-0.322,0.17
	c-0.066,0.041-0.136,0.083-0.201,0.126c-0.031,0.016-0.071,0.014-0.087-0.015c-0.014-0.02-0.019-0.054-0.012-0.077
	c0.021-0.069,0.065-0.133,0.126-0.18c0.037-0.025,0.068-0.022,0.1,0.007c0.041,0.035,0.069,0.032,0.102-0.011
	c0.027-0.036,0.051-0.07,0.076-0.103c0.027-0.035,0.054-0.068,0.079-0.104c0.017-0.021,0.02-0.044-0.013-0.062
	c-0.024-0.013-0.045-0.034-0.064-0.05c-0.092-0.082-0.194-0.096-0.306-0.04c-0.11,0.055-0.198,0.133-0.272,0.225
	c-0.07,0.089-0.13,0.187-0.163,0.299c-0.046,0.16-0.031,0.3,0.103,0.416c0.098,0.084,0.209,0.093,0.326,0.064
	c0.125-0.031,0.227-0.111,0.339-0.178c0.075-0.042,0.153-0.086,0.231-0.124c0.031-0.016,0.1-0.025,0.107,0.009
	c0.007,0.037-0.025,0.101-0.042,0.132c-0.039,0.056-0.091,0.114-0.145,0.154c-0.067,0.049-0.153,0.071-0.241,0.084
	c-0.045,0.007-0.056,0.024-0.042,0.066c0.014,0.064,0.034,0.12,0.05,0.178c0.017,0.071,0.035,0.083,0.107,0.069
	c0.113-0.023,0.209-0.069,0.302-0.138C22.729,33.887,22.819,33.775,22.885,33.64z M21.326,33.869
	c-0.114-0.053-0.173-0.07-0.259,0.027c-0.064,0.069-0.113,0.159-0.167,0.235c-0.017,0.024-0.032,0.054-0.043,0.084
	c-0.005,0.018,0.005,0.044,0.018,0.052c0.057,0.038,0.121,0.074,0.181,0.114c0.05,0.028,0.063,0.02,0.09-0.035
	c0.048-0.096,0.048-0.096,0.143-0.044c0.009,0.003,0.017,0.008,0.022,0.012c0.103,0.064,0.203,0.129,0.308,0.195
	c0.095,0.052,0.189,0.112,0.284,0.165c0.131,0.077,0.226,0.043,0.294-0.068c0.043-0.073,0.091-0.142,0.14-0.211
	c0.02-0.03,0.019-0.047-0.013-0.07c-0.058-0.038-0.115-0.077-0.173-0.117c-0.035-0.025-0.056-0.028-0.081,0.005
	c-0.012,0.02-0.024,0.035-0.032,0.055c-0.013,0.033-0.037,0.042-0.066,0.023c-0.053-0.038-0.104-0.068-0.157-0.104
	c-0.09-0.055-0.178-0.115-0.267-0.169C21.467,33.956,21.379,33.903,21.326,33.869z M20.437,36.365
	c-0.002,0.007-0.007,0.019-0.007,0.019c-0.122-0.049-0.241-0.099-0.361-0.148c-0.093-0.037-0.17-0.023-0.215,0.066
	c-0.06,0.114-0.101,0.241-0.149,0.368c-0.01,0.02,0.009,0.036,0.036,0.045c0.072,0.021,0.145,0.042,0.217,0.066
	c0.026,0.006,0.045-0.005,0.052-0.031c0.006-0.02,0.018-0.054,0.027-0.078c0.009-0.026,0.026-0.035,0.055-0.027
	c0.245,0.093,0.491,0.182,0.733,0.274c0.139,0.047,0.208,0.007,0.268-0.117c0.04-0.078,0.067-0.163,0.097-0.244
	c0.013-0.035,0.009-0.062-0.027-0.072c-0.046-0.027-0.096-0.049-0.15-0.065c-0.093-0.04-0.099-0.037-0.135,0.058
	c-0.002,0.004-0.003,0.01-0.008,0.02c-0.007,0.021-0.03,0.032-0.055,0.021C20.687,36.469,20.559,36.418,20.437,36.365z
	 M20.531,33.798c-0.02,0.04-0.016,0.055,0.034,0.082c0.068,0.04,0.132,0.078,0.197,0.118c0.043,0.026,0.062,0.024,0.09-0.015
	c0.049-0.077,0.095-0.154,0.145-0.23c0.017-0.029,0.014-0.056-0.017-0.075c-0.067-0.042-0.133-0.083-0.198-0.127
	c-0.049-0.034-0.074-0.033-0.106,0.015C20.628,33.638,20.583,33.715,20.531,33.798z M19.599,36.073l-0.001,0.002
	c-0.041-0.014-0.085-0.035-0.127-0.056c-0.026-0.006-0.048-0.001-0.058,0.027c-0.038,0.093-0.073,0.181-0.11,0.274
	c-0.01,0.025-0.005,0.049,0.023,0.059c0.084,0.033,0.167,0.063,0.252,0.094c0.038,0.012,0.063-0.001,0.078-0.04
	c0.007-0.021,0.012-0.052,0.019-0.074c0.02-0.061,0.042-0.116,0.067-0.177c0.011-0.031,0.004-0.055-0.031-0.067
	C19.671,36.108,19.634,36.091,19.599,36.073z M21.525,34.782c0.032,0.021,0.049,0.014,0.064-0.02
	c0.011-0.019,0.025-0.042,0.037-0.063c0.02-0.03,0.012-0.053-0.021-0.07c-0.094-0.056-0.185-0.113-0.277-0.173
	c-0.059-0.033-0.078-0.029-0.108,0.034c-0.011,0.022-0.026,0.047-0.033,0.074c-0.003,0.01,0.007,0.041,0.019,0.046
	C21.311,34.67,21.417,34.725,21.525,34.782z M20.436,36.9c0-0.001,0.001-0.002,0.001-0.002c-0.081-0.028-0.161-0.055-0.243-0.078
	c-0.05-0.013-0.063-0.007-0.074,0.038c-0.007,0.022-0.018,0.056-0.022,0.07c-0.01,0.024,0,0.048,0.028,0.055
	c0.117,0.03,0.231,0.074,0.345,0.107c0.03,0.009,0.049-0.001,0.056-0.024c0.012-0.042,0.057-0.079,0.021-0.125
	c-0.004-0.009-0.017-0.011-0.029-0.017C20.491,36.922,20.465,36.911,20.436,36.9z M20.652,36.119L20.652,36.119
	c-0.032-0.015-0.062-0.03-0.094-0.042c-0.137-0.056-0.11-0.059-0.167,0.071c-0.013,0.035-0.005,0.057,0.027,0.068
	c0.087,0.033,0.175,0.07,0.259,0.102c0.125,0.053,0.105,0.052,0.162-0.062c0.02-0.045,0.018-0.059-0.025-0.074
	C20.761,36.162,20.705,36.141,20.652,36.119z"/>
<path fill="#F4F4F4" d="M19.242,38.772c-0.021-0.054-0.047-0.111-0.061-0.172c-0.031-0.165-0.013-0.327,0.087-0.474
	c0.049-0.067,0.105-0.12,0.182-0.147c0.035-0.012,0.016-0.039,0.007-0.057c-0.019-0.055-0.043-0.109-0.059-0.166
	c-0.042-0.154-0.002-0.294,0.063-0.437c0.054-0.113,0.132-0.194,0.247-0.231c0.058-0.018,0.121-0.019,0.188-0.02
	c0.066,0.007,0.133,0.032,0.199,0.043c0.149,0.042,0.294,0.098,0.439,0.152c0.036,0.003,0.048-0.004,0.062-0.036
	c0.04-0.1,0.04-0.1,0.157-0.066c0.04,0.014,0.083,0.025,0.123,0.037c0.033,0.01,0.048,0.03,0.04,0.062
	c-0.033,0.101-0.056,0.186-0.093,0.286c-0.037,0.099-0.131,0.148-0.223,0.113c-0.198-0.059-0.398-0.118-0.594-0.179
	c-0.058-0.008-0.113-0.02-0.174-0.011c-0.046-0.002-0.074,0.034-0.096,0.073c-0.057,0.109-0.026,0.229,0.041,0.313
	c0.082,0.103,0.187,0.15,0.315,0.173c0.088,0.013,0.171,0.043,0.261,0.061c0.081,0.017,0.161,0.044,0.241,0.065
	c0.035,0.01,0.046,0.03,0.037,0.066c-0.018,0.079-0.04,0.16-0.063,0.245c-0.015,0.056-0.029,0.058-0.077,0.041
	c-0.122-0.028-0.246-0.049-0.364-0.083c-0.09-0.017-0.176-0.048-0.266-0.064c-0.085-0.013-0.167-0.045-0.252-0.036
	c-0.056,0.009-0.094,0.049-0.108,0.116c-0.011,0.07-0.016,0.152,0.03,0.217c0.068,0.109,0.161,0.188,0.292,0.205
	c0.084,0.011,0.17,0.031,0.253,0.049c0.085,0.013,0.167,0.032,0.252,0.042c0.121,0.019,0.135,0.031,0.109,0.153
	c-0.014,0.062-0.023,0.119-0.033,0.187c-0.004,0.033-0.026,0.047-0.059,0.042c-0.239-0.038-0.479-0.079-0.719-0.115
	c-0.075-0.008-0.146-0.02-0.219-0.03c-0.024-0.001-0.041,0.01-0.04,0.03c-0.002,0.026-0.014,0.063-0.017,0.09
	s-0.024,0.047-0.049,0.044c-0.074-0.005-0.148-0.019-0.22-0.029c-0.056-0.008-0.054-0.034-0.044-0.081
	c0.013-0.066,0.023-0.148,0.041-0.226c0.012-0.057,0.025-0.11,0.058-0.163C19.157,38.817,19.203,38.798,19.242,38.772z"/>
<path fill="#F4F4F4" d="M20.737,36.018c-0.084-0.036-0.202-0.082-0.319-0.133c-0.038-0.017-0.063-0.023-0.074,0.028
	c-0.005,0.02-0.018,0.036-0.024,0.056c-0.018,0.05-0.03,0.056-0.075,0.041c-0.064-0.03-0.129-0.057-0.195-0.079
	c-0.047-0.021-0.054-0.039-0.035-0.082c0.03-0.07,0.054-0.14,0.093-0.212c0.043-0.081,0.095-0.164,0.203-0.176
	c0.025-0.005,0.028-0.021,0.022-0.043c-0.048-0.197,0.016-0.37,0.115-0.529c0.078-0.122,0.18-0.214,0.335-0.228
	c0.065-0.004,0.133-0.007,0.192,0.026c0.108,0.053,0.212,0.104,0.321,0.157c0.064,0.033,0.131,0.066,0.199,0.105
	c0.005,0.003,0.012,0.006,0.019,0.011C21.586,35,21.586,35,21.63,34.927c0.035-0.057,0.05-0.063,0.114-0.03
	c0.057,0.035,0.113,0.068,0.166,0.108c0.012,0.009,0.025,0.042,0.017,0.054c-0.059,0.1-0.114,0.204-0.182,0.293
	c-0.05,0.07-0.125,0.079-0.205,0.05c-0.045-0.02-0.091-0.044-0.133-0.063c-0.113-0.055-0.222-0.115-0.335-0.169
	c-0.03-0.019-0.057-0.036-0.088-0.05c-0.064-0.04-0.132-0.067-0.209-0.043c-0.084,0.025-0.107,0.104-0.129,0.173
	c-0.052,0.168,0.008,0.302,0.136,0.408c0.029,0.023,0.063,0.035,0.096,0.048c0.173,0.081,0.35,0.166,0.526,0.25
	c0.029,0.015,0.035,0.031,0.022,0.06c-0.036,0.079-0.07,0.164-0.108,0.249c-0.015,0.033-0.044,0.044-0.081,0.03
	C21.094,36.181,20.934,36.104,20.737,36.018z"/>
<path fill="#F4F4F4" d="M22.885,33.64c-0.066,0.135-0.156,0.25-0.277,0.338c-0.094,0.067-0.194,0.111-0.304,0.138
	c-0.074,0.013-0.088-0.003-0.109-0.071c-0.014-0.059-0.032-0.119-0.05-0.178c-0.012-0.04,0.001-0.062,0.045-0.067
	c0.087-0.013,0.173-0.034,0.242-0.088c0.055-0.04,0.106-0.093,0.14-0.154c0.088-0.147-0.032-0.157-0.065-0.143
	c-0.077,0.04-0.156,0.081-0.229,0.127c-0.111,0.07-0.214,0.142-0.34,0.178c-0.119,0.032-0.23,0.022-0.325-0.067
	c-0.135-0.114-0.148-0.257-0.103-0.417c0.033-0.112,0.092-0.208,0.164-0.299c0.073-0.091,0.163-0.173,0.271-0.223
	c0.111-0.055,0.215-0.041,0.305,0.042c0.021,0.02,0.042,0.035,0.066,0.047c0.03,0.018,0.032,0.037,0.013,0.064
	c-0.026,0.034-0.052,0.068-0.078,0.102c-0.025,0.034-0.051,0.07-0.077,0.104c-0.033,0.043-0.063,0.048-0.103,0.008
	c-0.031-0.029-0.063-0.032-0.101-0.005c-0.061,0.046-0.105,0.108-0.125,0.18c-0.006,0.02-0.003,0.058,0.011,0.078
	c0.019,0.027,0.055,0.032,0.087,0.009c0.068-0.043,0.134-0.079,0.203-0.125c0.104-0.068,0.207-0.132,0.323-0.167
	c0.136-0.046,0.313,0.026,0.393,0.132C22.95,33.296,22.958,33.498,22.885,33.64z"/>
<path fill="#F4F4F4" d="M21.326,33.869c0.054,0.032,0.141,0.088,0.229,0.141c0.09,0.053,0.179,0.114,0.266,0.168
	c0.053,0.036,0.105,0.07,0.159,0.104c0.028,0.022,0.052,0.01,0.067-0.023c0.007-0.019,0.019-0.038,0.031-0.053
	c0.026-0.033,0.045-0.032,0.081-0.005c0.055,0.04,0.113,0.08,0.175,0.117c0.029,0.021,0.03,0.04,0.011,0.069
	c-0.05,0.069-0.096,0.138-0.14,0.212c-0.068,0.112-0.162,0.147-0.293,0.066c-0.095-0.056-0.191-0.11-0.286-0.164
	c-0.104-0.064-0.207-0.124-0.307-0.194c-0.008-0.004-0.015-0.009-0.023-0.013c-0.096-0.05-0.096-0.05-0.144,0.044
	c-0.026,0.056-0.039,0.058-0.091,0.032c-0.058-0.036-0.123-0.07-0.182-0.113c-0.011-0.008-0.019-0.036-0.015-0.052
	c0.008-0.029,0.024-0.057,0.042-0.083c0.054-0.081,0.101-0.167,0.168-0.237C21.155,33.796,21.211,33.813,21.326,33.869z"/>
<path fill="#F4F4F4" d="M20.437,36.365c0.125,0.053,0.25,0.103,0.376,0.156c0.027,0.011,0.044,0.004,0.055-0.022
	c0.003-0.006,0.005-0.01,0.008-0.015c0.036-0.099,0.041-0.099,0.136-0.06c0.05,0.019,0.098,0.042,0.151,0.063
	c0.034,0.015,0.039,0.037,0.024,0.078c-0.034,0.082-0.059,0.168-0.1,0.25c-0.06,0.123-0.128,0.158-0.266,0.111
	c-0.249-0.08-0.489-0.177-0.734-0.271c-0.029-0.013-0.045-0.001-0.055,0.022c-0.006,0.02-0.021,0.059-0.028,0.082
	c-0.005,0.019-0.024,0.038-0.05,0.028c-0.075-0.019-0.146-0.038-0.217-0.066c-0.027-0.009-0.044-0.024-0.037-0.049
	c0.049-0.128,0.089-0.254,0.15-0.367c0.047-0.093,0.125-0.108,0.217-0.07c0.12,0.048,0.24,0.097,0.359,0.148
	C20.431,36.379,20.434,36.373,20.437,36.365z"/>
<path fill="#F4F4F4" d="M20.531,33.798c0.052-0.084,0.096-0.162,0.144-0.235c0.033-0.05,0.059-0.048,0.105-0.014
	c0.067,0.041,0.131,0.087,0.2,0.125c0.029,0.022,0.033,0.043,0.016,0.072c-0.049,0.08-0.096,0.156-0.145,0.232
	c-0.028,0.041-0.046,0.042-0.09,0.014c-0.064-0.04-0.128-0.077-0.195-0.118C20.516,33.854,20.512,33.839,20.531,33.798z"/>
<path fill="#F4F4F4" d="M19.599,36.073c0.037,0.019,0.074,0.036,0.114,0.048c0.034,0.012,0.04,0.034,0.028,0.065
	c-0.022,0.058-0.044,0.118-0.067,0.175c-0.007,0.024-0.012,0.056-0.017,0.074c-0.014,0.041-0.041,0.055-0.079,0.043
	c-0.083-0.031-0.167-0.064-0.25-0.094c-0.031-0.008-0.035-0.032-0.024-0.057c0.036-0.093,0.072-0.182,0.108-0.274
	c0.012-0.029,0.032-0.033,0.056-0.025c0.043,0.02,0.087,0.036,0.129,0.056C19.598,36.077,19.599,36.073,19.599,36.073z"/>
<path fill="#FFFFFF" stroke="#010101" stroke-width="0.15" stroke-miterlimit="10" d="M43,51.414v13"/>
</svg>
