<svg width="200" height="200" id="Layer_1" xmlns="http://www.w3.org/2000/svg" viewBox="0 0 501 581" xml:space="preserve">
<path fill="white" stroke="black" stroke-width="2" d="M0,0"/>
<path fill="white" stroke="black" stroke-width="2" d="M0,0"/>
<g>
	<path d="M96.8,267.3c0.1,0,0.1,0.1,0.1,0.1l-0.1,0.1l-0.1-0.1C96.7,267.4,96.7,267.3,96.8,267.3 M96.8,264.3
		c-1.7,0-3.1,1.4-3.1,3.1s1.4,3.1,3.1,3.1s3.1-1.4,3.1-3.1S98.5,264.3,96.8,264.3L96.8,264.3z"/>
</g>
<path fill="white" stroke="black" stroke-width="2" d="M103.9,277.8c-3.8,0.6-7.9,1.9-11.6,7s-6.3,12-13,13.3c0,0,8.1,0.6,12.3-7s10.4-7.1,12.3-7.1s4-0.1,4-3.1
	S103.9,277.8,103.9,277.8z"/>
<path fill="white" stroke="black" stroke-width="2" d="M146.2,243.8c0,0,0.5-47.3-34.3-47.5l0,0h-0.1h-0.1l0,0c-34.8,0.2-34.3,47.5-34.3,47.5l-8.7,6.8h43h-0.9h44.1
	L146.2,243.8z"/>
<path fill="white" stroke="black" stroke-width="2" d="M111.7,196.3L111.7,196.3c0.1,0,0.1,0,0.2,0l0,0c1.8,0,3.5,0.1,5.1,0.4l0,0v-2.2c0-2.2-2-2-2-2h-3.1h-0.2h-3.1
	c0,0-2-0.1-2,2v2.2l0,0C108.2,196.5,109.9,196.3,111.7,196.3L111.7,196.3z"/>
<path fill="white" stroke="black" stroke-width="2" d="M106.5,196.7v-2.2c0-2.2,2-2,2-2h1.8v-39.2h-66v81H78c1.8-12.9,7.9-34.8,29-37.7
	C106.9,196.7,106.7,196.7,106.5,196.7L106.5,196.7z"/>
<g>
	<path d="M124,267.3c0.1,0,0.1,0.1,0.1,0.1l-0.1,0.1l-0.1-0.1C123.9,267.4,123.9,267.3,124,267.3 M124,264.3c-1.7,0-3.1,1.4-3.1,3.1
		s1.4,3.1,3.1,3.1s3.1-1.4,3.1-3.1S125.7,264.3,124,264.3L124,264.3z"/>
</g>
<path fill="white" stroke="black" stroke-width="2" d="M117,277.8c3.8,0.6,7.9,1.9,11.6,7c3.8,5.1,6.3,12,13,13.3c0,0-8.1,0.6-12.3-7S118.9,284,117,284s-4-0.1-4-3.1
	S117,277.8,117,277.8z"/>
<g>
	<path d="M125.2,253.4c-3.3,0-9.4,2.2-7.2,4.3c0.2,0.1,0.3,0.2,0.5,0.2c1,0,2.6-1.3,6.7-1.3c1,0,2.1,0.1,3.5,0.3
		c0.4,0.1,0.8,0.1,1.1,0.1c3.1,0,1-2.9-3.9-3.5C125.7,253.4,125.4,253.4,125.2,253.4L125.2,253.4z"/>
</g>
<g>
	<path d="M97.1,253.3L97.1,253.3c-5.3,0.1-7.7,3.1-3.7,3.1c0.1,0,0.3,0,0.5,0c0.5,0,0.9,0,1.4,0c5.8,0,7.6,2.1,8.7,2.1
		c0.2,0,0.3,0,0.5-0.2C106.9,256.4,100.2,253.3,97.1,253.3L97.1,253.3z"/>
</g>
<path fill="white" stroke="black" stroke-width="2" d="M96.4,285.6h28c0,0-2,9.1-12.7,9.1C95.5,294.8,96.4,285.6,96.4,285.6z"/>
<path fill="white" stroke="black" stroke-width="2" d="M98.2,285.6c0,0-0.7,3.9,2.2,4.6c2.9,0.7,13.8,1.4,19,0c5.3-1.4,3.4-4.6,3.4-4.6H98.2z"/>
<path fill="white" stroke="black" stroke-width="2" d="M80.7,312.5c-4.3,2-21,14-26.3,18.8s-6.7,10.8,0,12.5s10.9,0,10.9,0v-5.5c0,0-10.7,0.4-8.6-1.7
	c3.2-3,22.2-13.8,24-15.8V312.5z"/>
<path fill="white" stroke="black" stroke-width="2" d="M65.2,338.3c0,0,0-2.6,4.4-3s5,0,5,0s0.5-2.9,1.6-5s0.5-5.3,0.4-6.7c0-1.4,3-5.9,5.2-1.8s-1.4,7,2.3,8.1
	s15.4-2.1,15.6,0.9s-1.6,3-1.6,3s4.9-1.5,5.3,0.9s-0.8,3.2-3.8,3.6c0,0,4.6,0.2,4.6,2s-1.1,3.3-5.6,3.3c0,0,2.5,0.4,2.5,2.4
	s-2.6,2.1-5.9,2.1s-13.4,1.1-19.1-1.8s-8.8-1-8.8-1s-2.1,0.5-2.1-1.5S65.2,338.3,65.2,338.3z"/>
<path fill="white" stroke="black" stroke-width="2" d="M142.8,250.7h-31h-0.2h-31v69.8c0.4,0.3,0.8,0.7,1.2,1.4c2.3,4.1-1.4,7,2.3,8.1s15.4-2.1,15.6,0.9
	c0.2,1.9-0.5,2.6-1.1,2.9c1.3-0.3,4.4-0.9,4.7,1c0.4,2.4-0.8,3.2-3.8,3.6c0,0,4.6,0.2,4.6,2s-1.1,3.3-5.6,3.3c0,0,2.5,0.4,2.5,2.4
	s-2.6,2.1-5.9,2.1c-2.5,0-9.1,0.7-14.6-0.3v1.2h62.2v-98.4L142.8,250.7L142.8,250.7z"/>
<path fill="white" stroke="black" stroke-width="2" d="M142.8,320.2c0,0,4.4-0.7,14,2.1s32.9,5.5,45.4-6.5c0,0-0.8-6.1,0-7.8c0,0-12.3,10.4-25.3,10.4
	s-21.7-5.1-34.2-5.1L142.8,320.2L142.8,320.2z"/>
<path fill="white" stroke="black" stroke-width="2" d="M202.3,315.8c0,0,3.6,2,7.5,1.1s10.8,2.1,13.4,3.3c2.6,1.2,6.1,3.7,8.5-1.4s-1.7-7.4-1.7-7.4s2.3-0.6,0.4-4.1
	c0,0,1.5-3.5-2-5.3s-9.3-1.3-9.3-1.3s0.9-3.3,2.9-4.3s1.8-3.8,0.3-4.3s-2.8,4.9-4.1,6.9s-4,8.3-8.6,7.4s-6.2,0.7-7.3,1.5
	S202.3,315.8,202.3,315.8z"/>
<path fill="white" stroke="black" stroke-width="2" d="M217.9,310.1l-1.3,5.1l-4.6,16.2c0,0,0.6,3.8,5.6,2.9c0,0,3.8-11.9,4.8-15.6"/>
<path fill="white" stroke="black" stroke-width="2" d="M0,0"/>
<path fill="white" stroke="black" stroke-width="2" d="M226.3,301.3c1.7-5.6,3.1-10.3,3.1-10.3s-2.1-2.9-6.3-2l-0.9,3.3"/>
<path fill="white" stroke="black" stroke-width="2" d="M0,0"/>
<path fill="white" stroke="black" stroke-width="2" d="M219.1,300.8c-1.4,0.7-2.6,2.8-0.5,3.8c2.1,1.1,7.3-0.8,9.9,2.1"/>
<path fill="white" stroke="black" stroke-width="2" d="M221.6,315.4c0,0-1.6,3.3,2.3,3.6c1.8,0.1,2.6,0.4,3.3,0.8"/>
<path fill="white" stroke="black" stroke-width="2" d="M228.5,316c-1.8-1-4.8-2.4-6.9-0.6c0,0-4.6,2-4.5-1.9c0-0.7,0.2-2.3,2.7-3c3.8-1.2,8.4,0,8.4,0s-0.9-0.9-4-1
	c-3-0.1-7.9,1.6-8.1-1.4s3.5-3.1,4.7-3"/>
<path fill="white" stroke="black" stroke-width="2" d="M110.6,238"/>
<g>
	<path d="M110.6,211.6L110.6,211.6c2.6,0,7.8,0.2,7.8,3.8c0,3.8-2.4,8.8-2.4,8.8l5.6,2.4l-5,2.4l3.9,3.2h-5.8l1.8,4.5l-4.3-3.4
		l-1.9,4.7l0,0l0,0l0,0l0,0l-1.9-4.7l-4.3,3.4l1.8-4.5h-5.8l3.9-3.2l-5-2.4l5.6-2.4c0,0-2.4-4.9-2.4-8.8c0-3.5,5.2-3.7,7.8-3.7l0,0
		c0.1,0,0.2,0,0.3,0S110.5,211.6,110.6,211.6 M111.3,220.2c0,0,1-2.4,2-4.1s-0.4-2.8-2-2.8V220.2 M109.4,220.2v-6.8
		c-1.6,0-3,1.1-2,2.8S109.4,220.2,109.4,220.2 M113.9,222.2c0.3,0,0.8-0.4,1.8-2c2.1-3.4,1-4.9,1-4.9c-2.6,2.1-3,6.4-3,6.4
		S113.6,222.2,113.9,222.2 M106.7,222.2c0.3,0,0.3-0.6,0.3-0.6s-0.4-4.3-3-6.4c0,0-1.1,1.5,1,4.9
		C105.9,221.8,106.4,222.2,106.7,222.2 M110.3,232.2c2.7,0,4.9-2.2,4.9-4.9s-2.2-4.9-4.9-4.9c-2.7,0-4.9,2.2-4.9,4.9
		S107.6,232.2,110.3,232.2 M110.6,208.6L110.6,208.6h-0.2h-0.1h-0.1c-8.9,0-10.8,3.7-10.8,6.8c0,2.5,0.8,5.2,1.5,7.2l-2.9,1.3
		c-1.1,0.5-1.8,1.5-1.8,2.7s0.6,2.3,1.7,2.8l0.8,0.4l-0.3,0.2c-1,0.8-1.4,2.1-0.9,3.3c0.4,1.2,1.6,2,2.8,2h1.4l-0.2,0.4
		c-0.5,1.3-0.1,2.7,1,3.5c0.5,0.4,1.2,0.6,1.8,0.6c0.7,0,1.3-0.2,1.9-0.7l1.2-0.9l0.4,0.9c0.1,0.2,0.1,0.3,0.2,0.5
		c0.5,0.9,1.5,1.5,2.6,1.5c0.2,0,0.4,0,0.6-0.1c1.1-0.2,2-1,2.3-2.1l0.3-0.7l1.2,0.9c0.5,0.4,1.2,0.7,1.9,0.7c0.6,0,1.2-0.2,1.8-0.6
		c1.1-0.8,1.5-2.2,1-3.5l-0.2-0.4h1.4c1.3,0,2.4-0.8,2.8-2s0-2.5-0.9-3.3l-0.3-0.2l0.8-0.4c1.1-0.5,1.7-1.6,1.7-2.8
		s-0.7-2.2-1.8-2.7l-2.9-1.3c0.7-2,1.5-4.7,1.5-7.2C121.4,212.3,119.5,208.7,110.6,208.6L110.6,208.6L110.6,208.6z M110.3,229.2
		c-1.1,0-1.9-0.9-1.9-1.9c0-1.1,0.9-1.9,1.9-1.9s1.9,0.9,1.9,1.9C112.2,228.3,111.4,229.2,110.3,229.2L110.3,229.2z"/>
</g>
<path fill="white" stroke="black" stroke-width="2" d="M98.1,333.9c-2.6,0.5-6.9,2-12.3,1"/>
<path fill="white" stroke="black" stroke-width="2" d="M99.6,338.3c-3.1,0.5-9.4,1.7-13.8,0.4"/>
<path fill="white" stroke="black" stroke-width="2" d="M98.6,343.6c-3.5,0-8,0.8-11.4,0"/>
<path fill="white" stroke="black" stroke-width="2" d="M217.6,314"/>
<path fill="white" stroke="black" stroke-width="2" d="M296,178.7c-16.3,0-35,7.8-35,36.6c0,31.5,26.4,35.1,39.3,33.8c11.6-1.2,31-5.3,31-35.1S308,178.7,296,178.7z"
	/>
<path fill="white" stroke="black" stroke-width="2" d="M296,31.8c-12.7,0.2-35,5.8-35,36.6c0,35.3,39.3,33.8,39.3,33.8s31-2.7,31-35.1C331.3,37.4,303.2,31.7,296,31.8
	z"/>
<path fill="white" stroke="black" stroke-width="2" d="M130.2,202.9c5.3,4.8,15.9,17.5,15.9,41C146.2,243.8,147.8,216.8,130.2,202.9z"/>
<path fill="white" stroke="black" stroke-width="2" d="M121.5,136v61.8c3.3,1.3,6.2,3.1,8.7,5.1c-1.8-1.6-2.9-2.4-2.9-2.4v-58.8h353.5V298h-338v5h343.7V136H121.5z"/>
<path fill="white" stroke="black" stroke-width="2" d="M480.8,141.7H127.3v58.8c0,0,1.2,0.7,2.9,2.4c17.6,14,16,41,15.9,41l8.7,6.8h-12V298h338V141.7z"/>
<path fill="white" stroke="black" stroke-width="2" d="M0,0"/>
<path fill="white" stroke="black" stroke-width="2" d="M0,0"/>
<path fill="white" stroke="black" stroke-width="2" d="M195.7,475.7V350.3c0,0-147.6-1.3-195.7-1.3v14h183.9v112.7H195.7z"/>
<path fill="white" stroke="black" stroke-width="2" d="M476.4,350.3V349c-20.3,0-58.4,0.2-95.7,0.5c-37.2-0.3-75.3-0.5-95.7-0.5v1.3c-2.8,0-4.4,0-4.4,0v125.4h11.8
	V363H469v112.7h11.8V350.3C480.8,350.3,479.2,350.3,476.4,350.3z"/>
<path fill="white" stroke="black" stroke-width="2" d="M86.9,403.8v43.7h9.9v-43.7H86.9z"/>
<path fill="white" stroke="black" stroke-width="2" d="M126.4,403.8v43.7h9.9v-43.7H126.4z"/>
<path fill="white" stroke="black" stroke-width="2" d="M102.8,267.4c0,0-0.3-6.3-6.3-6.3s-6.2,4.8-6.2,7.4s2.6,5.2,7.3,5.2C102.2,273.6,103,268.5,102.8,267.4z"/>
<path fill="white" stroke="black" stroke-width="2" d="M118.1,267.4c0,0,0.3-6.3,6.3-6.3c6,0,6.2,4.8,6.2,7.4s-2.6,5.2-7.3,5.2S117.9,268.5,118.1,267.4z"/>
<path fill="white" stroke="black" stroke-width="2" d="M0,475.7"/>
<path fill="white" stroke="black" stroke-width="2" d="M0,0"/>
<path fill="white" stroke="black" stroke-width="2" d="M0,0"/>
<path fill="white" stroke="black" stroke-width="2" d="M279.4,207.7c-4.5,0-6.6,1.5-6.6,4s4.6,2.5,6.6,2.5s2.8,4.8-6.6,4.8"/>
<path fill="white" stroke="black" stroke-width="2" d="M0,0"/>
<path fill="white" stroke="black" stroke-width="2" d="M0,0"/>
<path fill="white" stroke="black" stroke-width="2" d="M301.9,205.3c-3,0-3.8,3.4-3.8,6.1s1.5,6.1,3.8,6.1s4.5-2,4.5-5.6S305.7,205.3,301.9,205.3z"/>
<path fill="white" stroke="black" stroke-width="2" d="M312,219.5l2.5-11.3c0,0,6.5,0.5,7.3,2.4s-1.3,4.8-7.4,3.3"/>
<path fill="white" stroke="black" stroke-width="2" d="M86.5,447.5h-0.3h-1.7c0,0-0.1,12.1-1.5,15.8c-1.4,3.7-3.1,6-3.1,12.4h21.4c2-4.8-2.3-12-2.3-16.8
	s0-11.4,0-11.4h-1.7h-1.1H86.5z"/>
<path fill="white" stroke="black" stroke-width="2" d="M140.5,463.3c-1.4-3.7-1.5-15.8-1.5-15.8h-2h-0.2h-9.5h-1.6h-1.2c0,0,0,6.6,0,11.4s-4.3,12-2.3,16.8h21.4
	C143.6,469.3,141.9,467,140.5,463.3z"/>
<path fill="white" stroke="black" stroke-width="2" d="M138.5,403.8c2.4,0,4.4-1.9,4.4-4.4V363H80.7v36.4c0,2.4,1.9,4.4,4.4,4.4h1.1h11.1h14.4h0.2h13.8h11.1H138.5z"
	/>
<path fill="white" stroke="black" stroke-width="2" d="M0,0"/>
<path fill="white" stroke="black" stroke-width="2" d="M0,0"/>
<path fill="white" stroke="black" stroke-width="2" d="M224.2,289.6l35.2-110.3l-31.1,110.1C228.3,289.4,225.2,289.2,224.2,289.6z"/>
<path fill="white" stroke="black" stroke-width="2" d="M285.3,206.3h9.2c0,0-5-0.4-5,0c-0.2,2.7,0.4,11.2,0.4,11.2"/>
<path fill="white" stroke="black" stroke-width="2" d="M0,0"/>
<path fill="white" stroke="black" stroke-width="2" d="M0,0"/>
</svg>
