<?xml version="1.0" standalone="no"?>
<!DOCTYPE svg PUBLIC "-//W3C//DTD SVG 20010904//EN"
 "http://www.w3.org/TR/2001/REC-SVG-20010904/DTD/svg10.dtd">
<svg version="1.0" xmlns="http://www.w3.org/2000/svg"
 width="860.000000pt" height="817.000000pt" viewBox="0 0 860.000000 817.000000"
 preserveAspectRatio="xMidYMid meet">

<g transform="translate(0.000000,817.000000) scale(0.100000,-0.100000)"
fill="#000000" stroke="none">
<path d="M775 7710 c-10 -11 -16 -22 -14 -24 2 -2 12 7 22 20 22 29 17 32 -8
4z"/>
<path d="M950 7676 c0 -2 8 -10 18 -17 15 -13 16 -12 3 4 -13 16 -21 21 -21
13z"/>
<path d="M836 7641 c-3 -4 5 -6 17 -4 15 3 40 -8 72 -29 41 -29 51 -42 61 -82
7 -27 17 -53 23 -59 13 -13 14 2 1 23 -5 9 -5 19 2 27 9 11 15 10 33 -4 11
-10 3 -1 -19 20 -101 95 -173 136 -190 108z"/>
<path d="M1045 7590 c34 -36 71 -78 83 -95 13 -16 19 -21 13 -9 -15 31 -82
108 -121 140 -21 17 -11 2 25 -36z"/>
<path d="M735 7595 c-4 -25 -5 -48 -2 -51 2 -3 8 16 12 41 3 26 4 49 2 52 -3
3 -9 -16 -12 -42z"/>
<path d="M1920 7619 c-7 -11 -10 -23 -7 -25 2 -2 9 7 15 21 14 30 7 33 -8 4z"/>
<path d="M1850 7610 c-6 -11 -8 -20 -6 -20 3 0 10 9 16 20 6 11 8 20 6 20 -3
0 -10 -9 -16 -20z"/>
<path d="M1794 7558 l-19 -23 23 19 c21 18 27 26 19 26 -2 0 -12 -10 -23 -22z"/>
<path d="M796 7529 c-8 -43 -7 -136 4 -184 6 -30 8 -18 5 50 -2 50 0 107 4
128 5 20 5 37 1 37 -4 0 -10 -14 -14 -31z"/>
<path d="M2091 7510 c-3 -32 -4 -33 -10 -10 -5 16 -9 -12 -13 -80 -3 -58 -9
-114 -12 -125 -4 -11 0 -6 8 10 8 17 15 43 16 58 0 16 5 37 10 48 6 11 9 45 7
77 -2 38 -4 46 -6 22z"/>
<path d="M732 7500 c-1 -19 -13 -75 -27 -125 -33 -119 -31 -130 6 -25 21 61
28 99 26 135 -2 35 -4 39 -5 15z"/>
<path d="M1970 7499 c0 -5 5 -7 10 -4 6 3 10 8 10 11 0 2 -4 4 -10 4 -5 0 -10
-5 -10 -11z"/>
<path d="M861 7484 c0 -11 3 -14 6 -6 3 7 2 16 -1 19 -3 4 -6 -2 -5 -13z"/>
<path d="M968 7443 c4 -35 5 -36 14 -14 6 17 5 29 -5 38 -11 11 -12 7 -9 -24z"/>
<path d="M934 7435 c-6 -13 -8 -29 -4 -35 5 -8 10 -1 15 19 9 40 3 47 -11 16z"/>
<path d="M1835 7450 c-3 -5 -2 -10 4 -10 5 0 13 5 16 10 3 6 2 10 -4 10 -5 0
-13 -4 -16 -10z"/>
<path d="M1476 7431 c-4 -5 -2 -12 3 -15 5 -4 12 -2 15 3 4 5 2 12 -3 15 -5 4
-12 2 -15 -3z"/>
<path d="M1400 7420 c0 -5 5 -10 10 -10 6 0 10 5 10 10 0 6 -4 10 -10 10 -5 0
-10 -4 -10 -10z"/>
<path d="M2010 7420 c0 -5 5 -10 11 -10 5 0 7 5 4 10 -3 6 -8 10 -11 10 -2 0
-4 -4 -4 -10z"/>
<path d="M983 7370 c4 -14 7 -44 7 -67 0 -24 5 -43 10 -43 6 0 10 12 10 26 0
24 2 25 17 13 10 -9 6 4 -11 36 -34 60 -41 68 -33 35z"/>
<path d="M2012 7264 c10 -10 20 -15 24 -12 3 4 -5 12 -18 18 -22 12 -22 12 -6
-6z"/>
<path d="M2065 7225 c11 -9 20 -23 20 -32 0 -9 6 -18 14 -21 8 -3 11 0 7 7 -4
6 -2 11 4 11 19 0 1 19 -33 36 -29 14 -30 14 -12 -1z"/>
<path d="M1031 7174 c0 -11 3 -14 6 -6 3 7 2 16 -1 19 -3 4 -6 -2 -5 -13z"/>
<path d="M631 7120 c-12 -34 -20 -66 -18 -73 2 -7 14 19 25 58 12 38 20 71 18
72 -2 2 -13 -24 -25 -57z"/>
<path d="M845 7150 c3 -5 8 -10 11 -10 2 0 4 5 4 10 0 6 -5 10 -11 10 -5 0 -7
-4 -4 -10z"/>
<path d="M881 7045 c0 -31 2 -36 9 -23 6 10 7 25 1 40 -9 20 -10 18 -10 -17z"/>
<path d="M931 7064 c0 -11 3 -14 6 -6 3 7 2 16 -1 19 -3 4 -6 -2 -5 -13z"/>
<path d="M600 6929 c0 -14 7 -34 15 -45 19 -25 19 -6 0 37 -13 32 -14 32 -15
8z"/>
<path d="M2292 6855 c0 -16 3 -39 8 -50 8 -18 9 -18 8 5 0 14 -4 36 -8 50 -8
24 -8 24 -8 -5z"/>
<path d="M621 6816 l-23 -25 31 1 c28 1 47 18 20 18 -6 0 -9 7 -5 15 8 21 3
19 -23 -9z"/>
<path d="M520 6760 c-7 -5 -3 -10 12 -13 22 -6 21 -8 -17 -33 -22 -14 -49 -38
-60 -52 -13 -19 -4 -14 29 16 27 23 55 42 62 42 7 0 18 8 23 19 9 16 7 20 -14
23 -13 3 -29 2 -35 -2z"/>
<path d="M680 6740 c0 -5 7 -7 15 -4 8 4 15 8 15 10 0 2 -7 4 -15 4 -8 0 -15
-4 -15 -10z"/>
<path d="M2115 6743 c-17 -3 -20 -12 -20 -52 1 -27 8 -57 15 -68 15 -18 16
-18 45 11 25 24 26 27 7 17 -29 -15 -52 0 -52 35 0 31 27 56 59 52 22 -3 26
-8 26 -35 0 -36 10 -32 20 8 5 22 2 27 -17 33 -24 6 -50 6 -83 -1z"/>
<path d="M2275 6740 c-3 -6 1 -7 9 -4 18 7 21 14 7 14 -6 0 -13 -4 -16 -10z"/>
<path d="M1557 6725 c-49 -17 -51 -19 -38 -43 19 -35 67 -62 138 -76 37 -8 78
-17 89 -21 26 -8 40 20 20 40 -7 8 -22 35 -32 59 -17 40 -23 46 -49 45 -27 0
-28 -1 -8 -9 30 -12 38 -46 19 -75 -26 -40 -109 -27 -141 22 -20 30 -15 37 50
56 41 13 45 16 20 16 -16 0 -47 -6 -68 -14z"/>
<path d="M2147 6724 c-14 -14 -7 -35 11 -32 9 2 17 10 17 17 0 16 -18 25 -28
15z"/>
<path d="M694 6695 c-24 -18 -7 -19 26 0 16 9 19 14 9 15 -8 0 -24 -7 -35 -15z"/>
<path d="M1630 6690 c0 -23 35 -28 43 -6 7 18 -1 26 -25 26 -11 0 -18 -7 -18
-20z"/>
<path d="M7813 6648 c-15 -20 -25 -38 -20 -38 3 0 12 11 21 25 17 26 16 35 -1
13z"/>
<path d="M398 6568 l-22 -22 32 -8 c18 -5 32 -13 32 -19 0 -6 5 -7 12 -3 8 5
6 11 -7 20 -11 8 -16 21 -12 34 7 26 -7 26 -35 -2z"/>
<path d="M563 6575 c-41 -18 -42 -35 -3 -35 37 0 112 -29 104 -41 -3 -5 7 -9
21 -9 40 0 21 17 -46 41 -33 12 -57 25 -52 28 7 5 16 32 11 31 -2 -1 -18 -7
-35 -15z"/>
<path d="M2170 6555 c20 -29 61 -68 65 -63 3 2 -14 22 -37 44 -23 21 -36 30
-28 19z"/>
<path d="M2345 6550 c-3 -5 -1 -10 4 -10 6 0 11 5 11 10 0 6 -2 10 -4 10 -3 0
-8 -4 -11 -10z"/>
<path d="M473 6478 c-15 -20 -25 -38 -20 -38 3 0 12 11 21 25 17 26 16 35 -1
13z"/>
<path d="M560 6482 c0 -30 201 -260 241 -274 11 -5 10 -9 -6 -22 -20 -17 -19
-17 4 -6 14 7 42 9 70 6 l46 -6 -63 24 c-65 25 -77 32 -77 46 0 4 -25 27 -55
51 -30 23 -48 45 -42 47 7 2 -7 21 -33 44 -50 44 -54 60 -8 32 35 -22 21 -7
-34 35 -24 18 -43 28 -43 23z"/>
<path d="M2250 6473 c1 -9 50 -47 54 -41 2 1 -10 13 -25 26 -16 13 -29 20 -29
15z"/>
<path d="M2310 6470 c0 -5 5 -10 10 -10 6 0 10 5 10 10 0 6 -4 10 -10 10 -5 0
-10 -4 -10 -10z"/>
<path d="M2340 6453 c0 -22 2 -25 10 -13 13 20 13 40 0 40 -5 0 -10 -12 -10
-27z"/>
<path d="M8076 6437 c3 -10 9 -15 12 -12 3 3 0 11 -7 18 -10 9 -11 8 -5 -6z"/>
<path d="M480 6426 c-19 -7 -37 -21 -38 -30 -3 -15 -1 -16 18 -6 13 7 37 9 57
5 24 -4 33 -3 28 4 -3 6 -15 11 -27 11 -17 0 -18 2 -8 15 14 17 16 17 -30 1z"/>
<path d="M970 6426 c0 -2 7 -7 16 -10 8 -3 12 -2 9 4 -6 10 -25 14 -25 6z"/>
<path d="M2345 6395 c17 -13 34 -24 38 -25 5 0 -5 11 -21 25 -17 14 -34 25
-38 25 -5 0 5 -11 21 -25z"/>
<path d="M7687 6345 c-15 -30 -25 -55 -22 -55 7 0 57 101 53 106 -2 2 -16 -21
-31 -51z"/>
<path d="M510 6364 c63 -80 108 -124 141 -139 30 -14 36 -21 28 -31 -8 -9 -5
-11 10 -7 30 8 26 15 -22 43 -23 14 -65 49 -92 79 -43 46 -46 53 -25 47 32 -9
6 8 -30 19 -23 7 -24 7 -10 -11z"/>
<path d="M8140 6299 c0 -5 5 -7 10 -4 6 3 10 8 10 11 0 2 -4 4 -10 4 -5 0 -10
-5 -10 -11z"/>
<path d="M366 6292 c-9 -16 -36 -183 -35 -221 1 -22 7 -3 14 49 8 46 19 104
25 128 10 42 9 64 -4 44z"/>
<path d="M1145 6286 c70 -22 100 -43 135 -94 19 -28 38 -48 42 -46 5 3 -13 29
-38 59 -46 52 -119 96 -161 94 -10 0 0 -6 22 -13z"/>
<path d="M8212 6235 c0 -16 2 -22 5 -12 2 9 2 23 0 30 -3 6 -5 -1 -5 -18z"/>
<path d="M467 6173 c-43 -72 -62 -111 -71 -143 -4 -14 8 4 26 40 19 36 46 86
62 113 15 26 26 47 23 47 -3 0 -21 -26 -40 -57z"/>
<path d="M2511 6214 c0 -11 3 -14 6 -6 3 7 2 16 -1 19 -3 4 -6 -2 -5 -13z"/>
<path d="M2130 6164 c0 -6 7 -19 15 -30 8 -10 14 -14 14 -9 0 6 -6 19 -14 29
-8 11 -15 15 -15 10z"/>
<path d="M2470 6160 c-12 -8 -12 -10 -1 -10 8 0 4 -7 -9 -18 -20 -16 -21 -20
-7 -25 11 -4 21 1 27 14 16 28 9 51 -10 39z"/>
<path d="M747 6143 c-3 -5 14 -8 36 -9 27 0 71 -15 119 -38 l78 -38 -23 -28
c-12 -15 -35 -33 -52 -39 l-30 -11 30 6 c24 4 104 72 93 78 -119 64 -238 101
-251 79z"/>
<path d="M625 6130 c-4 -6 10 -10 35 -10 23 0 51 -5 63 -11 20 -10 20 -10 7 4
-18 18 -96 31 -105 17z"/>
<path d="M1613 6124 c-13 -34 92 -108 196 -139 24 -7 23 -6 -8 34 -40 50 -84
85 -134 106 -45 19 -46 19 -54 -1z"/>
<path d="M7549 6123 c-13 -16 -12 -17 4 -4 16 13 21 21 13 21 -2 0 -10 -8 -17
-17z"/>
<path d="M2236 6121 c-3 -4 5 -6 18 -4 13 3 30 -2 39 -12 14 -14 17 -14 17 -2
0 23 -62 39 -74 18z"/>
<path d="M765 6086 c11 -9 28 -23 38 -32 10 -8 25 -14 33 -12 8 2 -9 16 -38
31 -29 16 -44 21 -33 13z"/>
<path d="M1559 6073 c6 -12 26 -33 44 -46 30 -23 68 -46 57 -35 -65 62 -111
98 -101 81z"/>
<path d="M2240 6065 c13 -14 28 -25 33 -25 6 0 -2 11 -17 25 -15 14 -30 25
-33 25 -4 0 4 -11 17 -25z"/>
<path d="M2372 6040 c-13 -16 -30 -30 -40 -31 -10 0 -12 -3 -4 -6 6 -2 10 -9
6 -14 -10 -16 4 -10 29 14 13 12 26 32 29 45 8 29 6 28 -20 -8z"/>
<path d="M7400 5973 c-52 -47 -131 -113 -175 -146 -44 -32 -82 -62 -85 -65 -9
-11 65 37 120 77 52 38 251 220 240 220 -3 0 -48 -39 -100 -86z"/>
<path d="M790 6021 c0 -10 71 -43 78 -36 4 3 -4 8 -16 12 -12 3 -22 9 -22 13
0 4 -9 10 -20 13 -11 3 -20 2 -20 -2z"/>
<path d="M2426 5970 c-28 -43 -35 -68 -10 -35 19 24 46 75 41 75 -3 0 -16 -18
-31 -40z"/>
<path d="M2795 6000 c-3 -5 -1 -10 4 -10 6 0 11 5 11 10 0 6 -2 10 -4 10 -3 0
-8 -4 -11 -10z"/>
<path d="M963 5964 c-49 -38 -44 -54 12 -42 42 9 51 7 137 -35 51 -25 113 -47
138 -50 39 -5 33 -2 -35 22 -102 35 -135 52 -115 60 8 3 -12 11 -45 18 l-60
12 70 -4 c39 -2 102 -6 140 -9 l70 -5 -65 10 c-36 5 -87 14 -113 20 -26 6 -64
8 -84 4 -33 -6 -35 -5 -24 9 19 23 11 20 -26 -10z"/>
<path d="M2801 5957 c0 -10 -12 -40 -26 -67 l-25 -50 25 12 c14 6 21 14 15 18
-7 4 -5 17 6 38 8 18 13 40 11 50 -4 16 -5 16 -6 -1z"/>
<path d="M896 5935 c24 -39 24 -40 24 -28 0 6 -9 21 -21 34 l-20 24 17 -30z"/>
<path d="M2230 5920 l-75 -38 47 -7 c43 -7 108 2 152 20 17 7 18 5 12 -20 l-7
-28 54 6 c58 6 180 37 173 44 -2 2 -40 -5 -84 -16 -109 -28 -131 -28 -125 3 4
18 -3 30 -30 50 -18 14 -36 26 -38 25 -2 0 -38 -18 -79 -39z m47 -26 c-3 -3
-12 -4 -19 -1 -8 3 -5 6 6 6 11 1 17 -2 13 -5z"/>
<path d="M361 5924 c0 -11 3 -14 6 -6 3 7 2 16 -1 19 -3 4 -6 -2 -5 -13z"/>
<path d="M1846 5898 c46 -56 70 -80 89 -90 11 -6 -7 17 -40 51 -60 61 -84 81
-49 39z"/>
<path d="M1937 5899 c7 -7 15 -10 18 -7 3 3 -2 9 -12 12 -14 6 -15 5 -6 -5z"/>
<path d="M2943 5893 c9 -2 23 -2 30 0 6 3 -1 5 -18 5 -16 0 -22 -2 -12 -5z"/>
<path d="M331 5874 c0 -11 3 -14 6 -6 3 7 2 16 -1 19 -3 4 -6 -2 -5 -13z"/>
<path d="M2868 5883 c6 -2 18 -2 25 0 6 3 1 5 -13 5 -14 0 -19 -2 -12 -5z"/>
<path d="M2008 5873 c6 -2 18 -2 25 0 6 3 1 5 -13 5 -14 0 -19 -2 -12 -5z"/>
<path d="M8206 5850 l-28 -30 24 0 c12 0 30 5 38 11 13 9 12 10 -2 5 -21 -6
-23 5 -6 22 6 6 10 14 7 16 -3 3 -17 -8 -33 -24z"/>
<path d="M3463 5845 c-21 -24 -19 -33 3 -17 9 6 27 42 21 42 -1 0 -12 -12 -24
-25z"/>
<path d="M3228 5853 c7 -3 16 -2 19 1 4 3 -2 6 -13 5 -11 0 -14 -3 -6 -6z"/>
<path d="M3285 5845 l-30 -14 30 6 c17 3 41 10 55 14 l25 7 -25 1 c-14 0 -38
-6 -55 -14z"/>
<path d="M3658 5853 c34 -2 88 -2 120 0 31 2 3 3 -63 3 -66 0 -92 -1 -57 -3z"/>
<path d="M3523 5843 c9 -2 23 -2 30 0 6 3 -1 5 -18 5 -16 0 -22 -2 -12 -5z"/>
<path d="M346 5740 c6 -129 18 -210 45 -296 30 -97 32 -74 3 36 -16 60 -27
134 -30 201 -3 59 -9 120 -14 135 -5 19 -7 -9 -4 -76z"/>
<path d="M870 5824 c0 -3 13 -24 29 -47 15 -23 31 -49 34 -57 4 -12 6 -11 6 3
1 10 -13 39 -31 63 -30 43 -38 50 -38 38z"/>
<path d="M1239 5817 c16 -20 102 -47 145 -46 21 0 9 6 -39 18 -38 9 -81 23
-95 31 -23 12 -24 12 -11 -3z"/>
<path d="M2049 5766 c13 -15 5 -26 -20 -26 -9 0 -30 -7 -45 -15 -24 -13 -26
-15 -8 -15 26 0 114 30 114 38 0 4 -12 12 -26 19 -21 10 -23 9 -15 -1z"/>
<path d="M7050 5714 c-125 -78 -300 -144 -513 -194 -104 -24 -127 -25 -127 -6
0 8 -5 18 -11 22 -8 4 -9 -1 -4 -15 4 -14 1 -31 -9 -46 -9 -14 -13 -25 -9 -25
5 0 14 9 21 20 7 12 23 20 40 20 80 1 379 88 492 145 55 27 183 104 199 120
13 14 -12 1 -79 -41z"/>
<path d="M2165 5740 c-16 -7 -17 -9 -3 -9 9 -1 22 -3 30 -4 7 -2 10 -2 5 0 -4
3 -5 9 -1 14 6 11 -4 11 -31 -1z"/>
<path d="M2355 5704 l-30 -26 33 22 c17 12 32 23 32 26 0 7 -4 5 -35 -22z"/>
<path d="M8228 5684 c-4 -17 -19 -45 -33 -63 -18 -21 -22 -31 -13 -31 18 0 61
84 56 108 -3 11 -6 6 -10 -14z"/>
<path d="M1924 5648 c6 -26 16 -51 20 -55 5 -4 6 0 3 10 -4 10 -7 26 -7 36 0
9 -6 26 -14 36 -12 17 -13 14 -2 -27z"/>
<path d="M5225 5630 c-3 -5 -1 -10 4 -10 6 0 11 5 11 10 0 6 -2 10 -4 10 -3 0
-8 -4 -11 -10z"/>
<path d="M2435 5587 c-22 -24 -58 -58 -80 -76 -22 -17 -29 -27 -17 -21 31 15
97 75 123 112 28 39 21 35 -26 -15z"/>
<path d="M1446 5565 c20 -21 36 -50 39 -73 11 -65 26 -94 19 -37 -3 27 -12 62
-20 77 -13 26 -3 41 11 18 3 -5 11 -10 17 -10 16 0 -13 31 -37 40 -62 23 -64
22 -29 -15z"/>
<path d="M1857 5534 c-4 -23 -23 -66 -43 -95 -20 -30 -27 -46 -15 -35 11 10
32 41 45 68 25 51 29 51 40 5 8 -34 26 -26 26 11 0 19 -3 23 -9 13 -6 -9 -13
-1 -23 30 l-15 44 -6 -41z"/>
<path d="M5460 5560 c8 -5 22 -10 30 -10 13 0 13 1 0 10 -8 5 -22 10 -30 10
-13 0 -13 -1 0 -10z"/>
<path d="M8187 5515 c-15 -19 -24 -35 -20 -34 10 0 57 59 51 64 -2 2 -16 -11
-31 -30z"/>
<path d="M6020 5443 c-14 -2 -72 -8 -130 -13 l-105 -9 120 5 c109 4 251 22
170 21 -16 0 -41 -2 -55 -4z"/>
<path d="M8155 5431 c-3 -11 -25 -39 -48 -62 -23 -23 -33 -37 -22 -31 37 19
94 96 82 109 -3 2 -8 -5 -12 -16z"/>
<path d="M2259 5351 c10 -30 17 -42 19 -31 3 16 -23 80 -32 80 -1 0 5 -22 13
-49z"/>
<path d="M844 5325 c16 -67 16 -132 1 -229 -9 -58 -15 -113 -13 -123 2 -10 12
42 22 114 19 131 17 207 -4 241 -10 15 -10 15 -6 -3z"/>
<path d="M1525 5196 c-116 -116 -112 -116 21 2 45 40 84 81 87 92 3 11 4 19 4
18 -1 -1 -51 -51 -112 -112z"/>
<path d="M444 5274 c-8 -31 1 -131 16 -165 7 -18 8 -12 2 26 -4 28 -7 76 -7
108 0 31 -1 57 -2 57 -2 0 -6 -12 -9 -26z"/>
<path d="M2165 5273 c15 -35 17 -121 5 -158 -7 -21 -37 -74 -67 -119 -49 -74
-50 -77 -15 -39 62 67 106 158 107 223 1 30 -4 67 -12 83 -15 29 -30 38 -18
10z"/>
<path d="M1380 5256 c0 -8 5 -18 10 -21 6 -3 10 1 10 9 0 8 -4 18 -10 21 -5 3
-10 -1 -10 -9z"/>
<path d="M8050 5250 c0 -5 4 -10 9 -10 6 0 13 5 16 10 3 6 -1 10 -9 10 -9 0
-16 -4 -16 -10z"/>
<path d="M7995 5190 c-21 -16 -34 -30 -29 -30 10 1 82 59 73 60 -3 0 -23 -13
-44 -30z"/>
<path d="M5924 5195 c20 -15 187 -78 192 -72 2 2 -45 22 -104 45 -59 22 -99
35 -88 27z"/>
<path d="M1352 5126 c-17 -39 -25 -62 -16 -51 25 32 55 95 52 109 -2 7 -18
-20 -36 -58z"/>
<path d="M601 5125 c0 -5 6 -21 14 -35 8 -14 14 -20 14 -15 0 6 -6 21 -14 35
-8 14 -14 21 -14 15z"/>
<path d="M7895 5099 c-12 -6 -25 -20 -30 -32 -6 -13 -42 -38 -85 -60 -70 -36
-66 -42 8 -11 25 10 148 117 131 113 -2 0 -13 -5 -24 -10z"/>
<path d="M6154 5063 c7 -7 98 -5 105 3 2 2 -22 4 -54 4 -32 0 -55 -3 -51 -7z"/>
<path d="M657 5009 c19 -33 28 -31 19 4 -3 13 -12 24 -20 24 -13 0 -13 -4 1
-28z"/>
<path d="M6220 4993 c57 -63 57 -63 36 -28 -24 39 -57 75 -69 75 -5 0 10 -21
33 -47z"/>
<path d="M1271 5004 c0 -11 3 -14 6 -6 3 7 2 16 -1 19 -3 4 -6 -2 -5 -13z"/>
<path d="M1261 4964 c0 -11 3 -14 6 -6 3 7 2 16 -1 19 -3 4 -6 -2 -5 -13z"/>
<path d="M740 4950 c6 -11 13 -20 16 -20 2 0 0 9 -6 20 -6 11 -13 20 -16 20
-2 0 0 -9 6 -20z"/>
<path d="M550 4917 c0 -16 33 -87 41 -87 11 0 -10 61 -27 80 -8 8 -14 11 -14
7z"/>
<path d="M801 4845 c69 -132 89 -165 100 -165 5 0 0 13 -11 28 -11 15 -36 68
-55 117 -19 50 -34 84 -35 76 0 -11 -5 -10 -21 5 -14 13 -8 -5 22 -61z"/>
<path d="M7695 4910 c-3 -5 -1 -10 4 -10 6 0 11 5 11 10 0 6 -2 10 -4 10 -3 0
-8 -4 -11 -10z"/>
<path d="M531 4870 c1 -42 1 -43 9 -16 6 17 5 36 0 45 -7 11 -9 3 -9 -29z"/>
<path d="M7620 4880 c-24 -8 -24 -8 5 -9 17 0 37 4 45 9 12 8 11 10 -5 9 -11
-1 -31 -5 -45 -9z"/>
<path d="M1966 4824 c-33 -28 -89 -64 -102 -64 -2 0 1 12 6 26 6 14 10 35 9
47 -1 15 -4 11 -11 -13 -13 -47 -31 -65 -190 -186 -75 -58 -142 -112 -150
-121 -14 -19 229 164 277 207 17 14 41 27 54 28 25 1 115 58 146 92 29 32 3
22 -39 -16z"/>
<path d="M7495 4850 c-8 -13 5 -13 25 0 13 8 13 10 -2 10 -9 0 -20 -4 -23 -10z"/>
<path d="M6354 4821 c7 -11 46 -35 46 -28 0 3 -12 12 -26 22 -15 9 -23 12 -20
6z"/>
<path d="M7244 4775 c11 -8 22 -12 25 -9 6 6 -19 24 -34 24 -5 -1 -1 -7 9 -15z"/>
<path d="M6309 4733 c32 -51 33 -65 3 -42 -10 8 0 -3 22 -24 22 -21 50 -43 61
-48 11 -6 5 3 -14 19 -19 16 -36 37 -37 47 -3 17 -51 95 -59 95 -3 0 8 -21 24
-47z"/>
<path d="M513 4760 c-13 -5 -23 -14 -23 -20 0 -12 -2 -12 39 0 l33 9 -6 -42
c-4 -26 -3 -36 3 -27 15 25 23 80 13 80 -6 0 -16 2 -24 4 -7 3 -23 1 -35 -4z"/>
<path d="M6586 4761 c-4 -5 3 -12 14 -15 11 -3 29 -9 40 -12 11 -3 20 -1 20 4
0 5 -8 12 -17 15 -10 2 -25 8 -34 12 -10 3 -20 2 -23 -4z"/>
<path d="M6783 4736 c15 -15 36 -26 45 -26 15 0 15 2 2 11 -8 5 -28 17 -45 25
l-30 15 28 -25z"/>
<path d="M6935 4750 c3 -5 25 -10 47 -10 51 0 47 5 -10 14 -29 4 -41 3 -37 -4z"/>
<path d="M976 4708 c18 -61 39 -97 106 -179 40 -49 74 -89 76 -89 9 0 -36 63
-88 123 -37 41 -64 85 -75 116 -16 49 -33 74 -19 29z"/>
<path d="M581 4592 c-2 -21 27 -82 38 -82 6 0 20 -18 31 -40 35 -69 31 -44 -5
32 -19 40 -35 79 -35 88 0 12 -2 12 -9 1 -7 -11 -9 -11 -14 0 -4 11 -6 11 -6
1z"/>
<path d="M1330 4577 c-8 -12 -36 -65 -63 -117 -36 -70 -47 -87 -44 -62 2 17 0
32 -5 32 -4 0 -8 -28 -8 -62 l0 -63 37 80 c20 44 52 108 71 143 33 60 42 95
12 49z"/>
<path d="M6493 4543 c37 -4 43 -23 6 -23 -30 0 -22 -13 19 -32 20 -9 48 -25
62 -34 23 -15 23 -14 -2 9 -16 14 -36 31 -45 36 -17 10 -17 12 0 25 27 21 21
26 -30 24 -44 -1 -45 -2 -10 -5z"/>
<path d="M1393 4388 c-32 -41 -55 -319 -33 -403 5 -18 6 3 3 50 -6 84 9 228
32 315 14 53 14 58 -2 38z"/>
<path d="M6606 4385 c10 -8 23 -15 28 -15 6 0 1 7 -10 15 -10 8 -23 15 -28 15
-6 0 -1 -7 10 -15z"/>
<path d="M757 4365 c26 -37 62 -70 86 -78 17 -6 17 -6 0 18 -10 13 -22 25 -28
25 -5 0 -25 15 -44 33 l-34 32 20 -30z"/>
<path d="M6652 4343 c1 -5 -4 -19 -11 -33 l-14 -25 23 20 c22 19 23 19 16 1
-3 -11 -9 -47 -11 -80 -5 -61 -5 -60 14 24 19 89 19 100 -5 100 -8 0 -13 -3
-12 -7z"/>
<path d="M755 4262 c10 -91 52 -238 94 -327 22 -47 42 -85 44 -85 3 0 -11 36
-30 81 -19 44 -53 149 -74 232 -24 91 -37 131 -34 99z"/>
<path d="M1200 4272 c0 -31 23 -158 32 -172 7 -12 8 -10 3 5 -3 11 -9 49 -12
85 -5 58 -22 118 -23 82z"/>
<path d="M886 4223 c32 -55 44 -72 44 -57 0 12 -57 104 -65 104 -3 0 6 -21 21
-47z"/>
<path d="M981 4131 c-1 -7 -7 -11 -16 -7 -18 7 -18 -2 0 -34 8 -14 14 -19 15
-12 0 24 17 11 35 -28 10 -23 22 -43 27 -46 5 -3 -4 20 -20 53 -16 32 -32 65
-35 73 -4 11 -6 11 -6 1z"/>
<path d="M5065 4110 c18 -60 138 -328 168 -374 95 -150 307 -369 490 -508 75
-58 97 -85 57 -75 -17 4 -18 2 -8 -16 l11 -21 17 21 17 22 34 -23 c65 -43 185
-104 275 -139 172 -68 416 -223 553 -352 41 -38 69 -61 63 -50 -22 39 -156
154 -257 222 -96 64 -272 158 -370 198 -252 103 -553 342 -791 628 -74 88 -90
116 -169 290 -86 190 -105 226 -90 177z"/>
<path d="M6682 4087 c18 -38 24 -43 26 -26 2 14 -6 32 -23 48 l-26 26 23 -48z"/>
<path d="M6775 3951 c3 -18 5 -52 5 -75 1 -32 3 -37 10 -24 7 11 6 35 -5 75
-8 32 -12 43 -10 24z"/>
<path d="M1185 3929 c20 -55 19 -62 -6 -56 -26 7 -21 2 51 -50 74 -53 92 -61
49 -21 -20 18 -50 63 -68 101 -36 76 -47 87 -26 26z"/>
<path d="M4460 3954 c-14 -10 -42 -33 -63 -53 l-38 -36 5 30 c6 28 5 28 -7 -4
-14 -37 -22 -33 -37 17 l-8 27 -1 -27 c-1 -33 47 -92 56 -68 7 18 79 90 113
112 14 9 20 17 15 17 -6 1 -22 -6 -35 -15z"/>
<path d="M4650 3941 c-47 -15 -104 -37 -127 -49 -42 -22 -63 -42 -44 -42 5 0
12 4 15 9 7 10 152 73 176 76 20 2 88 33 75 34 -5 0 -48 -12 -95 -28z"/>
<path d="M4154 3929 c-36 -38 -147 -119 -163 -119 -8 0 -4 11 8 29 42 58 20
42 -27 -20 -27 -35 -54 -63 -60 -62 -6 1 -22 -18 -37 -43 -15 -25 -36 -49 -47
-53 -12 -4 -17 -11 -11 -14 5 -3 42 30 82 73 40 44 80 80 88 80 25 0 103 54
158 110 27 27 47 50 44 50 -3 0 -18 -14 -35 -31z"/>
<path d="M4543 3929 c-35 -22 -46 -37 -15 -20 22 13 58 40 52 41 -3 0 -20 -10
-37 -21z"/>
<path d="M4717 3916 c-99 -33 -106 -46 -21 -40 38 3 114 9 169 13 l100 8 -120
2 c-117 2 -119 3 -81 17 87 31 50 31 -47 0z"/>
<path d="M4199 3916 c13 -16 51 -41 51 -33 0 2 -15 14 -32 27 -21 15 -28 17
-19 6z"/>
<path d="M2800 3916 c0 -2 8 -10 18 -17 15 -13 16 -12 3 4 -13 16 -21 21 -21
13z"/>
<path d="M2810 3856 c22 -24 22 -26 5 -21 -16 6 -17 5 -5 -4 8 -6 31 -10 50
-10 32 0 33 1 11 10 -13 5 -37 19 -55 31 l-31 22 25 -28z"/>
<path d="M934 3775 c74 -137 298 -437 436 -585 58 -62 32 -25 -71 100 -88 108
-254 337 -342 470 -63 97 -69 101 -23 15z"/>
<path d="M2705 3815 c33 -27 88 -49 108 -42 6 2 -6 9 -28 16 -22 6 -56 20 -75
31 l-35 21 30 -26z"/>
<path d="M1415 3779 c8 -23 12 -45 9 -51 -3 -5 0 -17 6 -26 7 -9 -8 5 -34 31
-42 45 -56 46 -40 2 5 -13 61 -45 85 -49 9 -2 31 -28 106 -126 39 -52 97 -120
129 -150 50 -49 47 -43 -31 50 -98 118 -185 244 -215 313 -26 58 -34 61 -15 6z"/>
<path d="M2913 3734 c-8 -22 -100 -64 -143 -65 l-35 -1 35 -7 c19 -4 49 -15
65 -25 l30 -18 -25 20 c-28 23 -27 24 16 41 34 14 95 71 76 71 -7 0 -15 -7
-19 -16z"/>
<path d="M4290 3738 c0 -14 75 -219 101 -277 38 -83 146 -246 194 -291 24 -22
11 -3 -32 52 -82 104 -167 262 -218 408 -32 94 -45 124 -45 108z"/>
<path d="M6790 3730 c0 -8 5 -22 10 -30 9 -13 10 -13 10 0 0 8 -5 22 -10 30
-9 13 -10 13 -10 0z"/>
<path d="M2838 3723 c6 -2 18 -2 25 0 6 3 1 5 -13 5 -14 0 -19 -2 -12 -5z"/>
<path d="M3704 3648 c-10 -24 -29 -54 -41 -68 -13 -14 -23 -29 -23 -35 0 -5 7
1 16 13 8 12 24 22 35 22 12 0 19 5 16 13 -2 6 2 30 10 51 18 53 10 56 -13 4z"/>
<path d="M3570 3640 c-19 -17 -26 -27 -15 -21 19 9 63 51 54 51 -3 0 -20 -14
-39 -30z"/>
<path d="M3484 3599 c-31 -33 -117 -99 -128 -99 -4 0 -4 6 0 13 10 15 -13 -1
-93 -70 -66 -58 -75 -62 -67 -35 2 9 -1 7 -7 -5 -7 -13 -16 -23 -21 -23 -4 0
-8 -7 -8 -16 0 -10 29 7 86 51 47 36 98 71 112 76 37 14 127 85 147 115 21 32
15 30 -21 -7z"/>
<path d="M3478 3549 c-10 -5 -18 -15 -18 -22 0 -9 2 -9 8 0 4 7 19 16 32 22
14 5 18 10 10 10 -8 0 -23 -4 -32 -10z"/>
<path d="M6870 3545 c0 -5 5 -17 10 -25 5 -8 10 -10 10 -5 0 6 -5 17 -10 25
-5 8 -10 11 -10 5z"/>
<path d="M2840 3521 l35 -7 -31 -7 c-17 -4 -47 -22 -67 -38 -37 -31 -73 -86
-63 -96 3 -3 10 5 15 18 18 47 90 99 159 114 52 11 37 25 -25 24 -50 -1 -53
-3 -23 -8z"/>
<path d="M3617 3489 c4 -13 8 -18 11 -10 2 7 -1 18 -6 23 -8 8 -9 4 -5 -13z"/>
<path d="M3457 3484 c-10 -10 26 -58 78 -104 l50 -44 -42 44 c-22 25 -50 60
-60 77 -11 18 -22 30 -26 27z"/>
<path d="M3149 3444 c-13 -15 -53 -48 -88 -75 -35 -27 -61 -49 -57 -49 12 0
90 56 115 84 29 30 41 33 42 9 1 -10 5 -2 9 17 5 19 7 36 6 37 -1 2 -13 -9
-27 -23z"/>
<path d="M3393 3408 c4 -11 2 -18 -5 -18 -6 0 -4 -8 5 -18 23 -25 21 -41 -5
-71 l-23 -26 28 24 c15 14 27 34 27 45 0 17 4 16 35 -14 57 -55 48 -30 -13 35
-31 33 -53 52 -49 43z"/>
<path d="M3338 3393 c6 -2 18 -2 25 0 6 3 1 5 -13 5 -14 0 -19 -2 -12 -5z"/>
<path d="M6940 3394 c0 -13 18 -39 24 -34 2 3 -2 14 -10 24 -8 11 -14 16 -14
10z"/>
<path d="M3297 3383 c-4 -3 -6 -18 -6 -32 1 -21 2 -22 6 -6 3 11 10 26 15 33
11 12 -3 18 -15 5z"/>
<path d="M2777 3310 c43 -56 64 -77 47 -47 -21 36 -77 107 -85 107 -5 0 12
-27 38 -60z"/>
<path d="M2975 3330 c-16 -16 -24 -30 -18 -30 7 0 21 14 33 30 12 17 20 30 18
30 -3 0 -17 -13 -33 -30z"/>
<path d="M2885 3258 l-18 -43 -6 40 -7 40 -5 -35 c-8 -48 -2 -65 19 -48 16 14
46 77 39 84 -2 2 -12 -15 -22 -38z"/>
<path d="M1878 3194 c16 -34 41 -105 57 -158 16 -53 30 -94 32 -92 8 7 -46
194 -66 233 -35 68 -52 80 -23 17z"/>
<path d="M7178 3189 c6 -9 40 -37 75 -63 l62 -48 -45 42 c-51 48 -112 93 -92
69z"/>
<path d="M1439 3087 c58 -106 106 -248 124 -367 3 -18 5 -15 6 11 3 82 -86
326 -144 394 -9 11 -3 -6 14 -38z"/>
<path d="M5650 3091 c0 -5 7 -12 16 -15 14 -5 15 -4 4 9 -14 17 -20 19 -20 6z"/>
<path d="M7339 2990 c14 -43 28 -77 30 -75 5 6 -38 143 -48 149 -4 3 4 -30 18
-74z"/>
<path d="M4860 2956 c0 -2 39 -32 88 -67 104 -75 313 -243 396 -319 32 -30 53
-45 45 -32 -16 27 -249 223 -359 304 -101 74 -170 120 -170 114z"/>
<path d="M7339 2841 c22 -43 51 -121 65 -172 40 -150 30 -72 -22 171 -9 44
-10 44 -11 10 l-1 -35 -30 53 c-45 78 -46 63 -1 -27z"/>
<path d="M5736 2900 c12 -24 100 -133 125 -155 12 -11 -2 9 -32 45 -30 36 -65
79 -77 95 -13 17 -20 23 -16 15z"/>
<path d="M1992 2805 c0 -11 4 -31 8 -45 6 -20 8 -21 8 -5 0 11 -4 31 -8 45 -6
20 -8 21 -8 5z"/>
<path d="M2612 2720 c0 -14 2 -19 5 -12 2 6 2 18 0 25 -3 6 -5 1 -5 -13z"/>
<path d="M2021 2664 c0 -11 3 -14 6 -6 3 7 2 16 -1 19 -3 4 -6 -2 -5 -13z"/>
<path d="M2596 2623 c-7 -62 -17 -355 -11 -313 8 56 27 361 23 366 -3 2 -8
-21 -12 -53z"/>
<path d="M1573 2635 c0 -22 2 -30 4 -17 2 12 2 30 0 40 -3 9 -5 -1 -4 -23z"/>
<path d="M2037 2585 c3 -33 9 -123 14 -200 l7 -140 -4 160 c-2 88 -8 178 -14
200 -8 34 -8 32 -3 -20z"/>
<path d="M6813 2450 c36 -69 106 -206 157 -305 51 -99 89 -169 86 -155 -10 36
-158 337 -221 450 -82 145 -94 150 -22 10z"/>
<path d="M6075 2476 c-1 -47 2 -71 6 -56 10 34 10 112 1 126 -4 7 -7 -25 -7
-70z"/>
<path d="M7432 2540 c0 -14 2 -19 5 -12 2 6 2 18 0 25 -3 6 -5 1 -5 -13z"/>
<path d="M7440 2499 c0 -67 133 -638 179 -772 22 -63 82 -189 87 -184 2 2 -15
46 -37 98 -44 100 -124 403 -185 694 -33 158 -44 200 -44 164z"/>
<path d="M1562 2272 c-11 -129 -15 -303 -7 -262 7 32 28 401 23 405 -2 3 -10
-61 -16 -143z"/>
<path d="M2032 2114 c-16 -154 -72 -432 -106 -529 -4 -11 0 -7 10 9 40 71 119
484 112 592 -2 37 -6 19 -16 -72z"/>
<path d="M2586 1919 c-10 -124 -33 -226 -65 -296 -17 -34 -28 -63 -26 -63 12
0 60 107 76 169 18 70 38 271 27 271 -3 0 -8 -36 -12 -81z"/>
<path d="M1530 1813 c-10 -80 -38 -207 -55 -258 -6 -16 -5 -17 4 -5 21 29 50
146 61 244 6 54 9 101 6 103 -2 2 -9 -36 -16 -84z"/>
<path d="M7090 1880 c0 -3 7 -37 15 -75 8 -39 15 -113 16 -165 0 -63 3 -88 9
-75 14 32 11 116 -6 206 -13 68 -32 131 -34 109z"/>
<path d="M1826 1753 c-17 -35 -29 -79 -32 -113 l-4 -55 14 60 c7 33 23 82 35
108 32 69 21 68 -13 0z"/>
<path d="M4704 1762 c-21 -16 -46 -37 -54 -48 -8 -10 -1 -7 15 7 17 15 48 36
70 47 22 12 33 21 24 22 -9 0 -34 -13 -55 -28z"/>
<path d="M4880 1770 c-8 -5 -10 -10 -5 -10 6 0 17 5 25 10 8 5 11 10 5 10 -5
0 -17 -5 -25 -10z"/>
<path d="M4980 1766 c19 -7 43 -17 53 -21 9 -4 17 -4 17 -1 0 8 -69 36 -89 36
-9 -1 0 -7 19 -14z"/>
<path d="M4761 1620 c-24 -33 -47 -60 -50 -60 -7 0 -12 -38 -11 -95 0 -43 26
-125 40 -125 5 0 2 12 -5 28 -19 37 -32 117 -17 109 7 -5 8 6 5 32 -5 34 -1
44 41 95 39 48 55 76 43 76 -1 0 -22 -27 -46 -60z"/>
<path d="M4568 1623 c-38 -40 -58 -73 -58 -95 1 -16 40 30 40 47 0 6 9 20 21
31 19 17 44 54 36 54 -1 0 -19 -17 -39 -37z"/>
<path d="M1811 1513 c5 -15 15 -33 20 -39 7 -8 -6 -25 -41 -57 -45 -41 -91
-118 -89 -150 0 -7 9 8 20 32 11 24 45 69 75 100 31 31 65 70 77 86 l21 30
-22 -19 c-18 -15 -24 -16 -37 -6 -8 7 -15 18 -15 26 0 7 -4 16 -10 19 -6 4 -6
-4 1 -22z"/>
<path d="M7716 1515 c22 -76 35 -139 30 -151 -3 -8 8 -24 28 -39 42 -32 61
-33 22 -1 -23 17 -33 37 -42 82 -6 32 -19 75 -28 94 -9 19 -14 26 -10 15z"/>
<path d="M7121 1475 c0 -22 6 -58 14 -80 8 -22 15 -41 15 -42 0 -2 -25 -19
-55 -39 -30 -21 -53 -39 -51 -41 5 -6 84 43 113 70 19 17 20 22 8 31 -8 6 -21
40 -29 76 -12 58 -14 61 -15 25z"/>
<path d="M5484 1468 l-29 -33 33 29 c17 17 32 31 32 33 0 8 -8 1 -36 -29z"/>
<path d="M4552 1468 c8 -12 25 -28 39 -37 18 -11 16 -6 -10 22 -39 42 -50 48
-29 15z"/>
<path d="M1415 1469 c-4 -6 -25 -24 -47 -40 -23 -16 -37 -29 -31 -29 15 0 93
59 93 70 0 13 -7 13 -15 -1z"/>
<path d="M2403 1393 c-17 -38 -34 -84 -38 -103 -4 -19 -11 -41 -15 -50 -4 -8
-13 -41 -19 -73 -5 -32 -22 -84 -36 -115 -31 -68 -17 -58 18 13 14 28 31 84
40 125 8 41 31 118 50 170 20 52 35 96 33 97 -2 2 -17 -27 -33 -64z"/>
<path d="M4740 1452 c0 -15 55 -55 118 -84 38 -19 52 -22 52 -12 0 8 -6 14
-12 14 -24 0 -115 48 -137 71 -11 12 -21 18 -21 11z"/>
<path d="M4501 1434 c0 -11 3 -14 6 -6 3 7 2 16 -1 19 -3 4 -6 -2 -5 -13z"/>
<path d="M7453 1443 c20 -2 54 -2 75 0 20 2 3 4 -38 4 -41 0 -58 -2 -37 -4z"/>
<path d="M928 1340 c-26 -27 -48 -55 -48 -61 0 -7 13 6 29 28 16 22 42 49 57
61 16 12 25 22 20 22 -5 0 -31 -22 -58 -50z"/>
<path d="M4590 1380 c8 -5 22 -9 30 -9 10 0 8 3 -5 9 -27 12 -43 12 -25 0z"/>
<path d="M7425 1366 c-20 -20 -26 -22 -36 -10 -6 8 -16 14 -22 14 -6 0 -3 -6
6 -12 9 -7 21 -24 26 -38 9 -22 10 -23 10 -4 1 26 38 61 71 67 24 4 24 4 -3 6
-17 0 -37 -8 -52 -23z"/>
<path d="M4803 1353 c9 -2 23 -2 30 0 6 3 -1 5 -18 5 -16 0 -22 -2 -12 -5z"/>
<path d="M4932 1349 c7 -5 56 -8 108 -8 117 1 107 6 -23 12 -56 2 -93 1 -85
-4z"/>
<path d="M1615 1320 c-16 -16 -24 -30 -18 -30 10 0 34 24 47 48 12 20 2 14
-29 -18z"/>
<path d="M7249 1303 l-24 -28 28 24 c15 14 27 26 27 28 0 8 -8 1 -31 -24z"/>
<path d="M1020 1230 c-24 -49 -38 -69 -48 -65 -12 4 -13 3 -2 -10 7 -8 10 -24
7 -36 -11 -40 42 -184 60 -165 3 3 1 12 -5 19 -19 22 -44 101 -33 105 5 2 5
16 -1 35 -9 29 -6 41 27 100 20 37 35 72 33 78 -2 6 -19 -22 -38 -61z"/>
<path d="M1960 1271 c-14 -27 -38 -192 -25 -179 3 2 10 40 16 83 6 44 15 87
20 97 5 10 7 18 5 18 -3 0 -10 -9 -16 -19z"/>
<path d="M7868 1249 c7 -8 18 -31 26 -50 12 -27 15 -29 16 -12 0 12 -12 35
-26 50 -15 15 -22 21 -16 12z"/>
<path d="M1566 1233 c-4 -5 -11 -8 -15 -8 -10 0 -79 -63 -106 -96 -11 -13 -2
-8 20 12 61 54 84 67 46 26 -19 -20 -32 -39 -29 -42 6 -7 98 93 98 106 0 11
-4 11 -14 2z"/>
<path d="M816 1173 c-14 -21 -28 -51 -31 -68 -7 -28 -6 -29 8 -10 16 23 58
115 52 115 -3 0 -16 -17 -29 -37z"/>
<path d="M6991 1185 c0 -16 6 -52 13 -80 18 -64 19 -39 1 45 -8 40 -13 53 -14
35z"/>
<path d="M7132 1165 c-16 -36 -15 -90 3 -125 22 -43 25 -37 8 20 -11 37 -12
58 -4 86 12 45 9 54 -7 19z"/>
<path d="M7684 1177 c3 -10 6 -51 7 -90 0 -59 2 -68 10 -47 12 29 5 112 -11
138 -11 16 -11 16 -6 -1z"/>
<path d="M7393 1120 c0 -25 2 -35 4 -22 2 12 2 32 0 45 -2 12 -4 2 -4 -23z"/>
<path d="M1635 1120 c-4 -12 -4 -40 0 -63 4 -31 3 -38 -4 -27 -15 21 -13 4 4
-54 16 -54 19 -80 8 -73 -5 3 -17 1 -28 -4 -19 -7 -19 -8 2 -8 12 -1 29 -4 38
-8 15 -5 16 -1 10 28 l-7 34 25 -29 c20 -25 25 -27 30 -12 4 10 3 15 -3 11
-27 -17 -78 147 -64 203 8 28 -2 29 -11 2z"/>
<path d="M7423 1105 c0 -22 2 -30 4 -17 2 12 2 30 0 40 -3 9 -5 -1 -4 -23z"/>
<path d="M7862 1070 c-11 -27 -19 -50 -16 -50 7 0 45 92 41 97 -2 2 -14 -19
-25 -47z"/>
<path d="M1464 1073 c-4 -21 -12 -41 -18 -45 -8 -5 -7 -8 2 -8 13 0 33 -39 46
-90 l7 -25 -20 24 c-12 13 -21 20 -21 16 0 -4 -8 -2 -17 5 -10 7 0 -4 22 -23
34 -31 41 -34 46 -19 3 9 -3 35 -15 57 -13 25 -20 58 -20 92 0 29 -1 53 -3 53
-1 0 -5 -17 -9 -37z"/>
<path d="M1942 1045 c-1 -24 9 -38 44 -67 25 -21 50 -38 56 -38 6 0 -7 13 -28
28 -49 36 -61 51 -67 82 -4 22 -4 22 -5 -5z"/>
<path d="M831 1052 c3 -7 20 -23 39 -34 36 -22 35 -20 -14 22 -16 14 -27 19
-25 12z"/>
<path d="M1044 1042 c20 -24 88 -48 156 -56 32 -4 22 1 -36 17 -45 13 -94 31
-110 42 l-29 18 19 -21z"/>
<path d="M7762 1029 c-51 -38 -55 -48 -6 -20 l35 21 -7 -22 c-10 -36 -24 -48
-55 -48 -16 0 -29 -4 -29 -8 0 -5 23 -8 51 -8 43 1 54 5 71 29 11 15 18 31 15
34 -4 3 -12 -6 -18 -20 -11 -24 -39 -45 -39 -29 0 4 7 27 16 51 8 24 13 45 11
47 -2 2 -22 -10 -45 -27z"/>
<path d="M781 1034 c0 -11 3 -14 6 -6 3 7 2 16 -1 19 -3 4 -6 -2 -5 -13z"/>
<path d="M7463 997 c-8 -41 -11 -48 -17 -32 -30 74 -31 75 -38 57 -3 -9 -7
-32 -7 -49 -1 -40 -18 -43 -27 -5 -14 63 -24 77 -18 25 l6 -53 -49 0 c-35 -1
-44 -3 -32 -10 10 -6 41 -8 70 -7 53 3 54 4 59 38 5 33 6 33 18 12 6 -12 12
-29 12 -37 0 -9 4 -16 9 -16 10 0 15 13 26 67 l6 33 30 -22 c43 -32 43 -18 0
19 l-38 32 -10 -52z"/>
<path d="M7300 1010 c-19 -17 -26 -27 -15 -21 19 9 63 51 54 51 -3 0 -20 -14
-39 -30z"/>
<path d="M1901 1015 c-1 -32 18 -91 38 -116 14 -18 21 -20 37 -11 18 11 18 11
-3 12 -25 0 -40 24 -59 90 -7 25 -13 36 -13 25z"/>
<path d="M7090 978 c10 -24 17 -45 14 -47 -7 -7 -31 20 -48 54 -14 26 -16 27
-16 9 0 -31 56 -89 73 -76 6 5 21 12 32 15 18 4 18 5 -2 6 -22 1 -50 37 -39
48 7 7 -13 33 -25 33 -4 0 0 -19 11 -42z"/>
<path d="M1582 990 c0 -14 2 -19 5 -12 2 6 2 18 0 25 -3 6 -5 1 -5 -13z"/>
<path d="M1725 1000 c3 -6 21 -17 38 -26 l32 -16 -30 26 c-31 26 -51 34 -40
16z"/>
<path d="M1103 973 c9 -2 23 -2 30 0 6 3 -1 5 -18 5 -16 0 -22 -2 -12 -5z"/>
<path d="M1268 973 c7 -3 16 -2 19 1 4 3 -2 6 -13 5 -11 0 -14 -3 -6 -6z"/>
<path d="M878 963 c7 -3 16 -2 19 1 4 3 -2 6 -13 5 -11 0 -14 -3 -6 -6z"/>
<path d="M7499 929 c15 -6 34 -6 50 0 22 8 19 9 -24 10 -42 0 -46 -2 -26 -10z"/>
<path d="M1741 906 c2 -2 18 -6 34 -10 22 -5 26 -4 15 4 -14 9 -59 15 -49 6z"/>
<path d="M2023 883 c15 -2 37 -2 50 0 12 2 0 4 -28 4 -27 0 -38 -2 -22 -4z"/>
</g>
</svg>
