<?xml version="1.0" encoding="utf-8"?>
<!-- Generator: Adobe Illustrator 16.0.0, SVG Export Plug-In . SVG Version: 6.00 Build 0)  -->
<!DOCTYPE svg PUBLIC "-//W3C//DTD SVG 1.1//EN" "http://www.w3.org/Graphics/SVG/1.1/DTD/svg11.dtd">
<svg version="1.1" id="Layer_1" xmlns="http://www.w3.org/2000/svg" xmlns:xlink="http://www.w3.org/1999/xlink" x="0px" y="0px"
	 width="29px" height="98px" viewBox="0 0 29 98" enable-background="new 0 0 29 98" xml:space="preserve">
<rect id="backgroundrect" fill="none" width="29" height="98"/>
<g>
	<title>Layer 1</title>
	<path id="svg_1" fill="#006C39" d="M25.357,21.672H3.883l7.643-20.605C11.765,0.426,12.376,0,13.06,0h3.12
		c0.685,0,1.296,0.425,1.533,1.066L25.357,21.672z"/>
	<path id="svg_2" opacity="0.15" enable-background="new    " d="M11.526,1.067L3.883,21.672h21.474l-1.424-3.838h-15.6
		l5.281-14.237c0.238-0.641,0.85-1.066,1.533-1.066h3.107l-0.543-1.465C17.476,0.425,16.863,0,16.18,0h-3.12
		C12.376,0,11.765,0.426,11.526,1.067z"/>
	<path id="svg_3" fill="#006C39" d="M26.258,21.672H2.982C1.335,21.672,0,23.008,0,24.655l0,70.39c0,1.646,1.335,2.981,2.982,2.981
		h23.275c1.647,0,2.982-1.335,2.982-2.981V24.654C29.24,23.007,27.905,21.672,26.258,21.672z"/>
	<path id="svg_4" opacity="0.5" fill="#FFFFFF" enable-background="new    " d="M0.001,93.524H29.24V26.173H0.001V93.524z"/>
	<path id="svg_5" fill="#394049" d="M29.24,93.526v-5.859H0v5.859H29.24z"/>
	<path id="svg_6" fill="#006C39" d="M14.621,37.927c-6.01,0-10.882,9.814-10.882,21.921c0,12.107,4.872,21.922,10.882,21.922
		s10.883-9.814,10.883-21.922C25.504,47.741,20.631,37.927,14.621,37.927z"/>
	<path id="svg_7" fill="#394049" d="M29.24,32.033v-5.859H0v5.859H29.24z"/>
	<path id="svg_8" opacity="0.1" enable-background="new    " d="M0,24.655v70.39c0,1.646,1.335,2.982,2.982,2.982h0.625v-67.64
		c0-1.647,1.335-2.982,2.982-2.982h22.65v-2.75c0-1.647-1.335-2.982-2.982-2.982l-23.275,0C1.335,21.673,0,23.008,0,24.655z"/>
</g>
<g>
	<path fill="#FFFFFF" d="M13.408,61.327l0.188-0.234c0.533-0.808,0.909-1.406,1.129-1.799c0.219-0.392,0.396-0.803,0.528-1.233
		c0.196-0.596,0.294-1.215,0.294-1.857c0-0.658-0.08-1.151-0.241-1.481c-0.16-0.328-0.456-0.599-0.888-0.811
		c-0.548,0.791-0.822,1.795-0.822,3.009c0,0.471,0.075,0.952,0.224,1.445c0.063,0.181,0.094,0.302,0.094,0.365
		c0,0.227-0.122,0.341-0.364,0.341c-0.219,0-0.517-0.093-0.893-0.276c-0.376-0.185-0.663-0.374-0.858-0.57
		c-0.22-0.235-0.4-0.541-0.541-0.917s-0.211-0.775-0.211-1.198c0-0.596,0.124-1.164,0.37-1.704c0.247-0.541,0.594-1.011,1.04-1.411
		c0.447-0.399,0.978-0.711,1.593-0.934c0.615-0.224,1.267-0.336,1.957-0.336s1.318,0.151,1.887,0.453
		c0.568,0.301,1.021,0.717,1.357,1.244c0.337,0.529,0.506,1.103,0.506,1.722c0,0.462-0.089,0.955-0.266,1.479
		c-0.178,0.524-0.456,1.11-0.838,1.756c-0.382,0.646-0.87,1.356-1.466,2.133c-0.596,0.775-1.289,1.609-2.08,2.503l-0.235,0.282
		l-0.2,0.223c0.329,0.098,0.78,0.146,1.354,0.146c0.572,0,1.147-0.031,1.725-0.094c0.576-0.063,1.029-0.145,1.359-0.247
		c0.22-0.063,0.364-0.094,0.436-0.094c0.078,0,0.117,0.023,0.117,0.07c0,0.29-0.186,0.74-0.558,1.352
		c-0.373,0.611-0.763,1.117-1.17,1.517c-0.423,0.399-0.931,0.691-1.521,0.875c-0.592,0.185-1.322,0.276-2.192,0.276
		c-1.113,0-2.068-0.152-2.868-0.458s-1.199-0.674-1.199-1.104c0-0.298,0.403-0.894,1.21-1.787c0.572-0.65,1.093-1.297,1.563-1.939
		c0.031-0.047,0.065-0.094,0.1-0.141s0.066-0.092,0.094-0.135c0.028-0.043,0.065-0.104,0.112-0.183L13.408,61.327z"/>
</g>
</svg>
