<?xml version="1.0" encoding="utf-8"?>
<!-- Generator: Adobe Illustrator 16.0.0, SVG Export Plug-In . SVG Version: 6.00 Build 0)  -->
<!DOCTYPE svg PUBLIC "-//W3C//DTD SVG 1.1//EN" "http://www.w3.org/Graphics/SVG/1.1/DTD/svg11.dtd">
<svg version="1.1" id="Layer_1" xmlns="http://www.w3.org/2000/svg" xmlns:xlink="http://www.w3.org/1999/xlink" x="0px" y="0px"
	 width="29px" height="98px" viewBox="0 0 29 98" enable-background="new 0 0 29 98" xml:space="preserve">
<rect id="backgroundrect" fill="none" width="29" height="98"/>
<g>
	<title>Layer 1</title>
	<path id="svg_1" fill="#7FC325" d="M25.357,21.672H3.883l7.643-20.605C11.765,0.426,12.376,0,13.06,0h3.12
		c0.685,0,1.296,0.425,1.533,1.066L25.357,21.672z"/>
	<path id="svg_2" opacity="0.15" enable-background="new    " d="M11.527,1.067L3.883,21.672h21.474l-1.424-3.838h-15.6
		l5.281-14.237c0.238-0.641,0.85-1.066,1.533-1.066h3.107l-0.543-1.465C17.476,0.425,16.863,0,16.18,0h-3.12
		C12.376,0,11.765,0.426,11.527,1.067z"/>
	<path id="svg_3" fill="#7FC325" d="M26.258,21.672H2.982C1.335,21.672,0,23.008,0,24.655l0,70.39c0,1.646,1.335,2.981,2.982,2.981
		h23.275c1.646,0,2.982-1.335,2.982-2.981V24.654C29.24,23.007,27.905,21.672,26.258,21.672z"/>
	<path id="svg_4" opacity="0.5" fill="#FFFFFF" enable-background="new    " d="M0,93.525h29.24V26.174H0V93.525z"/>
	<path id="svg_5" fill="#394049" d="M29.24,93.526v-5.859H0v5.859H29.24z"/>
	<path id="svg_6" fill="#7FC325" d="M14.621,37.927c-6.01,0-10.882,9.814-10.882,21.921c0,12.107,4.872,21.922,10.882,21.922
		s10.883-9.814,10.883-21.922C25.504,47.741,20.631,37.927,14.621,37.927z"/>
	<path id="svg_7" fill="#394049" d="M29.24,32.033v-5.859H0v5.859H29.24z"/>
	<path id="svg_8" opacity="0.1" enable-background="new    " d="M0,24.655v70.39c0,1.646,1.335,2.982,2.982,2.982h0.625v-67.64
		c0-1.647,1.335-2.982,2.982-2.982h22.65v-2.75c0-1.647-1.336-2.982-2.982-2.982l-23.275,0C1.335,21.673,0,23.008,0,24.655z"/>
</g>
<g>
	<path fill="#FFFFFF" d="M13.733,56.091l0.235-0.576c-0.117,0.032-0.302,0.103-0.552,0.212c-0.541,0.228-0.886,0.341-1.034,0.341
		c-0.141,0-0.257-0.076-0.347-0.229c-0.09-0.152-0.135-0.351-0.135-0.593c0-0.204,0.051-0.447,0.153-0.729
		c0.102-0.283,0.211-0.475,0.329-0.576c0.204-0.157,1.097-0.604,2.68-1.341l0.353-0.152c0.07-0.047,0.184-0.102,0.341-0.164
		c1.042-0.51,1.708-0.764,1.998-0.764c0.259,0,0.46,0.074,0.605,0.223c0.145,0.148,0.216,0.36,0.214,0.635
		c0,0.587-0.273,1.625-0.822,3.114c-0.125,0.36-0.225,0.645-0.3,0.853c-0.074,0.208-0.182,0.516-0.322,0.923
		c-0.04,0.148-0.083,0.302-0.13,0.458c-0.273,0.917-0.474,1.606-0.599,2.068c-0.016,0.055-0.068,0.241-0.159,0.559
		c-0.09,0.317-0.154,0.546-0.193,0.688c-0.039,0.141-0.082,0.286-0.129,0.435c-0.525,2.006-0.964,3.291-1.316,3.854
		c-0.117,0.181-0.255,0.342-0.411,0.482c-0.337,0.259-0.628,0.459-0.875,0.6c-0.247,0.141-0.482,0.241-0.705,0.3
		c-0.224,0.059-0.476,0.088-0.758,0.088c-0.408,0-0.77-0.119-1.087-0.358c-0.317-0.239-0.476-0.511-0.476-0.816
		c0-0.055,0.016-0.146,0.047-0.271C11.261,62.603,12.394,59.515,13.733,56.091z"/>
</g>
</svg>
