<?xml version="1.0" encoding="utf-8"?>
<!-- Generator: Adobe Illustrator 16.0.0, SVG Export Plug-In . SVG Version: 6.00 Build 0)  -->
<!DOCTYPE svg PUBLIC "-//W3C//DTD SVG 1.1//EN" "http://www.w3.org/Graphics/SVG/1.1/DTD/svg11.dtd">
<svg version="1.1" id="Layer_1" xmlns="http://www.w3.org/2000/svg" xmlns:xlink="http://www.w3.org/1999/xlink" x="0px" y="0px"
	 width="29px" height="98px" viewBox="0 0 29 98" enable-background="new 0 0 29 98" xml:space="preserve">
<rect id="backgroundrect" fill="none" width="29" height="98"/>
<g>
	<title>Layer 1</title>
	<path id="svg_1" fill="#FCB040" d="M25.357,21.672H3.883l7.643-20.605C11.765,0.426,12.376,0,13.06,0h3.12
		c0.685,0,1.296,0.425,1.533,1.066L25.357,21.672z"/>
	<path id="svg_2" opacity="0.15" enable-background="new    " d="M11.526,1.067L3.883,21.672h21.474l-1.424-3.838h-15.6
		l5.281-14.237c0.238-0.641,0.85-1.066,1.533-1.066h3.107l-0.543-1.465C17.476,0.425,16.863,0,16.18,0h-3.12
		C12.376,0,11.765,0.426,11.526,1.067z"/>
	<path id="svg_3" fill="#FCB040" d="M26.258,21.672H2.982C1.335,21.672,0,23.008,0,24.655l0,70.39c0,1.646,1.335,2.981,2.982,2.981
		h23.275c1.646,0,2.982-1.335,2.982-2.981V24.654C29.24,23.007,27.905,21.672,26.258,21.672z"/>
	<path id="svg_4" opacity="0.5" fill="#FFFFFF" enable-background="new    " d="M0.001,93.524H29.24V26.173H0.001V93.524z"/>
	<path id="svg_5" fill="#394049" d="M29.24,93.526v-5.859H0v5.859H29.24z"/>
	<path id="svg_6" fill="#FCB040" d="M14.621,37.927c-6.01,0-10.882,9.814-10.882,21.921c0,12.107,4.872,21.922,10.882,21.922
		s10.883-9.814,10.883-21.922C25.504,47.741,20.631,37.927,14.621,37.927z"/>
	<path id="svg_7" fill="#394049" d="M29.24,32.033v-5.859H0v5.859H29.24z"/>
	<path id="svg_8" opacity="0.1" enable-background="new    " d="M0,24.655v70.39c0,1.646,1.335,2.982,2.982,2.982h0.625v-67.64
		c0-1.647,1.335-2.982,2.982-2.982h22.65v-2.75c0-1.647-1.335-2.982-2.982-2.982l-23.275,0C1.335,21.673,0,23.008,0,24.655z"/>
</g>
<g>
	<path fill="#FFFFFF" d="M10.864,57.213l0.186-0.455c-0.093,0.023-0.238,0.08-0.436,0.166c-0.427,0.18-0.699,0.27-0.816,0.27
		c-0.111,0-0.203-0.061-0.274-0.182c-0.071-0.119-0.106-0.275-0.106-0.467c0-0.162,0.04-0.354,0.121-0.576
		c0.08-0.223,0.167-0.375,0.26-0.455c0.161-0.123,0.866-0.477,2.115-1.057l0.278-0.121c0.056-0.037,0.145-0.08,0.269-0.129
		c0.822-0.402,1.349-0.604,1.577-0.604c0.204,0,0.363,0.059,0.478,0.176s0.171,0.285,0.17,0.5c0,0.465-0.217,1.283-0.649,2.459
		c-0.099,0.285-0.178,0.51-0.236,0.674s-0.144,0.406-0.255,0.729c-0.031,0.117-0.065,0.236-0.103,0.361
		c-0.216,0.723-0.374,1.268-0.473,1.633c-0.013,0.043-0.055,0.189-0.125,0.439c-0.071,0.252-0.122,0.432-0.153,0.543
		s-0.064,0.227-0.102,0.344c-0.415,1.582-0.761,2.598-1.039,3.043c-0.093,0.143-0.201,0.27-0.325,0.381
		c-0.266,0.203-0.496,0.361-0.691,0.473s-0.38,0.189-0.557,0.236s-0.375,0.07-0.598,0.07c-0.321,0-0.607-0.094-0.858-0.283
		s-0.375-0.404-0.375-0.645c0-0.043,0.012-0.115,0.037-0.213C8.912,62.352,9.806,59.914,10.864,57.213z"/>
	<path fill="#FFFFFF" d="M17.988,57.213l0.186-0.455c-0.092,0.023-0.238,0.08-0.436,0.166c-0.428,0.18-0.699,0.27-0.816,0.27
		c-0.111,0-0.203-0.061-0.273-0.182c-0.072-0.119-0.107-0.275-0.107-0.467c0-0.162,0.041-0.354,0.121-0.576s0.166-0.375,0.26-0.455
		c0.16-0.123,0.865-0.477,2.115-1.057l0.277-0.121c0.057-0.037,0.146-0.08,0.27-0.129c0.822-0.402,1.35-0.604,1.578-0.604
		c0.203,0,0.363,0.059,0.477,0.176c0.115,0.117,0.172,0.285,0.17,0.5c0,0.465-0.217,1.283-0.648,2.459
		c-0.1,0.285-0.178,0.51-0.236,0.674s-0.145,0.406-0.256,0.729c-0.031,0.117-0.064,0.236-0.102,0.361
		c-0.217,0.723-0.375,1.268-0.473,1.633c-0.014,0.043-0.055,0.189-0.125,0.439c-0.072,0.252-0.123,0.432-0.154,0.543
		s-0.064,0.227-0.102,0.344c-0.414,1.582-0.76,2.598-1.039,3.043c-0.092,0.143-0.201,0.27-0.324,0.381
		c-0.266,0.203-0.496,0.361-0.691,0.473c-0.193,0.111-0.379,0.189-0.557,0.236c-0.176,0.047-0.375,0.07-0.598,0.07
		c-0.322,0-0.607-0.094-0.857-0.283s-0.377-0.404-0.377-0.645c0-0.043,0.014-0.115,0.037-0.213
		C16.037,62.352,16.932,59.914,17.988,57.213z"/>
</g>
</svg>
