<?xml version="1.0" encoding="utf-8"?>
<!-- Generator: Adobe Illustrator 16.0.0, SVG Export Plug-In . SVG Version: 6.00 Build 0)  -->
<!DOCTYPE svg PUBLIC "-//W3C//DTD SVG 1.1//EN" "http://www.w3.org/Graphics/SVG/1.1/DTD/svg11.dtd">
<svg version="1.1" id="Layer_1" xmlns="http://www.w3.org/2000/svg" xmlns:xlink="http://www.w3.org/1999/xlink" x="0px" y="0px"
	 width="29px" height="98px" viewBox="0 0 29 98" enable-background="new 0 0 29 98" xml:space="preserve">
<rect id="backgroundrect" fill="none" width="29" height="98"/>
<g>
	<title>Layer 1</title>
	<path id="svg_1" fill="#F4AC3B" d="M25.357,21.672H3.883l7.643-20.605C11.765,0.426,12.376,0,13.06,0h3.12
		c0.685,0,1.296,0.425,1.533,1.066L25.357,21.672z"/>
	<path id="svg_2" opacity="0.15" enable-background="new    " d="M11.527,1.067L3.883,21.672h21.474l-1.424-3.838h-15.6
		l5.281-14.237c0.238-0.641,0.85-1.066,1.533-1.066h3.107l-0.543-1.465C17.476,0.425,16.863,0,16.18,0h-3.12
		C12.376,0,11.765,0.426,11.527,1.067z"/>
	<path id="svg_3" fill="#F4AC3B" d="M26.258,21.672H2.982C1.335,21.672,0,23.008,0,24.655l0,70.39c0,1.646,1.335,2.981,2.982,2.981
		h23.275c1.646,0,2.982-1.335,2.982-2.981V24.654C29.24,23.007,27.905,21.672,26.258,21.672z"/>
	<path id="svg_4" opacity="0.5" fill="#FFFFFF" enable-background="new    " d="M0,93.525h29.24V26.174H0V93.525z"/>
	<path id="svg_5" fill="#394049" d="M29.24,93.526v-5.859H0v5.859H29.24z"/>
	<path id="svg_6" fill="#C3184E" d="M14.621,37.927c-6.01,0-10.882,9.814-10.882,21.921c0,12.107,4.872,21.922,10.882,21.922
		s10.883-9.814,10.883-21.922C25.504,47.741,20.631,37.927,14.621,37.927z"/>
	<path id="svg_7" fill="#394049" d="M29.24,32.033v-5.859H0v5.859H29.24z"/>
	<path id="svg_8" opacity="0.1" enable-background="new    " d="M0,24.655v70.39c0,1.646,1.335,2.982,2.982,2.982h0.625v-67.64
		c0-1.647,1.335-2.982,2.982-2.982h22.65v-2.75c0-1.647-1.336-2.982-2.982-2.982l-23.275,0C1.335,21.673,0,23.008,0,24.655z"/>
</g>
<g>
	<path fill="#FFFFFF" d="M13.841,59.1l2.184-4.525c-0.07-0.016-0.16-0.023-0.27-0.023c-0.424,0-1.234,0.209-2.433,0.623
		c-0.619,0.221-1.099,0.375-1.44,0.465s-0.629,0.135-0.864,0.135c-0.439,0-0.658-0.168-0.658-0.506c0-0.281,0.113-0.66,0.341-1.134
		c0.227-0.474,0.493-0.899,0.798-1.275c0.204-0.259,0.392-0.431,0.564-0.517s0.431-0.129,0.775-0.129
		c0.148,0,0.27,0.008,0.364,0.023l2.643,0.047c1.778,0.047,3.007,0.215,3.688,0.504c0.251,0.125,0.376,0.309,0.376,0.551
		c0,0.219-0.146,0.631-0.437,1.234l-2.098,4.504H17.6h0.581h0.366c0.403,0,0.604,0.047,0.604,0.141c0,0.172-0.089,0.416-0.266,0.734
		c-0.177,0.316-0.363,0.568-0.56,0.756c-0.463,0.486-1.194,0.838-2.191,1.057l-1.581,3.881c-0.031,0.094-0.066,0.193-0.105,0.295
		c-0.117,0.313-0.242,0.545-0.375,0.693c-0.353,0.307-0.81,0.555-1.37,0.746c-0.56,0.193-1.114,0.289-1.663,0.289
		c-0.36,0-0.645-0.066-0.852-0.201c-0.207-0.133-0.311-0.305-0.311-0.516c0-0.244,0.259-0.824,0.778-1.74
		c0.023-0.039,0.043-0.072,0.059-0.1c0.016-0.027,0.035-0.064,0.059-0.111l1.545-2.797h-0.142c-0.095,0.016-0.233,0.023-0.414,0.023
		c-0.678,0-1.017-0.256-1.017-0.766c0-0.164,0.063-0.414,0.188-0.752c0.32-0.721,0.586-1.178,0.797-1.375
		c0.109-0.109,0.43-0.164,0.961-0.164C13.029,59.17,13.412,59.146,13.841,59.1z"/>
</g>
</svg>
