<?xml version="1.0" encoding="utf-8"?>
<!-- Generator: Adobe Illustrator 16.0.0, SVG Export Plug-In . SVG Version: 6.00 Build 0)  -->
<!DOCTYPE svg PUBLIC "-//W3C//DTD SVG 1.1//EN" "http://www.w3.org/Graphics/SVG/1.1/DTD/svg11.dtd">
<svg version="1.1" id="Layer_1" xmlns="http://www.w3.org/2000/svg" xmlns:xlink="http://www.w3.org/1999/xlink" x="0px" y="0px"
	 width="29px" height="98px" viewBox="0 0 29 98" enable-background="new 0 0 29 98" xml:space="preserve">
<rect id="backgroundrect" fill="none" width="29" height="98"/>
<g>
	<title>Layer 1</title>
	<path id="svg_1" fill="#F1592A" d="M25.357,21.672H3.883l7.643-20.605C11.765,0.426,12.376,0,13.06,0h3.12
		c0.685,0,1.296,0.425,1.533,1.066L25.357,21.672z"/>
	<path id="svg_2" opacity="0.15" enable-background="new    " d="M11.526,1.067L3.883,21.672h21.474l-1.424-3.838h-15.6
		l5.281-14.237c0.238-0.641,0.85-1.066,1.533-1.066h3.107l-0.543-1.465C17.476,0.425,16.863,0,16.18,0h-3.12
		C12.376,0,11.765,0.426,11.526,1.067z"/>
	<path id="svg_3" fill="#F1592A" d="M26.258,21.672H2.982C1.335,21.672,0,23.008,0,24.655l0,70.39c0,1.646,1.335,2.981,2.982,2.981
		h23.275c1.646,0,2.982-1.335,2.982-2.981V24.654C29.24,23.007,27.905,21.672,26.258,21.672z"/>
	<path id="svg_4" opacity="0.5" fill="#FFFFFF" enable-background="new    " d="M0.001,93.524H29.24V26.173H0.001V93.524z"/>
	<path id="svg_5" fill="#394049" d="M29.24,93.526v-5.859H0v5.859H29.24z"/>
	<path id="svg_6" fill="#F1592A" d="M14.621,37.927c-6.01,0-10.882,9.814-10.882,21.921c0,12.107,4.872,21.922,10.882,21.922
		s10.883-9.814,10.883-21.922C25.504,47.741,20.631,37.927,14.621,37.927z"/>
	<path id="svg_7" fill="#394049" d="M29.24,32.033v-5.859H0v5.859H29.24z"/>
	<path id="svg_8" opacity="0.1" enable-background="new    " d="M0,24.655v70.39c0,1.646,1.335,2.982,2.982,2.982h0.625v-67.64
		c0-1.647,1.335-2.982,2.982-2.982h22.65v-2.75c0-1.647-1.335-2.982-2.982-2.982l-23.275,0C1.335,21.673,0,23.008,0,24.655z"/>
</g>
<g>
	<path fill="#FFFFFF" d="M15.352,60.596v0.059l-0.047-0.059c-0.674,0.445-1.237,0.756-1.687,0.928
		c-0.451,0.172-0.922,0.26-1.416,0.26c-0.823,0-1.495-0.289-2.016-0.865c-0.521-0.576-0.782-1.322-0.782-2.238
		c0-1.027,0.321-2.027,0.964-3.002c0.643-0.977,1.481-1.77,2.515-2.381s2.072-0.913,3.115-0.905c1.145,0,2.131,0.407,2.961,1.222
		c0.949,0.949,1.422,2.242,1.422,3.879c0,1.176-0.293,2.387-0.881,3.633c-0.588,1.244-1.363,2.385-2.326,3.42
		c-0.965,1.033-2.033,1.867-3.209,2.496c-1.175,0.631-2.312,0.947-3.408,0.947c-0.251,0-0.429-0.027-0.535-0.082
		C9.916,67.852,9.863,67.75,9.863,67.6c0-0.078,0.041-0.154,0.124-0.229c0.082-0.074,0.209-0.15,0.382-0.229
		c0.65-0.283,1.291-0.744,1.921-1.387c0.631-0.643,1.215-1.414,1.751-2.311C14.578,62.549,15.014,61.598,15.352,60.596z
		 M15.609,59.949c0.314-0.752,0.553-1.502,0.717-2.252c0.166-0.748,0.248-1.459,0.248-2.133c0-0.595-0.092-1.068-0.277-1.422
		c-0.184-0.352-0.428-0.529-0.734-0.529c-0.125,0-0.285,0.058-0.48,0.172c-0.197,0.113-0.374,0.252-0.53,0.416
		c-0.415,0.432-0.743,0.934-0.981,1.506c-0.239,0.57-0.358,1.127-0.358,1.668c0,0.658,0.221,1.227,0.664,1.705
		C14.319,59.557,14.897,59.848,15.609,59.949z"/>
</g>
</svg>
