<?xml version="1.0" encoding="utf-8"?>
<!-- Generator: Adobe Illustrator 16.0.0, SVG Export Plug-In . SVG Version: 6.00 Build 0)  -->
<!DOCTYPE svg PUBLIC "-//W3C//DTD SVG 1.1//EN" "http://www.w3.org/Graphics/SVG/1.1/DTD/svg11.dtd">
<svg version="1.1" id="Layer_1" xmlns="http://www.w3.org/2000/svg" xmlns:xlink="http://www.w3.org/1999/xlink" x="0px" y="0px"
	 width="29px" height="98px" viewBox="0 0 29 98" enable-background="new 0 0 29 98" xml:space="preserve">
<rect id="backgroundrect" fill="none" width="29" height="98"/>
<g>
	<title>Layer 1</title>
	<path id="svg_1" fill="#00C8BA" d="M25.357,21.672H3.883l7.643-20.605C11.765,0.426,12.376,0,13.06,0h3.12
		c0.685,0,1.296,0.425,1.533,1.066L25.357,21.672z"/>
	<path id="svg_2" opacity="0.15" enable-background="new    " d="M11.526,1.067L3.883,21.672h21.474l-1.424-3.838h-15.6
		l5.281-14.237c0.238-0.641,0.85-1.066,1.533-1.066h3.107l-0.543-1.465C17.476,0.425,16.863,0,16.18,0h-3.12
		C12.376,0,11.765,0.426,11.526,1.067z"/>
	<path id="svg_3" fill="#00C8BA" d="M26.258,21.672H2.982C1.335,21.672,0,23.008,0,24.655l0,70.39c0,1.646,1.335,2.981,2.982,2.981
		h23.275c1.646,0,2.982-1.335,2.982-2.981V24.654C29.24,23.007,27.905,21.672,26.258,21.672z"/>
	<path id="svg_4" opacity="0.5" fill="#FFFFFF" enable-background="new    " d="M0.001,93.524H29.24V26.173H0.001V93.524z"/>
	<path id="svg_5" fill="#394049" d="M29.24,93.526v-5.859H0v5.859H29.24z"/>
	<path id="svg_6" fill="#00C8BA" d="M14.621,37.927c-6.01,0-10.882,9.814-10.882,21.921c0,12.107,4.872,21.922,10.882,21.922
		s10.883-9.814,10.883-21.922C25.504,47.741,20.631,37.927,14.621,37.927z"/>
	<path id="svg_7" fill="#394049" d="M29.24,32.033v-5.859H0v5.859H29.24z"/>
	<path id="svg_8" opacity="0.1" enable-background="new    " d="M0,24.655v70.39c0,1.646,1.335,2.982,2.982,2.982h0.625v-67.64
		c0-1.647,1.335-2.982,2.982-2.982h22.65v-2.75c0-1.647-1.335-2.982-2.982-2.982l-23.275,0C1.335,21.673,0,23.008,0,24.655z"/>
</g>
<g>
	<path fill="#FFFFFF" d="M12.444,65.984h0.07c0.259,0,0.582-0.119,0.97-0.358c0.388-0.238,0.77-0.554,1.146-0.945
		c0.486-0.502,0.872-1.036,1.158-1.604s0.429-1.1,0.429-1.593c0-1.073-0.568-1.724-1.704-1.951c-0.22-0.031-0.376-0.08-0.47-0.146
		c-0.095-0.066-0.142-0.171-0.142-0.312c0-0.157,0.188-0.396,0.564-0.717c0.564-0.494,1.005-1.032,1.322-1.616
		s0.476-1.17,0.476-1.758c0-0.626-0.129-0.939-0.388-0.939c-0.212,0-0.474,0.167-0.787,0.499c-0.313,0.333-0.613,0.759-0.899,1.275
		c-0.286,0.518-0.499,1.026-0.641,1.528c-0.047,0.172-0.094,0.284-0.141,0.335s-0.114,0.076-0.2,0.076
		c-0.228,0-0.509-0.177-0.846-0.529c-0.478-0.509-0.717-1.026-0.717-1.551c0-0.604,0.245-1.203,0.734-1.799s1.126-1.077,1.91-1.445
		c0.784-0.368,1.587-0.553,2.41-0.553c0.665,0,1.272,0.129,1.821,0.389c0.548,0.258,0.976,0.617,1.281,1.074
		c0.306,0.459,0.458,0.975,0.458,1.546c0,1.042-0.45,1.877-1.352,2.504c-0.47,0.321-1.054,0.627-1.751,0.917v0.047
		c1.104,0.063,1.936,0.31,2.491,0.74c0.557,0.431,0.835,1.034,0.835,1.81c0,0.36-0.084,0.759-0.253,1.193s-0.407,0.881-0.717,1.34
		c-0.31,0.458-0.68,0.915-1.11,1.369c-0.94,0.995-1.963,1.772-3.068,2.333c-1.104,0.56-2.166,0.84-3.185,0.84
		c-0.972,0-1.781-0.31-2.427-0.928c-0.646-0.619-0.969-1.395-0.969-2.327c0-0.635,0.217-1.27,0.652-1.904
		c0.435-0.635,0.997-1.153,1.687-1.558c0.689-0.403,1.379-0.604,2.068-0.604c0.29,0,0.435,0.105,0.435,0.317
		c0,0.086-0.121,0.23-0.364,0.435c-0.023,0.023-0.049,0.049-0.076,0.076c-0.028,0.027-0.058,0.057-0.089,0.088
		c-0.305,0.353-0.542,0.792-0.71,1.316c-0.168,0.525-0.252,1.074-0.252,1.646C12.104,65.104,12.217,65.585,12.444,65.984z"/>
</g>
</svg>
