<?xml version="1.0" encoding="utf-8"?>
<!-- Generator: Adobe Illustrator 16.0.0, SVG Export Plug-In . SVG Version: 6.00 Build 0)  -->
<!DOCTYPE svg PUBLIC "-//W3C//DTD SVG 1.1//EN" "http://www.w3.org/Graphics/SVG/1.1/DTD/svg11.dtd">
<svg version="1.1" id="Layer_1" xmlns="http://www.w3.org/2000/svg" xmlns:xlink="http://www.w3.org/1999/xlink" x="0px" y="0px"
	 width="29px" height="98px" viewBox="0 0 29 98" enable-background="new 0 0 29 98" xml:space="preserve">
<rect id="backgroundrect" fill="none" width="29" height="98"/>
<g>
	<title>Layer 1</title>
	<path id="svg_1" fill="#ED1C24" d="M25.357,21.672H3.883l7.643-20.605C11.765,0.426,12.376,0,13.06,0h3.12
		c0.685,0,1.296,0.425,1.533,1.066L25.357,21.672z"/>
	<path id="svg_2" opacity="0.15" enable-background="new    " d="M11.527,1.067L3.883,21.672h21.474l-1.424-3.838h-15.6
		l5.281-14.237c0.238-0.641,0.85-1.066,1.533-1.066h3.107l-0.543-1.465C17.476,0.425,16.863,0,16.18,0h-3.12
		C12.376,0,11.765,0.426,11.527,1.067z"/>
	<path id="svg_3" fill="#ED1C24" d="M26.258,21.672H2.982C1.335,21.672,0,23.008,0,24.655l0,70.39c0,1.646,1.335,2.981,2.982,2.981
		h23.275c1.647,0,2.982-1.335,2.982-2.981V24.654C29.24,23.007,27.905,21.672,26.258,21.672z"/>
	<path id="svg_4" opacity="0.5" fill="#FFFFFF" enable-background="new    " d="M0.001,93.524H29.24V26.173H0.001V93.524z"/>
	<path id="svg_5" fill="#394049" d="M29.24,93.526v-5.859H0v5.859H29.24z"/>
	<path id="svg_6" fill="#ED1C24" d="M14.621,37.927c-6.01,0-10.882,9.814-10.882,21.921c0,12.107,4.872,21.922,10.882,21.922
		s10.883-9.814,10.883-21.922C25.504,47.741,20.631,37.927,14.621,37.927z"/>
	<path id="svg_7" fill="#394049" d="M29.24,32.033v-5.859H0v5.859H29.24z"/>
	<path id="svg_8" opacity="0.1" enable-background="new    " d="M0,24.655v70.39c0,1.646,1.335,2.982,2.982,2.982h0.625v-67.64
		c0-1.647,1.335-2.982,2.982-2.982h22.65v-2.75c0-1.647-1.335-2.982-2.982-2.982l-23.275,0C1.335,21.673,0,23.008,0,24.655z"/>
</g>
<g>
	<path fill="#FFFFFF" d="M12.428,60.309l0.893-0.611c-0.822-0.736-1.417-1.418-1.786-2.045s-0.552-1.27-0.552-1.928
		c0-0.549,0.125-1.074,0.376-1.574c0.25-0.502,0.603-0.947,1.058-1.335c0.454-0.388,0.981-0.689,1.581-0.905
		c0.599-0.215,1.224-0.322,1.875-0.322c0.994,0,1.492,0.168,1.492,0.505c0,0.11-0.121,0.177-0.363,0.2
		c-0.486,0.086-0.879,0.332-1.176,0.74c-0.229,0.298-0.426,0.678-0.594,1.141s-0.252,0.871-0.252,1.223
		c-0.002,0.816,0.319,1.459,0.961,1.928c0.439-0.463,0.787-0.949,1.041-1.457c0.256-0.51,0.383-0.988,0.383-1.436
		c0-0.431-0.121-0.783-0.363-1.058c-0.064-0.063-0.096-0.114-0.096-0.153c0-0.125,0.139-0.273,0.412-0.446
		c0.416-0.274,0.842-0.411,1.281-0.411c0.289,0,0.561,0.072,0.811,0.217c0.252,0.146,0.443,0.35,0.576,0.611
		c0.133,0.264,0.199,0.563,0.199,0.9c0,0.713-0.215,1.393-0.646,2.039s-1.18,1.414-2.246,2.299c0.645,0.633,1.115,1.236,1.412,1.809
		c0.299,0.57,0.447,1.146,0.447,1.727c0,0.643-0.172,1.281-0.518,1.916s-0.809,1.209-1.393,1.723
		c-0.584,0.512-1.236,0.92-1.957,1.221c-0.721,0.303-1.43,0.453-2.127,0.453c-1.112,0-2.014-0.277-2.703-0.834
		S9.42,65.162,9.42,64.27c0-0.744,0.209-1.391,0.628-1.939C10.468,61.781,11.261,61.107,12.428,60.309z M14.674,60.73
		c-0.494,0.432-0.878,0.957-1.152,1.576c-0.274,0.619-0.411,1.266-0.411,1.939c0,0.516,0.063,0.92,0.188,1.209
		c0.125,0.291,0.301,0.436,0.529,0.436c0.086,0,0.196-0.033,0.329-0.1s0.231-0.131,0.294-0.193c0.337-0.338,0.635-0.785,0.893-1.34
		c0.258-0.557,0.389-1.031,0.389-1.422c0-0.494-0.096-0.924-0.283-1.287C15.262,61.184,15.004,60.912,14.674,60.73z"/>
</g>
</svg>
