<?xml version="1.0" encoding="utf-8"?>
<!-- Generator: Adobe Illustrator 16.0.0, SVG Export Plug-In . SVG Version: 6.00 Build 0)  -->
<!DOCTYPE svg PUBLIC "-//W3C//DTD SVG 1.1//EN" "http://www.w3.org/Graphics/SVG/1.1/DTD/svg11.dtd">
<svg version="1.1" id="Layer_1" xmlns="http://www.w3.org/2000/svg" xmlns:xlink="http://www.w3.org/1999/xlink" x="0px" y="0px"
	 width="29px" height="98px" viewBox="0 0 29 98" enable-background="new 0 0 29 98" xml:space="preserve">
<rect id="backgroundrect" fill="none" width="29" height="98"/>
<g>
	<title>Layer 1</title>
	<path id="svg_1" fill="#51008E" d="M25.357,21.672H3.883l7.643-20.605C11.765,0.426,12.376,0,13.06,0h3.12
		c0.685,0,1.296,0.425,1.533,1.066L25.357,21.672z"/>
	<path id="svg_2" opacity="0.15" enable-background="new    " d="M11.526,1.067L3.883,21.672h21.474l-1.424-3.838h-15.6
		l5.281-14.237c0.238-0.641,0.85-1.066,1.533-1.066h3.107l-0.543-1.465C17.476,0.425,16.863,0,16.18,0h-3.12
		C12.376,0,11.765,0.426,11.526,1.067z"/>
	<path id="svg_3" fill="#51008E" d="M26.258,21.672H2.982C1.335,21.672,0,23.008,0,24.655l0,70.39c0,1.646,1.335,2.981,2.982,2.981
		h23.275c1.646,0,2.982-1.335,2.982-2.981V24.654C29.24,23.007,27.905,21.672,26.258,21.672z"/>
	<path id="svg_4" opacity="0.5" fill="#FFFFFF" enable-background="new    " d="M0.001,93.524H29.24V26.173H0.001V93.524z"/>
	<path id="svg_5" fill="#394049" d="M29.24,93.526v-5.859H0v5.859H29.24z"/>
	<path id="svg_6" fill="#51008E" d="M14.621,37.927c-6.01,0-10.882,9.814-10.882,21.921c0,12.107,4.872,21.922,10.882,21.922
		s10.883-9.814,10.883-21.922C25.504,47.741,20.631,37.927,14.621,37.927z"/>
	<path id="svg_7" fill="#394049" d="M29.24,32.033v-5.859H0v5.859H29.24z"/>
	<path id="svg_8" opacity="0.1" enable-background="new    " d="M0,24.655v70.39c0,1.646,1.335,2.982,2.982,2.982h0.625v-67.64
		c0-1.647,1.335-2.982,2.982-2.982h22.65v-2.75c0-1.647-1.335-2.982-2.982-2.982l-23.275,0C1.335,21.673,0,23.008,0,24.655z"/>
</g>
<g>
	<path fill="#FFFFFF" d="M14.707,55.814l-0.87,1.539l0.048,0.047c0.556-0.234,1.05-0.402,1.48-0.504
		c0.431-0.104,0.854-0.154,1.27-0.154c1.073,0,1.907,0.254,2.503,0.758c0.596,0.506,0.894,1.217,0.894,2.135
		c0,0.453-0.064,0.934-0.194,1.439c-0.129,0.506-0.321,1.014-0.575,1.527c-0.255,0.514-0.561,1.018-0.917,1.51
		c-0.356,0.494-0.798,1.008-1.322,1.541c-0.768,0.775-1.538,1.383-2.31,1.82c-0.771,0.439-1.463,0.658-2.074,0.658
		c-0.447,0-0.886-0.088-1.316-0.264c-0.431-0.176-0.811-0.426-1.14-0.746c-0.58-0.58-0.87-1.398-0.87-2.457
		c0-1.41,0.403-2.516,1.21-3.314c0.399-0.406,0.868-0.742,1.404-1.004c0.537-0.264,1.005-0.395,1.405-0.395
		c0.423,0,0.635,0.117,0.635,0.354v0.035c-0.337,0.398-0.59,0.738-0.758,1.016c-0.168,0.279-0.343,0.652-0.523,1.123
		c-0.306,0.783-0.458,1.695-0.458,2.738c0,0.807,0.161,1.211,0.482,1.211c0.416,0,0.865-0.244,1.352-0.729
		c0.533-0.557,0.995-1.246,1.387-2.068c0.392-0.824,0.588-1.521,0.588-2.094c0-0.799-0.167-1.389-0.499-1.768
		c-0.334-0.381-0.864-0.57-1.593-0.57c-0.408,0-0.956,0.074-1.646,0.223c-0.376,0.063-0.576,0.094-0.6,0.094
		c-0.227,0-0.417-0.076-0.57-0.229s-0.229-0.35-0.229-0.594c0-0.203,0.106-0.627,0.317-1.27c0.337-1.08,0.689-2.061,1.058-2.938
		l0.07-0.164c0.039-0.078,0.106-0.225,0.2-0.436c0.227-0.557,0.429-0.904,0.605-1.046s0.496-0.212,0.958-0.212
		c1.481,0,2.598,0.016,3.35,0.047c0.173,0,0.321,0.008,0.447,0.023h0.152c0.588,0.031,0.987,0.083,1.199,0.153
		c0.211,0.07,0.317,0.181,0.317,0.329c0,0.133-0.089,0.335-0.265,0.605c-0.177,0.27-0.394,0.527-0.652,0.77
		c-0.439,0.439-0.894,0.777-1.363,1.016c-0.471,0.24-0.933,0.359-1.387,0.359c-0.196,0-0.506-0.023-0.929-0.07
		c-0.126-0.031-0.192-0.047-0.2-0.047H14.707z"/>
</g>
</svg>
