<?xml version="1.0" encoding="utf-8"?>
<!-- Generator: Adobe Illustrator 16.0.0, SVG Export Plug-In . SVG Version: 6.00 Build 0)  -->
<!DOCTYPE svg PUBLIC "-//W3C//DTD SVG 1.1//EN" "http://www.w3.org/Graphics/SVG/1.1/DTD/svg11.dtd">
<svg version="1.1" id="Layer_1" xmlns="http://www.w3.org/2000/svg" xmlns:xlink="http://www.w3.org/1999/xlink" x="0px" y="0px"
	 width="29px" height="98px" viewBox="0 0 29 98" enable-background="new 0 0 29 98" xml:space="preserve">
<rect id="backgroundrect" fill="none" width="29" height="98"/>
<g>
	<title>Layer 1</title>
	<path id="svg_1" fill="#656AFF" d="M25.357,21.672H3.883l7.643-20.605C11.765,0.426,12.376,0,13.06,0h3.12
		c0.685,0,1.296,0.425,1.533,1.066L25.357,21.672z"/>
	<path id="svg_2" opacity="0.15" enable-background="new    " d="M11.526,1.067L3.883,21.672h21.474l-1.424-3.838h-15.6
		l5.281-14.237c0.238-0.641,0.85-1.066,1.533-1.066h3.107l-0.543-1.465C17.476,0.425,16.863,0,16.18,0h-3.12
		C12.376,0,11.765,0.426,11.526,1.067z"/>
	<path id="svg_3" fill="#656AFF" d="M26.258,21.672H2.982C1.335,21.672,0,23.008,0,24.655l0,70.39c0,1.646,1.335,2.981,2.982,2.981
		h23.275c1.646,0,2.982-1.335,2.982-2.981V24.654C29.24,23.007,27.905,21.672,26.258,21.672z"/>
	<path id="svg_4" opacity="0.5" fill="#FFFFFF" enable-background="new    " d="M0.001,93.524H29.24V26.173H0.001V93.524z"/>
	<path id="svg_5" fill="#394049" d="M29.24,93.526v-5.859H0v5.859H29.24z"/>
	<path id="svg_6" fill="#656AFF" d="M14.621,37.927c-6.01,0-10.882,9.814-10.882,21.921c0,12.107,4.872,21.922,10.882,21.922
		s10.883-9.814,10.883-21.922C25.504,47.741,20.631,37.927,14.621,37.927z"/>
	<path id="svg_7" fill="#394049" d="M29.24,32.033v-5.859H0v5.859H29.24z"/>
	<path id="svg_8" opacity="0.1" enable-background="new    " d="M0,24.655v70.39c0,1.646,1.335,2.982,2.982,2.982h0.625v-67.64
		c0-1.647,1.335-2.982,2.982-2.982h22.65v-2.75c0-1.647-1.335-2.982-2.982-2.982l-23.275,0C1.335,21.673,0,23.008,0,24.655z"/>
</g>
<g>
	<path fill="#FFFFFF" d="M14.016,61.574l-0.8,0.047c-1.153,0.078-1.866,0.119-2.141,0.119c-0.479,0-0.853-0.025-1.124-0.078
		c-0.271-0.051-0.451-0.141-0.541-0.27c-0.09-0.129-0.135-0.318-0.135-0.57c0-0.195,0.057-0.475,0.17-0.834
		c0.113-0.361,0.335-0.957,0.664-1.787c0.266-0.65,0.466-1.164,0.599-1.539c0.416-1.082,0.745-1.861,0.987-2.339
		c0.078-0.149,0.147-0.272,0.206-0.37c0.059-0.098,0.127-0.214,0.206-0.348c0.258-0.406,0.572-0.729,0.94-0.963
		c0.838-0.564,1.633-0.846,2.387-0.846c0.594,0,0.893,0.145,0.893,0.434c0,0.385-0.748,1.639-2.245,3.762
		c-0.729,1.033-1.364,1.994-1.904,2.879l2.751-0.141c0.195-0.65,0.457-1.186,0.781-1.604c0.326-0.42,0.736-0.73,1.23-0.936
		c0.494-0.203,1.066-0.305,1.719-0.305c0.336,0,0.574,0.037,0.711,0.111s0.207,0.199,0.207,0.371c0,0.158-0.059,0.428-0.178,0.811
		c-0.117,0.385-0.273,0.838-0.469,1.363l-0.094,0.234c0.154-0.016,0.258-0.025,0.309-0.029s0.115-0.01,0.193-0.018
		c0.07-0.008,0.131-0.014,0.182-0.018s0.107-0.006,0.17-0.006c0.178,0,0.268,0.047,0.268,0.141c0,0.031-0.008,0.055-0.023,0.07
		c-0.141,0.314-0.336,0.652-0.586,1.018c-0.25,0.363-0.479,0.652-0.689,0.863c-0.164,0.195-0.379,0.334-0.645,0.412
		c-0.174,0.564-0.494,1.646-0.965,3.246c-0.016,0.07-0.033,0.164-0.053,0.281s-0.033,0.199-0.041,0.246
		c-0.117,0.65-0.27,1.061-0.459,1.234c-0.619,0.367-1.164,0.639-1.635,0.816c-0.472,0.176-0.931,0.264-1.378,0.264
		c-0.321,0-0.607-0.078-0.858-0.236c-0.251-0.156-0.377-0.34-0.377-0.551c0-0.205,0.083-0.574,0.248-1.111
		c0.165-0.537,0.404-1.195,0.718-1.975C13.53,62.646,13.796,62.029,14.016,61.574z"/>
</g>
</svg>
